<?xml version="1.0" encoding="utf-8"?>
<!-- Generator: Adobe Illustrator 24.0.1, SVG Export Plug-In . SVG Version: 6.00 Build 0)  -->
<svg version="1.1" id="Layer_1" xmlns="http://www.w3.org/2000/svg" xmlns:xlink="http://www.w3.org/1999/xlink" x="0px" y="0px"
	 viewBox="0 0 334.76 346.87" style="enable-background:new 0 0 334.76 346.87;" xml:space="preserve">
<style type="text/css">
	.st0{fill:#1E120D;}
	.st1{fill:#A08340;}
	.st2{clip-path:url(#SVGID_2_);fill:#ECCEA3;}
</style>
<path class="st0" d="M266.98,28.66c-26.46-16.28-56.8-24.74-87.63-27.16c-0.37-0.03-0.67,0.09-0.91,0.28
	c-0.87-0.92-1.67-1.09-2.07,0.24c-1.78,5.91-3.57,11.82-5.35,17.73c-1.34,4.44-7.73,4.11-8.6-0.45c-0.67-3.53-1.35-7.06-2.02-10.59
	c-0.09-3.47-2.18-8.97-4.81-8.7C88.13,6.74,25.01,51.04,11.42,120.14C1.09,172.71,24.53,230.39,71.83,255.87
	c9.91,5.34,14.46,17.05,11.19,27.82c-1.34,4.43-3.15,8.76-5.38,12.9c-0.35,0.65-0.4,1.58-0.27,2.63c-0.48,1.29-0.23,3.84-0.14,4.29
	c0.53,2.78,1.92,6.17,4.93,6.96c11.04,6.04,34.76,19.03,35.37,18.9l11.66-13.42l-0.63-29.44c-0.06-2.67,1.78-5,4.39-5.57l0,0
	c0.12-0.03,0.21-0.1,0.31-0.15c4.22,18,8.45,36,12.67,54c0.02,0.07,0.04,0.13,0.06,0.2c-0.24,3.78,2.46,10.42,5.02,8.68
	c10.57,0.04,35.62,2.44,34.88-2.48c-2.76-18.32-5.52-36.65-8.28-54.97c0.07-0.01,0.13,0.02,0.19,0l7.82-1.7
	c0.03-0.01,0.06-0.03,0.09-0.04c6.42,12.23,12.84,24.45,19.25,36.68c0.61,1.17,24.08-0.6,35.78-2.1c1.73,1.31,2.55,0.63,2.8-0.81
	c2.91,3.61,2.81-5.46,1.17-8.34c-1-1.76-1.95-3.53-2.85-5.32c-8.54-17-2.48-37.78,13.87-47.51c38.07-22.63,73.29-51.83,78.34-98.93
	C339.65,106.18,310.65,55.52,266.98,28.66z"/>
<path class="st1" d="M303.57,205.67c-19.99,23.06-47.23,38.29-73.86,52.53c-0.26-5.2-0.2-10.45,0.21-15.74
	c0.23-3.03-5.32-13.21-5.79-7.06c-1.96,25.4,3.01,50.3,14.05,73c-10.64,1.43-21.28,2.87-31.92,4.3
	c-6.62-12.61-13.24-25.23-19.86-37.84c-0.89-1.7-15.4,1.34-14.82,5.17c2.71,17.96,5.41,35.93,8.12,53.89
	c-0.08-0.02-0.17-0.06-0.25-0.06c-9.69-0.4-19.38-0.8-29.07-1.21c-4.48-19.1-8.96-38.19-13.44-57.29
	c-0.93-3.97-18.09-3.58-18.09-3.58c-1.5,0.33-1.48,3.29-0.66,6.12c0.02,0.84,0.19,1.83,0.56,3.01c3.59,11.21-4.89,37.03-4.89,37.03
	c-0.01,0-0.02,0.01-0.03,0.02c-0.32-0.29-0.65-0.56-1.03-0.76c-9.28-5.06-18.57-10.12-27.85-15.18c10.69-23.92,8.3-51.21-4.78-74.05
	c-3.84-6.7-3.86,3.88-2.05,7.03c2.96,5.17,5.02,10.63,6.28,16.22c-0.18-0.13-0.37-0.24-0.56-0.31
	c-27.36-9.99-49.64-31.24-61.08-58.06c-11.39-26.7-10.04-56.96-0.16-83.9C43.29,52.5,98.02,18.64,155.96,11.82
	c1.27,6.65,2.6,17.24,3.48,25.23c0.71,6.43-2.84,12.57-8.77,15.16c0,0-35.26,16.42-35.24,17.81c-1.18-0.93-1.3,27.1-0.92,39.31
	c0.11,3.71,6,12.25,5.76,4.52c-0.36-11.79-0.73-23.58-1.09-35.37c0.38,0.2,0.77,0.24,1.13,0.08c0,0,47.6-20.64,47.6-20.86
	c0.99-0.55,1.22-2.1,0.99-3.88c0.05-0.11,0.11-0.19,0.15-0.33c4.09-13.56,8.18-27.11,12.27-40.67c0.12,0.04,0.24,0.1,0.37,0.11
	c62.15,4.88,129.96,38.11,144.63,104.06C333.43,148.93,324.95,181.02,303.57,205.67z"/>
<g>
	<defs>
		<path id="SVGID_1_" d="M303.57,205.67c-19.99,23.06-47.23,38.29-73.86,52.53c-0.26-5.2-0.2-10.45,0.21-15.74
			c0.23-3.03-5.32-13.21-5.79-7.06c-1.96,25.4,3.01,50.3,14.05,73c-10.64,1.43-21.28,2.87-31.92,4.3
			c-6.62-12.61-13.24-25.23-19.86-37.84c-0.89-1.7-15.4,1.34-14.82,5.17c2.71,17.96,5.41,35.93,8.12,53.89
			c-0.08-0.02-0.17-0.06-0.25-0.06c-9.69-0.4-19.38-0.8-29.07-1.21c-4.48-19.1-8.96-38.19-13.44-57.29
			c-0.93-3.97-18.09-3.58-18.09-3.58c-1.5,0.33-1.48,3.29-0.66,6.12c0.02,0.84,0.19,1.83,0.56,3.01
			c3.59,11.21-4.89,37.03-4.89,37.03c-0.01,0-0.02,0.01-0.03,0.02c-0.32-0.29-0.65-0.56-1.03-0.76
			c-9.28-5.06-18.57-10.12-27.85-15.18c10.69-23.92,8.3-51.21-4.78-74.05c-3.84-6.7-3.86,3.88-2.05,7.03
			c2.96,5.17,5.02,10.63,6.28,16.22c-0.18-0.13-0.37-0.24-0.56-0.31c-27.36-9.99-49.64-31.24-61.08-58.06
			c-11.39-26.7-10.04-56.96-0.16-83.9C43.29,52.5,98.02,18.64,155.96,11.82c1.27,6.65,2.6,17.24,3.48,25.23
			c0.71,6.43-2.84,12.57-8.77,15.16c0,0-35.26,16.42-35.24,17.81c-1.18-0.93-1.3,27.1-0.92,39.31c0.11,3.71,6,12.25,5.76,4.52
			c-0.36-11.79-0.73-23.58-1.09-35.37c0.38,0.2,0.77,0.24,1.13,0.08c0,0,47.6-20.64,47.6-20.86c0.99-0.55,1.22-2.1,0.99-3.88
			c0.05-0.11,0.11-0.19,0.15-0.33c4.09-13.56,8.18-27.11,12.27-40.67c0.12,0.04,0.24,0.1,0.37,0.11
			c62.15,4.88,129.96,38.11,144.63,104.06C333.43,148.93,324.95,181.02,303.57,205.67z"/>
	</defs>
	<clipPath id="SVGID_2_">
		<use xlink:href="#SVGID_1_"  style="overflow:visible;"/>
	</clipPath>
	<path class="st2" d="M288.89,218.63c-19.99,23.06-47.23,38.29-73.86,52.53c-0.26-5.2-0.2-10.45,0.21-15.74
		c0.23-3.03-5.32-13.21-5.79-7.06c-1.96,25.4,3.01,50.3,14.05,73c-10.64,1.43-21.28,2.87-31.92,4.3
		c-6.62-12.61-13.24-25.23-19.86-37.84c-0.89-1.7-15.4,1.34-14.82,5.17c2.71,17.96,5.41,35.93,8.12,53.89
		c-0.08-0.02-0.17-0.06-0.25-0.06c-9.69-0.4-19.38-0.8-29.07-1.21c-4.48-19.1-8.96-38.19-13.44-57.29
		c-0.93-3.97-18.09-3.58-18.09-3.58c-1.5,0.33-1.48,3.29-0.66,6.12c0.02,0.84,0.19,1.83,0.56,3.01c3.59,11.21-4.89,37.03-4.89,37.03
		c-0.01,0-0.02,0.01-0.03,0.02c-0.32-0.29-0.65-0.56-1.03-0.76c-9.28-5.06-18.57-10.12-27.85-15.18
		c10.69-23.92,8.3-51.21-4.78-74.05c-3.84-6.7-3.86,3.88-2.05,7.03c2.96,5.17,5.02,10.63,6.28,16.22c-0.18-0.13-0.37-0.24-0.56-0.31
		c-27.36-9.99-49.64-31.24-61.08-58.06c-11.39-26.7-10.04-56.96-0.16-83.9C28.61,65.46,83.34,31.6,141.28,24.78
		c1.27,6.65,2.6,17.24,3.48,25.23c0.71,6.43-2.84,12.57-8.77,15.16c0,0-35.26,16.42-35.24,17.81c-1.18-0.93-1.3,27.1-0.92,39.31
		c0.11,3.71,6,12.25,5.76,4.52c-0.36-11.79-0.73-23.58-1.09-35.37c0.38,0.2,0.77,0.24,1.13,0.08c0,0,47.6-20.64,47.6-20.86
		c0.99-0.55,1.22-2.1,0.99-3.88c0.05-0.11,0.11-0.19,0.15-0.33c4.09-13.56,8.18-27.11,12.27-40.67c0.12,0.04,0.24,0.1,0.37,0.11
		c62.15,4.88,129.96,38.11,144.63,104.06C318.75,161.89,310.27,193.98,288.89,218.63z"/>
</g>
<path class="st0" d="M156.33,134.45l-13.12-19.06c-1.04-1.51-2.55-3.29-3.75-1.06c-1.07,1.98,0.57,6.44,1.7,8.08
	c3.34,4.85,6.68,9.7,10.02,14.56l-3.65,8.49c-3.83-0.19-7.66-0.38-11.49-0.56c-0.38-0.19-0.73-0.23-1.01-0.05
	c-0.26-0.01-0.52-0.03-0.78-0.04c-0.02,0-0.04,0.01-0.06,0.01c-0.16-0.04-0.32-0.07-0.48-0.06c-21.92,0.75-42.68-27.15-64.38-21.57
	c-4.33,1.11-8.85,1.36-13.29,0.83c-2.65-0.31-5.17-0.96-6.37-2.43c-4.38-5.35-1.34-11.14,2.86-15.32
	c2.39-2.37-2.22-13.14-4.74-10.64c-7.92,7.86-7.66,19.68-2.78,29.15c2.88,5.58,10.09,13.69,16.83,12.77
	c2.76,22.48,10.3,43.83,22.44,63.11c0.53,0.85,0.99,1.4,1.39,1.73c0.49,0.55,1.02,0.91,1.56,0.93c12.04,0.58,24.09,1.16,36.13,1.75
	c-1.65,1.76-4.13,3.13-7.51,4.27c-6.63,2.23-13.43,2.47-20.28,1.22c-3.39-0.62-1.06,10.79,2.34,11.41c9.32,1.7,20.61,1.18,28.62-4.5
	c5-3.54,10.64-45.69,13.19-61.1c3.44,0.17,6.89,0.34,10.33,0.51c0.39,0.02,0.69-0.11,0.94-0.32c0.59,0.18,1.16-0.03,1.59-1.03
	l5.1-11.86c0.14-0.32,0.22-0.66,0.27-1.02c0.03-0.05,0.06-0.07,0.08-0.12C159.1,140.56,157.47,136.1,156.33,134.45z"/>
<path class="st0" d="M280.85,91.51c-4.97-4.89-9.61-9.44-14.59-14.33c-3.23-6.05-4.03-0.57-3.95,0.81c0.27,4.77,3.7,9.78,8.58,10.04
	c3.44,4.6,5.21,6.97,8.66,11.57c-1.1,6.69-3.68,11.25-11.17,13.55c-6.75,2.08-37.1,11.69-37.38,11.75
	c-19.79,4.27-27.92,6.03-47.7,10.3c-1.42,0.31-6.26,4.01-9,7.45c-1.8-2.03-3.28-4.27-4.37-6.79c3.4-8.42,6.81-16.84,10.21-25.26
	c1.59-3.93-7.92-21.46-5.65,1.41c-3.82,5.93-6.41,9.96-10.23,15.89c-0.74,0.4-0.8,1.72-0.49,3.27c0.09,1.42,0.51,2.94,0.69,3.55
	c2.01,6.67,5.34,12.79,9.98,17.87c5.33,15.88,21.56,56.43,23.81,60.74c0.8,1.54,2.76,3.31,3.75,1.06c1.04-2.35-0.64-6.06-1.7-8.08
	c-1.08-2.06-2.15-4.13-3.23-6.19c7.34-0.69,16.85-1.86,17.37-1.71c18.03,5.19,47.93-5.78,48.86-8.47
	c6.07-17.63,3.65-31.52-0.34-47.35c-1.87-7.42,2.16-15.07,9.35-17.67c2.5-0.9,4.78-2.04,6.66-3.54c5.32-4.24,6.14-11.51,6.77-17.83
	c0.02-0.23,0-0.5-0.03-0.8c0.24-0.8,0.32-1.75,0.29-2.22C285.81,96.95,283.85,93.26,280.85,91.51z"/>
<path class="st0" d="M183.17,223.67c-0.47-1.69-1.12-3.18-1.85-3.83c-9.93-8.8-22.76-41.51-24.66-43.59
	c-1.05-1.16-3.22,14.7-3.23,17.42c0,0.12,0.01,0.24,0.01,0.35c-5.69,9.41-11.38,18.81-17.07,28.22c-0.07,0.11-0.1,0.24-0.16,0.36
	c-1.57,0.21-1.09,4.07-0.91,4.95c0.41,2.04,1.54,5.76,3.84,6.53c4.97,1.66,9.93,3.31,14.9,4.97c0.3,0.1,0.55,0.1,0.76,0.03
	c0.65,0.54,1.3,0.7,1.71-0.1c2.45-4.83,4.89-9.66,7.34-14.49c4.99,3.71,9.97,7.43,14.96,11.14c0.34,0.26,0.64,0.38,0.9,0.41
	c0.89,0.85,1.94,1.25,2.58-0.38l1.98-5.04c0.41-1.04,0.15-2.73-0.06-3.75C183.99,225.82,183.64,224.69,183.17,223.67z"/>
</svg>
