<?xml version="1.0" encoding="utf-8"?>
<!-- Generator: Adobe Illustrator 24.0.1, SVG Export Plug-In . SVG Version: 6.00 Build 0)  -->
<svg version="1.1" xmlns="http://www.w3.org/2000/svg" xmlns:xlink="http://www.w3.org/1999/xlink" x="0px" y="0px"
	 viewBox="0 0 484 484" style="enable-background:new 0 0 484 484;" xml:space="preserve">
<style type="text/css">
	.st0{fill-rule:evenodd;clip-rule:evenodd;fill:#455A64;}
	.st1{fill-rule:evenodd;clip-rule:evenodd;fill:#384951;}
	.st2{fill-rule:evenodd;clip-rule:evenodd;fill:#FFB300;}
	.st3{fill-rule:evenodd;clip-rule:evenodd;fill:#FFFFFF;}
	.st4{fill-rule:evenodd;clip-rule:evenodd;fill:#FFECB3;}
</style>
<g id="Layer_1">
	<g>
		<path class="st0" d="M323.8,345.27l93.85,54.04c0.93,0.63,2.05,1,3.26,1c3.22,0,5.83-2.61,5.83-5.83v-191.2
			c0.01-1.02-0.24-2.05-0.78-2.99c-2.16-3.75-7.97-3.12-7.97-2.12l-94.19,54.24V345.27z"/>
		<path class="st1" d="M333.73,350.99l7.59,4.37V242.32l-7.59,4.37V350.99L333.73,350.99z M349.29,359.95l7.59,4.37V233.35
			l-7.59,4.37V359.95L349.29,359.95z M364.86,368.91l7.59,4.37v-148.9l-7.59,4.37V368.91L364.86,368.91z M380.42,377.88l7.59,4.37
			V215.43l-7.59,4.37V377.88L380.42,377.88z M395.99,386.84l7.59,4.37V206.46l-7.59,4.37V386.84L395.99,386.84z M411.55,395.8
			l6.09,3.51c0.46,0.31,0.96,0.56,1.5,0.73V197.5c-0.7,0.13-1.16,0.38-1.16,0.66l-6.44,3.71V395.8z"/>
		<path class="st2" d="M312.24,189.07c6.76-10.55,10.68-23.07,10.68-36.5c0-18.7-7.58-35.63-19.83-47.88
			c-12.25-12.25-29.18-19.83-47.88-19.83c-18.7,0-35.63,7.58-47.88,19.83c-5.83,5.83-10.6,12.72-14,20.35
			c-3.4-7.63-8.17-14.52-14-20.35c-12.25-12.25-29.18-19.83-47.88-19.83c-18.7,0-35.63,7.58-47.88,19.83
			c-12.25,12.25-19.83,29.18-19.83,47.88c0,13.42,3.92,25.95,10.68,36.5c3.49,5.45,7.75,10.37,12.63,14.6
			c-7.11,1.4-13.48,4.91-18.42,9.85c-6.49,6.49-10.52,15.45-10.52,25.31v120.02c0,9.86,4.03,18.82,10.52,25.31
			c6.49,6.49,15.45,10.52,25.31,10.52h198.78c9.86,0,18.82-4.03,25.31-10.52c6.49-6.49,10.52-15.45,10.52-25.31v-13.61l0.05,0.03
			v-92.86l-0.05,0.03v-13.6c0-9.86-4.03-18.82-10.52-25.31c-4.94-4.94-11.31-8.45-18.42-9.85
			C304.49,199.43,308.75,194.51,312.24,189.07z"/>
		
			<ellipse transform="matrix(0.291 -0.9567 0.9567 0.291 -52.0499 234.1557)" class="st3" cx="131.96" cy="152.2" rx="52.48" ry="52.48"/>
		<path class="st3" d="M255.88,204.68c28.91,0,52.48-23.58,52.48-52.48c0-28.91-23.58-52.48-52.48-52.48
			c-28.91,0-52.48,23.58-52.48,52.48C203.4,181.1,226.97,204.68,255.88,204.68z"/>
		<path class="st0" d="M98.69,251.33v93.3c0,8.05,6.53,14.58,14.58,14.58h157.89c8.05,0,14.58-6.53,14.58-14.58v-93.3
			c0-8.05-6.53-14.58-14.58-14.58H113.27C105.22,236.75,98.69,243.28,98.69,251.33z"/>
		<path class="st4" d="M107.44,251.33v93.3c0,3.22,2.61,5.83,5.83,5.83h157.89c3.22,0,5.83-2.61,5.83-5.83v-93.3
			c0-3.22-2.61-5.83-5.83-5.83H113.27C110.05,245.5,107.44,248.11,107.44,251.33z"/>
		<path class="st0" d="M158.44,106.34c-25.33-14.62-57.71-5.95-72.33,19.38c-14.62,25.32-5.95,57.71,19.38,72.33
			c25.32,14.62,57.71,5.94,72.33-19.38C192.44,153.34,183.76,120.96,158.44,106.34L158.44,106.34z M100.41,148.59
			c-6.08-3.56-8.14-11.37-4.59-17.46c3.55-6.1,11.38-8.16,17.47-4.6c6.08,3.54,8.15,11.37,4.59,17.46
			C114.33,150.09,106.51,152.15,100.41,148.59L100.41,148.59z M110.88,188.33c-6.08-3.54-8.14-11.37-4.59-17.46
			c3.55-6.1,11.38-8.16,17.47-4.61c6.09,3.54,8.16,11.38,4.61,17.47C124.8,189.83,116.98,191.89,110.88,188.33L110.88,188.33z
			 M127.12,149.4c1.54-2.68,4.96-3.59,7.64-2.05c2.66,1.54,3.58,4.95,2.03,7.63c-1.54,2.66-4.95,3.58-7.62,2.04
			C126.5,155.48,125.58,152.07,127.12,149.4L127.12,149.4z M140.17,138.11c-6.1-3.55-8.15-11.37-4.61-17.47
			c3.54-6.08,11.37-8.14,17.47-4.59c6.1,3.55,8.15,11.37,4.6,17.47C154.08,139.6,146.26,141.68,140.17,138.11L140.17,138.11z
			 M150.64,177.86c-6.1-3.55-8.16-11.37-4.61-17.47c3.55-6.1,11.37-8.15,17.46-4.59c6.1,3.55,8.16,11.36,4.61,17.46
			C164.55,179.36,156.73,181.41,150.64,177.86z"/>
		<path class="st0" d="M282.35,106.34c-25.33-14.62-57.71-5.95-72.33,19.38c-14.62,25.32-5.95,57.71,19.38,72.33
			c25.32,14.62,57.71,5.94,72.33-19.38C316.36,153.35,307.68,120.96,282.35,106.34L282.35,106.34z M224.32,148.59
			c-6.08-3.56-8.14-11.37-4.59-17.46c3.55-6.1,11.38-8.16,17.47-4.6c6.08,3.54,8.15,11.37,4.59,17.46
			C238.25,150.09,230.42,152.15,224.32,148.59L224.32,148.59z M234.8,188.33c-6.08-3.54-8.14-11.37-4.59-17.46
			c3.55-6.1,11.38-8.16,17.47-4.61c6.09,3.54,8.16,11.38,4.61,17.47C248.72,189.83,240.9,191.89,234.8,188.33L234.8,188.33z
			 M251.04,149.4c1.54-2.68,4.96-3.59,7.64-2.05c2.66,1.54,3.58,4.95,2.03,7.63c-1.54,2.66-4.95,3.58-7.62,2.04
			C250.41,155.48,249.5,152.07,251.04,149.4L251.04,149.4z M264.08,138.11c-6.1-3.55-8.15-11.37-4.61-17.47
			c3.54-6.08,11.37-8.14,17.47-4.59c6.09,3.55,8.15,11.37,4.6,17.47C277.99,139.6,270.17,141.68,264.08,138.11L264.08,138.11z
			 M274.55,177.86c-6.1-3.55-8.16-11.37-4.61-17.47c3.55-6.1,11.37-8.15,17.46-4.59c6.1,3.55,8.16,11.36,4.61,17.46
			C288.47,179.36,280.65,181.41,274.55,177.86z"/>
	</g>
</g>
<g id="Master_Layer_5">
</g>
</svg>
