<?xml version="1.0" encoding="utf-8"?>
<!-- Generator: Adobe Illustrator 24.0.1, SVG Export Plug-In . SVG Version: 6.00 Build 0)  -->
<svg version="1.1" id="Layer_1" xmlns="http://www.w3.org/2000/svg" xmlns:xlink="http://www.w3.org/1999/xlink" x="0px" y="0px"
	 viewBox="0 0 336.23 323.86" style="enable-background:new 0 0 336.23 323.86;" xml:space="preserve">
<style type="text/css">
	.st0{fill:#030303;}
	.st1{fill:#C9C9C9;}
	.st2{fill:#060606;}
	.st3{fill:#848484;}
	.st4{fill:#010101;}
	.st5{fill:#181818;}
	.st6{fill:#D6EAF2;}
	.st7{fill:#344449;}
	.st8{fill:#1B1464;}
	.st9{fill:#1D2628;}
	.st10{fill:#8AAEBA;}
	.st11{fill:#020202;}
	.st12{fill:#070707;}
	.st13{fill:#7272CE;}
	.st14{fill:#080808;}
	.st15{fill:#0F0F0F;}
	.st16{fill:#F1F1F1;}
	.st17{fill:#434343;}
	.st18{fill:#3F3F3F;}
	.st19{fill:#3D3D3D;}
	.st20{fill:#A1A1A1;}
	.st21{fill:#141414;}
	.st22{fill:#121212;}
	.st23{fill:#090909;}
	.st24{fill:#FEFEFE;}
	.st25{fill:#050505;}
	.st26{fill:#040404;}
	.st27{fill:#0A0A0A;}
	.st28{fill:#151515;}
	.st29{fill:#202020;}
	.st30{fill:#171717;}
	.st31{fill:#0B0B0B;}
	.st32{fill:#212121;}
	.st33{fill:#1B1B1B;}
	.st34{fill:#1E1E1E;}
	.st35{fill:#333333;}
	.st36{fill:#FCFCFC;}
	.st37{fill:#FBFBFB;}
	.st38{fill:#F8F8F8;}
	.st39{fill:#EFEFEF;}
	.st40{fill:#EBEBEB;}
	.st41{fill:#111111;}
</style>
<g>
	<path d="M166.51,321.1c-11.15-0.27-21.04-4.74-30.98-9.13c-2.01-0.89-4.12-1.57-6-2.71c-0.84-0.51-1.61-0.62-2.34-0.03
		c-3.61,2.93-8.1,4.4-12.32,5.43c-6.53,1.59-12.88,3.96-19.75,4.54c-3.37,0.28-6.88,0.13-10.25,0.93c-1.98,0.47-3.81,0.42-4.13-2.36
		c-0.18-1.55-1.86-2.1-2.65-3.38c-4.79-7.73-7.92-16.34-12.79-24c-3.08-4.84-7.18-9.11-9.72-14.18c-4.16-8.29-9.65-15.7-14.66-23.39
		c-4.52-6.95-8.41-14.24-12.62-21.34c-3.51-5.92-8.22-10.86-11.89-16.57c-0.68-1.05-1.12-2.26-1.67-3.4
		c-0.01-1.03-2.05-2.46,0.58-2.98c1.15,0.13,1.99,0.83,2.63,1.67c5.4,7.1,11.11,13.92,15.31,21.95c4.14,7.9,8.54,15.77,13.85,22.97
		c5.08,6.88,8.75,14.62,13.89,21.44c4.88,6.47,8.6,13.68,12.33,20.84c2.06,3.96,4.32,7.82,6.01,11.97c1,2.44,3.25,3.91,4.63,6.07
		c0.42,0.65,1.29,0.76,2.05,0.63c4.93-0.79,9.98-0.71,14.8-2.25c2.24-0.72,4.53-1.13,6.89-1.31c3.44-0.27,6.19-2.71,9.64-3.22
		c2.18-0.32,4.18-1.49,6.62-2.24c-4.46-3.4-9.43-5.69-12.91-9.68c-5.13-5.88-11.27-11.08-13.49-19.11
		c-0.87-3.15-3.52-5.31-5.75-7.57c-3.24-3.27-5.85-7-8.61-10.66c-3.09-4.11-5.75-8.38-8.27-12.84c-1.47-2.6-1.85-5.39-2.92-8
		c-3.19-7.8-4.63-16.24-8.51-23.74c-2.44-4.72-4.68-9.56-7.41-14.12c-4.68-7.81-7.97-16.17-11-24.72
		c-2.21-6.23-1.97-12.52-2.37-18.85c-0.21-3.27,1.76-6.14,1.75-9.38c-0.42-1.22,0.16-2.15,0.87-3.04c3.63-4.12,6.35-8.89,9.36-13.45
		c0.27-0.41,0.41-1.05,0.33-1.53c-1-6.17,2.19-10.97,5.22-15.77c0.83-1.31,0.52-2.66,0.85-3.97c2.34-9,5.82-17.39,12.06-24.5
		c7.35-8.37,15.34-15.86,25.94-19.98c1.26-0.53,2.3-0.34,3.01,0.91c0.45,2.01-1.06,2.67-2.43,3.19
		c-13.07,4.98-21.94,14.75-29.52,25.93c-2.09,3.08-2.95,6.7-3.9,10.36c1.6,0.17,2.44-0.54,3-1.44c3.51-5.69,9.06-9.53,13.17-14.72
		c2.62-3.31,7.2-3.47,11.2-3.58c2.25-0.06,3.03,2.05,2.84,4.22c-0.26,3.05-1.66,5.69-3.02,8.57c9.7-7.75,18.58-16.35,28.79-23.16
		c7.32-4.88,15.26-8.85,23.47-12.14c1.29-0.52,2.63-0.92,4.05-0.47c0.62,0.24,1.16,0.57,1.46,1.19c-2.36,3.32-6.25,4.26-9.62,5.85
		c-10.96,5.17-21.08,11.57-30.14,19.6c-2.16,1.92-4.46,3.69-6.82,5.29c-3.58,2.42-5.99,6.08-9.59,8.42
		c-0.44,0.28-0.93,0.67-0.83,1.26c0.14,0.82,0.91,0.8,1.52,0.86c4.19,0.37,8.04-1.13,11.73-2.7c2.63-1.12,5.19-2.53,7.91-3.34
		c6.03-1.81,10.76-6.03,16.43-8.52c2.16-0.95,4.43-1.49,6.6-2.35c5.36-2.13,9.85-5.9,15.47-7.56c6.57-1.95,13.06-3.9,20.02-2.62
		c0.53,0.1,1.11,0.34,1.58,0.17c4.52-1.73,9.3,0.19,13.87-1.01c1.54-0.4,3.26-0.41,4.73,0.27c3.79,1.76,7.84,1.87,11.87,2.13
		c2.28,0.15,4.35,1.04,6.48,1.69c1.77,0.54,3.17,0.38,4.66-0.97c4.34-3.91,9.35-7.01,13.61-11.06c2.5-2.38,3.88-5.33,5.28-8.28
		c1.03-2.17,2.3-4.06,4.04-5.67c0.85-0.09,1.1,0.49,1.31,1.13c0.28,3.63-1.5,6.64-3.24,9.51c-3.43,5.67-7.5,10.82-13.28,14.39
		c-3.99,2.46-4.03,3.13-1.51,6.9c2.03,3.03,1.65,6.14-0.22,8.98c-3.65,5.53-6.64,11.38-9.27,17.43c-1.49,3.42-1.52,6.98-0.37,10.53
		c0.51,0.92,1.21,1.62,2.27,1.89c6.78,1.86,9.02,7.33,10.37,13.34c1.31,5.85,1.19,5.89,6.95,5.66c1.53-0.06,3.01-0.04,4.05,1.33
		c0.23,0.48,0.32,0.97,0.01,1.5c0.5-0.47,0.36-1.17,0.71-1.67c3.88-4.71,8.98-7.19,14.85-8.54c6.28-1.45,11.3-5.31,16.08-9.39
		c2.98-2.55,5.51-5.54,8.99-7.61c2.44-1.45,3.93-4.19,4.94-6.91c1.78-4.81,3.84-9.46,6.31-13.96c2.29-4.17,3.23-8.82,3.38-13.54
		c0.34-10.6,1.33-21.25-2.3-31.43c-0.01,0.8,0.02,1.79,0.26,2.71c1.98,7.76-1.04,14.36-4.57,20.94c-2.72,5.06-5.11,10.3-8.7,14.85
		c-3.48,4.42-7.09,8.73-11.42,12.36c-1.02,0.13-1.57-0.34-1.69-1.34c0.85-2.94,3.01-5.12,4.72-7.48c4.12-5.69,7.8-11.68,11.64-17.53
		c4.54-6.92,6.42-14.9,6.3-23.55c-3.81,1.01-6.27,3.66-9.25,5.38c-2.33,1.34-3.12,1.14-3.7-1.47c-0.19-0.85-0.25-1.69,0.03-2.52
		c2.37-7.26,5.2-14.34,8.29-21.14c-1.84,1.12-1.89,4.1-4.28,5.01c-1.34,0.97-1.63-1.65-2.94-0.85c-2.58,1.28-4.94,2.94-7.56,4.12
		c-0.87,0.39-1.71,0.88-2.64,1.11c-1.84,0.46-4.02,1.35-5.31-0.48c-1.19-1.7-1.01-4.01,0.35-5.7c2.84-3.55,3.96-7.67,4.57-12.04
		c0.21-1.46,0.49-2.98,2.13-3.66c2.13-0.57,2.14,1.17,2.62,2.4c-0.71,5.71-3.71,10.56-6.43,16.41c8.08-3.78,15.56-6.98,20.41-14.08
		c0.62-0.91,1.48-1.25,2.48-0.99c1.33,0.34,1.79,1.45,1.93,2.66c0.45,3.96-0.91,7.62-2.68,10.93c-2.52,4.71-3.9,9.82-6.25,14.67
		c1.86,0.13,2.78-0.91,3.65-1.9c2.3-2.63,5.54-3.93,8.28-5.91c1.83-1.32,3.2,0.41,3.53,1.88c1.4,6.27,3.35,12.47,2.64,19.06
		c-0.36,3.36,0.31,6.72,0.32,10.1c0.02,4.8-0.36,9.31-1.48,14.03c-1.47,6.18-3.78,11.82-6.86,17.28c-1.6,2.83-2.86,5.79-3.63,9
		c-0.98,4.1-0.33,8.22-0.61,12.32c-0.08,1.21,0.66,1.24,1.66,1.26c6.05,0.14,12.04,0.02,17.89,2.51c2.61,1.11,5.97,0.44,8.99,1.04
		c7.04,1.4,13.68,3.44,19.24,8.36c2.39,2.12,3.18,4.64,3.61,7.51c0.65,1.45-0.27,3.08,0.55,4.51c0,0.43,0,0.85,0,1.28
		c-2.72,11.93-4.2,24.11-7.36,35.95c-1.93,7.21-4.59,14.19-6.59,21.37c-2.6,9.33-5.38,18.61-8.27,27.84
		c-2.4,7.65-2.79,15.67-5.25,23.29c-1.08,3.35-1.46,7.13-0.51,10.74c0.42,1.58-0.09,2.82-1.26,3.68c-3.66,2.67-7.06,5.49-11.51,7.23
		c-8.6,3.36-17.74,5.55-25.52,10.87c-1.6,1.09-3.51,1.56-5.3,2.23c-8.85,3.36-17.49,7.26-26.82,9.38
		c-5.16,1.17-10.28,2.78-15.26,4.7c-2.53,0.98-5.28,0.8-7.82,1.57c-8.69,2.64-17.63,4.09-26.55,5.5
		c-5.77,0.91-11.69,0.02-17.55,0.46C168.9,323.99,167.98,321.93,166.51,321.1z"/>
	<path class="st0" d="M15.56,208.91c-2.11,0.28-0.36,1.78-0.82,2.59c-5.79-5.71-9.5-13.03-14.75-19.17c0-0.21,0-0.43,0-0.64
		c0.58-0.55,0.19-1.32,0.43-1.95c0.64-1.02-0.52-2.16,0.22-3.17l0-0.01c0.91-0.88,0.84-2.14,1.27-3.21
		c0.02-0.52-0.19-1.16,0.64-1.28c0.81-0.48,1.49-1.09,1.91-1.95l-0.01,0.02c0.98-1.18,1.55-2.56,1.88-4.05
		c0.02-0.31-0.08-0.77,0.09-0.92c2.47-2.28,4.54-5.02,7.64-6.56c0.42-0.34,0.87-0.4,1.35-0.14c0.21,0.25,0.33,0.54,0.36,0.87
		c-0.11,1.63-1.12,2.74-2.25,3.73c-4.15,3.63-7.32,7.95-9.55,12.99c-1.03,2.34-0.55,4.26,0.95,6.22c3.11,4.06,6.65,7.79,9.24,12.24
		C14.93,205.87,16.18,207.11,15.56,208.91z"/>
	<path class="st1" d="M336.23,157.75c-1.41-1.35-0.24-3.02-0.55-4.51c0.19-0.02,0.37-0.01,0.55,0.02
		C336.23,154.76,336.23,156.25,336.23,157.75z"/>
	<path class="st2" d="M0.65,186.58c-0.09,1.07,1.23,2.07,0.17,3.2c-0.73-0.13-0.33-1-0.82-1.28c0-0.64,0-1.28,0-1.92
		C0.22,186.57,0.43,186.58,0.65,186.58z"/>
	<path class="st3" d="M0,188.49c0.27,0.43,0.55,0.86,0.82,1.28c-0.22,0.66-0.16,1.44-0.82,1.92C0,190.62,0,189.56,0,188.49z"/>
	<path class="st4" d="M101.94,67.69c-0.47-1.34-1.54-1.59-2.78-1.56c3.69-0.24,6.08-3.09,9.05-4.71c6.04-3.3,12.09-6.49,18.87-7.75
		c4.55-0.85,7.65-4.78,12.12-5.27c5.3-0.59,8.92-4.52,13.67-6.24c2.92-1.06,5.07-4.1,7.77-5.96c6.04-4.15,10.38-10.05,15.77-14.8
		c3.16-2.78,5.67-6.2,9.11-8.67c1.09-0.78,2.39-1.45,2.71,0.21c1,5.22,1.95,10.5,0.5,16.06c0.46,0.43,1.12-0.09,1.69-0.51
		c4.82-3.52,10.36-5.79,15.71-8.18c7.54-3.36,15.23-6.69,23.71-7.28c2.89-0.2,5.48-1.67,8.45-2.01c5.49-0.63,10.78-2.75,16.43-2.44
		c1.74,0.1,3.38-0.39,5-0.89c3.93-1.23,7.83-2.54,11.74-3.8c1.21-0.39,1.79-1.3,2.4-2.35c0.77-1.3,2.12-1.91,3.58-1.34
		c1.67,0.65,1.01,2.08,0.77,3.31c-1.05,5.28-4.03,9.75-6.11,14.6c-1.25,2.91-2.1,5.98-3.13,8.98c-0.81-0.63-0.78-2.35-2.43-1.89
		c-1.26-3.88,1.21-6.93,2.44-10.2c0.78-2.07,1.89-4.04,2.79-6.44c-1.55,1.16-2.57,2.72-4.44,2.8c-0.76-0.04-1.41-0.57-2.2-0.5
		c-6.34,1.47-12.81,2.08-19.24,2.93c-5.8,0.77-11.58,1.64-17.17,3.43c-1.74,0.56-3.56,0.65-5.34,0.96
		c-9.09,1.61-16.87,6.46-25.15,10.04c-4.01,1.73-7.82,3.8-10.94,7.05c-1.36,1.42-3.39,2.22-5.42,2.59c-1,0.18-1.92-0.06-2.55-0.95
		c-0.49-0.7-0.46-1.53,0.1-2.08c4.64-4.59,6.12-10.29,5.81-16.64c0.21-0.37-0.59,0.04-0.16-0.01c0.09-0.01,0.14,0.05,0.12,0.18
		c-0.97,5.11-3.25,9.66-6.43,13.68c-1.78,2.25-3.77,4.32-5.28,6.8c-0.72,1.18-1.56,2.37-3.28,2.05c-1.13-0.52-1.23-1.5-1.16-2.56
		c2.12-4.15,5.95-7.19,7.26-11.3c-4.32,3.59-8.06,8.43-12.59,12.49c-0.64,0.57-1.32,1.08-2.04,1.53
		c-7.8,4.92-15.57,10.01-24.45,12.7c-7.34,2.23-13.93,6.3-21.44,8.09c-2.62,0.63-4.94,2.41-7.32,3.82
		C106.47,66.89,104.43,68.06,101.94,67.69z"/>
	<path class="st0" d="M45.38,145.32c-0.3,0.96-0.57,1.92,0.07,2.86c-2.93,3.44-6.76,5.82-10.48,8.15
		c-3.79,2.38-7.13,5.24-10.63,7.93c-1.16,0.89-2.34,1.43-3.81,1.1c-0.66-0.2-1.18-0.55-1.39-1.24c0.99-3.04,3.82-4.33,6.17-5.7
		c5.37-3.12,9.63-7.73,15.09-10.66C42.02,146.89,43.72,146.14,45.38,145.32z"/>
	<path class="st2" d="M19.14,164.12c0.48,0.23,0.95,0.47,1.43,0.7c-0.56,2.84-2.53,4.07-5.17,4.53c-0.01-0.24-0.02-0.48-0.03-0.72
		c-0.37-0.84,0.36-1.33,0.62-1.97C16.11,164.66,17.73,164.53,19.14,164.12z"/>
	<path class="st2" d="M6.33,176.11c0.13,1.7-0.28,3.15-1.88,4.05C4.85,178.7,5.46,177.34,6.33,176.11z"/>
	<path class="st2" d="M1.92,183.36c0.02,1.25,0.21,2.56-1.27,3.21C1.07,185.5,1.5,184.43,1.92,183.36z"/>
	<path class="st5" d="M15.99,166.66c-0.21,0.66-0.41,1.31-0.62,1.97c-0.44,0-0.87,0-1.31-0.01
		C14.7,167.97,15.34,167.31,15.99,166.66z"/>
	<path class="st2" d="M4.47,180.14c-0.02,1.25-0.67,1.89-1.91,1.95C3.19,181.43,3.83,180.79,4.47,180.14z"/>
	<path class="st6" d="M176.79,265.99c-0.57,1.49-1.3,2.94-1.25,4.58c0.21,8.03-5.16,11.88-11.28,15.25
		c-1.84,1.01-3.78,2.13-5.14,3.67c-3.56,4.03-7.91,5.99-13.2,6.12c-4.69,0.11-9.38,0.3-14.07,0.34c-1.36,0.01-2.4-0.09-2.22-2.33
		c0.33-4.19-0.07-8.44-0.18-12.67c-0.02-0.81,0.3-1.92-0.79-2.15c-1.22-0.25-1.6,0.87-1.84,1.78c-0.65,2.54-0.68,5.16-0.68,7.76
		c0,2.09,0,4.18,0,6.51c-8.74-2.63-14.65-8.65-20.35-14.81c-4.78-5.17-9.05-10.81-13.89-15.91c-3.95-4.16-6.74-9.06-10.08-13.62
		c-4.55-6.22-6.91-13.23-8.35-20.72c-0.58-3.04-1.6-6.04-3.22-8.87c-2.16-3.79-3.7-7.93-5.7-12.33c1.95,0.45,3.2,3.1,4.45,1.19
		c1.02-1.57-1.03-2.87-2.29-3.7c-4.92-3.24-7.14-8.4-10.23-13.08c-3.71-5.6-5.5-11.93-8.07-17.9c-1.97-4.57-2.75-9.95-1.84-15.33
		c0.87-5.13,1.55-10.26,3.66-15.08c0.82-1.87,1.84-3.62,3.29-5.05c4.04-3.98,5.9-8.71,5.27-14.41c-0.14-1.31-1.04-3.12,1.56-3.37
		c0.4-0.04,0.86-1.15,1.02-1.83c1.29-5.44,5.43-9.32,9.46-11.89c3.77-2.41,5.27-6.05,7.89-8.94c3.3-3.65,6.65-6.83,11.16-8.72
		c0.77-0.32,1.76-0.68,2.55,0.43c0.75,1.04-0.01,1.48-0.45,2.18c-2.67,4.24-4,8.86-3.8,13.9c0.06,1.4,0.96,2.31,2.15,2.43
		c5.02,0.54,9.66,1.4,15.04-0.72c7.51-2.96,14.5-6.96,22.04-9.77c3.83-1.43,7.23-3.93,10.97-5.45c4.44-1.81,9.23-3.27,13.1-5.81
		c4.16-2.73,8.86-2.75,13.08-4.64c1.19-0.53,2.91,0.29,4.36,0.16c8-0.75,15.99,0.14,23.95,0.02c8.27-0.12,15.58,2.92,23.27,4.74
		c4.07,0.96,5.07,3.84,2.96,7.6c-1.81,3.23-3.63,6.46-5.61,9.59c-2.65,4.2-3.64,8.74-4.09,13.66c-0.37,4.07-0.22,7.01,3.49,9.81
		c2.66,2.01,4.79,4.97,7.33,7.36c1.44,1.36,2.01,3.11,2.03,5.36c0.07,5.94,0.35,11.89,0,17.82c-0.13,2.26-0.96,4.39-0.65,6.82
		c0.48,3.71,1.07,4.6,4.97,4.6c1.36,0,2.66-0.38,4.07-0.29c1.44,0.09,2.29-1.16,2.49-2.75c0.39-3.2,0.99-6.35,2.94-9.07
		c0.17-0.24,0.17-0.6,0.26-0.9c0.33-1.06-1.62-1.98-0.92-2.27c2.52-1.05,2.88-3.75,4.63-5.42c2.64-2.53,5.59-4.49,8.83-5.47
		c4.67-1.41,8.58-4.61,13.51-5.26c2.21-0.29,3.6-2.13,5.18-3.39c3.99-3.2,8.57-5.78,11.55-10.13c0.57-0.83,1.31-0.52,2.01-0.45
		c0.96,0.09,0.77,0.92,0.69,1.47c-0.44,3.17,0.42,6.96-4.01,8.27c-0.79,0.23-0.98,1.42-0.07,1.74c2.39,0.83,1.25,2.38,1.08,3.86
		c-0.87,7.47-2.79,14.73-4.3,22.07c-0.32,1.54-1.36,2.62-2.33,2.67c-2.42,0.11-4.12,1.53-6.07,2.59c-0.77-1.17-0.1-1.99,0.42-2.89
		c2.34-3.99,3.96-8.3,5.35-12.68c0.69-2.17,0.58-3.6-2.63-3.72c-7.06-0.27-13.29,1.01-18.58,6.14c-2.07,2.01-4.97,3.17-6.57,5.8
		c-0.66,1.08-1.4,2.11-2.01,3.21c-0.57,1.05-0.07,1.89,0.87,2.36c1.02,0.51,1.38-0.52,1.57-1.08c1.13-3.38,4.72-4.44,6.59-7.11
		c0.15-0.21,0.8-0.07,1.22-0.09c1.91,3.34,3.49,6.79,3.78,10.71c0.07,1.02,0.76,2.12-0.71,2.71c-13.09,2.89-26.19,5.77-39.62,8.74
		c-0.51-0.35,0.14-1.58-0.57-2.28c-0.91-1.77-0.95-3.68-0.89-5.6c0.12-3.88-1-7.51-2.22-11.91c-0.69,3.56,0.16,6.21,0.82,8.84
		c0.84,3.34,1.5,6.64-0.16,9.93c-0.44,0.59,0.51,1.76-0.95,1.98c-3.74,0.58-7.27,2.42-11.21,1.71c-1.88-0.34-2.6,0.51-3.33,2.38
		c-2.12,5.46-4.21,10.96-7.2,16.04c-0.63,1.07-1.58,2.08-1.09,3.52c1.82,6.18-0.62,11.78-2.78,17.22
		c-4.28,10.78-6.79,21.93-8.19,33.39c-0.4,2.81-1.15,5.6-0.66,8.48C177.5,264.46,177.37,265.28,176.79,265.99z"/>
	<path class="st7" d="M191.98,204.5c0.58-3.36,1.92-6.3,3.58-9.34c1.32-2.42,3.52-4.69,3.69-7.68c0.07-1.27,0.89-1.45,1.64-1.48
		c4.27-0.15,8.44-1.86,12.78-0.8c0.3,0.07,0.75,0.12,0.94-0.04c4.83-4.08,11.11-3.05,16.64-4.69c8.03-2.38,16.18-4.42,24.36-6.24
		c5.22-1.16,9.74-4.05,14.94-5.3c6.33-1.52,12.77-2.58,18.96-4.79c7.29-2.6,14.73-4.79,22.19-6.86c3.92-1.09,3.26-4.25,3.64-6.85
		c0.33-2.3-1.84-2.63-3.49-3.43c-7.54-3.66-15.77-4.6-23.82-6.29c-0.92-0.19-1.72,0.41-2.48,0.23c-1.03-0.24-2.7,0.34-2.65-1.8
		c0.04-1.83,1-2.61,2.55-2.42c4.23,0.5,8.46,0.47,12.7,1.49c3.91,0.94,8.33,0.88,12.06,1.97c7.01,2.04,14.65,3.02,20.48,8.33
		c1.49,1.36,1.17,2.76,1.27,4.22c0.5,7.76-2.12,15.03-3.56,22.49c-1.43,7.39-2.62,14.83-4.35,22.15c-1.03,4.36-2.83,8.54-4.38,12.77
		c-1.54,4.2-2.54,8.55-3.72,12.85c-1.25,4.55-2.87,9-4.28,13.51c-2.25,7.23-4.19,14.53-4.88,22.12c-0.17,1.84-1.05,3.51-1.37,5.41
		c-0.93,5.61-1.54,11.3-3.25,16.77c-0.12,0.37-0.41,0.87-0.73,0.97c-3.32,1.08-6.01,3.57-9.25,4.59
		c-5.17,1.63-10.23,3.51-15.05,5.89c-6.46,3.19-13.32,5.39-19.86,8.37c-6.78,3.09-13.97,5.01-20.93,7.6
		c-4.46,1.66-9.33,2.21-14.01,3.29c-3.36,0.78-6.59,1.95-10.02,2.63c-5.8,1.16-11.57,2.55-17.34,3.9
		c-7.29,1.7-14.61,1.64-21.63,1.82c0.27-6.65,0.89-13.1,0.69-19.52c-0.16-5.42,1.03-10.55,2.32-15.64
		c1.35-5.34,2.52-10.63,2.29-16.16c-1.24-3.48-0.25-7.09-0.6-10.62c1.98-14.84,6.64-28.97,11.37-43.08
		c0.49-1.45,0.41-2.93,0.58-4.41C190.26,208.34,190.67,206.26,191.98,204.5z"/>
	<path class="st8" d="M101.94,67.69c4.21-1.58,8.08-3.75,11.93-6.09c2.26-1.38,5.14-1.75,7.77-2.49c3.06-0.87,5.84-2.26,8.56-3.9
		c2.81-1.7,6.27-1.57,9.2-3.13c4.91-2.62,10.55-3.57,14.87-7.71c2.21-2.12,6.05-2.61,8.29-5c2.22-2.36,5.03-3.94,6.92-6.88
		c2.08-3.23,5.7-5.46,8.96-7.88c-2.62,4.68-4.36,9.86-8.74,13.35c-0.18,3.41-3.85,4.29-4.92,7c2.57-0.44,3.3-3.47,5.62-4.38
		c0.4-0.11,0.99-0.09,1.16-0.35c4.65-6.86,10.46-12.98,13.28-21.06c0.35-1-1.49-2.72,0.43-2.56c1.23,0.1,0.4,2.2,0.51,3.37
		c0.42,4.53-0.05,8.9-3.17,12.56c-0.46,0.54-0.56,1.36-1.39,1.65c-1.02,0.35-2.25,0.88-1.46,2.22c0.79,1.35,2.02,0.97,3.36,0.46
		c2.75-1.05,4.51-3.31,6.76-4.97c4.74-3.51,10.31-5.45,15.58-7.93c3.67-1.72,7.53-3.09,11.07-5.04c2.02-1.12,4.11-1.02,6.12-1.29
		c4.09-0.55,7.99-1.84,11.97-2.73c9.62-2.13,19.45-2.67,29.09-4.48c0.72-0.13,1.41-0.4,2.11-0.6c0.73,1.11-0.03,1.79-0.76,2.42
		c-0.89,0.76-1.8,1.49-2.55,2.4c-3.53,3.25-6.72,6.81-9.58,10.64c-0.14,0.16-0.29,0.35-0.28,0.36c0.35,0.25-0.24-0.14,0.21-0.17
		c3.48-3.28,6.66-6.8,9.9-10.27c1.76-1.01,2.28-3.35,4.32-4.06c2.19-0.94,3.48-3.03,5.84-4.66c-1.14,6.89-5.9,12.12-6.35,18.75
		c-2.22,1.49-1.69,4.06-1.9,6.06c-0.36,3.44-1.89,6.19-3.75,8.83c-1.01,1.44-1.46,2.59-1.42,4.51c0.04,1.98,0.82,1.64,1.89,1.72
		c3.74,0.26,6.47-2.29,9.47-3.79c1.48-0.74,2.96-1.4,4.51-1.92c0.44,1.59-0.65,2.6-1.49,3.65c-3.06,3.85-4.79,8.47-7.29,12.64
		c-0.52,0.87-0.02,1.91-0.48,2.79c-1.09,1.35-0.82,3.58-2.82,4.33c-0.44,0.41-0.71,0.93-1,1.44c-4.28,8.46-10.85,15-18.25,20.62
		c-4.21,3.2-9.26,5.16-14.23,7.08c-0.73,0.28-2.03,0.19-1.63,1.4c0.3,0.92,1.29,0.32,1.96,0.11c4-1.21,7.77-2.92,11.18-5.36
		c3.37-2.41,7.41-3.85,10.38-6.84c4.52-4.55,8.81-9.27,10.13-15.87c0.45-0.59,0.75-1.27,1.11-1.9c1.91-0.97,2.14-3.05,3.1-4.65
		c2.55-5.74,6.43-10.71,9.46-16.17c0.47-0.86,1.13-1.53,2.03-1.96c2.06-2.34,3.23-5.38,5.96-7.35c0.44,2.09-1.08,3.49-1.72,5.14
		c-2.37,6.18-4.7,12.37-7.24,18.48c-0.59,1.41,0.02,2.49,0.16,3.69c0.16,1.35,0.99,1.16,1.76,0.42c3.11-2.95,6.75-5.08,10.85-7.02
		c0.81,3.85-0.21,7.41-0.62,11c-1.08,9.36-6.84,16.44-11.71,23.93c-3.33,5.11-6.61,10.27-10.48,15.01c-0.44,0.54-0.28,1.16-0.2,1.76
		c0.5-0.07,1.04-0.03,1.39-0.49c5.02-5.94,10.78-11.31,14.68-18.11c2.66-4.64,4.6-9.69,7.29-14.3c3.45-5.9,2.56-11.97,1.53-18.14
		c-0.18-1.07-0.52-2.39,0.97-2.48c1.24-0.08,1.04,1.28,1.19,2.19c0.85,4.94,2.34,9.86,2.42,14.81c0.07,4.59-0.17,9.26-0.29,13.88
		c-0.19,6.96-1.31,13.5-5.09,19.58c-3.38,5.43-4.14,12.2-8.39,17.28c-0.52,0.62-0.78,1.71-1.58,1.86c-3.78,0.75-5.92,3.82-8.22,6.26
		c-4.38,4.66-9.73,7.79-15.47,9.84c-2.65,0.95-5.57,1.85-8.38,2.66c-3.35,0.97-5.9,3.55-8.13,6.27c-0.38,0.46-0.81,0.44-1.27,0.13
		c-1.97-2.14-4.38-0.91-6.58-0.77c-2.63,0.17-4.52,0.6-4.58-3.46c-0.07-5.54-1.94-10.68-6.61-14.49c-1.36-1.11-3.04-0.72-4.19-1.82
		c-0.59-0.59-1.19-1.18-1.71-1.84c-1.72-0.73-0.98-2.01-1.11-3.38c-0.86-8.77,4.85-14.96,8.2-22.07c1.06-2.25,3.12-3.92,3.51-6.61
		c0.58-4-1.9-6.35-4.44-8.81c2.16-1.8,4.25-3.46,6.49-5.03c5.27-3.68,9.27-8.71,12.33-14.42c1.29-2.41,2.38-4.88,2.58-7.66
		c0.23-0.22,0.35-0.51,0.31-0.81c-0.05-0.4,0.31-0.74,0.12-1.14c-0.23,0.35-0.61,0.51-0.94,0.71c-3.84,4.96-5.05,11.62-10.21,15.72
		c-3.5,2.78-7.31,5.26-10.43,8.42c-3.46,3.5-6.82,3.24-10.79,1.43c-2.94-1.34-6.28-0.91-9.41-1.33c-2.16-0.29-4.05-1.62-6.06-1.5
		c-5.21,0.3-10.5-0.7-15.62,0.74c-2.85,0.8-5.33-1.22-8.14-0.6c-3.4,0.75-6.88,0.72-10.35,1.55c-7.89,1.89-14.22,7.15-21.65,9.49
		c-8.33,2.62-14.88,8.4-23,11.09c-5.05,1.68-9.7,4.45-14.96,5.47c-1.83,0.36-3.8,0.08-5.7,0.02c-0.67-0.02-1.2-0.54-1.38-1.17
		c-0.26-0.88,0.47-1.38,1.02-1.81c5.38-4.14,10.49-8.65,15.57-13.1c5.62-4.92,11.67-9.25,17.83-13.27c3.74-2.45,7.47-5.36,11.92-6.8
		c4.31-1.4,8.25-3.64,12.04-6.11c-0.21-0.51-0.65-0.61-1.14-0.63c-5.87,0.61-10.47,4.26-15.67,6.47
		c-9.92,4.23-17.75,11.46-26.35,17.59c-3.68,2.62-6.07,6.87-10.18,8.96c-2.28,1.16-3.82,3.06-6.04,4.41
		c0.78-1.68,1.58-3.35,2.35-5.04c0.48-1.05,1.19-2.1,1.29-3.2c0.18-1.81,1.43-3.91-0.29-5.42c-1.67-1.47-3.55,0.11-5.29,0.18
		c-4.72,0.17-6.99,3.09-9.55,6.33c-2.45,3.1-5.93,5.4-8.32,8.54c-1.81,2.38-3.26,4.78-6.51,5.43c-0.36-3.01,0.93-5.84,2.08-8.3
		c3.88-8.34,9.7-15.36,16.68-21.34c4.63-3.97,9.68-7.3,15.46-9.4C100.51,69.05,101.56,68.88,101.94,67.69z"/>
	<path class="st7" d="M15.4,169.35c1.84-1.37,3.89-2.51,5.17-4.53c3.22,0.06,5.11-2.48,7.13-4.21c4.31-3.7,9.33-6.3,13.8-9.73
		c1.2-0.92,1.9-2.96,3.96-2.7c0.21,2.82-1.76,5.21-1.8,7.88c-0.07,5-0.32,10.15,0.73,14.98c0.76,3.47,1.95,7.01,3.19,10.44
		c2.7,7.51,6.68,14.37,10.48,21.37c3.12,5.75,6.98,11.36,8.81,17.64c1.91,6.56,4.42,12.88,6.38,19.38
		c2.11,7.01,6.09,12.68,10.03,18.7c4.35,6.64,10.51,11.55,14.69,18.14c1.4,2.2,1.26,5.04,2.96,7.35c4.28,5.8,8.71,11.49,14.34,15.94
		c2.48,1.96,5.15,3.94,8.1,5.34c0.93,0.44,1.95,0.86,2.49,2.12c-4.1,0.77-8.09,2.1-11.74,3.69c-6.31,2.75-13.09,2.95-19.51,4.91
		c-3.02,0.92-6.6,0.48-9.86,1.25c-0.51,0.12-0.8-0.17-0.98-0.58c-1.17-2.64-3.88-4.07-5.11-6.7c-2.24-4.76-4.28-9.67-7.04-14.11
		c-3.38-5.44-5.99-11.27-9.76-16.57c-3.31-4.66-6.97-9.31-9.32-14.82c-1.91-4.48-5.37-8.36-8.41-12.29
		c-1.26-1.63-2.11-3.45-3.03-5.18c-2.48-4.65-5.78-8.8-8.17-13.44c-1.63-3.17-2.88-6.75-5.08-9.39
		c-4.19-5.02-7.47-10.78-12.27-15.29c-2.56-6.02-7.03-10.73-10.98-15.78c-2.53-3.24-2.09-4.88-0.46-8.61
		c1.82-4.15,4.48-7.4,7.38-10.66C12.82,172.38,15.16,171.76,15.4,169.35z"/>
	<path class="st7" d="M113.38,292.17c1.88,0.38,2.83,2.21,4.26,2.99c4.6,2.5,9.44,4.47,14.95,4.01c6.14-0.52,12.29-0.94,18.44-1.11
		c3.21-0.08,5.9-0.45,7.09-3.93c0.41-1.2,1.76-0.99,2.6-1.56c3.82-2.58,7.07-5.92,11.07-8.25c0.34-0.2,0.56-0.62,1.24-0.89
		c-1.85,11.27-3,22.57-1.8,34.19c-2.4-0.78-4.38-0.49-6.32-0.37c-7.48,0.47-14-2.54-20.52-5.53c-4.19-1.92-8.81-2.71-12.79-5.31
		c-3.23-2.11-6.97-3.56-10.18-5.64c-3.1-2-5.95-4.72-8.03-7.98c-0.2-0.14-0.27-0.27-0.2-0.41
		C113.25,292.24,113.31,292.17,113.38,292.17z"/>
	<path class="st9" d="M277.53,162.95c0.36-4.11,2.53-7.65,3.27-11.61c0.17-0.92,0.5-1.79,0.55-2.77c0.23-4.62,0.36-4.47,4.91-4.19
		c7.2,0.44,14.12,2.03,20.98,4.11c1.79,0.54,3.33,1.3,4.5,2.79c1.23,1.56,0.72,2.76-0.98,3.05c-4.11,0.7-7.79,2.69-11.69,3.79
		C292.06,160.1,285.31,163.54,277.53,162.95z"/>
	<path class="st10" d="M252.27,157.77c-0.01-2.66,2.6-1.98,3.88-2.72c3.43-1.97,7.26-3.22,11.6-3.06c-0.93,5.03-2.64,9.46-5.06,13.8
		c-1.2,2.15-1.92,4.02-4.6,4.23c-1.99,0.34-1.2-0.95-1.17-1.9C257.05,163.93,255.98,160.25,252.27,157.77z"/>
	<path class="st11" d="M191.98,204.5c-0.66,1.67-1.09,3.33-0.96,5.22c0.23,3.32-1.23,6.34-2.15,9.45
		c-2.11,7.12-4.06,14.29-6.4,21.34c-1.87,5.62-2.33,11.49-3.7,17.18c-0.67,0.66-1.39,1.25-1.63-0.26c-0.13-0.8-0.2-1.67,0.21-2.46
		c-0.24-6.02,1.48-11.77,2.81-17.51c2.04-8.79,5.59-17.15,8.52-25.68c0.82-2.38,0.12-4.85,0.3-7.27c1.06,0.86,0.27,2.17,0.78,3.21
		C190.99,206.96,190.2,204.83,191.98,204.5z"/>
	<path class="st12" d="M277.52,41.91c-2.63,5.6-6.97,10.21-9.29,16c-0.37,0.93-1.27,1.64-1.93,2.45c-0.58-0.02-0.95-0.2-0.66-0.88
		c-0.15-3.89,2.44-6.74,3.99-9.94c1.53-3.16,3.79-5.98,5.73-8.94c0.16-0.35,0.23-0.89,0.5-1.01c0.44-0.2,0.77,0.23,0.72,0.65
		C276.48,41.08,276.23,41.91,277.52,41.91z"/>
	<path class="st13" d="M226.64,167.16c-2.54,0.44-3.85-0.14-2.54-2.99c0.17-0.36,0.12-0.83,0.13-1.25c0.13-3.47,2.68-4.97,5.9-3.56
		c0.83,0.36,1.25,0.89,1.05,1.68c-0.48,1.92-0.94,3.88-1.69,5.7C228.93,168.09,227.61,167.01,226.64,167.16z"/>
	<path class="st14" d="M212.76,178.88c1.34-5.19-1.08-9.95-1.8-14.89c-0.3-2.06-0.12-3.67,1.32-5.43c2.78,6.24,3.11,12.6,2.92,19.05
		C213.2,175.75,213.71,178.72,212.76,178.88z"/>
	<path class="st14" d="M252.27,157.77c0.94-0.24,1.86-0.28,2.66,0.37c1.7,1.39,3.12,8.93,2.17,11.14c-0.54,1.27,0.65,0.49,0.98,0.74
		c-0.74,0.75-1.62,1.17-2.69,1.12c-0.38-3.41-0.1-6.96-2.35-9.96c-0.73-0.97-2.08-1.99-0.72-3.47
		C252.33,157.72,252.27,157.77,252.27,157.77z"/>
	<path class="st13" d="M233.35,150.68c0.11,0.8-0.64,1.17-0.63,1.51c0.15,4.02-2.76,2.96-4.98,3.14c-1.7,0.14-2.29-0.33-2.35-2.22
		c-0.06-1.96,0.27-2.66,2.31-2.47C229.58,150.82,231.49,150.68,233.35,150.68z"/>
	<path class="st15" d="M177.34,254.96c0.67,0.8-1.24,2.96,1.43,2.73c1.15,3.63-0.71,7.23-0.1,10.86c-1.08-0.52-0.11-2.55-1.88-2.56
		C175.93,262.26,176.08,258.58,177.34,254.96z"/>
	<path class="st16" d="M113.38,292.17c0.04,0.21,0.04,0.42,0.01,0.62c-3.75-1.33-6.19-3.98-7.69-7.58l-0.06,0.04
		C108.81,286.9,111.55,289.01,113.38,292.17z"/>
	<path class="st17" d="M240.3,56.62c0.52-0.91,1.05-1.83,1.57-2.74c0.3,1.64,0.03,2.95-1.06,3.97
		C240.64,57.44,240.47,57.03,240.3,56.62z"/>
	<path class="st18" d="M265.67,106.47c-0.82,0.7-1.64,1.41-2.46,2.11c-0.13-0.09-0.26-0.19-0.38-0.28c0.55-1.03,1.11-2.07,1.66-3.1
		C264.61,105.87,264.78,106.51,265.67,106.47z"/>
	<path class="st19" d="M236.93,148.2c0.42-0.04,0.85-0.08,1.27-0.13c-0.31,1.24-1.05,2.18-2.25,2.89
		C236.28,150.04,236.6,149.12,236.93,148.2z"/>
	<path class="st20" d="M105.69,285.21c-0.88-0.62-1.96-1.06-2.19-2.65c1.41,0.56,2.15,1.31,2.14,2.69
		C105.64,285.25,105.69,285.21,105.69,285.21z"/>
	<path class="st21" d="M213.25,125.83c0.96,0.25,1.25,1.12,1.71,1.84C213.87,127.55,213.35,126.89,213.25,125.83z"/>
	<path d="M149.85,64.22c0.43-0.44,0.85-0.85,1.4-0.12c0.34,0.44,0.22,0.64-0.27,0.75C150.49,64.86,150.08,64.71,149.85,64.22z"/>
	<path class="st22" d="M170.39,40.57c-1.57,3.16-4.3,4.95-7.79,6.63c1.33-4.27,5.39-5.87,7.09-9.25
		C169.83,38.84,169.42,39.89,170.39,40.57z"/>
	<path class="st23" d="M261.88,14.14c0.56-2.12,3.7-1.92,3.93-4.34c0.63,0.24,1.05,0.68,1.26,1.32c-1.29,1.45-1.74,3.58-3.65,4.53
		C262.01,16.07,261.36,15.7,261.88,14.14z"/>
	<path d="M183.2,212.24c-1.44-3.54-3.75-5.93-7.61-6.95c-0.09,5.32-4.64,8.11-7.09,12.15c-0.91,1.51-2.18,2.79-3.68,3.89
		c-2.53,1.85-3.37,4.4-1.41,7.14c1.17,1.64,1.38,3.36,1.1,5.14c-0.63,4.01,1.55,6.98,3.06,10.38c1.36,3.03,3.57,6.46,1.41,10.72
		c-2.82-3.71-3.22-8.02-5.06-11.98c-0.9,0.77-0.26,1.85-0.66,2.56c-0.9,1.6-1.27,4.13-3.59,3.93c-2.06-0.18-3.97-1.52-4.6-3.8
		c-0.56-2.01-0.94-4.08-1.48-6.5c-1.36,1.82-1.85,4.06-4.52,4.04c-2.73-0.02-3.33-2.22-4.59-3.91c-0.84,1.08-1.51,2.19-2.42,3.03
		c-1.75,1.62-3.83,1.09-4.68-1.16c-0.35-0.94-0.66-2.15-1.69-2.03c-1.17,0.14-1.1,1.54-1.33,2.51c-0.84,3.55,0.48,7.06,0.15,10.6
		c-0.11,1.24-0.15,2.48-0.22,3.75c-3.05-1.33-3.82-3.06-2.78-6.97c0.54-2.06,1.27-3.84-1.85-4.36c-1.27-0.21-1.46-1.72-2.04-2.71
		c-0.66-1.13-0.73-2.68-2.53-3.32c-0.75,2.9,0.14,5.89-1.92,8.68c-2.38,3.23-1.88,3.6-5.76,1.6c-0.47,4.18-0.82,8.33-2.24,12.69
		c-2.09-3.4-1.57-7.03-0.68-9.65c1.63-4.8-0.54-8.35-2.2-12.15c-0.59-1.34-1.34-2.66-1.61-4.08c-0.34-1.81-0.77-3.29-2.81-3.86
		c-0.8-0.22-1.54-0.92-1.27-1.95c0.35-1.31,1.43-1.07,2.36-0.87c1.14,0.24,2.3,0.48,3.37,0.92c4.06,1.7,8.34,1.32,12.58,1.69
		c5,0.44,9.91-0.48,14.86-0.25c2.15,0.1,4.13-1.08,5.92-1.84c6.79-2.89,13.65-5.9,18.28-12.13c2.47-3.32,6.05-5.67,8.08-9.37
		c0.94-1.72,2.06-2.96-1.2-3.86c-2.44-0.67-4.77-0.04-7.08-0.64c-0.95-0.24-2.11-0.4-2.06-1.58c0.05-1.07,1.22-1.4,2.1-1.65
		c5.18-1.48,15.53,2.26,18.6,6.73C183.52,208.41,184.22,210.11,183.2,212.24z"/>
	<path class="st24" d="M113.99,144.27c0.02-0.25,0.04-0.49,0.06-0.74c3.02-3.36,7.32-3.73,11.3-4.49c5.2-0.99,10.54-1.18,15.7-2.46
		c3.05-0.76,6.16-0.56,9.22-0.31c4.16,0.35,8.3-0.04,12.45,0.02c4.21,0.06,8.19,1.2,12.06,2.77c1,0.41,1.79,1.14,2.48,1.97
		c0.88,1.06,1.26,2.11-0.43,2.69c-2.02,0.69-2.49,2.17-2.22,4.04c0.36,2.54-1.08,3.23-3.2,3.16c-2.45-0.08-4.9-0.2-7.33-0.43
		c-7.87-0.74-15.7,0.04-23.56,0.23c-6.34,0.16-12.74,0.81-19.12-0.16c-3.08-0.47-5.58-1.29-6.42-4.68
		C114.85,145.29,114.35,144.79,113.99,144.27z"/>
	<path class="st4" d="M113.99,144.27c1.74-0.05,2.71,0.89,2.49,2.53c-0.22,1.69,0.52,2.25,1.94,2.47c4.5,0.7,9,1.41,13.54,0.44
		c0.89-0.19,1.66,0.02,2.5,0.08c6.5,0.49,12.95-0.41,19.41-0.83c3.51-0.23,6.88,0.58,10.33,0.66c3.22,0.08,6.43,0.33,10.17,0.54
		c-1.07-1.89-1.21-3.59-0.81-5.31c0.56-2.39,2.53-1.73,4.45-1.87c-4.18-4.75-9.53-5.35-15.08-5.63c-5.53-0.28-11.08,0.34-16.6-0.47
		c-1.39-0.21-2.93,0.05-4.31,0.42c-5.91,1.54-12.05,1.59-17.98,2.72c-3.35,0.63-6.92,1.62-9.99,3.52c0.54-3.32,3.62-5.12,7.91-5.84
		c4.9-0.82,10.02-0.31,14.7-2.72c1.9-0.98,4.38-0.45,6.58-0.65c6.29-0.55,12.7-1.16,18.94-0.55c5.74,0.56,11.66,1.46,16.78,4.81
		c4.15,2.71,3.82,6.71,3.51,10.77c-0.23,3.03-2.82,3.86-4.93,4.15c-3.42,0.48-7.08,0.7-10.4-0.05c-3.83-0.86-7.63-0.21-11.36-0.84
		c-4.75-0.8-9.55-0.47-14.1,0.2c-6.63,0.98-13.24-0.08-19.82,0.83c-3.15,0.44-6.21-0.55-7.99-3.5
		C112.76,148.3,112.15,146.19,113.99,144.27z"/>
	<path class="st4" d="M71.88,137c3.72-0.96,8.9,0.14,14.06,0.36c3,0.13,5.83,1.66,8.89,1.98c0.6,0.06,1.35,0.79,1.64,1.4
		c1.46,3.09,1.16,6.57,0.06,9.38c-1,2.58-3.66,4.49-7.07,4.45c-8.82-0.09-17.63,0.01-26.45-0.09c-4.48-0.05-6.5-3.35-5.49-7.76
		C58.85,140.99,65.54,137.87,71.88,137z"/>
	<path class="st11" d="M82.1,212.82c0.03-2.93-0.05-5.81-0.56-8.76c-0.4-2.3,0.68-4.83,0.98-7.27c0.92-7.66,4.47-14.37,7.39-21.35
		c2.1-5.02,6.68-8.28,8.35-13.53c1.3-4.09,2.24-8.03,2.62-12.41c0.47-5.35-1.87-9.83-2.26-14.78c-0.07-1.11,0.47-1.07,1.22-0.66
		c3.5,4.8,3.65,10.44,3.98,16.02c0.49,8.3-4.34,14.65-8.1,21.34c-2.1,3.74-5.37,6.81-6.5,11.1c-1.58,6.01-3.75,11.98-4.36,18.09
		c-0.38,3.74-0.94,7.69-0.42,11.56C83.6,212.22,82.95,212.87,82.1,212.82z"/>
	<path class="st11" d="M82.1,212.82c0.72-0.41,0.92-2.71,2.33-0.65c1.15,3.94-0.2,8.19,1.77,12.09c0.97,1.92,1.91,3.93,2.8,5.89
		c1.45,3.21,6.58,2.06,8.37-1.83c2.32-5.06,4.57-10.16,6.53-15.37c0.88-2.34,2.48-3.37,4.53-3.98c3.96-1.18,9.66,0.79,12.27,4.09
		c-3.05,1.72-3.54,1.71-5.85-0.93c-0.73-0.83-1.43-0.69-2.25-0.68c-4.29,0.09-7.27,2.47-8.1,7.58c-0.5,3.09-2.13,5.47-3.5,8.01
		c-0.98,1.82-2.17,3.44-2.83,5.52c-0.79,2.48-3.59,2.81-5.79,3.23c-2.08,0.4-4.19-0.62-5.18-2.45
		C83.72,226.98,80.68,220.43,82.1,212.82z"/>
	<path class="st0" d="M173.34,119.25c-0.86,3.15-3.68,2.17-5.28,2.46c-6.6,1.2-13.31,2.49-19.97,2.4
		c-5.09-0.07-10.36,0.47-15.42-1.01c-0.64-0.19-1.43-0.34-1.46-1c-0.04-1.12,1.02-0.88,1.68-0.89c5.66-0.13,11.33-0.33,16.99-0.27
		c3.1,0.04,6.03-0.89,9.06-1.21C163.69,119.21,168.39,119.43,173.34,119.25z"/>
	<path class="st25" d="M121.69,220.53c0.1,0-0.01,0.02-0.11,0c-1.38-0.29-3.67,0.43-3.91-1.17c-0.27-1.83,2.21-0.84,3.24-1.61
		c0.24-0.18,0.57-0.28,0.87-0.36c7.22-1.77,7.2-4.45,5.65-9.58c-1.3-4.3-2.46-8.55-7.67-9.73c-0.57-0.13-1.26-0.57-0.93-1.35
		c0.28-0.67,1.05-0.68,1.67-0.66c5.02,0.14,11.41,8.43,10.32,13.28c-0.27,1.23-0.3,2.53-0.32,3.8c-0.1,4.77-1.9,6.75-6.69,7.27
		C123.18,220.47,122.54,220.48,121.69,220.53z"/>
	<path class="st26" d="M117.46,160.73c3.01-2.67,5.72-0.65,7.71,0.12c6.42,2.51,12.93,3.77,19.78,3.86c1.13,0.01,3.44-0.84,3.5,0.97
		c0.07,2.35-2.37,1.71-3.76,1.6c-6.63-0.55-13.43-0.06-19.68-3.11C122.7,163.03,120.31,162.02,117.46,160.73z"/>
	<path class="st26" d="M74.43,127.6c-3.87-0.07-7.27,0.65-10.58-0.57c-0.49-0.18-1.11-0.12-1.14-0.8c-0.03-0.58,0.35-0.9,0.89-1.16
		c1.87-0.89,3.92-1.24,5.89-1.1c3.8,0.27,7.56,0.7,11.35-0.16c1.03-0.24,2.28-0.28,2.48,1.22c0.18,1.31-0.96,1.49-1.87,1.75
		C78.99,127.47,76.48,127.78,74.43,127.6z"/>
	<path class="st25" d="M78.81,163.42c3.79-1.03,7.79-1.13,11.41-2.93c1.17-0.58,3.1-1.84,3.93-0.13c0.67,1.37-1.55,2.03-2.51,2.5
		c-3.43,1.67-6.76,3.69-11.03,2.61c-2.85-0.72-6,0.77-8.9-0.62c0.39-2.09,2.42-0.32,3.24-1.38c0.42,0.06,0.85,0.11,1.27,0.17
		C77.12,164.06,77.97,163.82,78.81,163.42z"/>
	<path class="st27" d="M172.96,158.46c1.97-2.13,4.78-2.31,7.05-3.47c2.8-1.43,3.71-3.62,4.88-5.96c0.33-0.65,0.52-1.56,1.46-1.35
		c0.86,0.19,0.88,0.9,0.84,1.76c-0.19,4.11-2.44,7.38-6.5,8.45C178.25,158.54,175.73,160.27,172.96,158.46z"/>
	<path class="st14" d="M61.88,157.17c-2.88,2.75-5.14,2.8-7.39,0.27c-1.73-1.95-3.48-3.98-3.28-6.9c0.04-0.6-0.23-1.4,0.59-1.59
		c0.79-0.19,0.95,0.6,1.27,1.12c1.53,2.52,3.45,4.62,5.93,6.29C59.95,156.99,60.8,157.26,61.88,157.17z"/>
	<path class="st28" d="M99.84,134.06c-0.52,0.01-0.96,0.17-1.22,0.66c-1.62-1.26-1.33-3.47-2.48-5c-0.39-0.52-0.3-1.58,0.57-1.9
		c1.03-0.37,1.35,0.56,1.36,1.26C98.08,130.97,100.2,132.07,99.84,134.06z"/>
	<path class="st29" d="M202.42,100.01c0.75,1.36,1.52,2.71,2.26,4.08c0.31,0.57,0.51,1.28-0.18,1.65c-0.57,0.31-1.23,0.11-1.67-0.46
		c-1.01-1.32-1.07-2.91-1.25-4.47C201.72,100.4,201.98,100.11,202.42,100.01z"/>
	<path class="st30" d="M202.42,100.01c-0.28,0.27-0.56,0.54-0.84,0.81c-0.85-1.65-1.87-3.28-0.57-5.16c0.2-0.2,0.4-0.21,0.62-0.03
		C202.24,97.02,202.76,98.44,202.42,100.01z"/>
	<path class="st31" d="M201.64,95.62c-0.21,0-0.41,0.01-0.62,0.03c-0.82-1.65-0.42-3.1,0.66-5.15
		C202.68,92.7,202.62,94.17,201.64,95.62z"/>
	<path class="st28" d="M74.95,163.46c-0.73,1.28-2.5,0.13-3.24,1.38c-0.61-0.56-0.66-1.07,0.27-1.21
		C72.96,163.49,73.96,163.51,74.95,163.46z"/>
	<path class="st28" d="M78.81,163.42c-0.78,1.02-1.65,0.97-2.58,0.21C77.08,163.56,77.94,163.49,78.81,163.42z"/>
	<path class="st0" d="M204.18,224.4c-0.51-0.36-0.65-0.97-0.48-1.42c1.6-4.21,1.96-8.71,2.83-13.06c0.68-3.41,2.03-6.54,2.86-9.85
		c0.36-1.43,0.93-2.62,2.45-2.02c1.66,0.65,0.37,1.91,0.13,2.95c-0.81,3.51-1.56,7.04-2.34,10.56c-0.16,0.71-0.24,1.47-0.54,2.12
		c-1.2,2.65-1.85,5.39-1.46,8.29c0.21,1.54-0.31,2.69-1.43,3.66c-0.75,0.93,0.09,2.28-0.84,3.42
		C203.8,227.65,205.41,225.64,204.18,224.4z"/>
	<path class="st26" d="M197.27,223.36c-0.65-2.08-0.98-3.48-0.79-5.28c0.69-6.68,3.23-12.92,4.27-19.51
		c0.23-1.46,1.31-2.81,2.85-2.27c1.37,0.49,1,2.15,0.52,3.27c-2.58,6.11-3.31,12.69-4.84,19.06
		C198.9,220.24,198.42,221.62,197.27,223.36z"/>
	<path class="st28" d="M204.18,224.4c1.5,0.95,0.32,2.55,0.95,3.79c0.94-0.62-0.01-2.05,1.09-2.56c-0.35,1.44,0.89,4.11-1,4.08
		c-2.04-0.03-0.54-2.63-0.88-4.05C204.24,225.25,204.23,224.82,204.18,224.4z"/>
	<path class="st11" d="M262.56,66.67c-2.59,9.36-8.3,16.15-16.84,20.69c-3.32,1.77-6.24,4.17-9.6,5.94c-2.26,1.2-4.85,1.29-7,2.74
		c-0.9,0.61-2.15-0.09-2.47-1.3c-0.34-1.32,0.62-2.12,1.71-2.24c5.42-0.61,9.98-3.61,14.12-6.46c5.38-3.7,10.74-7.86,14.37-13.63
		c1.61-2.56,3.33-5.05,5-7.57C263.48,64.92,262.85,65.86,262.56,66.67z"/>
	<path class="st31" d="M261.88,14.14c0.07,0.95,0.61,1.43,1.54,1.51c-3.53,3.59-7.05,7.18-10.58,10.77
		c-0.98-0.1-0.92-0.63-0.54-1.29C255,21.03,258.43,17.58,261.88,14.14z"/>
	<path class="st32" d="M265.64,59.49c0.22,0.29,0.44,0.59,0.66,0.88c-0.36,1.98-1.06,3.73-3.01,4.68c-0.61-0.3-0.38-0.95-0.59-1.42
		C264.92,63.13,264.19,60.53,265.64,59.49z"/>
	<path class="st33" d="M157.62,61.83c-1.33,0.98-2.69,1.88-4.94,1.62c1.62-1.47,3.12-2.14,4.86-2.33
		C157.92,61.32,157.95,61.55,157.62,61.83z"/>
	<path class="st32" d="M252.31,25.13c0.18,0.43,0.36,0.86,0.54,1.29c-0.21,0.76-0.91,1.7-1.4,1.19
		C250.51,26.67,251.75,25.89,252.31,25.13z"/>
	<path class="st34" d="M262.7,63.62c0.2,0.47,0.4,0.95,0.59,1.42c-0.2,0.56,0.25,1.42-0.73,1.63c-0.06-0.68,0.12-1.44-0.7-1.83
		C262.14,64.43,262.42,64.03,262.7,63.62z"/>
	<path class="st35" d="M157.62,61.83c-0.03-0.24-0.05-0.47-0.08-0.71c0.71-0.69,1.5-1,2.52-0.47
		C159.27,61.17,158.58,61.78,157.62,61.83z"/>
	<path class="st25" d="M19.3,184.56c0.31,0.16,0.78,0.25,1.04,0.54c2.44,2.64,5.45,4.7,6.67,8.5c0.73,2.28,2.86,4.1,4.34,6.14
		c0.73,1.01,1.85,2.28,0.39,3.24c-1.3,0.86-2.4-0.18-2.98-1.47c-2.46-5.5-7.27-9.35-10.15-14.56
		C18.03,185.89,17.56,185.03,19.3,184.56z"/>
	<path class="st25" d="M24.51,202.78c-0.12,0.79,0.06,1.59-0.69,1.81c-0.84,0.25-1.9,0.14-2.38-0.56c-3.2-4.69-8.16-8.11-9.92-13.83
		c-0.21-0.69-0.87-1.41,0.06-1.93c0.74-0.41,1.05,0.42,1.45,0.83c3.72,3.91,6.47,8.66,10.65,12.18
		C24.13,201.66,24.29,202.36,24.51,202.78z"/>
	<path class="st36" d="M158.67,245.53c0.13-4.59-1.96-7.95-2.48-11.71c-0.06-0.4-0.34-0.76-0.49-1.16
		c-0.43-1.15-2.73-1.83-1.85-2.89c1.21-1.46,3.22-2.34,5.02-3.2c1.13-0.54,1.89,1,1.86,1.46c-0.37,5.4,2.18,10.94-0.69,16.22
		C159.91,244.49,159.62,244.65,158.67,245.53z"/>
	<path class="st37" d="M113.66,234.06c3.08-0.68,5.97,2.28,9.47,0.07c-1.58,4.54-2.29,8.57-2.07,13.2
		C116.86,243.53,114.89,239.07,113.66,234.06z"/>
	<path class="st38" d="M148.89,238.94c-3.44-0.3-2.82-3.32-3.45-5.32c-0.3-0.95,1.22-1.45,2.09-1.5c0.88-0.05,1.83-1.32,2.57-0.25
		c0.56,0.82,1,2.14,0.34,3.01C149.5,236.13,149.64,237.71,148.89,238.94z"/>
	<path class="st39" d="M127.79,234.77c1.9-0.23,3.45-0.17,5.21,0.27c-0.66,1.73-1.31,3.4-1.95,5.08
		C128.67,239.14,128.57,236.91,127.79,234.77z"/>
	<path class="st40" d="M140.03,239.58c-0.34-1.76-3.01-3.3-0.52-5.19c0.41-0.31,0.91-0.7,1.44-0.37c0.67,0.42,0.46,1.05,0.26,1.68
		C140.79,236.98,140.42,238.28,140.03,239.58z"/>
	<path class="st41" d="M154.39,236.68c-0.21,0.28-0.36,0.48-0.51,0.67c-0.2-0.19-0.5-0.36-0.56-0.59c-0.04-0.16,0.24-0.41,0.38-0.62
		C153.91,236.3,154.12,236.46,154.39,236.68z"/>
	<path class="st24" d="M92.96,143.9c-1.81,1.62-3.85-1.86-5.33,0.57c-0.94,1.53-1.06,3.38-1.31,5.15c-0.15,1.07-0.67,1.73-1.86,1.79
		c-0.52,0.02-1.01,0.38-1.53,0.41c-6.47,0.33-12.92-0.31-19.36-0.73c-0.75-0.05-2.85,0.19-2.59-1.47c0.32-1.99-0.55-4.78,1.76-5.8
		c4.31-1.89,8.19-4.49,13.57-4.17c4.38,0.26,8.77,1.51,13.22,0.8c0.8-0.13,2.14-0.45,1.99,1.18
		C91.42,142.83,92.64,143.11,92.96,143.9z"/>
</g>
</svg>
