<?xml version="1.0" encoding="utf-8"?>
<!-- Generator: Adobe Illustrator 24.0.1, SVG Export Plug-In . SVG Version: 6.00 Build 0)  -->
<svg version="1.1" id="Layer_1" xmlns="http://www.w3.org/2000/svg" xmlns:xlink="http://www.w3.org/1999/xlink" x="0px" y="0px"
	 viewBox="0 0 475.29 235.74" style="enable-background:new 0 0 475.29 235.74;" xml:space="preserve">
<style type="text/css">
	.st0{fill:#50718C;}
	.st1{fill:#D5DFEF;}
	.st2{fill:#E8EEF7;}
	.st3{fill:#A4E7FF;}
	.st4{fill:#F47B5B;}
</style>
<path class="st0" d="M465.97,235.74H9.32c-2.39,0-4.32-1.92-4.32-4.28l0,0c0-2.37,1.93-4.28,4.32-4.28h456.65
	c2.39,0,4.32,1.92,4.32,4.28l0,0C470.29,233.82,468.35,235.74,465.97,235.74z"/>
<g>
	<path class="st1" d="M452.97,220.02H155.33c-3.82,0-6.96-3-7.15-6.81l-9.8-200.7c-0.2-4.08,3.06-7.51,7.15-7.51h317.24
		c4.09,0,7.35,3.42,7.15,7.51l-9.8,200.7C459.93,217.02,456.79,220.02,452.97,220.02z"/>
	<path class="st2" d="M463.13,227.17H145.17c-3.95,0-7.16-3.2-7.16-7.16l0,0c0-3.95,3.2-7.16,7.16-7.16h317.96
		c3.95,0,7.16,3.2,7.16,7.16l0,0C470.29,223.97,467.08,227.17,463.13,227.17z"/>
	<circle class="st2" cx="304.15" cy="112.51" r="27.79"/>
</g>
<g>
	<g>
		<path class="st3" d="M37.49,48.23c-16.67,53.33,8.67,62.89-6.67,103.45C50.82,110.23,32.15,88.56,37.49,48.23z"/>
		<path class="st3" d="M71.22,58.55c-11.54,36.94,6,43.56-4.62,71.65C80.45,101.5,67.52,86.49,71.22,58.55z"/>
		<path class="st3" d="M53.49,76.82c11.54,36.94-6,43.56,4.62,71.65C44.25,119.77,57.18,104.76,53.49,76.82z"/>
	</g>
	<g>
		<path class="st4" d="M76.79,228.37H27.2c-6.26,0-11.33-5.07-11.33-11.33v-59.08c0-6.26,5.07-11.33,11.33-11.33h49.59
			c6.26,0,11.33,5.07,11.33,11.33v59.08C88.12,223.29,83.05,228.37,76.79,228.37z"/>
		<g>
			<path class="st4" d="M95.63,157.49H62.96v8h32.67c4.98,0,9.03,4.05,9.03,9.03v25.94c0,4.98-4.05,9.03-9.03,9.03H62.96v8h32.67
				c9.39,0,17.03-7.64,17.03-17.03v-25.94C112.66,165.13,105.02,157.49,95.63,157.49z"/>
		</g>
	</g>
</g>
</svg>
