<?xml version="1.0" encoding="utf-8"?>
<!-- Generator: Adobe Illustrator 24.0.1, SVG Export Plug-In . SVG Version: 6.00 Build 0)  -->
<svg version="1.1" id="Layer_1" xmlns="http://www.w3.org/2000/svg" xmlns:xlink="http://www.w3.org/1999/xlink" x="0px" y="0px"
	 viewBox="0 0 254.97 253.11" style="enable-background:new 0 0 254.97 253.11;" xml:space="preserve">
<style type="text/css">
	.st0{fill:#1B202B;}
</style>
<g>
	<path class="st0" d="M70.23,67.22c0-9.08,7.36-16.45,16.45-16.45h81.61c9.08,0,16.45,7.36,16.45,16.45v16.5h69.12
		C233.01,34.52,184.28,0,127.48,0C70.69,0,21.96,34.52,1.11,83.72h69.12V67.22z"/>
	<path class="st0" d="M0,104.25c0,6.6,5.35,11.95,11.95,11.95h46.33c6.6,0,11.95-5.35,11.95-11.95V90.74H0V104.25z"/>
	<path class="st0" d="M184.74,104.25c0,6.6,5.35,11.95,11.95,11.95h46.33c6.6,0,11.95-5.35,11.95-11.95V90.74h-70.22V104.25z"/>
	<path class="st0" d="M254.97,206.67c0-48.16-37.63-87.52-85.08-90.31V82.91c0-8.35-6.77-15.12-15.12-15.12h-4.29v8.71H104.5v-8.71
		h-3.75c-8.35,0-15.12,6.77-15.12,15.12v33.42C37.91,118.85,0,158.33,0,206.67v22.95h254.97V206.67z M127.48,216.99
		c-28.94,0-52.39-23.46-52.39-52.39c0-28.94,23.46-52.39,52.39-52.39c28.94,0,52.39,23.46,52.39,52.39
		C179.88,193.54,156.42,216.99,127.48,216.99z"/>
	<circle class="st0" cx="127.48" cy="164.6" r="28.99"/>
	<circle class="st0" cx="127.48" cy="124.44" r="8.82"/>
	<path class="st0" d="M107.35,140.62c3.73-3.13,4.22-8.7,1.09-12.43c-3.13-3.73-8.7-4.22-12.43-1.09c-3.73,3.13-4.22,8.7-1.09,12.43
		C98.05,143.27,103.62,143.75,107.35,140.62z"/>
	<path class="st0" d="M96.66,159.2c0.85-4.8-2.36-9.37-7.16-10.22c-4.8-0.85-9.37,2.36-10.22,7.16c-0.85,4.8,2.36,9.37,7.16,10.22
		S95.81,164,96.66,159.2z"/>
	<path class="st0" d="M88.36,177.08c-4.22,2.44-5.67,7.83-3.23,12.05c2.44,4.22,7.83,5.67,12.05,3.23
		c4.22-2.44,5.67-7.83,3.23-12.05C97.97,176.09,92.58,174.65,88.36,177.08z"/>
	<path class="st0" d="M116.85,194.07c-4.58-1.67-9.64,0.69-11.31,5.27c-1.67,4.58,0.69,9.64,5.27,11.31s9.64-0.69,11.31-5.27
		S121.43,195.73,116.85,194.07z"/>
	
		<ellipse transform="matrix(0.9814 -0.1918 0.1918 0.9814 -36.1837 30.8602)" class="st0" cx="141.31" cy="202.33" rx="8.82" ry="8.82"/>
	
		<ellipse transform="matrix(0.9659 -0.2588 0.2588 0.9659 -42.2584 48.3071)" class="st0" cx="162.33" cy="184.64" rx="8.82" ry="8.82"/>
	<path class="st0" d="M165.54,148.9c-4.8,0.85-8,5.42-7.16,10.22c0.85,4.8,5.42,8,10.22,7.16c4.8-0.85,8-5.42,7.16-10.22
		C174.91,151.25,170.34,148.05,165.54,148.9z"/>
	<path class="st0" d="M146.55,128.14c-3.13,3.73-2.65,9.3,1.09,12.43c3.73,3.13,9.3,2.65,12.43-1.09c3.13-3.73,2.65-9.3-1.09-12.43
		C155.25,123.92,149.68,124.4,146.55,128.14z"/>
	<path class="st0" d="M0,237.24c0,8.77,7.11,15.87,15.87,15.87h223.22c8.77,0,15.87-7.11,15.87-15.87v-0.59H0V237.24z"/>
</g>
</svg>
