<?xml version="1.0" encoding="utf-8"?>
<!-- Generator: Adobe Illustrator 24.0.1, SVG Export Plug-In . SVG Version: 6.00 Build 0)  -->
<svg version="1.1" id="Layer_1" xmlns="http://www.w3.org/2000/svg" xmlns:xlink="http://www.w3.org/1999/xlink" x="0px" y="0px"
	 viewBox="0 0 698.88 520" enable-background="new 0 0 698.88 520" xml:space="preserve">
<g>
	<path fill="#9E005D" d="M673.74,92.03c-11.22-0.84-25.1,6.54-31.31,15.69c-7.89,11.65-9.39,25.76-13.69,38.86
		c-0.23,0.69-0.29,1.34-0.25,1.92c-6.93,14.33-17.77,25.74-32.73,35.72c-15.38,10.25-34.78,21.59-54.22,23.74
		c-5.96-8.01-11.61-15.94-3.52-26.49c1.55-2.03,0.57-4.86-0.85-6.56c-6.04-7.29-9.01-16-14.45-23.41c1.53-0.54,3.12-0.97,4.84-1.25
		c3.3-0.54,5.14-5.28,3.23-7.96c-5.61-7.88-9.58-13.33-16.84-16.72c9.74-13.52,3.61-25.11-12.54-29.89c1.72-2.71,3.4-5.46,5.3-8.14
		c2.45-3.45-0.01-6.76-3.22-7.62c-0.22-0.89-0.62-1.68-1.2-2.34c1.21-3.39-1.65-8.44-6.51-7.64c-8.09,1.34-15.76,0.34-23.54-1.3
		c0.48-2.15,0.98-4.29,1.31-6.48c0.61-4.16-2.31-7.55-6.66-6.66c-3.35,0.68-6.94,0.43-10.56,0.13c-1.04-0.94-2.1-1.86-3.17-2.77
		c0.22-2.52,0.46-5.04,1.13-7.55c0.96-3.63-1.74-6.54-5.23-6.86c-6.98-0.63-13.66-2.68-20.51-3.95c0.13-3.14-0.15-6.14-0.56-9.89
		c-0.38-3.39-3.18-6.31-6.86-5.22c-5.38,1.58-10.97,1.06-16.51,1.3c0.3-3.89,0.53-7.79,1.5-11.5c1.25-4.76-3.78-8.28-7.96-6.12
		c-6.29,3.24-13.16,4.57-19.74,6.82c-0.45-1.97-0.89-3.94-1.2-6c-0.62-4.12-6.47-5.08-9.06-2.39
		c-10.24,10.66-21.78,12.37-33.28,2.41c-3.21-2.79-7.62-1.57-9.06,2.39c-5.94,16.32-17.45,6.08-23.35,1.58
		c-3.99-3.05-9.07,1.95-7.96,6.12c0.9,3.41,1.58,6.84,2.34,10.26c-3.35,1.06-6.67,2.2-9.96,3.45c-8.14-0.75-15.99-3.21-24.26-5.93
		c-4.21-1.38-7.14,2.62-6.66,6.16c-11.91,1.04-23.85,1.78-35.72,3.28c-4.59,0.58-8.32,7.66-2.73,10.09
		c6.71,2.93,13.56,4.96,20.59,6.26c-1.42,1.15-2.85,2.29-4.3,3.4c-1.33-0.45-2.81-0.46-4.25,0.24
		c-23.55,11.6-47.7,21.89-69.84,36.13c-3.58,2.3-3.65,9.06,1.29,9.91c8.85,1.51,17.46,1.06,26.08-0.34
		c-15.68,11.07-30.15,22.36-37.09,41.83c-1.68,4.72,4.07,8.25,7.96,6.12c0.43-0.24,0.86-0.5,1.29-0.74l-13.52,27.04
		c-2.61,5.22,4.33,11.51,8.51,6.56c1.22-1.43,2.62-2.55,4.13-3.52c-2.14,8.94-2.5,17.97-1.14,27.62c0.09,0.69,0.45,1.29,0.88,1.84
		c-0.27,0.13-0.53,0.29-0.8,0.42c0.25,1.11,0.44,2.33,0.61,3.59c-1.65,0.09-3.26,0.22-4.91,0.42
		c-17.98-3.19-35.69-13.49-49.93-22.99c-14.96-9.97-25.8-21.39-32.73-35.72c0.04-0.59-0.02-1.23-0.25-1.92
		c-4.3-13.1-5.79-27.21-13.69-38.86c-6.21-9.15-20.08-16.53-31.31-15.69C2.83,94.6-3,116.18,1.33,134.83
		c-0.08,41.81,30.03,84.25,60.66,110.4c27.67,23.61,58.89,32.59,93.68,34.52c0.02-0.05,0.03-0.09,0.05-0.13
		c2.54,0.48,5.04,0.74,7.55,0.75c0.39,3.57,0.71,7.14,0.85,10.72c0.24,6.01,0.34,12.4-1.33,18.19c0.8-0.6,1.61-1.19,2.43-1.76
		c-1.71,8.73-2.03,17.48-0.73,26.79c0.51,3.59,5.21,4.75,7.96,3.23c0.04-0.02,0.07-0.03,0.1-0.05c-1.89,4.68-3.93,9.28-5.96,13.89
		c3.69,20.79-3.4,40.23-8.13,60.26c0.51,0.25,1.01,0.54,1.52,0.77c-0.1,0.3-0.21,0.59-0.31,0.89c-1.69,5.4,5.24,8.81,9.06,5.27
		c0.73-0.68,1.46-1.34,2.19-2.01c0.3,0.09,0.6,0.2,0.89,0.28c-0.85,5.21-1.59,10.45-2.5,15.73c-0.92,5.33,4.82,9.05,9.06,5.27
		c1.81-1.61,3.69-3.12,5.59-4.59c-2.34,9.21-2.68,18.69-0.2,28.7c0.68,2.73,3.06,3.97,5.45,3.82c0.3,0.53,0.71,1.01,1.22,1.42
		c-13.62,11.28-22.7,26.2-14.39,40.21c10.34,17.44,38.42,13.53,53.61,7.38c19.7-7.96,36.37-23.71,50.22-39.92
		c13.87-1.73,27.75-3.93,41.67-4.59c0.66,0.29,1.43,0.47,2.31,0.47h19.27c1.71,0,2.98-0.6,3.85-1.5c6.18-0.45,12.36-0.75,18.5-0.52
		c0.87,1.16,2.24,1.99,4.14,2.02c12.84,0.11,25.63,0.61,38.37,0.31c12.28,19.42,30.41,33.75,53.15,39.27
		c17.3,4.21,42.49,0.56,53.76-14.56c8.34-11.18-5.52-23.87-13.49-29.73c-0.14-0.1-0.29-0.19-0.44-0.3c0.95-0.26,1.75-0.76,2.38-1.45
		c2.78-0.32,5.56-0.62,8.36-0.78c6.16-0.33,7.3-8.69,1.44-10.64c-0.8-0.28-1.61-0.54-2.41-0.81c1.07-1.1,1.69-2.55,1.52-4.13
		c1.66-1.12,2.75-3.11,2.27-5.73c-0.18-0.94-0.43-1.87-0.68-2.8c3.44,0.15,6.67-3.31,5.49-6.83c-0.32-0.96-0.65-1.92-0.98-2.88
		c3.48,0.24,7.32-3.07,5.79-6.75c-2.56-6.2-4.22-12.62-6.42-18.88c1.54,0.37,3.07,0.82,4.58,1.45c4.02,1.42,7.64-2.9,6.66-6.66
		c-0.55-2.09-0.94-4.21-1.29-6.34c3.8,3.31,9.72-0.91,8.52-5.7l-4.92-19.69c2.64,0.67,5.3,1.34,7.89,2.27
		c4.71,1.69,8.24-4.07,6.11-7.96c-4.36-8.03-7.02-16.2-8.99-24.72c0.52,0.28,1.04,0.55,1.58,0.82c3.74,1.91,9.93-1.32,7.96-6.12
		c-2.41-5.84-3.77-11.77-5.14-17.77c2.39-1.43,3.55-4.95,2.19-7.61c-2.64-5.15-3.93-10.79-5.21-16.43c2.59-0.89,4.58-3.34,3.35-6.36
		c-0.57-1.4-1.08-2.79-1.55-4.2c36.31-1.49,68.78-10.27,97.45-34.73c30.63-26.14,60.75-68.59,60.67-110.4
		C701.88,115.28,696.05,93.7,673.74,92.03z"/>
	<path fill="#9E005D" d="M609.45,173.59c-2.5,2.27-5.13,4.47-7.96,6.59c3.7,7.39,8.01,14.48,12.12,21.77
		c9.66,17.13,11.52,34.62,8.83,53.17c3.67-2.39,7.28-5,10.84-7.85c0.8-11.45-0.15-22.72-3.76-34.35
		C625.11,198.74,615.93,186.81,609.45,173.59z"/>
	<path fill="#9E005D" d="M687.11,135.89c-14.34-11.08-32.25-14.38-47.87-22.57c-1.49,2.99-2.71,6.08-3.75,9.25
		c11.14,5.55,23.3,8.78,34.6,14.23c9.84,4.73,17.97,11.69,24.67,19.9c0.97-4.06,1.66-8.15,2.13-12.24
		C693.88,141.48,690.64,138.62,687.11,135.89z"/>
	<path fill="#9E005D" d="M629.84,142.98c-0.35,1.21-0.7,2.42-1.09,3.61c-0.23,0.69-0.29,1.34-0.25,1.92
		c-0.75,1.55-1.57,3.06-2.41,4.55c17.78,16.36,33.84,33.98,43.52,55.81c2.27-3.13,4.41-6.37,6.49-9.65
		C665.13,177.52,648.27,159.65,629.84,142.98z"/>
	<path fill="#9E005D" d="M584.17,191.58c-2.87,1.71-5.83,3.38-8.86,4.97c1.88,7.82,4.47,15.45,6.31,23.38
		c4.03,17.47,4.94,35.37,1.12,52.85c3.66-0.99,7.28-2.12,10.85-3.39c1.92-11.37,2.12-22.76,0.54-34.4
		C592.13,220.34,586.63,206.09,584.17,191.58z"/>
	<path fill="#9E005D" d="M89.43,174.49c2.5,2.27,5.12,4.47,7.96,6.59c-3.7,7.38-8.01,14.47-12.12,21.76
		c-9.66,17.13-11.52,34.62-8.83,53.17c-3.67-2.39-7.28-5-10.84-7.85c-0.8-11.45,0.15-22.72,3.76-34.35
		C73.77,199.64,82.94,187.71,89.43,174.49z"/>
	<path fill="#9E005D" d="M11.77,136.79c14.34-11.08,32.25-14.38,47.87-22.57c1.49,2.99,2.71,6.08,3.75,9.25
		c-11.13,5.55-23.3,8.78-34.6,14.23c-9.84,4.73-17.97,11.69-24.67,19.9c-0.97-4.06-1.66-8.15-2.13-12.24
		C5,142.38,8.23,139.52,11.77,136.79z"/>
	<path fill="#9E005D" d="M69.04,143.88c0.35,1.21,0.7,2.42,1.09,3.61c0.23,0.69,0.29,1.34,0.25,1.92c0.75,1.55,1.57,3.06,2.41,4.55
		c-17.78,16.36-33.84,33.98-43.52,55.81c-2.27-3.13-4.41-6.37-6.49-9.65C33.74,178.42,50.6,160.55,69.04,143.88z"/>
	<path fill="#9E005D" d="M153.54,208.33c-0.82,11.1-3.19,22.18-3.65,33.29c-0.52,12.61-0.09,25.25,1.01,37.82
		c-3.34-0.25-6.64-0.57-9.91-0.97c-0.83-10.24-1.27-20.51-1.22-30.85c0.07-13.88,3.39-27.81,3.99-41.66
		C147.01,206.96,150.27,207.77,153.54,208.33z"/>
	<path fill="#9E005D" d="M114.7,192.48c2.87,1.71,5.83,3.38,8.86,4.97c-1.88,7.82-4.47,15.45-6.31,23.38
		c-4.03,17.47-4.94,35.38-1.12,52.85c-3.66-0.99-7.28-2.12-10.85-3.39c-1.92-11.37-2.12-22.76-0.54-34.4
		C106.75,221.24,112.25,206.99,114.7,192.48z"/>
	<path fill="#9E005D" d="M543.1,207.84c0.82,11.1,3.19,22.18,3.65,33.3c0.52,12.61,0.09,25.25-1.01,37.82
		c3.34-0.25,6.64-0.58,9.91-0.97c0.83-10.24,1.27-20.5,1.22-30.85c-0.06-13.88-3.39-27.81-3.99-41.66
		C549.64,206.48,546.37,207.29,543.1,207.84z"/>
</g>
<path fill="#333333" d="M273.12,221.03c-1.66,0.09-3.04,0.61-4.23,1.34c-2.06-0.08-4.13,0.95-4.9,3.48
	c-1.77,5.88-0.65,13.85,4.29,18c2.72,2.28,6.34,3.18,9.54,1.23c3.52-2.15,4.57-6.47,5.05-10.27
	C283.65,228.67,280.52,220.59,273.12,221.03z"/>
<path fill="#333333" d="M410.1,218.95c-1.66,0.1-3.05,0.61-4.24,1.34c-2.05-0.08-4.13,0.95-4.89,3.48
	c-1.77,5.88-0.66,13.86,4.29,18.01c2.71,2.27,6.34,3.17,9.54,1.23c3.53-2.15,4.57-6.47,5.05-10.27
	C420.62,226.61,417.49,218.51,410.1,218.95z"/>
<path fill="#333333" d="M280.78,98.36c-1.4-6.28-11.01-3.62-9.63,2.65c1.48,6.67,0.57,13.58-0.18,20.29c-0.71,6.39,9.28,6.33,9.98,0
	C281.8,113.6,282.47,106,280.78,98.36z"/>
<path fill="#333333" d="M301.75,82.22c-0.35-2.7-2-4.99-4.99-4.99c-2.45,0-5.35,2.29-4.99,4.99c0.8,6.09,0.8,12.2,0,18.29
	c-0.36,2.71,2.54,4.99,4.99,4.99c2.99,0,4.64-2.29,4.99-4.99C302.55,94.43,302.55,88.31,301.75,82.22z"/>
<path fill="#333333" d="M320.04,68.92v17.46c0,6.44,9.98,6.44,9.98,0V68.92C330.02,62.48,320.04,62.48,320.04,68.92z"/>
<path fill="#333333" d="M323.37,109.66v13.31c0,6.44,9.98,6.44,9.98,0v-13.31C333.34,103.22,323.37,103.22,323.37,109.66z"/>
<path fill="#333333" d="M361.44,74.4c0.38-2.69-0.61-5.35-3.49-6.14c-2.36-0.65-5.75,0.79-6.13,3.49
	c-0.78,5.48-0.25,10.79-0.18,16.3c0.07,6.43,10.05,6.44,9.98,0C361.57,83.54,360.8,78.88,361.44,74.4z"/>
<g>
	<path fill="#333333" d="M367.59,114.63c-1.11-2.48-4.67-3.05-6.83-1.79c-2.53,1.48-2.89,4.32-1.8,6.79c0-0.01,0,0,0.01-0.01
		c0,0.01-0.01,0.01-0.01,0.02c0,0,0.01,0.02,0.01,0.02c-0.01-0.02-0.01,0-0.01-0.02c-1.09,2.48-0.73,5.31,1.8,6.8
		c2.15,1.26,5.72,0.69,6.83-1.79C369.16,121.12,369.16,118.16,367.59,114.63z"/>
	<path fill="#333333" d="M358.96,119.64C358.71,119.17,358.71,120.12,358.96,119.64L358.96,119.64z"/>
	<path fill="#333333" d="M358.97,119.63c-0.01,0.01-0.01,0.01-0.01,0.01c0,0,0,0,0.01,0.01c0,0,0,0,0,0
		C358.97,119.64,358.97,119.64,358.97,119.63z"/>
</g>
<path fill="#333333" d="M393.87,74.24c-0.41-2.69-3.75-4.14-6.14-3.49c-2.84,0.79-3.9,3.46-3.48,6.14c0.7,4.5,0.65,9.1,0.65,13.64
	c0.01,6.44,9.98,6.44,9.98,0C394.88,85.06,394.71,79.66,393.87,74.24z"/>
<path fill="#333333" d="M423.34,86.71c-1.78,8.11-1.06,16.38-1,24.61c0.04,6.44,10.02,6.44,9.98,0c-0.05-7.26-0.92-14.8,0.65-21.96
	C434.34,83.1,424.72,80.43,423.34,86.71z"/>
<path fill="#333333" d="M396.55,108.83c-0.8,7.75-0.83,15.52-0.83,23.29c0,6.43,9.98,6.43,9.98,0c0-7.78,0.03-15.55,0.84-23.29
	C407.19,102.43,397.21,102.5,396.55,108.83z"/>
<path fill="#333333" d="M200.29,243.55c0,2.92-0.04,5.21-0.65,7.82c-0.63,2.64,0.8,5.4,3.49,6.13c2.55,0.7,5.51-0.84,6.14-3.48
	c0.82-3.46,1-6.94,1.01-10.47C210.27,237.12,200.29,237.12,200.29,243.55z"/>
<path fill="#333333" d="M220.9,223.93c-1.44-6.26-11.07-3.61-9.62,2.66c0.66,2.85,0.65,5.73,0.66,8.65c0,6.44,9.98,6.44,9.98,0
	C221.91,231.43,221.76,227.66,220.9,223.93z"/>
<path fill="#333333" d="M232.54,228.92c-0.99-2.53-3.31-4.27-6.14-3.49c-2.41,0.66-4.48,3.6-3.48,6.14
	c1.32,3.38,2.27,6.67,2.31,10.32c0.09,6.43,10.07,6.43,9.99,0C235.15,237.37,234.19,233.12,232.54,228.92z"/>
<path fill="#333333" d="M443.77,225.6c-0.62-2.65-3.6-4.19-6.14-3.49c-2.7,0.74-4.1,3.49-3.49,6.14c0.56,2.38,0.62,4.46,0,6.49
	c-0.79,2.6,0.92,5.43,3.49,6.14c2.67,0.74,5.35-0.89,6.14-3.48C444.95,233.55,444.67,229.46,443.77,225.6z"/>
<path fill="#333333" d="M450.6,208.63v9.15c0,6.44,9.98,6.44,9.98,0v-9.15C460.58,202.19,450.6,202.19,450.6,208.63z"/>
<path fill="#333333" d="M469.73,223.59c0,2.92,0,5.81-0.66,8.66c-1.44,6.26,8.18,8.91,9.62,2.65c0.87-3.73,1.01-7.5,1.01-11.31
	C479.71,217.16,469.73,217.16,469.73,223.59z"/>
<path fill="#333333" d="M463.73,237.23c-0.8-2.59-3.46-4.22-6.14-3.48c-2.57,0.71-4.28,3.54-3.49,6.13c0.62,2.03,0.65,3.9,0.65,6.16
	c0,6.43,9.99,6.43,9.98,0C464.74,243.08,464.6,240.09,463.73,237.23z"/>
<path fill="#333333" d="M222.74,461.44c-0.1-6.43-10.08-6.44-9.98,0c0.06,3.36,0.79,6.02,0.84,9.15c0.1,6.43,10.08,6.44,9.98,0
	C223.52,467.22,222.79,464.56,222.74,461.44z"/>
<path fill="#333333" d="M235.37,459.75c-1.1-2.49-4.68-3.05-6.83-1.78c-2.54,1.49-2.89,4.33-1.79,6.82
	c-0.21-0.46-0.21-0.39-0.02,0.18c0.04,0.14,0.07,0.22,0.09,0.3c0,0.09,0.01,0.21,0.03,0.43c0.06,0.79,0.06,1.6,0.06,2.39
	c0,6.43,9.99,6.43,9.98,0C236.88,465.15,236.56,462.45,235.37,459.75z"/>
<path fill="#333333" d="M449.6,464.27c-0.84-2.71-0.83-5.6-1.67-8.31c-0.8-2.59-3.46-4.23-6.14-3.49c-2.57,0.7-4.29,3.53-3.49,6.14
	c0.83,2.71,0.83,5.6,1.67,8.31c0.8,2.59,3.45,4.22,6.14,3.49C448.67,469.7,450.39,466.87,449.6,464.27z"/>
<path fill="#333333" d="M453.93,456.44v8.31c0,6.44,9.97,6.44,9.97,0v-8.31C463.91,450.01,453.93,450.01,453.93,456.44z"/>
<path fill="#FFFFFF" d="M445.79,293.29c-0.99-0.66-2.22-1.02-3.65-0.83c-7.63,1.04-14.84,3.89-22.46,4.99
	c-5.04-1.21-8.89,6.28-3.69,9.11c5.89,3.22,12.24,5.47,17.88,9.15c1.7,1.11,4.72,0.9,6.04-0.78c3.48-4.43,6.69-9.06,10.4-13.31
	C453.68,297.78,450.53,292.77,445.79,293.29z"/>
<path fill="#FFFFFF" d="M477.9,282.07c-5.63,1.52-10.85,4.96-16.63,5.82c-2.7,0.4-4.15,3.75-3.49,6.13
	c0.21,0.76,0.57,1.38,1.02,1.89c0.39,0.58,0.93,1.1,1.69,1.51c3.87,2.16,8.02,4.29,11.46,7.12c2.83,2.33,7.24,1.66,8.35-2.21
	c1.46-5.16,3.29-10.09,3.92-15.46C484.6,283.58,480.75,281.3,477.9,282.07z"/>
<path fill="#FFFFFF" d="M257.01,293.29c0.99-0.66,2.22-1.02,3.65-0.83c7.64,1.04,14.84,3.89,22.46,4.99
	c5.04-1.21,8.88,6.28,3.69,9.11c-5.89,3.22-12.24,5.47-17.88,9.15c-1.7,1.11-4.73,0.9-6.04-0.78c-3.48-4.43-6.69-9.06-10.4-13.31
	C249.12,297.78,252.28,292.77,257.01,293.29z"/>
<path fill="#FFFFFF" d="M224.91,282.07c5.63,1.52,10.85,4.96,16.63,5.82c2.7,0.4,4.15,3.75,3.49,6.13
	c-0.21,0.76-0.57,1.38-1.02,1.89c-0.39,0.58-0.93,1.1-1.69,1.51c-3.87,2.16-8.02,4.29-11.46,7.12c-2.83,2.33-7.24,1.66-8.34-2.21
	c-1.46-5.16-3.29-10.09-3.92-15.46C218.2,283.58,222.06,281.3,224.91,282.07z"/>
<path fill="#FFFFFF" d="M445.79,383.83c-0.99,0.66-2.22,1.02-3.65,0.82c-7.63-1.04-14.84-3.89-22.46-4.99
	c-5.04,1.21-8.89-6.28-3.69-9.12c5.89-3.22,12.24-5.47,17.88-9.15c1.7-1.11,4.72-0.9,6.04,0.78c3.48,4.44,6.69,9.06,10.4,13.31
	C453.68,379.33,450.53,384.35,445.79,383.83z"/>
<path fill="#FFFFFF" d="M477.9,395.04c-5.63-1.52-10.85-4.95-16.63-5.82c-2.7-0.4-4.15-3.75-3.49-6.13
	c0.21-0.77,0.57-1.38,1.02-1.89c0.39-0.58,0.93-1.1,1.69-1.51c3.87-2.16,8.02-4.29,11.46-7.12c2.83-2.33,7.24-1.67,8.35,2.2
	c1.46,5.17,3.29,10.1,3.92,15.46C484.6,393.53,480.75,395.82,477.9,395.04z"/>
<path fill="#FFFFFF" d="M257.01,383.83c0.99,0.66,2.22,1.02,3.65,0.82c7.64-1.04,14.84-3.89,22.46-4.99
	c5.04,1.21,8.88-6.28,3.69-9.12c-5.89-3.22-12.24-5.47-17.88-9.15c-1.7-1.11-4.73-0.9-6.04,0.78c-3.48,4.44-6.69,9.06-10.4,13.31
	C249.12,379.33,252.28,384.35,257.01,383.83z"/>
<path fill="#FFFFFF" d="M224.91,395.04c5.63-1.52,10.85-4.95,16.63-5.82c2.7-0.4,4.15-3.75,3.49-6.13
	c-0.21-0.77-0.57-1.38-1.02-1.89c-0.39-0.58-0.93-1.1-1.69-1.51c-3.87-2.16-8.02-4.29-11.46-7.12c-2.83-2.33-7.24-1.67-8.34,2.2
	c-1.46,5.17-3.29,10.1-3.92,15.46C218.2,393.53,222.06,395.82,224.91,395.04z"/>
<path fill="#333333" d="M521.18,325.85c-2.59-19.79-12.63-58.17-36.75-52.89c-0.98-0.18-2.05-0.09-3.16,0.47
	c-38.46,19.23-80.1,21.72-122.47,21.78c-2.44,0-4.94,0.02-7.41,0.03c-2.46-0.01-4.96-0.03-7.4-0.03
	c-41.3-0.06-81.89-2.47-119.53-20.39c-0.95-1.91-2.9-3.28-5.56-2.55c-17.19,4.71-25.26,8.87-30.87,26.75
	c-5.34,17.04-5.08,38.63-5.19,56.45c-0.16,26.97,8.85,65.4,42.83,46.27c37.3-17.41,77.47-19.77,118.32-19.83
	c2.44,0,4.94-0.02,7.4-0.03c2.47,0.01,4.97,0.03,7.41,0.03c40.65,0.06,80.62,2.4,117.76,19.57c0.26,0.27,0.56,0.52,0.91,0.76
	c14.2,9.47,25.1,12.87,34.01-4.64C521.58,377.79,524.02,347.57,521.18,325.85z M478.03,285.87c0.45,0.02,0.9-0.07,1.37-0.2
	c-0.42,6.27-1.59,12.86-4.5,18.1c-1.94,3.49-5.37-2.16-7.23-4.41c-1.92-2.31-4.02-5.27-6.74-6.93
	C466.67,290.54,472.38,288.35,478.03,285.87z M448.38,296.1c-3.14,7.15-7.57,17.93-13.83,18.35c-4.5,0.31-9.85-6.24-13.03-8.81
	c-1.67-1.36-3.41-2.55-5.28-3.49C427.1,300.8,437.82,298.85,448.38,296.1z M286.56,302.15c-1.87,0.94-3.61,2.12-5.28,3.49
	c-3.19,2.58-8.53,9.12-13.03,8.81c-6.26-0.42-10.69-11.19-13.83-18.35C264.99,298.85,275.71,300.8,286.56,302.15z M241.88,292.43
	c-2.72,1.66-4.83,4.62-6.74,6.93c-1.87,2.25-5.3,7.9-7.23,4.41c-2.97-5.35-4.14-12.1-4.54-18.49
	C229.48,288.03,235.66,290.38,241.88,292.43z M223.36,391.83c0.4-6.39,1.57-13.14,4.54-18.49c1.94-3.49,5.37,2.16,7.23,4.41
	c1.92,2.31,4.02,5.27,6.74,6.93C235.66,386.73,229.48,389.08,223.36,391.83z M254.42,381.02c3.13-7.16,7.57-17.93,13.83-18.35
	c4.5-0.3,9.85,6.24,13.03,8.81c1.67,1.37,3.41,2.55,5.28,3.49C275.71,376.32,264.99,378.27,254.42,381.02z M416.25,374.97
	c1.87-0.94,3.61-2.12,5.28-3.49c3.19-2.58,8.53-9.12,13.03-8.81c6.26,0.42,10.69,11.2,13.83,18.35
	C437.82,378.27,427.1,376.32,416.25,374.97z M460.92,384.69c2.72-1.67,4.83-4.62,6.74-6.93c1.87-2.25,5.3-7.9,7.23-4.41
	c2.97,5.35,4.14,12.09,4.54,18.49C473.33,389.08,467.14,386.73,460.92,384.69z"/>
</svg>
