<?xml version="1.0" encoding="utf-8"?>
<!-- Generator: Adobe Illustrator 24.0.1, SVG Export Plug-In . SVG Version: 6.00 Build 0)  -->
<svg version="1.1" id="Layer_1" xmlns="http://www.w3.org/2000/svg" xmlns:xlink="http://www.w3.org/1999/xlink" x="0px" y="0px"
	 viewBox="0 0 59.2 44.05" enable-background="new 0 0 59.2 44.05" xml:space="preserve">
<g>
	<g>
		<path fill="#FF6C2C" d="M57.07,7.8c-0.95-0.07-2.13,0.55-2.65,1.33c-0.67,0.99-0.8,2.18-1.16,3.29c-0.02,0.06-0.02,0.11-0.02,0.16
			c-0.59,1.21-1.51,2.18-2.77,3.03c-1.3,0.87-2.95,1.83-4.59,2.01c-0.51-0.68-0.98-1.35-0.3-2.24c0.13-0.17,0.05-0.41-0.07-0.56
			c-0.51-0.62-0.76-1.36-1.22-1.98c0.13-0.05,0.26-0.08,0.41-0.11c0.28-0.05,0.44-0.45,0.27-0.67c-0.47-0.67-0.81-1.13-1.43-1.42
			c0.83-1.15,0.31-2.13-1.06-2.53c0.15-0.23,0.29-0.46,0.45-0.69c0.21-0.29,0-0.57-0.27-0.65c-0.02-0.08-0.05-0.14-0.1-0.2
			c0.1-0.29-0.14-0.71-0.55-0.65C41.31,6.04,40.66,5.95,40,5.81c0.04-0.18,0.08-0.36,0.11-0.55c0.05-0.35-0.2-0.64-0.56-0.56
			c-0.28,0.06-0.59,0.04-0.89,0.01c-0.09-0.08-0.18-0.16-0.27-0.23c0.02-0.21,0.04-0.43,0.1-0.64c0.08-0.31-0.15-0.55-0.44-0.58
			c-0.59-0.05-1.16-0.23-1.74-0.33c0.01-0.27-0.01-0.52-0.05-0.84c-0.03-0.29-0.27-0.53-0.58-0.44c-0.46,0.13-0.93,0.09-1.4,0.11
			c0.03-0.33,0.05-0.66,0.13-0.97c0.11-0.4-0.32-0.7-0.67-0.52c-0.53,0.27-1.11,0.39-1.67,0.58c-0.04-0.17-0.08-0.33-0.1-0.51
			c-0.05-0.35-0.55-0.43-0.77-0.2c-0.87,0.9-1.85,1.05-2.82,0.2c-0.27-0.24-0.65-0.13-0.77,0.2c-0.5,1.38-1.48,0.52-1.98,0.13
			c-0.34-0.26-0.77,0.16-0.67,0.52c0.08,0.29,0.13,0.58,0.2,0.87c-0.28,0.09-0.57,0.19-0.84,0.29c-0.69-0.06-1.35-0.27-2.05-0.5
			c-0.36-0.12-0.6,0.22-0.56,0.52c-1.01,0.09-2.02,0.15-3.03,0.28c-0.39,0.05-0.71,0.65-0.23,0.85c0.57,0.25,1.15,0.42,1.74,0.53
			c-0.12,0.1-0.24,0.19-0.36,0.29c-0.11-0.04-0.24-0.04-0.36,0.02c-2,0.98-4.04,1.85-5.92,3.06c-0.3,0.2-0.31,0.77,0.11,0.84
			c0.75,0.13,1.48,0.09,2.21-0.03c-1.33,0.94-2.55,1.89-3.14,3.54c-0.14,0.4,0.34,0.7,0.67,0.52c0.04-0.02,0.07-0.04,0.11-0.06
			l-1.15,2.29c-0.22,0.44,0.37,0.98,0.72,0.56c0.1-0.12,0.22-0.22,0.35-0.3c-0.18,0.76-0.21,1.52-0.1,2.34
			c0.01,0.06,0.04,0.11,0.07,0.16c-0.02,0.01-0.04,0.02-0.07,0.04c0.02,0.09,0.04,0.2,0.05,0.3c-0.14,0.01-0.28,0.02-0.42,0.04
			c-1.52-0.27-3.02-1.14-4.23-1.95c-1.27-0.84-2.19-1.81-2.77-3.03c0-0.05,0-0.1-0.02-0.16c-0.36-1.11-0.49-2.31-1.16-3.29
			c-0.53-0.78-1.7-1.4-2.65-1.33c-1.89,0.14-2.38,1.97-2.02,3.55c-0.01,3.54,2.54,7.14,5.14,9.35c2.34,2,4.99,2.76,7.93,2.92
			c0,0,0-0.01,0-0.01c0.22,0.04,0.43,0.06,0.64,0.06c0.03,0.3,0.06,0.6,0.07,0.91c0.02,0.51,0.03,1.05-0.11,1.54
			c0.07-0.05,0.14-0.1,0.21-0.15c-0.14,0.74-0.17,1.48-0.06,2.27c0.04,0.3,0.44,0.4,0.67,0.27c0,0,0.01,0,0.01,0
			c-0.16,0.4-0.33,0.79-0.5,1.18c0.31,1.76-0.29,3.41-0.69,5.1c0.04,0.02,0.09,0.05,0.13,0.07c-0.01,0.03-0.02,0.05-0.03,0.08
			c-0.14,0.46,0.44,0.75,0.77,0.45c0.06-0.06,0.12-0.11,0.19-0.17c0.03,0.01,0.05,0.02,0.08,0.02c-0.07,0.44-0.13,0.88-0.21,1.33
			c-0.08,0.45,0.41,0.77,0.77,0.45c0.15-0.14,0.31-0.26,0.47-0.39c-0.2,0.78-0.23,1.58-0.02,2.43c0.06,0.23,0.26,0.34,0.46,0.32
			c0.03,0.04,0.06,0.09,0.1,0.12c-1.15,0.96-1.92,2.22-1.22,3.41c0.88,1.48,3.25,1.15,4.54,0.63c1.67-0.67,3.08-2.01,4.25-3.38
			c1.18-0.15,2.35-0.33,3.53-0.39c0.06,0.02,0.12,0.04,0.2,0.04h1.63c0.14,0,0.25-0.05,0.33-0.13c0.52-0.04,1.05-0.06,1.57-0.04
			c0.07,0.1,0.19,0.17,0.35,0.17c1.09,0.01,2.17,0.05,3.25,0.03c1.04,1.64,2.58,2.86,4.5,3.33c1.47,0.36,3.6,0.05,4.55-1.23
			c0.71-0.95-0.47-2.02-1.14-2.52c-0.01-0.01-0.02-0.02-0.04-0.03c0.08-0.02,0.15-0.06,0.2-0.12c0.24-0.03,0.47-0.05,0.71-0.07
			c0.52-0.03,0.62-0.74,0.12-0.9c-0.07-0.02-0.14-0.05-0.2-0.07c0.09-0.09,0.14-0.22,0.13-0.35c0.14-0.09,0.23-0.26,0.19-0.49
			c-0.02-0.08-0.04-0.16-0.06-0.24c0.29,0.01,0.57-0.28,0.46-0.58c-0.03-0.08-0.06-0.16-0.08-0.24c0.29,0.02,0.62-0.26,0.49-0.57
			c-0.22-0.53-0.36-1.07-0.54-1.6c0.13,0.03,0.26,0.07,0.39,0.12c0.34,0.12,0.65-0.25,0.56-0.56c-0.05-0.18-0.08-0.36-0.11-0.54
			c0.32,0.28,0.82-0.08,0.72-0.48L45,31.1c0.22,0.06,0.45,0.11,0.67,0.19c0.4,0.14,0.7-0.34,0.52-0.67
			c-0.37-0.68-0.59-1.37-0.76-2.09c0.04,0.02,0.09,0.05,0.13,0.07c0.32,0.16,0.84-0.11,0.67-0.52c-0.2-0.49-0.32-1-0.44-1.51
			c0.2-0.12,0.3-0.42,0.19-0.64c-0.22-0.44-0.33-0.91-0.44-1.39c0.22-0.08,0.39-0.28,0.28-0.54c-0.05-0.12-0.09-0.24-0.13-0.36
			c3.08-0.13,5.83-0.87,8.25-2.94c2.59-2.21,5.15-5.81,5.14-9.35C59.45,9.76,58.96,7.94,57.07,7.8z"/>
		<path fill="#FFFFFF" d="M51.62,14.7c-0.21,0.19-0.43,0.38-0.67,0.56c0.31,0.63,0.68,1.23,1.03,1.84c0.82,1.45,0.98,2.93,0.75,4.5
			c0.31-0.2,0.62-0.42,0.92-0.66c0.07-0.97-0.01-1.92-0.32-2.91C52.95,16.83,52.17,15.82,51.62,14.7z"/>
		<path fill="#FFFFFF" d="M58.2,11.51c-1.21-0.94-2.73-1.22-4.06-1.91c-0.13,0.25-0.23,0.52-0.32,0.78
			c0.94,0.47,1.97,0.74,2.93,1.21c0.83,0.4,1.52,0.99,2.09,1.69c0.08-0.34,0.14-0.69,0.18-1.04C58.77,11.98,58.5,11.74,58.2,11.51z"
			/>
		<path fill="#FFFFFF" d="M53.35,12.11c-0.03,0.1-0.06,0.2-0.09,0.31c-0.02,0.06-0.02,0.11-0.02,0.16c-0.06,0.13-0.13,0.26-0.2,0.39
			c1.51,1.39,2.87,2.88,3.69,4.73c0.19-0.27,0.37-0.54,0.55-0.82C56.34,15.04,54.91,13.52,53.35,12.11z"/>
		<path fill="#FFFFFF" d="M49.48,16.23c-0.24,0.14-0.49,0.29-0.75,0.42c0.16,0.66,0.38,1.31,0.53,1.98c0.34,1.48,0.42,3,0.09,4.48
			c0.31-0.08,0.62-0.18,0.92-0.29c0.16-0.96,0.18-1.93,0.05-2.91C50.15,18.66,49.69,17.46,49.48,16.23z"/>
		<path fill="#FFFFFF" d="M7.57,14.78c0.21,0.19,0.43,0.38,0.67,0.56c-0.31,0.63-0.68,1.23-1.03,1.84c-0.82,1.45-0.98,2.93-0.75,4.5
			c-0.31-0.2-0.62-0.42-0.92-0.66c-0.07-0.97,0.01-1.92,0.32-2.91C6.25,16.91,7.03,15.9,7.57,14.78z"/>
		<path fill="#FFFFFF" d="M1,11.59c1.21-0.94,2.73-1.22,4.06-1.91c0.13,0.25,0.23,0.52,0.32,0.78c-0.94,0.47-1.97,0.74-2.93,1.21
			c-0.83,0.4-1.52,0.99-2.09,1.69c-0.08-0.34-0.14-0.69-0.18-1.04C0.42,12.06,0.7,11.82,1,11.59z"/>
		<path fill="#FFFFFF" d="M5.85,12.19c0.03,0.1,0.06,0.2,0.09,0.31c0.02,0.06,0.02,0.11,0.02,0.16c0.06,0.13,0.13,0.26,0.2,0.39
			c-1.51,1.39-2.87,2.88-3.69,4.73c-0.19-0.27-0.37-0.54-0.55-0.82C2.86,15.11,4.29,13.6,5.85,12.19z"/>
		<path fill="#FFFFFF" d="M13.01,17.65c-0.07,0.94-0.27,1.88-0.31,2.82c-0.04,1.07-0.01,2.14,0.09,3.2
			c-0.28-0.02-0.56-0.05-0.84-0.08c-0.07-0.87-0.11-1.74-0.1-2.61c0.01-1.18,0.29-2.36,0.34-3.53
			C12.45,17.53,12.73,17.6,13.01,17.65z"/>
		<path fill="#FFFFFF" d="M9.72,16.3c0.24,0.14,0.49,0.29,0.75,0.42c-0.16,0.66-0.38,1.31-0.53,1.98c-0.34,1.48-0.42,3-0.09,4.48
			C9.53,23.1,9.22,23,8.92,22.89c-0.16-0.96-0.18-1.93-0.05-2.91C9.04,18.74,9.51,17.53,9.72,16.3z"/>
		<path fill="#FFFFFF" d="M46,17.6c0.07,0.94,0.27,1.88,0.31,2.82c0.04,1.07,0.01,2.14-0.09,3.2c0.28-0.02,0.56-0.05,0.84-0.08
			c0.07-0.87,0.11-1.74,0.1-2.61c-0.01-1.18-0.29-2.36-0.34-3.53C46.56,17.49,46.28,17.56,46,17.6z"/>
	</g>
	<path fill="#333333" d="M23.13,18.72c-0.14,0.01-0.26,0.05-0.36,0.11c-0.17-0.01-0.35,0.08-0.42,0.29
		c-0.15,0.5-0.06,1.17,0.36,1.52c0.23,0.19,0.54,0.27,0.81,0.1c0.3-0.18,0.39-0.55,0.43-0.87C24.03,19.37,23.76,18.68,23.13,18.72z"
		/>
	<path fill="#333333" d="M34.74,18.55c-0.14,0.01-0.26,0.05-0.36,0.11c-0.17-0.01-0.35,0.08-0.41,0.29
		c-0.15,0.5-0.06,1.17,0.36,1.53c0.23,0.19,0.54,0.27,0.81,0.1c0.3-0.18,0.39-0.55,0.43-0.87C35.63,19.19,35.36,18.51,34.74,18.55z"
		/>
	<path fill="#333333" d="M23.78,8.33c-0.12-0.53-0.93-0.31-0.82,0.22c0.13,0.56,0.05,1.15-0.01,1.72c-0.06,0.54,0.79,0.54,0.85,0
		C23.87,9.62,23.93,8.98,23.78,8.33z"/>
	<path fill="#333333" d="M25.56,6.96c-0.03-0.23-0.17-0.42-0.42-0.42c-0.21,0-0.45,0.19-0.42,0.42c0.07,0.52,0.07,1.03,0,1.55
		c-0.03,0.23,0.22,0.42,0.42,0.42c0.25,0,0.39-0.19,0.42-0.42C25.63,8,25.63,7.48,25.56,6.96z"/>
	<path fill="#333333" d="M27.11,5.84v1.48c0,0.55,0.85,0.55,0.85,0V5.84C27.95,5.29,27.11,5.29,27.11,5.84z"/>
	<path fill="#333333" d="M27.39,9.29v1.13c0,0.55,0.84,0.55,0.84,0V9.29C28.24,8.74,27.39,8.74,27.39,9.29z"/>
	<path fill="#333333" d="M30.62,6.3c0.03-0.23-0.05-0.45-0.3-0.52c-0.2-0.06-0.49,0.07-0.52,0.3c-0.07,0.46-0.02,0.91-0.02,1.38
		c0.01,0.54,0.85,0.55,0.84,0C30.63,7.08,30.56,6.68,30.62,6.3z"/>
	<g>
		<path fill="#333333" d="M31.14,9.71c-0.09-0.21-0.4-0.26-0.58-0.15c-0.21,0.13-0.24,0.37-0.15,0.58c0,0,0,0,0,0c0,0,0,0,0,0
			c0,0,0,0,0,0c0,0,0,0,0,0c-0.09,0.21-0.06,0.45,0.15,0.58c0.18,0.11,0.48,0.06,0.58-0.15C31.27,10.26,31.27,10.01,31.14,9.71z"/>
		<path fill="#333333" d="M30.4,10.13C30.38,10.09,30.38,10.17,30.4,10.13L30.4,10.13z"/>
		<polygon fill="#333333" points="30.41,10.13 30.4,10.13 30.41,10.13 30.41,10.13 		"/>
	</g>
	<path fill="#333333" d="M33.36,6.29c-0.03-0.23-0.32-0.35-0.52-0.3c-0.24,0.07-0.33,0.29-0.3,0.52c0.06,0.38,0.06,0.77,0.06,1.16
		c0,0.55,0.85,0.55,0.85,0C33.45,7.2,33.43,6.75,33.36,6.29z"/>
	<path fill="#333333" d="M35.86,7.34c-0.15,0.69-0.09,1.39-0.09,2.08c0,0.55,0.85,0.55,0.84,0c0-0.62-0.08-1.25,0.05-1.86
		C36.79,7.04,35.98,6.81,35.86,7.34z"/>
	<path fill="#333333" d="M33.59,9.22c-0.07,0.66-0.07,1.31-0.07,1.97c0,0.54,0.85,0.54,0.85,0c0-0.66,0-1.32,0.07-1.97
		C34.49,8.68,33.64,8.68,33.59,9.22z"/>
	<path fill="#333333" d="M16.97,20.63c0,0.25,0,0.44-0.06,0.66c-0.05,0.22,0.07,0.46,0.3,0.52c0.22,0.06,0.47-0.07,0.52-0.29
		c0.07-0.29,0.08-0.59,0.09-0.89C17.81,20.08,16.97,20.08,16.97,20.63z"/>
	<path fill="#333333" d="M18.71,18.97c-0.12-0.53-0.94-0.31-0.82,0.23c0.06,0.24,0.06,0.49,0.06,0.73c0,0.55,0.84,0.55,0.84,0
		C18.8,19.6,18.78,19.28,18.71,18.97z"/>
	<path fill="#333333" d="M19.7,19.39c-0.08-0.21-0.28-0.36-0.52-0.3c-0.2,0.06-0.38,0.31-0.29,0.52c0.11,0.29,0.19,0.57,0.2,0.87
		c0.01,0.54,0.85,0.54,0.85,0C19.92,20.11,19.84,19.75,19.7,19.39z"/>
	<path fill="#333333" d="M37.59,19.11c-0.05-0.22-0.3-0.35-0.52-0.3c-0.23,0.06-0.35,0.3-0.3,0.52c0.05,0.2,0.05,0.38,0,0.55
		c-0.07,0.22,0.08,0.46,0.3,0.52c0.23,0.06,0.45-0.08,0.52-0.3C37.69,19.78,37.67,19.44,37.59,19.11z"/>
	<path fill="#333333" d="M38.17,17.67v0.78c0,0.55,0.85,0.55,0.85,0v-0.78C39.01,17.13,38.17,17.13,38.17,17.67z"/>
	<path fill="#333333" d="M39.79,18.94c0,0.25,0,0.49-0.06,0.73c-0.12,0.53,0.69,0.76,0.81,0.22c0.07-0.32,0.09-0.64,0.09-0.96
		C40.63,18.39,39.79,18.39,39.79,18.94z"/>
	<path fill="#333333" d="M39.28,20.09c-0.07-0.22-0.29-0.36-0.52-0.29c-0.22,0.06-0.36,0.3-0.3,0.52c0.05,0.17,0.05,0.33,0.06,0.52
		c0,0.54,0.85,0.54,0.85,0C39.36,20.59,39.35,20.34,39.28,20.09z"/>
	<path fill="#333333" d="M18.87,39.09c-0.01-0.54-0.85-0.55-0.85,0c0,0.28,0.07,0.51,0.07,0.78c0.01,0.54,0.85,0.55,0.84,0
		C18.93,39.58,18.87,39.35,18.87,39.09z"/>
	<path fill="#333333" d="M19.94,38.94c-0.09-0.21-0.4-0.26-0.58-0.15c-0.22,0.13-0.25,0.37-0.15,0.58c-0.02-0.04-0.02-0.03,0,0.02
		c0,0.01,0.01,0.02,0.01,0.03c0,0.01,0,0.02,0,0.04c0.01,0.07,0,0.14,0,0.2c0,0.54,0.85,0.54,0.85,0
		C20.06,39.4,20.04,39.17,19.94,38.94z"/>
	<path fill="#333333" d="M38.08,39.32c-0.07-0.23-0.07-0.47-0.14-0.7c-0.07-0.22-0.29-0.36-0.52-0.3c-0.22,0.06-0.36,0.3-0.3,0.52
		c0.07,0.23,0.07,0.47,0.14,0.7c0.07,0.22,0.29,0.36,0.52,0.3C38,39.78,38.15,39.55,38.08,39.32z"/>
	<path fill="#333333" d="M38.45,38.66v0.7c0,0.55,0.84,0.55,0.84,0v-0.7C39.29,38.12,38.45,38.12,38.45,38.66z"/>
	<path fill="#FFFFFF" d="M37.76,24.84c-0.08-0.06-0.19-0.09-0.31-0.07c-0.65,0.09-1.26,0.33-1.9,0.42c-0.43-0.1-0.75,0.53-0.31,0.77
		c0.5,0.27,1.04,0.46,1.51,0.78c0.14,0.09,0.4,0.08,0.51-0.07c0.29-0.38,0.57-0.77,0.88-1.13C38.43,25.22,38.16,24.8,37.76,24.84z"
		/>
	<path fill="#FFFFFF" d="M40.48,23.89c-0.48,0.13-0.92,0.42-1.41,0.49c-0.23,0.03-0.35,0.32-0.3,0.52c0.02,0.06,0.05,0.12,0.09,0.16
		c0.03,0.05,0.08,0.09,0.14,0.13c0.33,0.18,0.68,0.36,0.97,0.6c0.24,0.2,0.61,0.14,0.71-0.19c0.12-0.44,0.28-0.85,0.33-1.31
		C41.05,24.02,40.72,23.83,40.48,23.89z"/>
	<path fill="#FFFFFF" d="M21.77,24.84c0.08-0.06,0.19-0.09,0.31-0.07c0.65,0.09,1.26,0.33,1.9,0.42c0.43-0.1,0.75,0.53,0.31,0.77
		c-0.5,0.27-1.04,0.46-1.51,0.78c-0.14,0.09-0.4,0.08-0.51-0.07c-0.29-0.38-0.57-0.77-0.88-1.13C21.1,25.22,21.37,24.8,21.77,24.84z
		"/>
	<path fill="#FFFFFF" d="M19.05,23.89c0.48,0.13,0.92,0.42,1.41,0.49c0.23,0.03,0.35,0.32,0.3,0.52c-0.02,0.06-0.05,0.12-0.09,0.16
		c-0.03,0.05-0.08,0.09-0.14,0.13c-0.33,0.18-0.68,0.36-0.97,0.6c-0.24,0.2-0.61,0.14-0.71-0.19c-0.12-0.44-0.28-0.85-0.33-1.31
		C18.48,24.02,18.81,23.83,19.05,23.89z"/>
	<path fill="#FFFFFF" d="M37.76,32.51c-0.08,0.06-0.19,0.09-0.31,0.07c-0.65-0.09-1.26-0.33-1.9-0.42c-0.43,0.1-0.75-0.53-0.31-0.77
		c0.5-0.27,1.04-0.46,1.51-0.78c0.14-0.09,0.4-0.08,0.51,0.07c0.29,0.38,0.57,0.77,0.88,1.13C38.43,32.13,38.16,32.56,37.76,32.51z"
		/>
	<path fill="#FFFFFF" d="M40.48,33.46c-0.48-0.13-0.92-0.42-1.41-0.49c-0.23-0.03-0.35-0.32-0.3-0.52c0.02-0.07,0.05-0.12,0.09-0.16
		c0.03-0.05,0.08-0.09,0.14-0.13c0.33-0.18,0.68-0.36,0.97-0.6c0.24-0.2,0.61-0.14,0.71,0.19c0.12,0.44,0.28,0.86,0.33,1.31
		C41.05,33.33,40.72,33.53,40.48,33.46z"/>
	<path fill="#FFFFFF" d="M21.77,32.51c0.08,0.06,0.19,0.09,0.31,0.07c0.65-0.09,1.26-0.33,1.9-0.42c0.43,0.1,0.75-0.53,0.31-0.77
		c-0.5-0.27-1.04-0.46-1.51-0.78c-0.14-0.09-0.4-0.08-0.51,0.07c-0.29,0.38-0.57,0.77-0.88,1.13C21.1,32.13,21.37,32.56,21.77,32.51
		z"/>
	<path fill="#FFFFFF" d="M19.05,33.46c0.48-0.13,0.92-0.42,1.41-0.49c0.23-0.03,0.35-0.32,0.3-0.52c-0.02-0.07-0.05-0.12-0.09-0.16
		c-0.03-0.05-0.08-0.09-0.14-0.13c-0.33-0.18-0.68-0.36-0.97-0.6c-0.24-0.2-0.61-0.14-0.71,0.19c-0.12,0.44-0.28,0.86-0.33,1.31
		C18.48,33.33,18.81,33.53,19.05,33.46z"/>
	<path fill="#333333" d="M44.15,27.6c-0.22-1.68-1.07-4.93-3.11-4.48c-0.08-0.02-0.17-0.01-0.27,0.04C37.51,24.79,33.98,25,30.39,25
		c-0.21,0-0.42,0-0.63,0c-0.21,0-0.42,0-0.63,0c-3.5-0.01-6.94-0.21-10.12-1.73c-0.08-0.16-0.25-0.28-0.47-0.22
		c-1.46,0.4-2.14,0.75-2.61,2.27c-0.45,1.44-0.43,3.27-0.44,4.78c-0.01,2.28,0.75,5.54,3.63,3.92c3.16-1.47,6.56-1.67,10.02-1.68
		c0.21,0,0.42,0,0.63,0c0.21,0,0.42,0,0.63,0c3.44,0,6.83,0.2,9.97,1.66c0.02,0.02,0.05,0.04,0.08,0.06c1.2,0.8,2.13,1.09,2.88-0.39
		C44.18,32,44.39,29.44,44.15,27.6z M40.49,24.21c0.04,0,0.08-0.01,0.12-0.02c-0.04,0.53-0.14,1.09-0.38,1.53
		c-0.16,0.3-0.45-0.18-0.61-0.37c-0.16-0.2-0.34-0.45-0.57-0.59C39.53,24.61,40.01,24.42,40.49,24.21z M37.98,25.08
		c-0.27,0.61-0.64,1.52-1.17,1.55c-0.38,0.03-0.83-0.53-1.1-0.75c-0.14-0.12-0.29-0.22-0.45-0.3
		C36.18,25.48,37.08,25.31,37.98,25.08z M24.27,25.59c-0.16,0.08-0.31,0.18-0.45,0.3c-0.27,0.22-0.72,0.77-1.1,0.75
		c-0.53-0.04-0.91-0.95-1.17-1.55C22.45,25.31,23.35,25.48,24.27,25.59z M20.49,24.77c-0.23,0.14-0.41,0.39-0.57,0.59
		c-0.16,0.19-0.45,0.67-0.61,0.37c-0.25-0.45-0.35-1.02-0.38-1.57C19.44,24.4,19.96,24.6,20.49,24.77z M18.92,33.19
		c0.03-0.54,0.13-1.11,0.38-1.57c0.16-0.3,0.45,0.18,0.61,0.37c0.16,0.2,0.34,0.45,0.57,0.59C19.96,32.76,19.44,32.96,18.92,33.19z
		 M21.55,32.27c0.27-0.61,0.64-1.52,1.17-1.55c0.38-0.03,0.83,0.53,1.1,0.75c0.14,0.12,0.29,0.22,0.45,0.3
		C23.35,31.88,22.45,32.04,21.55,32.27z M35.26,31.76c0.16-0.08,0.31-0.18,0.45-0.3c0.27-0.22,0.72-0.77,1.1-0.75
		c0.53,0.04,0.91,0.95,1.17,1.55C37.08,32.04,36.18,31.88,35.26,31.76z M39.04,32.58c0.23-0.14,0.41-0.39,0.57-0.59
		c0.16-0.19,0.45-0.67,0.61-0.37c0.25,0.45,0.35,1.02,0.38,1.57C40.09,32.96,39.57,32.76,39.04,32.58z"/>
</g>
</svg>
