<?xml version="1.0" encoding="utf-8"?>
<!-- Generator: Adobe Illustrator 24.0.1, SVG Export Plug-In . SVG Version: 6.00 Build 0)  -->
<svg version="1.1" id="Layer_1" xmlns="http://www.w3.org/2000/svg" xmlns:xlink="http://www.w3.org/1999/xlink" x="0px" y="0px"
	 viewBox="0 0 494 239.3" style="enable-background:new 0 0 494 239.3;" xml:space="preserve">
<style type="text/css">
	.st0{fill:#50718C;}
	.st1{fill:#D5DFEF;}
	.st2{fill:#E8EEF7;}
	.st3{fill:#A4E7FF;}
	.st4{fill:#F47B5B;}
</style>
<path class="st0" d="M489.41,239.3H4.59c-2.53,0-4.59-3.84-4.59-8.57l0,0c0-4.73,2.05-8.57,4.59-8.57h484.83
	c2.53,0,4.59,3.84,4.59,8.57l0,0C494,235.47,491.95,239.3,489.41,239.3z"/>
<g>
	<path class="st1" d="M471.62,215.02H173.99c-3.82,0-6.96-3-7.15-6.81l-9.8-200.7c-0.2-4.08,3.06-7.51,7.15-7.51h317.24
		c4.09,0,7.35,3.42,7.15,7.51l-9.8,200.7C478.59,212.02,475.44,215.02,471.62,215.02z"/>
	<path class="st2" d="M481.78,222.17H163.83c-3.95,0-7.16-3.2-7.16-7.16l0,0c0-3.95,3.2-7.16,7.16-7.16h317.96
		c3.95,0,7.16,3.2,7.16,7.16l0,0C488.94,218.97,485.74,222.17,481.78,222.17z"/>
	<circle class="st2" cx="322.81" cy="107.51" r="27.79"/>
</g>
<g>
	<g>
		<path class="st3" d="M35.62,42.04c-16.67,53.33,8.67,62.89-6.67,103.45C48.95,104.04,30.29,82.37,35.62,42.04z"/>
		<path class="st3" d="M69.35,52.36c-11.54,36.94,6,43.56-4.62,71.65C78.58,95.3,65.65,80.3,69.35,52.36z"/>
		<path class="st3" d="M51.62,70.63c11.54,36.94-6,43.56,4.62,71.65C42.38,113.57,55.31,98.57,51.62,70.63z"/>
	</g>
	<g>
		<path class="st4" d="M74.93,222.17H25.33c-6.26,0-11.33-5.07-11.33-11.33v-59.08c0-6.26,5.07-11.33,11.33-11.33h49.59
			c6.26,0,11.33,5.07,11.33,11.33v59.08C86.26,217.1,81.18,222.17,74.93,222.17z"/>
		<g>
			<path class="st4" d="M93.76,151.3H61.09v8h32.67c4.98,0,9.03,4.05,9.03,9.03v25.94c0,4.98-4.05,9.03-9.03,9.03H61.09v8h32.67
				c9.39,0,17.03-7.64,17.03-17.03v-25.94C110.79,158.94,103.15,151.3,93.76,151.3z"/>
		</g>
	</g>
</g>
</svg>
