<?xml version="1.0" encoding="utf-8"?>
<!-- Generator: Adobe Illustrator 24.0.1, SVG Export Plug-In . SVG Version: 6.00 Build 0)  -->
<svg version="1.1" id="Layer_1" xmlns="http://www.w3.org/2000/svg" xmlns:xlink="http://www.w3.org/1999/xlink" x="0px" y="0px"
	 viewBox="0 0 217.5 287.15" style="enable-background:new 0 0 217.5 287.15;" xml:space="preserve">
<style type="text/css">
	.st0{fill:#231F20;}
</style>
<g>
	<path class="st0" d="M205.53,123.89l-0.19-1.84l-0.4-3.68l-0.59-3.65l-0.3-1.82l-0.31-1.61l-1.26-6.42
		c-2.51-12.43-5.01-24.86-7.64-37.28l22.67,8.23l-41.88-45.91L156.8,89.14l18.7-18.51c1.68,12.67,3.49,25.31,5.29,37.96l0.95,6.47
		l0.24,1.61l0.16,1.42l0.33,2.83l0.17,2.84l0.08,1.42l0,1.42l0,2.83l-0.15,2.82c-0.02,0.94-0.14,1.88-0.24,2.81
		c-0.12,0.93-0.17,1.87-0.32,2.8c-0.3,1.85-0.55,3.71-0.99,5.54c-0.34,1.84-0.9,3.64-1.38,5.45c-0.26,0.9-0.59,1.78-0.87,2.67
		l-0.44,1.33l-0.52,1.31c-2.67,6.99-6.47,13.53-11.02,19.43c-2.31,2.94-4.86,5.67-7.54,8.26c-2.75,2.51-5.63,4.89-8.69,6.99
		c-6.14,4.17-12.81,7.56-19.9,9.71c-1.75,0.61-3.57,0.98-5.35,1.46c-0.9,0.2-1.82,0.36-2.72,0.54l-1.36,0.27l-1.38,0.19l-0.08,0.01
		l-2.71-161.62l22.76,14.41L108.75,0L77.68,53.82l22.76-14.41l-2.71,161.62l-0.08-0.01l-1.38-0.19l-1.36-0.27
		c-0.91-0.18-1.82-0.34-2.72-0.54c-1.79-0.48-3.6-0.86-5.35-1.46c-7.09-2.15-13.77-5.54-19.9-9.71c-3.07-2.1-5.94-4.48-8.69-6.99
		c-2.68-2.59-5.23-5.32-7.54-8.26c-4.56-5.91-8.35-12.44-11.02-19.43l-0.52-1.31l-0.44-1.33c-0.29-0.89-0.61-1.77-0.87-2.67
		c-0.48-1.81-1.03-3.6-1.38-5.45c-0.45-1.82-0.69-3.69-0.99-5.54c-0.14-0.93-0.2-1.87-0.32-2.8c-0.11-0.93-0.22-1.87-0.24-2.81
		l-0.15-2.82l0-2.83l0-1.42l0.08-1.42l0.17-2.84l0.33-2.83l0.16-1.42l0.24-1.61l0.95-6.47c1.8-12.65,3.61-25.29,5.29-37.96
		l18.7,18.51L41.88,29.92L0,75.83l22.67-8.23c-2.62,12.41-5.13,24.84-7.64,37.28l-1.26,6.42l-0.31,1.61l-0.3,1.82l-0.59,3.65
		l-0.4,3.68l-0.19,1.84l-0.1,1.85c-0.06,1.23-0.13,2.47-0.17,3.71l0.02,3.72c-0.01,1.24,0.07,2.48,0.15,3.72
		c0.09,1.24,0.13,2.48,0.28,3.71c0.3,2.46,0.57,4.94,1.06,7.38c0.39,2.46,1.02,4.87,1.59,7.29c0.31,1.2,0.69,2.39,1.04,3.59
		l0.53,1.79L17,162.4c6.45,18.87,19.04,35.54,35.33,47.19c8.16,5.81,17.24,10.37,26.82,13.38c5.9,1.93,12,3.2,18.15,3.92
		l-1.01,60.26h24.93l-1.01-60.26c6.15-0.72,12.25-1.99,18.15-3.92c9.58-3.01,18.66-7.58,26.82-13.38
		c16.29-11.65,28.88-28.32,35.33-47.19l0.62-1.76l0.53-1.79c0.35-1.2,0.72-2.38,1.04-3.59c0.57-2.42,1.2-4.83,1.59-7.29
		c0.49-2.44,0.76-4.91,1.06-7.38c0.15-1.23,0.19-2.48,0.28-3.71c0.08-1.24,0.16-2.48,0.15-3.72l0.02-3.72
		c-0.04-1.24-0.11-2.47-0.17-3.71L205.53,123.89z"/>
</g>
</svg>
