<?xml version="1.0" encoding="utf-8"?>
<!-- Generator: Adobe Illustrator 24.0.1, SVG Export Plug-In . SVG Version: 6.00 Build 0)  -->
<svg version="1.1" id="Layer_1" xmlns="http://www.w3.org/2000/svg" xmlns:xlink="http://www.w3.org/1999/xlink" x="0px" y="0px"
	 viewBox="0 0 811.92 1048.42" style="enable-background:new 0 0 811.92 1048.42;" xml:space="preserve">
<style type="text/css">
	.st0{fill:#A81916;}
	.st1{fill:#E5332A;}
	.st2{fill:#EB6366;}
	.st3{fill:#DEC4A3;}
	.st4{fill:#FFF0DB;}
	.st5{fill:#FDE0B4;}
	.st6{fill:#3A1414;}
	.st7{fill:#FFFFFF;}
	.st8{fill:#D1CCE7;}
	.st9{fill:#422918;}
	.st10{fill:#BD9011;}
	.st11{fill:#E5A800;}
	.st12{fill:#DDDB00;}
	.st13{fill:#811715;}
</style>
<g>
	<g>
		<path class="st0" d="M161.58,831.88c0,0,17.36-8.57,15.89-23.21c-1.46-14.63-15.26-11.28-21.53-1.67
			c-6.27,9.62-4.45,11.81-17.9,14.26C124.59,823.73,161.58,831.88,161.58,831.88z"/>
		<path class="st0" d="M144.25,823.73c0,0,12.11-14,0-22.78c-12.13-8.77-26.14,10.88-20.28,18.81
			C129.82,827.69,144.25,823.73,144.25,823.73z"/>
		<g>
			<path class="st0" d="M91.88,793.77c0,0,33.12,70.62,91.37,17.95c4.99-4.52,27.14-9.66,24.7,11.45
				c-1.6,13.8-73.54,73.12-137.29-6.81L91.88,793.77z"/>
		</g>
	</g>
	<g>
		<path class="st1" d="M87.38,471.83c0,0-73.19,86.36-7.98,277.78c0,0,81.57,0.72,74.46,31.27c-2.98,12.77-42.76-6.98-56.17,2.26
			c0,0,37.96,62.33,85.78,36.97c28.78-15.26,31.85,19.31,21.53,28.5c-21.25,18.95-81.25,27.31-132.25-23.88
			C16.91,768.66-49.8,586.54,55.81,406.41L87.38,471.83z"/>
	</g>
	<path class="st1" d="M72.03,389.27c0,0-6.67-10.77-22.56,6.79c-15.89,17.55,1.67,71.7,27.59,72.22
		C102.97,468.8,72.03,389.27,72.03,389.27z"/>
	<path class="st0" d="M74.88,387.52c0,0-13.1-5.3-15.89,6.97c-2.15,9.53-10.3,63.55,16.73,95.87
		C102.75,522.69,74.88,387.52,74.88,387.52z"/>
	<g>
		<path class="st0" d="M650.34,880.55c0,0-17.35-8.57-15.89-23.2c1.47-14.64,15.26-11.29,21.53-1.68
			c6.27,9.63,4.45,11.82,17.9,14.26C687.34,872.39,650.34,880.55,650.34,880.55z"/>
		<path class="st0" d="M667.69,872.39c0,0-12.12-14,0-22.78c12.12-8.78,26.13,10.88,20.28,18.81
			C682.11,876.37,667.69,872.39,667.69,872.39z"/>
		<g>
			<path class="st0" d="M720.05,842.44c0,0-33.13,70.63-91.38,17.96c-5-4.53-27.14-9.67-24.7,11.44
				c1.59,13.8,73.54,73.12,137.29-6.8L720.05,842.44z"/>
		</g>
	</g>
	<g>
		<path class="st1" d="M724.55,520.5c0,0,73.19,86.37,7.98,277.79c0,0-81.56,0.71-74.45,31.26c2.97,12.77,42.76-6.98,56.16,2.27
			c0,0-37.96,62.31-85.78,36.96c-28.77-15.26-31.84,19.3-21.53,28.5c21.25,18.96,81.26,27.31,132.25-23.88
			c55.83-56.05,122.55-238.19,16.94-418.3L724.55,520.5z"/>
	</g>
	<path class="st1" d="M738.49,441.49c0,0,6.67-10.77,22.57,6.79c15.88,17.55-1.67,71.7-27.6,72.22
		C707.54,521.02,738.49,441.49,738.49,441.49z"/>
	<path class="st0" d="M738.49,441.49c0,0-13.2,33.92-15.14,57.31c1.06,8.07,1.9,14.49,2.31,17.62c0.21,0.35,0.45,0.67,0.7,0.99
		c2.97-7.61,20.98-52.39,38.52-62.72c-0.94-2.44-2.21-4.62-3.82-6.4C745.16,430.73,738.49,441.49,738.49,441.49z"/>
	<g>
		<g>
			<path class="st1" d="M216.94,761.13c0,0-16.92,104.36,46.62,225.6c0,0-109.55-52.96-171.41-21.74
				c-22.53,11.38-36.71,59.37-36.71,59.37s66.98,30.61,240.9-0.33c0,0-15.23-45.65-18.57-60.71
				c-3.35-15.05-4.19-136.29,31.41-164.01C336.91,777.73,216.94,761.13,216.94,761.13z"/>
			<path class="st2" d="M251.81,767.2c-3.88,14.13-8.98,28.32-8.06,42.93c1.06,16.99,3.59,33.96,8.57,50.27
				c4.89,16.02,16.54,31.89,24.84,46.3c2.49-40.76,10.74-90.8,32.03-107.38C326.82,785.6,284.79,773.89,251.81,767.2z"/>
		</g>
		<path class="st3" d="M151.94,1008.48c0,0,1.67-10.74-3.35-21.88c-5.02-11.14-11.7-26.61-45.15-19.92l-5.78-4.18
			c0,0-55.67,1.68-66.96,67.72c0,0,18.39,5.44,27.6,5.02l-2.85,10.03c0,0,65.55,3.76,90.22-5.44L151.94,1008.48z"/>
		<path class="st4" d="M154.87,1045.27c0,0,42.05-0.62,61.99-7.4c0,0,0.3-39.01-24.78-49.04c-25.09-10.03-40.56,16.72-45.15,20.48
			c-4.6,3.76-5.02,35.96-5.02,35.96H154.87z"/>
	</g>
	<g>
		<g>
			<path class="st1" d="M612.92,763.52c0,0,16.92,104.36-46.63,225.6c0,0,109.54-52.97,171.4-21.74
				c22.53,11.38,36.71,59.37,36.71,59.37s-66.99,30.6-240.9-0.34c0,0,15.23-45.65,18.57-60.7c3.34-15.05,4.18-136.29-31.42-164.01
				C492.93,780.12,612.92,763.52,612.92,763.52z"/>
			<path class="st2" d="M578.05,769.57c3.87,14.13,8.98,28.33,8.06,42.95c-1.06,16.99-3.59,33.94-8.57,50.27
				c-4.89,16.01-16.54,31.89-24.84,46.3c-2.48-40.76-10.73-90.8-32.03-107.38C503.04,787.99,545.06,776.28,578.05,769.57z"/>
		</g>
		<path class="st3" d="M677.9,1010.87c0,0-1.67-10.74,3.35-21.88c5.02-11.15,11.71-26.61,45.15-19.92l5.78-4.18
			c0,0,55.67,1.67,66.97,67.72c0,0-18.4,5.43-27.6,5.01l2.85,10.03c0,0-65.55,3.77-90.22-5.43L677.9,1010.87z"/>
		<path class="st4" d="M674.99,1047.65c0,0-42.05-0.61-62.01-7.4c0,0-0.29-39,24.79-49.03c25.09-10.04,40.56,16.72,45.15,20.48
			c4.6,3.77,5.02,35.95,5.02,35.95H674.99z"/>
	</g>
	<g>
		<path class="st4" d="M535.82,144.91c0,0,58.63-51.38,119.73-58.48c61.07-7.12,48.14,185.06,43.23,198.45
			C693.87,298.25,535.82,144.91,535.82,144.91z"/>
		<path class="st3" d="M603.72,101.74c-3.23,1.47-6.41,3-9.5,4.56c17.61,1.38,54.85,8.24,85.17,40.4
			C679.4,146.71,656.65,109.16,603.72,101.74z"/>
		<path class="st3" d="M638.8,89.44c-2.4,0.57-4.79,1.21-7.15,1.89c8.99,0.6,20.09,2.12,27.13,5.78
			C658.77,97.11,655.32,91.89,638.8,89.44z"/>
		<g>
			<path class="st3" d="M660.07,150.98c-0.51-0.44-0.94-0.75-1.3-0.92C658.77,150.06,659.23,150.37,660.07,150.98z"/>
			<path class="st3" d="M703.24,205.43c-0.07-3.03-0.16-6.05-0.27-9.1c-16.23-25.23-37.49-41.44-42.9-45.35
				C667.15,156.9,688.91,185.9,703.24,205.43z"/>
		</g>
		<path class="st3" d="M695.63,134.41c-5.66-4.67-12.68-9.9-17.67-11.69c0,0,9.88,5.1,18.62,16.01
			C696.28,137.27,695.97,135.83,695.63,134.41z"/>
		<path class="st3" d="M638.98,183.23c0,0,45.93,47.97,62.06,87c0.33-3.34,0.66-7.16,0.95-11.35
			C693.07,242.08,674.06,212.64,638.98,183.23z"/>
		<path class="st5" d="M698.78,284.87c4.46-12.15,15.54-171.8-28.24-195.66c0.18,2.27,0.52,5.01,1.05,8.31
			c4.6,28.43-11.7,105.77-11.7,105.77c-30.51-45.95-104.7-57.78-122.19-59.96c-1.22,1.01-1.87,1.58-1.87,1.58
			S693.87,298.25,698.78,284.87z"/>
		<path class="st3" d="M642.11,168.67c0,0-15.4-35.86-84.96-40.07c-2.6,1.82-5.02,3.55-7.2,5.18
			C569.58,134.8,615.24,136.87,642.11,168.67z"/>
		<path class="st3" d="M576.13,116.29c-2.25,1.36-4.44,2.71-6.56,4.03c9.68,0.02,32.11-1.03,45.99,6.6
			C615.56,126.93,597.73,118,576.13,116.29z"/>
	</g>
	<g>
		<path class="st4" d="M265.95,132.41c0,0-58.63-51.37-119.71-58.48c-61.08-7.1-48.14,185.08-43.23,198.46
			C107.92,285.76,265.95,132.41,265.95,132.41z"/>
		<path class="st3" d="M198.06,89.25c3.23,1.48,6.41,3,9.5,4.57c-17.61,1.37-54.85,8.24-85.17,40.4
			C122.39,134.22,145.13,96.67,198.06,89.25z"/>
		<path class="st3" d="M162.99,76.94c2.4,0.57,4.79,1.21,7.15,1.9c-8.99,0.6-20.08,2.11-27.12,5.77
			C143.02,84.61,146.47,79.4,162.99,76.94z"/>
		<g>
			<path class="st3" d="M141.71,138.48c0.52-0.43,0.95-0.75,1.3-0.91C143.02,137.57,142.55,137.88,141.71,138.48z"/>
			<path class="st3" d="M98.55,192.93c0.07-3.01,0.16-6.05,0.28-9.1c16.22-25.22,37.47-41.44,42.89-45.35
				C134.63,144.42,112.87,173.4,98.55,192.93z"/>
		</g>
		<path class="st3" d="M106.15,121.92c5.66-4.67,12.68-9.91,17.67-11.69c0,0-9.88,5.1-18.62,16.01
			C105.5,124.78,105.82,123.33,106.15,121.92z"/>
		<path class="st3" d="M162.81,170.74c0,0-45.94,47.96-62.06,87c-0.33-3.35-0.66-7.16-0.96-11.35
			C108.72,229.59,127.72,200.15,162.81,170.74z"/>
		<path class="st5" d="M103.01,272.39c-4.46-12.15-15.55-171.8,28.23-195.67c-0.19,2.28-0.51,5.02-1.05,8.31
			c-4.6,28.43,11.7,105.78,11.7,105.78c30.51-45.94,104.69-57.79,122.19-59.97c1.22,1.01,1.87,1.58,1.87,1.58
			S107.92,285.76,103.01,272.39z"/>
		<path class="st3" d="M159.67,156.17c0,0,15.4-35.86,84.98-40.06c2.6,1.82,5.01,3.55,7.2,5.17
			C232.2,122.3,186.55,124.37,159.67,156.17z"/>
		<path class="st3" d="M225.65,103.79c2.25,1.36,4.45,2.71,6.56,4.04c-9.67,0.03-32.1-1.02-45.99,6.6
			C186.21,114.43,204.05,105.52,225.65,103.79z"/>
	</g>
	<g>
		<path class="st1" d="M66.93,372.71c0,0,12.86-242.96,298.09-256.37c230.44-10.84,379.48,152.63,379.35,320.96
			c-0.03,40.19-28.18,95.43-49.92,127.76C595.21,712.63,64.58,768.48,66.93,372.71z"/>
		<path class="st1" d="M224.46,814.65c0,0-177.13-227.48-157.54-455.48c19.59-228.02,613.31,25.82,677.01,87.02
			c0,0-14.05,222.98-145.17,382.25C533.19,908.08,251.96,853.96,224.46,814.65z"/>
		<g>
			<path class="st6" d="M440.37,357.23c0,0,23.34,40.81,104.13,22.44c55.19-12.54,34.3-83.53,34.3-83.53L440.37,357.23z"/>
			<path class="st7" d="M533.21,305.3c-17.78,5.13-35.76,7.67-54.21,9c-12.81,0.92-25.64,1.58-38.36,3.32
				c-7.49,30.55,0.47,40.87,0.47,40.87c3.9,3.89,15.32,23.13,86.39,13.1c45.74-6.46,60.54-48.02,49.59-81.65
				C562.78,296.01,548.01,301.03,533.21,305.3z"/>
			<path class="st8" d="M442.15,343.82c6.78-3.76,14.61-6.61,21.84-9.41c15.86-6.14,32.31-6.85,49.12-7.13
				c8.49-0.13,17.01-0.04,25.46-1.07c7.84-0.94,15.31-3.79,23.1-5.07c5.73-0.92,12.28-2.26,18.43-1.9
				c1.11-9.75,0.07-19.83-3.01-29.3c-14.32,6.06-29.09,11.08-43.89,15.35c-17.78,5.13-35.76,7.67-54.21,9
				c-12.81,0.92-25.64,1.58-38.36,3.32c-3.31,13.5-3.61,23.05-2.91,29.49C439.07,345.84,440.56,344.71,442.15,343.82z"/>
			<g>
				<path class="st9" d="M479,314.3c-7.65,0.56-15.29,1.01-22.93,1.66c0.15,1.21,0.32,2.43,0.5,3.67
					c3.08,19.46,28.51,51.57,58.33,34.89c16.91-9.47,21.21-29.87,18.09-49.15C515.29,310.45,497.37,312.98,479,314.3z"/>
				<path class="st10" d="M479,314.3c-6.17,0.45-12.35,0.83-18.51,1.29c0.12,0.95,0.24,1.9,0.38,2.86
					c2.72,17.26,25.3,45.76,51.75,30.96c14.79-8.29,18.72-26,16.17-42.9C512.46,310.84,495.93,313.08,479,314.3z"/>
				<path class="st11" d="M479,314.3c-3.16,0.23-6.33,0.45-9.49,0.66c0.09,2.82,0.35,5.74,0.77,8.8
					c2.08,14.65,19.34,38.84,39.57,26.27c12.7-7.89,14.92-25.89,11.41-41.67C507.37,311.51,493.33,313.27,479,314.3z"/>
				<path class="st9" d="M479,314.3c-0.93,0.07-1.85,0.14-2.78,0.21c0.07,0.55,0.14,1.11,0.24,1.68c1.46,9.32,13.64,24.68,27.9,16.7
					c7.89-4.42,10.04-13.8,8.75-22.84C501.89,312.17,490.53,313.48,479,314.3z"/>
				<path class="st12" d="M512.64,349.42c2.11-1.18,3.98-2.57,5.66-4.09c-1.04-4.4-6.39-10.7-25.39-12.59
					c-18.74-1.87-17.44,10.83-17.4,11.18C485.03,352.7,498.25,357.47,512.64,349.42z"/>
			</g>
			<path class="st7" d="M445.13,317.05c0,0-0.26,19.6,32.62,10.41c32.89-9.2,8.2-13.72,8.2-13.72S452.6,315.27,445.13,317.05z"/>
		</g>
		<g>
			<path class="st6" d="M350.96,357.23c0,0-23.35,40.81-104.14,22.44c-55.19-12.54-34.29-83.53-34.29-83.53L350.96,357.23z"/>
			<path class="st7" d="M258.12,305.3c17.78,5.13,35.78,7.67,54.21,9c12.81,0.92,25.66,1.58,38.36,3.32
				c7.51,30.55-0.46,40.87-0.46,40.87c-3.9,3.89-15.33,23.13-86.4,13.1c-45.74-6.46-60.54-48.02-49.59-81.65
				C228.55,296.01,243.33,301.03,258.12,305.3z"/>
			<path class="st8" d="M349.18,343.82c-6.78-3.76-14.61-6.61-21.85-9.41c-15.84-6.14-32.32-6.85-49.12-7.13
				c-8.49-0.13-17.02-0.04-25.46-1.07c-7.85-0.94-15.29-3.79-23.1-5.07c-5.72-0.92-12.28-2.26-18.43-1.9
				c-1.11-9.75-0.07-19.83,3-29.3c14.32,6.06,29.1,11.08,43.89,15.35c17.78,5.13,35.78,7.67,54.21,9
				c12.81,0.92,25.66,1.58,38.36,3.32c3.32,13.5,3.61,23.05,2.91,29.49C352.25,345.84,350.77,344.71,349.18,343.82z"/>
			<g>
				<path class="st9" d="M312.33,314.3c7.64,0.56,15.29,1.01,22.93,1.66c-0.15,1.21-0.31,2.43-0.51,3.67
					c-3.07,19.46-28.51,51.57-58.33,34.89c-16.91-9.47-21.22-29.87-18.08-49.15C276.04,310.45,293.96,312.98,312.33,314.3z"/>
				<path class="st10" d="M312.33,314.3c6.18,0.45,12.35,0.83,18.51,1.29c-0.11,0.95-0.25,1.9-0.39,2.86
					c-2.72,17.26-25.29,45.76-51.75,30.96c-14.79-8.29-18.72-26-16.17-42.9C278.88,310.84,295.41,313.08,312.33,314.3z"/>
				<path class="st11" d="M312.33,314.3c3.16,0.23,6.32,0.45,9.49,0.66c-0.08,2.82-0.33,5.74-0.77,8.8
					c-2.08,14.65-19.33,38.84-39.57,26.27c-12.7-7.89-14.93-25.89-11.42-41.67C283.96,311.51,298,313.27,312.33,314.3z"/>
				<path class="st9" d="M312.33,314.3c0.93,0.07,1.85,0.14,2.78,0.21c-0.07,0.55-0.15,1.11-0.23,1.68
					c-1.47,9.32-13.64,24.68-27.91,16.7c-7.89-4.42-10.04-13.8-8.75-22.84C289.45,312.17,300.8,313.48,312.33,314.3z"/>
				<path class="st12" d="M278.69,349.42c-2.1-1.18-3.98-2.57-5.66-4.09c1.04-4.4,6.39-10.7,25.39-12.59
					c18.74-1.87,17.44,10.83,17.39,11.18C306.31,352.7,293.08,357.47,278.69,349.42z"/>
			</g>
			<path class="st7" d="M239.73,312.09c0,0,2.46,24.31,35.35,15.11c32.89-9.2,8.2-13.72,8.2-13.72S247.2,310.3,239.73,312.09z"/>
		</g>
	</g>
	<g>
		<path class="st7" d="M164.9,452.86c0,0,23.41-58.93,39.72-45.55c16.3,13.38,14.62,47.78,14.62,47.78L164.9,452.86z"/>
		<path class="st7" d="M249.35,455.09c0,0,20.03-64.97,47.14-71.11c27.11-6.15,29.37,75.17,29.37,75.17L249.35,455.09z"/>
		<path class="st7" d="M367.25,463.32c0,0,18.81-61.22,41.8-57.99c22.99,3.23,18.38,67.6,18.38,67.6L367.25,463.32z"/>
		<path class="st7" d="M464.23,480.47c0,0,17.15-44.73,35.12-45.57c17.97-0.84,17.51,58.5,17.51,58.5L464.23,480.47z"/>
		<path class="st7" d="M560.81,504.29c0,0,19.23-59.36,43.48-62.7c24.24-3.34,12.45,82.08,12.45,82.08L560.81,504.29z"/>
	</g>
	<g>
		<path class="st8" d="M204.62,407.31c-1.77-1.44-3.61-2.04-5.49-1.97c4.46,4.91,7.83,10.99,9.88,17.74
			c2.9,9.62,4.03,21.41,1.23,31.64l9,0.37C219.24,455.09,220.92,420.68,204.62,407.31z"/>
		<path class="st8" d="M307.2,396.96c1.72,9.37,3.97,19.15,3.3,28.74c-0.73,10.48-2.43,22.34-7.28,32.26l22.63,1.19
			c0,0-1.85-66.4-22.21-74.65C305.54,388.36,306.45,392.87,307.2,396.96z"/>
		<path class="st8" d="M412.6,406.41c2.59,8.53,4.4,17.1,4.25,26.13c-0.22,12.99-3.93,25.44-9.19,37.24l19.77,3.16
			C427.42,472.94,431.54,415.45,412.6,406.41z"/>
		<path class="st8" d="M502.19,435.31c0.13,0.54,0.25,1.07,0.38,1.61c1.87,8.04,2.07,15.66,2.11,23.82
			c0.04,9.63,0.94,19.96-1.54,29.3l13.72,3.37C516.86,493.41,517.27,440.51,502.19,435.31z"/>
		<path class="st8" d="M610.26,442.9c7.91,24.16,0.59,51.72-11.51,74.54l17.98,6.23C616.73,523.67,626.39,453.73,610.26,442.9z"/>
	</g>
	<path class="st13" d="M428.28,306.52c0,0-4.74,12.43,8.09,12.02c12.81-0.42,120.72-4.32,169.78-21.59c0,0,5.8-20.07-54.41-18.12
		c0,0,7.38-0.44,23.7-2.78c17.36-2.5-36.51-32.89-95.6-2.23c0,0,28.53-17.75,20.9-20.82C498.48,252.08,454.48,254.3,428.28,306.52z"
		/>
	<path class="st13" d="M364.16,309.81c0,0,4.74,12.42-8.08,12.02c-12.82-0.42-120.73-4.32-169.79-21.6c0,0-5.8-20.06,54.4-18.11
		c0,0-7.37-0.45-23.69-2.8c-17.36-2.49,36.5-32.88,95.6-2.23c0,0-28.52-17.74-20.91-20.81
		C293.96,255.37,337.97,257.58,364.16,309.81z"/>
	<path class="st6" d="M142.6,454.68c0,0,306.68-20.94,494.75,79.27C637.36,533.95,441.38,448.55,142.6,454.68z"/>
	<path class="st0" d="M421.87,350.17c0,0-0.08,0.35-0.17,0.97c-0.94,6.52-3.59,43.91,58.97,46.97c0,0-45.3-14.36-58.88-47.58"/>
	<path class="st0" d="M373.92,350.17c0,0,0.08,0.35,0.16,0.97c0.94,6.52,3.58,43.91-58.97,46.97c0,0,45.3-14.36,58.89-47.58"/>
	<path class="st2" d="M383.74,611.48c-152.15,0-145.7,184.18-138.15,215.46c0.49,2.05,0.82,3.17,0.93,3.22
		c68.19,32.72,261.73,62.71,336.16,12.61l0,0C615.01,687.94,545.86,611.48,383.74,611.48z"/>
	<path class="st1" d="M486.39,133.39c0,0-2.09-46.74,67.3-50.08c0,0-52.8-29.68-83.6-0.42c0,0-2.38-42.91,24.93-81.37
		c0,0-63.12-12.83-87.08,36.22c0,0-33.54-49.6-96.99-32.33c0,0,37.9,28.99,36.79,68.57c0,0-28.43-74.14-120.96-40.14
		c0,0,56.96,13.38,59.36,42.36c2.4,28.99-32.61-2.23-32.61-2.23s-6.31,39.11,28.82,59.41H486.39z"/>
	<path class="st0" d="M315.86,138.48c0,0-16.34-12.1-15.93-34.69c0,0,20.49,13.57,25.92,5.32c5.43-8.25,7.52-32.49,0-40.85
		c0,0,24.24,2.08,30.52,17.97c0,0,31.42-23.58,20.9-51.42c0,0,31.77,17.76,38.04,41.9c0,0,8.36-28.93,40.76-36.88
		c0,0-4.81,30.52,14.01,43.06c0,0,27.69-13.27,50.16-5.94c0,0-28.85,19.42-31.98,44.67l-1.56,6.98c0,0,25.51,8.52,30.15,22.39
		c0,0-23.87-11.65-41.39-11.24l5.2,10.32c0,0-22.3-7.39-46.96-6.14c-24.67,1.26-57.28,14.22-57.28,14.22v-8.08
		c0,0-24.31-6.97-45.6-6.56C309.55,143.92,315.86,138.48,315.86,138.48z"/>
</g>
</svg>
