<?xml version="1.0" encoding="utf-8"?>
<!-- Generator: Adobe Illustrator 24.0.1, SVG Export Plug-In . SVG Version: 6.00 Build 0)  -->
<svg version="1.1" id="Layer_1" xmlns="http://www.w3.org/2000/svg" xmlns:xlink="http://www.w3.org/1999/xlink" x="0px" y="0px"
	 viewBox="0 0 961.66 1004.25" style="enable-background:new 0 0 961.66 1004.25;" xml:space="preserve">
<style type="text/css">
	.st0{fill:#6DB42D;}
	.st1{fill:#CCBA6C;}
	.st2{fill:#FFEA87;}
	.st3{fill:#367E32;}
	.st4{fill:#1C361C;}
	.st5{fill:#FFFFFF;}
	.st6{fill:#D1CCE7;}
	.st7{fill:#43182E;}
	.st8{fill:#BC3618;}
	.st9{fill:#E42E12;}
	.st10{fill:#E84F1D;}
	.st11{fill:#422918;}
	.st12{fill:#BD9011;}
	.st13{fill:#E5A800;}
	.st14{fill:#DDDB00;}
	.st15{fill:#2B1940;}
	.st16{fill:#110D1E;}
	.st17{fill:#E84163;}
</style>
<g>
	<path class="st0" d="M310.09,91.11c0,0-137.08-91.11-218.3-91.11c-81.22,0-71.5,282.13,0.9,402.52
		C165.07,522.89,310.09,91.11,310.09,91.11z"/>
	<g>
		<path class="st1" d="M59.57,39.51c0,0,12.64-18.8,19.69-21.79c7.04-2.97-4.53,199.86,45.33,283.64c0,0-29.05,66.38-44.2,53.17
			C65.26,341.34,8.08,135.58,59.57,39.51z"/>
		<path class="st2" d="M95.72,312.15c-5.67-12.62-10.76-25.49-15.11-38.61c-8.55-25.74-13.58-52.11-16.05-79.1
			c-1.92-21.08-2.26-42.73,0.5-63.71c0.41-5.24,0.9-10.46,1.53-15.62c2.52-21.02,7.17-41.7,15.9-60.87
			c-0.77-22.98-1.31-37.3-3.22-36.5c-7.06,2.98-19.69,21.79-19.69,21.79c-51.49,96.07,5.68,301.82,20.82,315.02
			c6.86,5.99,16.57-4.37,25.16-17.49C103.21,328.46,99.31,320.17,95.72,312.15z"/>
	</g>
	<path class="st0" d="M664.23,130.62c0,0,137.09-91.11,218.3-91.11c81.22,0,71.5,282.14-0.89,402.52
		C809.24,562.4,664.23,130.62,664.23,130.62z"/>
	<g>
		<path class="st1" d="M916.52,92.27c0,0-12.05-19.2-19.01-22.39c-6.96-3.19-1.63,199.9-54.05,282.11c0,0,27,67.24,42.55,54.51
			C901.54,393.77,965.02,189.87,916.52,92.27z"/>
		<path class="st2" d="M871.98,363.65c6.05-12.43,11.54-25.13,16.3-38.12c9.34-25.46,15.19-51.67,18.48-78.57
			c2.58-21.03,3.58-42.64,1.46-63.7c-0.24-5.25-0.59-10.48-1.05-15.67c-1.88-21.09-5.88-41.9-14.01-61.33
			c1.47-22.95,2.46-37.23,4.34-36.38c6.96,3.19,19.01,22.39,19.01,22.39c48.51,97.6-14.98,301.5-30.51,314.24
			c-7.05,5.76-16.45-4.89-24.6-18.27C864,379.72,868.14,371.57,871.98,363.65z"/>
	</g>
	<g>
		<g>
			<path class="st3" d="M191.39,909.39c0,0,20.55-10.15,18.81-27.48c-1.73-17.33-18.07-13.38-25.5-1.98
				c-7.43,11.38-5.27,13.99-21.21,16.89C147.57,899.73,191.39,909.39,191.39,909.39z"/>
			<path class="st3" d="M170.84,899.73c0,0,14.36-16.59,0-26.98c-14.36-10.4-30.95,12.87-24.02,22.28
				C153.74,904.43,170.84,899.73,170.84,899.73z"/>
			<g>
				<path class="st3" d="M108.82,864.25c0,0,39.24,83.65,108.22,21.27c5.92-5.35,32.15-11.46,29.25,13.55
					c-1.88,16.34-87.1,86.59-162.61-8.06L108.82,864.25z"/>
			</g>
		</g>
		<g>
			<path class="st0" d="M103.49,482.94c0,0-86.69,102.29-9.46,329.01c0,0,96.61,0.85,88.19,37.02c-3.52,15.13-50.64-8.27-66.53,2.69
				c0,0,44.97,73.81,101.61,43.78c34.08-18.08,37.71,22.86,25.5,33.76c-25.17,22.43-96.24,32.34-156.65-28.3
				C20.03,834.51-58.99,618.8,66.09,405.45L103.49,482.94z"/>
		</g>
		<path class="st0" d="M85.31,385.15c0,0-7.91-12.76-26.72,8.04c-18.81,20.8,1.96,84.93,32.68,85.54
			C121.96,479.35,85.31,385.15,85.31,385.15z"/>
		<path class="st3" d="M88.68,383.09c0,0-15.51-6.28-18.81,8.23c-2.56,11.29-12.22,75.28,19.81,113.56
			C121.7,543.17,88.68,383.09,88.68,383.09z"/>
		<g>
			<path class="st3" d="M770.27,967.03c0,0-20.55-10.15-18.81-27.48c1.73-17.33,18.07-13.38,25.5-1.98
				c7.43,11.38,5.27,13.99,21.21,16.9C814.1,957.39,770.27,967.03,770.27,967.03z"/>
			<path class="st3" d="M790.83,957.39c0,0-14.36-16.59,0-26.99c14.35-10.39,30.95,12.87,24.01,22.28
				C807.91,962.08,790.83,957.39,790.83,957.39z"/>
			<g>
				<path class="st3" d="M852.84,921.9c0,0-39.24,83.65-108.23,21.27c-5.91-5.35-32.14-11.45-29.26,13.54
					c1.9,16.36,87.11,86.6,162.62-8.05L852.84,921.9z"/>
			</g>
		</g>
		<g>
			<path class="st0" d="M858.17,540.58c0,0,86.69,102.3,9.46,329.01c0,0-96.61,0.86-88.19,37.03c3.51,15.13,50.66-8.27,66.52,2.69
				c0,0-44.96,73.82-101.6,43.78c-34.08-18.08-37.72,22.86-25.5,33.76c25.17,22.44,96.23,32.34,156.63-28.3
				c66.14-66.38,145.17-282.1,20.07-495.46L858.17,540.58z"/>
		</g>
		<path class="st0" d="M874.68,447c0,0,7.91-12.75,26.72,8.04c18.82,20.8-1.97,84.94-32.68,85.55
			C838.03,541.2,874.68,447,874.68,447z"/>
		<path class="st3" d="M874.68,447c0,0-15.63,40.18-17.93,67.89c1.26,9.55,2.25,17.17,2.74,20.86c0.25,0.42,15.12,36.56,6.85,16.92
			c29.64,3.66,18.84-77.8,39.61-90.02c-1.12-2.91-2.63-5.48-4.54-7.61C882.59,434.25,874.68,447,874.68,447z"/>
		<g>
			<g>
				<path class="st2" d="M298.24,832.76c-4.59,16.75-10.64,33.56-9.56,50.86c1.27,20.13,4.26,40.22,10.16,59.54
					c5.8,18.97,19.58,37.78,29.43,54.84c2.94-48.27,12.72-107.54,37.93-127.18C387.08,854.58,337.31,840.71,298.24,832.76z"/>
			</g>
		</g>
		<g>
			<g>
				<path class="st2" d="M684.65,835.6c4.59,16.74,10.63,33.55,9.55,50.85c-1.26,20.13-4.25,40.22-10.16,59.53
					c-5.79,18.98-19.58,37.78-29.43,54.85c-2.93-48.27-12.71-107.54-37.93-127.18C595.82,857.41,645.59,843.55,684.65,835.6z"/>
			</g>
		</g>
		<g>
			<path class="st0" d="M79.27,365.52c0,0,15.23-287.75,353.06-303.64c272.93-12.84,449.45,180.78,449.29,380.15
				c-0.03,47.6-33.36,113.03-59.12,151.32C704.98,768.15,76.49,834.3,79.27,365.52z"/>
			<path class="st0" d="M265.85,888.97c0,0-209.79-269.41-186.59-539.48c23.19-270.06,726.4,30.57,801.86,103.07
				c0,0-16.65,264.1-171.95,452.74C631.52,999.65,298.44,935.55,265.85,888.97z"/>
			<path class="st3" d="M295.12,629.3c0,0,15.97,11.31,96.22-6.81c80.23-18.11,138.6-2.51,174.77,10.3
				c36.16,12.81,120.55,75.1,138.17,15.55c12.38-41.86-38.85-100.1-38.85-100.1L295.12,629.3z"/>
			<g>
				<path class="st4" d="M521.58,347.2c0,0,27.65,48.33,123.34,26.59c65.36-14.86,40.62-98.95,40.62-98.95L521.58,347.2z"/>
				<path class="st5" d="M631.55,285.7c-21.07,6.08-42.36,9.09-64.2,10.67c-15.18,1.1-30.39,1.85-45.43,3.94
					c-8.89,36.16,0.54,48.39,0.54,48.39c4.63,4.63,18.17,27.4,102.34,15.51c54.18-7.65,71.7-56.86,58.74-96.7
					C666.58,274.69,649.08,280.65,631.55,285.7z"/>
				<path class="st6" d="M523.7,331.32c8.03-4.46,17.3-7.84,25.86-11.15c18.78-7.27,38.28-8.11,58.17-8.43
					c10.07-0.16,20.15-0.07,30.16-1.27c9.3-1.13,18.13-4.51,27.37-6c6.77-1.11,14.54-2.69,21.83-2.26
					c1.31-11.55,0.08-23.5-3.56-34.7c-16.96,7.18-34.45,13.15-51.98,18.19c-21.07,6.08-42.36,9.09-64.2,10.67
					c-15.18,1.1-30.39,1.85-45.43,3.94c-3.94,15.97-4.28,27.28-3.44,34.92C520.06,333.72,521.81,332.37,523.7,331.32z"/>
				<g>
					<path class="st7" d="M567.35,296.36c-9.06,0.65-18.12,1.18-27.16,1.95c0.18,1.44,0.37,2.88,0.6,4.35
						c3.65,23.05,33.76,61.08,69.09,41.31c20.02-11.21,25.13-35.36,21.42-58.21C610.32,291.8,589.1,294.8,567.35,296.36z"/>
					<path class="st8" d="M567.35,296.36c-7.32,0.53-14.63,0.98-21.94,1.52c0.15,1.12,0.29,2.25,0.47,3.39
						c3.23,20.45,29.96,54.21,61.3,36.66c17.53-9.8,22.15-30.78,19.15-50.81C606.96,292.25,587.37,294.92,567.35,296.36z"/>
					<path class="st9" d="M567.35,296.36c-3.75,0.26-7.5,0.53-11.25,0.77c0.1,3.34,0.4,6.82,0.91,10.43
						c2.47,17.36,22.91,46,46.87,31.12c15.06-9.35,17.67-30.65,13.53-49.36C600.95,293.04,584.31,295.14,567.35,296.36z"/>
					<path class="st7" d="M567.35,296.36c-1.11,0.08-2.2,0.15-3.3,0.23c0.08,0.66,0.17,1.33,0.27,2.01
						c1.74,11.02,16.16,29.23,33.07,19.77c9.34-5.24,11.88-16.35,10.36-27.05C594.44,293.83,580.99,295.38,567.35,296.36z"/>
					<path class="st10" d="M607.18,337.94c2.49-1.39,4.71-3.03,6.69-4.83c-1.2-5.21-7.55-12.67-30.06-14.91
						c-22.2-2.2-20.66,12.83-20.61,13.23C574.48,341.83,590.14,347.48,607.18,337.94z"/>
				</g>
				<path class="st5" d="M527.22,299.62c0,0-0.32,23.21,38.64,12.31c38.94-10.89,9.7-16.24,9.7-16.24S536.06,297.49,527.22,299.62z"
					/>
			</g>
			<g>
				<path class="st4" d="M415.69,347.2c0,0-27.65,48.33-123.35,26.59c-65.37-14.86-40.62-98.95-40.62-98.95L415.69,347.2z"/>
				<path class="st5" d="M305.71,285.7c21.07,6.08,42.37,9.09,64.22,10.67c15.16,1.1,30.39,1.85,45.43,3.94
					c8.89,36.16-0.55,48.39-0.55,48.39c-4.62,4.63-18.16,27.4-102.33,15.51c-54.18-7.65-71.7-56.86-58.76-96.7
					C270.7,274.69,288.19,280.65,305.71,285.7z"/>
				<path class="st6" d="M413.57,331.32c-8.03-4.46-17.31-7.84-25.86-11.15c-18.78-7.27-38.28-8.11-58.19-8.43
					c-10.05-0.16-20.15-0.07-30.15-1.27c-9.3-1.13-18.13-4.51-27.37-6c-6.78-1.11-14.55-2.69-21.83-2.26
					c-1.31-11.55-0.08-23.5,3.56-34.7c16.97,7.18,34.46,13.15,51.98,18.19c21.07,6.08,42.37,9.09,64.22,10.67
					c15.16,1.1,30.39,1.85,45.43,3.94c3.93,15.97,4.28,27.28,3.44,34.92C417.21,333.72,415.47,332.37,413.57,331.32z"/>
				<g>
					<path class="st11" d="M369.93,296.36c9.04,0.65,18.11,1.18,27.15,1.95c-0.18,1.44-0.37,2.88-0.62,4.35
						c-3.62,23.05-33.75,61.08-69.07,41.31c-20.03-11.21-25.12-35.36-21.43-58.21C326.96,291.8,348.17,294.8,369.93,296.36z"/>
					<path class="st12" d="M369.93,296.36c7.3,0.53,14.61,0.98,21.92,1.52c-0.14,1.12-0.28,2.25-0.46,3.39
						c-3.23,20.45-29.96,54.21-61.3,36.66c-17.52-9.8-22.16-30.78-19.15-50.81C330.31,292.25,349.9,294.92,369.93,296.36z"/>
					<path class="st13" d="M369.93,296.36c3.74,0.26,7.49,0.53,11.23,0.77c-0.09,3.34-0.39,6.82-0.91,10.43
						c-2.46,17.36-22.9,46-46.86,31.12c-15.05-9.35-17.68-30.65-13.53-49.36C336.32,293.04,352.96,295.14,369.93,296.36z"/>
					<path class="st11" d="M369.93,296.36c1.1,0.08,2.2,0.15,3.29,0.23c-0.08,0.66-0.18,1.33-0.28,2.01
						c-1.74,11.02-16.15,29.23-33.05,19.77c-9.34-5.24-11.88-16.35-10.37-27.05C342.83,293.83,356.27,295.38,369.93,296.36z"/>
					<path class="st14" d="M330.09,337.94c-2.49-1.39-4.71-3.03-6.69-4.83c1.22-5.21,7.56-12.67,30.06-14.91
						c22.21-2.2,20.66,12.83,20.62,13.23C362.8,341.83,347.13,347.48,330.09,337.94z"/>
				</g>
				<path class="st5" d="M283.94,293.74c0,0,2.92,28.77,41.87,17.88c38.95-10.9,9.7-16.24,9.7-16.24S292.79,291.62,283.94,293.74z"
					/>
			</g>
		</g>
		<path class="st3" d="M499.67,338.84c0,0-0.09,0.41-0.19,1.15c-1.12,7.73-4.25,52.01,69.85,55.63c0,0-53.65-17.02-69.74-56.38"/>
		<path class="st3" d="M442.87,338.84c0,0,0.1,0.41,0.19,1.15c1.12,7.73,4.25,52.01-69.85,55.63c0,0,53.66-17.02,69.75-56.38"/>
		<path class="st2" d="M454.5,648.34c-180.2,0-172.55,218.15-163.62,255.19c0.59,2.43,0.98,3.76,1.1,3.82
			c80.76,38.76,309.99,74.29,398.16,14.94l0,0C728.43,738.9,646.53,648.34,454.5,648.34z"/>
	</g>
	<path class="st15" d="M288.56,627.77c0,0,19.59,7.93,60.19-5.94c40.6-13.87,195.38-37.63,278.43,14.86c0,0,57.21,24.76,67.15-8.91
		c9.94-33.67-86.12-213.05-226.74-204.07C326.96,432.68,235.31,601.03,288.56,627.77z"/>
	<path class="st16" d="M435.14,550.18c0,0-13.21-9.78-9.38-30.7c4.09-22.44,27.2-23.98,32.16-17.27c4.96,6.71,0.32,14.95,0,22.22
		c-0.34,7.26,12.71,19.02,22.94,12.08c10.24-6.93,4.36-22.98,6.11-30.9c1.74-7.93,12.99-8.58,22.45-1
		c9.46,7.6,15.08,38.3-4.18,50.51C485.98,567.35,450.33,569.65,435.14,550.18z"/>
	<path class="st17" d="M484.13,559.92c-116.23-38.12-169,45.31-189.01,69.38c8.8,1.33,26.53,1.79,53.64-7.48
		c40.6-13.87,195.38-37.63,278.43,14.86c0,0,21.51,9.3,40.44,8.75C597.3,512.62,484.13,559.92,484.13,559.92z"/>
	<path class="st5" d="M388.73,612.41c-2.07-34.73-29.79-96.62-60.28-60.89c-25.98,30.46-12.69,65.55-7.05,77.21
		c7.72-1.18,16.82-3.3,27.35-6.9C357.45,618.86,371.39,615.45,388.73,612.41z"/>
	<path class="st5" d="M607.58,548.6c-17.73,4.75-24.15,47.06-26.25,68.04c16.67,4.89,32.22,11.44,45.85,20.04
		c0,0,8.68,3.76,19.87,6.36C660.98,605.5,628.76,542.92,607.58,548.6z"/>
	<path class="st5" d="M554.57,513.55c0,0,24.27,2.46,47.61-39.45c-20.72-17.66-44.38-32.5-70.39-41.48
		C529.61,449.23,524.46,505.96,554.57,513.55z"/>
	<path class="st5" d="M400.52,511.06c29.1-7.35,25.26-60.61,23.01-79.15c-26.6,8.28-50.66,21.95-71.35,38.38
		C375.74,513.56,400.52,511.06,400.52,511.06z"/>
	<g>
		<path class="st6" d="M364.31,614.94c-7.06-1.25-14-3.55-20.68-6.15c-6.87-2.71-13.69-5.64-20.2-9.16
			c-3.52-1.9-7.39-3.96-10.47-6.71c-0.07,15.91,5.33,29.41,8.43,35.8c7.72-1.18,16.82-3.3,27.35-6.9
			c5.48-1.86,13.02-3.91,22.21-5.93C368.74,615.62,366.51,615.34,364.31,614.94z"/>
		<path class="st6" d="M631.94,612.79c-11.81,5.46-24.43,7.49-37.4,6.32c-2.82-0.25-5.61-0.59-8.42-0.99
			c14.86,4.7,28.75,10.78,41.06,18.56c0,0,8.68,3.76,19.87,6.36c4.49-12.13,4.17-26.87,0.96-41.08
			C643.24,606.32,637.9,610.04,631.94,612.79z"/>
		<path class="st6" d="M562.54,471.38c9.87,5.96,19.1,12.94,27.44,20.89c4.01-4.87,8.11-10.83,12.2-18.17
			c-20.72-17.66-44.38-32.5-70.39-41.48c-0.7,5.31-1.7,14.71-1.74,25.3C541.57,460.08,552.7,465.46,562.54,471.38z"/>
		<path class="st6" d="M361.05,471.48c19.14-7.63,38.78-13.68,59.6-12.93c1.46,0.04,2.95,0.2,4.39,0.49
			c0.17-10.92-0.74-20.96-1.5-27.14c-26.6,8.28-50.66,21.95-71.35,38.38c0.75,1.37,1.5,2.7,2.25,3.97
			C356.62,473.3,358.83,472.37,361.05,471.48z"/>
	</g>
	<path class="st0" d="M267.7,111.06c0,0,19.15-25.75-4.62-87.82c0,0,56.68,11.16,58.05,49.82c0,0,13.64-30.01,45.8-26.71
		c0,0-31.21,16.5-28.58,42.26C340.98,114.35,267.7,111.06,267.7,111.06z"/>
	<path class="st0" d="M715.65,148.08c0,0-13.04-29.31,23.76-84.66c0,0-57.75-1.52-67.56,35.88c0,0-6.73-32.27-38.83-36.09
		c0,0,26.84,22.95,18.62,47.5C643.42,135.24,715.65,148.08,715.65,148.08z"/>
	<path class="st3" d="M431.28,301.36c0,0-115.36,2.96-207.3-41.66c0,0,34.75-81.45,110.45-89.13
		C366.92,167.26,438.54,260.36,431.28,301.36z"/>
	<path class="st3" d="M499.47,301.36c0,0,115.35,2.96,207.3-41.66c0,0-34.76-81.45-110.45-89.13
		C563.81,167.26,492.2,260.36,499.47,301.36z"/>
	<g>
		<path class="st3" d="M780.09,191.13c0,0,22.73-9.13,33.17,6.1c10.43,15.22-25,22.39-34.36-1.12L780.09,191.13z"/>
		<path class="st3" d="M775.63,172.43c0,0,38.59,5.25,60.84-17.1c22.24-22.36,33.71-59.93-7.49-54.25
			C787.78,106.77,743.17,168.24,775.63,172.43z"/>
		<path class="st3" d="M743.06,146.38c0,0,23.15-18.85,19.22-36.09c-3.93-17.25-35.37,14.21-35.7,26.26
			C726.23,148.59,743.06,146.38,743.06,146.38z"/>
	</g>
	<g>
		<path class="st3" d="M195.43,158.89c0,0-22.56-9.55-33.27,5.47c-10.71,15.03,24.59,22.86,34.38-0.48L195.43,158.89z"/>
		<path class="st3" d="M200.25,140.26c0,0-38.69,4.54-60.51-18.22c-21.83-22.75-32.63-60.53,8.47-54.1
			C189.29,74.39,232.77,136.66,200.25,140.26z"/>
		<path class="st3" d="M233.29,114.81c0,0-22.8-19.27-18.56-36.44c4.25-17.16,35.1,14.86,35.22,26.9
			C250.07,117.32,233.29,114.81,233.29,114.81z"/>
	</g>
	<g>
		<path class="st3" d="M882.52,890.87c0,0,4.56-89.76,54.49-85.84c0,0,13.97,4.02,4.89,30.57
			C932.8,862.13,888.79,995.18,882.52,890.87z"/>
		<path class="st3" d="M920.41,793.16c0,0,10.41-13.38,0.49-23.28c-9.89-9.91-22.74,7.42-17.31,19.8
			C909.02,802.06,920.41,793.16,920.41,793.16z"/>
		<path class="st3" d="M952.87,745.74c0,0,8.43-24.37-7.42-37.69c-15.86-13.32-25.98,18.1-14.88,36.63
			C941.67,763.18,952.87,745.74,952.87,745.74z"/>
	</g>
	<g>
		<path class="st3" d="M93.36,853.73c0,0-12.94-88.93-62.26-80.35c0,0-13.54,5.32-2.01,30.9C40.62,829.84,96.88,958.18,93.36,853.73
			z"/>
		<path class="st3" d="M46.51,760c0,0-11.62-12.35-2.69-23.12c8.94-10.79,23.35,5.26,19.09,18.09C58.66,767.81,46.51,760,46.51,760z
			"/>
		<path class="st3" d="M9.74,715.83c0,0-10.67-23.47,3.87-38.22c14.54-14.75,27.56,15.59,18.25,35.06
			C22.54,732.16,9.74,715.83,9.74,715.83z"/>
	</g>
</g>
</svg>
