<?xml version="1.0" encoding="utf-8"?>
<!-- Generator: Adobe Illustrator 24.0.1, SVG Export Plug-In . SVG Version: 6.00 Build 0)  -->
<svg version="1.1" id="Layer_1" xmlns="http://www.w3.org/2000/svg" xmlns:xlink="http://www.w3.org/1999/xlink" x="0px" y="0px"
	 viewBox="0 0 392.48 368.84" style="enable-background:new 0 0 392.48 368.84;" xml:space="preserve">
<style type="text/css">
	.st0{fill:#70A024;}
	.st1{fill:#8DC63F;}
	.st2{fill:#BAE27A;}
	.st3{fill:#FFFFFF;}
	.st4{fill:#58595B;}
	.st5{fill:#BE1E2D;}
</style>
<g>
	<path d="M92.3,73.17c-1.06,0.53-2.1,0.92-3.13,1.2c0.54,0.54,1.08,1.09,1.6,1.67c2.84,3.13,2.59,8.46-0.11,11.36
		c1.35,4.22-0.49,8.35-3.69,10.56c0.51,5.92-4.46,12.49-11.19,9.93c-11.45-4.35-23.88-10.41-32.3-19.54
		c-0.57-0.62-1.11-1.24-1.62-1.88c-1.17-1.43-2.2-2.92-3.11-4.46c-4.83-8.11-6.42-17.59-6.46-27.28c-0.02-4.87,0.41-9.75,1.31-14.53
		c0.33-1.78,0.73-3.54,1.2-5.29c1.25-4.73,3-9.33,5.25-13.69c4.77-9.25,14.47-22.04,26.11-21.18c4.66,0.34,9.4,4.78,7.54,9.9
		c-2.03,5.58-3.05,11.33-2.99,17.11c0.01,2.63,0.25,5.27,0.73,7.89c0.25,1.48,0.59,2.96,1,4.43c0.88,3.15,2.07,6.18,3.53,9.1
		c0.72,1.47,1.53,2.92,2.39,4.34c0.92,1.52,1.91,2.97,3.01,4.35c0.47,0.6,0.96,1.18,1.47,1.75c0.76,0.85,4.39,5.32,5.59,5.09
		C93.72,63,97.64,70.44,92.3,73.17z"/>
	<path d="M369.18,52.4c-0.26,3.63-0.92,7.2-2.01,10.58c-1.99,6.2-5.09,11.99-9.05,17.11c-1.82,2.36-3.82,4.57-5.98,6.61
		c-1.43,1.37-2.92,2.66-4.48,3.87c-8.97,6.94-22.23,13.78-33.33,8.13c-4.51-2.29-6.03-9.09-3.21-13.25
		c-5.55-2.41-8.92-9.63-3.28-14.52c0.14-0.12,0.27-0.24,0.41-0.36c0.14-0.44,0.39-0.89,0.8-1.3c4.57-4.61,8.67-10,11.91-15.87
		c1.22-2.2,2.31-4.47,3.27-6.79c2.57-6.25,4.11-12.87,4.23-19.55c0.03-1.18,0-2.36-0.08-3.54c-0.1-1.89-0.33-3.78-0.69-5.66
		c-0.93-4.91,2.18-10.32,7.74-10.15c17.99,0.56,29.3,14.52,32.75,30.56v0.01C369.18,42.9,369.53,47.7,369.18,52.4z"/>
	<path class="st0" d="M3.48,209.87c-5.68,22.23-4.1,45.99,2.56,67.95c3.83,12.61,16.49,38.01,33.99,33.87
		c1.19-0.28,2.37-0.72,3.28-1.53c2.52-2.23,2.14-6.32,0.76-9.38c-1.38-3.07-3.56-5.86-4.09-9.18c-0.53-3.32,1.65-7.45,5.01-7.2
		c4.13,0.31,7.1,6.74,10.76,4.81c1.92-1.01,2.09-3.67,1.88-5.83c-0.35-3.56-1.56-7.72-4.97-8.8c-2.83-0.9-5.86,0.81-8.82,0.58
		c-4.42-0.34-7.45-5.05-7.55-9.48c-0.2-9.73,5.35-28.92,13.61-34.5c3.78-2.56,8.38-3.6,12.37-5.81
		c12.42-6.88,16.09-22.94,16.71-37.13c0.38-8.7,0.06-17.61-2.96-25.78C58.21,114.23,9.03,188.13,3.48,209.87z"/>
	<path class="st0" d="M389.5,217.45c5.28,22.33,3.26,46.06-3.81,67.89c-4.06,12.54-17.18,37.7-34.6,33.24
		c-1.18-0.3-2.35-0.77-3.25-1.59c-2.48-2.27-2.02-6.35-0.58-9.39c1.44-3.04,3.67-5.79,4.26-9.1s-1.52-7.48-4.88-7.29
		c-4.13,0.23-7.23,6.61-10.85,4.61c-1.9-1.05-2.02-3.71-1.77-5.86c0.41-3.55,1.7-7.69,5.13-8.71c2.85-0.85,5.84,0.91,8.81,0.74
		c4.42-0.26,7.54-4.91,7.72-9.34c0.38-9.73-4.82-29.01-12.98-34.75c-3.73-2.63-8.31-3.75-12.26-6.04
		c-12.3-7.11-15.67-23.23-16.02-37.43c-0.22-8.71,0.26-17.61,3.43-25.73C336.54,120.82,384.34,195.62,389.5,217.45z"/>
	<path class="st1" d="M109.81,40.69c-19.13,1.72-29.06,23.25-34.38,41.71c-10.99,38.18-18.77,77.28-23.23,116.75
		c-1.72,15.24-2.95,30.65-1.24,45.89c2.95,26.31,17.2,59.85,40.43,74.62c11.28,7.17,26.71,6.66,35.02,18.27
		c5.12,7.14,5.51,17.99-0.66,24.24c-1.35,1.36,24.74,6.9,27.52,6.67c6.67-0.56,23.78-3.57,27.71-9.63c1.01-1.56,1.32-3.45,1.61-5.29
		c1.19-7.62,1.3-17.08,4.06-24.29c4.61-12.03,19.19-19.52,31.41-15.44c20.6,6.88,10.8,25.49,16.4,39.91
		c7.75,19.94,37.49,12.84,53.79,9.06c2.36-0.55,4.93-1.23,6.35-3.19c4.8-6.59-5.41-8.82-5.64-12.84c-0.46-7.82,0.75-6.59,6.4-13.72
		c8.49-10.7,17.66-19.83,24.64-31.82c13.7-23.53,21.47-50.42,23.92-77.46c4.18-46.18-5.98-92.52-19.97-136.74
		c-4.36-13.77-9.43-27.97-19.78-38.05c-10.35-10.07-27.54-14.6-39.49-6.48c-11.24,7.64-15.07,24.01-27.52,29.46
		c-4.77,2.09-10.13,2.21-15.34,2.3c-15.26,0.26-30.53,0.53-45.79,0.79C143.69,75.98,140.91,37.89,109.81,40.69z"/>
	<path class="st2" d="M92.29,259c0.07-1.78,0.37-3.45-0.78-4.96c-0.93-1.21-2.54-2.25-4.14-1.73c-3.83,1.25-4.03,4.87-4.5,8.38
		c-0.5,3.74-0.78,7.58,0.17,11.26c1.42,5.52,10.32,4.49,10.07-1.36C92.95,266.69,92.12,262.94,92.29,259z"/>
	<path class="st2" d="M125.17,260.42c-1.1-4.98-9.15-3.92-8.93,1.21c0.21,4.8-1.09,19.11,6.92,18.03
		C131.13,278.58,126.2,265.11,125.17,260.42z"/>
	<path class="st2" d="M164.96,271.64c-0.35-4.59-7.12-6.04-8.38-1.13c-1.19,4.64-1.21,15.71,5.92,15.61
		C169.54,286.02,165.25,275.49,164.96,271.64z"/>
	<path class="st2" d="M112.8,300.1c-0.72-1.54-1.31-3-1.71-4.66c-0.53-2.15-2.8-3.54-4.94-3.22c-2,0.3-4.16,2.17-3.9,4.42
		c0.31,2.69,0.78,5.32,1.9,7.8c1.3,2.85,3.09,4.72,6.32,5.05c1.61,0.16,3.15-1.27,3.57-2.72
		C114.78,304.24,113.84,302.32,112.8,300.1z"/>
	<path class="st2" d="M149.94,302.82c0.71-5.18-6.32-7.48-8.05-2.22c-2.04,6.21-2.92,15.86,4.32,18.79c1.97,0.8,3.84-0.9,4.5-2.55
		C152.48,312.39,149.31,307.51,149.94,302.82z"/>
	<path class="st2" d="M202.58,302.02c-0.3-2.13-1.25-4.17-1.97-6.2c-0.52-1.47-1.83-2.49-3.45-2.25c-1.51,0.23-2.74,1.49-2.72,3.08
		c0.03,2.51-0.09,5.02,0.44,7.48c0.46,2.11,2.91,3.33,4.91,2.79C202.09,306.29,202.88,304.16,202.58,302.02z"/>
	<path class="st2" d="M221.67,273.91c-1.7-2.85-6.31-1.68-6.29,1.7c0.03,3.75-1.06,7.8-0.15,11.46c0.89,3.59,6.85,4.87,8.49,1.11
		C225.83,283.38,224.25,278.25,221.67,273.91z"/>
	<path class="st2" d="M249.58,296.44c-0.41-3.2-4.63-4.09-5.77-0.78c-1.37,3.97-2.34,8.56-0.26,12.44c2.08,3.89,7.93,1.94,8.03-2.18
		C251.66,302.67,249.99,299.65,249.58,296.44z"/>
	<path class="st2" d="M269.63,262.73c-1.27-1.49-3.73-1.42-5.17-0.31c-1.65,1.27-1.85,3.27-1.01,5.08
		c1.49,3.24,1.62,6.75,1.81,10.24c0.35,6.56,9.6,6.47,10.13,0C275.86,272.1,273.21,266.91,269.63,262.73z"/>
	<path class="st2" d="M291.24,301.8c-0.44-2.13-1.65-4.28-2.48-6.28c-0.79-1.92-2.36-3.32-4.58-2.99c-1.84,0.28-3.88,2.01-3.62,4.1
		c0.32,2.5,0.33,5.42,1.11,7.81c0.81,2.46,3.47,4.32,6.1,3.46C290.47,307.03,291.8,304.53,291.24,301.8z"/>
	<path class="st2" d="M314.06,253.66c-2.71-3.53-7.81-1.5-7.11,3c0.35,2.25,0.63,4.59,0.81,6.85c0.2,2.5-0.11,5.05,0.78,7.44
		c1.83,4.91,8.48,5.14,10.23,0C320.69,265.34,317.45,258.07,314.06,253.66z"/>
	<path class="st2" d="M295,242.57c-0.49-3.62-1.84-7.37-2.95-10.84c-0.85-2.67-4.92-3.62-6.34-0.83c-2.4,4.72-2.7,10.87,0.11,15.54
		c1.28,2.13,3.99,3.06,6.27,2.06C294.58,247.4,295.34,245.13,295,242.57z"/>
	<path class="st2" d="M246.38,242.64c-0.68-3.42-1.37-6.85-2.05-10.27c-1.04-5.19-9.66-4.08-9.3,1.26c0.23,3.48,0.47,6.97,0.7,10.45
		c0.26,3.83,0.53,7.08,3.91,9.38c1.52,1.03,4.18,0.72,5.4-0.7C247.72,249.64,247.14,246.45,246.38,242.64z"/>
	<path class="st2" d="M193.07,239.64c-0.72-5.65-8.09-5.66-8.81,0c-0.54,4.22-1.49,8.67-0.99,12.92c0.82,6.92,9.96,6.93,10.79,0
		C194.56,248.31,193.61,243.86,193.07,239.64z"/>
	<path class="st2" d="M146.98,237.36c-0.98-0.97-2.72-1.29-3.92-0.51c-2.56,1.66-2.43,4.27-2.77,7.02
		c-0.33,2.69-0.51,4.98-0.01,7.67c0.27,1.46,1.89,2.51,3.3,2.51c1.62,0,2.72-1.1,3.3-2.51c0.98-2.4,1.13-4.68,1.33-7.25
		C148.41,241.74,148.99,239.33,146.98,237.36z"/>
	<path class="st2" d="M110.63,231.6c-0.25-2.6-1.36-4.79-3.32-6.53c-2.22-1.97-6.01-0.69-6,2.49c0,1.17-0.26,2.02-0.48,2.97
		c-0.28,1.26-0.6,2.52-0.94,3.76c-1.21,4.45,4.8,8.44,8.07,4.7C109.82,236.87,110.91,234.48,110.63,231.6z"/>
	<path class="st2" d="M75.19,212.79c-0.63-0.63-1.6-0.91-2.46-0.65c-2.59,0.77-2.9,3.04-3.61,5.35c-0.74,2.39-1.44,4.74-1.97,7.19
		c-0.97,4.52,5.67,6.41,6.96,1.92c0.69-2.41,1.18-4.81,1.66-7.27C76.23,216.97,77.11,214.69,75.19,212.79z"/>
	<path class="st2" d="M327.09,206.42c-2.17-1.97-5.2-0.49-5.47,2.27c-0.47,4.84,0.22,10.27,0.95,15.06
		c0.27,1.78,2.35,3.06,4.02,3.06c1.98,0,3.33-1.34,4.02-3.06C332.85,218.22,331.64,210.55,327.09,206.42z"/>
	<path class="st2" d="M301.31,193.9c-2.29-2.45-5.94,0.66-4.49,3.47c0.99,1.91,1.49,3.93,1.43,6.08c-0.07,2.57-0.87,4.82,1.28,6.85
		c1.24,1.18,2.94,1.33,4.43,0.57C310.26,207.69,304.54,197.35,301.31,193.9z"/>
	<path class="st2" d="M268.32,201.64c-1.65-4.78-8.68-2.89-7.59,2.09c1.1,5.02,0.47,9.94,0,14.99c-0.47,5.05,6.87,5.4,8.38,1.13
		C271.19,213.96,270.33,207.44,268.32,201.64z"/>
	<path class="st2" d="M218.49,222.38c-0.07-1.59-0.09-3.22,0-4.81c0.25-4.21-5.47-5.18-7.51-2.03c-2.75,4.24-3.97,10.2-0.52,14.37
		c2.46,2.97,6.62,0.86,7.76-2.05C218.92,226.07,218.57,224.23,218.49,222.38z"/>
	<path class="st2" d="M173.99,210.7c-0.58-3.7-5.78-2.96-6.78,0c-0.66,1.93-1.42,3.83-2.12,5.75c-0.76,2.08-1.76,3.99-1.62,6.27
		c0.24,3.92,4.52,5.55,7.44,3.08C174.97,222.37,174.74,215.42,173.99,210.7z"/>
	<path class="st2" d="M131.49,202.77c-0.89,2.02-1.77,4.04-2.66,6.06c-0.98,2.24-2.01,4.35-1.98,6.86c0.05,3.17,4.43,5.51,6.72,2.78
		c2.92-3.47,3.58-8.54,4.77-12.81C139.45,201.7,133.24,198.78,131.49,202.77z"/>
	<path class="st2" d="M89.65,184.53c-0.82,4.77-2.69,10.49-1.66,15.29c0.75,3.46,6.1,4.21,7.71,1.01c2.2-4.38,1.83-10.35,2.23-15.17
		C98.33,180.96,90.46,179.83,89.65,184.53z"/>
	<g>
		<path class="st3" d="M232.69,104.66c25.04,23.02,11.82,64.42-16.13,78.89c-32.17,16.66-70.67-19.7-64.87-52.6
			c4.39-24.86,25.74-41.94,51.12-38.88C215.88,93.64,225.72,98.26,232.69,104.66z"/>
		<path d="M189.82,163.69c-24.4,7-42.89-20.45-27.05-40.42c14.09-17.76,45.01-9.13,44.63,14.54
			C207.2,149.68,202.01,160.19,189.82,163.69z"/>
		<path class="st3" d="M174.96,147.57c-5.41,6.44-16.93,1.98-16.18-6.65c0.6-6.91,7.52-12.06,13.21-7.85
			C176.73,136.57,179.17,142.56,174.96,147.57z"/>
	</g>
	<path class="st4" d="M71.44,34.94c-1.48,0.59-2.99,1.06-4.32,1.54c-4.38,1.61-8.88,2.78-13.5,3.49c-6.82,1.05-13.4,1.16-20.02,0.23
		c0.33-1.78,0.73-3.54,1.2-5.29c6.29-0.05,12.63-0.66,18.68-2.01c3.97-0.88,7.9-2,11.71-3.42c1.89-0.71,3.68-1.72,5.52-2.43
		C70.72,29.68,70.96,32.32,71.44,34.94z"/>
	<path class="st4" d="M81.37,57.16c-4.06,6.81-10.38,13-15.8,17.53c-7.01,5.85-14.95,9.84-23.71,11.78
		c-1.17-1.43-2.2-2.92-3.11-4.46c8.58-3.03,16-8.43,22.44-14.89c3.46-3.47,6.67-7.27,9.55-11.23c1.79-2.45,3.39-5.03,5.23-7.42
		c0.72,1.47,1.53,2.92,2.39,4.34C79.28,54.33,80.27,55.78,81.37,57.16z"/>
	<path class="st4" d="M358.12,80.09c-1.82,2.36-3.82,4.57-5.98,6.61c-0.29-0.43-0.59-0.85-0.9-1.28
		c-3.62-4.94-7.74-9.58-11.89-14.08c-4.28-4.64-8.8-9-13.35-13.37c-1.62-1.55-3.35-3.04-5.04-4.57c1.22-2.2,2.31-4.47,3.27-6.79
		c3.04,2.2,5.88,4.76,8.57,7.11c5.18,4.53,10.07,9.46,14.75,14.51C350.72,71.65,354.68,75.67,358.12,80.09z"/>
	<path class="st4" d="M369.18,52.4c-1.6-2.07-2.89-4.65-4.39-6.35c-3.19-3.62-6.87-6.77-10.95-9.35
		c-7.12-4.52-16.66-8.49-25.38-9.64c0.03-1.18,0-2.36-0.08-3.54c4.81-0.45,9.16-0.62,14.18,0.48c5.31,1.15,10.41,3.42,15.07,6.22
		c3.78,2.27,7.36,4.97,10.55,8.05v0.01C369.18,42.9,369.53,47.7,369.18,52.4z"/>
	<path class="st5" d="M268.66,241.76c-0.72-2.9-2.22-5.48-4.2-7.61c-0.8-1.67-2.18-2.7-3.78-3.18c-2.08-1.36-4.4-2.36-6.79-2.92
		c-8.38-1.96-16.29,2.13-23.08,6.58c-6.27,4.11-12.88,8.13-19.86,11.13c-0.88,0.09-1.76,0.17-2.64,0.24
		c-16.65,1.21-31.07-3.34-46.52-8.88c-2.85-1.02-6.04,0-8.25,1.99c-1.42-0.09-2.87-0.01-4.38,0.29
		c-7.52,1.53-13.14,7.98-13.11,15.76c0.03,7.43,4.96,14.01,10.66,18.3c12,9.01,29.81,11.18,44.37,11.05
		c0.74-0.01,1.5-0.02,2.28-0.04c17.71,2.29,36.33-1.67,51.67-10.74C255.25,267.69,272.07,255.54,268.66,241.76z"/>
</g>
</svg>
