<?xml version="1.0" encoding="utf-8"?>
<!-- Generator: Adobe Illustrator 24.0.1, SVG Export Plug-In . SVG Version: 6.00 Build 0)  -->
<svg version="1.1" id="Layer_1" xmlns="http://www.w3.org/2000/svg" xmlns:xlink="http://www.w3.org/1999/xlink" x="0px" y="0px"
	 viewBox="0 0 989.78 862.2" style="enable-background:new 0 0 989.78 862.2;" xml:space="preserve">
<style type="text/css">
	.st0{fill:#484796;}
	.st1{fill:#33348A;}
	.st2{fill:#5F6EB2;}
	.st3{fill:#F2EFF3;}
	.st4{fill:#D9D6EC;}
	.st5{fill:#DBD7EC;}
	.st6{fill:#282F6B;}
	.st7{fill:#FFFFFF;}
	.st8{fill:#D1CCE7;}
	.st9{fill:#422918;}
	.st10{fill:#BD9011;}
	.st11{fill:#E5A800;}
	.st12{fill:#FFDD00;}
	.st13{fill:#FBC163;}
	.st14{fill:#1C1B39;}
	.st15{fill:#2B1940;}
	.st16{fill:#110D1E;}
	.st17{fill:#E84163;}
	.st18{fill:#ED7180;}
	.st19{fill:#5659A2;}
</style>
<g>
	<path class="st0" d="M250.53,637.93c-1.38-3.66-12.95,4.34-44.84-58.38c-31.89-62.73-82.14-117.93-201.6-82c0,0-9.19,1.2,0-11.37
		c9.19-12.56,93.17-73.26,164.23-37.24c71.07,36.03,77.38,75.65,82.21,94.2C255.37,561.69,250.53,637.93,250.53,637.93z"/>
	<path class="st1" d="M228.02,526.16l0.89-30.94c-11.66-14.8-30.2-30.87-60.6-46.27c-10.59-5.37-21.47-8.58-32.36-10.13
		C154.66,447.05,201.3,472.13,228.02,526.16z"/>
	<path class="st0" d="M723.17,619.26c2.09-3.14,11.24,6.88,54.76-45.23c43.53-52.11,102.68-93.18,207.28-33.63
		c0,0,8.39,3.1,2.45-10.7c-5.93-13.79-71.82-88.98-146.42-70.43c-74.6,18.55-89.08,54.46-97.63,70.85
		C735.06,546.52,723.17,619.26,723.17,619.26z"/>
	<path class="st1" d="M841.24,459.26c-36.05,8.97-58.05,21.97-72.13,34.88l-29.65,110.3c0,0,31.72-25.26,47.4-60.52
		c15.67-35.25,21.37-84.83,84.97-87.37C861.89,455.92,851.65,456.68,841.24,459.26z"/>
	<path class="st0" d="M777.02,314.59c-15.26-89.02-550.3-59.74-550.3-59.74s-29.22,108.46,6.47,319.44
		c10.46,61.83,97.64,108.01,189.1,124.25c36.02-31.53,95.8-26.58,141.3-2.37c114.48-30.61,187.33-77.09,187.33-77.09
		S794.22,415,777.02,314.59z"/>
	<path class="st1" d="M419.65,673.37l8.67,20.4c36.21-26,91.61-20.55,134.57,2.05c2.72-15-0.28-40.6-47.37-50.87
		C447.04,630.02,419.65,673.37,419.65,673.37z"/>
	<path class="st0" d="M683.74,536.26c0,0,53.16-22.53,67.79,10.16c14.63,32.67-14.95,82.35,40.8,109.53
		c55.75,27.2,74.38,9.94,76.48,9.48c13.45-2.94,19.62-8.84,11.17,17.67c-8.45,26.52-108.87,63.9-190.75,5.44
		C607.35,630.08,648.23,551.9,683.74,536.26z"/>
	<path class="st1" d="M653.53,651.29c7.57,12.77,19.12,25.41,35.7,37.26c3.28,2.35,6.61,4.53,9.94,6.56
		c10.53-15.17,15.8-37.83,8.01-70.99c-9.14-38.91-39.79-49.84-39.79-49.84L653.53,651.29z"/>
	<path class="st0" d="M559.61,560.89c3.23-4.82,81.38-34.83,113.56,15.32c32.19,50.16,18.09,121.23-28.02,165.1
		c-46.11,43.9-87.08,75.21-72.46,103.72c0,0,4.34,20.23-11.23,16.77c-15.57-3.44-94.77-53.67-12.36-156.03
		c0,0,27.86-52.07-2.87-70.74C515.5,616.38,559.61,560.89,559.61,560.89z"/>
	<path class="st0" d="M305.65,538.65c0,0-53.16-22.52-67.8,10.16c-14.63,32.68,14.95,82.34-40.79,109.54
		c-55.76,27.2-74.38,9.93-76.48,9.47c-13.46-2.94-19.62-8.84-11.17,17.67c8.45,26.51,108.86,63.91,190.75,5.44
		C382.04,632.48,341.15,554.3,305.65,538.65z"/>
	<path class="st1" d="M322.68,592.53c-4.39-4.96-9.15-9.45-14.09-13.88c-0.69-0.61-1.5-1.43-2.37-2.27
		c-2.94,6.7-4.81,17.05-4.87,31.77c-0.09,21.41-4.2,36.24-10.26,47.05c-9.47,23.85-26.12,45.55-47.05,59.34
		c0.87,0.64,1.78,1.18,2.66,1.64c17.94-4.81,36.1-12.87,53.44-25.25c13.41-9.57,23.52-19.67,30.9-29.95
		c1.5-4.85,2.97-9.72,3.46-14.82c0.55-5.78,1.02-11.59,1.38-17.41C333.8,616.33,331.06,601.99,322.68,592.53z"/>
	<path class="st0" d="M406.21,576.28c-3.58-3.64-76.09-16.74-95.69,31.92c-19.59,48.67,4.29,107.8,51.38,138.17
		c47.08,30.37,87.66,50.72,79.71,77.77c0,0-0.42,18.21,12.47,12.66c12.9-5.53,73.13-61.99-14.96-136.96c0,0-32.66-40.45-9.15-61.64
		C453.48,617.01,406.21,576.28,406.21,576.28z"/>
	<g>
		<path class="st0" d="M226.71,254.85c0,0,9.29-190.44,240.62-212.13C665.14,24.19,777.62,170.5,777.51,307.36
			c-0.02,32.68-31.57,73.16-46.6,103.55C666.83,540.54,224.81,576.63,226.71,254.85z"/>
		<path class="st2" d="M701.32,337.82c-3.43,8.17,9.95-0.66,12.93,7.58c3.79,10.44,11.92,47.57,14,58.51
			c4.53,23.88,2.08,49.79,0.29,73.79c-1.39,18.57-7.78,37.03-11.97,55.04c-1.8,7.75-2.13,32.12-12.1,33.89
			c-9.09,1.62-16.48-7.77-17.89-15.4c-1.38-7.45-0.85-15.72-1.09-23.39c-0.41-12.64-5.49-30.18-19.69-31.03
			c-8.06-0.48-12.14,0.77-15.99,8.5c-4.23,8.52-4.94,16.69-6.41,25.83c-1.29,8.08-7.48,21.03-15.22,25.16
			c-13.73,7.33-32.77-8.11-41.66-17.35c-16.14-16.76-28.21-53.93-58.33-47.23c-11.49,2.56-21.01,18.21-28.1,26.84
			c-8.06,9.82-17.32,23.05-28.68,28.97c-29.04,15.11-45.13-30.81-57.67-47.82c-7.16-9.72-16.7-14.72-28.52-9.08
			c-7.13,3.4-15.14,9.6-19.74,16.08c-2.79,3.92-3.84,8.72-6.65,12.53c-7.14,9.67-19.64,17.21-31.87,17.37
			c-11.32,0.15-22.19-8.07-29.32-16.39c-13.66-15.92-12.79-33.97-15.03-53.53c-1.11-9.7-2-19.91-4.12-29.31
			c-1.68-7.42-4.1-13.89-5.02-21.45c-1.29-10.61-1.5-21.3-3.21-31.83c-1.29-7.86-2.45-15.93-2.83-23.91
			c-0.38-8.01,2.12-14.26,3.42-22.11c1.01-6.13,2.74-11.55,5.2-17.11c2.65-6.01,5.26-11.83,11.05-15.4c6.5-4.01,7.89-4.28,10.38,3.2
			c2.38,7.15,4.25,14.95,7.5,21.7c3.79,7.85,10.75,14.28,16.96,20.18c14.69,13.98,31.75,25.85,50.83,32.98
			c26.46,9.89,55.05,17.11,83.52,13.64c13.5-1.66,25.56-6.66,38.47-10.42"/>
		<path class="st0" d="M682.29,105.14c0,0,15.46-6.33,21.63,16.74c6.18,23.07-9.93,98.98,69.83,141.67c0,0,11.18,0.61,12.82,14.82
			c1.64,14.2-9.71,25.96-9.71,25.96s-75.54-38.8-88.11-91.81C676.18,159.52,682.29,105.14,682.29,105.14z"/>
		<g>
			<path class="st3" d="M293.96,132.53c0,0-65.5,0.55-70.71-117.07c0,0-6.28-15.17-21.57,3.41c-7.95,9.64-118.04,165.89,15,254.31
				C216.69,273.18,298.82,253.84,293.96,132.53z"/>
			<path class="st4" d="M285.09,131.17h0.01c0,0,9.7,45.74-22.96,81.72c0,0,22.96-35.99,9.77-86.95
				C276.89,128.64,281.44,130.23,285.09,131.17z"/>
			<path class="st4" d="M238.11,184.12c0,0,22.11-33.49,23.97-64.76c1.74,1.42,3.48,2.67,5.18,3.79
				C265.92,139.24,259.87,163.34,238.11,184.12z"/>
			<path class="st4" d="M242.4,209.91c0,0-11.85,32.46-50.24,43.69c-2.61-2.52-5.09-5.07-7.41-7.64
				C195.48,246.71,215.12,241.89,242.4,209.91z"/>
			<path class="st4" d="M249.18,105.91c2.51,3.32,5.09,6.24,7.69,8.79l0.01,0.01c0,0-24.76,84.53-101.54,76.31l0,0
				C155.95,191.07,217.47,195.34,249.18,105.91z"/>
			<path class="st4" d="M239.36,89.73c1.69,3.46,3.45,6.66,5.28,9.58c-4.86,10.25-26.31,49.22-72.48,51.44
				C172.17,150.75,213.69,142.68,239.36,89.73z"/>
			<path class="st4" d="M236.3,82.88c-38.84,51.15-73.63,12.51-73.91,12.2c0.01,0,0.01,0,0.01-0.01
				c36.36,13.93,62.95-7.49,72.16-16.63C235.13,79.95,235.7,81.44,236.3,82.88z"/>
			<path class="st4" d="M173.93,66.27c2.02-4.33,4.05-8.44,6.06-12.3c5.44,6.4,13.73,12.95,24.93,12.99
				C204.92,66.96,186.24,71.9,173.93,66.27z"/>
			<path class="st4" d="M204.92,45.83c0,0,10.73-3.35,20.31-7.21c0.4,3.11,0.85,6.12,1.34,9.02
				C222.83,49.5,215.43,51.42,204.92,45.83z"/>
			<path class="st5" d="M215.94,9.65c-65.47,105.87-23.21,218.57,20.36,203.85c37.75-12.76,46.5-65.71,48.35-82.44
				c5.66,1.5,9.31,1.48,9.31,1.48c4.86,121.31-77.27,140.64-77.27,140.64c-133.05-88.41-22.95-244.67-15-254.31
				C207.83,11.39,212.52,9.38,215.94,9.65z"/>
		</g>
		<path class="st0" d="M300.97,106.85c0,0-15.83-5.32-20.51,18.09c-4.67,23.43,16.29,98.14-60.55,145.88c0,0-11.11,1.32-11.84,15.61
			c-0.72,14.29,11.36,25.28,11.36,25.28s72.88-43.58,82.01-97.28C310.56,160.72,300.97,106.85,300.97,106.85z"/>
		<g>
			<path class="st6" d="M530.35,242.26c0,0,18.98,33.19,84.67,18.26c44.86-10.2,27.88-67.91,27.88-67.91L530.35,242.26z"/>
			<path class="st7" d="M530.95,243.3c0,0-7.7-9.98,1.6-40.34c3.04-9.94,27.86-63.69,75.68-48.95
				c47.82,14.72,50.76,91.78-7.02,99.94C543.42,262.1,534.12,246.47,530.95,243.3z"/>
			<path class="st8" d="M543.56,205.2c5.34-6.15,11.5-12.15,18.73-16.06c7.19-3.88,15.01-5.84,23.17-6.15
				c9.78-0.35,19.07,1.27,28.61,3.1c8.73,1.67,16.63,4.21,23.8,9.64c2.21,1.68,4.33,3.46,6.31,5.36
				c-1.47-20.36-13.96-40.3-35.95-47.08c-47.81-14.74-72.64,39.01-75.68,48.95c-4.06,13.24-4.87,22.6-4.51,28.94
				C531.05,222.12,536.74,213.05,543.56,205.2z"/>
			<g>
				<path class="st9" d="M552.69,170.75c0,0,11.74-14.11,32.17-4.96c20.44,9.16,33.26,59.06,6.1,74.26
					c-24.25,13.58-44.93-12.54-47.43-28.36C540.79,194.31,544,180.2,552.69,170.75z"/>
				<path class="st10" d="M555.15,174.42c0,0,10.42-12.51,28.54-4.4c18.13,8.12,29.51,52.39,5.41,65.88
					c-21.51,12.04-39.86-11.12-42.07-25.16C544.6,195.32,547.44,182.8,555.15,174.42z"/>
				<path class="st11" d="M560.88,184.2c0,0,7.97-10.62,21.83-3.72c13.86,6.89,22.57,44.48,4.14,55.93
					c-16.45,10.22-30.48-9.45-32.17-21.37C552.81,201.95,554.98,191.32,560.88,184.2z"/>
				<path class="st9" d="M564.07,189.31c0,0,5.62-6.74,15.4-2.37c9.77,4.37,15.91,28.25,2.91,35.52c-11.59,6.5-21.49-6-22.68-13.57
					C558.38,200.58,559.91,193.84,564.07,189.31z"/>
				<path class="st7" d="M559.85,181.26c-4.01-2.07-8.27-2.53-11.86-2.37c-0.26,0.48-0.59,0.9-0.97,1.3
					c-0.03,0.04-0.05,0.09-0.08,0.13c-0.33,0.64-0.74,1.24-1.26,1.77c-0.1,0.08-0.21,0.15-0.31,0.24c-1.67,3.91-4.13,7.45-5.7,11.47
					c-1.29,3.33-2.28,6.74-3.14,10.19c4.43,3.69,11.27,7.09,19.47,3.54C570.68,201.19,569.37,186.19,559.85,181.26z"/>
				<path class="st12" d="M589.11,235.9c1.71-0.96,3.24-2.08,4.6-3.32c-0.84-3.57-5.2-8.69-20.65-10.23
					c-15.25-1.52-14.18,8.8-14.14,9.09C566.66,238.58,577.41,242.44,589.11,235.9z"/>
				<path class="st13" d="M588.08,190.22c0,0-3.38-0.32-2.75,2.88c0.62,3.2,4.45,1.84,4.46-0.63
					C589.79,190.71,588.08,190.22,588.08,190.22z"/>
			</g>
		</g>
		<g>
			<path class="st6" d="M450.62,242.26c0,0-18.98,33.19-84.68,18.26c-44.87-10.2-27.88-67.91-27.88-67.91L450.62,242.26z"/>
			<path class="st7" d="M450.02,243.3c0,0,7.71-9.98-1.59-40.34c-3.04-9.94-27.87-63.69-75.68-48.95
				c-47.82,14.72-50.76,91.78,7.02,99.94C437.55,262.1,446.84,246.47,450.02,243.3z"/>
			<path class="st8" d="M437.4,205.2c-5.34-6.15-11.5-12.15-18.73-16.06c-7.19-3.88-15.01-5.84-23.17-6.15
				c-9.77-0.35-19.07,1.27-28.61,3.1c-8.73,1.67-16.63,4.21-23.8,9.64c-2.21,1.68-4.32,3.46-6.3,5.36
				c1.47-20.36,13.96-40.3,35.94-47.08c47.81-14.74,72.64,39.01,75.68,48.95c4.06,13.24,4.87,22.6,4.51,28.94
				C449.92,222.12,444.22,213.05,437.4,205.2z"/>
			<g>
				<path class="st9" d="M428.28,170.75c0,0-11.74-14.11-32.17-4.96c-20.44,9.16-33.27,59.06-6.11,74.26
					c24.25,13.58,44.94-12.54,47.42-28.36C440.17,194.31,436.97,180.2,428.28,170.75z"/>
				<path class="st10" d="M425.82,174.42c0,0-10.42-12.51-28.55-4.4c-18.12,8.12-29.51,52.39-5.41,65.88
					c21.51,12.04,39.86-11.12,42.08-25.16C436.37,195.32,433.53,182.8,425.82,174.42z"/>
				<path class="st11" d="M420.09,184.2c0,0-7.97-10.62-21.83-3.72c-13.87,6.89-22.57,44.48-4.14,55.93
					c16.45,10.22,30.48-9.45,32.17-21.37C428.16,201.95,425.99,191.32,420.09,184.2z"/>
				<path class="st9" d="M416.9,189.31c0,0-5.62-6.74-15.4-2.37c-9.77,4.37-15.91,28.25-2.92,35.52c11.6,6.5,21.49-6,22.69-13.57
					C422.59,200.58,421.06,193.84,416.9,189.31z"/>
				<path class="st13" d="M422.29,200.89c0,0-3.37-0.31-2.74,2.89c0.62,3.2,4.45,1.84,4.45-0.62
					C424.01,201.38,422.29,200.89,422.29,200.89z"/>
				<path class="st12" d="M391.86,235.9c-1.71-0.96-3.23-2.08-4.6-3.32c0.84-3.57,5.2-8.69,20.64-10.23
					c15.25-1.52,14.18,8.8,14.15,9.09C414.31,238.58,403.56,242.44,391.86,235.9z"/>
			</g>
			<g>
				<path class="st7" d="M396.22,177.54c-3.66-1.9-7.52-2.43-10.89-2.4c-5.2,7.06-8.98,16.77-10.3,26.7
					c4.37,2.96,10.36,4.99,17.36,1.95C407.06,197.45,405.74,182.45,396.22,177.54z"/>
			</g>
		</g>
		<g>
			<path class="st6" d="M523.39,270.52c0,0-13.06-8.66-24.89,5C486.66,289.18,527.04,288.27,523.39,270.52z"/>
			<path class="st6" d="M461.99,257.1c0,0-8.92-5.91-17.02,3.42C436.88,269.86,464.47,269.23,461.99,257.1z"/>
			<path class="st6" d="M486.2,270.63c0,0-7.27-5.71-16.32-0.81c-9.05,4.89-7.81,14.61-1.48,13.58
				C474.73,282.37,490.4,278.92,486.2,270.63z"/>
			<path class="st6" d="M479.2,248.29c0,0-2.93-3.84-7.1-1.96c-4.18,1.87-4.07,7.37-1.25,7.37
				C473.66,253.71,480.67,253.25,479.2,248.29z"/>
			<path class="st6" d="M534.31,258.48c0,0-2.41-4.42-6.79-3.03c-4.39,1.39-4.98,7.17-2.19,7.56
				C528.11,263.43,535.13,263.91,534.31,258.48z"/>
			<path class="st6" d="M515.72,251.07c0,0-14.42,11.27-22.26,6.4c-7.83-4.87,0.99-13.43,11.45-14.69
				C514.74,241.6,518.94,248.36,515.72,251.07z"/>
		</g>
		<g>
			<path class="st14" d="M514.99,233.21c0,0,41.31-50.04,130.42-78.75c0,0,8.06-30.51-32.4-20.55c0,0,28.33-11.4,17.67-21.6
				c-10.65-10.2-51.89-12.02-73.87,18.58c0,0,4.08-9.96,0.9-19.49C554.54,101.89,508.19,162.57,514.99,233.21z"/>
		</g>
		<g>
			<path class="st14" d="M461.92,233.21c0,0-41.31-50.04-130.41-78.75c0,0-8.06-30.51,32.4-20.55c0,0-28.32-11.4-17.67-21.6
				c10.65-10.2,51.89-12.02,73.87,18.58c0,0-4.08-9.96-0.9-19.49C422.37,101.89,468.72,162.57,461.92,233.21z"/>
		</g>
	</g>
	<g>
		<path class="st3" d="M696.47,122.9c0,0,65.51,0.55,70.71-117.07c0,0,6.28-15.17,21.58,3.4c7.94,9.65,118.03,165.89-15,254.31
			C773.75,263.55,691.62,244.21,696.47,122.9z"/>
		<path class="st4" d="M705.34,121.55L705.34,121.55c-0.01,0-9.72,45.74,22.94,81.72c0,0-22.95-35.99-9.77-86.95
			C713.55,119.01,709,120.6,705.34,121.55z"/>
		<path class="st4" d="M752.32,174.49c0,0-22.11-33.49-23.97-64.76c-1.74,1.41-3.48,2.67-5.19,3.79
			C724.51,129.61,730.56,153.72,752.32,174.49z"/>
		<path class="st4" d="M748.04,200.29c0,0,11.85,32.46,50.24,43.69c2.61-2.52,5.09-5.06,7.42-7.65
			C794.95,237.08,775.32,232.27,748.04,200.29z"/>
		<path class="st4" d="M741.25,96.28c-2.51,3.32-5.09,6.24-7.67,8.79l-0.01,0.02c0,0,24.76,84.52,101.53,76.31l0,0
			C834.48,181.45,772.96,185.72,741.25,96.28z"/>
		<path class="st4" d="M751.06,80.11c-1.69,3.46-3.45,6.63-5.28,9.57c4.87,10.26,26.32,49.23,72.49,51.44
			C818.27,141.12,776.74,133.06,751.06,80.11z"/>
		<path class="st4" d="M754.14,73.25c38.83,51.15,73.63,12.51,73.89,12.2v-0.01c-36.36,13.92-62.95-7.49-72.16-16.64
			C755.31,70.33,754.73,71.81,754.14,73.25z"/>
		<path class="st4" d="M816.49,56.64c-2-4.33-4.04-8.44-6.05-12.3c-5.44,6.41-13.74,12.95-24.92,12.99
			C785.52,57.33,804.19,62.27,816.49,56.64z"/>
		<path class="st4" d="M785.52,36.2c0,0-10.73-3.36-20.31-7.2c-0.4,3.11-0.85,6.12-1.34,9.02C767.6,39.89,775,41.79,785.52,36.2z"/>
		<path class="st5" d="M774.5,0.03c65.45,105.86,23.21,218.57-20.36,203.85c-37.76-12.76-46.51-65.71-48.35-82.45
			c-5.65,1.51-9.32,1.48-9.32,1.48c-4.85,121.3,77.28,140.65,77.28,140.65c133.04-88.42,22.95-244.66,15-254.31
			C782.6,1.77,777.91-0.24,774.5,0.03z"/>
	</g>
	<path class="st15" d="M673.81,253.6c36.53,100.82-127.87,103.37-175.2,102.08l0.01-0.53c0,0-2.26,0.15-6.23,0.32
		c-3.97-0.16-6.23-0.32-6.23-0.32l0.05,0.53c-47.26,1.3-211.79-1.22-175.25-102.08c0,0-161.18,231.28,186.64,220.79
		C845.43,484.88,673.81,253.6,673.81,253.6z"/>
	<path class="st16" d="M464.84,455.09c0,0-9.37-7.32-6.21-22.37c3.38-16.14,20.11-16.82,23.57-11.89
		c3.45,4.96-0.04,10.83-0.41,16.07c-0.38,5.23,8.83,13.98,16.35,9.16c7.52-4.82,3.58-16.53,4.98-22.22
		c1.42-5.7,9.55-5.97,16.24-0.31c6.7,5.67,10.19,27.96-3.95,36.42C501.26,468.44,475.45,469.45,464.84,455.09z"/>
	<path class="st17" d="M494.5,459.68c-49.29-17.9-101.97-5.56-128.07,2.95c32.41,8.87,75.18,13.45,131.17,11.76
		c45.22,1.36,81.63-1.37,110.81-7.13C558.82,442.58,494.5,459.68,494.5,459.68z"/>
	<path class="st18" d="M453.31,453.23c-49.33-3.7-77.63,10.72-77.63,10.72c-0.67,0.19-1.14,0.42-1.47,0.66
		c6.29,1.51,12.93,2.87,19.96,4.07c25.22-13.98,60.54-11.23,63.37-12.47C460.61,454.86,453.31,453.23,453.31,453.23z"/>
	<path class="st7" d="M567.81,352.86c-21.64,2.51-42.24,3.07-57.34,3.02c1.64,7.85,7.86,31.61,25,46.27
		C552.73,416.91,566.02,375.46,567.81,352.86z"/>
	<path class="st7" d="M493.33,436.8c-20.79-2.46-31.42,20.32-35,37.72c12.32,0.32,25.39,0.29,39.28-0.13
		c8.92,0.26,17.46,0.37,25.7,0.32C519.5,459.4,511.12,438.9,493.33,436.8z"/>
	<path class="st7" d="M419.65,472.13c-0.82-15.79-5.14-37.62-22.28-43.08c-19.95-6.35-34.72,14.03-41.51,30.44
		C373.49,465.23,394.57,469.57,419.65,472.13z"/>
	<path class="st7" d="M318.87,442.56c4.91-14.81,8.31-35.29-4.87-46.36c-10.48-8.79-23.25-6.22-34.34,0.15
		C286.1,413.51,298.29,429.54,318.87,442.56z"/>
	<path class="st7" d="M631,461.79c-7.1-12.36-17.91-24.64-32.58-23.54c-17.32,1.29-24.45,18.3-26.48,34.2
		C594.86,470.28,614.41,466.64,631,461.79z"/>
	<path class="st7" d="M707.19,407.22c-8.35-4.16-17.45-5.9-26.06-1.82c-15.5,7.35-16.22,25.43-12.55,40.87
		C687.66,435.31,699.91,421.87,707.19,407.22z"/>
	<g>
		<path class="st8" d="M486.78,468.58c-8.89-0.29-17.79-0.53-26.69-0.93c-0.69,2.34-1.31,4.64-1.77,6.87
			c12.32,0.32,25.39,0.29,39.28-0.13c8.92,0.26,17.46,0.37,25.7,0.32c-0.43-1.75-0.95-3.58-1.52-5.43
			C510.16,469.26,498.48,468.96,486.78,468.58z"/>
		<path class="st8" d="M411.79,462.37c-16.96-3.47-33.95-8.03-50.43-13.69c-2.17,3.6-4.03,7.28-5.49,10.81
			c17.62,5.74,38.71,10.09,63.79,12.64c-0.14-2.69-0.39-5.55-0.78-8.47C416.51,463.24,414.14,462.84,411.79,462.37z"/>
		<path class="st8" d="M290.46,406.93c-3.32-2.35-6.52-4.83-9.55-7.44c6.72,15.97,18.64,30.85,37.96,43.07
			c1.13-3.42,2.15-7.17,2.94-11C310.23,424.99,299.56,416.98,290.46,406.93z"/>
		<path class="st8" d="M572.86,467.04c-0.37,1.81-0.69,3.61-0.92,5.41c22.92-2.17,42.47-5.8,59.06-10.66
			c-1.06-1.84-2.23-3.66-3.44-5.45C609.49,461.84,591.25,465.15,572.86,467.04z"/>
		<path class="st8" d="M691.78,428.31c-8.18,3.76-16.26,7.8-24.39,11.73c0.31,2.09,0.71,4.19,1.19,6.23
			c9.57-5.5,17.39-11.63,23.74-18.21C692.14,428.14,691.96,428.24,691.78,428.31z"/>
	</g>
	<path class="st7" d="M620.78,378.07c17.2,7.47,20.57-20.9,18.48-43.48c-14.89,7.19-32.57,12.02-50.54,15.22
		C595.09,359.01,605.93,371.6,620.78,378.07z"/>
	<path class="st7" d="M660.19,321.07c5.36,3.33,11.63,6.23,18.52,7.48c19.07,3.44,8.53-36.47,0.29-49.96
		C679.61,296.57,672.29,310.42,660.19,321.07z"/>
	<path class="st7" d="M419.36,353.12c2.47,22.98,15.44,61.27,32.13,47c15.86-13.57,22.36-34.92,24.55-44.27
		C461.36,355.96,440.95,355.5,419.36,353.12z"/>
	<path class="st7" d="M366.19,376.04c13.73-5.97,24.03-17.19,30.53-26.12c-17.42-3.08-34.59-7.66-49.25-14.41
		C345.93,357.52,349.74,383.2,366.19,376.04z"/>
	<path class="st7" d="M308.25,326.54c5.77-1.05,11.1-3.27,15.83-5.9c-11.32-10.16-18.31-23.21-18.34-39.9
		C298.09,296.8,290.87,329.68,308.25,326.54z"/>
	<g>
		<path class="st8" d="M564.42,372.21c1.78-6.85,2.94-13.69,3.4-19.35c-21.64,2.51-42.24,3.07-57.34,3.02
			c0.77,3.65,2.55,10.8,5.96,18.86C532.45,374.34,548.44,373.43,564.42,372.21z"/>
		<path class="st8" d="M605.57,368.53c1.02-0.12,2.06-0.2,3.08-0.31c9.86-0.99,20.03-3.29,29.99-6.71
			c1.4-8.17,1.43-17.99,0.61-26.93c-14.89,7.19-32.57,12.02-50.54,15.22C592.66,355.5,598.32,362.49,605.57,368.53z"/>
		<path class="st8" d="M660.19,321.07c5.36,3.33,11.63,6.23,18.52,7.48c19.07,3.44,8.53-36.47,0.29-49.96
			C679.61,296.57,672.29,310.42,660.19,321.07z"/>
		<path class="st8" d="M469.9,374.19c3.25-7.35,5.15-14.09,6.15-18.33c-14.69,0.11-35.1-0.35-56.68-2.73
			c0.52,4.88,1.53,10.46,2.93,16.07C437.99,371.85,453.91,373.37,469.9,374.19z"/>
		<path class="st8" d="M354.29,348.32c10.74,5.17,21.77,9.34,33,12.74c3.71-3.76,6.88-7.62,9.43-11.13
			c-17.42-3.08-34.59-7.66-49.25-14.41c-0.2,2.93-0.31,5.93-0.31,8.91C349.45,345.8,351.79,347.13,354.29,348.32z"/>
		<path class="st8" d="M318.16,314.63c1.43,2.35,2.93,4.58,4.48,6.75c0.48-0.25,0.98-0.49,1.45-0.75c-2.18-1.96-4.2-4.04-6.05-6.22
			C318.07,314.49,318.11,314.56,318.16,314.63z"/>
		<path class="st8" d="M306.16,287.42c-0.26-2.16-0.41-4.39-0.41-6.68c-0.36,0.75-0.71,1.54-1.06,2.35
			C305.17,284.53,305.66,285.98,306.16,287.42z"/>
	</g>
	<path class="st19" d="M352.07,73.81C374.8,87.25,428.2,96.7,490.47,96.7c66.23,0,122.39-10.68,142.32-25.5
		c-45.44-23-100.9-34.52-165.46-28.48C420.34,47.12,382.52,58.5,352.07,73.81z"/>
	<g>
		<path class="st6" d="M474.78,740.65c0.82,2.04,1.62,3.49,2.41,4.42C476.42,743.61,475.63,742.13,474.78,740.65z"/>
		<path class="st1" d="M465.66,727.13c-6.78-8.77-15.49-17.87-26.54-27.28c0,0-32.66-40.45-9.15-61.64
			c4.56-4.11,6.43-8.95,6.53-14.08c-0.3,0.09-37.51,12.21-27.35,43.41C417.4,692.87,448.76,708.93,465.66,727.13z"/>
	</g>
</g>
</svg>
