<?xml version="1.0" encoding="utf-8"?>
<!-- Generator: Adobe Illustrator 24.0.1, SVG Export Plug-In . SVG Version: 6.00 Build 0)  -->
<svg version="1.1" id="Layer_1" xmlns="http://www.w3.org/2000/svg" xmlns:xlink="http://www.w3.org/1999/xlink" x="0px" y="0px"
	 viewBox="0 0 290.82 235.2" style="enable-background:new 0 0 290.82 235.2;" xml:space="preserve">
<style type="text/css">
	.st0{fill:#F7EC3D;}
	.st1{fill:#FFFFFF;}
	.st2{fill:#CEBE2C;}
</style>
<path class="st0" d="M8.12,221.6c1.7,0,3.3,0.2,4.9,0c3.9-0.7,7.8-0.5,11.6-0.2c2.2,0.2,4.4,0.2,6.6,0.3c2.4,0.1,4.8,0,7.2,0.6
	c4.1,1,8.3,1.5,12.5,1.6c0.4,0,0.8,0.1,1.3,0.2c3.5,0.3,6.9,0.7,10.4,1c2.8,0.2,5.7,0.4,8.5,0.6c5.1,0.4,10.3,0.9,15.4,1.2
	c5,0.2,10.1,0.1,15.2,0.2c3.6,0.1,7.1,0.3,10.7,0.4c2.9,0.1,5.9,0.1,8.8,0.3c4.8,0.3,9.7,0.8,14.5,1c4.5,0.1,9,0.7,13.5,1.1
	c3.8,0.4,7.5,1.1,11.3,0.9c0.9,0,1.9,0.1,2.8,0.1c4.9,0.3,9.9,0.8,14.8,0.9c5.9,0.2,11.8,0.1,17.7,0c4.2-0.1,8.4-0.4,12.6-0.6
	c0.8,0,1.7-0.1,2.5-0.2c4.3-0.3,8.6-0.6,12.9-0.7c5.7-0.2,11.3-0.6,17-1c4.2-0.3,8.4-0.8,12.6-1.2c1.4-0.1,2.7-0.2,4.1-0.3
	c2.8-0.3,5.6-0.7,8.5-0.7c4-0.1,8-0.7,11.9-1c1.5-0.1,2.9-0.3,4.4-0.4c1.3-0.1,1.9-0.9,2.1-2c0.3-1.9,0.7-3.8,0.7-5.6
	c-0.1-7.1-0.3-14.1-0.6-21.1c-0.2-4.6-0.7-9.2-1.1-13.8c-0.3-3.6-0.5-7.1-0.8-10.7c-0.2-2.6-0.7-5.2-0.2-7.9c0.1-0.3,0-0.6,0-0.9
	c-0.1-2,0-4-0.2-6s-0.8-3.9-0.9-5.9c-0.2-2-0.9-3.9-1.2-5.8c-0.6-3.7-1.3-7.5-1.8-11.2c-0.3-2.2-0.6-4.4-1.2-6.5
	c-0.6-2.3-1.5-4.6-1.9-7c-1-6-2.4-11.9-4.2-17.8c-0.8-2.5-1.4-5.1-2.5-7.5c-2.1-4.9-4.4-9.8-6.8-14.6c-1.4-2.8-3-5.6-5-8
	c-3.2-3.9-6.3-7.9-9.7-11.6c-1.9-2.2-4-4.4-6.4-6.1c-4.1-3-8.2-5.9-12.1-9.1c-3.8-3.1-7.7-5.8-12.2-7.8c-3.5-1.5-6.8-3.2-10.3-4.9
	c-3.7-1.8-7.5-3.3-11.4-4.4c-3.8-1-7.4-2.3-11.2-3.4c-2.2-0.7-4.5-1.2-6.7-1.8c-4.5-1.1-9.2-0.9-13.8-1.3c-4.9-0.4-9.9-0.6-14.8-0.9
	c-0.3,0-0.6,0-0.9-0.1c-2.7-0.7-5.5-0.3-8.2-0.2c-2.3,0.1-4.6,0.4-6.9,0.5c-4.9,0.3-9.9,0.8-14.7,1.8c-2.6,0.6-5.1,1.4-7.6,2.1
	c-0.9,0.3-1.8,0.5-2.7,0.8c-5.1,2.1-10.3,3.7-15.5,5.4c-0.8,0.3-1.7,0.3-2.4,0.6c-3.1,1.2-6.2,2.5-9.4,3.7c-3,1.1-6.1,2.2-9.2,3.3
	c-0.9,0.3-1.8,0.7-2.6,1.2c-3.3,2.2-6.8,4.2-9.5,7.2c-0.8,0.9-1.8,1.8-2.9,2.5c-1.9,1.2-3.3,2.9-4.7,4.6c-0.9,1.1-1.7,2.4-2.5,3.6
	c-1,1.4-2,2.6-2.5,4.3c-0.2,0.8-0.9,1.4-1.4,2.1c-1.2,1.7-2.6,3.4-3.5,5.2c-1.9,4.1-4.7,7.7-6.7,11.7c-2.4,4.8-4.9,9.5-7.4,14.3
	c-0.4,0.8-0.8,1.7-1.2,2.6c-2,4.6-3.9,9.3-6.4,13.7c-0.2,0.4-0.4,0.8-0.5,1.1c-1.2,2.9-2.5,5.8-3.6,8.7c-1.2,3-2.5,6-3.4,9.2
	c-1.2,4.2-2.1,8.6-2.9,12.9c-0.9,4.7-1.7,9.5-2,14.3c-0.2,4.5-0.5,9-1.1,13.5c-0.7,4.9-0.7,9.9-1,14.8c-0.6,7.5,0,14.9,1,22.4
	c0.3,2.7,0.1,5.5,1,8.1C7.52,219,7.72,220.2,8.12,221.6z"/>
<path class="st1" d="M14.32,73.3c1.4-0.2,2.8-0.4,4.3-0.7c3.9-0.7,7.8-1.8,11.5-3.2c3.3-1.3,6-3.4,9-5.2c0.6-0.4,1.1-1,1.5-1.6
	c1.3-1.8,2.5-3.6,3.7-5.5c1.9-2.8,3.7-5.6,6.2-7.9c1-0.9,2-1.9,3-2.8c-1.5-1.7-2.9-3.1-4.8-4.2c-1.2,1.1-2.2,2.2-3.4,3
	c-3.6,2.4-7.2,4.8-11,6.8s-7.6,3.6-11.9,3.7c-0.5,0-1,0.2-1.5,0.3c-1.8,0.3-3.5,0.5-5.3,0.8c-0.5,0.1-1,0.2-1.4,0.3
	C13.52,61.3,13.52,70.4,14.32,73.3z"/>
<path class="st1" d="M228.12,40.4c0.4,0.5,0.7,0.8,1,1c2.9,2.3,5.8,4.5,8.7,6.8c4.6,3.6,9.7,6.7,13.6,11.2c0.4,0.5,1,0.9,1.5,1.1
	c2.6,0.6,5.1,1.2,7.7,1.4c2.5,0.2,5,0,7.6-0.1c0.6,0,1.2-0.2,1.7-0.3c1-2.8,1.4-6.7,1.1-9.2c-0.6-0.2-1.3-0.4-2-0.6
	c-2.9-0.8-5.9-1.6-8.8-2.5c-5.1-1.6-9.6-4.3-14.3-6.6c-2.9-1.5-5.6-3.3-8.1-5.5c-0.7-0.6-1.5-1.1-2.2-1.6
	C233.12,37.1,230.72,38.7,228.12,40.4z"/>
<path class="st1" d="M270.42,34.9c-0.7-0.1-1.1-0.3-1.5-0.3c-4.5-0.4-8.9-1.7-13.2-2.8c-3.7-1-7.1-2.7-10.1-5
	c-0.9-0.7-1.5-0.6-2.2,0.2c-1.2,1.4-2.3,2.7-3.5,4.1c-0.4,0.5-1,0.8-0.8,1.7c2.2,2,4.3,4.2,7,5.6c0.5,0.2,0.9,0.6,1.3,0.9
	c1,0.6,2,1.2,3,1.7c2,0.9,4.3,1.4,6.1,2.5c2.1,1.4,4.4,2.1,6.6,2.9c2.5,0.9,5.1,1.8,8,2.1C272.22,43.9,271.42,39.5,270.42,34.9z"/>
<path class="st1" d="M17.92,40c-1.8,3.6-2.5,7.6-3.2,11.7c-0.1,0.6-0.4,1.2,0.3,1.9c0.4,0,0.9,0,1.4-0.1c2.4-0.6,4.9-1.1,7.4-1.2
	c1.2-0.1,2.3-0.5,3.3-1c5-2.5,9.9-5.1,14.4-8.3c1.4-1,2.8-2.1,3.9-3.4c-1.6-1.6-3-3.1-4.7-4.9c-3.2,2.2-6.9,3.9-10.8,4.5
	C26.12,39.5,22.12,39.7,17.92,40z"/>
<path class="st1" d="M246.82,23.5c1.3,1.1,2.8,2.1,4.4,2.9c2.3,1.3,4.9,2,7.3,2.8c3.2,1.1,6.5,1.6,9.8,2c0.3,0,0.6-0.1,1-0.2
	c0-0.8,0.2-1.7,0-2.5c-0.9-3.5-1.3-7.2-3.1-10.5c-4.8-0.2-9.5-0.6-13.8-2.3C250.12,17.7,247.72,21.1,246.82,23.5z"/>
<path class="st1" d="M14.62,77.1c0.8,2.8,1.3,5.2,2.2,7.6c1.3,3.3,2.4,6.8,5,9.4c0.3,0.3,0.8,0.5,1.3,0.8c0.7-1.5,1.4-2.8,2-4.2
	c0.6-1.3,1.2-2.7,1.8-4c0.6-1.2,1.2-2.5,1.8-3.7c0.7-1.3,1.5-2.5,2.2-3.8s1.5-2.5,2.1-3.9c0.6-1.3,1.9-2.2,2-4.1
	c-0.7,0.2-1.3,0.3-1.7,0.5c-2,1-4,1.8-6.2,2.3c-3.3,0.7-6.5,1.5-9.8,2.3C16.62,76.5,15.82,76.8,14.62,77.1z"/>
<path class="st1" d="M22.32,28.4c-1.2,2.7-2.8,5-3.2,8c0.8,0.1,1.4,0.1,2,0.2c2.8,0.1,5.4-0.8,8.1-1.1c3.4-0.5,6.1-2.2,8.9-3.9
	c0.5-0.3,0.7-0.8,0.5-1.3c-0.8-2-1.6-4-2.5-6.2c-2.3,0.9-4.4,1.8-6.6,2.5C27.32,27.3,24.92,27.8,22.32,28.4z"/>
<path class="st1" d="M255.62,64.4c1.4,1.9,2.1,3.6,3.6,4.9c1.8,1.5,3.2,3.3,4.4,5.3c0.3,0.6,0.9,1.1,1.4,1.8
	c0.4-0.5,0.7-0.8,0.8-1.2c1.1-3,2.2-6.1,3.3-9.2c0.1-0.2-0.1-0.6-0.2-0.9c-2.2,0-4.2,0.1-6.3,0C260.52,65,258.32,64.7,255.62,64.4z"
	/>
<path class="st1" d="M264.52,14.2c-1.5-3.1-2.8-6.2-5.2-8.5c-1.6,0.9-2,2.3-2.8,3.6c-0.8,1.2-2,2.1-2.5,3.6c1.1,0.8,2.3,1.1,3.6,1.3
	c1.5,0.2,2.9,0.5,4.3,0.7C262.72,15.1,263.62,15.1,264.52,14.2z"/>
<path class="st1" d="M32.82,13.9c-2.4,1.6-6.6,6.9-8.2,10.5c4-0.7,7.1-2.7,10.6-4.1C34.72,18.1,33.52,16.1,32.82,13.9z"/>
<path class="st0" d="M205.02,74.2c-1.5,1.9-3.4,2.1-5.5,1.2c-1.2,0.6-2,2-3.7,1.7c-1.4-0.2-2.3-0.9-3.1-1.9
	c-0.3,0.1-0.5,0.1-0.6,0.2c-1,1.8-2.4,2.1-4.3,1.6c-0.5-0.1-1.1-0.3-1.5-0.1c-1.9,0.8-3.5,0.1-5-1.1c-0.3,0.2-0.7,0.3-0.8,0.5
	c-0.8,1.6-2.1,1.8-3.7,1.4c-1.5-0.4-3.1-0.8-4.6-0.9c-1.1-0.1-2.3,0.1-3.4,0.2c-0.3,0.2-0.6,0.4-0.8,0.6c-1,1.5-2.3,2.1-4,1.4
	c-0.7-0.2-1.4-0.2-2.2-0.3c-0.9-0.1-1.9-0.2-2.8-0.3c-0.5-0.1-1-0.2-1.5-0.2c-2.5,0-2.5,0-4.5-1.1c-0.6,0.7-1.1,1.4-1.7,2.1
	c-1.5,0.2-2.9,0.1-4.3-0.7c-1.2-0.6-2.5-0.8-3.8-1.2c-0.7,0.7-1.3,1.2-2,1.9c-2-0.5-3.9-0.7-5.9-0.4c-0.5,0.1-1.1,0-1.5-0.2
	c-0.9-0.5-1.8-0.4-2.7-0.3c-0.7,0.1-1.4-0.2-2.2-0.3c-2.3-0.4-4.5-0.8-6.8-0.8c-0.9,0-1.9-0.1-3-0.2c-0.4,0.3-0.8,0.8-1.4,1
	c-0.7,0.2-1.5,0.2-2.2,0.1c-0.8-0.1-1.6-0.3-2.4,0.3c-0.9,0.7-2,0.4-3.1,0.3c-1.7-0.3-3.5-0.7-5.2-1c-0.8,0.3-0.8,1.1-1.1,1.8
	c-1,2.6-2.4,2.8-4.5,2.1c-2.2-0.8-4.5-0.9-6.7-1.4c-1.2-0.3-2.4-0.6-3.6-1.1c-0.5-0.2-0.9-0.8-1.4-1.2c-1.3,0.6-2.6,1.4-3.9,1.7
	c-1.3,0.3-2.7-0.1-4.1-0.2c-0.6,1.3-1.1,2.6-1.6,3.7c-1.6,0.7-3,0-4.6-0.1c-0.7,1.7-1.5,3.5-2.2,5.2c-0.9,0-1.8,0.1-2.6,0
	c-1.3-0.2-2-1.3-1.6-2.5c0.2-0.8,0.6-1.6,0.8-2.3c-1.1-0.9-1.1-0.9-1.7-0.2c-0.2,0.2-0.3,0.6-0.5,0.8c-0.8,0.8-1.7,1.2-2.9,0.9
	c-1.1-0.3-1.8-1-1.9-2.3c-0.9,0.7-1,1.7-1.4,2.5c-0.4,0.9-1,1.3-2,1.1c-1.2-0.2-2.5-0.4-3.7-0.8c-0.5-0.2-1.3-0.7-1.4-1.2
	c-0.1-1.6-1.6-2.1-2.5-3c0.4-2,0.6-4,1.1-5.9c0.5-1.8,0.3-3.3-1-4.6c-0.1-0.2-0.2-0.4-0.3-0.5c-0.3-0.7,0.2-1.7,0.9-1.7
	c1-0.1,2.1,0.1,3.2,0.2c0.8-0.3,0.9-1.2,1.2-2c0.6-1.5,1.7-2,3.2-1.9c0.7,0,1.4,0.1,2.3,0.2c0.8-1.3,1.2-3.1,3.2-3.2
	c1.9-0.1,3,0.8,3.2,2.8c1.1-0.6,1.9-1.3,2.7-1.4c1.1-0.1,1.5-1,2.2-1.6c0.2-0.2,0.5-0.3,0.8-0.4c1-0.3,2-0.5,3.1-0.7
	c0.6-0.1,1.3,0,1.9,0.1c0.7,0.1,1.4,0.4,2.2,0.6c0.5-0.4,0.9-0.9,1.3-1.3c1.2-1,2.9-1.1,4,0c1.7,1.6,3.3,1.3,5.2,0.4
	c0.5-0.3,1.2-0.5,1.8-0.5c1.2,0,2.5,0.3,3.7-0.5c0.2-0.1,0.6-0.1,0.9,0c2.5,0.7,5.2,0.8,7.8,1.1c0.8,0.1,1.5,0.6,2.4,0.9
	c1-0.4,1-2.1,2.3-2.2c1,0,2,0.2,3.3,0.3c0.5-0.4,1.2-1.2,2-1.4c0.9-0.3,1.9-0.1,2.9-0.1c0.3-0.4,0.6-0.8,0.9-1.3
	c0.3-0.4,0.7-0.8,1.1-1.2c0.7,0.2,1.3,0.3,1.8,0.5c1,0.4,1.9,0.9,3,0.3c0.3-0.2,0.8,0,1.2,0.1c0.9,0.2,1.6,0.2,2.4-0.3
	c1.4-0.9,2.8-0.5,3.7,0.7c1.1,1.5,2.7,1.8,4.1,1.5c1.5-0.3,2.7-0.1,4,0.3c0.2-0.1,0.4-0.2,0.5-0.3c0.9-1.4,2.1-1.7,3.5-0.9
	c0.8,0.4,1.5,0.7,2.4,0.3c1.2-0.5,2.2,0.4,3.3,0.5c1,0.1,1.9-0.8,3-0.6c1.1,0.2,1.9,0.8,2.6,1.8c1.5-1.4,3.2-1.8,4.9-0.6
	c1-0.6,1.7-1.5,3.1-1.4c1.2,0.1,2.1,0.8,3.1,1.5c0.3-0.4,0.4-0.7,0.6-0.9c0.9-1.8,1.9-2.2,3.4-1.3c1.3,0.8,2.5,1.4,4,1.9
	c0.2-0.2,0.4-0.4,0.6-0.6c1.1-2.5,1.1-2.5,3.7-2.4c0.4,0,0.9,0.2,1.2,0c1.4-0.9,2.8-0.5,4.2,0c2.3-2.5,3.1-2.5,5.8,0
	c0.8-0.2,1.3-1.2,2.4-1.1c1.8,0.1,2.6,1.1,2.2,3c-0.1,0.7-0.3,1.4-0.5,2.2c-0.1,0.4,0,0.8,0,1.2c0.8,0.2,0.8-0.3,0.9-0.6
	c0.6-1.4,1.1-3,1.8-4.4c0.8-1.7,2.9-2,4.3-0.8c0.4,0.3,0.5,0.7,1,2.5c0.4-0.5,0.6-0.9,0.9-1.3c0.2-0.5,0.4-1,0.6-1.4
	c0.7-1.2,1.7-1.6,2.9-1.1c1.3,0.6,2.5,1,3.9,0.7c0.6-0.1,1.3,0.1,1.8,0.4c0.7,0.3,1.4,0.4,2.1,0.3c0.5-0.1,1.1,0,1.5,0.1
	c0.9,0.2,1.5,0.9,1.5,1.8c0,0.8-0.1,1.7-0.2,2.5c0.9-0.1,0.8-0.9,1.1-1.5c1-1.8,2.3-2.2,3.8-1.1c0.8,0.6,1.6,0.8,2.6,0.9
	c1.8,0.1,2.4,0.8,2.4,2.6c0,0.9-0.1,1.9-0.3,2.8c-0.3,2.6-0.7,5.2-1,7.8c-0.1,1.2,0,2.5,0,3.7c-2,1.4-2.6,1.4-4.7-0.5
	c-1.6,0.2-3,0.4-4.8,0.6c-0.4,0.6-1,1.5-1.7,2.4c-1.8,0.8-3.5,0.6-4.7-1.2c-0.4-0.6-0.9-0.8-1.5-0.9
	C207.02,74.9,206.22,74.5,205.02,74.2z"/>
<path class="st0" d="M53.02,97.4c-2.2,0-4.1,0-5.9,0c-1.3,0-2.5-0.1-3.7-0.6c-0.7-0.3-1.1-0.9-0.9-1.4c0.2-0.7,0.6-1.1,1.3-1.2
	c1-0.1,2.1-0.1,3.1-0.2c1.4-0.1,2.7-0.3,4.1-0.4c1.2-0.1,2.3-0.2,3.5,0c5.1,0.8,10.3,0.4,15.4,0.4c3.3,0,6.5-0.2,9.8-0.5
	c2.5-0.2,5-0.7,7.5-0.9c5.5-0.5,11.1-1.1,16.7-1.1c3.6,0,7.2,0,10.7-0.1c2.4-0.1,4.8-0.2,7.2-0.6c2.8-0.5,5.4,0.1,8.1,0.2
	c1.6,0.1,3.1,0.4,4.7,0.6c0.7,0.1,1.5,0.3,2.1,0.7c0.3,0.2,0.5,0.9,0.6,1.3c0,0.6-0.4,0.9-1,1c-2.4,0.4-4.8,0.8-7.1,1.3
	c-0.4,0.1-0.8,0.3-1.1,0.4c-0.1,0.3-0.2,0.6-0.2,0.7c0.7,2.3,0.5,4.6-0.1,6.9c-0.7,2.9-1.3,5.7-2,8.6c-0.2,1.1-0.6,2.3-0.5,3.4
	c0.1,1.3-0.3,2.3-1,3.2c-0.6,0.7-1.3,1.4-1.9,2.1c-0.5,0.5-1.2,1-1.6,1.5c-1.5,2.1-3.5,3.6-5.5,5.2c-1.4,1.1-2.9,2.1-4.5,2.8
	c-1.7,0.7-3.3,1.8-5,2.7c-1.5,0.9-2.9,1.6-4.5,2.1c-1.8,0.6-3.6,1.3-5.3,2c-3,1.3-6.2,2-9.5,2.2c-2.8,0.1-5.6,0.5-8.5,0.8
	c-4.2,0.4-8.4,0.7-12.6-0.2c-2.3-0.5-4.6-1.4-6.9-2.2c-0.5-0.2-1-0.7-1.4-1.1c0.4-0.9,1.2-1.1,1.9-1c1.2,0.2,2.5,0.4,3.7,0.7
	c1.1,0.3,2.2,0.6,3.3,1c1.5,0.5,3.1,0.6,4.7,0.4c0.9-0.1,1.9-0.2,2.8-0.1c4.5,0.1,9-0.7,13.5-1c2.1-0.2,4.1-1,6.1-1.7
	c1.3-0.4,2.5-1.1,3.7-1.7c0.3-0.1,0.5-0.3,0.6-0.8c-2.8,0-5.7,0.1-8.5,0c-7.4-0.5-14.6-1.9-21.4-5c-4-1.8-7.5-4.2-10.4-7.5
	c-2-2.2-3.1-4.7-3.4-7.6c-0.4-4.2-0.8-8.4-0.6-12.6C53.22,99.2,53.12,98.5,53.02,97.4z"/>
<path class="st1" d="M118.72,114.7c-0.8,0-1.2,0-1.6,0c-3.1,0.1-6.1-0.6-8.7-2.3c-3.5-2.3-6.1-5.2-6.5-9.6c-0.1-1.6-0.2-3.1-0.4-4.7
	c0-0.5-0.2-1-0.2-1.5c-3.2-0.3-6.2-0.6-9.2-0.8c-1.9-0.1-3.8,0-5.6,0.5c-1.5,0.4-3.1,0.6-4.7,0.7c-5.1,0.3-10.3,0.9-15.4,0.7
	c-2.1-0.1-4.2,0-6.3,0c-0.6,0-1.2,0.2-1.8,0.3c-0.1,0.6-0.1,1-0.1,1.4c-0.1,4,0.1,8,0.5,12c0.5,4.9,3,8.4,6.8,11.2
	c3.4,2.6,7.4,3.9,11.5,5c4.3,1.2,8.7,1.6,13.1,2.1c3,0.3,5.9,0,8.7-0.7c4.4-1,8.3-3,12.1-5.2
	C114.42,121.7,117.02,118.9,118.72,114.7z"/>
<path class="st0" d="M183.62,187.6c0.5-1.1,1-1.9,1.4-2.8c1.5-3.3,3.2-6.4,5.3-9.3c1.7-2.3,3.6-4.3,5.9-6.1c0.5-0.4,1-0.8,1.6-1.1
	c4.7-2.5,9-2.2,12.9,1.9c2.8,2.9,4.9,6.3,6.6,9.9c1.1,2.3,2.1,4.6,2.7,7c0.2,1,0.9,1.5,2,1.8c1.9,0.4,3.9,1,5.8,1.5
	c2.5,0.7,4.8,2,7,3.5c3.5,2.4,6.3,5.5,8.9,8.9c1,1.3,1.7,2.6,2,4.2c0.3,1.4,0.6,2.9,0.9,4.3c0,0.2,0.1,0.4,0.1,0.6
	c0,3-2.2,3.5-4.3,2.7c-0.7-0.3-1.1-0.9-1.2-1.7c-0.2-1.7-0.4-3.3-0.8-5c-0.2-0.8-0.4-1.6-0.9-2.4c-3.1-5.1-7.2-9-12.7-11.3
	c-5.1-2.2-10.5-2.8-16-3.2c-6.5-0.5-13-0.3-19.6-0.1c-3.8,0.1-7.6,0.3-11.3,0.7c-5.2,0.6-10.5,0.5-15.8,0.6c-4,0.1-8,0.5-12,0.9
	s-7.9,0.9-11.9,1.4c-6.9,1-13.8,1.7-20.6,3.1c-1.1,0.2-2.3,0.2-3.5,0.3c-1.7,0.2-3.3,0.3-4.8,1.2c-0.5,0.3-1.3,0.4-1.8,0.3
	c-1.2-0.4-2.3,0-3.4,0.2c-6.3,1.3-12.5,2.7-18.8,4c-4.5,0.9-9.1,1.8-13.7,2.3c-1.7,0.2-3.3,0.6-5,0.8c-2.4,0.4-4.8,0.7-7.2,1
	c-0.9,0.1-1.9,0.1-2.8,0c-1-0.1-1-0.1-2.3-1.6c0.3-0.3,0.5-0.7,0.9-0.8c1-0.3,2-0.6,3.1-0.7c3.6-0.6,7.2-1.2,10.8-1.8
	c1.4-2.3,2.2-4.7,3.1-7.1c1.4-3.7,2.9-7.5,4.7-11c1.2-2.3,2.7-4.5,4.6-6.3c3.2-3.1,7.8-3.7,11.6-1.5c2.7,1.5,5,3.5,7,5.9
	c2.2,2.7,4.4,5.4,6,8.5c0.1,0.3,0.4,0.5,0.6,0.7c2.7,3.4,2.4,2.9,5.8,2.6c1.8-0.2,3.5-0.5,5.3-0.7c6.8-1,13.5-2.1,20.3-3.1
	c5.2-0.7,10.4-1.3,15.7-1.8c4.7-0.5,9.4-0.6,14.2-0.7C174.32,188.2,178.82,187.8,183.62,187.6z"/>
<path class="st1" d="M105.72,195.8c-2.7-4.5-5.5-8.4-8.5-12.2c-1.3-1.7-2.8-3.1-4.7-4.2c-0.8-0.5-1.6-0.6-2.4-0.2
	c-0.8,0.4-1.7,0.8-2.4,1.5c-1.7,1.5-3.2,3.4-4.3,5.4c-2.4,4.5-4.1,9.2-5.7,14c-0.1,0.4-0.6,0.9,0,1.5c0.4,0,0.9,0,1.4-0.1
	c5.4-1.1,10.7-2.2,16-3.4c2.7-0.6,5.3-1.1,8-1.7C103.92,196.3,104.62,196.1,105.72,195.8z"/>
<path class="st1" d="M214.12,187.4c0.6-1.1-0.2-1.8-0.3-2.6c-1-4.2-3.4-7.6-5.7-11.2c-0.4-0.7-1.1-1.3-1.7-1.8
	c-1.8-1.6-3.5-1.7-5.5-0.4c-2.4,1.7-4.6,3.7-6.3,6.2c-1.8,2.6-3.4,5.3-4.7,8.2c-0.1,0.3-0.1,0.7-0.2,1.2c2.9,0,5.6,0,8.4,0
	c2.6,0,5.3,0.1,7.9,0.1C208.82,187.1,211.52,187.4,214.12,187.4z"/>
<path class="st0" d="M163.82,94.9c-1.3,0-2.4,0-3.4-0.1c-0.9,0-1.9-0.1-2.8-0.3c-0.3-0.1-0.7-0.5-0.8-0.8c-0.2-0.6,0.3-1,0.8-1.2
	c0.4-0.2,0.8-0.2,1.2-0.3c4.8-0.3,9.7-0.4,14.5-0.7c3.7-0.2,7.3-0.6,11-0.9c1.7-0.1,3.4-0.3,5-0.4c5.2-0.4,10.5-0.7,15.8-1
	c2.7-0.2,5.5-0.1,8.2-0.3c1.9-0.1,3.8-0.4,5.6-0.6c3.4-0.4,6.9-0.7,10.3-1.2c2-0.3,4,0.2,5.9,0.5c0.4,0.1,0.8,0.2,1.1,0.5
	c0.3,0.3,0.6,0.7,0.5,1.1c0,0.3-0.4,0.8-0.8,0.9c-1.2,0.3-2.5,0.4-3.7,0.5c-1.1,0.1-2.3-0.2-3.4,0.6c0.1,0.8,0.4,1.6,0.4,2.4
	c0,1,0,2.1-0.1,3.2c-0.1,2.1-0.3,4.2-0.5,6.3c-0.3,3.1-1.4,6-2.8,8.6c-1.5,2.9-3.3,5.6-5.4,8.2c-1.9,2.4-4.3,4.3-6.8,6
	c-2.1,1.5-4.6,2.1-7,2.7c-4.4,1-8.9,1.7-13.5,1.3c-2.1-0.2-4.2-0.6-6.2-1c-0.5-0.1-1-0.2-2-0.4c0.5,0.7,0.7,1.1,1,1.2
	c0.9,0.5,1.9,0.9,2.9,1.2c2.1,0.6,4.3,1,6.4,1.5c2.5,0.6,5,0.8,7.5,0.9c5.3,0.2,10.5,0.6,15.8-0.2c2.1-0.3,4.1-1,6.1-1.7
	c1.1-0.4,2.2-0.7,3.3-1c0.4-0.1,0.9-0.1,1.2,0.1c0.5,0.4,1,0.9,1.1,1.4c0.1,0.3-0.4,1-0.8,1.2c-2.7,1-5.2,2.3-8,2.9
	c-3,0.7-6,0.8-9.1,0.8c-3.2,0-6.3,0-9.5-0.1c-1.8,0-3.6-0.2-5.3-0.6c-3.1-0.8-6.2-1.3-9.2-2.1c-1.5-0.4-3-1-4.3-1.8
	c-2.5-1.5-5-3.2-7.4-4.8c-0.5-0.3-1-0.7-1.5-1.2c-2-2.3-4-4.6-6-6.9c-0.3-0.3-0.6-0.7-0.7-1c-1.2-2.8-2.6-5.5-3.6-8.4
	c-1.1-3.5-1.4-7.2-1.1-10.9c0.1-0.8,0.1-1.7,0.2-2.5C163.92,96.3,163.82,95.7,163.82,94.9z"/>
<path class="st1" d="M169.22,94.8c-0.4,2.5-0.6,4.7-0.5,6.9c0.1,1.8,0.4,3.5,0.7,5.3c0.2,1.1,0.6,2.2,0.9,3.3
	c0.7,2.9,1.9,5.5,4.2,7.6c1.9,1.8,3.9,3.5,6.1,4.9c2.9,1.8,6,3.1,9.3,3.6c5.9,0.9,11.7,0.2,17.4-1.6c0.7-0.2,1.4-0.5,2-0.9
	c3-1.9,5.7-4,7.6-7c1.2-1.7,2.6-3.3,3.3-5.5c-0.8-0.1-1.6-0.2-2.3-0.3c-2-0.3-3.9-0.9-5.5-2.2c-3.7-2.8-5.8-6.6-5.9-11.3
	c0-1.6-0.1-3.1-0.2-4.8C194.12,93.5,181.82,94.1,169.22,94.8z"/>
<path class="st2" d="M139.72,97.6c-0.1-2.2-2.1-3.5-4.1-3.4c-0.4-0.2-0.9-0.3-1.3-0.4c-2.2-3.4-8.9-1.8-8.5,3.3
	c0.6,8.9-2.5,17.8-8.7,24.3c-8.1,8.4-18.7,9.6-29.8,9.2c-9.5-0.4-19.5-2.7-26.3-9.9c-4.7-4.9-5.3-11.3-7.2-17.3l0,0
	c0.8-1.2,1-2.2,0.7-3.7c-0.2-1.2-0.7-2.2-1.3-3.1c-1.1-1.7-3.5-1-4.3,0.5c-0.3,0.1-0.7,0.3-1,0.5c0-0.1,0-0.1-0.1-0.2
	c-1.1-3.1-5.4-2.1-6,0.7c-2.5,11.3,3.1,25.7,10.4,34.2c8.1,9.4,19.1,13.8,31.5,12.6c2.3-0.2,4.7-0.5,7.2-1c-2.6,0.6-5.2,1.1-7.8,1.4
	c-5.6,0.6-11.2,0.4-16.8-0.1c-6.2-0.6-12.2-0.5-17.4-4.4c-1.8-1.3-4.2,1.2-2.7,2.9c7.3,8.3,22.3,9.9,32.6,10.2
	c12,0.4,23.4-2.8,33.4-9.4C126.82,134.8,140.82,115.7,139.72,97.6z"/>
<path class="st2" d="M231.72,130.3c7-10.8,11.9-26.4,9.1-39.3c-0.6-2.7-3.6-4.2-5.9-3.6c-2.7-1-6.3,0.3-6.4,4
	c-0.4,8.9-2.9,17.3-7.7,24.8c-5,7.8-10.9,11.7-20.2,12.1c-7.3,0.3-15.9,0.4-22.2-3.8c-8.9-5.9-10.8-17-12.3-26.7
	c0.3-3-3.1-4.9-5.8-4.2c-0.7-0.4-1.5-0.4-2.1,0c-4.8,3.8-3.9,12.3-3.1,17.8c0.9,6.6,3.6,13,7.3,18.6c2.4,3.6,5.3,6.5,8.5,8.6
	c0.9,0.8,1.8,1.6,2.7,2.4c7.5,5.9,16.6,10.2,26,11.9c8.8,1.6,23.1,2.7,30-4.2c0.9-0.9,0.1-2.4-1-2.6c-2.9-0.6-5.8-0.2-8.8,0
	c-5.1,0.3-10.2,0.1-15.2-0.9c-0.5-0.1-1.1-0.2-1.6-0.4C214.12,143.8,225.52,139.8,231.72,130.3z"/>
<path class="st2" d="M245.32,211c-3.8-14.1-15.8-21.7-30-22.2c-17.6-0.6-35.4,0.2-53,1.5c-17.4,1.3-34.5,4.2-51.6,7.7
	c-17.3,3.6-34.9,5.8-52.3,8.5c-3.4,0.5-2.6,5.9,0.7,5.9c16.2-0.1,32.4-1.7,48.3-4.6c15.8-2.9,31.5-6,47.6-7.5
	c15.8-1.5,31.7-2,47.6-2c6.9,0,15.1-1,21.6,1.6c5.9,2.3,10.1,7.4,11.7,13.4C237.62,219.2,246.92,217,245.32,211z"/>
<path class="st2" d="M283.52,221.6c-36.4,5.9-72.8,3.8-109.4,2.4c-35-1.4-70-3.6-105-6.4c0,0,0,0-0.1,0c-4.1-0.6-8.2-1-12.4-1.4
	c-0.4-0.4-0.8-0.6-1.5-0.7c-12.2-2.2-27.5-0.4-36.4-9.4c-0.5-0.9-1-1.9-1.4-3.1c-1.7-5.3-2.5-11.1-2.9-16.6c0-0.5-0.1-1.1-0.1-1.6
	c0-8.7,0.4-17.3,1.4-26c3.1-25.9,12.9-48.8,24.7-72c3.9-7.7,7.8-15.4,13-22.3c5.9-7.7,13.6-13.1,22.1-17.6c8.2-4.4,16.8-8,25.4-11.6
	c5.7-2.4,11.5-4.8,17.3-6.9c0.8-0.3,1.7-0.6,2.5-0.8c3.4-0.4,6.7-1.1,10.1-1.4c5-0.5,10-0.5,15-0.9c0.3,0,0.5,0,0.8,0
	c5-0.3,10.1-0.9,15.1-1.3c1.3-0.1,1.7-2,0.3-2.3c-3.4-0.7-6.6-0.6-10-0.5c-1,0-2,0-2.9,0c-5.6-1.8-11.8-1.6-17.7-1.2
	s-12.4,0.6-18,2.5c-1,0.3-1.6,1.3-1.7,2.2c-2.1,0.6-4.1,1.2-6,1.8c-9.1,2.9-18,6.2-26.8,9.8c-15.8,6.4-28.6,15.7-37.5,30.4
	c-8.4,13.8-15.7,28.8-22.1,43.6c-6.7,15.6-11,31.8-12.8,48.7c-2.1,19.2-2.2,39.2-0.1,58.3c0.4,4,4.9,5.2,7.4,3.4
	c0.9,0.1,1.9,0.2,2.8,0.2c0.9,0.2,1.8,0.4,2.8,0.6c5.2,0.8,10.4,1.4,15.6,1.9c8.7,0.9,17.3,1.7,26,2.4c17.8,1.5,35.6,2.8,53.4,4
	c36.1,2.3,73.2,6.1,109.3,2.5c20.1-2,40.1-3.1,60.1-6.4C286.62,225.4,286.32,221.1,283.52,221.6z"/>
<g>
	<g>
		<path d="M183.22,235.1c-3.6,0-6.7,0-9.6-0.1c-1.9,0-3.8-0.2-5.6-0.4c-1.7-0.2-3.4-0.4-5.1-0.4c-1.1,0-2.2-0.1-3.2-0.3
			c-1.3-0.1-2.6-0.3-3.9-0.3c-0.3,0-0.7,0-1,0c-0.2,0-0.4,0-0.6,0c-1.1,0-2.2-0.2-3.2-0.3c-0.6-0.1-1.2-0.2-1.8-0.2
			c-0.9-0.1-1.9-0.2-2.8-0.3c-2.1-0.2-4.2-0.4-6.2-0.7c-0.4-0.1-0.8-0.1-1.3-0.1c-0.3,0-0.6,0-0.9,0c-0.3,0-0.6,0-0.9,0
			c-0.2,0-0.5,0-0.7,0c-2.3-0.2-4.6-0.3-6.9-0.5c-3.6-0.3-7.1-0.5-10.7-0.7c-1.6-0.1-3.1-0.1-4.7-0.1c-1,0-1.9,0-2.9-0.1
			c-1.2,0-2.5-0.1-3.7-0.2c-0.7,0-3.3-0.2-3.3-0.2c-1.1-0.1-2.2-0.1-3.4-0.1c-1.8,0-3.5,0-5.3-0.1c-3.3,0-6.8-0.1-10.2-0.2
			c-1.8-0.1-3.7-0.3-5.5-0.5c-1.3-0.1-2.6-0.3-3.9-0.4l-1.3-0.1c-3.5-0.3-7.1-0.6-10.6-0.6c-2.1,0-4.2-0.3-6.2-0.5
			c-1.6-0.2-3.2-0.4-4.8-0.5c-0.7,0-1.4-0.1-2.1-0.2c-0.8-0.1-1.7-0.2-2.6-0.2c-3.8-0.1-7.9-0.6-11.9-1.4c-1.9-0.4-3.8-0.5-5.7-0.6
			c-0.7,0-1.4-0.1-2.1-0.1c-2.2-0.2-4.5-0.2-6.7-0.2c-0.7,0-3,0-3.4,0c-0.7,0-3.4,0-4,0c-0.8,0-1.7,0-2.5,0c-0.2,0-0.3,0-0.5,0
			c-2.2,0-3.8,0.4-5.3,1.2c0,0,0,0-0.1,0h-0.1c-1.5-1.5-2.7-2.9-2.7-4.9c-1-1.9-1.1-3.9-1.3-6c0-0.5-0.1-0.9-0.1-1.4
			c-0.1-1.6-0.3-3.3-0.5-4.9c-0.1-1.1-0.3-2.2-0.4-3.2c-0.1-0.9-0.1-1.8-0.2-2.6c0-0.4,0-0.8-0.1-1.1c-0.3-4.8-0.3-9.6,0-14.2v-0.2
			c0-0.1,0-0.3,0-0.4c0-0.6,0.2-1.2,0.4-1.7c0.3-0.7,0.5-1.4,0.3-2.2c-0.3-1.2-0.3-2.4-0.2-3.8c0-0.2,0-0.5,0-0.7
			c0-0.9,0-1.9,0.5-2.8c0.2-0.4,0.2-1,0.2-1.4c-0.2-3.5-0.1-7.3,0.4-11.4c0.2-1.7,0.3-3.5,0.5-5.3c0.1-1.5,0.2-3,0.4-4.5
			c0.4-3.4,0.8-6.7,2-9.9c0.2-0.6,0.2-1.3,0.3-1.9V141c0.1-2,0.5-4.1,1.2-6.5c0.1-0.5,0.4-1,0.6-1.4c0.4-0.9,0.8-1.8,0.7-2.9
			c0-0.2,0.1-0.5,0.2-0.7c0-0.1,0.1-0.1,0.1-0.2l1.1-2.5c0.6-1.5,1.3-2.9,1.9-4.4l0.1-0.2c0.2-0.4,0.4-0.8,0.4-1.2
			c0-0.8,0.3-1.4,0.9-2c0.3-0.3,0.7-0.8,0.7-1.2c0-0.8,0.4-1.4,0.7-2c0.1-0.2,0.2-0.4,0.3-0.6c0.9-1.9,1.7-3.9,2.4-5.9
			c0.3-0.7,0.5-1.3,0.8-2c0.8-2.1,1.7-4.3,3.4-6c-0.2-1.1-0.9-1.9-1.6-2.8c-1.3-1.6-2.8-3.5-4.3-5.5c-0.4-0.5-0.7-1.1-1.1-2
			l-0.1-0.4c-1.3-3.1-2.7-6.4-3.4-9.8v-0.1c-0.3-1.3-0.6-2.6-0.9-3.9c-0.4-1.4-0.6-2.8-0.6-4.4c0-1.3,0-2.5,0-3.8
			c0-2.8,0-5.7,0.1-8.6c0.1-1.9,0.3-3.7,0.6-5.6l0.2-1.4c0.7-5.5,2.1-11.3,4.5-18.4c1.9-5.7,4.7-11.4,8.4-17c0.5-0.7,1-1.3,1.6-1.9
			c0.2-0.2,0.4-0.5,0.7-0.7c0.6-0.6,1.1-1.3,1.7-1.9c1.1-1.2,2.2-2.5,3.3-3.7c0.8-1,1.9-1.6,3.3-1.9c0.2,0,0.4-0.1,0.7-0.1
			c1.2,0,2.1,0.7,2.5,1.8c1.3,3.5,2.6,7.2,3.8,10.4c0.2,0.7,0.5,1.3,0.7,2c1,2.8,1.9,5.6,3.3,8.2c1.2,2.2,2.6,4.1,4.3,5.7
			c2.2,2.1,4.3,4.1,6.5,6c0.4,0.4,0.9,0.7,1.4,1c0.2,0.1,0.4,0.3,0.6,0.4c1.1-0.1,1.9-0.7,2.7-1.5c2.4-2.2,5.2-3.9,8.4-5
			c2.4-0.8,4.7-1.7,7-2.6l3-1.1c1.4,0,2.4-0.6,3.5-1.2c0.6-0.4,1.3-0.8,2-1c1.9-0.7,3.9-1.3,5.9-1.9c1.2-0.4,2.5-0.8,3.7-1.2
			c0.8-0.3,1.6-0.5,2.3-0.8c2.6-0.8,5.2-1.7,7.8-2.7c5.9-2.3,12.2-3.9,18.6-4.7c2-0.3,4-0.4,5.9-0.6c1.7-0.1,3.4-0.3,5.1-0.5
			c2.3-0.3,4.6-0.3,6.8-0.3c0.9,0,1.8,0,2.7,0h0.5c0.5,0,1,0,1.5,0c1,0,2.4,0.1,3.7,0.5h0.3c1.5,0,3,0.2,4.5,0.3
			c1.5,0.1,3,0.3,4.5,0.3c0.5,0,0.9,0,1.4,0c0.4,0,0.8,0,1.2,0c1.5,0,3,0.2,4.5,0.4c0.8,0.1,1.6,0.2,2.5,0.3c0.2,0,0.4,0.1,0.6,0.1
			c0.3,0,0.6,0.1,0.9,0.1h0.4c3.2,0,6.3,0.5,9.4,1.1c3,0.5,5.9,1.4,8.8,2.3l0.7,0.2c3.7,1.1,7.5,2.3,11.1,3.4c1.5,0.5,3,1,4.5,1.4
			c0.1,0,0.3,0.1,0.4,0.1c0.4,0.1,0.7,0.2,1.1,0.4c2.1,1.1,4.3,2.1,6.4,3.2c1.8,0.9,3.6,1.8,5.4,2.7l1.1,0.5
			c1.6,0.8,3.2,1.6,4.9,2.3c0.4,0.2,0.8,0.3,1.3,0.3c0.6,0,1.3-0.2,1.9-0.6c4.6-2.7,8.6-6.1,12.4-10.6c2.3-2.7,4.6-5.7,7.3-9.5
			c0.5-0.6,0.9-1.3,1.4-1.9c1-1.4,2-2.8,3-4.3c1.3-1.9,2.5-3.8,3.8-5.7l1.4-2.2c0.1-0.1,0.2-0.3,0.3-0.4c0.1-0.2,0.3-0.4,0.4-0.6
			c0.8-1.2,1.9-1.8,3.1-1.8c0.9,0,1.8,0.4,2.5,1.2c0.5,0.6,1.1,1.2,1.7,1.8c1.7,1.8,3.6,3.7,4.6,6.1c0.4,1.1,1.1,2.1,1.6,3.1
			c0.6,1.1,1.2,2.1,1.7,3.3c1.2,3.1,2.3,6.3,3.2,9.6c1.8,6.4,2.6,13,3.1,18.7c0,0.3,0,0.6,0,1V46c-0.2,6.7-0.5,13.6-2.4,20.2
			c-1.1,3.6-2.5,7.1-3.8,10.6l-0.7,1.9c-0.3,0.8-0.8,1.5-1.4,2.2c-0.2,0.3-0.5,0.7-0.7,1c0.3,0.8,0.7,1.5,1,2.3
			c0.8,1.9,1.6,3.9,2.7,5.8c0.4,0.7,0.8,1.5,1.1,2.3c1.4,3.9,2.8,8,4.4,13.5c1.3,4.2,2.1,8.6,2.8,12.6c0.2,0.9,0.4,1.8,0.8,3
			c0.8,2.4,1.3,5,1.9,7.5c0.2,0.8,0.3,1.6,0.5,2.3v0.1c0.1,0.4,0.2,0.7,0.2,1.1c0.1,3.3,0.7,6.5,1.3,9.7c0.2,1.1,0.4,2.3,0.6,3.4
			c0.6,3.4,1.1,6.3,1.7,9c0.2,0.8,0.3,1.7,0.2,2.9c-0.1,5.4,0.3,10.8,0.7,16l0.2,2.2c0.2,3.2,0.5,6.5,0.8,9.7
			c0.3,3.4,0.6,6.9,0.9,10.4c0.2,2.3,0.2,4.7,0.2,7c0,1.4,0,2.9,0.1,4.3c0.1,3,0.1,6,0.1,8.8c0,3.4-0.2,7.4-2,11.3
			c0,0,0,0.1-0.1,0.1c-0.2,0.1-0.5,0.2-0.7,0.3c-0.6,0.2-1.2,0.4-1.8,0.5c-2.9,0.4-6.8,0.9-10.7,1.2c-2.2,0.2-4.5,0.4-6.8,0.5
			c-2,0.1-4.1,0.3-6.1,0.5c-2.8,0.2-5.7,0.5-8.5,0.8c-2.9,0.3-5.8,0.6-8.8,0.8c-2.8,0.2-5.6,0.4-8.4,0.6c-1.1,0.1-2.2,0.1-3.3,0.2
			c-3.4,0.2-6.7,0.5-10.1,0.7c-1.5,0.1-3,0.2-4.5,0.3c-2,0.1-3.9,0.2-5.9,0.4c-0.7,0-1.4,0.1-2.1,0.2c-0.9,0.1-1.7,0.2-2.6,0.2
			c-0.8,0-1.6,0.1-2.4,0.1c-0.6,0-1.2,0-1.7,0c-0.9,0-1.9,0.1-3.1,0.2c-0.3,0-0.7,0.1-1,0.1c-0.5,0.1-1,0.1-1.5,0.1
			c-1.9,0-3.7,0-5.6,0C189.32,235.1,186.22,235.1,183.22,235.1z M160.92,230.5c0.6,0,1.1,0,1.7,0.1c0.3,0,0.5,0,0.8,0.1
			c1.5,0.1,3.1,0.2,4.6,0.3c3.3,0.3,6.8,0.5,10.2,0.6c2.8,0.1,5.8,0.1,9,0.1c2.6,0,5.5,0,8.6-0.1c3-0.1,6-0.2,8.9-0.4
			c1.2-0.1,2.5-0.2,3.7-0.2c0.5,0,0.9-0.1,1.4-0.1c0.4,0,0.8-0.1,1.1-0.1c1.3-0.1,2.6-0.2,3.9-0.3c3-0.2,6-0.4,9-0.5
			c5-0.1,10.1-0.5,15-0.9l2-0.1c2.8-0.2,5.7-0.5,8.5-0.8c1.4-0.1,2.7-0.3,4.1-0.4c0.8-0.1,1.6-0.1,2.4-0.2l1.7-0.1
			c0.9-0.1,1.8-0.2,2.7-0.3c1.9-0.2,3.9-0.4,5.8-0.4c2.8,0,5.6-0.4,8.2-0.7c1.2-0.1,2.5-0.3,3.7-0.4c0.7-0.1,1.3-0.1,2-0.2
			c0.8-0.1,1.6-0.2,2.4-0.2c1.1-0.1,1.8-0.7,2-1.9c0.1-0.4,0.1-0.7,0.2-1.1c0.3-1.5,0.5-3,0.5-4.5c-0.1-8.1-0.3-14.8-0.6-21.1
			c-0.1-3.1-0.4-6.2-0.7-9.2c-0.1-1.5-0.3-3.1-0.4-4.6c-0.1-1.3-0.2-2.6-0.3-4c-0.2-2.2-0.3-4.5-0.5-6.7c0-0.4-0.1-0.9-0.1-1.3
			c-0.2-2.2-0.5-4.4,0-6.6c0-0.2,0-0.4,0-0.6c0-0.1,0-0.2,0-0.4c0-0.6,0-1.2,0-1.9c0-1.3,0-2.7-0.2-4.1c-0.1-0.9-0.3-1.9-0.4-2.8
			c-0.2-1-0.4-2-0.5-3.1c-0.1-1.2-0.4-2.3-0.6-3.4c-0.2-0.8-0.4-1.6-0.5-2.4c-0.2-1.3-0.4-2.5-0.6-3.8c-0.4-2.4-0.8-4.9-1.2-7.4
			c-0.3-2.2-0.6-4.4-1.2-6.5c-0.2-0.7-0.4-1.4-0.6-2.1c-0.5-1.6-1-3.2-1.3-4.9c-1.1-6.2-2.5-12.1-4.1-17.8l-0.4-1.2
			c-0.6-2.1-1.2-4.2-2.1-6.2c-2.1-4.9-4.4-9.8-6.8-14.6c-1.7-3.4-3.2-5.9-5-8c-1-1.2-2-2.4-3-3.6c-2.2-2.7-4.4-5.4-6.7-8
			c-1.8-2-3.9-4.2-6.4-6c-3.7-2.6-8-5.8-12.1-9.1c-4.4-3.6-8.3-6.1-12.2-7.8c-2.5-1.1-4.9-2.3-7.3-3.5c-1-0.5-2-1-3-1.4
			c-4.3-2.1-8-3.5-11.4-4.4c-2.2-0.6-4.5-1.3-6.6-2c-1.5-0.5-3-1-4.5-1.4c-2.3-0.7-4.7-1.3-6.7-1.8c-3-0.8-6.2-0.9-9.3-1
			c-1.5-0.1-3-0.1-4.5-0.3c-3.4-0.3-6.8-0.5-10.2-0.6c-1.5-0.1-3.1-0.1-4.6-0.2c-0.3,0-0.6,0-1-0.1c-1.1-0.3-2.2-0.4-3.6-0.4
			c-0.9,0-1.7,0-2.6,0.1c-0.6,0-1.3,0.1-1.9,0.1c-1.4,0-2.8,0.2-4.2,0.3c-0.9,0.1-1.8,0.2-2.7,0.2c-4.7,0.3-9.8,0.7-14.7,1.8
			c-1.8,0.4-3.6,0.9-5.3,1.5c-0.8,0.2-1.5,0.5-2.3,0.7c-0.3,0.1-0.5,0.1-0.8,0.2c-0.6,0.2-1.3,0.4-1.9,0.6c-4.8,2-9.8,3.6-14.7,5.1
			l-0.8,0.3c-0.4,0.1-0.8,0.2-1.1,0.2c-0.4,0.1-0.9,0.2-1.3,0.3c-1.4,0.6-2.9,1.1-4.3,1.7c-1.7,0.7-3.4,1.4-5.1,2
			c-1.8,0.7-3.6,1.3-5.4,1.9c-1.3,0.4-2.5,0.9-3.8,1.3c-0.8,0.3-1.8,0.6-2.6,1.1l-1.2,0.8c-2.9,1.9-5.9,3.8-8.2,6.4
			c-0.9,1-1.9,1.9-2.9,2.5c-1.9,1.2-3.3,2.9-4.7,4.6c-0.6,0.7-1.1,1.5-1.6,2.3c-0.3,0.4-0.6,0.9-0.9,1.3c-0.2,0.2-0.3,0.5-0.5,0.7
			c-0.8,1.1-1.6,2.2-1.9,3.5c-0.1,0.5-0.5,1-0.9,1.5c-0.2,0.2-0.3,0.4-0.5,0.6c-0.4,0.5-0.8,1.1-1.1,1.6c-0.9,1.2-1.7,2.3-2.3,3.6
			c-1.1,2.2-2.4,4.3-3.6,6.3c-1.1,1.7-2.2,3.5-3.1,5.4l-1.3,2.6c-2,3.8-4,7.8-6.1,11.7c-0.3,0.6-0.6,1.2-0.8,1.9
			c-0.1,0.2-0.2,0.5-0.3,0.7c-0.4,0.9-0.8,1.9-1.2,2.8c-1.6,3.6-3.2,7.4-5.2,10.9c-0.2,0.4-0.4,0.8-0.5,1.1l-1,2.4
			c-0.9,2.1-1.8,4.2-2.6,6.3c-0.2,0.6-0.5,1.3-0.8,1.9c-1,2.4-1.9,4.8-2.6,7.3c-1,3.8-2,8-2.9,12.9l-0.1,0.4
			c-0.8,4.5-1.7,9.2-1.9,13.9v0.4c-0.2,4.3-0.5,8.8-1.1,13.1c-0.4,3.2-0.6,6.4-0.7,9.5c-0.1,1.7-0.2,3.5-0.3,5.3
			c-0.6,8.1,0.2,16.2,1,22.3c0.1,0.9,0.2,1.8,0.2,2.7c0.1,1.8,0.2,3.6,0.8,5.4c0.3,0.8,0.5,1.6,0.7,2.5c0.1,0.4,0.2,0.8,0.3,1.2
			c0.5,0,1,0,1.5,0s1,0,1.5,0c0.7,0,1.2,0,1.7-0.1c1.8-0.3,3.7-0.5,5.9-0.5c2,0,3.9,0.1,5.8,0.3c1.4,0.1,2.8,0.2,4.2,0.2
			c0.8,0,1.6,0.1,2.4,0.1c0.6,0,1.2,0,1.7,0.1c1.8,0.1,3.7,0.1,5.5,0.6c3.9,1,8.1,1.5,12.5,1.6c0.3,0,0.5,0,0.8,0.1
			c0.2,0,0.3,0.1,0.5,0.1l2.8,0.3c2.5,0.3,5,0.5,7.5,0.7c1.6,0.1,3.2,0.2,4.8,0.3c1.2,0.1,2.4,0.2,3.7,0.2c1.7,0.1,3.4,0.3,5.2,0.4
			c3.4,0.3,6.8,0.6,10.2,0.7c3,0.1,6.1,0.2,9.1,0.2c2,0,4,0,6,0.1c2.1,0,4.3,0.2,6.4,0.2c1.4,0.1,2.9,0.1,4.3,0.2
			c1.2,0,2.3,0.1,3.5,0.1c1.8,0,3.6,0.1,5.4,0.2c1.9,0.1,3.8,0.3,5.7,0.4c2.9,0.2,5.9,0.5,8.8,0.5c3.6,0.1,7.2,0.5,10.7,0.8
			c0.9,0.1,1.9,0.2,2.9,0.3c1.1,0.1,2.2,0.2,3.3,0.4c2.2,0.3,4.5,0.6,6.8,0.6c0.4,0,0.8,0,1.2,0
			C160.62,230.5,160.82,230.5,160.92,230.5z M14.72,77.2c0.2,0.8,0.4,1.6,0.6,2.4c0.4,1.8,0.9,3.4,1.5,5l0.3,0.8
			c1.1,3,2.3,6.1,4.7,8.5c0.2,0.2,0.5,0.4,0.8,0.5c0.1,0.1,0.3,0.1,0.4,0.2l0.6-1.2c0.5-1,0.9-1.9,1.3-2.8c0.3-0.6,0.5-1.2,0.8-1.8
			c0.3-0.8,0.7-1.5,1-2.3c0.5-1.1,1.1-2.4,1.8-3.7c0.4-0.7,0.8-1.4,1.2-2.1c0.3-0.6,0.7-1.1,1-1.7l0.4-0.8c0.6-1,1.2-2,1.6-3.1
			c0.2-0.5,0.5-0.9,0.8-1.3c0.5-0.7,1.1-1.5,1.2-2.5c-0.2,0-0.4,0.1-0.5,0.1c-0.4,0.1-0.7,0.2-1,0.3c-2.1,1.1-4.1,1.8-6.2,2.3
			c-2.6,0.6-5.3,1.2-7.9,1.8l-1.9,0.5c-0.5,0.1-1,0.3-1.7,0.5C15.42,77,15.12,77.1,14.72,77.2z M255.92,64.5
			c0.4,0.6,0.8,1.2,1.2,1.8c0.7,1.1,1.3,2.1,2.2,2.9c1.7,1.5,3.2,3.3,4.4,5.4c0.2,0.4,0.5,0.7,0.9,1.1c0.1,0.2,0.3,0.3,0.4,0.5
			c0.1-0.1,0.2-0.2,0.3-0.4c0.2-0.3,0.4-0.4,0.4-0.7c1.1-3.1,2.2-6.1,3.3-9.2c0-0.1,0-0.3-0.1-0.5c0-0.1,0-0.1-0.1-0.2
			c-0.6,0-1.3,0-1.9,0s-1.3,0-1.9,0c-0.9,0-1.7,0-2.4-0.1c-1.5-0.1-2.9-0.3-4.6-0.5C257.32,64.7,256.62,64.6,255.92,64.5z
			 M14.32,57.1c-0.7,4.2-0.6,13,0.1,16l1.2-0.2c1-0.1,2-0.3,2.9-0.5c4.3-0.8,8.1-1.9,11.5-3.2c2.3-0.9,4.4-2.3,6.4-3.6
			c0.9-0.6,1.7-1.1,2.6-1.6c0.6-0.3,1.1-1,1.5-1.6c0.8-1.1,1.5-2.3,2.3-3.4c0.5-0.7,0.9-1.4,1.4-2.1l0.6-0.8c1.7-2.5,3.4-5,5.7-7.1
			c0.7-0.6,1.4-1.3,2-1.9l0.9-0.8c-1.6-1.8-3-3.1-4.6-4.1c-0.4,0.3-0.7,0.6-1,0.9c-0.8,0.7-1.5,1.4-2.3,2c-3.6,2.5-7.2,4.8-11,6.8
			c-3.6,1.9-7.6,3.6-12,3.7c-0.3,0-0.6,0.1-0.9,0.2c-0.2,0.1-0.4,0.1-0.7,0.2c-0.9,0.1-1.8,0.3-2.7,0.4c-0.9,0.1-1.7,0.2-2.6,0.4
			c-0.3,0.1-0.7,0.1-1,0.2L14.32,57.1z M228.62,40.8c0.2,0.2,0.4,0.4,0.6,0.6c1.4,1.1,2.9,2.2,4.3,3.4c1.5,1.1,2.9,2.3,4.4,3.4
			c1.2,1,2.6,1.9,3.8,2.8c3.4,2.5,7,5.1,9.8,8.4c0.5,0.5,1,0.9,1.5,1l1.2,0.3c2.1,0.5,4.4,1,6.6,1.1c0.7,0.1,1.4,0.1,2.1,0.1
			c1.1,0,2.3-0.1,3.4-0.1c0.7,0,1.3-0.1,2-0.1c0.4,0,0.8-0.1,1.2-0.2c0.1,0,0.3-0.1,0.4-0.1c0.9-2.8,1.4-6.5,1.1-9l-0.5-0.2
			c-0.5-0.2-0.9-0.3-1.4-0.5c-1-0.3-2-0.6-3-0.9c-1.9-0.5-3.8-1.1-5.7-1.7c-3.8-1.2-7.3-3-10.8-4.8c-1.2-0.6-2.4-1.2-3.6-1.8
			c-2.9-1.5-5.7-3.3-8.1-5.5c-0.5-0.4-1-0.8-1.5-1.1c-0.2-0.1-0.4-0.3-0.6-0.4l-7.4,5C228.42,40.6,228.52,40.7,228.62,40.8z
			 M18.02,40.1c-1.9,3.7-2.5,7.9-3.1,11.6c0,0.1,0,0.2-0.1,0.3c-0.1,0.5-0.2,1,0.4,1.5c0,0,0.2,0,0.3,0c0.3,0,0.7,0,1-0.1
			c2.7-0.7,5.2-1.1,7.5-1.2c1.2-0.1,2.1-0.5,3.2-1c4.4-2.2,9.5-4.9,14.4-8.3c1.2-0.9,2.7-2,3.8-3.3l-4.6-4.7
			c-3.5,2.4-7.1,3.9-10.8,4.4c-2.7,0.4-5.4,0.6-8.3,0.8C20.52,39.9,19.32,40,18.02,40.1z M244.42,26.5c-0.3,0-0.7,0.2-1,0.6
			c-1.2,1.4-2.3,2.7-3.5,4.1c-0.1,0.1-0.2,0.2-0.2,0.3c-0.3,0.4-0.7,0.7-0.5,1.3c0.4,0.3,0.8,0.7,1.3,1.1c1.7,1.6,3.5,3.3,5.7,4.4
			c0.3,0.1,0.5,0.3,0.7,0.5c0.2,0.1,0.4,0.3,0.6,0.4l0.7,0.4c0.7,0.4,1.5,0.9,2.3,1.3c0.7,0.3,1.5,0.6,2.2,0.8
			c1.3,0.5,2.7,0.9,3.9,1.7c1.9,1.2,4,2,6,2.7l0.6,0.2c2.5,0.9,5,1.8,7.9,2.1c1-4.5,0.2-8.7-0.8-13.4c-0.2,0-0.4-0.1-0.5-0.1
			c-0.3-0.1-0.6-0.1-0.8-0.2c-3.8-0.3-7.6-1.3-11.2-2.3c-0.7-0.2-1.4-0.4-2.1-0.6c-3.6-0.9-7-2.6-10.2-5
			C245.12,26.6,244.72,26.5,244.42,26.5z M19.92,36.4c0.5,0,0.9,0.1,1.3,0.1c0.1,0,0.3,0,0.4,0c1.7,0,3.4-0.3,5-0.7
			c0.9-0.2,1.8-0.4,2.7-0.5c3.1-0.4,5.8-2,8.3-3.5l0.5-0.3c0.5-0.3,0.7-0.8,0.5-1.2c-0.6-1.5-1.2-2.9-1.8-4.4l-0.7-1.6
			c-0.7,0.3-1.3,0.5-2,0.8c-1.5,0.6-3,1.2-4.5,1.7c-1.6,0.5-3.2,0.9-4.9,1.3c-0.7,0.2-1.5,0.4-2.3,0.5c-0.3,0.7-0.7,1.4-1,2.1
			c-0.9,1.8-1.8,3.6-2.1,5.7H19.92z M246.92,23.4c1.2,1,2.5,1.9,4.3,2.9c1.7,1,3.6,1.6,5.4,2.2c0.6,0.2,1.3,0.4,1.9,0.7
			c3.2,1.1,6.6,1.6,9.8,1.9l0,0c0.2,0,0.4,0,0.5-0.1c0.1,0,0.2-0.1,0.3-0.1c0-0.2,0-0.5,0-0.7c0-0.6,0.1-1.1-0.1-1.6
			c-0.3-1-0.5-2-0.7-3c-0.5-2.5-1.1-5.1-2.4-7.4c-4.2-0.1-9.1-0.5-13.7-2.3C250.22,17.8,247.92,21.1,246.92,23.4z M32.72,14.1
			c-2.4,1.7-6.3,6.7-7.9,10.1c2.6-0.5,4.9-1.6,7.2-2.6c1-0.5,2-0.9,3.1-1.4c-0.3-1.4-0.8-2.6-1.4-3.9
			C33.32,15.7,33.02,14.9,32.72,14.1z M254.12,12.9c1,0.7,2.1,1,3.5,1.2c1.1,0.1,2.2,0.3,3.2,0.5l1.1,0.2c0.2,0,0.5,0.1,0.7,0.1
			c0.6,0,1.2-0.2,1.8-0.7l-0.4-0.8c-1.3-2.8-2.5-5.5-4.7-7.5c-1.1,0.6-1.6,1.6-2.1,2.5c-0.2,0.3-0.3,0.6-0.5,0.9
			c-0.3,0.5-0.7,0.9-1,1.3C255.12,11.3,254.52,12,254.12,12.9z"/>
		<path d="M258.42,0.3c0.8,0,1.7,0.4,2.4,1.2c2.2,2.5,4.9,4.6,6.2,7.9c0.9,2.2,2.4,4.2,3.3,6.4c1.3,3.1,2.3,6.3,3.2,9.6
			c1.7,6.1,2.5,12.4,3.1,18.6c0,0.3,0,0.6,0,0.9c-0.2,7.2-0.4,14.3-2.4,21.3c-1.2,4.2-3,8.3-4.6,12.4c-0.5,1.1-1.3,2.1-2.1,3.3
			c1.2,2.7,2.2,5.5,3.7,8.2c0.4,0.7,0.8,1.5,1.1,2.3c1.6,4.4,3.1,8.9,4.4,13.5c1.2,4.1,2,8.4,2.8,12.6c0.2,1,0.5,2,0.8,3
			c1.1,3.2,1.6,6.5,2.3,9.8c0.1,0.4,0.2,0.8,0.2,1.2c0.2,4.4,1.2,8.7,1.9,13.1c0.5,3,1,6,1.7,9c0.2,0.9,0.3,1.9,0.2,2.8
			c-0.1,6.1,0.4,12.2,0.8,18.3c0.5,6.7,1.2,13.4,1.7,20.1c0.3,3.8,0.2,7.6,0.3,11.4c0.1,2.9,0.1,5.9,0.1,8.8c0,3.8-0.3,7.6-2,11.3
			c-0.8,0.2-1.6,0.7-2.6,0.8c-3.5,0.5-7.1,0.9-10.6,1.2c-4.3,0.4-8.6,0.6-12.9,1c-5.8,0.5-11.5,1.1-17.3,1.6
			c-3.9,0.3-7.8,0.6-11.6,0.8c-3.4,0.2-6.7,0.5-10.1,0.7c-3.5,0.2-6.9,0.4-10.4,0.7c-1.6,0.1-3.1,0.3-4.7,0.4
			c-1.4,0.1-2.7,0.1-4.1,0.1c-1,0-2.1,0.1-3.1,0.2c-0.8,0.1-1.7,0.3-2.5,0.3c-4.9,0-9.8,0.1-14.7,0.1c-3.2,0-6.4,0-9.6-0.1
			c-3.6-0.1-7.1-0.8-10.7-0.9c-2.4-0.1-4.7-0.5-7.1-0.5c-0.3,0-0.7,0-1,0c-0.2,0-0.4,0-0.6,0c-1.7,0-3.4-0.4-5.1-0.6
			c-3-0.3-6.1-0.5-9.1-0.9c-0.4-0.1-0.9-0.1-1.3-0.1c-0.6,0-1.2,0-1.8,0c-0.2,0-0.5,0-0.7,0c-5.9-0.4-11.7-0.9-17.6-1.2
			c-2.5-0.2-5-0.1-7.6-0.2c-1.9-0.1-3.8-0.2-5.7-0.3c-1.6-0.1-3.2-0.2-4.7-0.2c-5.2-0.1-10.3-0.1-15.5-0.3c-3.1-0.1-6.3-0.7-9.4-0.9
			c-4-0.3-8-0.7-11.9-0.7c-3.7-0.1-7.3-0.8-11-1c-1.6-0.1-3.1-0.4-4.7-0.5c-4-0.1-8-0.6-11.9-1.4c-2.6-0.6-5.2-0.5-7.8-0.8
			c-2.9-0.2-5.9-0.2-8.8-0.2c-0.4,0-0.9,0-1.3,0c-1.4,0-2.7,0-4.1,0c-0.8,0-1.7,0-2.5,0c-0.2,0-0.3,0-0.5,0c-1.8,0-3.6,0.2-5.4,1.2
			c-1.5-1.5-2.6-2.9-2.7-4.8c-1.3-2.3-1.1-4.9-1.3-7.4c-0.2-2.7-0.7-5.4-0.9-8.1c-0.1-1.3-0.2-2.5-0.2-3.8c-0.3-4.7-0.3-9.4,0-14.2
			c0-0.2,0-0.4,0-0.6c0-1.4,1.1-2.4,0.8-3.9c-0.3-1.2-0.3-2.5-0.2-3.7c0-1.1-0.1-2.3,0.5-3.4c0.2-0.4,0.2-1,0.2-1.5
			c-0.2-3.8,0-7.6,0.4-11.3c0.4-3.2,0.5-6.5,0.9-9.7c0.4-3.3,0.8-6.7,2-9.9c0.3-0.7,0.3-1.4,0.3-2.2c0.1-2.2,0.5-4.4,1.1-6.5
			c0.4-1.4,1.5-2.7,1.2-4.3c0-0.3,0.2-0.6,0.3-0.9c1-2.3,2-4.6,3-6.9c0.2-0.5,0.5-1,0.5-1.5c0-0.8,0.3-1.4,0.8-1.9
			c0.4-0.3,0.7-0.9,0.7-1.3c0-1,0.6-1.7,1-2.5c1.2-2.5,2.2-5.2,3.2-7.8c0.8-2.2,1.7-4.3,3.5-6c-0.2-1.1-0.9-2-1.7-2.9
			c-1.4-1.8-2.9-3.6-4.3-5.5c-0.4-0.6-0.8-1.3-1.1-1.9c-1.4-3.3-2.8-6.6-3.5-10.1c-0.3-1.3-0.6-2.7-1-4c-0.4-1.4-0.6-2.9-0.6-4.4
			c0-4.1-0.1-8.2,0.1-12.3c0.1-2.3,0.5-4.6,0.8-6.9c0.8-6.3,2.5-12.4,4.4-18.3c2-6,4.8-11.6,8.3-16.9c0.6-1,1.5-1.8,2.3-2.6
			c1.7-1.9,3.4-3.7,5-5.7c0.9-1,2-1.6,3.2-1.8c0.2,0,0.4-0.1,0.6-0.1c1.1,0,2,0.6,2.4,1.7c1.3,3.4,2.5,6.9,3.8,10.4
			c1.2,3.5,2.3,7,4,10.2c1.2,2.2,2.6,4.1,4.3,5.8c2.1,2,4.3,4,6.5,6c0.6,0.6,1.4,1,2,1.4c1.3-0.1,2.1-0.8,2.9-1.5
			c2.4-2.2,5.2-3.9,8.3-5c3.4-1.2,6.7-2.4,10.1-3.7l0,0c2.1,0,3.6-1.6,5.4-2.3c3.2-1.1,6.4-2.1,9.6-3.1c3.4-1.1,6.8-2.2,10.1-3.4
			c6-2.3,12.2-3.9,18.6-4.7c3.6-0.5,7.3-0.6,11-1c3.1-0.4,6.3-0.3,9.4-0.4c0.7,0,1.3,0,2,0c1.2,0,2.4,0.1,3.6,0.5c0.1,0,0.3,0,0.4,0
			c3,0,5.9,0.6,8.9,0.6c0.5,0,0.9,0,1.4,0c0.4,0,0.8,0,1.2,0c2.3,0,4.7,0.4,7,0.6c0.5,0,1,0.2,1.5,0.2l0,0c0.1,0,0.2,0,0.4,0
			c3.2,0,6.3,0.5,9.4,1.1c3.2,0.6,6.3,1.5,9.4,2.4c5.2,1.6,10.4,3.2,15.7,4.9c0.5,0.2,1,0.3,1.5,0.5c4,2,7.9,3.9,11.9,5.9
			c2,1,3.9,2,6,2.8c0.4,0.2,0.9,0.3,1.3,0.3c0.7,0,1.3-0.2,2-0.6c4.8-2.8,8.8-6.4,12.4-10.6c2.6-3.1,5-6.3,7.3-9.5
			c1.5-2.1,3-4.1,4.4-6.2c1.8-2.6,3.5-5.3,5.2-7.9c0.2-0.4,0.4-0.7,0.7-1.1C256.32,0.9,257.32,0.3,258.42,0.3 M262.62,15
			c0.6,0,1.2-0.2,1.9-0.8c-1.5-3.1-2.8-6.2-5.2-8.5c-1.6,0.9-2,2.3-2.8,3.6c-0.8,1.2-2,2.1-2.5,3.6c1.1,0.8,2.3,1.1,3.6,1.3
			c1.5,0.2,2.9,0.5,4.3,0.7C262.12,15,262.42,15,262.62,15 M24.62,24.4c4-0.7,7.1-2.7,10.6-4.1c-0.4-2.3-1.7-4.2-2.4-6.4
			C30.42,15.5,26.22,20.8,24.62,24.4 M268.42,31.2c0.3,0,0.5-0.1,0.9-0.2c0-0.8,0.2-1.7,0-2.5c-0.9-3.5-1.3-7.2-3.1-10.5
			c-4.8-0.2-9.5-0.6-13.8-2.3c-2.1,2-4.5,5.4-5.5,7.7c1.3,1.1,2.8,2.1,4.4,2.9c2.3,1.3,4.9,2,7.3,2.8
			C261.62,30.4,265.02,30.8,268.42,31.2C268.32,31.2,268.32,31.2,268.42,31.2 M11.22,221.7c0.6,0,1.2,0,1.8-0.1
			c2-0.3,3.9-0.5,5.9-0.5c1.9,0,3.8,0.1,5.7,0.3c2.2,0.2,4.4,0.2,6.6,0.3c2.4,0.1,4.8,0,7.2,0.6c4.1,1,8.3,1.5,12.5,1.6
			c0.4,0,0.8,0.1,1.3,0.2c3.5,0.3,6.9,0.7,10.4,1c2.8,0.2,5.7,0.4,8.5,0.6c5.1,0.4,10.3,0.9,15.4,1.2c5,0.2,10.1,0.1,15.2,0.2
			c3.6,0.1,7.1,0.3,10.7,0.4c2.9,0.1,5.9,0.1,8.8,0.3c4.8,0.3,9.7,0.8,14.5,1c4.5,0.1,9,0.7,13.5,1.1c3.4,0.3,6.7,0.9,10.1,0.9
			c0.4,0,0.8,0,1.2,0c0.1,0,0.3,0,0.4,0c0.8,0,1.6,0.1,2.4,0.2c4.9,0.3,9.9,0.8,14.8,0.9c3,0.1,6,0.1,9,0.1c2.9,0,5.8,0,8.6-0.1
			c4.2-0.1,8.4-0.4,12.6-0.6c0.8,0,1.7-0.1,2.5-0.2c4.3-0.3,8.6-0.6,12.9-0.7c5.7-0.2,11.3-0.6,17-1c4.2-0.3,8.4-0.8,12.6-1.2
			c1.4-0.1,2.7-0.2,4.1-0.3c2.8-0.3,5.6-0.7,8.5-0.7c4-0.1,8-0.7,11.9-1c1.5-0.1,2.9-0.3,4.4-0.4c1.3-0.1,1.9-0.9,2.1-2
			c0.3-1.9,0.7-3.8,0.7-5.6c-0.1-7.1-0.3-14.1-0.6-21.1c-0.2-4.6-0.7-9.2-1.1-13.8c-0.3-3.6-0.5-7.1-0.8-10.7
			c-0.2-2.6-0.7-5.2-0.2-7.9c0.1-0.3,0-0.6,0-0.9c-0.1-2,0-4-0.2-6s-0.8-3.9-0.9-5.9c-0.2-2-0.9-3.9-1.2-5.8
			c-0.6-3.7-1.3-7.5-1.8-11.2c-0.3-2.2-0.6-4.4-1.2-6.5c-0.6-2.3-1.5-4.6-1.9-7c-1-6-2.4-11.9-4.2-17.8c-0.8-2.5-1.4-5.1-2.5-7.5
			c-2.1-4.9-4.4-9.8-6.8-14.6c-1.4-2.8-3-5.6-5-8c-3.2-3.9-6.3-7.9-9.7-11.6c-1.9-2.2-4-4.4-6.4-6.1c-4.1-3-8.2-5.9-12.1-9.1
			c-3.8-3.1-7.7-5.8-12.2-7.8c-3.5-1.5-6.8-3.2-10.3-4.9c-3.7-1.8-7.5-3.3-11.4-4.4c-3.8-1-7.4-2.3-11.2-3.4
			c-2.2-0.7-4.5-1.2-6.7-1.8c-4.5-1.1-9.2-0.9-13.8-1.3c-4.9-0.4-9.9-0.6-14.8-0.9c-0.3,0-0.6,0-0.9-0.1c-1.2-0.3-2.4-0.4-3.7-0.4
			c-1.5,0-3,0.1-4.5,0.2c-2.3,0.1-4.6,0.4-6.9,0.5c-4.9,0.3-9.9,0.8-14.7,1.8c-2.6,0.6-5.1,1.4-7.6,2.1c-0.9,0.3-1.8,0.5-2.7,0.8
			c-5.1,2.1-10.3,3.7-15.5,5.4c-0.8,0.3-1.7,0.3-2.4,0.6c-3.1,1.2-6.2,2.5-9.4,3.7c-3,1.1-6.1,2.2-9.2,3.3c-0.9,0.3-1.8,0.7-2.6,1.2
			c-3.3,2.2-6.8,4.2-9.5,7.2c-0.8,0.9-1.8,1.8-2.9,2.5c-1.9,1.2-3.3,2.9-4.7,4.6c-0.9,1.1-1.7,2.4-2.5,3.6c-1,1.4-2,2.6-2.5,4.3
			c-0.2,0.8-0.9,1.4-1.4,2.1c-1.2,1.7-2.6,3.4-3.5,5.2c-1.9,4.1-4.7,7.7-6.7,11.7c-2.4,4.8-4.9,9.5-7.4,14.3
			c-0.4,0.8-0.8,1.7-1.2,2.6c-2,4.6-3.9,9.3-6.4,13.7c-0.2,0.4-0.4,0.8-0.5,1.1c-1.2,2.9-2.5,5.8-3.6,8.7c-1.2,3-2.5,6-3.4,9.2
			c-1.2,4.2-2.1,8.6-2.9,12.9c-0.9,4.7-1.7,9.5-2,14.3c-0.2,4.5-0.5,9-1.1,13.5c-0.7,4.9-0.7,9.9-1,14.8c-0.6,7.5,0,14.9,1,22.4
			c0.3,2.7,0.1,5.5,1,8.1c0.4,1.2,0.6,2.4,1,3.8C9.12,221.6,10.22,221.7,11.22,221.7 M21.62,36.6c2.6,0,5.1-0.8,7.7-1.1
			c3.4-0.5,6.1-2.2,8.9-3.9c0.5-0.3,0.7-0.8,0.5-1.3c-0.8-2-1.6-4-2.5-6.2c-2.3,0.9-4.4,1.8-6.6,2.5c-2.3,0.7-4.7,1.2-7.2,1.8
			c-1.2,2.7-2.8,5-3.2,8c0.8,0.1,1.4,0.1,2,0.2C21.32,36.6,21.42,36.6,21.62,36.6 M271.22,48.6c1-4.6,0.2-9-0.8-13.6
			c-0.7-0.1-1.1-0.3-1.5-0.3c-4.5-0.4-8.9-1.7-13.2-2.8c-3.7-1-7.1-2.7-10.1-5c-0.4-0.3-0.7-0.4-1.1-0.4s-0.8,0.2-1.1,0.6
			c-1.2,1.4-2.3,2.7-3.5,4.1c-0.4,0.5-1,0.8-0.8,1.7c2.2,2,4.3,4.2,7,5.6c0.5,0.2,0.9,0.6,1.3,0.9c1,0.6,2,1.2,3,1.7
			c2,0.9,4.3,1.4,6.1,2.5c2.1,1.4,4.4,2.1,6.6,2.9C265.72,47.3,268.32,48.2,271.22,48.6 M15.12,53.5c0.4,0,0.9,0,1.4-0.1
			c2.4-0.6,4.9-1.1,7.4-1.2c1.2-0.1,2.3-0.5,3.3-1c5-2.5,9.9-5.1,14.4-8.3c1.4-1,2.8-2.1,3.9-3.4c-1.6-1.6-3-3.1-4.7-4.9
			c-3.2,2.2-6.9,3.9-10.8,4.5s-7.9,0.7-12.1,1.1c-1.8,3.6-2.5,7.6-3.2,11.7C14.72,52.3,14.42,52.9,15.12,53.5 M262.82,62
			c1.8,0,3.6-0.1,5.4-0.2c0.6,0,1.2-0.2,1.7-0.3c1-2.8,1.4-6.7,1.1-9.2c-0.6-0.2-1.3-0.4-2-0.6c-2.9-0.8-5.9-1.6-8.8-2.5
			c-5.1-1.6-9.6-4.3-14.3-6.6c-2.9-1.5-5.6-3.3-8.1-5.5c-0.7-0.6-1.5-1.1-2.2-1.6c-2.6,1.7-5,3.4-7.5,5.1c0.4,0.5,0.7,0.8,1,1
			c2.9,2.3,5.8,4.5,8.7,6.8c4.6,3.6,9.7,6.7,13.6,11.2c0.4,0.5,1,0.9,1.5,1.1c2.6,0.6,5.1,1.2,7.7,1.4
			C261.32,61.9,262.12,62,262.82,62 M14.32,73.3c1.4-0.2,2.8-0.4,4.3-0.7c3.9-0.7,7.8-1.8,11.5-3.2c3.3-1.3,6-3.4,9-5.2
			c0.6-0.4,1.1-1,1.5-1.6c1.3-1.8,2.5-3.6,3.7-5.5c1.9-2.8,3.7-5.6,6.2-7.9c1-0.9,2-1.9,3-2.8c-1.5-1.7-2.9-3.1-4.8-4.2
			c-1.2,1.1-2.2,2.2-3.4,3c-3.6,2.4-7.2,4.8-11,6.8s-7.6,3.6-11.9,3.7c-0.5,0-1,0.2-1.5,0.3c-1.8,0.3-3.5,0.5-5.3,0.8
			c-0.5,0.1-1,0.2-1.4,0.3C13.52,61.3,13.52,70.4,14.32,73.3 M265.02,76.4c0.4-0.5,0.7-0.8,0.8-1.2c1.1-3,2.2-6.1,3.3-9.2
			c0.1-0.2-0.1-0.6-0.2-0.9c-1.3,0-2.6,0-3.9,0c-0.8,0-1.6,0-2.4-0.1c-2.2-0.1-4.3-0.5-7-0.8c1.4,1.9,2.1,3.6,3.6,4.9
			c1.8,1.5,3.2,3.3,4.4,5.3C263.92,75.2,264.42,75.7,265.02,76.4 M35.02,71.3c-0.7,0.2-1.3,0.3-1.7,0.5c-2,1-4,1.8-6.2,2.3
			c-3.3,0.7-6.5,1.5-9.8,2.3c-0.8,0.2-1.6,0.4-2.8,0.8c0.8,2.8,1.3,5.2,2.2,7.6c1.3,3.3,2.4,6.8,5.1,9.4c0.3,0.3,0.8,0.5,1.3,0.8
			c0.7-1.5,1.4-2.8,2-4.2c0.6-1.3,1.2-2.7,1.8-4c0.6-1.2,1.2-2.5,1.8-3.7c0.7-1.3,1.5-2.5,2.2-3.8s1.5-2.5,2.1-3.9
			C33.62,74.1,34.92,73.2,35.02,71.3 M258.42,0c-1.2,0-2.3,0.7-3.2,1.9c-0.1,0.2-0.3,0.4-0.4,0.6c-0.1,0.1-0.2,0.3-0.3,0.4
			c-0.5,0.7-1,1.5-1.4,2.2c-1.2,1.9-2.5,3.8-3.8,5.7c-1,1.4-2,2.9-3,4.3c-0.5,0.6-0.9,1.3-1.4,1.9c-2.7,3.8-5,6.8-7.3,9.5
			c-3.7,4.4-7.8,7.9-12.3,10.5c-0.6,0.4-1.3,0.6-1.9,0.6c-0.4,0-0.8-0.1-1.2-0.3c-1.6-0.7-3.3-1.5-4.8-2.3l-1.1-0.5
			c-1.8-0.9-3.6-1.8-5.4-2.7c-2.1-1.1-4.3-2.1-6.4-3.2c-0.4-0.2-0.7-0.3-1.1-0.4c-0.1,0-0.3-0.1-0.4-0.1c-1.5-0.5-3-0.9-4.5-1.4
			c-3.6-1.1-7.4-2.3-11.1-3.4l-0.6-0.2c-2.9-0.9-5.8-1.7-8.8-2.3c-3-0.5-6.2-1.1-9.4-1.1h-0.4l0,0c-0.3,0-0.6,0-0.9-0.1
			c-0.2,0-0.4-0.1-0.7-0.1c-0.8-0.1-1.7-0.2-2.5-0.3c-1.5-0.2-3-0.4-4.5-0.4c-0.4,0-0.8,0-1.2,0s-0.9,0-1.4,0c-1.5,0-3-0.2-4.4-0.3
			c-1.5-0.1-3-0.3-4.5-0.3c-0.1,0-0.2,0-0.3,0c-1.3-0.5-2.6-0.5-3.7-0.5c-0.5,0-1,0-1.5,0h-0.5c-0.9,0-1.8,0-2.7,0
			c-2.2,0-4.5,0-6.8,0.3c-1.7,0.2-3.4,0.3-5.1,0.5c-1.9,0.1-3.9,0.3-5.9,0.6c-6.4,0.9-12.7,2.5-18.7,4.8c-2.6,1-5.2,1.8-7.8,2.7
			c-0.8,0.3-1.6,0.5-2.3,0.8c-1.2,0.4-2.5,0.8-3.7,1.2c-1.9,0.6-3.9,1.2-5.9,1.9c-0.7,0.2-1.4,0.6-2,1c-1.1,0.6-2.1,1.2-3.3,1.2
			h-0.1c-1,0.4-2,0.7-3.1,1.1c-2.3,0.8-4.7,1.7-7,2.5c-3.2,1.1-6,2.8-8.4,5c-0.8,0.7-1.5,1.3-2.6,1.4c-0.2-0.1-0.3-0.2-0.5-0.3
			c-0.5-0.3-0.9-0.6-1.4-1c-2.2-2-4.3-4-6.5-6c-1.7-1.6-3.1-3.5-4.3-5.7c-1.4-2.6-2.4-5.5-3.3-8.2c-0.2-0.7-0.5-1.3-0.7-2
			c-1.1-3.2-2.4-6.9-3.8-10.4c-0.4-1.2-1.4-1.9-2.6-1.9c-0.2,0-0.4,0-0.7,0.1c-1.4,0.3-2.5,0.9-3.4,1.9c-1.1,1.3-2.2,2.5-3.3,3.7
			c-0.6,0.6-1.2,1.3-1.7,1.9c-0.2,0.2-0.4,0.5-0.7,0.7c-0.6,0.6-1.2,1.2-1.6,1.9c-3.7,5.6-6.5,11.3-8.4,17
			c-2.3,7.1-3.7,12.9-4.5,18.4c-0.1,0.5-0.1,0.9-0.2,1.4c-0.3,1.8-0.5,3.7-0.6,5.6c-0.1,2.9-0.1,5.8-0.1,8.6c0,1.2,0,2.5,0,3.7
			c0,1.6,0.2,3,0.6,4.4c0.4,1.3,0.7,2.6,0.9,3.8v0.1c0.7,3.4,2.1,6.7,3.4,9.8l0.2,0.4c0.3,0.8,0.7,1.5,1.1,2c1.5,2,3,3.9,4.3,5.5
			c0.7,0.9,1.3,1.7,1.6,2.7c-1.7,1.7-2.6,3.9-3.4,6c-0.3,0.7-0.5,1.3-0.8,2c-0.7,1.9-1.5,4-2.4,5.9c-0.1,0.2-0.2,0.4-0.3,0.6
			c-0.3,0.6-0.7,1.2-0.7,2c0,0.4-0.4,0.9-0.7,1.2c-0.7,0.7-0.9,1.3-0.9,2.1c0,0.4-0.2,0.8-0.4,1.2l-0.1,0.2
			c-0.6,1.5-1.3,2.9-1.9,4.4c-0.4,0.8-0.7,1.7-1.1,2.5c0,0.1-0.1,0.1-0.1,0.2c-0.1,0.2-0.3,0.5-0.2,0.8c0.1,1-0.3,1.9-0.7,2.8
			c-0.2,0.5-0.4,0.9-0.6,1.4c-0.7,2.4-1.1,4.6-1.2,6.6v0.2c0,0.6,0,1.3-0.3,1.9c-1.2,3.2-1.7,6.5-2,9.9c-0.2,1.5-0.3,3-0.4,4.5
			c-0.1,1.7-0.3,3.5-0.5,5.3c-0.5,4.1-0.6,7.8-0.4,11.4c0,0.4,0,1-0.2,1.4c-0.6,0.9-0.6,1.9-0.5,2.8c0,0.2,0,0.5,0,0.7
			c0,1.4-0.1,2.6,0.2,3.8c0.2,0.8-0.1,1.4-0.3,2.1c-0.2,0.6-0.4,1.1-0.4,1.8c0,0.1,0,0.3,0,0.4c0,0.1,0,0.1,0,0.2
			c-0.3,4.6-0.3,9.4,0,14.2c0,0.4,0,0.8,0.1,1.1c0,0.9,0.1,1.8,0.2,2.6c0.1,1.1,0.3,2.2,0.4,3.2c0.2,1.6,0.4,3.2,0.5,4.9
			c0,0.5,0.1,0.9,0.1,1.4c0.1,2,0.2,4.1,1.3,6c0.1,2,1.3,3.4,2.7,4.9c0,0,0.1,0.1,0.2,0.1h0.1c1.5-0.8,3.1-1.2,5.2-1.2
			c0.2,0,0.3,0,0.5,0c0.8,0,1.7,0,2.5,0c0.7,0,1.4,0,2,0c0.7,0,1.4,0,2,0c0.4,0,0.9,0,1.3,0c0.7,0,1.4,0,2.1,0c2.2,0,4.5,0,6.7,0.2
			c0.7,0.1,1.4,0.1,2.1,0.1c1.9,0.1,3.8,0.2,5.6,0.6c4.1,0.9,8.1,1.4,11.9,1.4c0.9,0,1.7,0.1,2.6,0.2c0.7,0.1,1.4,0.2,2.1,0.2
			c1.6,0.1,3.2,0.3,4.8,0.5c2,0.2,4.1,0.5,6.2,0.5c3.5,0.1,7.1,0.3,10.6,0.6l1.3,0.1c1.3,0.1,2.6,0.3,3.9,0.4
			c1.8,0.2,3.7,0.4,5.5,0.5c3.4,0.1,6.9,0.2,10.2,0.2c1.8,0,3.5,0,5.3,0.1c1.1,0,2.3,0.1,3.4,0.1c0.4,0,0.9,0,1.3,0.1
			c0.6,0,1.3,0.1,1.9,0.1c1.2,0.1,2.5,0.1,3.8,0.2c1,0,1.9,0,2.9,0.1c1.5,0,3.1,0,4.7,0.1c3.6,0.2,7.2,0.5,10.7,0.7
			c2.3,0.2,4.6,0.3,6.9,0.5c0.2,0,0.5,0,0.7,0c0.3,0,0.6,0,0.9,0c0.3,0,0.6,0,0.9,0c0.5,0,0.9,0,1.3,0.1c2.1,0.3,4.2,0.5,6.2,0.7
			c0.9,0.1,1.9,0.2,2.8,0.3c0.6,0.1,1.2,0.2,1.8,0.2c1.1,0.2,2.2,0.3,3.2,0.3c0.2,0,0.4,0,0.6,0c0.3,0,0.7,0,1,0
			c1.3,0,2.6,0.1,3.9,0.3c1.1,0.1,2.2,0.2,3.3,0.3c1.7,0.1,3.4,0.2,5.1,0.4c1.8,0.2,3.7,0.4,5.6,0.4c2.9,0,5.9,0.1,9.6,0.1
			c3,0,6.1,0,9.1,0c1.9,0,3.8,0,5.6,0c0.5,0,1-0.1,1.6-0.1c0.3,0,0.6-0.1,1-0.1c1.2-0.1,2.2-0.2,3.1-0.2c0.6,0,1.2,0,1.7,0
			c0.8,0,1.6,0,2.4-0.1c0.9,0,1.7-0.1,2.6-0.2c0.7-0.1,1.4-0.1,2.1-0.2c2-0.1,4-0.3,6-0.4c1.5-0.1,2.9-0.2,4.4-0.3
			c3.4-0.2,6.7-0.4,10.1-0.7c1.1-0.1,2.2-0.1,3.3-0.2c2.7-0.2,5.6-0.4,8.4-0.6c2.9-0.3,5.9-0.5,8.8-0.8c2.8-0.3,5.7-0.5,8.5-0.8
			c2-0.2,4.1-0.3,6.1-0.5c2.2-0.2,4.5-0.3,6.8-0.5c3.9-0.4,7.7-0.8,10.7-1.2c0.7-0.1,1.3-0.3,1.9-0.5c0.2-0.1,0.5-0.2,0.7-0.3
			c0.1,0,0.1-0.1,0.2-0.1c1.8-4,2-8,2-11.4c0-2.8,0-5.8-0.1-8.8c-0.1-1.4-0.1-2.9-0.1-4.3c0-2.3-0.1-4.7-0.2-7
			c-0.2-3.5-0.6-7-0.9-10.4c-0.3-3.2-0.6-6.5-0.8-9.7l-0.2-2.2c-0.4-5.2-0.8-10.7-0.7-16c0-1.1-0.1-2.1-0.2-2.9
			c-0.6-2.7-1.2-5.6-1.7-8.9c-0.2-1.1-0.4-2.3-0.6-3.4c-0.6-3.1-1.2-6.4-1.3-9.7c0-0.4-0.1-0.8-0.2-1.2v-0.1
			c-0.2-0.8-0.3-1.6-0.5-2.3c-0.5-2.5-1-5-1.9-7.5c-0.4-1.2-0.6-2.1-0.8-3c-0.7-4.1-1.5-8.4-2.8-12.6c-1.6-5.4-3-9.6-4.4-13.5
			c-0.3-0.8-0.7-1.6-1.1-2.3c-1.1-1.9-1.9-3.8-2.7-5.8c-0.3-0.8-0.6-1.5-1-2.3c0.2-0.3,0.5-0.7,0.7-1c0.5-0.8,1.1-1.5,1.4-2.3
			c0.2-0.6,0.5-1.3,0.7-1.9c1.4-3.4,2.8-7,3.8-10.6c1.9-6.6,2.2-13.6,2.4-20.3v-1.1c0-0.4,0-0.7,0-1c-0.6-5.6-1.4-12.3-3.1-18.7
			c-0.9-3.3-2-6.5-3.2-9.6c-0.5-1.1-1.1-2.2-1.7-3.3c-0.6-1-1.2-2.1-1.6-3.1c-1-2.5-2.9-4.4-4.6-6.2c-0.6-0.6-1.1-1.2-1.7-1.8
			C260.32,0.5,259.42,0,258.42,0L258.42,0z M254.32,12.9c0.4-0.8,0.9-1.5,1.4-2.1c0.4-0.4,0.7-0.9,1-1.3c0.2-0.3,0.4-0.6,0.5-0.9
			c0.5-0.9,1-1.8,2-2.4c2.1,2,3.3,4.7,4.6,7.4l0.3,0.7c-0.5,0.4-1,0.6-1.6,0.6c-0.2,0-0.4,0-0.7-0.1c-0.4-0.1-0.7-0.1-1.1-0.2
			c-1.1-0.2-2.2-0.4-3.2-0.5C256.32,13.8,255.32,13.5,254.32,12.9L254.32,12.9z M25.02,24.1c1.7-3.4,5.3-8,7.6-9.8
			c0.3,0.7,0.6,1.4,0.9,2.1c0.6,1.3,1.1,2.4,1.3,3.7c-1,0.4-2,0.9-3,1.3C29.72,22.5,27.52,23.6,25.02,24.1L25.02,24.1z M247.12,23.4
			c1-2.3,3.2-5.4,5.2-7.4c4.6,1.7,9.5,2.1,13.6,2.2c1.3,2.3,1.8,4.9,2.4,7.3c0.2,1,0.4,2,0.7,3c0.1,0.5,0.1,1,0.1,1.6
			c0,0.2,0,0.4,0,0.6c-0.1,0-0.1,0-0.2,0.1c-0.2,0.1-0.3,0.1-0.5,0.1c0,0,0,0-0.1,0c-3.2-0.4-6.6-0.8-9.8-1.9
			c-0.6-0.2-1.3-0.4-1.9-0.7c-1.8-0.6-3.6-1.2-5.4-2.2C249.52,25.2,248.22,24.3,247.12,23.4L247.12,23.4z M8.32,221.4
			c-0.1-0.4-0.2-0.7-0.3-1.1c-0.2-0.9-0.4-1.7-0.7-2.5c-0.6-1.7-0.7-3.6-0.8-5.3c0-0.9-0.1-1.8-0.2-2.7c-0.8-6.1-1.6-14.2-1-22.3
			c0.1-1.8,0.2-3.6,0.3-5.3c0.1-3.1,0.3-6.3,0.7-9.5c0.6-4.4,0.8-8.8,1.1-13.2v-0.4c0.2-4.7,1.1-9.4,1.9-13.9l0.1-0.4
			c0.9-4.9,1.8-9.1,2.9-12.9c0.7-2.5,1.7-4.9,2.6-7.2c0.3-0.6,0.5-1.3,0.8-1.9c0.8-2.1,1.7-4.2,2.6-6.3c0.3-0.8,0.7-1.6,1-2.4
			c0.2-0.4,0.3-0.8,0.5-1.1c2-3.5,3.6-7.3,5.2-10.9c0.4-0.9,0.8-1.9,1.2-2.8c0.1-0.2,0.2-0.5,0.3-0.7c0.3-0.6,0.5-1.3,0.8-1.8
			c2.1-3.9,4.1-7.8,6.1-11.7l1.3-2.6c0.9-1.8,2.1-3.6,3.1-5.4c1.3-2,2.6-4.1,3.6-6.4c0.6-1.3,1.5-2.5,2.3-3.6
			c0.4-0.5,0.8-1.1,1.2-1.6c0.1-0.2,0.3-0.4,0.5-0.6c0.4-0.5,0.8-1,0.9-1.5c0.3-1.3,1.1-2.4,1.9-3.5c0.2-0.2,0.3-0.5,0.5-0.7
			c0.3-0.4,0.6-0.8,0.9-1.3c0.5-0.8,1-1.6,1.6-2.3c1.3-1.7,2.7-3.4,4.6-4.6c1-0.7,2-1.5,2.9-2.5c2.3-2.7,5.3-4.6,8.2-6.4
			c0.4-0.3,0.8-0.5,1.2-0.8c0.8-0.5,1.7-0.8,2.5-1.1c1.3-0.5,2.5-0.9,3.8-1.3c1.8-0.6,3.6-1.3,5.4-1.9c1.7-0.6,3.4-1.3,5.1-2
			c1.4-0.6,2.9-1.2,4.3-1.7c0.4-0.2,0.8-0.2,1.3-0.3c0.4-0.1,0.8-0.1,1.2-0.3l0.8-0.3c4.9-1.6,9.9-3.2,14.7-5.1
			c0.6-0.3,1.3-0.4,1.9-0.6c0.3-0.1,0.5-0.1,0.8-0.2c0.8-0.2,1.5-0.4,2.3-0.7c1.7-0.5,3.5-1.1,5.3-1.5c4.9-1.1,9.9-1.5,14.7-1.8
			c0.9-0.1,1.8-0.1,2.7-0.2c1.4-0.1,2.8-0.3,4.2-0.3c0.6,0,1.3-0.1,1.9-0.1c0.9,0,1.7-0.1,2.6-0.1c1.4,0,2.6,0.1,3.6,0.4
			c0.3,0.1,0.7,0.1,1,0.1c1.5,0.1,3.1,0.2,4.6,0.2c3.3,0.2,6.8,0.3,10.2,0.6c1.5,0.1,3,0.2,4.5,0.3c3.1,0.1,6.2,0.2,9.3,1
			c2,0.5,4.4,1.1,6.7,1.8c1.5,0.4,3,0.9,4.5,1.4c2.2,0.7,4.4,1.4,6.6,2c3.4,0.9,7.1,2.3,11.4,4.4c1,0.5,2,1,3,1.4
			c2.4,1.2,4.8,2.4,7.3,3.5c3.9,1.7,7.7,4.2,12.1,7.8c4.1,3.3,8.4,6.5,12.1,9.1c2.5,1.8,4.7,4.2,6.4,6c2.3,2.6,4.6,5.4,6.7,8
			c1,1.2,2,2.4,3,3.6c1.7,2.1,3.3,4.6,5,8c2.4,4.8,4.7,9.7,6.8,14.6c0.9,2,1.5,4.1,2.1,6.2c0.1,0.4,0.2,0.8,0.4,1.2
			c1.7,5.6,3.1,11.6,4.1,17.8c0.3,1.7,0.8,3.3,1.3,4.9c0.2,0.7,0.4,1.4,0.6,2.1c0.6,2.1,0.9,4.3,1.2,6.5c0.3,2.5,0.8,5,1.2,7.4
			c0.2,1.3,0.4,2.5,0.6,3.8c0.1,0.8,0.3,1.6,0.5,2.4c0.3,1.1,0.6,2.2,0.6,3.4c0.1,1,0.3,2.1,0.5,3.1c0.2,0.9,0.4,1.9,0.4,2.8
			c0.1,1.4,0.1,2.7,0.2,4.1c0,0.6,0,1.2,0,1.9c0,0.1,0,0.2,0,0.4s0,0.4,0,0.5c-0.4,2.2-0.2,4.5,0,6.6c0,0.4,0.1,0.9,0.1,1.3
			c0.2,2.2,0.4,4.5,0.5,6.7c0.1,1.3,0.2,2.7,0.3,4c0.1,1.6,0.3,3.1,0.4,4.7c0.3,3,0.5,6.1,0.7,9.2c0.3,6.3,0.5,13,0.6,21.1
			c0,1.5-0.2,3-0.5,4.5c-0.1,0.4-0.1,0.7-0.2,1.1c-0.2,1.1-0.8,1.7-1.9,1.8c-0.8,0.1-1.6,0.2-2.4,0.2c-0.7,0.1-1.3,0.1-2,0.2
			c-1.2,0.1-2.5,0.3-3.7,0.4c-2.7,0.3-5.5,0.6-8.2,0.7c-2,0-3.9,0.2-5.8,0.5c-0.9,0.1-1.8,0.2-2.7,0.3c-0.6,0.1-1.2,0.1-1.7,0.1
			c-0.8,0.1-1.6,0.1-2.4,0.2c-1.4,0.1-2.7,0.3-4.1,0.4c-2.8,0.3-5.6,0.6-8.5,0.8l-2,0.1c-4.9,0.4-10,0.7-15,0.9
			c-3,0.1-6.1,0.3-9,0.5c-1.3,0.1-2.6,0.2-3.9,0.3c-0.4,0-0.8,0.1-1.1,0.1c-0.5,0-0.9,0.1-1.4,0.1c-1.2,0.1-2.5,0.1-3.7,0.2
			c-2.9,0.2-5.9,0.4-8.9,0.4c-3.2,0.1-6,0.1-8.6,0.1c-3.2,0-6.2,0-9-0.1c-3.4-0.1-6.8-0.4-10.2-0.6c-1.5-0.1-3.1-0.2-4.6-0.3
			c-0.3,0-0.5,0-0.8-0.1c-0.5,0-1.1-0.1-1.7-0.1c-0.1,0-0.3,0-0.4,0c-0.4,0-0.8,0-1.2,0c-2.3,0-4.6-0.3-6.8-0.6
			c-1.1-0.1-2.2-0.3-3.3-0.4c-1-0.1-1.9-0.2-2.9-0.3c-3.5-0.3-7.1-0.7-10.7-0.8c-2.9-0.1-5.9-0.3-8.8-0.6c-1.9-0.1-3.8-0.3-5.7-0.4
			c-1.8-0.1-3.6-0.1-5.4-0.2c-1.2,0-2.3,0-3.5-0.1c-1.4-0.1-2.9-0.1-4.3-0.2c-2.1-0.1-4.3-0.2-6.4-0.2c-2,0-4.1-0.1-6-0.1
			c-3,0-6.1,0-9.1-0.2c-3.4-0.2-6.9-0.5-10.3-0.7c-1.7-0.1-3.4-0.3-5.1-0.4c-1.2-0.1-2.4-0.2-3.6-0.2c-1.6-0.1-3.2-0.2-4.9-0.3
			c-2.5-0.2-5.1-0.5-7.5-0.7c-0.9-0.1-1.9-0.2-2.8-0.3c-0.2,0-0.3,0-0.5-0.1c-0.3,0-0.5-0.1-0.8-0.1c-4.4-0.1-8.5-0.6-12.4-1.5
			c-1.8-0.5-3.7-0.5-5.5-0.6c-0.6,0-1.2,0-1.7-0.1c-0.8,0-1.6-0.1-2.4-0.1c-1.4-0.1-2.8-0.1-4.2-0.2c-1.8-0.1-3.8-0.3-5.8-0.3
			c-2.2,0-4.1,0.2-5.9,0.5c-0.5,0.1-1,0.1-1.7,0.1c-0.5,0-1,0-1.5,0C9.22,221.4,8.72,221.4,8.32,221.4L8.32,221.4z M22.52,28.6
			c0.8-0.2,1.5-0.4,2.2-0.5c1.7-0.4,3.3-0.8,4.9-1.3c1.5-0.5,3-1.1,4.5-1.7c0.6-0.2,1.2-0.5,1.9-0.7c0.2,0.5,0.4,1,0.6,1.5
			c0.6,1.5,1.2,3,1.8,4.4c0.1,0.4,0,0.8-0.4,1l-0.5,0.3c-2.7,1.6-5.2,3.1-8.3,3.5c-0.9,0.1-1.8,0.3-2.7,0.5c-1.6,0.3-3.3,0.7-5,0.7
			c-0.1,0-0.3,0-0.4,0c-0.4,0-0.8,0-1.3-0.1c-0.2,0-0.3,0-0.5,0c0.3-2,1.2-3.7,2.1-5.5C21.82,30,22.22,29.3,22.52,28.6L22.52,28.6z
			 M239.32,32.7c-0.1-0.5,0.2-0.8,0.5-1.2c0.1-0.1,0.2-0.2,0.2-0.3c1.1-1.4,2.3-2.7,3.5-4.1c0.3-0.4,0.6-0.6,0.9-0.6
			s0.6,0.1,0.9,0.4c3.2,2.4,6.7,4.1,10.2,5c0.7,0.2,1.4,0.4,2.1,0.6c3.6,1,7.4,2,11.2,2.3c0.2,0,0.5,0.1,0.8,0.2
			c0.1,0,0.3,0.1,0.5,0.1c1,4.6,1.7,8.7,0.8,13.1c-2.8-0.4-5.3-1.2-7.7-2.1l-0.6-0.2c-2-0.7-4.1-1.4-6-2.7c-1.2-0.8-2.6-1.3-3.9-1.7
			c-0.7-0.3-1.5-0.5-2.2-0.8c-0.8-0.3-1.5-0.8-2.3-1.2c-0.2-0.1-0.5-0.3-0.7-0.4s-0.4-0.2-0.6-0.4c-0.2-0.2-0.5-0.4-0.8-0.5
			c-2.2-1.1-4-2.8-5.7-4.4C240.12,33.4,239.72,33.1,239.32,32.7L239.32,32.7z M18.12,40.2c1.2-0.1,2.4-0.2,3.6-0.3
			c2.9-0.2,5.6-0.4,8.3-0.8c3.7-0.6,7.3-2,10.8-4.4l3.6,3.7l0.9,0.9c-1.1,1.3-2.5,2.4-3.7,3.2c-4.9,3.5-10,6.2-14.4,8.3
			c-1.1,0.5-2,1-3.2,1c-2.3,0.1-4.8,0.5-7.5,1.2c-0.3,0.1-0.7,0.1-1,0.1c-0.1,0-0.2,0-0.3,0c-0.4-0.4-0.3-0.8-0.2-1.3
			c0-0.1,0-0.2,0.1-0.3C15.62,48.1,16.32,43.9,18.12,40.2L18.12,40.2z M228.52,40.5l3.7-2.5l3.4-2.3c0.2,0.1,0.4,0.3,0.6,0.4
			c0.5,0.3,1,0.7,1.5,1.1c2.4,2.2,5.2,4.1,8.1,5.5c1.2,0.6,2.4,1.2,3.6,1.8c3.4,1.8,7,3.6,10.8,4.8c1.9,0.6,3.8,1.1,5.7,1.7
			c1,0.3,2,0.6,3,0.9c0.5,0.1,1,0.3,1.4,0.4c0.2,0.1,0.3,0.1,0.5,0.1c0.3,2.5-0.1,6.1-1,8.8c-0.1,0-0.2,0-0.4,0.1
			c-0.4,0.1-0.8,0.2-1.2,0.2c-0.7,0-1.3,0.1-2,0.1c-1.1,0.1-2.3,0.1-3.4,0.1c-0.8,0-1.5,0-2.1-0.1c-2.2-0.2-4.4-0.7-6.6-1.1
			l-1.1-0.3c-0.4-0.1-0.9-0.5-1.4-1c-2.8-3.3-6.4-5.9-9.8-8.4c-1.3-0.9-2.6-1.9-3.8-2.8c-1.5-1.1-2.9-2.3-4.4-3.4
			c-1.4-1.1-2.9-2.2-4.3-3.4c-0.2-0.1-0.3-0.3-0.5-0.6C228.62,40.6,228.52,40.5,228.52,40.5L228.52,40.5z M14.42,57.2
			c0.1,0,0.2,0,0.2-0.1c0.3-0.1,0.6-0.2,1-0.2c0.9-0.1,1.7-0.2,2.6-0.4c0.9-0.1,1.8-0.3,2.7-0.4c0.2,0,0.5-0.1,0.7-0.2
			c0.3-0.1,0.6-0.2,0.8-0.2c4.5-0.1,8.4-1.8,12-3.7c3.8-2,7.4-4.4,11-6.8c0.8-0.6,1.6-1.3,2.3-2c0.3-0.3,0.6-0.6,0.9-0.9
			c1.5,1,2.9,2.2,4.5,3.9c-0.3,0.3-0.5,0.5-0.8,0.8c-0.7,0.7-1.4,1.3-2,1.9c-2.3,2.1-4,4.6-5.7,7.1l-0.6,0.8
			c-0.5,0.7-0.9,1.4-1.4,2.1c-0.7,1.1-1.5,2.3-2.3,3.4c-0.4,0.6-0.9,1.2-1.4,1.5c-0.9,0.5-1.7,1.1-2.6,1.6c-2,1.3-4.1,2.7-6.4,3.5
			c-3.4,1.3-7.2,2.4-11.5,3.2c-1,0.2-2,0.3-2.9,0.5c-0.4,0.1-0.7,0.1-1.1,0.2C13.82,70,13.82,61.4,14.42,57.2L14.42,57.2z
			 M265.02,76c-0.1-0.1-0.2-0.3-0.3-0.4c-0.3-0.4-0.7-0.7-0.9-1.1c-1.2-2.1-2.7-3.9-4.4-5.4c-0.9-0.8-1.5-1.8-2.2-2.9
			c-0.3-0.5-0.6-1-1-1.5c0.7,0.1,1.3,0.2,1.9,0.2c1.7,0.2,3.1,0.4,4.6,0.5c0.7,0,1.5,0.1,2.4,0.1c0.6,0,1.3,0,1.9,0s1.2,0,1.8,0v0.1
			c0,0.2,0.1,0.3,0.1,0.4c-1.1,3-2.2,6.1-3.3,9.2c-0.1,0.2-0.2,0.4-0.4,0.6C265.12,75.8,265.02,75.9,265.02,76L265.02,76z
			 M14.92,77.3c0.3-0.1,0.6-0.2,0.9-0.3c0.6-0.2,1.1-0.3,1.7-0.5l1.8-0.4c2.6-0.6,5.3-1.3,8-1.9c2.1-0.5,4.2-1.2,6.3-2.3
			c0.3-0.1,0.5-0.2,0.9-0.3c0.1,0,0.2-0.1,0.3-0.1c-0.2,0.9-0.7,1.6-1.1,2.3c-0.3,0.4-0.6,0.9-0.8,1.3c-0.5,1.1-1.1,2.1-1.6,3.1
			c-0.1,0.3-0.3,0.5-0.4,0.8c-0.3,0.6-0.7,1.1-1,1.7c-0.4,0.7-0.8,1.4-1.2,2.1c-0.7,1.3-1.3,2.6-1.8,3.7c-0.4,0.7-0.7,1.5-1,2.2
			c-0.3,0.6-0.5,1.2-0.8,1.8c-0.4,0.9-0.9,1.8-1.3,2.8l-0.5,1.1c-0.1-0.1-0.2-0.1-0.3-0.2c-0.3-0.2-0.6-0.3-0.8-0.5
			c-2.4-2.4-3.5-5.5-4.7-8.5l-0.3-0.8c-0.6-1.6-1-3.2-1.5-5C15.32,78.9,15.12,78.1,14.92,77.3L14.92,77.3z"/>
	</g>
	<g>
		<path d="M69.32,88.4c-0.4,0-0.7,0-1-0.1c-0.7-0.1-1.2-0.4-1.5-0.9s-0.4-1.1-0.2-1.8c0.2-0.6,0.4-1.1,0.6-1.6
			c0.1-0.2,0.2-0.4,0.2-0.6c-0.5-0.4-0.8-0.6-0.9-0.6c-0.1,0-0.3,0.1-0.6,0.5c-0.1,0.1-0.1,0.2-0.2,0.3c-0.1,0.2-0.2,0.3-0.3,0.5
			c-0.7,0.7-1.4,1-2.2,1c-0.2,0-0.5,0-0.8-0.1c-1.2-0.3-1.8-1-2-2.2c-0.5,0.5-0.7,1.1-1,1.7c-0.1,0.2-0.2,0.4-0.2,0.6
			c-0.3,0.8-0.9,1.3-1.7,1.3c-0.1,0-0.3,0-0.4,0c-1.2-0.2-2.5-0.4-3.7-0.8c-0.6-0.2-1.4-0.8-1.5-1.3c-0.1-1.1-0.8-1.7-1.6-2.2
			c-0.3-0.2-0.6-0.5-0.9-0.7v-0.1c0.1-0.6,0.2-1.2,0.3-1.8c0.2-1.4,0.5-2.7,0.8-4.1c0.5-1.8,0.2-3.3-0.9-4.5
			c-0.1-0.1-0.2-0.3-0.3-0.5c-0.2-0.4-0.2-0.9,0.1-1.3c0.2-0.4,0.5-0.6,0.9-0.6c0.2,0,0.3,0,0.5,0c0.6,0,1.1,0,1.7,0.1
			c0.3,0,0.7,0.1,1,0.1c0.5-0.2,0.7-0.8,0.9-1.4c0.1-0.2,0.1-0.3,0.2-0.5c0.5-1.4,1.5-2,3.1-2c0.1,0,0.2,0,0.3,0
			c0.5,0,1,0.1,1.5,0.1l0.7,0.1c0.1-0.2,0.3-0.5,0.4-0.8c0.6-1.1,1.2-2.3,2.8-2.4c0.1,0,0.2,0,0.3,0c1.7,0,2.7,0.9,3,2.8
			c0.3-0.2,0.6-0.3,0.8-0.5c0.6-0.4,1.2-0.7,1.8-0.8c0.8-0.1,1.2-0.6,1.7-1c0.2-0.2,0.3-0.4,0.5-0.5c0.3-0.2,0.6-0.4,0.9-0.4
			l0.4-0.1c0.9-0.2,1.8-0.5,2.7-0.6c0.2,0,0.4,0,0.6,0c0.4,0,0.8,0,1.3,0.1s1,0.3,1.5,0.4c0.2,0.1,0.4,0.1,0.6,0.2
			c0.1-0.1,0.2-0.2,0.4-0.4c0.3-0.3,0.6-0.6,0.9-0.9c0.6-0.5,1.4-0.8,2.2-0.8s1.5,0.3,2,0.8c0.8,0.8,1.6,1.1,2.5,1.1
			c0.7,0,1.5-0.2,2.5-0.7c0.7-0.3,1.3-0.5,1.8-0.5h0.2c0.2,0,0.5,0,0.7,0s0.5,0,0.7,0c0.6,0,1.3-0.1,2-0.5c0.1-0.1,0.3-0.1,0.5-0.1
			s0.3,0,0.5,0.1c1.8,0.5,3.7,0.7,5.5,0.9c0.7,0.1,1.5,0.2,2.2,0.2c0.6,0.1,1.1,0.3,1.6,0.6c0.3,0.1,0.5,0.2,0.8,0.4
			c0.3-0.2,0.5-0.5,0.7-1c0.3-0.6,0.7-1.2,1.5-1.2h0.2c0.6,0,1.3,0.1,1.9,0.2c0.4,0,0.7,0.1,1.1,0.1c0.1-0.1,0.2-0.2,0.4-0.4
			c0.5-0.4,1-0.9,1.6-1.1c0.3-0.1,0.7-0.1,1.1-0.1c0.3,0,0.6,0,0.9,0c0.3,0,0.6,0,0.9,0l0.2-0.3c0.2-0.3,0.4-0.6,0.6-0.9
			c0.2-0.3,0.5-0.5,0.7-0.8l0.4-0.4h0.1l0,0c0.2,0.1,0.4,0.1,0.6,0.2c0.4,0.1,0.8,0.2,1.2,0.4l0.4,0.1c0.5,0.2,1,0.4,1.6,0.4
			c0.3,0,0.6-0.1,1-0.2c0.1-0.1,0.3-0.1,0.5-0.1c0.3,0,0.6,0.1,0.9,0.1c0.3,0.1,0.6,0.1,0.8,0.1c0.5,0,0.9-0.1,1.4-0.5
			c0.5-0.3,1-0.5,1.6-0.5c0.9,0,1.7,0.4,2.3,1.2c0.9,1.3,2.1,1.5,3,1.5c0.3,0,0.7,0,1-0.1c0.5-0.1,0.9-0.2,1.4-0.2
			c0.9,0,1.8,0.2,2.6,0.4c0,0,0.1-0.1,0.2-0.1c0.1-0.1,0.2-0.1,0.3-0.2c0.6-0.9,1.3-1.4,2.2-1.4c0.5,0,1,0.2,1.5,0.4
			c0.6,0.3,1,0.4,1.5,0.4c0.3,0,0.6-0.1,0.8-0.2c0.3-0.1,0.5-0.2,0.8-0.2c0.5,0,1,0.2,1.4,0.3c0.4,0.1,0.8,0.3,1.2,0.3h0.1
			c0.4,0,0.8-0.2,1.2-0.3c0.4-0.2,0.9-0.4,1.4-0.4c0.1,0,0.2,0,0.3,0c1.1,0.2,1.9,0.7,2.6,1.7c0.9-0.8,1.9-1.2,2.8-1.2
			c0.7,0,1.4,0.2,2.1,0.7c0.2-0.1,0.4-0.3,0.6-0.4c0.6-0.5,1.3-0.9,2.2-0.9c0.1,0,0.2,0,0.3,0c1.1,0.1,1.9,0.6,2.7,1.2l0.3,0.2
			l0.2-0.3c0.1-0.2,0.2-0.4,0.3-0.5c0.6-1.2,1.3-1.8,2.1-1.8c0.5,0,0.9,0.2,1.5,0.5c1.1,0.7,2.4,1.4,3.9,1.8l0.1-0.1
			c0.1-0.1,0.3-0.3,0.3-0.4c0.9-2,1.1-2.5,2.6-2.5c0.3,0,0.7,0,1.2,0.1c0.1,0,0.3,0,0.4,0.1c0.2,0,0.3,0.1,0.5,0.1
			c0.1,0,0.2,0,0.3-0.1c0.6-0.4,1.2-0.6,1.9-0.6c0.8,0,1.6,0.2,2.3,0.5c1.1-1.2,1.9-1.8,2.8-1.8c0.9,0,1.8,0.7,3,1.9
			c0.3-0.1,0.5-0.3,0.8-0.5c0.4-0.3,0.8-0.6,1.5-0.6h0.1c0.9,0.1,1.6,0.4,2,0.9s0.5,1.3,0.3,2.2c-0.1,0.3-0.1,0.6-0.2,0.9
			c-0.1,0.4-0.2,0.8-0.3,1.3c0,0.3,0,0.5,0,0.8c0,0.1,0,0.2,0,0.3c0.1,0,0.1,0,0.2,0c0.3,0,0.3-0.2,0.4-0.4c0-0.1,0-0.1,0.1-0.2
			c0.2-0.5,0.4-1.1,0.7-1.6c0.4-0.9,0.7-1.9,1.2-2.8c0.5-1,1.5-1.6,2.5-1.6c0.7,0,1.4,0.2,2,0.7c0.4,0.3,0.5,0.7,1,2.3
			c0.1-0.1,0.1-0.2,0.2-0.2c0.2-0.3,0.4-0.6,0.5-0.8c0.1-0.2,0.2-0.4,0.3-0.7c0.1-0.3,0.2-0.5,0.4-0.8c0.5-0.9,1.2-1.4,2-1.4
			c0.3,0,0.7,0.1,1.1,0.3c0.9,0.4,1.9,0.8,3,0.8c0.3,0,0.6,0,0.9-0.1c0.1,0,0.2,0,0.3,0c0.6,0,1.2,0.3,1.5,0.4
			c0.5,0.2,1,0.3,1.5,0.3c0.2,0,0.3,0,0.5,0c0.1,0,0.3,0,0.4,0c0.4,0,0.8,0.1,1.2,0.2c1,0.2,1.6,1,1.6,1.9c0,0.6,0,1.2-0.1,1.7
			c0,0.2,0,0.4-0.1,0.6c0.4-0.1,0.5-0.5,0.7-0.9c0.1-0.2,0.1-0.4,0.2-0.5c0.6-1.2,1.4-1.8,2.3-1.8c0.5,0,1.1,0.2,1.7,0.7
			c0.8,0.6,1.5,0.8,2.5,0.8c1.8,0.1,2.6,0.9,2.6,2.7c0,0.9-0.1,1.7-0.2,2.6v0.3c-0.1,0.9-0.3,1.9-0.4,2.8c-0.2,1.6-0.5,3.3-0.6,5
			c-0.1,0.9-0.1,1.7,0,2.6c0,0.4,0,0.8,0,1.1c0,0,0,0.1-0.1,0.1c-0.9,0.7-1.6,1-2.2,1c-0.8,0-1.5-0.5-2.7-1.5l-4.6,0.6l-1.6,2.3
			c-0.7,0.3-1.4,0.5-2,0.5c-1.2,0-2.1-0.6-2.9-1.7c-0.4-0.6-0.8-0.8-1.5-0.9c-0.6-0.1-1.1-0.3-1.8-0.5c-0.3-0.1-0.6-0.2-0.9-0.3
			c-0.9,1.2-2,1.7-3.3,1.7c-0.7,0-1.5-0.2-2.3-0.5c-0.3,0.2-0.6,0.4-0.9,0.7c-0.7,0.5-1.4,1.1-2.4,1.1c-0.1,0-0.3,0-0.4,0
			c-1.2-0.2-2.2-0.8-3.1-1.8c-0.1,0-0.1,0-0.2,0.1c-0.1,0-0.3,0.1-0.3,0.1c-0.7,1.3-1.7,1.9-3,1.9c-0.4,0-0.9-0.1-1.4-0.2
			c-0.3-0.1-0.7-0.2-1-0.2c-0.2,0-0.3,0-0.4,0.1c-0.6,0.2-1.1,0.4-1.7,0.4c-1.1,0-2.1-0.4-3.3-1.4c-0.1,0-0.2,0.1-0.2,0.1
			c-0.2,0.1-0.4,0.2-0.4,0.3c-0.6,1.1-1.4,1.7-2.6,1.7c-0.4,0-0.8-0.1-1.3-0.2c-1.8-0.5-3.2-0.8-4.6-0.9c-0.2,0-0.5,0-0.7,0
			c-0.5,0-1.1,0.1-1.6,0.1c-0.4,0-0.7,0.1-1,0.1c0,0-0.1,0.1-0.2,0.2c-0.2,0.1-0.4,0.2-0.4,0.4c-0.7,1.2-1.7,1.8-2.8,1.8
			c-0.4,0-0.9-0.1-1.4-0.3c-0.4-0.2-0.9-0.2-1.4-0.2c-0.2,0-0.5,0-0.7,0l-0.6-0.1c-0.7-0.1-1.5-0.2-2.2-0.2c-0.2,0-0.4-0.1-0.6-0.1
			c-0.3-0.1-0.6-0.1-0.9-0.1l-0.2-0.1v0.1c-2.3,0-2.5,0-4.3-1.1l-1.7,2c-0.6,0.1-1,0.1-1.4,0.1c-1.1,0-2.1-0.2-3-0.8
			c-0.8-0.4-1.7-0.7-2.6-0.9c-0.4-0.1-0.8-0.2-1.1-0.3l-1.9,1.8h-0.1l0,0c-1.6-0.4-2.9-0.6-4.1-0.6c-0.6,0-1.2,0-1.8,0.1
			c-0.2,0-0.3,0-0.5,0c-0.3,0-0.7,0-1.1-0.2c-0.5-0.3-1-0.4-1.7-0.4c-0.3,0-0.6,0-1,0.1c-0.1,0-0.1,0-0.2,0c-0.4,0-0.9-0.1-1.3-0.2
			c-0.2,0-0.4-0.1-0.6-0.1l-0.8-0.1c-1.8-0.3-3.8-0.6-5.7-0.6h-0.5c-0.6,0-1.2-0.1-1.8-0.1c-0.3,0-0.7-0.1-1-0.1
			c0,0.1-0.1,0.1-0.2,0.2c-0.3,0.3-0.7,0.6-1.1,0.7c-0.4,0.1-0.8,0.2-1.3,0.2c-0.3,0-0.6,0-0.9-0.1h-0.3c-0.3,0-0.5-0.1-0.8-0.1
			c-0.5,0-0.9,0.1-1.3,0.4c-0.4,0.3-1,0.5-1.6,0.5c-0.5,0-0.9-0.1-1.4-0.2h-0.2c-1.2-0.2-2.5-0.5-3.7-0.7c-0.5-0.1-1-0.2-1.6-0.3
			c-0.5,0.2-0.6,0.7-0.7,1.2c0,0.2-0.1,0.4-0.2,0.5c-0.7,1.7-1.6,2.5-2.8,2.5c-0.5,0-1.1-0.1-1.8-0.4c-1.4-0.5-2.8-0.7-4.2-1
			c-0.8-0.1-1.6-0.3-2.5-0.5c-1.1-0.3-2.4-0.6-3.6-1.1c-0.4-0.2-0.7-0.5-1-0.8c-0.1-0.1-0.2-0.2-0.4-0.4c-0.4,0.2-0.7,0.4-1.1,0.5
			c-0.9,0.5-1.8,0.9-2.8,1.1c-0.3,0.1-0.7,0.1-1.1,0.1c-0.6,0-1.2-0.1-1.7-0.1c-0.4,0-0.8-0.1-1.2-0.1l-1.6,3.6
			c-0.6,0.3-1.1,0.4-1.6,0.4c-0.6,0-1.1-0.1-1.7-0.2c-0.4-0.1-0.9-0.2-1.3-0.2l-2.2,5.1l-0.1,0.1c-0.3,0-0.6,0-0.9,0
			C69.82,88.4,69.52,88.4,69.32,88.4z"/>
		<path d="M204.82,53.3c0.3,0,0.7,0.1,1,0.2c1,0.5,2,0.8,3,0.8c0.3,0,0.6,0,0.9-0.1c0.1,0,0.2,0,0.3,0c0.5,0,1,0.2,1.5,0.4
			c0.5,0.3,1.1,0.4,1.6,0.4c0.2,0,0.4,0,0.5,0s0.3,0,0.4,0c0.4,0,0.8,0.1,1.2,0.2c0.9,0.2,1.5,0.9,1.5,1.8c0,0.8-0.1,1.7-0.2,2.5
			c0.9-0.1,0.8-0.9,1.1-1.5c0.6-1.1,1.3-1.7,2.2-1.7c0.5,0,1.1,0.2,1.6,0.6c0.8,0.6,1.6,0.8,2.6,0.9c1.8,0.1,2.4,0.8,2.4,2.6
			c0,0.9-0.1,1.9-0.3,2.8c-0.3,2.6-0.7,5.2-1,7.8c-0.1,1.2,0,2.5,0,3.7c-0.9,0.7-1.5,1-2.1,1c-0.7,0-1.4-0.5-2.6-1.5
			c-1.6,0.2-3,0.4-4.8,0.6c-0.4,0.6-1,1.5-1.7,2.4c-0.7,0.3-1.3,0.4-1.9,0.4c-1.1,0-2-0.5-2.8-1.6c-0.4-0.6-0.9-0.8-1.5-0.9
			c-0.8-0.2-1.6-0.5-2.7-0.9c-1,1.2-2,1.7-3.2,1.7c-0.7,0-1.5-0.2-2.3-0.6c-1.1,0.6-1.8,1.8-3.3,1.8c-0.1,0-0.3,0-0.4,0
			c-1.4-0.2-2.3-0.9-3.1-1.9c-0.3,0.1-0.5,0.1-0.6,0.2c-0.7,1.3-1.7,1.8-2.9,1.8c-0.4,0-0.9-0.1-1.4-0.2c-0.3-0.1-0.7-0.2-1.1-0.2
			c-0.2,0-0.3,0-0.5,0.1c-0.6,0.3-1.1,0.4-1.6,0.4c-1.2,0-2.3-0.6-3.3-1.4c-0.3,0.2-0.7,0.3-0.8,0.5c-0.6,1.1-1.4,1.6-2.4,1.6
			c-0.4,0-0.8-0.1-1.3-0.2c-1.5-0.4-3.1-0.8-4.6-0.9c-0.2,0-0.5,0-0.7,0c-0.9,0-1.8,0.1-2.7,0.2c-0.3,0.2-0.6,0.4-0.8,0.6
			c-0.7,1.1-1.6,1.7-2.7,1.7c-0.4,0-0.9-0.1-1.4-0.3c-0.7-0.2-1.4-0.2-2.2-0.3c-0.9-0.1-1.9-0.2-2.8-0.3c-0.5-0.1-1-0.2-1.5-0.2l0,0
			h-0.1c-2.4,0-2.4,0-4.4-1.1c-0.6,0.7-1.1,1.4-1.7,2.1c-0.4,0.1-0.9,0.1-1.3,0.1c-1,0-2-0.2-3-0.8c-1.2-0.6-2.5-0.8-3.8-1.2
			c-0.7,0.7-1.3,1.2-2,1.9c-1.4-0.3-2.8-0.6-4.2-0.6c-0.6,0-1.2,0-1.8,0.1c-0.2,0-0.3,0-0.5,0c-0.4,0-0.8-0.1-1.1-0.2
			c-0.6-0.3-1.2-0.4-1.8-0.4c-0.3,0-0.6,0-1,0.1c-0.1,0-0.1,0-0.2,0c-0.6,0-1.3-0.2-2-0.3c-2.2-0.4-4.3-0.8-6.5-0.8
			c-0.1,0-0.2,0-0.3,0s-0.1,0-0.2,0c-0.9,0-1.8-0.1-2.8-0.2c-0.4,0.3-0.8,0.8-1.4,1c-0.4,0.1-0.8,0.2-1.2,0.2c-0.3,0-0.6,0-0.9-0.1
			c-0.4,0-0.7-0.1-1.1-0.1c-0.4,0-0.9,0.1-1.3,0.4c-0.5,0.3-1,0.4-1.5,0.4s-1-0.1-1.6-0.2c-1.7-0.3-3.5-0.7-5.2-1
			c-0.8,0.3-0.8,1.1-1.1,1.8c-0.7,1.8-1.6,2.4-2.7,2.4c-0.5,0-1.1-0.1-1.8-0.4c-2.2-0.8-4.5-0.9-6.7-1.4c-1.2-0.3-2.4-0.6-3.6-1.1
			c-0.5-0.2-0.9-0.8-1.4-1.2c-1.3,0.6-2.6,1.4-3.9,1.7c-0.3,0.1-0.7,0.1-1.1,0.1c-1,0-2-0.2-3-0.2c-0.6,1.3-1.1,2.6-1.6,3.7
			c-0.5,0.2-1,0.3-1.5,0.3c-1,0-2-0.4-3.1-0.4c-0.7,1.7-1.5,3.5-2.2,5.2c-0.6,0-1.1,0-1.7,0c-0.3,0-0.6,0-0.9-0.1
			c-1.3-0.2-2-1.3-1.6-2.5c0.2-0.8,0.6-1.6,0.8-2.3c-0.6-0.5-0.8-0.7-1.1-0.7c-0.2,0-0.4,0.2-0.6,0.5c-0.2,0.2-0.3,0.6-0.5,0.8
			c-0.6,0.6-1.3,1-2.1,1c-0.2,0-0.5,0-0.7-0.1c-1.1-0.3-1.8-1-1.9-2.3c-0.9,0.7-1,1.7-1.4,2.5c-0.3,0.8-0.9,1.2-1.6,1.2
			c-0.1,0-0.3,0-0.4,0c-1.2-0.2-2.5-0.4-3.7-0.8c-0.5-0.2-1.3-0.7-1.4-1.2c-0.1-1.6-1.6-2.1-2.5-3c0.4-2,0.6-4,1.1-5.9
			c0.5-1.8,0.3-3.3-1-4.6c-0.1-0.2-0.2-0.4-0.3-0.5c-0.3-0.7,0.2-1.7,0.9-1.7c0.2,0,0.3,0,0.5,0c0.9,0,1.8,0.1,2.7,0.2
			c0.8-0.3,0.9-1.2,1.2-2c0.6-1.4,1.6-1.9,2.9-1.9c0.1,0,0.2,0,0.3,0c0.7,0,1.4,0.1,2.3,0.2c0.8-1.3,1.2-3.1,3.2-3.2
			c0.1,0,0.2,0,0.3,0c1.7,0,2.7,0.9,2.9,2.9c1.1-0.6,1.9-1.3,2.7-1.4c1.1-0.1,1.5-1,2.2-1.6c0.2-0.2,0.5-0.3,0.8-0.4
			c1-0.3,2-0.5,3.1-0.7c0.2,0,0.4,0,0.6,0c0.4,0,0.9,0.1,1.3,0.1c0.7,0.1,1.4,0.4,2.2,0.6c0.5-0.4,0.9-0.9,1.3-1.3
			c0.6-0.5,1.4-0.8,2.1-0.8c0.7,0,1.4,0.2,1.9,0.8c0.9,0.8,1.7,1.2,2.6,1.2c0.8,0,1.7-0.3,2.6-0.7c0.5-0.3,1.2-0.5,1.8-0.5
			c0.1,0,0.2,0,0.2,0c0.5,0,0.9,0,1.4,0c0.7,0,1.4-0.1,2-0.5c0.1-0.1,0.3-0.1,0.4-0.1c0.2,0,0.3,0,0.5,0.1c2.5,0.7,5.2,0.8,7.8,1.1
			c0.8,0.1,1.5,0.6,2.4,0.9c1-0.4,1-2.1,2.3-2.2c0.1,0,0.1,0,0.2,0c0.9,0,1.9,0.2,3,0.3c0.5-0.4,1.2-1.2,2-1.4
			c0.3-0.1,0.7-0.1,1.1-0.1c0.6,0,1.2,0.1,1.8,0.1c0.3-0.4,0.6-0.8,0.9-1.3c0.3-0.4,0.7-0.8,1.1-1.2c0.7,0.2,1.3,0.3,1.8,0.5
			c0.7,0.3,1.3,0.6,2,0.6c0.3,0,0.7-0.1,1-0.3c0.1-0.1,0.3-0.1,0.4-0.1c0.3,0,0.6,0.1,0.8,0.1c0.3,0.1,0.6,0.1,0.9,0.1
			c0.5,0,1-0.1,1.5-0.5c0.5-0.3,1-0.5,1.5-0.5c0.8,0,1.6,0.4,2.2,1.2c0.9,1.1,2,1.6,3.1,1.6c0.3,0,0.7,0,1-0.1
			c0.5-0.1,0.9-0.2,1.4-0.2c0.9,0,1.7,0.2,2.6,0.4c0.2-0.1,0.4-0.2,0.5-0.3c0.6-0.9,1.3-1.3,2.1-1.3c0.5,0,0.9,0.1,1.5,0.4
			c0.5,0.3,1,0.5,1.5,0.5c0.3,0,0.6-0.1,0.9-0.2c0.3-0.1,0.5-0.2,0.8-0.2c0.9,0,1.7,0.6,2.6,0.6h0.1c0.9,0,1.6-0.7,2.6-0.7
			c0.1,0,0.2,0,0.3,0c1.1,0.2,1.9,0.8,2.6,1.8c0.9-0.8,1.8-1.3,2.8-1.3c0.7,0,1.4,0.2,2.1,0.7c0.9-0.6,1.6-1.4,2.8-1.4
			c0.1,0,0.2,0,0.2,0c1.2,0.1,2.1,0.8,3.1,1.5c0.3-0.4,0.4-0.7,0.6-0.9c0.6-1.2,1.2-1.8,2-1.8c0.4,0,0.9,0.2,1.4,0.5
			c1.3,0.8,2.5,1.4,4,1.9c0.2-0.2,0.4-0.4,0.6-0.6c0.9-2,1.1-2.4,2.5-2.4c0.3,0,0.7,0,1.2,0.1c0.3,0,0.6,0.1,0.9,0.1
			c0.1,0,0.3,0,0.4-0.1c0.6-0.4,1.2-0.5,1.9-0.5c0.8,0,1.6,0.2,2.3,0.5c1.1-1.2,1.9-1.9,2.8-1.9c0.8,0,1.7,0.6,3,1.9
			c0.8-0.2,1.3-1.1,2.3-1.1h0.1c1.8,0.1,2.6,1.1,2.2,3c-0.1,0.7-0.3,1.4-0.5,2.2c-0.1,0.4,0,0.8,0,1.2c0.1,0,0.2,0.1,0.3,0.1
			c0.4,0,0.5-0.4,0.6-0.7c0.6-1.4,1.1-3,1.8-4.4c0.5-1,1.4-1.5,2.4-1.5c0.6,0,1.3,0.2,1.9,0.7c0.4,0.3,0.5,0.7,1,2.5
			c0.4-0.5,0.6-0.9,0.9-1.3c0.2-0.5,0.4-1,0.6-1.4C203.42,53.8,204.02,53.3,204.82,53.3 M204.82,53c-0.9,0-1.6,0.5-2.1,1.4
			c-0.1,0.3-0.3,0.5-0.4,0.8c-0.1,0.2-0.2,0.5-0.3,0.7c-0.1,0.3-0.3,0.5-0.5,0.8l0,0c-0.4-1.4-0.6-1.8-0.9-2.1
			c-0.6-0.5-1.3-0.7-2-0.7c-1.1,0-2.1,0.6-2.6,1.6c-0.5,0.9-0.8,1.8-1.2,2.8c-0.2,0.5-0.4,1.1-0.6,1.6c0,0.1,0,0.1-0.1,0.2
			c-0.1,0.3-0.1,0.3-0.3,0.3h-0.1c0-0.1,0-0.1,0-0.2c0-0.3,0-0.5,0-0.8c0.1-0.4,0.2-0.8,0.3-1.3c0.1-0.3,0.1-0.6,0.2-0.9
			c0.2-1,0.1-1.8-0.3-2.3c-0.4-0.6-1.1-0.9-2.1-1c-0.1,0-0.1,0-0.1,0c-0.7,0-1.1,0.3-1.5,0.7c-0.2,0.2-0.5,0.3-0.7,0.4
			c-1.2-1.1-2.1-1.8-3.1-1.8c-0.9,0-1.8,0.7-2.8,1.8c-0.7-0.2-1.5-0.5-2.2-0.5s-1.4,0.2-2,0.6c0,0-0.1,0-0.2,0c-0.1,0-0.3,0-0.4,0
			c-0.1,0-0.3,0-0.4-0.1c-0.5,0-0.9-0.1-1.2-0.1c-1.5,0-1.8,0.5-2.7,2.6c-0.1,0.2-0.2,0.3-0.3,0.4c0,0-0.1,0-0.1,0.1
			c-1.5-0.4-2.8-1.2-3.8-1.8c-0.6-0.4-1.1-0.5-1.6-0.5c-0.9,0-1.6,0.6-2.2,1.9c-0.1,0.2-0.2,0.3-0.3,0.5c0,0.1-0.1,0.1-0.1,0.2
			c-0.1,0-0.1-0.1-0.2-0.1c-0.8-0.6-1.6-1.2-2.8-1.3c-0.1,0-0.2,0-0.3,0c-1,0-1.6,0.5-2.3,1c-0.2,0.1-0.4,0.3-0.5,0.4
			c-0.7-0.5-1.4-0.7-2.1-0.7c-0.9,0-1.8,0.4-2.8,1.2c-0.7-1-1.5-1.5-2.6-1.7c-0.1,0-0.2,0-0.4,0c-0.5,0-1,0.2-1.4,0.4
			c-0.4,0.2-0.8,0.3-1.1,0.3h-0.1c-0.4,0-0.7-0.2-1.1-0.3c-0.5-0.2-0.9-0.3-1.5-0.3c-0.3,0-0.6,0.1-0.9,0.2
			c-0.3,0.1-0.5,0.2-0.8,0.2c-0.4,0-0.9-0.1-1.4-0.4c-0.6-0.3-1.1-0.5-1.6-0.5c-0.9,0-1.6,0.5-2.3,1.4c0,0.1-0.1,0.1-0.2,0.2
			c0,0-0.1,0-0.1,0.1c-0.8-0.2-1.6-0.4-2.5-0.4c-0.5,0-1,0.1-1.4,0.2c-0.3,0.1-0.7,0.1-1,0.1c-0.8,0-2-0.3-2.9-1.5
			c-0.6-0.8-1.5-1.3-2.4-1.3c-0.6,0-1.1,0.2-1.6,0.5s-0.9,0.4-1.4,0.4c-0.2,0-0.5,0-0.8-0.1s-0.6-0.1-0.9-0.1c-0.2,0-0.4,0-0.5,0.1
			c-0.3,0.2-0.6,0.2-0.9,0.2c-0.5,0-1-0.2-1.5-0.4c-0.1,0-0.2-0.1-0.4-0.1c-0.4-0.2-0.8-0.3-1.3-0.4c-0.2-0.1-0.4-0.1-0.6-0.2
			c0,0,0,0-0.1,0s-0.1,0-0.2,0.1c-0.1,0.1-0.3,0.3-0.4,0.4c-0.3,0.3-0.5,0.6-0.7,0.8c-0.2,0.3-0.4,0.6-0.6,0.9
			c-0.1,0.1-0.1,0.2-0.2,0.3c-0.3,0-0.5,0-0.8,0s-0.6,0-0.9,0c-0.5,0-0.8,0-1.1,0.2c-0.6,0.2-1.2,0.7-1.6,1.1
			c-0.1,0.1-0.3,0.2-0.4,0.3c-0.3,0-0.7-0.1-1-0.1c-0.7-0.1-1.3-0.2-2-0.2c-0.1,0-0.1,0-0.2,0c-0.9,0-1.3,0.7-1.7,1.3
			c-0.2,0.4-0.4,0.7-0.7,0.9c-0.2-0.1-0.5-0.2-0.7-0.3c-0.6-0.3-1.1-0.5-1.7-0.6c-0.7-0.1-1.5-0.2-2.2-0.3c-1.8-0.2-3.7-0.4-5.5-0.9
			c-0.2,0-0.4-0.1-0.5-0.1c-0.2,0-0.4,0-0.6,0.1c-0.6,0.4-1.3,0.5-1.9,0.5c-0.2,0-0.5,0-0.7,0s-0.5,0-0.7,0c-0.1,0-0.2,0-0.2,0
			c-0.6,0-1.2,0.2-1.9,0.5c-1,0.5-1.8,0.7-2.5,0.7c-0.9,0-1.7-0.4-2.4-1.1c-0.6-0.6-1.3-0.9-2.1-0.9s-1.6,0.3-2.2,0.8
			c-0.3,0.3-0.6,0.6-0.9,0.9c-0.1,0.1-0.2,0.2-0.3,0.3c-0.2-0.1-0.4-0.1-0.6-0.2c-0.5-0.2-1-0.3-1.5-0.4s-0.9-0.1-1.3-0.1
			c-0.2,0-0.4,0-0.6,0c-0.9,0.1-1.8,0.4-2.7,0.6l-0.4,0.1c-0.3,0.1-0.7,0.2-0.9,0.5c-0.2,0.2-0.4,0.4-0.5,0.5
			c-0.4,0.5-0.8,0.9-1.6,1c-0.6,0.1-1.2,0.4-1.8,0.8c-0.2,0.1-0.4,0.3-0.7,0.4c-0.3-1.8-1.3-2.7-3.1-2.7c-0.1,0-0.2,0-0.3,0
			c-1.7,0.1-2.3,1.3-2.9,2.5c-0.1,0.2-0.2,0.5-0.4,0.7c-0.2,0-0.4,0-0.6-0.1c-0.5-0.1-1-0.1-1.5-0.1c-0.1,0-0.2,0-0.3,0
			c-1.6,0-2.6,0.7-3.2,2.1c-0.1,0.2-0.1,0.3-0.2,0.5c-0.2,0.6-0.4,1.1-0.9,1.3c-0.3,0-0.7,0-1-0.1c-0.6,0-1.2-0.1-1.7-0.1
			c-0.2,0-0.3,0-0.5,0c-0.4,0-0.8,0.3-1,0.7c-0.3,0.4-0.3,1-0.1,1.4v0.1c0.1,0.2,0.2,0.4,0.3,0.5c1.1,1.2,1.4,2.6,0.9,4.4
			c-0.4,1.3-0.6,2.7-0.8,4.1c-0.1,0.6-0.2,1.2-0.3,1.8c0,0.1,0,0.2,0.1,0.2c0.3,0.3,0.6,0.5,0.9,0.8c0.7,0.6,1.4,1.1,1.5,2.1
			c0,0.6,1,1.2,1.5,1.4c1.2,0.4,2.5,0.6,3.7,0.8c0.1,0,0.3,0,0.4,0c0.9,0,1.5-0.4,1.8-1.3c0.1-0.2,0.2-0.4,0.2-0.6
			c0.2-0.5,0.4-1.1,0.8-1.5c0.2,1,0.9,1.7,2.1,2c0.3,0.1,0.5,0.1,0.8,0.1c0.8,0,1.6-0.4,2.3-1.1c0.1-0.1,0.2-0.3,0.3-0.5
			c0.1-0.1,0.1-0.2,0.2-0.3c0.2-0.2,0.4-0.4,0.5-0.4s0.5,0.2,0.8,0.5c-0.1,0.2-0.1,0.4-0.2,0.5c-0.2,0.5-0.4,1.1-0.6,1.6
			c-0.2,0.7-0.1,1.3,0.2,1.9c0.3,0.5,0.9,0.9,1.6,1c0.3,0,0.6,0.1,1,0.1c0.3,0,0.5,0,0.8,0s0.6,0,0.9,0c0.1,0,0.2-0.1,0.2-0.2l1-2.4
			l1.1-2.6c0.4,0,0.8,0.1,1.2,0.2c0.6,0.1,1.1,0.2,1.7,0.2c0.6,0,1.1-0.1,1.6-0.3c0.1,0,0.1-0.1,0.1-0.1l1.6-3.5
			c0.4,0,0.7,0.1,1.1,0.1c0.6,0.1,1.2,0.1,1.8,0.1c0.4,0,0.8,0,1.1-0.1c1-0.2,1.9-0.7,2.8-1.1c0.3-0.2,0.7-0.3,1-0.5
			c0.1,0.1,0.2,0.2,0.3,0.3c0.3,0.3,0.7,0.7,1.1,0.8c1.2,0.5,2.5,0.8,3.6,1.1c0.8,0.2,1.7,0.3,2.5,0.5c1.4,0.2,2.8,0.5,4.2,1
			c0.8,0.3,1.4,0.4,1.9,0.4c1.3,0,2.2-0.8,2.9-2.6c0.1-0.2,0.1-0.4,0.2-0.6c0.1-0.5,0.3-0.9,0.7-1.1c0.5,0.1,1,0.2,1.5,0.3
			c1.2,0.2,2.4,0.5,3.7,0.7h0.2c0.5,0.1,0.9,0.2,1.4,0.2c0.7,0,1.2-0.2,1.7-0.5c0.3-0.3,0.7-0.4,1.2-0.4c0.2,0,0.5,0,0.8,0.1h0.3
			c0.4,0,0.7,0.1,1,0.1c0.5,0,0.9-0.1,1.3-0.2c0.5-0.1,0.8-0.5,1.1-0.7c0.1-0.1,0.2-0.1,0.3-0.2c0.3,0,0.6,0.1,0.9,0.1
			c0.6,0.1,1.2,0.1,1.8,0.1h0.2c0.1,0,0.2,0,0.3,0c1.9,0,3.8,0.3,5.7,0.6l0.8,0.1c0.2,0,0.4,0.1,0.6,0.1c0.4,0.1,0.9,0.2,1.4,0.2
			c0.1,0,0.2,0,0.2,0c0.3,0,0.6-0.1,1-0.1c0.7,0,1.2,0.1,1.6,0.4c0.4,0.2,0.9,0.3,1.2,0.3c0.2,0,0.3,0,0.5,0
			c0.6-0.1,1.1-0.1,1.7-0.1c1.2,0,2.5,0.2,4.1,0.6c0,0,0,0,0.1,0s0.1,0,0.2-0.1l0.9-0.9l0.9-0.9c0.4,0.1,0.7,0.2,1.1,0.3
			c0.9,0.2,1.8,0.4,2.6,0.9c1,0.5,2,0.8,3.1,0.8c0.4,0,0.9,0,1.3-0.1c0.1,0,0.1,0,0.2-0.1l1.2-1.5l0.4-0.5c1.8,1.1,2,1.1,4.3,1.1
			h0.1c0.3,0,0.6,0.1,0.9,0.1c0.2,0,0.4,0.1,0.6,0.1c0.7,0.1,1.4,0.2,2.1,0.2l0.7,0.1c0.2,0,0.5,0,0.7,0c0.5,0,1,0,1.4,0.2
			c0.5,0.2,1,0.3,1.5,0.3c1.2,0,2.1-0.6,2.9-1.8c0.1-0.1,0.2-0.2,0.4-0.3c0.1-0.1,0.2-0.1,0.2-0.2c0.3,0,0.6-0.1,1-0.1
			c0.5-0.1,1.1-0.1,1.6-0.1c0.2,0,0.5,0,0.7,0c1.3,0.1,2.8,0.4,4.6,0.9c0.5,0.1,1,0.2,1.4,0.2c1.2,0,2-0.6,2.7-1.7
			c0-0.1,0.2-0.2,0.4-0.3c0.1,0,0.1-0.1,0.2-0.1c0.9,0.7,2,1.4,3.3,1.4c0.6,0,1.2-0.1,1.8-0.4c0.1,0,0.2-0.1,0.4-0.1
			c0.3,0,0.7,0.1,1,0.2c0.5,0.1,1,0.2,1.4,0.2c1.4,0,2.4-0.7,3.1-2l0,0c0,0,0.1,0,0.2,0h0.1c0.9,1.1,1.9,1.6,3.2,1.8
			c0.2,0,0.3,0,0.5,0c1.1,0,1.8-0.6,2.5-1.1c0.3-0.2,0.6-0.5,0.9-0.6c0.8,0.4,1.6,0.5,2.3,0.5c1.3,0,2.4-0.6,3.3-1.7
			c0.3,0.1,0.6,0.2,0.8,0.3c0.6,0.2,1.2,0.4,1.8,0.5c0.6,0.1,1,0.3,1.4,0.8c0.8,1.1,1.8,1.7,3,1.7c0.6,0,1.3-0.2,2-0.5
			c0,0,0.1,0,0.1-0.1l1.3-1.8l0.3-0.4l4.5-0.6l0,0c1.2,1,1.9,1.5,2.7,1.5c0.7,0,1.4-0.4,2.3-1.1c0.1,0,0.1-0.1,0.1-0.2
			c0-0.4,0-0.7,0-1.1c0-0.8,0-1.7,0-2.5c0.2-1.7,0.4-3.4,0.6-5c0.1-0.9,0.3-1.9,0.4-2.8v-0.3c0.1-0.8,0.2-1.7,0.2-2.6
			c0-2-0.8-2.8-2.7-2.9c-1,0-1.7-0.3-2.4-0.8c-0.6-0.5-1.2-0.7-1.8-0.7c-0.9,0-1.8,0.6-2.4,1.9c-0.1,0.2-0.2,0.4-0.2,0.6
			c-0.1,0.4-0.2,0.6-0.4,0.7c0-0.1,0-0.3,0-0.4c0.1-0.6,0.1-1.2,0.1-1.8c0-1-0.6-1.8-1.7-2.1c-0.4-0.1-0.8-0.2-1.2-0.2
			c-0.1,0-0.3,0-0.4,0c-0.2,0-0.3,0-0.5,0c-0.5,0-1-0.1-1.5-0.3c-0.4-0.2-1-0.4-1.6-0.4c-0.1,0-0.3,0-0.4,0
			c-0.3,0.1-0.6,0.1-0.8,0.1c-1.1,0-2-0.4-2.9-0.8C205.52,53.1,205.12,53,204.82,53L204.82,53z"/>
	</g>
	<g>
		<path d="M71.52,141c-2.2,0-4.2-0.2-6-0.6c-2-0.4-3.9-1.2-5.8-1.8l-1.1-0.4c-0.4-0.1-0.7-0.5-1.1-0.7c-0.1-0.1-0.3-0.3-0.4-0.4
			c0,0-0.1-0.1,0-0.1c0.3-0.7,0.9-1.1,1.6-1.1c0.1,0,0.3,0,0.4,0c1.1,0.1,2.3,0.4,3.7,0.7c0.8,0.2,1.6,0.4,2.4,0.7l0.9,0.3
			c1.1,0.3,2.1,0.5,3.1,0.5c0.5,0,1,0,1.5-0.1c0.6-0.1,1.4-0.2,2.2-0.2c0.2,0,1.1,0,1.4,0c2.8,0,5.7-0.3,8.5-0.6
			c1.4-0.2,2.8-0.3,4.3-0.4c1.7-0.1,3.3-0.7,4.9-1.3c0.4-0.1,0.8-0.3,1.1-0.4c0.9-0.3,1.8-0.7,2.6-1.1c0.4-0.2,0.7-0.4,1.1-0.5
			c0.2-0.1,0.4-0.2,0.5-0.6c-0.8,0-1.7,0-2.5,0c-0.9,0-1.8,0-2.7,0c-1.2,0-2.2,0-3.2-0.1c-8.1-0.5-15.1-2.1-21.4-5
			c-4.2-1.9-7.6-4.4-10.4-7.5c-2-2.3-3.2-4.8-3.5-7.7c-0.4-4.2-0.8-8.4-0.6-12.6c0-0.5,0-0.9-0.1-1.5c0-0.3-0.1-0.6-0.1-0.9h-3.6
			c-0.8,0-1.5,0-2.3,0h-0.3c-1,0-2.2-0.1-3.5-0.6c-0.8-0.4-1.2-1-1-1.6c0.2-0.7,0.7-1.2,1.4-1.2c0.6-0.1,1.2-0.1,1.8-0.1
			c0.5,0,0.9,0,1.4-0.1c0.6,0,1.1-0.1,1.7-0.2c0.8-0.1,1.6-0.2,2.4-0.2h0.5c0.5,0,1.1-0.1,1.6-0.1s0.9,0,1.3,0.1
			c2.9,0.5,5.9,0.5,8.1,0.5c1.2,0,2.4,0,3.6,0c1.2,0,2.4,0,3.6,0h0.3c3.3,0,6.7-0.2,9.6-0.5c1.4-0.1,2.7-0.3,4.1-0.5
			c1.1-0.2,2.3-0.3,3.4-0.4h0.4c5.3-0.5,10.9-1.1,16.3-1.1h1.8c2.9,0,6,0,9-0.1c2.5-0.1,4.9-0.2,7.2-0.6c0.8-0.1,1.5-0.2,2.4-0.2
			c1.2,0,2.4,0.1,3.6,0.2c0.7,0.1,1.5,0.2,2.2,0.2c1.6,0.1,3.2,0.4,4.7,0.6c0.6,0.1,1.4,0.3,2.1,0.7c0.4,0.2,0.6,0.9,0.6,1.4
			c0,0.6-0.4,1-1.1,1.2c-1,0.2-1.9,0.3-2.9,0.5c-1.4,0.2-2.8,0.5-4.2,0.8c-0.3,0-0.5,0.2-0.7,0.3c-0.1,0-0.2,0.1-0.2,0.1
			c0,0.1-0.1,0.2-0.1,0.3c-0.1,0.2-0.1,0.3-0.1,0.3c0.6,2,0.6,4.2-0.1,6.9c-0.6,2.6-1.3,5.6-2,8.6l-0.1,0.6
			c-0.2,0.9-0.4,1.9-0.4,2.7c0.1,1.2-0.2,2.2-1,3.3c-0.4,0.6-1,1.1-1.5,1.6l-0.4,0.5c-0.2,0.2-0.4,0.4-0.6,0.6c-0.4,0.3-0.7,0.6-1,1
			c-1.4,1.9-3.2,3.4-4.9,4.8l-0.5,0.4c-1.6,1.2-3,2.1-4.6,2.8c-1.4,0.6-2.7,1.4-4,2.2l-0.9,0.5c-1.3,0.8-2.8,1.6-4.6,2.1
			c-1.6,0.5-3.2,1.1-5.3,2c-3,1.3-6.1,2-9.5,2.2c-1.8,0.1-3.6,0.3-5.4,0.5c-1,0.1-2,0.2-3.1,0.3C75.62,140.8,73.62,141,71.52,141z
			 M58.32,98.6c0,0.3-0.1,0.6-0.1,0.8c-0.1,3.8,0.1,7.7,0.5,12c0.4,4.4,2.6,8,6.7,11.1c3.5,2.6,7.6,3.9,11.4,5
			c4.4,1.2,9.2,1.7,13,2.1c0.8,0.1,1.6,0.1,2.3,0.1c2,0,4.1-0.3,6.3-0.8c4.5-1,8.5-3.1,12.1-5.2c3.7-2.2,6.2-5,7.8-8.9h-1
			c-0.2,0-0.8,0-1,0c-3.1,0-5.8-0.8-8.2-2.3c-4.1-2.6-6.2-5.7-6.5-9.7c-0.1-0.8-0.1-1.6-0.2-2.4c-0.1-0.8-0.1-1.5-0.2-2.3
			c0-0.3-0.1-0.7-0.1-1l-0.1-0.4c-0.9-0.1-1.9-0.2-2.8-0.2c-2.2-0.2-4.3-0.4-6.4-0.5c-0.4,0-0.9,0-1.3,0c-1.5,0-2.9,0.2-4.3,0.5
			c-1.5,0.4-3,0.6-4.7,0.7c-1.6,0.1-3.2,0.2-4.8,0.3c-2.8,0.2-5.6,0.4-8.4,0.4c-0.8,0-1.5,0-2.3,0c-0.7,0-1.5,0-2.2,0
			c-1.1,0-2.1,0-3.2,0h-0.9c-0.4,0-0.8,0.1-1.2,0.2c-0.2,0-0.3,0.1-0.5,0.1C58.42,98.3,58.42,98.5,58.32,98.6z"/>
		<path d="M124.22,90.5c1.9,0,3.8,0.3,5.7,0.4c1.6,0.1,3.1,0.4,4.7,0.6c0.7,0.1,1.5,0.3,2.1,0.7c0.3,0.2,0.5,0.9,0.6,1.3
			c0,0.6-0.4,0.9-1,1c-2.4,0.4-4.8,0.8-7.1,1.3c-0.4,0.1-0.8,0.3-1.1,0.4c-0.1,0.3-0.2,0.6-0.2,0.7c0.7,2.3,0.5,4.6-0.1,6.9
			c-0.7,2.9-1.3,5.7-2,8.6c-0.2,1.1-0.6,2.3-0.5,3.4c0.1,1.3-0.3,2.3-1,3.2c-0.6,0.7-1.3,1.4-1.9,2.1c-0.5,0.5-1.2,1-1.6,1.5
			c-1.5,2.1-3.5,3.6-5.5,5.2c-1.4,1.1-2.9,2.1-4.5,2.8c-1.7,0.7-3.3,1.8-5,2.7c-1.5,0.9-2.9,1.6-4.5,2.1c-1.8,0.6-3.6,1.3-5.3,2
			c-3,1.3-6.2,2-9.5,2.2c-2.8,0.1-5.6,0.5-8.5,0.8c-2.2,0.2-4.4,0.4-6.6,0.4c-2,0-4-0.2-6-0.6c-2.3-0.5-4.6-1.4-6.9-2.2
			c-0.5-0.2-1-0.7-1.4-1.1c0.4-0.8,0.9-1,1.5-1c0.1,0,0.2,0,0.4,0c1.2,0.2,2.5,0.4,3.7,0.7c1.1,0.3,2.2,0.6,3.3,1
			c1,0.3,2.1,0.5,3.1,0.5c0.5,0,1,0,1.5-0.1c0.7-0.1,1.5-0.2,2.2-0.2c0.2,0,0.4,0,0.6,0c0.3,0,0.5,0,0.8,0c4.3,0,8.5-0.7,12.7-1
			c2.1-0.2,4.1-1,6.1-1.7c1.3-0.4,2.5-1.1,3.7-1.7c0.3-0.1,0.5-0.3,0.6-0.8c-1.8,0-3.5,0.1-5.3,0.1c-1.1,0-2.1,0-3.2-0.1
			c-7.4-0.5-14.6-1.9-21.4-5c-4-1.8-7.5-4.2-10.4-7.5c-2-2.2-3.1-4.7-3.4-7.6c-0.4-4.2-0.8-8.4-0.6-12.6c0-0.7-0.1-1.4-0.1-2.6
			c-1.3,0-2.5,0-3.7,0c-0.8,0-1.5,0-2.3,0c-0.1,0-0.2,0-0.3,0c-1.2,0-2.3-0.1-3.4-0.6c-0.7-0.3-1.1-0.9-0.9-1.4
			c0.2-0.7,0.6-1.1,1.3-1.2c1-0.1,2.1-0.1,3.1-0.2c1.4-0.1,2.7-0.3,4.1-0.4c0.7,0,1.4-0.1,2.1-0.1c0.4,0,0.9,0,1.3,0.1
			c2.7,0.4,5.4,0.5,8.1,0.5c2.4,0,4.8-0.1,7.2-0.1c0.1,0,0.1,0,0.2,0h0.1c3.2,0,6.4-0.2,9.7-0.5c2.5-0.2,5-0.7,7.5-0.9
			c5.5-0.5,11.1-1.1,16.7-1.1c3.6,0,7.2,0,10.7-0.1c2.4-0.1,4.8-0.2,7.2-0.6C122.62,90.6,123.42,90.5,124.22,90.5 M68.72,97.8
			c-0.8,0-1.5,0-2.3,0c-0.7,0-1.5,0-2.3,0c-1.4,0-2.7,0-4.1,0.1c-0.6,0-1.2,0.2-1.8,0.3c-0.1,0.6-0.1,1-0.1,1.4c-0.1,4,0.1,8,0.5,12
			c0.5,4.9,3,8.4,6.8,11.2c3.4,2.6,7.4,3.9,11.5,5c4.3,1.2,8.7,1.6,13.1,2.1c0.8,0.1,1.6,0.1,2.4,0.1c2.2,0,4.3-0.3,6.4-0.8
			c4.4-1,8.3-3,12.1-5.2c3.6-2.1,6.2-4.9,7.9-9.1c-0.5,0-0.8,0-1.1,0c-0.2,0-0.3,0-0.5,0s-0.4,0-0.5,0c-2.9,0-5.7-0.7-8.2-2.3
			c-3.5-2.3-6.1-5.2-6.5-9.6c-0.1-1.6-0.2-3.1-0.4-4.7c0-0.5-0.2-1-0.2-1.5c-3.2-0.3-6.2-0.6-9.2-0.8c-0.4,0-0.9,0-1.3,0
			c-1.4,0-2.9,0.2-4.3,0.5c-1.5,0.4-3.1,0.6-4.7,0.7C77.42,97.3,73.12,97.8,68.72,97.8 M124.22,90.3c-0.9,0-1.7,0.1-2.4,0.2
			c-2.3,0.4-4.7,0.5-7.2,0.6c-3,0.1-6,0.1-8.9,0.1h-1.8c-5.5,0-11,0.6-16.3,1.1h-0.4c-1.1,0.1-2.3,0.3-3.4,0.4
			c-1.3,0.2-2.7,0.4-4.1,0.5c-2.9,0.2-6.3,0.5-9.6,0.5h-0.1h-0.2c-1.2,0-2.4,0-3.6,0c-1.2,0-2.4,0-3.6,0c-2.2,0-5.1-0.1-8.1-0.5
			c-0.4-0.1-0.8-0.1-1.3-0.1s-1.1,0-1.6,0.1h-0.5c-0.8,0-1.6,0.1-2.4,0.2c-0.6,0.1-1.1,0.1-1.7,0.2c-0.5,0-0.9,0.1-1.4,0.1
			c-0.6,0-1.2,0.1-1.8,0.1c-0.8,0.1-1.4,0.6-1.5,1.3c-0.2,0.7,0.2,1.3,1.1,1.7c1.2,0.6,2.5,0.6,3.5,0.6h0.3c0.8,0,1.5,0,2.3,0
			c0.6,0,1.1,0,1.7,0s1.1,0,1.7,0c0,0.3,0,0.6,0.1,0.8c0.1,0.6,0.1,1,0.1,1.5c-0.2,4.2,0.2,8.4,0.6,12.6c0.3,2.9,1.4,5.5,3.5,7.8
			c2.9,3.2,6.3,5.7,10.5,7.6c6.3,2.9,13.3,4.5,21.5,5c0.9,0.1,2,0.1,3.2,0.1c0.9,0,1.8,0,2.7,0c0.8,0,1.6,0,2.4,0
			c-0.1,0.2-0.2,0.3-0.4,0.4c-0.4,0.2-0.7,0.4-1.1,0.5c-0.8,0.4-1.7,0.8-2.6,1.1c-0.4,0.1-0.7,0.3-1.1,0.4c-1.6,0.6-3.2,1.1-4.9,1.3
			c-1.4,0.1-2.9,0.3-4.3,0.4c-2.8,0.3-5.6,0.6-8.5,0.6c-0.3,0-0.5,0-0.8,0c-0.2,0-0.4,0-0.6,0c-0.9,0-1.6,0-2.3,0.2
			c-0.5,0.1-1,0.1-1.5,0.1c-1,0-2-0.2-3.1-0.5c-0.3-0.1-0.6-0.2-0.9-0.3c-0.8-0.2-1.6-0.5-2.4-0.7c-1.4-0.3-2.6-0.6-3.7-0.7
			c-0.1,0-0.3,0-0.4,0c-0.8,0-1.4,0.4-1.8,1.2c0,0.1,0,0.2,0.1,0.3s0.3,0.2,0.4,0.4c0.3,0.3,0.7,0.6,1.1,0.8
			c0.4,0.1,0.7,0.3,1.1,0.4c1.9,0.7,3.8,1.4,5.8,1.8c1.8,0.4,3.8,0.6,6,0.6c2.1,0,4.2-0.2,6.6-0.4c1-0.1,2-0.2,3.1-0.3
			c1.8-0.2,3.6-0.4,5.4-0.5c3.4-0.2,6.5-0.9,9.5-2.2c2-0.9,3.7-1.5,5.3-2c1.8-0.5,3.3-1.4,4.6-2.2c0.3-0.2,0.6-0.4,0.9-0.5
			c1.3-0.8,2.6-1.6,4-2.2c1.6-0.7,3-1.5,4.6-2.8l0.5-0.4c1.8-1.4,3.6-2.9,5-4.8c0.2-0.4,0.6-0.6,0.9-1c0.2-0.2,0.4-0.4,0.6-0.6
			c0.1-0.2,0.3-0.3,0.4-0.5c0.5-0.5,1.1-1.1,1.5-1.6c0.9-1.1,1.2-2.2,1.1-3.4c-0.1-0.9,0.1-1.8,0.4-2.7c0-0.2,0.1-0.4,0.1-0.6
			c0.6-2.9,1.3-5.9,2-8.6c0.7-2.8,0.7-4.9,0.1-7c0,0,0-0.2,0.1-0.3c0-0.1,0-0.1,0.1-0.2c0.1,0,0.1,0,0.2-0.1
			c0.2-0.1,0.5-0.2,0.7-0.3c1.4-0.3,2.8-0.5,4.2-0.8c1-0.2,1.9-0.3,2.9-0.5c0.8-0.1,1.2-0.6,1.2-1.3c0-0.4-0.2-1.2-0.7-1.5
			c-0.7-0.4-1.5-0.6-2.2-0.7c-1.5-0.3-3.1-0.5-4.7-0.6c-0.7,0-1.5-0.1-2.2-0.2C126.62,90.4,125.42,90.3,124.22,90.3L124.22,90.3z
			 M68.72,98c2.8,0,5.7-0.2,8.4-0.4c1.6-0.1,3.2-0.2,4.8-0.3c1.7-0.1,3.2-0.3,4.7-0.7c1.3-0.3,2.7-0.5,4.2-0.5c0.4,0,0.9,0,1.3,0
			c2.1,0.1,4.2,0.3,6.4,0.5c0.9,0.1,1.7,0.2,2.6,0.2c0,0.1,0,0.2,0.1,0.3c0.1,0.3,0.1,0.7,0.1,1c0.1,0.8,0.1,1.5,0.2,2.3
			c0.1,0.8,0.1,1.6,0.2,2.4c0.3,4,2.4,7.1,6.6,9.7c2.4,1.6,5.2,2.3,8.3,2.3c0.2,0,0.4,0,0.5,0s0.3,0,0.5,0h0.4h0.3
			c-1.6,3.8-4,6.5-7.7,8.6c-3.6,2.1-7.6,4.2-12,5.2c-2.3,0.5-4.3,0.8-6.3,0.8c-0.8,0-1.6,0-2.3-0.1c-3.8-0.4-8.6-0.9-13-2.1
			c-3.9-1-7.9-2.4-11.4-5c-4.1-3.1-6.3-6.6-6.7-11c-0.4-4.2-0.6-8.1-0.5-11.9c0-0.3,0-0.5,0.1-0.8c0-0.1,0-0.2,0-0.4
			c0.1,0,0.3-0.1,0.4-0.1c0.4-0.1,0.8-0.2,1.2-0.2h0.9c1,0,2.1,0,3.2,0c0.8,0,1.6,0,2.2,0C67.12,98,67.92,98,68.72,98L68.72,98z"/>
	</g>
	<g>
		<path d="M244.02,215.1c-0.6,0-1.2-0.1-1.8-0.4c-0.7-0.3-1.1-0.9-1.3-1.8c-0.2-2-0.5-3.5-0.8-5c-0.2-0.9-0.5-1.7-0.9-2.3
			c-3.2-5.3-7.3-9-12.7-11.3c-5.3-2.3-10.8-2.8-16-3.2c-2.9-0.2-6.1-0.3-9.7-0.3c-3.3,0-6.7,0.1-9.8,0.2c-4.2,0.1-8,0.4-11.3,0.7
			c-4,0.4-8,0.5-11.9,0.5c-1.3,0-2.6,0-3.9,0.1c-3.8,0.1-7.7,0.5-11.4,0.8h-0.5c-4.4,0.4-8.2,0.9-11.9,1.4c-2.1,0.3-4.2,0.6-6.3,0.9
			c-4.7,0.6-9.5,1.3-14.2,2.2c-0.6,0.1-1.3,0.2-1.9,0.2c-0.5,0-1,0.1-1.5,0.1c-0.3,0-0.6,0.1-0.9,0.1c-1.3,0.2-2.7,0.3-3.9,1.1
			c-0.3,0.2-0.8,0.3-1.3,0.3c-0.2,0-0.4,0-0.6-0.1c-0.4-0.1-0.7-0.2-1.1-0.2c-0.6,0-1.3,0.1-1.9,0.3l-6.2,1.3
			c-4.3,0.9-8.7,1.9-13,2.8c-5.3,1.1-9.7,1.8-13.7,2.3c-1,0.1-1.9,0.3-2.9,0.5c-0.7,0.1-1.4,0.3-2.1,0.4c-2.3,0.3-4.7,0.7-7.2,1
			c-0.5,0.1-1,0.1-1.5,0.1c-0.4,0-0.9,0-1.3,0c-1-0.1-1.1-0.1-2.2-1.4l-0.2-0.2c0-0.1,0-0.1,0-0.2c0.1-0.1,0.2-0.2,0.3-0.3
			c0.2-0.2,0.4-0.5,0.7-0.5c1-0.3,2-0.6,3.1-0.7c2.6-0.5,5.3-0.9,7.9-1.3l2.9-0.5c1.3-2.2,2.1-4.4,2.9-6.5l0.2-0.5
			c1.3-3.4,2.8-7.3,4.7-11c1.3-2.5,2.9-4.6,4.7-6.4c1.9-1.8,4.4-2.8,6.9-2.8c1.7,0,3.3,0.4,4.8,1.3c2.7,1.5,5,3.5,7,5.9
			c2.2,2.7,4.4,5.4,6,8.5c0.1,0.2,0.2,0.3,0.4,0.5c0.1,0.1,0.1,0.2,0.2,0.2c1.8,2.3,2.2,2.8,3.3,2.8c0.3,0,0.7,0,1.2-0.1
			c0.3,0,0.7-0.1,1.1-0.1c1.4-0.1,2.9-0.4,4.2-0.6l1.1-0.2c2.2-0.3,4.4-0.7,6.6-1c4.5-0.7,9.1-1.4,13.7-2c4.7-0.6,9.8-1.2,15.7-1.8
			c4.2-0.4,8.5-0.5,12.6-0.7h1.6c3.1-0.1,6.2-0.3,9.5-0.5c1.4-0.1,2.8-0.2,4.2-0.2c0.2-0.3,0.3-0.7,0.5-0.9c0.3-0.6,0.6-1.2,0.9-1.8
			c1.5-3.4,3.2-6.5,5.3-9.3c1.6-2.3,3.5-4.3,5.9-6.1c0.5-0.4,1-0.8,1.6-1.1c2-1,3.9-1.6,5.7-1.6c2.7,0,5.1,1.2,7.4,3.5
			c2.6,2.6,4.7,5.9,6.6,9.9l0.1,0.2c1,2.2,2.1,4.4,2.6,6.9c0.2,0.9,0.8,1.4,1.9,1.7c2,0.4,4.1,1,5.8,1.5c2.2,0.7,4.4,1.8,7,3.6
			c3.1,2.1,5.8,4.9,8.9,8.9c1.1,1.5,1.8,2.8,2.1,4.3c0.2,0.9,0.4,1.9,0.6,2.8l0.3,1.5c0,0.2,0.1,0.4,0.1,0.6c0,1.1-0.3,1.9-0.8,2.4
			C245.42,214.9,244.82,215.1,244.02,215.1z M91.22,179.1c-0.3,0-0.6,0.1-1,0.2l-0.2,0.1c-0.7,0.4-1.5,0.8-2.1,1.3
			c-1.7,1.6-3.2,3.4-4.2,5.4c-2.4,4.5-4.1,9.4-5.7,13.9c0,0.1-0.1,0.2-0.1,0.3c-0.2,0.3-0.3,0.6,0,1.1c0.1,0,0.2,0,0.4,0
			c0.3,0,0.7,0,1-0.1c5.4-1.1,10.7-2.2,16-3.4c2.7-0.6,5.3-1.1,8-1.7c0.5-0.1,0.9-0.2,1.5-0.4l0.8-0.2c-2.6-4.4-5.5-8.2-8.4-12.1
			c-1.3-1.7-2.9-3.1-4.6-4.2C92.02,179.2,91.62,179.1,91.22,179.1z M194.92,186.8c1.1,0,2.2,0,3.2,0c1.4,0,2.8,0,4.1,0
			c1.2,0,2.5,0,3.7,0c1.3,0,2.6,0.1,3.9,0.2c1.3,0.1,2.7,0.2,4,0.2h0.1c0.3-0.7,0.1-1.2-0.1-1.7c-0.1-0.2-0.2-0.4-0.3-0.7
			c-0.9-3.6-2.9-6.8-4.8-9.8c-0.3-0.4-0.6-0.9-0.8-1.3c-0.4-0.7-1-1.2-1.7-1.8c-1-0.9-1.9-1.3-2.8-1.3c-0.8,0-1.6,0.3-2.5,0.9
			c-2.5,1.8-4.6,3.9-6.2,6.1c-1.8,2.6-3.4,5.3-4.7,8.2c-0.1,0.2-0.1,0.4-0.1,0.7c0,0.1,0,0.2,0,0.3L194.92,186.8z"/>
		<path d="M203.32,166.7c2.6,0,5,1.1,7.3,3.4c2.8,2.9,4.9,6.3,6.6,9.9c1.1,2.3,2.1,4.6,2.7,7c0.2,1,0.9,1.5,2,1.8
			c1.9,0.4,3.9,1,5.8,1.5c2.5,0.7,4.8,2,7,3.5c3.5,2.4,6.3,5.5,8.9,8.9c1,1.3,1.7,2.6,2,4.2c0.3,1.4,0.6,2.9,0.9,4.3
			c0,0.2,0.1,0.4,0.1,0.6c0,2.2-1.1,3-2.5,3c-0.6,0-1.2-0.1-1.8-0.4c-0.7-0.3-1.1-0.9-1.2-1.7c-0.2-1.7-0.4-3.3-0.8-5
			c-0.2-0.8-0.4-1.6-0.9-2.4c-3.1-5.1-7.2-9-12.7-11.3c-5.1-2.2-10.5-2.8-16-3.2c-3.2-0.2-6.5-0.3-9.8-0.3s-6.5,0.1-9.8,0.2
			c-3.8,0.1-7.6,0.3-11.3,0.7c-5.2,0.6-10.5,0.5-15.8,0.6c-4,0.1-8,0.5-12,0.9s-7.9,0.9-11.9,1.4c-6.9,1-13.8,1.7-20.6,3.1
			c-1.1,0.2-2.3,0.2-3.5,0.3c-1.7,0.2-3.3,0.3-4.8,1.2c-0.3,0.2-0.8,0.3-1.3,0.3c-0.2,0-0.4,0-0.6-0.1c-0.4-0.1-0.8-0.2-1.1-0.2
			c-0.8,0-1.5,0.2-2.3,0.4c-6.3,1.3-12.5,2.7-18.8,4c-4.5,0.9-9.1,1.8-13.7,2.3c-1.7,0.2-3.3,0.6-5,0.8c-2.4,0.4-4.8,0.7-7.2,1
			c-0.5,0.1-1,0.1-1.5,0.1c-0.4,0-0.9,0-1.3,0c-1-0.1-1-0.1-2.3-1.6c0.3-0.3,0.5-0.7,0.9-0.8c1-0.3,2-0.6,3.1-0.7
			c3.6-0.6,7.2-1.2,10.8-1.8c1.4-2.3,2.2-4.7,3.1-7.1c1.4-3.7,2.9-7.5,4.7-11c1.2-2.3,2.7-4.5,4.6-6.3c1.9-1.8,4.4-2.8,6.8-2.8
			c1.6,0,3.3,0.4,4.8,1.3c2.7,1.5,5,3.5,7,5.9c2.2,2.7,4.4,5.4,6,8.5c0.1,0.3,0.4,0.5,0.6,0.7c1.8,2.3,2.3,2.8,3.4,2.8
			c0.5,0,1.3-0.1,2.4-0.2c1.8-0.2,3.5-0.5,5.3-0.7c6.8-1,13.5-2.1,20.3-3.1c5.2-0.7,10.4-1.3,15.7-1.8c4.7-0.5,9.4-0.6,14.2-0.7
			c4.5-0.1,9-0.5,13.8-0.7c0.5-1.1,1-1.9,1.4-2.8c1.5-3.3,3.2-6.4,5.3-9.3c1.7-2.3,3.6-4.3,5.9-6.1c0.5-0.4,1-0.8,1.6-1.1
			C199.62,167.3,201.52,166.7,203.32,166.7 M189.82,187c1.8,0,3.5,0,5.2,0c1.1,0,2.1,0,3.2,0c2.6,0,5.3,0.1,7.9,0.1s5.3,0.3,7.8,0.3
			c0.1,0,0.1,0,0.2,0c0.6-1.1-0.2-1.8-0.3-2.6c-1-4.2-3.4-7.6-5.7-11.2c-0.4-0.7-1.1-1.3-1.7-1.8c-1-0.9-1.9-1.3-2.9-1.3
			c-0.8,0-1.7,0.3-2.5,0.9c-2.4,1.7-4.6,3.7-6.3,6.2c-1.8,2.6-3.4,5.3-4.7,8.2C189.82,186.1,189.92,186.5,189.82,187 M77.72,201.6
			c0.4,0,0.9,0,1.4-0.1c5.4-1.1,10.7-2.2,16-3.4c2.7-0.6,5.3-1.1,8-1.7c0.7-0.2,1.4-0.3,2.5-0.6c-2.7-4.5-5.5-8.4-8.5-12.2
			c-1.3-1.7-2.8-3.1-4.7-4.2c-0.5-0.3-0.9-0.4-1.4-0.4c-0.3,0-0.7,0.1-1,0.3c-0.8,0.4-1.7,0.8-2.4,1.5c-1.7,1.5-3.2,3.4-4.3,5.4
			c-2.4,4.5-4.1,9.2-5.7,14C77.62,200.5,77.12,200.9,77.72,201.6 M203.32,166.5L203.32,166.5c-1.8,0-3.8,0.5-5.8,1.6
			c-0.6,0.3-1.1,0.7-1.6,1.1c-2.4,1.9-4.3,3.9-5.9,6.2c-2,2.9-3.8,5.9-5.3,9.4c-0.3,0.6-0.5,1.1-0.9,1.8c-0.1,0.3-0.3,0.6-0.4,0.9
			c-1.4,0.1-2.8,0.2-4.2,0.2c-3.2,0.2-6.3,0.4-9.4,0.5h-1.5c-4.1,0.1-8.4,0.2-12.6,0.7c-5.9,0.6-11,1.1-15.7,1.8
			c-4.6,0.6-9.2,1.3-13.7,2c-2.2,0.3-4.4,0.7-6.6,1l-1.1,0.2c-1.4,0.2-2.8,0.4-4.2,0.6c-0.4,0-0.8,0.1-1.1,0.1
			c-0.5,0.1-0.9,0.1-1.2,0.1c-1,0-1.4-0.4-3.2-2.7c-0.1-0.1-0.1-0.2-0.2-0.2c-0.1-0.2-0.3-0.3-0.4-0.5c-1.7-3.1-3.8-5.8-6-8.5
			c-2-2.5-4.4-4.5-7-5.9c-1.5-0.8-3.2-1.3-4.9-1.3c-2.6,0-5.1,1-7,2.9c-1.8,1.7-3.4,3.9-4.7,6.4c-1.9,3.7-3.4,7.7-4.7,11l-0.2,0.5
			c-0.8,2.1-1.6,4.3-2.8,6.4l-2.8,0.5c-2.6,0.4-5.2,0.9-7.9,1.3c-1,0.2-2.1,0.4-3.1,0.8c-0.3,0.1-0.5,0.3-0.7,0.6
			c-0.1,0.1-0.2,0.2-0.2,0.3c-0.1,0.1-0.1,0.2,0,0.4l0.2,0.2c1.2,1.3,1.3,1.4,2.3,1.5c0.5,0,0.9,0,1.3,0c0.6,0,1.1,0,1.5-0.1
			c2.4-0.3,4.9-0.6,7.2-1c0.7-0.1,1.4-0.2,2.1-0.4c0.9-0.2,1.9-0.3,2.9-0.5c4-0.5,8.4-1.2,13.7-2.3c4.3-0.9,8.8-1.8,13-2.8
			c1.9-0.4,3.9-0.8,5.8-1.2l0.4-0.1c0.6-0.1,1.2-0.3,1.9-0.3c0.4,0,0.7,0,1.1,0.1c0.2,0.1,0.4,0.1,0.6,0.1c0.5,0,1-0.1,1.4-0.4
			c1.2-0.8,2.5-0.9,3.8-1.1c0.3,0,0.6-0.1,0.9-0.1c0.5-0.1,1-0.1,1.5-0.1c0.6,0,1.3-0.1,2-0.2c4.7-0.9,9.5-1.6,14.2-2.2
			c2.1-0.3,4.2-0.6,6.4-0.9c3.7-0.5,7.5-1,11.9-1.4h0.5c3.7-0.4,7.6-0.8,11.4-0.8c1.3,0,2.6-0.1,3.9-0.1c3.9-0.1,7.9-0.1,11.9-0.5
			c3.4-0.4,7.1-0.6,11.3-0.7c3.2-0.1,6.5-0.2,9.8-0.2c3.6,0,6.8,0.1,9.7,0.3c5.2,0.4,10.6,0.9,15.9,3.2s9.4,5.9,12.6,11.2
			c0.4,0.6,0.7,1.4,0.8,2.3c0.3,1.4,0.5,3,0.8,5c0.1,1,0.6,1.6,1.3,1.9c0.6,0.3,1.3,0.4,1.9,0.4c0.8,0,1.5-0.3,2-0.7
			c0.6-0.6,0.8-1.4,0.8-2.5c0-0.2-0.1-0.5-0.1-0.7c-0.1-0.5-0.2-1-0.3-1.5c-0.2-0.9-0.4-1.9-0.6-2.8c-0.3-1.5-1-2.8-2.1-4.3
			c-3.1-4.1-5.8-6.8-8.9-9c-2.6-1.8-4.8-2.9-7.1-3.6c-1.8-0.5-3.8-1.1-5.8-1.5c-1-0.2-1.6-0.7-1.8-1.6c-0.5-2.4-1.6-4.7-2.6-6.9
			l-0.1-0.2c-1.9-4.1-4.1-7.4-6.6-10C208.52,167.7,206.02,166.5,203.32,166.5L203.32,166.5z M190.12,186.7c0-0.1,0-0.1,0-0.2
			c0-0.3,0-0.5,0.1-0.7c1.3-2.8,2.8-5.6,4.6-8.2c1.6-2.3,3.7-4.3,6.2-6.1c0.8-0.6,1.6-0.9,2.4-0.9c0.9,0,1.8,0.4,2.8,1.2
			c0.6,0.6,1.3,1.1,1.7,1.8c0.3,0.4,0.6,0.9,0.8,1.3c1.9,3,3.9,6.2,4.8,9.8c0.1,0.2,0.2,0.5,0.3,0.7c0.2,0.5,0.4,1,0.2,1.6l0,0
			c-1.3,0-2.6-0.1-4-0.2c-1.3-0.1-2.6-0.2-3.9-0.2s-2.5,0-3.8,0c-1.4,0-2.7,0-4.1,0c-1.1,0-2.1,0-3.2,0h-2.5L190.12,186.7
			L190.12,186.7z M77.82,201.3c-0.3-0.3-0.1-0.6,0-0.9c0.1-0.1,0.1-0.2,0.1-0.3c1.6-4.6,3.3-9.4,5.7-13.9c1.1-2,2.5-3.8,4.2-5.3
			c0.6-0.5,1.4-0.9,2.1-1.3l0.3-0.1c0.3-0.2,0.6-0.2,0.9-0.2c0.4,0,0.8,0.1,1.2,0.4c1.8,1.1,3.3,2.5,4.6,4.1
			c2.9,3.8,5.7,7.5,8.3,11.9c-0.2,0.1-0.5,0.1-0.7,0.2c-0.6,0.1-1,0.3-1.5,0.4c-2.7,0.6-5.3,1.1-8,1.7c-5.3,1.1-10.7,2.2-16,3.4
			c-0.3,0.1-0.7,0.1-1,0.1C78.02,201.3,77.92,201.3,77.82,201.3L77.82,201.3z"/>
	</g>
	<g>
		<path d="M212.42,137.3c-3,0-6.2,0-9.5-0.1c-2.1,0-3.8-0.2-5.3-0.6c-1.4-0.3-2.8-0.6-4.2-0.9c-1.6-0.3-3.3-0.7-5-1.1
			c-1.4-0.4-3-1-4.4-1.9c-2-1.2-3.9-2.5-5.8-3.7l-1.6-1.1c-0.4-0.3-1-0.7-1.5-1.2c-2-2.2-3.9-4.4-5.8-6.6l-0.2-0.3
			c-0.3-0.3-0.6-0.7-0.7-1.1c-0.3-0.8-0.7-1.6-1.1-2.3c-0.9-2-1.8-4-2.5-6.1c-1-3.3-1.4-6.9-1.1-11l0.1-0.8c0-0.6,0.1-1.1,0.1-1.7
			c0-0.3,0-0.7-0.1-1.1c0-0.2,0-0.4-0.1-0.7h-1.1c-0.8,0-1.5,0-2.2-0.1h-0.2c-0.9,0-1.8-0.1-2.7-0.3c-0.4-0.1-0.8-0.6-0.9-0.9
			c-0.2-0.6,0.2-1.1,0.9-1.3c0.4-0.1,0.8-0.2,1.3-0.3c1.8-0.1,3.6-0.2,5.3-0.3c3.1-0.1,6.1-0.3,9.2-0.5c2.6-0.2,5.2-0.4,7.7-0.6
			c1.1-0.1,4.9-0.4,4.9-0.4c1.1-0.1,2.3-0.2,3.4-0.3l3.1-0.2c4.1-0.3,8.4-0.6,12.6-0.8c1.4-0.1,2.8-0.1,4.2-0.1c1.3,0,2.7-0.1,4-0.1
			c1.4-0.1,2.8-0.2,4.1-0.4c0.5-0.1,1-0.1,1.5-0.2c0.9-0.1,1.9-0.2,2.8-0.3c2.5-0.3,5-0.5,7.6-0.9c0.4-0.1,0.9-0.1,1.4-0.1
			c1.3,0,2.5,0.2,3.7,0.4l0.9,0.1c0.4,0.1,0.9,0.3,1.2,0.5c0.3,0.3,0.6,0.8,0.6,1.2c0,0.4-0.5,0.9-0.9,1c-0.9,0.2-1.9,0.3-2.9,0.4
			l-0.9,0.1c-0.2,0-0.5,0-0.7,0h-0.7c-0.6,0-1.3,0-1.9,0.5c0,0.2,0.1,0.4,0.1,0.7c0.1,0.6,0.2,1.1,0.3,1.7c0,1,0,2-0.1,2.9v0.3
			c-0.1,2-0.3,4.2-0.5,6.3c-0.3,2.8-1.2,5.6-2.8,8.7c-1.5,2.8-3.3,5.5-5.4,8.2c-1.9,2.4-4.3,4.3-6.8,6.1c-2.1,1.5-4.8,2.2-7.1,2.7
			c-4.2,1-7.7,1.4-10.9,1.4c-0.9,0-1.8,0-2.6-0.1c-1.5-0.1-2.9-0.4-4.4-0.6c-0.6-0.1-1.3-0.2-1.9-0.3c-0.3-0.1-0.6-0.1-1.1-0.2
			l-0.6-0.1c0.1,0.1,0.2,0.3,0.3,0.4c0.2,0.3,0.3,0.5,0.5,0.5c1,0.5,1.9,0.9,2.9,1.2c1.3,0.3,2.5,0.6,3.8,0.9
			c0.9,0.2,1.8,0.4,2.6,0.6c2.6,0.7,5.3,0.8,7.5,0.9l2,0.1c2.2,0.1,4.4,0.2,6.7,0.2c2.7,0,4.9-0.1,7.1-0.4c1.9-0.3,3.7-0.9,5.5-1.5
			l0.6-0.2c1.3-0.4,2.3-0.8,3.3-1c0.2,0,0.4-0.1,0.6-0.1s0.5,0,0.8,0.2s1,0.8,1.1,1.5c0.1,0.4-0.5,1.2-0.9,1.3
			c-0.8,0.3-1.5,0.6-2.3,0.9c-1.8,0.8-3.7,1.5-5.7,2c-2.6,0.6-5.4,0.8-8.8,0.8L212.42,137.3z M169.32,94.9c-0.4,2.8-0.6,4.8-0.5,6.8
			c0.1,1.8,0.4,3.7,0.7,5.3c0.1,0.6,0.3,1.3,0.5,1.9c0.1,0.5,0.3,0.9,0.4,1.4c0.7,3.1,2.1,5.6,4.2,7.5c1.6,1.5,3.7,3.3,6.1,4.9
			c3,1.9,6.1,3.1,9.3,3.6c1.7,0.2,3.4,0.4,5.1,0.4c4,0,8.1-0.7,12.3-2c0.7-0.2,1.3-0.5,2-0.9c3.5-2.2,5.9-4.4,7.6-6.9
			c0.3-0.4,0.6-0.9,0.9-1.3c0.9-1.2,1.8-2.5,2.3-4l-0.7-0.1c-0.5-0.1-1-0.1-1.4-0.2c-2.2-0.3-4.1-1.1-5.6-2.2
			c-3.9-2.9-5.9-6.8-5.9-11.4c0-1.1-0.1-2.1-0.1-3.2c0-0.5-0.1-1-0.1-1.4L169.32,94.9z"/>
		<path d="M230.62,87.2c1.6,0,3.1,0.3,4.6,0.5c0.4,0.1,0.8,0.2,1.1,0.5c0.3,0.3,0.6,0.7,0.5,1.1c0,0.3-0.4,0.8-0.8,0.9
			c-1.2,0.3-2.5,0.4-3.7,0.5c-0.2,0-0.5,0-0.7,0s-0.5,0-0.7,0c-0.7,0-1.4,0.1-2,0.5c0.1,0.8,0.4,1.6,0.4,2.4c0,1,0,2.1-0.1,3.2
			c-0.1,2.1-0.3,4.2-0.5,6.3c-0.3,3.1-1.4,6-2.8,8.6c-1.5,2.9-3.3,5.6-5.4,8.2c-1.9,2.4-4.3,4.3-6.8,6c-2.1,1.5-4.6,2.1-7,2.7
			c-3.6,0.8-7.2,1.4-10.8,1.4c-0.9,0-1.7,0-2.6-0.1c-2.1-0.2-4.2-0.6-6.2-1c-0.5-0.1-1-0.2-2-0.4c0.5,0.7,0.7,1.1,1,1.2
			c0.9,0.5,1.9,0.9,2.9,1.2c2.1,0.6,4.3,1,6.4,1.5c2.5,0.6,5,0.8,7.5,0.9c2.9,0.1,5.8,0.3,8.7,0.3c2.4,0,4.7-0.1,7.1-0.4
			c2.1-0.3,4.1-1,6.1-1.7c1.1-0.4,2.2-0.7,3.3-1c0.2,0,0.3-0.1,0.5-0.1c0.3,0,0.5,0,0.7,0.2c0.5,0.4,1,0.9,1.1,1.4
			c0.1,0.3-0.4,1-0.8,1.2c-2.7,1-5.2,2.3-8,2.9c-2.9,0.6-5.8,0.8-8.8,0.8c-0.1,0-0.2,0-0.3,0c-3.2,0-6.3,0-9.5-0.1
			c-1.8,0-3.6-0.2-5.3-0.6c-3.1-0.8-6.2-1.3-9.2-2.1c-1.5-0.4-3-1-4.3-1.8c-2.5-1.5-5-3.2-7.4-4.8c-0.5-0.3-1-0.7-1.5-1.2
			c-2-2.3-4-4.6-6-6.9c-0.3-0.3-0.6-0.7-0.7-1c-1.2-2.8-2.6-5.5-3.6-8.4c-1.1-3.5-1.4-7.2-1.1-10.9c0.1-0.8,0.1-1.7,0.2-2.5
			c0-0.5-0.1-1-0.1-1.9c-1.3,0-2.4,0-3.4-0.1c-0.9,0-1.9-0.1-2.8-0.3c-0.3-0.1-0.7-0.5-0.8-0.8c-0.2-0.6,0.3-1,0.8-1.2
			c0.4-0.2,0.8-0.2,1.2-0.3c4.8-0.3,9.7-0.4,14.5-0.7c3.7-0.2,7.3-0.6,11-0.9c1.7-0.1,3.4-0.3,5-0.4c5.2-0.4,10.5-0.7,15.8-1
			c2.7-0.2,5.5-0.1,8.2-0.3c1.9-0.1,3.8-0.4,5.6-0.6c3.4-0.4,6.9-0.7,10.3-1.2C229.72,87.2,230.12,87.2,230.62,87.2 M195.12,126.8
			c4.2,0,8.3-0.7,12.3-2c0.7-0.2,1.4-0.5,2-0.9c3-1.9,5.7-4,7.6-7c1.2-1.7,2.6-3.3,3.3-5.5c-0.8-0.1-1.6-0.2-2.3-0.3
			c-2-0.3-3.9-0.9-5.5-2.2c-3.7-2.8-5.8-6.6-5.9-11.3c0-1.6-0.1-3.1-0.2-4.8c-12.4,0.7-24.6,1.3-37.2,2c-0.4,2.5-0.6,4.7-0.5,6.9
			c0.1,1.8,0.4,3.5,0.7,5.3c0.2,1.1,0.6,2.2,0.9,3.3c0.7,2.9,1.9,5.5,4.2,7.6c1.9,1.8,3.9,3.5,6.1,4.9c2.9,1.8,6,3.1,9.3,3.6
			C191.72,126.6,193.42,126.8,195.12,126.8 M230.62,86.9c-0.5,0-0.9,0-1.4,0.1c-2.5,0.3-5.1,0.6-7.6,0.9c-0.9,0.1-1.8,0.2-2.8,0.3
			c-0.5,0.1-1,0.1-1.5,0.2c-1.3,0.2-2.7,0.3-4.1,0.4c-1.3,0.1-2.7,0.1-4,0.1c-1.4,0-2.8,0.1-4.2,0.1c-4.2,0.2-8.4,0.5-12.5,0.8
			l-3.2,0.2c-1.1,0.1-2.3,0.2-3.4,0.3c-0.5,0-1.1,0.1-1.6,0.1c-1.1,0.1-2.2,0.2-3.4,0.3c-2.5,0.2-5.1,0.4-7.6,0.6
			c-3,0.2-6.1,0.3-9.1,0.5c-1.8,0.1-3.6,0.2-5.3,0.3c-0.5,0-0.9,0.1-1.3,0.3c-0.8,0.3-1.1,0.9-0.9,1.5c0.1,0.4,0.6,0.9,1,1
			c0.9,0.2,1.8,0.2,2.7,0.3h0.2c0.7,0,1.4,0,2.2,0.1c0.3,0,0.6,0,1,0c0,0.2,0,0.4,0.1,0.6c0,0.4,0.1,0.8,0.1,1.1
			c0,0.6-0.1,1.1-0.1,1.7c0,0.3,0,0.6-0.1,0.8c-0.3,4.1,0.1,7.7,1.1,11c0.7,2.1,1.6,4.1,2.5,6.1c0.4,0.8,0.7,1.6,1.1,2.3
			c0.2,0.4,0.4,0.7,0.8,1.1l0.3,0.3c1.9,2.2,3.8,4.4,5.8,6.6c0.5,0.5,1.1,0.9,1.5,1.2c0.5,0.4,1.1,0.7,1.6,1.1
			c1.9,1.3,3.8,2.5,5.8,3.7c1.4,0.8,2.9,1.5,4.4,1.9c1.7,0.4,3.4,0.8,5,1.1c1.4,0.3,2.8,0.6,4.2,0.9c1.6,0.4,3.3,0.6,5.4,0.6
			c3.3,0.1,6.5,0.1,9.5,0.1h0.3c3.4,0,6.2-0.3,8.8-0.8c2-0.4,3.9-1.2,5.8-2c0.7-0.3,1.5-0.6,2.3-0.9c0.5-0.2,1.1-1,1-1.5
			c-0.2-0.7-0.9-1.3-1.2-1.5c-0.2-0.2-0.6-0.2-0.8-0.2c-0.2,0-0.4,0-0.6,0.1c-1,0.2-2,0.6-3.3,1l-0.6,0.2c-1.8,0.6-3.6,1.2-5.5,1.5
			c-2.1,0.3-4.4,0.4-7.1,0.4c-2.2,0-4.5-0.1-6.7-0.2c-0.7,0-1.3-0.1-2-0.1c-2.2-0.1-4.8-0.3-7.5-0.9c-0.9-0.2-1.8-0.4-2.6-0.6
			c-1.2-0.3-2.5-0.6-3.8-0.9c-1-0.3-1.9-0.7-2.8-1.2c-0.1-0.1-0.2-0.2-0.4-0.5l-0.1-0.1l0.3,0.1c0.4,0.1,0.8,0.1,1.1,0.2
			c0.6,0.1,1.3,0.2,1.9,0.3c1.4,0.3,2.9,0.5,4.4,0.6c0.9,0.1,1.7,0.1,2.6,0.1c3.2,0,6.7-0.5,10.9-1.4c2.3-0.5,5-1.2,7.1-2.7
			c2.5-1.8,4.9-3.6,6.8-6.1c2.1-2.7,3.9-5.4,5.4-8.2c1.7-3.1,2.6-6,2.9-8.7c0.2-2.1,0.3-4.2,0.5-6.3v-0.3c0.1-1,0.1-1.9,0.1-2.9
			c0-0.6-0.2-1.2-0.3-1.7c0-0.2-0.1-0.4-0.1-0.6c0.5-0.3,1-0.4,1.7-0.4h0.3h0.3c0.2,0,0.5,0,0.7,0c0.3,0,0.6-0.1,0.9-0.1
			c0.9-0.1,1.9-0.2,2.9-0.4c0.4-0.1,0.9-0.7,1-1.1c0.1-0.4-0.3-1-0.6-1.3c-0.3-0.3-0.8-0.5-1.2-0.6c-0.3,0-0.6-0.1-0.9-0.1
			C233.12,87.1,231.92,86.9,230.62,86.9L230.62,86.9z M169.42,95l18.7-1l18.1-1c0,0.4,0,0.9,0.1,1.3c0.1,1.1,0.1,2.1,0.1,3.2
			c0,4.7,2,8.6,5.9,11.5c1.5,1.1,3.4,1.9,5.6,2.2c0.5,0.1,1,0.1,1.5,0.2l0.5,0.1c-0.6,1.5-1.4,2.7-2.3,3.8c-0.3,0.4-0.6,0.9-0.9,1.3
			c-1.7,2.5-4.1,4.7-7.6,6.9c-0.6,0.4-1.3,0.7-1.9,0.9c-4.2,1.3-8.3,2-12.3,2c-1.7,0-3.4-0.1-5.1-0.4c-3.2-0.5-6.2-1.6-9.2-3.6
			c-2.4-1.6-4.5-3.4-6.1-4.9c-2.1-1.9-3.4-4.4-4.1-7.5c-0.1-0.5-0.2-1-0.4-1.4c-0.2-0.6-0.4-1.3-0.5-1.9c-0.3-1.6-0.6-3.5-0.7-5.3
			C168.92,99.7,169.02,97.7,169.42,95L169.42,95z"/>
	</g>
</g>
</svg>
