<?xml version="1.0" encoding="utf-8"?>
<!-- Generator: Adobe Illustrator 24.0.1, SVG Export Plug-In . SVG Version: 6.00 Build 0)  -->
<svg version="1.1" id="Layer_1" xmlns="http://www.w3.org/2000/svg" xmlns:xlink="http://www.w3.org/1999/xlink" x="0px" y="0px"
	 viewBox="0 0 210.56 239.3" style="enable-background:new 0 0 210.56 239.3;" xml:space="preserve">
<style type="text/css">
	.st0{fill:#9FCD49;}
	.st1{fill:#7D9E3E;}
	.st2{fill:#FFFFFF;}
	.st3{fill:#8BAF3E;}
</style>
<path class="st0" d="M174.05,66.5c0,1.1,0,2.1,0,3.2c-0.2,4.6-0.3,9.2-0.7,13.8c-0.2,2.7-0.9,5.4-1.3,8.1c-0.7,3.8-1.3,7.7-2,11.5
	c-0.5,3-0.8,6.1-0.6,9.1c0.2,2.8,1.1,5.4,3.2,7.3c3.1,2.9,6.1,5.8,9.7,8.1c3.3,2.2,6.6,4.4,10,6.6c3.7,2.4,6.6,5.5,9.2,8.9
	c2.2,3,3.8,6.3,5.3,9.6c0.6,1.2,0.9,2.6,1.1,3.9c0.4,2.2,0.6,4.4,0.9,6.6c0.2,1.8,0.6,3.5,0.8,5.3c0.1,0.9,0.1,1.9,0,2.8
	c-0.3,2.8,0,5.7,0.1,8.5c0.2,3.9,0.4,7.7-0.1,11.6c-0.4,2.8-0.5,5.6-0.8,8.5c-0.4,3.4-1,6.8-2.1,10.2c-0.1,0.3-0.2,0.6-0.2,0.9
	c-0.4,3.7-1.6,7.2-2.3,10.8c-0.4,1.8-0.4,3.8-0.6,5.6c-0.2,1.9-0.2,3.8-0.4,5.7c0,0.5-0.1,1.1-0.2,1.6c-0.4,1.7-1.4,2.8-3.2,3.1
	c-5.4,1-10.8,1.5-16.3,0.8c-2.5-0.3-4.9-1-7.4-1.4c-3.4-0.6-6.9-0.9-10.3-1.3c-4.4-0.6-8.8-1.1-13.1-1.7c-7.4-1.1-14.8-2.2-22.2-3.3
	c-0.5-0.1-1-0.1-1.6-0.1c-4.5-0.2-9-0.4-13.6-0.6c-4.9-0.2-9.9-0.2-14.8-0.8c-6.5-0.8-13-0.5-19.6-0.6c-7.8-0.1-15.6-0.1-23.4,0
	c-4.2,0-8.4,0.4-12.6,0.7c-4.8,0.3-9.7,0.6-14.5,0.9c-2.2,0.1-4.4,0-6.6,0c-2,0-4,0.2-6,0.3c-0.9,0-1.9,0-2.8,0
	c-1.6,0-3.2-0.2-4.7,0.4c-0.2,0.1-0.6,0-0.9-0.1c-0.7-0.2-1.1-1.1-0.6-1.5c2-1.6,1.3-3.4,0.7-5.4c-1.7-5.9-3-11.8-4.2-17.8
	c-1-5.6-2.2-11.1-3-16.8c-0.4-2.9-0.4-5.9-0.6-8.8c-0.3-4.1-0.7-8.2-1.1-12.3c-0.3-3.1-0.5-6.1,0-9.1c0.4-2.2,0.6-4.4,0.8-6.6
	c0.4-4.2,2.1-7.9,4.9-11.1c2.3-2.6,4.9-4.9,8-6.6c1.9-1,3.7-2.1,5.5-3.1c0.6-0.4,1.2-0.8,1.8-1.3c0.6-0.5,1-1.1,1.6-1.6
	c3.6-3.4,5.8-7.4,6.2-12.4c2-7.2,1.3-14.5,0.3-21.6c-0.9-6.3-1.3-12.5-0.8-18.9c0.4-4.7,0.7-9.4,1.2-14.2c0.3-2.6,0.9-5.2,1.7-7.7
	c2.1-6.4,4.3-12.8,6.8-19c1-2.6,2.3-4.9,4-7.1c0.8-1,1.5-2,2.3-3c3.3-4.5,7.3-8.1,12.2-10.8c7.9-4.5,16.3-7.7,25.2-9.8
	c3-0.7,5.9-1.5,8.9-2.1c4.3-0.8,8.6-1.6,13.1-1.9c7.2-0.4,14.3,0,21.4,0.3c4.6,0.2,9.2,1.2,13.7,1.8c1.3,0.2,2.7,0.4,4,0.8
	c3.6,1,6.8,2.8,9.7,5c2,1.5,3.9,3.2,5.8,4.9c4.2,3.7,7.1,8.2,9.3,13.3c0.2,0.6,0.4,1.2,0.5,1.8c0.6,3,1.3,6,1.9,8.9
	c0.2,0.9,0.4,1.9,0.7,2.8c0.6,2.2,1.5,4.4,1.2,6.8c0,0.3,0.1,0.6,0.2,0.9c0.9,2.1,0.9,4.3,1,6.5c0.1,3.2,0.3,6.3,0.5,9.4
	C174.05,64.6,174.05,65.5,174.05,66.5L174.05,66.5z"/>
<path class="st0" d="M77.85,126.3c2.5-0.1,5-0.3,7.6-0.4c4.4-0.1,8.8-0.2,13.3-0.3c2.1,0,4.2-0.2,6.3-0.2c2,0,4,0.4,6,0.3
	c3.3,0,6.5-0.3,9.8-0.4c2.2-0.1,4.4-0.1,6.6,0.1c6.4,0.5,12.8,1.1,19.2,1.5c3.1,0.2,6.3,0.3,9.4,0.4c3,0.1,5.8,0.8,8.6,1.7
	c2.3,0.7,4.7,1.3,6.7,2.7c0.6,0.4,1.4,0.4,2.1,0.7c2.8,1.2,5.3,3,7.3,5.4c1.2,1.4,2.5,2.8,3.7,4.3c1.4,1.7,2.2,3.6,2.5,5.7
	c0.2,0.9,0.4,1.9,0.5,2.8c0.4,2.8,0.4,5.7-0.5,8.4c-0.3,1-0.7,2-0.8,3c-0.5,3.2-2.2,5.9-4.2,8.4c-1,1.3-2.3,2.4-3.8,3.3
	c-1.6,1-3.2,2.1-4.8,3c-1,0.5-1.7,1.1-2.1,2.2s-1.7,1.5-2.7,1.1c-1.9-0.7-3.7-0.1-5.6,0.1c-5.8,0.8-11.7,1.5-17.5,2.5
	c-5.4,0.8-10.8,1.8-16.2,2.8c-5.4,1-10.8,1.8-16.3,1.5c-4-0.2-8-0.2-12-0.5c-2.3-0.2-4.6-0.7-6.8-1.2c-2.5-0.6-5-0.7-7.5-0.6
	c-1.5,0-2.9-0.1-4.3-0.7c-1.2-0.5-2.6-0.8-4-1c-5.4-0.9-10.8-1.7-16.2-2.5c-3.2-0.4-6.5-0.6-9.7-1.1c-3.3-0.5-6.6-1.1-9.9-1.9
	c-3.5-0.9-6.5-3-9.3-5.3c-1.6-1.3-2.7-3-3.5-4.8c-2.2-4.4-3.4-9-3.8-13.9c-0.3-3.7,0.8-7.1,2.3-10.4c1.5-3.3,3.8-5.7,7-7.4
	c3.2-1.7,6.3-3.5,10-3.8c4.7-1.6,9.5-2.6,14.3-3.7c2.1-0.5,4.3-0.8,6.5-1.2c1.3-0.2,2.7-0.5,4.1-0.6c2.5-0.2,5-0.3,7.5-0.4
	C77.85,126.1,77.85,126.2,77.85,126.3z"/>
<path class="st1" d="M124.45,143.9c-1,1.8-1.8,3.3-2.7,4.7c-2,3.3-4.9,5.6-8.8,6.1c-4.1,0.5-7.9-0.4-11.4-2.8
	c-3-2.1-5.2-4.9-6.8-8.1c-0.2-0.3-0.4-0.6-0.8-1.1c-0.4,0.8-0.7,1.3-1,1.9c-1,1.7-1.8,3.6-3.4,4.9c-3.9,3.2-8.4,4.2-13.3,2.7
	c-1.4-0.4-2.7-1.1-4.1-1.7c-2.6-1.1-4.6-2.9-5.8-5.5c-0.1-0.1-0.3-0.2-0.5-0.3c-0.6,0.6-1.3,1.1-1.7,1.9c-0.9,1.9-2.5,3.1-3.9,4.5
	c-1.8,1.8-3.9,3.2-6.5,3.7c-3.9,0.7-7.5,0.4-10.8-2.1c-3.8-3-5.9-6.8-5.1-11.8c0.1-0.4,0.3-0.8-0.4-1.1c-0.2,0.1-0.5,0.2-0.7,0.4
	c-2.5,2-3.8,4.7-4.9,7.6c-0.9,2.4-1.4,4.8-0.7,7.4c0.6,2.1,1,4.3,1.4,6.5c0.5,2.4,1.6,4.6,3.1,6.5c2.6,3.5,6.1,5.7,10.6,6.3
	c0.4-1.1,0.7-2,1.1-3c0.9-2.4,2.1-4.6,4-6.4c2.3-2,4.5-4.1,7.1-5.7c2-1.2,4.2-2.2,6.5-2.2c3.2,0,6.3,0.5,9,2.4
	c3.4,2.4,6.2,5.3,7.7,9.3c0.5,1.4,1,2.8,1.6,4.1c0.4,0.9,0.5,2,1.3,2.8c0.3-0.2,0.5-0.2,0.6-0.4c1-2.2,2.8-4,4.2-5.9
	c1.4-2,3.4-3.1,5.8-3.6c1.7-0.4,3.5-0.5,5.3-0.8c2.1-0.3,4,0.2,5.8,1.1c2.7,1.3,5.1,3,6.3,5.9c0.3,0.7,0.6,1.3,1,2
	c0.3,0.5,0.6,1,1.1,1.7c0.4-0.8,0.7-1.3,1.1-1.8c0.8-1.3,1.5-2.6,2.4-3.7c0.6-0.7,1.4-1.4,2.2-1.7c3.2-1.2,6.5-1.9,9.9-1.5
	c1.8,0.2,3.5,0.8,4.9,2c1.4,1.3,2.6,2.7,3.9,4.1c0.3,0.3,0.4,1,1.1,0.9c0.6-1,1.2-2,1.7-3c3.2-5.7,4.1-6.2,10.4-7.6
	c4.5-1,8.2,0.8,11.8,3.2c0.3,0.2,0.5,0.4,0.7,0.7c1.3,1.7,2.6,3.3,3.9,5c0.4,0.5,0.8,0.9,1.2,1.5c1.8-1.1,3.6-2,5.2-3.2
	c0.9-0.6,1.7-1.5,2.5-2.4c2.1-2.6,3.4-5.6,4.2-8.8c1.2-4.9,0.7-9.6-1.1-14.2c-0.8-2-2.1-3.5-3.8-4.8c-0.2,0.2-0.4,0.2-0.4,0.3
	c-0.1,0.7-0.1,1.5-0.2,2.2c-0.1,0.6-0.1,1.3-0.3,1.8c-2,4.2-4.8,7.6-9.3,9.4c-2.9,1.2-5.8,1.3-8.4-0.7c-2-1.5-3.9-3.2-5.8-4.8
	c-0.6-0.5-1.1-1-1.7-1.6c-0.5,0.7-0.8,1.2-1.2,1.6c-2.5,3.6-5.9,5.3-10.3,5.1c-1.7-0.1-3.3-0.5-4.9-0.9c-3.9-1-7-3.3-9-6.9
	C125.25,145.3,124.95,144.8,124.45,143.9z"/>
<path class="st2" d="M97.55,129.4c0,0.4-0.2,1-0.2,1.6c0.2,1.8,0.5,3.5,0.6,5.3c0.4,4.2,2.2,7.8,4.7,11.1c0.5,0.7,1.3,1.4,2.1,1.8
	c1.2,0.7,2.5,1.1,3.7,1.6c2.4,1,4.6,0.3,6.3-1.5c1.1-1.2,2.1-2.6,3-4c2.7-4.9,3.8-10.2,3.9-15.7c0-0.2-0.2-0.4-0.3-0.6
	c-1.6,0-3.3,0-4.9,0c-2.5,0-5,0.3-7.5,0c-3.7-0.4-7.3-0.1-11-0.1C97.95,129.1,97.85,129.2,97.55,129.4z"/>
<path class="st2" d="M127.85,129.5c-0.3,5,0.1,8.3,1.5,12.3c0.5,1.5,1.2,2.9,2,4.2c1.5,2.4,4,3.2,6.6,3.9c2.2,0.6,4,0,5.5-1.4
	c3-2.7,4.6-6.2,5.1-10.2c0.2-1.2,0-2.5,0.1-3.8c0.1-1.2,0.2-2.4,0.3-3.8c-6.8-0.7-13.4-1.5-20.1-1.6
	C128.55,129.2,128.25,129.4,127.85,129.5z"/>
<path class="st2" d="M68.75,130.2c-0.1,4.6,1.1,8.7,2.2,12.7c0.7,2.4,2.2,4.3,4.7,5.2c0.5,0.2,0.9,0.5,1.4,0.7
	c3,1.2,5.8,0.7,8.1-1.6c0.7-0.7,1.4-1.6,1.9-2.5c2.2-4.2,3.7-8.7,4-13.5c0-0.6-0.2-1.1-0.3-1.7c-6.1,0-12,0-17.8,0.1
	C71.65,129.6,70.35,129.9,68.75,130.2z"/>
<path class="st2" d="M51.85,175.3c1.9,0.3,3.5,0.7,5.2,0.8c7.5,0.5,14.8,1.7,22.2,3.1c0.4,0.1,0.8-0.1,1.3-0.1
	c-1.1-2.9-2.2-5.7-3.1-8.4c-1.2-3.4-3.3-6.1-6-8.4c-2.6-2.1-5.4-2.6-8.5-1.1c-1.3,0.7-2.6,1.4-3.7,2.4c-0.8,0.8-1.7,1.6-2.6,2.3
	C53.85,168.3,52.45,171.4,51.85,175.3z"/>
<path class="st2" d="M57.35,133.7c-1.2,0.1-2.1,0.1-2.9,0.3c-3.1,0.7-6.1,1.4-9.3,1.8c-0.9,0.1-1.5,0.7-1.7,1.6
	c-0.6,2.2-0.4,4.4-0.4,6.6c-0.1,2.8,1.4,4.7,3.3,6.5c2.2,2.1,6.2,1.9,8.4,0c2.9-2.4,5.2-5.2,7.1-8.4c0.5-0.8,0.7-1.8,0.8-2.7
	c0.1-1.8,0.1-3.6,0.5-5.3c0.2-0.9,0-1.8,0-3C60.75,131.4,58.55,131.4,57.35,133.7z"/>
<path class="st2" d="M171.75,136.1c-0.2-0.3-0.4-0.5-0.5-0.5c-3.5-1.8-7.1-3.2-10.9-4c-1.7-0.3-3.5-0.4-5.3,0.3
	c-0.7,3.5-0.9,6.9-0.7,10.4c0,1,0.3,1.8,0.9,2.7c1.6,2.5,3.9,4.4,6.2,6.2c0.8,0.6,1.8,0.6,2.7,0.2c3.2-1.3,5.7-3.5,7.2-6.7
	c0.3-0.7,0.6-1.4,0.6-2.1C171.85,140.3,171.75,138.1,171.75,136.1z"/>
<path class="st2" d="M165.25,175.6c-0.9-1.6-1.6-2.7-2.3-3.9c-1.6-2.6-3.9-4.2-6.9-5c-2.7-0.7-5,0-6.9,1.9c-2.2,2.2-3.6,4.9-4.8,7.7
	c-0.3,0.8-0.4,1.6,0.3,2.6c5.9-0.1,11.7-1.8,17.7-2.2C163.05,176.6,163.95,176.1,165.25,175.6z"/>
<path class="st0" d="M72.85,92.7c-0.8-0.3-1.3-0.5-1.8-0.7c-2.7-0.8-5-2.4-6.9-4.4c-1.3-1.3-2.4-2.7-3.5-4.1
	c-0.3-0.3-0.6-0.7-0.7-1.1c-1.2-3.3-2.1-6.6-1.4-10.1c1.1-5.3,3.6-9.9,7.6-13.5c2.4-2.3,5.2-3.9,8.6-4.5c0.3,0,0.5-0.1,0.8-0.2
	c4-1.5,7.6-0.1,11.3,1.3c0.5,0.2,1,0.6,1.5,1c1.4,1.2,2.9,2.5,4.3,3.8c2.5,2.3,3.7,5.2,3.7,8.5c0.1,3.3,0.1,6.6-0.2,9.8
	c-0.3,3.5-1.4,6.8-3.5,9.6c-0.7,1-1.8,1.9-2.8,2.7c-0.7,0.5-1.4,0.9-1.7,1.8c-0.2,0.6-0.8,1.1-1.2,1.7c-0.7,0.8-1.6,1.3-2.7,1.4
	c-3,0.5-5.9,1-9,0.4c-1.6-0.3-3.3-0.2-4.9-0.2c-2.6,0.1-5.1-0.7-7.6-1.3c-0.9-0.2-1.5-0.8-2-1.5c-0.2-0.3-0.3-0.7-0.2-1
	c0.1-0.2,0.5-0.5,0.8-0.5c0.9,0.1,1.9,0.1,2.8,0.4c2.8,0.9,5.6,0.9,8.4,0.9C72.45,93.2,72.45,93,72.85,92.7z"/>
<path class="st2" d="M92.05,73.6c-0.2-2.1-0.3-4.3-0.6-6.4c-0.1-1.1-0.4-2.2-1.1-3.2c-2-2.9-4.5-5.2-7.6-6.8c-1.4-0.7-3-1.2-4.5-1
	c-2.3,0.3-4.6,0.9-6.5,2.3c-2.9,2-5.2,4.5-6.7,7.7c-0.5,1-1,2-1.5,3c-0.7,1.7-1.4,3.4-1.4,5.2c-0.1,3.6,0.5,7.1,3.2,9.8
	c0.1,0.1,0.2,0.3,0.3,0.4c1.8,2.2,4,4.1,6.7,5.1c1.7,0.6,3.5,1.1,5.2,1.5c2.6,0.6,5.1,0.1,7.5-1.1c2.2-1.1,3.6-2.9,4.6-5.1
	C91.35,81.3,92.05,77.5,92.05,73.6z"/>
<path class="st0" d="M123.85,90.6c-4.4,0.4-8.3-1-12.1-3.1c-1.2-0.7-2.1-1.7-3-2.9c-0.8-1.1-1.5-2.3-2.3-3.4c-1-1.6-1.5-3.3-1.6-5.1
	c-0.2-3.9,0.1-7.7,1.4-11.5s3.2-7.2,6.2-10.1c1-0.9,2.1-1.6,3.4-1.8c1.5-0.2,2.8-0.8,4.1-1.4c3.3-1.5,6.8-1.9,10.4-1.6
	c2.2,0.2,4.3,0.3,6.3,1.1c1.8,0.8,3.6,1.6,5.1,3c1.2,1.1,2.3,2.3,3.5,3.5c1.4,1.4,2.1,3.1,2.5,5c0.5,2.6,0.8,5.3,0.7,8
	c-0.1,2.5-0.7,4.9-1.5,7.3c-0.8,2.4-2.2,4.3-4,5.9c-2.9,2.8-6.4,4.8-10.2,6c-2,0.6-4.2,0.8-6.4,1.1
	C125.55,90.7,124.65,90.6,123.85,90.6z"/>
<path class="st2" d="M109.55,73.3c0,0.8,0,1.6,0,2.3c0,1.5,0.5,2.9,1.2,4.2c0.6,1,1.3,2.1,1.9,3.1c0.7,1.1,1.6,2,2.8,2.6
	c4.1,2,8.4,2.6,12.8,1.8c1-0.2,2-0.4,3-0.8c3.3-1.3,6.2-3.4,8.8-5.9c1.4-1.4,2.5-3.1,3.1-5c0.7-2.4,1.3-4.8,1.1-7.4
	c-0.1-1.3-0.3-2.6-0.3-3.9c0-3.1-1.5-5.5-3.5-7.5c-3.6-3.5-7.8-5.6-13.1-4.7c-1.3,0.2-2.5,0.5-3.7,1c-1.6,0.7-3.2,1.3-4.7,2.1
	c-1.8,0.9-3,2.5-4.7,3.5c-0.9,1.9-2.4,3.3-3.1,5.3C110.15,67.2,109.55,70.2,109.55,73.3z"/>
<path class="st0" d="M140.85,47c-0.2-0.8-0.1-1.5-0.7-2.1c-1.1-1.1-2.1-2.3-3.2-3.4c-1.7-1.7-3.9-2.5-6.1-3.2
	c-3.6-1-7.1-0.8-10.7,0.2c-1.7,0.5-3.5,0.7-5.2,1.4c-0.9,0.4-2.3-0.5-2.6-1.6c-0.1-0.2,0-0.6,0.2-0.7c0.3-0.3,0.7-0.6,1.1-0.7
	c1.6-0.5,3.1-1.1,4.7-1.4c2.4-0.5,4.8-0.8,7.2-1.1c3.4-0.4,6.5,0.4,9.5,1.7c1,0.5,2,0.9,3.1,1.4c2.8,1.3,4.6,3.6,6.3,6
	c0.2,0.3,0.4,0.8,0.4,1.2c0,0.3-0.1,0.8-0.3,0.9C143.45,46.6,142.45,47.3,140.85,47z"/>
<path class="st0" d="M142.25,88.9c1,0.2,1.2,0.9,1.3,1.6c0,0.2-0.1,0.3-0.1,0.5c-1.3,2.6-3.8,3.8-6.3,5.1c-0.4,0.2-1,0.4-1.5,0.4
	c-2.1,0.3-4.3,0.5-6.4,0.7c-2,0.2-3.9,0.4-5.9,0.4c-2.7-0.1-5.3-0.6-7.7-1.8c-1.2-0.6-2.4-1.3-3.8-1.7c-1.1-0.3-1.9-1.1-2.3-2.2
	c-0.1-0.3,0.3-0.8,0.5-0.7c1.8,0.4,3.8,0.1,5.5,1.1c2,1.2,4.3,1.6,6.6,1.8c3.5,0.3,6.9-0.3,10.3-0.7c1.4-0.2,2.7-0.6,3.9-1.3
	c1.5-0.8,3-1.7,4.5-2.5C141.45,89.2,141.85,89,142.25,88.9z"/>
<path class="st0" d="M89.15,33.6c0,1.4-0.5,2.3-1.8,2.6c-1.2,0.3-2.5,0.8-3.7,1.2c-1.8,0.6-3.6,1.2-5.1,2.4c-1.9,1.4-4,2.7-6,4
	c-2.4,1.5-4.3,3.5-5.6,6c-0.5,1-1.1,1.9-1.7,2.9c-0.9,1.5-2.8,1.7-3.9,0.5c-0.2-0.2-0.3-0.7-0.2-0.9c0.3-1.3,1-2.4,1.8-3.4
	s1.6-2.1,2.4-3.1c1.3-1.6,2.8-3,4.6-4.1c2.4-1.5,4.7-3.2,7.1-4.7c2.2-1.5,4.7-2.2,7.1-3.1C85.65,33,87.15,33.1,89.15,33.6z"/>
<path class="st0" d="M77.65,84.7c-0.8-0.1-1.5-0.1-2.2-0.2c-1.2-0.1-2.4-0.5-3.4-1.2c-1.1-0.8-2.2-1.7-3.3-2.5
	c-0.8-0.6-1.3-1.4-1.5-2.3c-0.5-2.2-0.8-4.4,0-6.6c0.2-0.6,0.5-1.1,0.7-1.7c0.8-2.2,2.5-3.5,4.7-4c1.5-0.4,3-0.6,4.6-0.8
	c1.7-0.3,3.3,0.1,4.8,0.7c0.9,0.4,1.9,0.8,2.8,1.3c0.9,0.4,1.7,1,2.1,1.8c0.8,1.6,1.6,3.2,1.7,5.1c0.1,1.9-0.3,3.6-1.3,5.2
	c-0.9,1.3-1.6,2.6-3,3.5C82.35,84.5,79.95,84.8,77.65,84.7z"/>
<path class="st0" d="M136.45,70.6c0,2.4-1,4.5-2.3,6.5c-1.5,2.4-3.7,3.5-6.3,4.1c-0.9,0.2-1.9,0.3-2.8,0.1c-1.9-0.4-3.7-0.9-5.4-1.8
	c-1.5-0.8-2.6-2-3.5-3.4c-0.3-0.5-0.4-1.1-0.5-1.7c-0.4-4.2,1-7.8,3.5-11c0.1-0.1,0.1-0.2,0.2-0.2c2.6-1.5,5-3.4,8.3-2.9
	c3.2,0.5,6,1.6,7.6,4.7C136.25,66.6,136.35,68.6,136.45,70.6z"/>
<path class="st3" d="M198.75,230.9c-15.8-2.2-31.2-5.9-46.9-8.7c-14.5-2.6-29.3-3.8-44-4.1c-14.8-0.4-29.7,0.1-44.5,0.8
	c-4.9,0.2-9.8,0.5-14.7,0.7c-3.3-0.2-6.6-0.3-9.9-0.8c-4.3-0.7-12.5,0.2-15-4.1c-2.3-3.9-2.6-9.8-3.4-14.2
	c-0.9-4.7-1.8-9.4-2.7-14.1c-1.4-7.5-3.2-15.4-2.5-23c0.8-10.1,4.1-16.2,10-23.1l0.1-0.1c3.2-2.2,6.3-4.5,8.8-7.6
	c2-2.5,4.1-6.6,5.3-10.9c5-11.5,2-24,0.7-36.2c-1.5-13.2,1-28,5.9-40.3c4.3-10.8,14.5-18.5,24.3-24.3c8.5-5,17.7-8.9,27.2-11.5
	c0.2,0,0.5,0,0.8,0c3.9-0.8,7.7-1.5,11.6-2.2c3.4-0.6,7.1-0.9,10.2-2.5c1-0.5,0.7-1.9-0.4-2.1c-3.5-0.7-7.2,0.1-10.7,0.6
	c-2.7,0.4-5.4,0.8-8.1,1.3c-10.7,0.5-21,3-30.8,7.6c-11.1,5.3-22.8,13.4-29.4,24.1c-6.5,10.7-9.2,25.9-9.8,38.2
	c-0.7,15.7,5.8,31.6,0.9,47c0,0.1,0,0.2-0.1,0.3c-0.2,0.3-0.4,0.7-0.5,1c-2.7,5.1-6.4,8.1-11.1,11.3c-8,5.4-13.9,11.8-15.7,21.6
	c-2,10.8-0.3,22.2,1.5,32.8c2.1,12.1,3.5,25,6.9,36.9c1.1,3.8,5.9,4.1,7.5,1.6c5.9,1.3,12.2,0.8,18.1,0.7c7.5-0.2,15-0.7,22.6-1
	c15.2-0.7,30.4-1.3,45.6-1c8.5,0.2,17,0.7,25.4,1.5c3.6,1.3,7.7,1.6,11.4,2.5c3.9,1,7.7,2.2,11.7,1.8c0.6-0.1,1.1-0.3,1.4-0.5
	c14,2.7,28.4,5.9,42.6,3.7C201.25,234,200.55,231.1,198.75,230.9z"/>
<path class="st3" d="M96.55,76.3c-0.4-2.1-3.9-2.7-4.4-0.3c-0.8,3.6-1.1,7.2-1.4,10.8c-1.2,1.8-2.7,3.3-5,4.3
	c-3.8,1.7-8.2,2.1-12.3,1.3c-6.2-1.2-9.6-5.6-11.5-11.3c-1.5-4.6-0.7-7.8-0.2-12.5c0.1-1.2-1.3-1.8-2.2-1.3
	c-10.6,5.7-3.9,25.2,3.4,30.6c7.9,5.8,19.4,4.9,26.5-1c-1.3,7.1-3.1,14.1-4.5,21.2c-0.3,1.5,1.7,2,2.4,0.8
	c4.1-6.8,6.7-14.7,8.1-22.5C96.55,89.9,97.75,82.8,96.55,76.3z"/>
<path class="st3" d="M149.95,70.2c-0.6-1.6-3.3-1.8-3.6,0.2c-1.8,10.9-9.3,19.4-20.7,19.8c-4.8,0.1-10.1-0.5-13.3-4.3
	c-3.7-4.5-3.5-10.3-5.8-15.3c-0.4-0.9-1.9-1.3-2.3-0.2c-2.5,6.1-1.8,14.3,1.5,19.9c3.8,6.6,10.8,8.7,18,8.9
	c7.9,0.3,15.9-1.6,21.4-7.6C150.45,85.8,152.75,77.7,149.95,70.2z"/>
<g>
	<g>
		<path d="M188.85,238.9c-1.8,0-3.5-0.1-5.2-0.3c-1.6-0.2-3.1-0.5-4.6-0.9c-0.9-0.2-1.9-0.4-2.8-0.6c-2.2-0.4-4.6-0.7-6.8-0.9
			c-1.2-0.1-2.4-0.3-3.5-0.4l-1.9-0.2c-3.7-0.5-7.5-0.9-11.3-1.5c-4.7-0.7-9.4-1.4-14.2-2.1c-2.7-0.4-5.3-0.8-8-1.2
			c-0.4-0.1-0.8-0.1-1.2-0.1l-13.9-0.6c-1.5-0.1-3-0.1-4.5-0.2c-3.4-0.1-6.9-0.2-10.3-0.6c-3.9-0.5-7.7-0.6-12.3-0.6h-4.9
			c-0.8,0-1.6,0-2.3,0c-4.5,0-9.8-0.1-15.1-0.1c-2.8,0-5.5,0-8.3,0c-3,0-6.1,0.2-9.1,0.4c-1.2,0.1-2.3,0.2-3.5,0.2
			c-1.8,0.1-3.5,0.2-5.3,0.3c-3,0.2-6.1,0.4-9.2,0.5c-0.6,0-1.3,0-1.9,0s-1.2,0-1.8,0s-1.2,0-1.8,0c-0.4,0-0.7,0-1.1,0
			c-1.2,0-2.4,0.1-3.6,0.2c-0.8,0-1.6,0.1-2.4,0.1c-0.6,0-1.3,0-1.9,0h-1c-0.3,0-0.6,0-0.9,0c-0.4,0-0.7,0-1.1,0
			c-0.8,0-1.7,0.1-2.6,0.4c-0.1,0-0.2,0.1-0.3,0.1c-0.2,0-0.5-0.1-0.7-0.1c-0.5-0.1-0.9-0.5-0.9-0.9c-0.1-0.3,0-0.6,0.2-0.7
			c1.8-1.5,1.3-3,0.8-4.8l-0.1-0.4c-1.6-5.7-3-11.7-4.2-17.8c-0.3-1.6-0.6-3.2-0.9-4.8c-0.7-3.9-1.5-8-2.1-12
			c-0.3-1.8-0.4-3.7-0.4-5.5c0-1.1-0.1-2.2-0.2-3.3c-0.3-4.2-0.7-8.2-1.1-12.3c-0.3-2.5-0.5-5.8,0-9.2c0.4-2.4,0.6-4.8,0.8-6.6
			c0.4-4.2,2-7.9,4.9-11.1c2.8-3.1,5.3-5.2,8-6.6c1.9-1,3.8-2.1,5.5-3.1c0.7-0.4,1.3-0.9,1.7-1.3c0.3-0.3,0.6-0.6,0.9-0.9
			c0.2-0.2,0.4-0.5,0.7-0.7c3.8-3.6,5.8-7.6,6.1-12.3c2-7.3,1.2-14.7,0.3-21.6c-1-7-1.2-13.1-0.8-18.9c0.1-1.4,0.2-2.8,0.3-4.2
			c0.2-3.3,0.5-6.6,0.8-9.9c0.2-2.5,0.8-5,1.7-7.7c2.3-7.1,4.4-13.1,6.8-19c1.1-2.7,2.4-5.1,4.1-7.1c0.8-1,1.6-2,2.3-3
			c3.3-4.5,7.4-8.1,12.2-10.8c7.9-4.4,16.4-7.8,25.2-9.9c1-0.2,2.1-0.5,3.1-0.8c1.9-0.5,3.8-1,5.8-1.4c4.1-0.8,8.5-1.6,13.1-1.9
			c2.1-0.1,4.3-0.2,6.8-0.2c4.1,0,8.2,0.2,12.2,0.4l2.4,0.1c3.3,0.1,6.6,0.7,9.9,1.2c1.3,0.2,2.6,0.4,3.9,0.6c1.5,0.2,2.8,0.5,4,0.8
			c3.4,0.9,6.5,2.6,9.8,5c1.5,1.2,3,2.5,4.4,3.7c0.5,0.4,0.9,0.8,1.4,1.2c3.9,3.4,6.9,7.7,9.4,13.3c0.2,0.6,0.4,1.2,0.5,1.8
			c0.3,1.6,0.7,3.2,1,4.8c0.3,1.4,0.6,2.7,0.9,4.1c0.2,0.9,0.4,1.8,0.7,2.8c0.1,0.3,0.2,0.6,0.3,1c0.6,1.9,1.2,3.8,0.9,5.8
			c0,0.2,0,0.5,0.2,0.9c0.9,2,0.9,4.1,1,6.2v0.4c0.1,2,0.2,3.9,0.3,5.8c0.1,1.2,0.1,2.4,0.2,3.6c0,0.6,0,1.3,0,1.9
			c0,0.3,0,0.6,0,0.9l0,0c0,0.3,0,0.7,0,1c0,0.7,0,1.4,0,2.2c-0.1,1.2-0.1,2.4-0.1,3.5c-0.1,3.4-0.3,6.9-0.5,10.3
			c-0.2,1.9-0.5,3.8-0.9,5.7c-0.2,0.8-0.3,1.6-0.4,2.4c-0.6,3.3-1.1,6.5-1.7,9.8l-0.3,1.7c-0.6,3.3-0.8,6.3-0.6,9.1
			c0.2,3,1.3,5.5,3.2,7.3l0.2,0.2c2.9,2.8,6,5.6,9.4,7.9l3,2c2.3,1.5,4.6,3.1,7,4.6c3.3,2.2,6.3,5,9.3,9c2.3,3,3.9,6.4,5.4,9.6
			c0.6,1.4,0.9,2.9,1.1,4c0.3,1.4,0.4,2.9,0.6,4.3c0.1,0.8,0.2,1.5,0.3,2.3c0.1,0.7,0.2,1.4,0.3,2.1c0.2,1.1,0.3,2.1,0.5,3.2
			c0.1,0.9,0.1,1.9,0,2.8c-0.2,2.5-0.1,5,0.1,7.5l0.1,1c0.2,4.3,0.4,7.9-0.1,11.6c-0.2,1.6-0.4,3.2-0.5,4.8
			c-0.1,1.2-0.2,2.5-0.4,3.7c-0.5,3.9-1.1,7.2-2.1,10.2v0.1c-0.1,0.2-0.2,0.5-0.2,0.7c-0.2,2.3-0.8,4.6-1.4,6.8
			c-0.3,1.3-0.7,2.7-0.9,4c-0.3,1.4-0.4,2.8-0.5,4.3c0,0.5-0.1,0.9-0.1,1.4c-0.1,1.1-0.2,2.2-0.2,3.3c-0.1,0.8-0.1,1.6-0.2,2.4
			c0,0.6-0.1,1.1-0.2,1.6c-0.4,1.8-1.5,2.9-3.2,3.2C195.85,238.5,192.15,238.9,188.85,238.9z M90.45,224.9c1.9,0,3.5,0.1,5,0.2
			c2.6,0.2,5.5,0.4,8.5,0.5c0.4,0,0.8,0,1.3,0s1,0,1.6,0.1c2.6,0.2,13.6,0.8,16.4,1c0.8,0,1.5,0.1,2.3,0.1c1.8,0.1,3.7,0.2,5.6,0.4
			c1.8,0.2,3.6,0.5,5.3,0.8c1.1,0.2,2.2,0.4,3.4,0.5c4.6,0.7,9.3,1.4,13.9,2c2,0.3,4,0.6,6.1,0.9c0.3,0,0.6,0.1,1,0.2
			c0.5,0.1,1,0.2,1.5,0.2c1.2,0.1,2.5,0.2,3.7,0.3c2,0.2,4,0.3,6,0.5c2.3,0.2,4.5,0.7,6.7,1.2c0.7,0.1,1.3,0.3,2,0.4
			c2.7,0.5,5.4,0.8,8.1,0.8l0,0c2.8,0,5.7-0.3,8.6-0.8c0.1-0.2,0.2-0.4,0.2-0.6c0.2-0.4,0.3-0.7,0.3-1v-0.4c0.1-1.5,0.3-3.1,0.2-4.7
			c0-1.6,0.1-3.1,0.5-4.7c0.3-1.6,0.7-3.3,1.1-4.9c0.7-2.7,1.3-5.5,1.8-8.3c0.3-1.9,0.7-3.7,1-5.6c0.4-1.7,0.7-3.5,1-5.3
			c0.2-1.5,0.4-3.1,0.5-4.6c0.2-1.6,0.3-3.2,0.6-4.8c0.3-1.9,0.3-3.8,0.1-5.6c-0.5-3.5-0.4-7.1-0.3-10.1c0.2-4.8-0.2-9.4-1.1-14.1
			c-0.4-2.1-1-4.8-2.1-7.6c-2-5.2-5.2-9.7-9.6-13.8c-0.5-0.4-1-0.8-1.5-1.1c-1.2-0.8-2.4-1.5-3.6-2.3c-2-1.3-4-2.5-6-3.8
			c-4.1-2.7-7.7-5.5-11-8.4c-3.5-3.2-5.4-7.1-5.5-11.4c-0.1-2.9,0.2-6,0.7-9.1c0.6-3.8,1.4-7.7,2.2-11.4c0.3-1.6,0.6-3.1,1-4.7
			c0-0.2,0.1-0.4,0.1-0.6c0.1-0.3,0.2-0.6,0.2-1l0.2-2c0.2-2.2,0.4-4.5,0.4-6.8c0.1-2.6,0.1-5.3,0.1-7.8c0-1.5,0-3,0.1-4.5
			c0-0.8-0.1-1.6-0.3-2.4c-0.1-0.3-0.1-0.6-0.2-1c-0.1-0.7,0-1.4,0.1-2.1c0.1-0.6,0.2-1.1,0.2-1.7c-0.1-2.3-0.3-4.7-0.7-7.8
			c-0.3-2.9-1-5.9-1.9-9.2c-0.2-0.8-0.4-1.7-0.7-2.5c-0.3-1-0.5-2-0.8-3c-0.2-0.9-0.5-1.7-0.7-2.6c-0.6-2.1-1.2-4.3-2-6.4
			c-1.6-4-4-7.3-7.5-10.3c-2-1.6-4-3.3-6-4.8l-0.4-0.3c-0.4-0.3-0.9-0.6-1.3-0.8c-0.6-0.3-1.3-0.5-1.9-0.8c-1.6-0.7-3.2-1.4-4.8-1.7
			c-3.5-0.7-7.2-1.1-10.7-1.5l-1.4-0.2c-0.4,0-0.9-0.1-1.4-0.1c-0.3,0-0.6,0-0.9,0s-0.6,0-0.9,0c-0.7,0-1.3,0-1.8-0.1
			c-1.8-0.3-3.8-0.4-6.2-0.4c-1.1,0-2.2,0-3.2,0.1c-0.2,0-0.3,0-0.5,0c-0.3,0-0.5,0-0.8,0c-1.1-0.1-2.3-0.1-3.4-0.1
			c-4,0-8.1,0.5-12.2,1.5c-0.8,0.2-1.7,0.3-2.5,0.4c-0.3,0-0.6,0.1-0.9,0.1c-0.2,0-0.4,0-0.6,0c-0.3,0-0.6,0-0.9,0.1
			c-2.8,1-5.7,1.7-8.5,2.3c-1,0.2-2,0.5-3.1,0.7c-0.6,0.2-1.2,0.3-1.7,0.7c-0.7,0.5-1.5,0.8-2.3,1c-0.2,0.1-0.4,0.1-0.6,0.2
			l-1.7,0.6c-3.4,1.2-7,2.4-10.2,4.2c-4.1,2.3-8.4,4.8-11.8,8.7c-4.2,4.8-8.4,10.1-10.5,16.7c-0.8,2.6-1.7,5.1-2.7,7.5
			c-0.4,1.1-0.9,2.3-1.3,3.5l-0.1,0.2c-0.1,0.2-0.2,0.4-0.2,0.7c-1.4,4.8-3,11.2-3.2,17.9c0,1.6-0.2,3.2-0.3,4.8
			c-0.1,1.4-0.3,2.9-0.3,4.4c-0.1,4.2,0.2,8.6,0.9,13.5c0.6,3.9,0.9,7.8,1.2,11.7l0.1,1.2c0.1,1.4,0,3.1-0.2,5c-0.4,2.9-0.9,6-1.6,9
			c-0.4,1.9-0.8,4.1-2.1,6c-3.2,4.6-7.1,8-11.5,10.1c-2.8,1.4-5.8,2.9-7.9,5.5c-0.1,0.1-0.1,0.1-0.2,0.2c-3.3,2.8-5.2,6.6-5.9,11.5
			c0,0.3-0.1,0.7-0.1,1c0,0.4-0.1,0.8-0.1,1.2c-0.8,4.6-0.9,9.4-0.2,14.7c0.2,1.4,0.3,2.9,0.3,4.3c0.1,1.4,0.2,2.8,0.3,4.2
			c0.2,1.5,0.2,3.1,0.3,4.7c0,2.2,0.1,4.5,0.6,6.6c0.2,0.9,0.4,1.9,0.6,3.1c0.5,3.2,1.1,6.5,1.7,9.6c0.5,2.8,1,5.6,1.5,8.3
			c0.5,2.7,1.2,5.4,1.9,7.9c0.2,0.8,0.5,1.6,0.7,2.4c0.3,1.2,0.8,2.3,1.2,3.4c0.2,0.5,0.4,1,0.6,1.5c0.2,0,0.3,0,0.4,0.1
			c0.3,0,0.6,0.1,0.8,0.1h1.7c3.8,0,7.7,0,11.5-0.1h1.1c1.6,0,3.3,0,4.8-0.3c3.6-0.6,7.4-1,11.7-1h1.3c0.2,0,0.5,0,0.8-0.1
			c1-0.4,2-0.4,3-0.4h1.1c1.6,0,3.3-0.1,4.9-0.1h1.1c1.9,0,3.8,0,5.6-0.1c1.9,0,3.8-0.1,5.6-0.1c3.8,0,6.8,0.1,9.6,0.4h0.1
			c0.2,0,0.3,0,0.5-0.1c0.2,0,0.4-0.1,0.6-0.1c1.3,0,2.6,0,3.9-0.1C87.45,224.9,88.95,224.9,90.45,224.9z"/>
		<path d="M110.85,0.2c4.9,0,9.8,0.3,14.6,0.5c4.6,0.2,9.2,1.2,13.7,1.8c1.3,0.2,2.7,0.4,4,0.8c3.6,1,6.8,2.8,9.7,5
			c2,1.5,3.9,3.2,5.8,4.9c4.2,3.7,7.1,8.2,9.3,13.3c0.2,0.6,0.4,1.2,0.5,1.8c0.6,3,1.3,6,1.9,8.9c0.2,0.9,0.4,1.9,0.7,2.8
			c0.6,2.2,1.5,4.4,1.2,6.8c0,0.3,0.1,0.6,0.2,0.9c0.9,2.1,0.9,4.3,1,6.5c0.1,3.2,0.3,6.3,0.5,9.4c0,0.9,0,1.9,0,2.8l0,0
			c0,1.1,0,2.1,0,3.2c-0.2,4.6-0.3,9.2-0.7,13.8c-0.2,2.7-0.9,5.4-1.3,8.1c-0.7,3.8-1.3,7.7-2,11.5c-0.5,3-0.8,6.1-0.6,9.1
			c0.2,2.8,1.1,5.4,3.2,7.3c3.1,2.9,6.1,5.8,9.7,8.1c3.3,2.2,6.6,4.4,10,6.6c3.7,2.4,6.6,5.5,9.2,8.9c2.2,3,3.8,6.3,5.3,9.6
			c0.6,1.2,0.9,2.6,1.1,3.9c0.4,2.2,0.6,4.4,0.9,6.6c0.2,1.8,0.6,3.5,0.8,5.3c0.1,0.9,0.1,1.9,0,2.8c-0.3,2.8,0,5.7,0.1,8.5
			c0.2,3.9,0.4,7.7-0.1,11.6c-0.4,2.8-0.5,5.6-0.8,8.5c-0.4,3.4-1,6.8-2.1,10.2c-0.1,0.3-0.2,0.6-0.2,0.9c-0.4,3.7-1.6,7.2-2.3,10.8
			c-0.4,1.8-0.4,3.8-0.6,5.6c-0.2,1.9-0.2,3.8-0.4,5.7c0,0.5-0.1,1.1-0.2,1.6c-0.4,1.7-1.4,2.8-3.2,3.1c-3.7,0.7-7.4,1.1-11.1,1.1
			c-1.7,0-3.5-0.1-5.2-0.3c-2.5-0.3-4.9-1-7.4-1.4c-3.4-0.6-6.9-0.9-10.3-1.3c-4.4-0.6-8.8-1.1-13.1-1.7c-7.4-1.1-14.8-2.2-22.2-3.3
			c-0.5-0.1-1-0.1-1.6-0.1c-4.5-0.2-9-0.4-13.6-0.6c-4.9-0.2-9.9-0.2-14.8-0.8c-4.1-0.5-8.2-0.6-12.3-0.6c-1.7,0-3.3,0-5,0
			c-0.8,0-1.5,0-2.3,0c-5,0-10-0.1-15.1-0.1c-2.8,0-5.5,0-8.3,0c-4.2,0-8.4,0.4-12.6,0.7c-4.8,0.3-9.7,0.6-14.5,0.9
			c-0.6,0-1.3,0-1.9,0c-1.2,0-2.4,0-3.6,0c-0.4,0-0.7,0-1.1,0c-2,0-4,0.2-6,0.3c-0.6,0-1.3,0-1.9,0c-0.3,0-0.6,0-1,0
			c-0.7,0-1.3,0-2,0c-0.9,0-1.8,0.1-2.7,0.4c-0.1,0-0.2,0-0.2,0c-0.2,0-0.4-0.1-0.6-0.1c-0.7-0.2-1.1-1.1-0.6-1.5
			c2-1.6,1.3-3.4,0.7-5.4c-1.7-5.9-3-11.8-4.2-17.8c-1-5.6-2.2-11.1-3-16.8c-0.4-2.9-0.4-5.9-0.6-8.8c-0.3-4.1-0.7-8.2-1.1-12.3
			c-0.3-3.1-0.5-6.1,0-9.1c0.4-2.2,0.6-4.4,0.8-6.6c0.4-4.2,2.1-7.9,4.9-11.1c2.3-2.6,4.9-4.9,8-6.6c1.9-1,3.7-2.1,5.5-3.1
			c0.6-0.4,1.2-0.8,1.8-1.3c0.6-0.5,1-1.1,1.6-1.6c3.6-3.4,5.8-7.4,6.2-12.4c2-7.2,1.3-14.5,0.3-21.6c-0.9-6.3-1.3-12.5-0.8-18.9
			c0.4-4.7,0.7-9.4,1.2-14.2c0.3-2.6,0.9-5.2,1.7-7.7c2.1-6.4,4.3-12.8,6.8-19c1-2.6,2.3-4.9,4-7.1c0.8-1,1.5-2,2.3-3
			c3.3-4.5,7.3-8.1,12.2-10.8c7.9-4.5,16.3-7.7,25.2-9.8c3-0.7,5.9-1.5,8.9-2.1c4.3-0.8,8.6-1.6,13.1-1.9
			C106.35,0.3,108.65,0.2,110.85,0.2 M16.85,226.9L16.85,226.9c4.4,0,8.8,0,13.3-0.1c2,0,4,0,6-0.3c3.9-0.7,7.7-1,11.6-1
			c0.3,0,0.6,0,0.9,0c0.1,0,0.3,0,0.4,0c0.3,0,0.6,0,0.8-0.1c1-0.4,2-0.4,2.9-0.4c0.2,0,0.4,0,0.6,0s0.3,0,0.5,0
			c1.6,0,3.3-0.1,4.9-0.1c0.2,0,0.3,0,0.5,0s0.4,0,0.6,0c3.8,0,7.5-0.1,11.3-0.1c3.2,0,6.4,0.1,9.6,0.4h0.1c0.4,0,0.7-0.1,1.1-0.1
			c2.8,0,5.7-0.1,8.5-0.1c1.7,0,3.4,0,5,0.2c2.8,0.2,5.7,0.4,8.5,0.5c0.9,0,1.9,0,2.8,0.1c5.5,0.3,10.9,0.7,16.4,1
			c2.6,0.2,5.2,0.2,7.9,0.5c2.9,0.4,5.8,0.9,8.7,1.4c6.6,1,13.3,1.9,20,2.9c0.8,0.1,1.7,0.3,2.5,0.4c3.2,0.3,6.5,0.5,9.7,0.9
			c2.9,0.3,5.8,1,8.7,1.6c2.7,0.5,5.4,0.8,8.1,0.8c2.9,0,5.7-0.3,8.7-0.8c0.2-0.7,0.5-1.2,0.6-1.7c0.1-1.7,0.3-3.4,0.3-5
			s0.1-3.1,0.5-4.7c0.9-4.4,2.2-8.7,2.9-13.2c0.6-3.6,1.5-7.2,2-10.8c0.5-3.1,0.6-6.3,1.1-9.4c0.3-1.9,0.3-3.8,0.1-5.7
			c-0.5-3.4-0.4-6.7-0.3-10.1c0.2-4.8-0.2-9.4-1.1-14.1c-0.5-2.6-1.1-5.1-2.1-7.6c-2.1-5.4-5.4-9.9-9.6-13.9c-0.5-0.4-1-0.8-1.5-1.1
			c-3.2-2-6.4-4-9.5-6.1c-3.9-2.5-7.6-5.3-11-8.4c-3.4-3.1-5.3-6.8-5.4-11.3c-0.1-3,0.2-6.1,0.7-9.1c0.9-5.4,2.1-10.7,3.2-16.1
			c0.1-0.5,0.3-1,0.3-1.5c0.2-2.9,0.5-5.9,0.6-8.8c0.1-4.1,0.1-8.2,0.2-12.3c0-1.2-0.3-2.3-0.5-3.4c-0.2-1.2,0.3-2.5,0.3-3.7
			c-0.1-2.6-0.4-5.2-0.7-7.9c-0.4-3.1-1-6.2-1.9-9.3c-0.5-1.8-0.9-3.7-1.4-5.5c-0.9-3-1.6-6.1-2.7-9c-1.6-4.1-4.2-7.5-7.5-10.3
			c-2.1-1.8-4.2-3.4-6.4-5.1c-0.4-0.3-0.9-0.6-1.4-0.8c-2.2-0.9-4.4-2-6.8-2.5c-4-0.8-8.1-1.2-12.1-1.7c-0.5-0.1-1-0.1-1.4-0.1
			c-0.6,0-1.2,0-1.8,0c-0.6,0-1.2,0-1.8-0.1c-2.1-0.3-4.1-0.4-6.2-0.4c-1.1,0-2.2,0-3.2,0.1c-0.2,0-0.3,0-0.5,0c-0.3,0-0.5,0-0.8,0
			c-1.1-0.1-2.3-0.1-3.4-0.1c-4.1,0-8.2,0.5-12.2,1.5c-1.1,0.3-2.3,0.4-3.4,0.6c-0.5,0.1-1.1,0-1.6,0.2c-3.8,1.3-7.7,2.1-11.5,3.1
			c-0.6,0.2-1.3,0.3-1.7,0.7c-0.9,0.7-1.9,0.9-2.9,1.2c-4.1,1.4-8.2,2.7-12,4.8c-4.3,2.4-8.5,4.9-11.9,8.7
			c-4.4,5-8.5,10.2-10.5,16.7c-1.2,3.7-2.6,7.3-4,11c-0.1,0.3-0.2,0.6-0.3,0.9c-1.7,5.9-3,11.8-3.2,18c-0.1,3-0.5,6.1-0.6,9.1
			c-0.2,4.5,0.2,9,0.9,13.5c0.7,4.3,1,8.6,1.3,12.9c0.1,1.7,0,3.4-0.2,5c-0.4,3-1,6-1.6,9c-0.4,2.1-0.9,4.2-2.1,5.9
			c-3,4.3-6.7,7.8-11.5,10.1c-3,1.4-5.8,2.9-8,5.5c-0.1,0.1-0.2,0.1-0.2,0.2c-3.5,3-5.2,7-5.9,11.5c-0.1,0.7-0.1,1.5-0.2,2.2
			c-0.9,4.9-0.8,9.8-0.2,14.8c0.4,2.8,0.3,5.7,0.7,8.5c0.5,3.8,0,7.6,0.9,11.3c0.3,1,0.5,2.1,0.6,3.1c1,6,2.2,12,3.2,18
			c0.6,3.5,1.7,6.9,2.6,10.4c0.5,1.7,1.2,3.3,1.8,5C15.95,226.8,16.45,226.9,16.85,226.9 M110.85,0c-2.5,0-4.7,0.1-6.8,0.2
			c-4.5,0.3-9,1.1-13.1,1.9c-1.9,0.4-3.9,0.9-5.8,1.4c-1,0.3-2.1,0.5-3.1,0.8c-8.8,2.1-17.3,5.4-25.2,9.9c-4.9,2.7-9,6.4-12.2,10.9
			c-0.8,1-1.5,2-2.3,3c-1.7,2.1-3,4.4-4.1,7.2c-2.4,6-4.4,11.9-6.8,19c-0.9,2.7-1.5,5.3-1.7,7.7c-0.3,3.3-0.6,6.7-0.8,9.9
			c-0.1,1.4-0.2,2.8-0.3,4.2c-0.5,5.8-0.2,11.9,0.8,18.9c1,6.9,1.8,14.3-0.3,21.5c-0.4,4.7-2.3,8.7-6.1,12.3
			c-0.2,0.2-0.5,0.4-0.7,0.7c-0.3,0.3-0.6,0.6-0.9,0.9c-0.5,0.4-1.1,0.9-1.7,1.3c-1.7,1-3.6,2.1-5.5,3.1c-2.7,1.5-5.3,3.6-8.1,6.7
			c-2.9,3.2-4.6,7-5,11.2c-0.2,2.7-0.5,4.7-0.8,6.5c-0.6,3.4-0.3,6.7,0,9.2c0.5,4,0.8,8.1,1.1,12.3c0.1,1.1,0.1,2.2,0.2,3.3
			c0.1,1.8,0.1,3.7,0.4,5.5c0.6,4,1.4,8.1,2.1,12c0.3,1.6,0.6,3.2,0.9,4.8c1.1,6.2,2.5,12.2,4.2,17.8l0.1,0.4c0.5,1.8,1,3.3-0.7,4.7
			c-0.2,0.2-0.3,0.5-0.3,0.9c0.1,0.5,0.5,0.9,1,1c0.2,0.1,0.5,0.1,0.7,0.1c0.1,0,0.2,0,0.3-0.1c0.9-0.4,1.8-0.4,2.6-0.4
			c0.4,0,0.7,0,1.1,0c0.3,0,0.6,0,0.9,0s0.6,0,1,0c0.7,0,1.3,0,1.9,0c0.8,0,1.6-0.1,2.4-0.1c1.2-0.1,2.4-0.1,3.6-0.2
			c0.4,0,0.7,0,1.1,0c0.6,0,1.2,0,1.8,0c0.6,0,1.2,0,1.8,0c0.7,0,1.3,0,1.9,0c3.1-0.1,6.2-0.3,9.2-0.5c1.8-0.1,3.5-0.2,5.3-0.3
			c1.2-0.1,2.3-0.1,3.5-0.2c3-0.2,6.1-0.4,9.1-0.4c2.6,0,5.3,0,8.3,0c5.3,0,10.5,0,15.1,0.1c0.8,0,1.6,0,2.3,0c0.8,0,1.7,0,2.5,0
			s1.7,0,2.5,0c4.5,0,8.4,0.1,12.2,0.6c3.4,0.4,6.9,0.5,10.3,0.6c1.5,0,3,0.1,4.5,0.2c2.4,0.1,4.9,0.2,7.3,0.3l6.3,0.3h0.4
			c0.4,0,0.8,0,1.2,0.1c2.7,0.4,5.3,0.8,8,1.2c4.6,0.7,9.4,1.4,14.2,2.1c3.8,0.5,7.6,1,11.3,1.5l1.9,0.2c1.2,0.1,2.4,0.3,3.5,0.4
			c2.2,0.2,4.6,0.5,6.8,0.9c0.9,0.2,1.9,0.4,2.8,0.6c1.5,0.3,3,0.7,4.6,0.9c1.7,0.2,3.4,0.3,5.2,0.3c3.4,0,7-0.4,11.2-1.1
			c1.8-0.3,2.9-1.4,3.3-3.3c0.1-0.5,0.2-1,0.2-1.6c0.1-0.8,0.1-1.6,0.2-2.4c0.1-1.1,0.1-2.2,0.2-3.3c0-0.5,0.1-0.9,0.1-1.4
			c0.1-1.4,0.2-2.9,0.5-4.2c0.3-1.3,0.6-2.7,0.9-4c0.5-2.2,1.1-4.5,1.4-6.8c0-0.2,0.1-0.5,0.2-0.7v-0.1c0.9-3,1.6-6.3,2.1-10.2
			c0.1-1.2,0.3-2.5,0.4-3.7c0.1-1.6,0.3-3.2,0.5-4.7c0.5-3.7,0.4-7.3,0.1-11.7l-0.1-1c-0.1-2.4-0.3-5-0.1-7.4c0.1-0.9,0.1-1.9,0-2.9
			c-0.1-1.1-0.3-2.2-0.5-3.2c-0.1-0.7-0.2-1.4-0.3-2c-0.1-0.8-0.2-1.5-0.3-2.3c-0.2-1.4-0.4-2.8-0.6-4.3c-0.2-1-0.5-2.6-1.1-4
			c-1.5-3.2-3.1-6.7-5.4-9.7c-3-4-6-6.8-9.3-9c-2.3-1.5-4.7-3.1-7-4.6c-1-0.7-2-1.3-3-2c-3.4-2.3-6.4-5.1-9.4-7.9l-0.2-0.2
			c-1.9-1.8-2.9-4.2-3.2-7.2c-0.2-2.8,0-5.7,0.6-9l0.1-0.7c0.6-3.6,1.3-7.2,1.9-10.8c0.1-0.8,0.3-1.6,0.4-2.4
			c0.4-1.9,0.7-3.8,0.9-5.7c0.3-3.4,0.4-6.9,0.5-10.3c0-1.2,0.1-2.4,0.1-3.5c0-0.7,0-1.5,0-2.2c0-0.3,0-0.7,0-1c0,0,0,0,0-0.1
			c0-0.3,0-0.6,0-0.8c0-0.6,0-1.3,0-2c-0.1-1.2-0.1-2.4-0.2-3.6c-0.1-1.9-0.2-3.9-0.3-5.8v-0.4c-0.1-2.1-0.1-4.2-1-6.2
			c-0.1-0.3-0.2-0.6-0.2-0.8c0.2-2.1-0.4-4-0.9-5.9c-0.1-0.3-0.2-0.6-0.3-1c-0.3-0.9-0.5-1.9-0.7-2.7c-0.3-1.4-0.6-2.7-0.9-4.1
			c-0.3-1.6-0.7-3.2-1-4.8c-0.1-0.6-0.3-1.2-0.5-1.9c-2.4-5.6-5.5-10-9.4-13.4c-0.5-0.4-0.9-0.8-1.4-1.2c-1.4-1.3-2.9-2.6-4.4-3.7
			c-3.2-2.5-6.5-4.1-9.8-5c-1.2-0.3-2.5-0.6-4-0.8c-1.3-0.2-2.6-0.4-3.9-0.6c-3.2-0.5-6.6-1.1-9.9-1.2l-2.4-0.1
			C119.15,0.2,114.95,0,110.85,0L110.85,0z M15.65,226.5c-0.2-0.5-0.4-1-0.5-1.4c-0.4-1.1-0.9-2.3-1.2-3.4c-0.2-0.8-0.4-1.6-0.7-2.4
			c-0.7-2.6-1.5-5.2-1.9-7.9c-0.5-2.8-1-5.6-1.5-8.4c-0.6-3.1-1.2-6.4-1.7-9.6c-0.2-1.2-0.4-2.2-0.6-3.1c-0.5-2.2-0.6-4.4-0.6-6.6
			c0-1.5-0.1-3.1-0.3-4.7c-0.2-1.4-0.3-2.8-0.3-4.2c-0.1-1.4-0.2-2.9-0.3-4.3c-0.7-5.3-0.6-10.1,0.2-14.7c0.1-0.4,0.1-0.8,0.1-1.2
			c0-0.3,0-0.7,0.1-1c0.7-4.9,2.6-8.6,5.8-11.4l0,0c0.1-0.1,0.2-0.1,0.2-0.2c2.1-2.6,5.1-4.1,7.9-5.4c4.5-2.1,8.3-5.6,11.6-10.2
			c1.3-1.8,1.7-4.1,2.1-6c0.6-3,1.1-6.1,1.6-9c0.3-2,0.4-3.6,0.2-5.1l-0.1-1.2c-0.3-3.8-0.6-7.8-1.2-11.7c-0.8-4.9-1.1-9.3-0.9-13.5
			c0-1.4,0.2-2.9,0.3-4.3c0.1-1.6,0.3-3.2,0.3-4.8c0.2-6.7,1.8-13.1,3.2-17.9c0.1-0.2,0.1-0.4,0.2-0.6l0.1-0.2
			c0.4-1.2,0.9-2.3,1.3-3.4c0.9-2.4,1.9-5,2.7-7.5c2-6.5,6.2-11.8,10.4-16.6c3.4-3.9,7.7-6.4,11.8-8.7c3.2-1.8,6.8-3,10.2-4.2
			c0.6-0.2,1.2-0.4,1.7-0.6c0.2-0.1,0.4-0.1,0.6-0.2c0.8-0.2,1.6-0.5,2.3-1c0.4-0.3,1-0.5,1.7-0.7c1-0.3,2-0.5,3.1-0.7
			c2.8-0.7,5.7-1.3,8.5-2.3c0.3-0.1,0.6-0.1,0.9-0.1c0.2,0,0.4,0,0.6-0.1c0.3,0,0.6-0.1,0.9-0.1c0.8-0.1,1.7-0.2,2.5-0.4
			c4.1-1,8.2-1.5,12.2-1.5c1.1,0,2.3,0,3.4,0.1c0.3,0,0.5,0,0.8,0c0.2,0,0.3,0,0.5,0c1,0,2.1-0.1,3.2-0.1c2.4,0,4.4,0.1,6.2,0.4
			c0.5,0.1,1.1,0.1,1.8,0.1c0.3,0,0.6,0,0.9,0s0.6,0,0.9,0c0.6,0,1,0,1.4,0.1l1.5,0.2c3.5,0.4,7.2,0.8,10.7,1.5
			c1.6,0.3,3.3,1,4.8,1.7c0.6,0.3,1.3,0.6,1.9,0.8c0.4,0.2,0.9,0.4,1.3,0.8l0.4,0.3c2,1.6,4,3.2,6,4.8c3.4,2.9,5.9,6.2,7.5,10.2
			c0.8,2.1,1.4,4.3,2,6.4c0.2,0.9,0.5,1.7,0.7,2.6c0.3,1,0.5,2,0.8,3c0.2,0.8,0.4,1.7,0.7,2.5c0.9,3.3,1.5,6.4,1.9,9.2
			c0.3,2.1,0.6,5,0.7,7.8c0,0.5-0.1,1.1-0.2,1.7c-0.1,0.7-0.2,1.4-0.1,2.1c0,0.3,0.1,0.6,0.2,1c0.2,0.8,0.3,1.6,0.3,2.4
			c0,1.5,0,3-0.1,4.5c0,2.6-0.1,5.2-0.1,7.8c-0.1,2.3-0.3,4.6-0.4,6.8c-0.1,0.7-0.1,1.4-0.2,2c0,0.3-0.1,0.6-0.2,1
			c0,0.2-0.1,0.4-0.1,0.6c-0.3,1.6-0.6,3.1-1,4.7c-0.8,3.7-1.6,7.6-2.2,11.4c-0.5,3.1-0.8,6.2-0.7,9.2c0.1,4.4,1.9,8.2,5.5,11.5
			c3.3,3,6.9,5.7,11,8.4c2,1.3,4,2.6,6,3.8c1.2,0.7,2.4,1.5,3.6,2.2c0.5,0.3,1,0.7,1.5,1.1c4.4,4.1,7.6,8.6,9.6,13.8
			c1.1,2.7,1.7,5.4,2.1,7.5c0.9,4.7,1.3,9.3,1.1,14c-0.1,3-0.2,6.6,0.3,10.1c0.3,1.8,0.2,3.7-0.1,5.6c-0.3,1.6-0.4,3.2-0.6,4.8
			c-0.1,1.5-0.3,3.1-0.5,4.6c-0.3,1.8-0.6,3.5-1,5.3s-0.8,3.7-1,5.6c-0.4,2.8-1.1,5.6-1.8,8.3c-0.4,1.6-0.8,3.3-1.1,4.9
			c-0.3,1.6-0.5,3.2-0.5,4.8c0,1.5-0.1,3.1-0.2,4.7v0.3c0,0.3-0.1,0.6-0.3,1c-0.1,0.2-0.1,0.3-0.2,0.5c-2.9,0.5-5.7,0.8-8.5,0.8
			c-2.7,0-5.4-0.3-8.1-0.8c-0.7-0.1-1.3-0.3-2-0.4c-2.2-0.4-4.5-0.9-6.7-1.2c-2-0.2-4-0.4-6-0.5c-1.2-0.1-2.5-0.2-3.7-0.3
			c-0.5,0-1-0.1-1.5-0.2c-0.3-0.1-0.6-0.1-1-0.2c-2-0.3-4-0.6-6-0.9c-4.6-0.6-9.3-1.3-13.9-2c-1.1-0.2-2.2-0.4-3.4-0.5
			c-1.7-0.3-3.6-0.6-5.4-0.8c-1.9-0.3-3.8-0.3-5.6-0.4c-0.8,0-1.5-0.1-2.3-0.1c-2.8-0.2-5.6-0.3-8.4-0.5c-2.7-0.2-5.4-0.3-8-0.5
			c-0.5,0-1,0-1.6-0.1c-0.4,0-0.9,0-1.3,0c-2.7-0.1-5.3-0.3-8.5-0.5c-1.5-0.1-3.1-0.2-5-0.2c-1.5,0-3.1,0-4.6,0.1
			c-1.3,0-2.6,0.1-3.9,0.1c-0.2,0-0.4,0-0.6,0.1c-0.2,0-0.3,0.1-0.5,0.1h-0.1c-2.8-0.3-5.8-0.4-9.6-0.4c-1.9,0-3.8,0-5.6,0.1
			c-1.8,0-3.8,0.1-5.6,0.1h-0.6h-0.5c-1.7,0-3.3,0-4.9,0.1c-0.2,0-0.3,0-0.5,0h-0.3h-0.3c-1,0-2,0-3,0.4c-0.2,0.1-0.5,0.1-0.7,0.1
			c-0.1,0-0.2,0-0.3,0h-0.2c-0.3,0-0.6,0-0.9,0c-4.3,0-8.1,0.3-11.7,1c-1.6,0.3-3.2,0.3-4.8,0.3c-0.4,0-0.7,0-1.1,0
			c-3.8,0.1-7.7,0.1-11.5,0.1h-1.7v0.2v-0.8c-0.2,0-0.5,0-0.8-0.1C15.85,226.6,15.75,226.6,15.65,226.5L15.65,226.5z"/>
	</g>
	<g>
		<path d="M115.25,187c-0.7,0-1.4,0-2.1,0c-1.5-0.1-2.9-0.1-4.4-0.1c-2.5-0.1-5.1-0.1-7.6-0.3c-2.3-0.2-4.7-0.7-6.8-1.2
			c-1.8-0.4-3.8-0.6-6.3-0.6c-0.4,0-0.8,0-1.2,0h-0.5c-1.1,0-2.5-0.1-3.9-0.7c-1.2-0.5-2.6-0.8-3.9-1c-5.5-0.9-10.9-1.7-16.2-2.5
			c-1.5-0.2-3.1-0.4-4.6-0.5c-1.7-0.2-3.4-0.3-5.1-0.6c-3.7-0.6-6.9-1.2-9.9-1.9c-3.7-0.9-6.7-3.2-9.3-5.3c-1.7-1.4-2.8-3.3-3.6-4.8
			c-2.1-4.3-3.4-9-3.8-14c-0.3-4.1,1.1-7.7,2.3-10.4c1.5-3.3,3.8-5.8,7.1-7.5l0.9-0.5c2.8-1.5,5.8-3,9.1-3.3c3.7-1.2,7.6-2.1,11.3-3
			c1-0.2,2-0.5,3-0.7c1.7-0.4,3.5-0.7,5.1-1l1.7-0.3c1.2-0.2,2.5-0.4,3.7-0.5c1.8-0.1,3.6-0.2,5.3-0.3c0.7,0,2.2-0.1,2.2-0.1
			c0.1,0,0.1,0.1,0.1,0.1v0.2c0.7,0,1.5-0.1,2.2-0.1c1.7-0.1,3.5-0.2,5.2-0.3c2.8-0.1,5.6-0.1,8.4-0.2c1.6,0,3.2-0.1,4.8-0.1
			c0.8,0,1.5,0,2.3-0.1c1.1,0,2.3-0.1,3.5-0.1h0.6c0.9,0,1.8,0.1,2.7,0.2c1,0.1,2,0.2,3,0.2h0.2c1.8,0,3.7-0.1,5.4-0.2
			c1.4-0.1,2.9-0.2,4.3-0.2c1,0,2.1-0.1,3.1-0.1c1.3,0,2.5,0,3.5,0.1c3.2,0.2,6.5,0.5,9.7,0.8s6.3,0.5,9.5,0.8
			c2.5,0.2,5.1,0.3,7.5,0.3l1.9,0.1c3.2,0.1,6.3,1,8.6,1.7c0.4,0.1,0.8,0.2,1.1,0.3c1.9,0.6,3.9,1.2,5.6,2.3
			c0.3,0.2,0.7,0.3,1.2,0.4c0.3,0.1,0.6,0.2,0.9,0.3c3,1.3,5.4,3.1,7.4,5.4c0.5,0.6,1,1.1,1.4,1.6c0.8,0.9,1.5,1.7,2.3,2.7
			c1.3,1.6,2.2,3.6,2.5,5.8c0.1,0.4,0.2,0.8,0.2,1.3c0.1,0.5,0.2,1,0.3,1.5c0.5,3.3,0.3,6-0.5,8.5l-0.1,0.3
			c-0.3,0.9-0.6,1.8-0.7,2.8c-0.6,3.5-2.5,6.2-4.2,8.4c-1,1.3-2.3,2.4-3.8,3.3c-0.5,0.3-1.1,0.7-1.6,1c-1,0.7-2.1,1.3-3.2,2
			c-1,0.5-1.6,1.1-2,2.1c-0.3,0.8-1.1,1.4-2,1.4c-0.3,0-0.5,0-0.8-0.1c-0.6-0.2-1.2-0.3-1.9-0.3c-0.8,0-1.6,0.1-2.4,0.3
			c-0.4,0.1-0.8,0.1-1.2,0.2l-3.1,0.4c-4.7,0.6-9.6,1.3-14.4,2c-5.5,0.9-11,1.9-16.2,2.8C125.25,186.2,120.25,187,115.25,187z
			 M89.65,180.5c0.3,0.1,0.5,0.1,0.8,0.2l1.8,0.3c2.1,0.4,4.2,0.7,6.2,1.1l0.7,0.1c1.9,0.3,3.9,0.6,5.8,0.8c0.8,0.1,1.6,0.1,2.6,0.1
			c0.7,0,1.4,0,2,0h1.3c0.2,0,0.3-0.1,0.5-0.2c0.1,0,0.1-0.1,0.2-0.1c0-0.1,0-0.1,0-0.2s0.1-0.3,0-0.4c-1.2-3.8-3-7.4-4.4-10
			c-0.5-0.9-1.5-1.7-2.2-2.2c-1.3-0.9-2.7-1.4-4.3-1.4c-1.6,0-3.3,0.5-4.7,0.9c-0.4,0.1-0.8,0.4-1.2,0.9l-0.7,0.9
			c-1.1,1.4-2.3,2.8-3.3,4.3c-0.9,1.4-1.9,2.9-1.7,4.8L89.65,180.5z M128.35,170.4c-0.1,0-0.2,0-0.3,0c-2.5,0.1-5.3,0.7-6.9,3.8
			c-0.8,1.7-1.4,3.5-2,5.2c-0.2,0.6-0.4,1.2-0.6,1.9c-0.1,0.3,0,0.7,0.1,1.1c0,0.1,0.1,0.3,0.1,0.4c4.4-0.1,14.5-1.9,18.4-3.2
			c-1.2-2.7-2.6-5.1-4.5-7.2C131.45,171.1,130.05,170.4,128.35,170.4z M51.95,175.2c0.6,0.1,1.1,0.2,1.6,0.3
			c1.2,0.2,2.3,0.4,3.4,0.5c7.1,0.5,14,1.6,22.2,3.1c0.1,0,0.1,0,0.2,0c0.2,0,0.3,0,0.5-0.1c0.1,0,0.2,0,0.4,0
			c-0.3-0.9-0.6-1.7-1-2.6c-0.7-2-1.4-3.8-2.1-5.7c-1.1-3.2-3-5.9-6-8.3c-1.6-1.3-3.2-2-4.9-2c-1.1,0-2.3,0.3-3.5,0.9
			c-1.4,0.7-2.6,1.5-3.6,2.4l-0.6,0.6c-0.6,0.6-1.3,1.2-1.9,1.8C54.15,168.2,52.75,171,51.95,175.2z M153.95,166.5
			c-1.8,0-3.4,0.7-4.8,2.1c-1.9,1.9-3.4,4.3-4.8,7.6c-0.4,0.9-0.3,1.6,0.2,2.4c3.3,0,6.5-0.6,9.7-1.1c2.6-0.4,5.2-0.9,7.9-1
			c0.6,0,1.1-0.3,1.8-0.5c0.3-0.1,0.7-0.3,1.1-0.4c-0.3-0.5-0.5-0.9-0.8-1.3c-0.5-0.9-1-1.7-1.5-2.4c-1.6-2.6-3.9-4.2-6.9-5
			C155.25,166.6,154.55,166.5,153.95,166.5z M65.25,156.8c3.8,0,6.7,0.8,9,2.4c4,2.9,6.4,5.8,7.7,9.4c0.5,1.3,1,2.7,1.6,4.1
			c0.1,0.3,0.2,0.6,0.3,0.9c0.2,0.6,0.4,1.3,0.9,1.8c0.1,0,0.1-0.1,0.2-0.1c0.1-0.1,0.2-0.1,0.3-0.2c0.7-1.5,1.8-2.9,2.8-4.1
			c0.5-0.6,1-1.2,1.4-1.8c1.4-1.9,3.3-3.1,5.9-3.6c1.2-0.3,2.4-0.4,3.6-0.5c0.6-0.1,1.1-0.1,1.7-0.2c0.4-0.1,0.8-0.1,1.2-0.1
			c1.5,0,3,0.4,4.7,1.2c2.4,1.2,5.1,2.8,6.4,5.9c0.3,0.6,0.6,1.3,1,2c0.2,0.3,0.4,0.7,0.7,1.1c0.1,0.1,0.2,0.3,0.3,0.5l0.3-0.5
			c0.2-0.4,0.5-0.8,0.7-1.1c0.2-0.3,0.4-0.7,0.6-1c0.5-0.9,1.1-1.9,1.8-2.7c0.6-0.8,1.5-1.4,2.3-1.7c2.9-1.1,5.6-1.6,8.2-1.6
			c0.6,0,1.2,0,1.8,0.1c1.9,0.2,3.6,0.9,5,2.1c1,0.9,1.9,1.9,2.7,2.8c0.4,0.4,0.8,0.9,1.2,1.3c0.1,0.1,0.2,0.2,0.2,0.4
			c0.2,0.3,0.3,0.5,0.7,0.5l0.5-0.9c0.4-0.7,0.8-1.3,1.2-2c3.2-5.7,4-6.3,10.5-7.6c0.8-0.2,1.7-0.3,2.5-0.3c3.7,0,6.8,1.8,9.4,3.5
			c0.3,0.2,0.5,0.5,0.7,0.7c0.7,0.9,1.3,1.7,2,2.6c0.6,0.8,1.2,1.6,1.9,2.4c0.2,0.3,0.5,0.6,0.8,1l0.4,0.4c0.5-0.3,1-0.6,1.5-0.9
			c1.3-0.7,2.5-1.4,3.6-2.2c1-0.7,1.8-1.6,2.5-2.4c1.9-2.3,3.2-5.1,4.1-8.7c1.2-4.6,0.8-9.3-1.1-14.1c-0.7-1.7-1.8-3.2-3.6-4.7
			c-0.1,0-0.1,0.1-0.2,0.1l-0.1,0.1c0,0.3,0,0.6-0.1,0.9c0,0.4-0.1,0.8-0.1,1.3c0,0.1,0,0.3,0,0.4c0,0.5-0.1,1-0.3,1.5
			c-2.2,4.7-5.3,7.9-9.3,9.5c-1.4,0.6-2.7,0.8-3.9,0.8c-1.7,0-3.2-0.5-4.6-1.6c-1.5-1.2-3-2.4-4.4-3.6l-1.4-1.2
			c-0.4-0.3-0.7-0.6-1.1-1c-0.2-0.2-0.3-0.3-0.5-0.5l-1.1,1.5c-2.4,3.4-5.6,5.2-9.6,5.2c-0.2,0-0.5,0-0.7,0c-1.7-0.1-3.4-0.5-5-0.9
			c-4-1.1-7.1-3.4-9.1-7c-0.2-0.3-0.4-0.7-0.7-1.1l-0.4-0.6c-0.3,0.5-0.6,1-0.8,1.5c-0.6,1.1-1.2,2.1-1.7,3.1
			c-2.2,3.6-5.2,5.7-8.9,6.2c-0.7,0.1-1.5,0.1-2.2,0.1c-3.3,0-6.4-1-9.3-3s-5.1-4.7-6.8-8.2c-0.1-0.2-0.3-0.4-0.4-0.6
			c-0.1-0.1-0.1-0.2-0.2-0.3l-0.3,0.6c-0.2,0.4-0.4,0.8-0.6,1.2c-0.2,0.3-0.3,0.6-0.5,0.9c-0.8,1.4-1.6,2.9-2.9,4
			c-2.8,2.3-5.8,3.4-9,3.4c-1.4,0-2.9-0.2-4.4-0.7c-0.9-0.3-1.8-0.7-2.7-1.1c-0.5-0.2-0.9-0.4-1.4-0.6c-2.8-1.2-4.7-3-5.8-5.6
			c0-0.1-0.1-0.1-0.2-0.2h-0.1c-0.2,0.2-0.3,0.3-0.5,0.5c-0.4,0.4-0.8,0.8-1.1,1.3c-0.8,1.6-2,2.7-3.2,3.9c-0.2,0.2-0.5,0.5-0.7,0.7
			c-2.1,2.1-4.2,3.3-6.5,3.7c-1.2,0.2-2.4,0.4-3.5,0.4c-2.9,0-5.3-0.8-7.4-2.5c-4.2-3.3-5.9-7.2-5.1-11.9v-0.2
			c0.1-0.3,0.1-0.6-0.3-0.8c0,0-0.1,0-0.2,0.1c-0.2,0.1-0.4,0.2-0.5,0.3c-2.6,2-3.8,4.8-4.9,7.5c-0.8,2.1-1.5,4.6-0.7,7.3
			c0.5,1.8,0.9,3.7,1.2,5.5l0.2,1c0.4,2.2,1.4,4.3,3,6.5c2.7,3.6,6.1,5.6,10.4,6.2l0.3-0.9c0.2-0.7,0.5-1.4,0.7-2.1
			c0.8-2.1,1.9-4.5,4-6.4l0.5-0.5c2.1-1.9,4.2-3.8,6.6-5.3C60.95,157.5,63.15,156.8,65.25,156.8L65.25,156.8z M62.65,131.3
			c-2.2,0.2-4.1,0.4-5.2,2.5l-0.1,0.1c-0.4,0-0.8,0.1-1.1,0.1c-0.7,0-1.2,0.1-1.7,0.2c-3,0.7-6.1,1.4-9.3,1.8
			c-0.8,0.1-1.4,0.6-1.6,1.5c-0.4,1.6-0.4,3.2-0.4,4.8c0,0.6,0,1.2,0,1.8c-0.1,2.6,1.3,4.4,3.3,6.4c1,0.9,2.4,1.4,4,1.4
			s3.2-0.5,4.2-1.4c2.8-2.3,5.2-5.1,7-8.3c0.4-0.8,0.7-1.7,0.8-2.6v-1c0.1-1.4,0.1-2.9,0.4-4.3c0.1-0.6,0.1-1.2,0.1-1.9
			c0-0.3,0-0.6,0-0.9L62.65,131.3z M155.15,131.9c-0.6,3.2-0.8,6.5-0.7,10.3c0,0.9,0.3,1.8,0.8,2.6c1.6,2.5,3.8,4.3,6.2,6.2
			c0.4,0.3,0.9,0.5,1.4,0.5c0.4,0,0.8-0.1,1.2-0.3c3.3-1.4,5.7-3.6,7.2-6.6c0.4-0.8,0.6-1.5,0.6-2.1c0-1.6,0-3.2-0.1-4.7
			c0-0.6,0-1.2,0-1.8c-0.1,0-0.1-0.1-0.2-0.2s-0.2-0.2-0.3-0.3c-3.7-2-7.3-3.3-10.9-4c-0.8-0.2-1.5-0.2-2.2-0.2
			C156.95,131.4,156.05,131.6,155.15,131.9z M98.05,129.2l-0.1,0.1c-0.1,0.1-0.1,0.1-0.3,0.2c0,0,0,0.2,0,0.3
			c-0.1,0.3-0.1,0.8-0.1,1.2c0.1,0.8,0.2,1.7,0.3,2.5c0.1,0.9,0.2,1.8,0.3,2.8c0.3,3.7,1.8,7.2,4.7,11.1c0.5,0.7,1.3,1.3,2.1,1.8
			c0.9,0.5,1.9,0.9,2.9,1.3l0.8,0.3c0.7,0.3,1.5,0.5,2.2,0.5c1.4,0,2.8-0.6,4-1.9c1.1-1.2,2.1-2.5,2.9-4c2.5-4.4,3.8-9.6,3.9-15.6
			c0-0.1-0.1-0.2-0.1-0.3c0,0-0.1-0.1-0.1-0.2h-2.9c-0.6,0-1.3,0-1.9,0c-0.8,0-1.6,0-2.4,0.1c-0.9,0-1.8,0.1-2.7,0.1
			c-0.9,0-1.7,0-2.5-0.1c-1.2-0.1-2.5-0.2-4.1-0.2c-1.1,0-2.3,0-3.4,0.1C100.35,129.2,99.25,129.2,98.05,129.2L98.05,129.2z
			 M127.95,129.6c-0.3,5.1,0.1,8.3,1.5,12.2c0.5,1.5,1.2,2.9,2,4.2c1.5,2.4,4.2,3.3,6.5,3.9c0.5,0.1,1,0.2,1.5,0.2
			c1.4,0,2.7-0.5,3.9-1.6c2.8-2.6,4.5-6,5-10.1c0.1-0.7,0.1-1.5,0.1-2.3c0-0.5,0-1,0-1.5c0-0.8,0.1-1.7,0.2-2.6l0.1-1.1l-1.7-0.2
			c-6.3-0.7-12.2-1.3-18.3-1.4v-0.1v0.1c-0.2,0-0.3,0.1-0.5,0.2C128.25,129.5,128.15,129.6,127.95,129.6z M68.85,130.3
			c-0.1,4.4,1.1,8.3,2.1,12.1l0.1,0.4c0.7,2.5,2.3,4.3,4.6,5.1c0.3,0.1,0.5,0.2,0.8,0.4c0.2,0.1,0.4,0.2,0.6,0.3
			c1,0.4,2.1,0.6,3,0.6l0,0c1.8,0,3.5-0.8,4.9-2.2c0.8-0.8,1.4-1.6,1.9-2.5c2.4-4.6,3.7-8.9,4-13.4c0-0.4-0.1-0.8-0.2-1.1
			c0-0.1-0.1-0.3-0.1-0.4h-4.8c-4.5,0-8.7,0-13,0.1c-0.9,0-1.8,0.2-2.8,0.4C69.85,130.1,69.35,130.2,68.85,130.3z"/>
		<path d="M123.85,125.2c1.2,0,2.3,0,3.5,0.1c6.4,0.5,12.8,1.1,19.2,1.5c3.1,0.2,6.3,0.3,9.4,0.4c3,0.1,5.8,0.8,8.6,1.7
			c2.3,0.7,4.7,1.3,6.7,2.7c0.6,0.4,1.4,0.4,2.1,0.7c2.8,1.2,5.3,3,7.3,5.4c1.2,1.4,2.5,2.8,3.7,4.3c1.4,1.7,2.2,3.6,2.5,5.7
			c0.2,0.9,0.4,1.9,0.5,2.8c0.4,2.8,0.4,5.7-0.5,8.4c-0.3,1-0.7,2-0.8,3c-0.5,3.2-2.2,5.9-4.2,8.4c-1,1.3-2.3,2.4-3.8,3.3
			c-1.6,1-3.2,2.1-4.8,3c-1,0.5-1.7,1.1-2.1,2.2c-0.3,0.8-1.1,1.3-1.9,1.3c-0.3,0-0.5,0-0.8-0.1c-0.7-0.2-1.3-0.3-2-0.3
			c-1.2,0-2.4,0.3-3.6,0.5c-5.8,0.8-11.7,1.5-17.5,2.5c-5.4,0.8-10.8,1.8-16.2,2.8c-4.7,0.9-9.4,1.6-14.2,1.6c-0.7,0-1.4,0-2.1,0
			c-4-0.2-8-0.2-12-0.5c-2.3-0.2-4.6-0.7-6.8-1.2c-2.1-0.5-4.2-0.6-6.3-0.6c-0.4,0-0.8,0-1.2,0c-0.2,0-0.3,0-0.5,0
			c-1.3,0-2.6-0.1-3.8-0.7c-1.2-0.5-2.6-0.8-4-1c-5.4-0.9-10.8-1.7-16.2-2.5c-3.2-0.4-6.5-0.6-9.7-1.1c-3.3-0.5-6.6-1.1-9.9-1.9
			c-3.5-0.9-6.5-3-9.3-5.3c-1.6-1.3-2.7-3-3.5-4.8c-2.2-4.4-3.4-9-3.8-13.9c-0.3-3.7,0.8-7.1,2.3-10.4c1.5-3.3,3.8-5.7,7-7.4
			c3.2-1.7,6.3-3.5,10-3.8c4.7-1.6,9.5-2.6,14.3-3.7c2.1-0.5,4.3-0.8,6.5-1.2c1.3-0.2,2.7-0.5,4.1-0.6c2.5-0.2,5-0.3,7.5-0.4
			c0,0.1,0,0.2,0,0.3c2.5-0.1,5-0.3,7.6-0.4c4.4-0.1,8.8-0.2,13.3-0.3c1.9,0,3.8-0.2,5.7-0.2c0.2,0,0.4,0,0.6,0
			c1.9,0,3.8,0.3,5.7,0.3c0.1,0,0.2,0,0.3,0c3.3,0,6.5-0.3,9.8-0.4C121.75,125.2,122.75,125.2,123.85,125.2 M98.15,129.1h-0.1l0,0
			c-0.1,0-0.2,0.1-0.5,0.4c0,0.4-0.2,1-0.2,1.6c0.2,1.8,0.5,3.5,0.6,5.3c0.4,4.2,2.2,7.8,4.7,11.1c0.5,0.7,1.3,1.4,2.1,1.8
			c1.2,0.7,2.5,1.1,3.7,1.6c0.8,0.3,1.5,0.5,2.2,0.5c1.5,0,2.9-0.7,4.1-2c1.1-1.2,2.1-2.6,3-4c2.7-4.9,3.8-10.2,3.9-15.7
			c0-0.2-0.2-0.4-0.3-0.6c-1,0-2,0-3.1,0c-0.6,0-1.3,0-1.9,0c-1.7,0-3.4,0.1-5.1,0.1c-0.8,0-1.6,0-2.5-0.1c-1.4-0.2-2.7-0.2-4.1-0.2
			C102.65,128.9,100.35,129.1,98.15,129.1 M139.55,150.2c1.5,0,2.8-0.6,4-1.6c3-2.7,4.6-6.2,5.1-10.2c0.2-1.2,0-2.5,0.1-3.8
			c0.1-1.2,0.2-2.4,0.3-3.8c-6.8-0.7-13.4-1.5-20.1-1.6l0,0c-0.3,0-0.6,0.2-1,0.4c-0.3,5,0.1,8.3,1.5,12.3c0.5,1.5,1.2,2.9,2,4.2
			c1.5,2.4,4,3.2,6.6,3.9C138.55,150.2,139.05,150.2,139.55,150.2 M80.25,149.3c1.8,0,3.5-0.8,5-2.3c0.7-0.7,1.4-1.6,1.9-2.5
			c2.2-4.2,3.7-8.7,4-13.5c0-0.6-0.2-1.1-0.3-1.7c-6.1,0-12,0-17.8,0.1c-1.3,0-2.7,0.4-4.2,0.6c-0.1,4.6,1.1,8.7,2.2,12.7
			c0.7,2.4,2.2,4.3,4.7,5.2c0.5,0.2,0.9,0.5,1.4,0.7C78.25,149.1,79.25,149.3,80.25,149.3 M50.45,151.9c1.6,0,3.2-0.5,4.3-1.4
			c2.9-2.4,5.2-5.2,7.1-8.4c0.5-0.8,0.7-1.8,0.8-2.7c0.1-1.8,0.1-3.6,0.5-5.3c0.2-0.9,0-1.8,0-3c-2.4,0.2-4.6,0.3-5.8,2.6
			c-1.2,0.1-2.1,0.1-2.9,0.3c-3.1,0.7-6.1,1.4-9.3,1.8c-0.9,0.1-1.5,0.7-1.7,1.6c-0.6,2.2-0.4,4.4-0.4,6.6c-0.1,2.8,1.4,4.7,3.3,6.5
			C47.45,151.4,48.95,151.9,50.45,151.9 M162.75,151.6c0.4,0,0.8-0.1,1.2-0.3c3.2-1.3,5.7-3.5,7.2-6.7c0.3-0.7,0.6-1.4,0.6-2.1
			c0-2.2-0.1-4.4-0.1-6.5c-0.2-0.3-0.4-0.5-0.5-0.5c-3.5-1.8-7.1-3.2-10.9-4c-0.8-0.1-1.5-0.2-2.3-0.2c-1,0-2,0.2-3,0.6
			c-0.7,3.5-0.9,6.9-0.7,10.4c0,1,0.3,1.8,0.9,2.7c1.6,2.5,3.9,4.4,6.2,6.2C161.75,151.4,162.25,151.6,162.75,151.6 M46.55,174.2
			c0.4-1.1,0.7-2,1.1-3c0.9-2.4,2.1-4.6,4-6.4c2.3-2,4.5-4.1,7.1-5.7c2-1.2,4.2-2.2,6.5-2.2c0,0,0,0,0.1,0c3.1,0,6.3,0.5,8.9,2.4
			c3.4,2.4,6.2,5.3,7.7,9.3c0.5,1.4,1,2.8,1.6,4.1c0.4,0.9,0.5,2,1.3,2.8c0.3-0.2,0.5-0.2,0.6-0.4c1-2.2,2.8-4,4.2-5.9
			c1.4-2,3.4-3.1,5.8-3.6c1.7-0.4,3.5-0.5,5.3-0.8c0.4-0.1,0.8-0.1,1.2-0.1c1.6,0,3.1,0.5,4.6,1.2c2.7,1.3,5.1,3,6.3,5.9
			c0.3,0.7,0.6,1.3,1,2c0.3,0.5,0.6,1,1.1,1.7c0.4-0.8,0.7-1.3,1.1-1.8c0.8-1.3,1.5-2.6,2.4-3.7c0.6-0.7,1.4-1.4,2.2-1.7
			c2.6-1,5.4-1.6,8.2-1.6c0.6,0,1.2,0,1.7,0.1c1.8,0.2,3.5,0.8,4.9,2c1.4,1.3,2.6,2.7,3.9,4.1c0.3,0.3,0.4,0.9,1,0.9h0.1
			c0.6-1,1.2-2,1.7-3c3.2-5.7,4.1-6.2,10.4-7.6c0.8-0.2,1.7-0.3,2.5-0.3c3.4,0,6.4,1.5,9.3,3.5c0.3,0.2,0.5,0.4,0.7,0.7
			c1.3,1.7,2.6,3.3,3.9,5c0.4,0.5,0.8,0.9,1.2,1.5c1.8-1.1,3.6-2,5.2-3.2c0.9-0.6,1.7-1.5,2.5-2.4c2.1-2.6,3.4-5.6,4.2-8.8
			c1.2-4.9,0.7-9.6-1.1-14.2c-0.8-2-2.1-3.5-3.8-4.8c-0.2,0.2-0.4,0.2-0.4,0.3c-0.1,0.7-0.1,1.5-0.2,2.2c-0.1,0.6-0.1,1.3-0.3,1.8
			c-2,4.2-4.8,7.6-9.3,9.4c-1.3,0.5-2.6,0.8-3.9,0.8c-1.6,0-3.1-0.5-4.5-1.6c-2-1.5-3.9-3.2-5.8-4.8c-0.6-0.5-1.1-1-1.7-1.6
			c-0.5,0.7-0.8,1.2-1.2,1.6c-2.4,3.4-5.6,5.1-9.5,5.1c-0.2,0-0.5,0-0.7,0c-1.7-0.1-3.3-0.5-4.9-0.9c-3.9-1-7-3.3-9-6.9
			c-0.3-0.5-0.6-1.1-1.2-2c-1,1.8-1.8,3.3-2.7,4.7c-2,3.3-4.9,5.6-8.8,6.1c-0.7,0.1-1.5,0.1-2.2,0.1c-3.3,0-6.4-1-9.2-3
			c-3-2.1-5.2-4.9-6.8-8.1c-0.2-0.3-0.4-0.6-0.8-1.1c-0.4,0.8-0.7,1.3-1,1.9c-1,1.7-1.8,3.6-3.4,4.9c-2.7,2.2-5.7,3.4-8.9,3.4
			c-1.4,0-2.9-0.2-4.4-0.7c-1.4-0.4-2.7-1.1-4.1-1.7c-2.6-1.1-4.6-2.9-5.8-5.5c-0.1-0.1-0.3-0.2-0.5-0.3c-0.6,0.6-1.3,1.1-1.7,1.9
			c-0.9,1.9-2.5,3.1-3.9,4.5c-1.8,1.8-3.9,3.2-6.5,3.7c-1.2,0.2-2.3,0.4-3.4,0.4c-2.6,0-5.1-0.7-7.3-2.5c-3.8-3-5.9-6.8-5.1-11.8
			c0.1-0.4,0.3-0.8-0.4-1.1c-0.2,0.1-0.5,0.2-0.7,0.4c-2.5,2-3.8,4.7-4.9,7.6c-0.9,2.4-1.4,4.8-0.7,7.4c0.6,2.1,1,4.3,1.4,6.5
			c0.5,2.4,1.6,4.6,3.1,6.5C38.55,171.5,41.95,173.6,46.55,174.2 M79.45,179.2c0.3,0,0.6-0.1,1.1-0.1c-1.1-2.9-2.2-5.7-3.1-8.4
			c-1.2-3.4-3.3-6.1-6-8.4c-1.6-1.3-3.2-2-5-2c-1.1,0-2.3,0.3-3.5,0.9c-1.3,0.7-2.6,1.4-3.7,2.4c-0.8,0.8-1.7,1.6-2.6,2.3
			c-2.8,2.3-4.2,5.4-4.8,9.3c1.9,0.3,3.5,0.7,5.2,0.8c7.5,0.5,14.8,1.7,22.2,3.1C79.25,179.2,79.35,179.2,79.45,179.2 M144.55,178.8
			c5.9-0.1,11.7-1.8,17.7-2.2c0.9-0.1,1.7-0.6,3.1-1c-0.9-1.6-1.6-2.7-2.3-3.9c-1.6-2.6-3.9-4.2-6.9-5c-0.7-0.2-1.4-0.3-2.1-0.3
			c-1.9,0-3.5,0.7-4.8,2.1c-2.2,2.2-3.6,4.9-4.8,7.7C143.95,177,143.85,177.9,144.55,178.8 M107.65,183.1c1.1,0,2.2,0,3.3,0
			c0.3,0,0.5-0.2,0.8-0.3c0-0.3,0.1-0.5,0.1-0.7c-1.1-3.5-2.7-6.8-4.4-10.1c-0.5-0.9-1.4-1.6-2.2-2.2c-1.4-1-2.9-1.4-4.4-1.4
			s-3.1,0.4-4.7,0.9c-0.5,0.1-0.9,0.6-1.2,1c-1.4,1.7-2.8,3.4-4.1,5.2c-1,1.4-1.9,3-1.7,5c0.5,0.1,0.9,0.2,1.3,0.3
			c2.7,0.5,5.4,0.9,8.1,1.4c2.2,0.3,4.4,0.7,6.6,0.9C105.95,183.1,106.85,183.1,107.65,183.1 M118.65,183c4.3-0.1,14.8-1.9,18.7-3.3
			c-1.2-2.8-2.7-5.2-4.6-7.3c-1.2-1.4-2.7-2.1-4.4-2.1c-0.1,0-0.2,0-0.3,0c-2.9,0.2-5.5,1-7,3.9c-1.1,2.3-1.8,4.7-2.6,7.1
			C118.25,181.8,118.55,182.4,118.65,183 M123.85,125c-1.1,0-2.3,0-3.1,0.1c-1.4,0-2.9,0.1-4.3,0.2c-1.8,0.1-3.6,0.2-5.4,0.2h-0.2
			c-1,0-2-0.1-3-0.2c-0.9-0.1-1.8-0.2-2.7-0.2c-0.2,0-0.4,0-0.6,0c-1.2,0-2.3,0-3.5,0.1c-0.8,0-1.5,0.1-2.3,0.1
			c-1.6,0-3.2,0.1-4.9,0.1c-2.8,0.1-5.6,0.1-8.4,0.2c-1.7,0.1-3.5,0.2-5.2,0.3c-0.7,0-1.4,0.1-2.1,0.1l0,0c0-0.1-0.1-0.3-0.3-0.3
			l0,0c-0.7,0-1.5,0.1-2.2,0.1c-1.7,0.1-3.6,0.2-5.3,0.3c-1.2,0.1-2.5,0.3-3.7,0.5l-0.4,0.1c-0.5,0.1-0.9,0.2-1.4,0.2
			c-1.7,0.3-3.5,0.6-5.2,1c-1,0.2-2,0.5-3,0.7c-3.7,0.9-7.6,1.8-11.4,3c-3.4,0.3-6.3,1.8-9.1,3.3l-0.9,0.5c-3.3,1.7-5.6,4.2-7.1,7.5
			c-1.2,2.7-2.6,6.4-2.3,10.5c0.4,5,1.6,9.7,3.8,14c0.8,1.5,1.9,3.5,3.6,4.9c2.6,2.1,5.6,4.4,9.4,5.3c3,0.7,6.2,1.4,9.9,1.9
			c1.7,0.3,3.5,0.4,5.1,0.6c1.5,0.1,3.1,0.3,4.6,0.5c5.4,0.7,10.7,1.6,16.2,2.5c1.3,0.2,2.7,0.4,3.9,1c1.4,0.6,2.8,0.7,3.9,0.7
			c0.2,0,0.3,0,0.5,0c0.4,0,0.8,0,1.2,0c2.5,0,4.5,0.2,6.3,0.6c2.1,0.5,4.5,1,6.9,1.2c2.5,0.2,5.1,0.3,7.6,0.3
			c1.4,0,2.9,0.1,4.4,0.2c0.7,0,1.4,0,2.1,0c5,0,10-0.8,14.2-1.6c5.2-1,10.7-2,16.2-2.8c4.8-0.7,9.7-1.4,14.4-2l3.1-0.4
			c0.4-0.1,0.8-0.1,1.2-0.2c0.8-0.1,1.6-0.3,2.4-0.3c0.7,0,1.3,0.1,1.9,0.3c0.3,0.1,0.6,0.1,0.8,0.1c1,0,1.8-0.6,2.1-1.4
			c0.4-1,1-1.5,2-2c1.1-0.6,2.2-1.3,3.2-2c0.5-0.3,1.1-0.7,1.6-1c1.5-0.9,2.8-2.1,3.8-3.4c1.8-2.2,3.6-5,4.2-8.5
			c0.2-0.9,0.5-1.8,0.7-2.7l0.1-0.3c0.8-2.5,1-5.2,0.5-8.5c-0.1-0.5-0.2-1-0.3-1.5c-0.1-0.4-0.2-0.8-0.2-1.2
			c-0.4-2.2-1.2-4.2-2.6-5.8c-0.7-0.9-1.5-1.8-2.3-2.6c-0.5-0.5-1-1.1-1.4-1.6c-2-2.3-4.5-4.1-7.4-5.4c-0.3-0.1-0.6-0.2-0.9-0.3
			c-0.4-0.1-0.8-0.2-1.1-0.4c-1.7-1.2-3.7-1.8-5.6-2.3c-0.4-0.1-0.8-0.2-1.1-0.3c-2.3-0.7-5.4-1.6-8.7-1.7c-0.6,0-1.3,0-1.9-0.1
			c-2.5-0.1-5-0.1-7.5-0.3c-3.2-0.2-6.4-0.5-9.5-0.8c-3.2-0.3-6.5-0.5-9.7-0.8C126.25,125,125.15,125,123.85,125L123.85,125z
			 M98.15,129.3c1.1,0,2.3,0,3.4-0.1c1.1,0,2.3-0.1,3.4-0.1c1.6,0,2.9,0.1,4.1,0.2c0.7,0.1,1.6,0.1,2.5,0.1s1.8,0,2.7-0.1
			c0.8,0,1.6-0.1,2.4-0.1c0.6,0,1.3,0,1.9,0h1.5h1.4c0,0,0,0.1,0.1,0.1c0.1,0.1,0.1,0.2,0.1,0.2c-0.1,6.1-1.4,11.1-3.9,15.6
			c-0.8,1.5-1.8,2.8-2.9,4c-1.2,1.2-2.5,1.9-3.9,1.9c-0.7,0-1.4-0.2-2.1-0.4c-0.3-0.1-0.5-0.2-0.8-0.3c-1-0.4-2-0.8-2.9-1.3
			c-0.8-0.5-1.5-1.1-2-1.7c-2.9-3.8-4.4-7.3-4.7-11c-0.1-0.9-0.2-1.9-0.3-2.8c-0.1-0.8-0.2-1.7-0.3-2.5c0-0.4,0-0.8,0.1-1.1
			c0-0.1,0-0.2,0-0.3c0.1-0.1,0.1-0.1,0.2-0.2C98.05,129.4,98.05,129.3,98.15,129.3L98.15,129.3L98.15,129.3z M98.05,129.3
			L98.05,129.3L98.05,129.3L98.05,129.3z M128.15,129.7c0.1,0,0.2-0.1,0.2-0.1c0.2-0.1,0.4-0.2,0.5-0.2c6.1,0.1,12,0.7,18.3,1.4
			l1.6,0.2c0,0.3-0.1,0.7-0.1,1c-0.1,0.9-0.1,1.7-0.2,2.6c0,0.5,0,1,0,1.5c0,0.7,0,1.5-0.1,2.3c-0.5,4.1-2.2,7.5-5,10.1
			c-1.1,1-2.4,1.6-3.8,1.6c-0.5,0-1-0.1-1.5-0.2c-2.3-0.6-4.9-1.4-6.4-3.8c-0.8-1.3-1.5-2.7-2-4.2
			C128.25,137.9,127.85,134.7,128.15,129.7L128.15,129.7z M69.05,130.4c0.4-0.1,0.8-0.1,1.2-0.2c1-0.2,1.8-0.3,2.7-0.4
			c4.3-0.1,8.5-0.1,13-0.1c1.5,0,3.1,0,4.6,0c0,0.1,0.1,0.2,0.1,0.3c0.1,0.4,0.2,0.7,0.2,1.1c-0.3,4.5-1.6,8.8-4,13.4
			c-0.4,0.8-1.1,1.7-1.8,2.4c-1.4,1.5-3.1,2.2-4.8,2.2c-0.9,0-1.9-0.2-3-0.6c-0.2-0.1-0.4-0.2-0.6-0.3c-0.3-0.1-0.5-0.3-0.8-0.4
			c-2.3-0.8-3.8-2.5-4.5-5l-0.1-0.4C70.05,138.6,68.95,134.7,69.05,130.4L69.05,130.4z M50.45,151.6c-1.6,0-3-0.5-3.9-1.4
			c-2-1.9-3.3-3.7-3.2-6.3c0-0.6,0-1.2,0-1.7c0-1.6,0-3.2,0.4-4.8c0.2-0.9,0.7-1.3,1.5-1.4c3.2-0.3,6.2-1,9.3-1.8
			c0.5-0.1,1-0.1,1.7-0.2c0.3,0,0.7,0,1.1-0.1c0.1,0,0.2-0.1,0.2-0.1c1.1-2,3-2.2,5.1-2.4h0.2c0,0.3,0,0.5,0,0.8
			c0,0.7,0.1,1.3-0.1,1.9c-0.3,1.5-0.4,2.9-0.4,4.3c0,0.3,0,0.7,0,1c0,0.9-0.3,1.8-0.8,2.5c-1.9,3.2-4.2,6-7,8.3
			C53.55,151.1,52.05,151.6,50.45,151.6L50.45,151.6z M155.25,132c0.9-0.3,1.8-0.5,2.8-0.5c0.7,0,1.4,0.1,2.2,0.2
			c3.6,0.7,7.1,2,10.8,4c0.1,0,0.1,0.1,0.2,0.2c0,0.1,0.1,0.1,0.2,0.2c0,0.5,0,1.1,0,1.7c0,1.5,0.1,3.1,0.1,4.7c0,0.6-0.2,1.3-0.6,2
			c-1.4,3-3.8,5.2-7.1,6.6c-0.4,0.2-0.8,0.2-1.1,0.2c-0.5,0-0.9-0.2-1.3-0.5c-2.3-1.8-4.5-3.7-6.1-6.1c-0.5-0.8-0.8-1.6-0.8-2.5
			C154.35,138.5,154.65,135.2,155.25,132L155.25,132z M46.35,174c-4.2-0.6-7.6-2.6-10.2-6.2c-1.6-2.2-2.6-4.3-3-6.4l-0.2-1
			c-0.3-1.8-0.7-3.7-1.2-5.5c-0.8-2.7-0.1-5.2,0.7-7.3c1-2.7,2.3-5.5,4.8-7.5c0.1-0.1,0.3-0.2,0.5-0.3h0.1c0.3,0.1,0.2,0.3,0.2,0.6
			c0,0.1,0,0.1,0,0.2c-0.8,4.7,0.9,8.7,5.1,12c2.2,1.7,4.6,2.5,7.5,2.5c1.1,0,2.2-0.1,3.5-0.4c2.4-0.5,4.5-1.7,6.6-3.8
			c0.2-0.2,0.5-0.5,0.7-0.7c1.2-1.1,2.4-2.3,3.2-3.9c0.2-0.5,0.6-0.8,1-1.2c0.2-0.1,0.3-0.3,0.4-0.4l0,0c0.1,0,0.2,0.1,0.2,0.1
			c1.1,2.6,3,4.5,5.9,5.7c0.5,0.2,0.9,0.4,1.4,0.6c0.9,0.4,1.8,0.8,2.7,1.1c1.5,0.5,3,0.7,4.5,0.7c3.2,0,6.2-1.2,9.1-3.4
			c1.3-1.1,2.2-2.6,3-4c0.2-0.3,0.3-0.6,0.5-0.9c0.2-0.4,0.4-0.7,0.6-1.2c0.1-0.1,0.1-0.2,0.2-0.4l0.1,0.1c0.2,0.2,0.3,0.4,0.4,0.6
			c1.7,3.5,4,6.2,6.9,8.2s6,3,9.3,3c0.7,0,1.5,0,2.2-0.1c3.7-0.5,6.7-2.6,8.9-6.2c0.6-1,1.1-1.9,1.7-3.1c0.2-0.4,0.5-0.9,0.7-1.3
			l0.3,0.4c0.3,0.4,0.5,0.8,0.7,1.1c2,3.6,5.1,6,9.2,7c1.6,0.4,3.3,0.8,5,0.9c0.2,0,0.5,0,0.7,0c4.1,0,7.3-1.8,9.8-5.2l0.7-1
			l0.3-0.4c0.1,0.1,0.3,0.3,0.4,0.4c0.4,0.4,0.7,0.7,1.1,1c0.5,0.4,0.9,0.8,1.4,1.2c1.4,1.2,2.9,2.5,4.4,3.6c1.4,1.1,3,1.6,4.7,1.6
			c1.2,0,2.6-0.3,4-0.9c4.1-1.7,7.2-4.8,9.4-9.6c0.2-0.5,0.3-1,0.3-1.5c0-0.1,0-0.3,0-0.4c0.1-0.4,0.1-0.8,0.1-1.3
			c0-0.3,0-0.6,0.1-0.8l0,0c0,0,0.1,0,0.1-0.1c1.8,1.5,2.9,2.9,3.5,4.6c1.9,4.9,2.2,9.5,1.1,14.1c-0.9,3.6-2.2,6.4-4.1,8.7
			c-0.6,0.7-1.5,1.7-2.4,2.4c-1.1,0.8-2.3,1.5-3.6,2.2c-0.5,0.3-1,0.6-1.5,0.9c-0.1-0.1-0.2-0.2-0.3-0.3c-0.3-0.3-0.5-0.6-0.8-1
			c-0.6-0.8-1.2-1.6-1.9-2.4c-0.7-0.9-1.3-1.7-2-2.6c-0.2-0.2-0.4-0.5-0.7-0.7c-2.6-1.7-5.8-3.5-9.5-3.5c-0.8,0-1.7,0.1-2.5,0.3
			c-6.5,1.4-7.3,2-10.6,7.7c-0.4,0.7-0.8,1.4-1.2,2l-0.5,0.8c-0.3,0-0.4-0.2-0.5-0.5c-0.1-0.1-0.2-0.3-0.3-0.4
			c-0.4-0.4-0.8-0.8-1.2-1.3c-0.9-1-1.8-1.9-2.8-2.8c-1.3-1.2-3.1-1.9-5-2.1c-0.6-0.1-1.2-0.1-1.8-0.1c-2.6,0-5.3,0.5-8.2,1.6
			c-0.8,0.3-1.7,1-2.3,1.8c-0.7,0.8-1.2,1.8-1.8,2.7c-0.2,0.3-0.4,0.7-0.6,1s-0.4,0.7-0.7,1.1c-0.1,0.1-0.1,0.2-0.2,0.4
			c-0.1-0.1-0.1-0.2-0.2-0.3c-0.3-0.4-0.5-0.7-0.7-1c-0.4-0.7-0.7-1.3-1-1.9c-1.4-3.1-4-4.8-6.5-6c-1.6-0.8-3.2-1.2-4.7-1.2
			c-0.4,0-0.8,0-1.2,0.1c-0.6,0.1-1.1,0.1-1.7,0.2c-1.2,0.1-2.4,0.3-3.6,0.5c-2.6,0.5-4.5,1.8-5.9,3.7c-0.4,0.6-0.9,1.2-1.4,1.8
			c-1,1.3-2.1,2.6-2.8,4.2c0,0-0.1,0.1-0.2,0.1c0,0-0.1,0-0.1,0.1c-0.4-0.5-0.6-1.1-0.8-1.7c-0.1-0.3-0.2-0.6-0.3-0.9
			c-0.6-1.4-1.1-2.8-1.6-4.1c-1.3-3.6-3.8-6.5-7.8-9.4c-2.4-1.7-5.2-2.5-9.1-2.5h-0.1c-2.1,0-4.2,0.7-6.6,2.3
			c-2.4,1.5-4.5,3.4-6.6,5.3l-0.5,0.5c-2.1,1.9-3.2,4.3-4.1,6.5c-0.3,0.7-0.5,1.3-0.7,2C46.55,173.4,46.45,173.7,46.35,174
			L46.35,174z M52.15,175.1c0.7-4.1,2.2-6.9,4.7-9c0.7-0.6,1.3-1.2,2-1.8c0.2-0.2,0.4-0.4,0.6-0.6c1-0.9,2.2-1.7,3.6-2.4
			c1.2-0.6,2.3-0.8,3.4-0.8c1.7,0,3.3,0.6,4.8,1.9c2.9,2.4,4.9,5.1,5.9,8.2c0.6,1.9,1.3,3.8,2.1,5.7c0.3,0.8,0.6,1.6,0.9,2.4
			c-0.1,0-0.1,0-0.2,0c-0.2,0-0.4,0.1-0.5,0.1s-0.1,0-0.2,0c-8.2-1.5-15.1-2.6-22.2-3.1c-1.1-0.1-2.2-0.3-3.4-0.5
			C53.15,175.3,52.65,175.2,52.15,175.1L52.15,175.1z M144.65,178.6c-0.4-0.7-0.5-1.4-0.2-2.2c1.4-3.3,2.9-5.7,4.8-7.6
			c1.4-1.4,2.9-2.1,4.7-2.1c0.6,0,1.3,0.1,2,0.3c2.9,0.8,5.2,2.4,6.8,4.9c0.5,0.8,0.9,1.5,1.5,2.4c0.2,0.4,0.4,0.8,0.7,1.2
			c-0.3,0.1-0.7,0.3-1,0.4c-0.7,0.3-1.2,0.5-1.8,0.5c-2.7,0.2-5.3,0.6-7.9,1C151.15,178,147.85,178.5,144.65,178.6L144.65,178.6z
			 M89.35,180.3c-0.1-1.9,0.8-3.3,1.7-4.7c1-1.5,2.2-2.9,3.3-4.3l0.7-0.9c0.4-0.5,0.8-0.8,1.1-0.9c1.4-0.4,3-0.9,4.6-0.9
			s3,0.4,4.2,1.3c0.7,0.5,1.6,1.2,2.1,2.1c1.5,2.7,3.3,6.2,4.4,10c0,0.1,0,0.2,0,0.3c0,0,0,0.1,0,0.2c0,0-0.1,0-0.1,0.1
			c-0.1,0.1-0.3,0.2-0.4,0.2c-0.4,0-0.9,0-1.3,0c-0.7,0-1.4,0-2,0c-1,0-1.9,0-2.6-0.1c-1.9-0.1-3.9-0.5-5.8-0.8l-0.7-0.1
			c-2.1-0.3-4.2-0.7-6.3-1.1l-1.8-0.3c-0.3,0-0.5-0.1-0.8-0.2C89.55,180.3,89.45,180.3,89.35,180.3L89.35,180.3z M118.85,182.7
			c0-0.1-0.1-0.2-0.1-0.3c-0.1-0.4-0.2-0.7-0.1-1c0.2-0.6,0.4-1.2,0.6-1.9c0.6-1.7,1.1-3.5,2-5.2c1.2-2.5,3.3-3.6,6.8-3.8
			c0.1,0,0.2,0,0.3,0c1.6,0,3,0.7,4.2,2c1.8,2.1,3.3,4.4,4.4,7C133.05,180.9,123.25,182.6,118.85,182.7L118.85,182.7z"/>
	</g>
	<g>
		<path d="M77.85,96.7c-1,0-2-0.1-2.9-0.3c-0.8-0.2-1.7-0.2-3-0.2c-0.5,0-1,0-1.5,0h-0.6c-2.1,0-4.1-0.5-6-1
			c-0.5-0.1-0.9-0.2-1.4-0.3c-0.8-0.2-1.5-0.7-2.1-1.6c-0.2-0.3-0.3-0.8-0.2-1.1c0.1-0.3,0.6-0.5,0.9-0.5h0.2
			c0.9,0.1,1.8,0.1,2.6,0.4c2.7,0.9,5.5,0.9,8.4,0.9c0,0,0,0,0.1-0.1c0,0,0.1-0.1,0.2-0.2c-0.2-0.1-0.4-0.1-0.5-0.2
			c-0.4-0.2-0.8-0.3-1.1-0.4c-2.5-0.8-4.8-2.2-7-4.4c-0.9-1-1.8-2-2.6-3c-0.3-0.4-0.6-0.7-0.9-1.1c-0.3-0.3-0.6-0.7-0.7-1.1
			c-1.2-3.1-2.2-6.5-1.4-10.2c1.1-5.3,3.6-9.9,7.6-13.6c2.7-2.5,5.6-4,8.7-4.5c0.2,0,0.5-0.1,0.7-0.2c1.2-0.4,2.3-0.6,3.6-0.6
			c2.7,0,5.4,1,7.8,1.9c0.6,0.2,1.1,0.6,1.5,1c1.4,1.2,2.9,2.5,4.3,3.8c2.4,2.3,3.7,5.2,3.8,8.6c0.1,3.3,0.1,6.6-0.2,9.9
			c-0.3,3.6-1.5,6.9-3.5,9.7c-0.8,1.1-1.8,1.9-2.8,2.7c-0.1,0.1-0.3,0.2-0.4,0.3c-0.5,0.4-1,0.8-1.3,1.5c-0.2,0.5-0.6,0.9-1,1.4
			c-0.1,0.1-0.2,0.2-0.3,0.3c-0.7,0.8-1.6,1.3-2.7,1.5h-0.1C81.95,96.3,79.95,96.7,77.85,96.7z M79.05,56.3c-0.2,0-0.4,0-0.7,0
			c-2.7,0.3-4.7,1-6.5,2.3c-3.1,2.2-5.3,4.7-6.7,7.7c-0.2,0.3-0.3,0.7-0.5,1c-0.3,0.7-0.7,1.3-1,2c-0.7,1.6-1.4,3.3-1.4,5.2
			c0,3,0.3,6.8,3.2,9.7c0.1,0.1,0.2,0.2,0.2,0.3l0.1,0.1c2.1,2.5,4.2,4.2,6.7,5c1.7,0.6,3.5,1.1,5.2,1.5c0.7,0.2,1.5,0.2,2.2,0.2
			l0,0c1.7,0,3.5-0.5,5.2-1.3c2-1,3.5-2.7,4.5-5c1.4-3.3,2.2-7,2.3-11.3l-0.2-1.9c-0.1-1.5-0.2-3-0.4-4.5c-0.1-1.2-0.5-2.2-1-3.1
			c-1.9-2.9-4.4-5.1-7.6-6.8C81.45,56.6,80.15,56.3,79.05,56.3z"/>
		<path d="M78.95,53.6c2.6,0,5.2,1,7.7,1.9c0.5,0.2,1,0.6,1.5,1c1.4,1.2,2.9,2.5,4.3,3.8c2.5,2.3,3.7,5.2,3.7,8.5
			c0.1,3.3,0.1,6.6-0.2,9.8c-0.3,3.5-1.4,6.8-3.5,9.6c-0.7,1-1.8,1.9-2.8,2.7c-0.7,0.5-1.4,0.9-1.7,1.8c-0.2,0.6-0.8,1.1-1.2,1.7
			c-0.7,0.8-1.6,1.3-2.7,1.4c-2,0.3-4.1,0.7-6.1,0.7c-1,0-1.9-0.1-2.9-0.3s-2-0.2-3-0.2c-0.6,0-1.3,0-1.9,0c-0.1,0-0.2,0-0.3,0
			c-2.5,0-4.9-0.8-7.3-1.3c-0.9-0.2-1.5-0.8-2-1.5c-0.2-0.3-0.3-0.7-0.2-1c0.1-0.2,0.5-0.5,0.8-0.5l0,0c0.9,0.1,1.9,0.1,2.8,0.4
			c2.8,0.9,5.6,0.9,8.4,0.9c0.1,0,0.1-0.1,0.5-0.4c-0.8-0.3-1.3-0.5-1.8-0.7c-2.7-0.8-5-2.4-6.9-4.4c-1.3-1.3-2.4-2.7-3.5-4.1
			c-0.3-0.3-0.6-0.7-0.7-1.1c-1.2-3.3-2.1-6.6-1.4-10.1c1.1-5.3,3.6-9.9,7.6-13.5c2.4-2.3,5.2-3.9,8.6-4.5c0.3,0,0.5-0.1,0.8-0.2
			C76.55,53.7,77.75,53.6,78.95,53.6 M79.95,91.4c1.8,0,3.6-0.5,5.3-1.4c2.2-1.1,3.6-2.9,4.6-5.1c1.6-3.6,2.2-7.4,2.3-11.4
			c-0.2-2.1-0.3-4.3-0.6-6.4c-0.1-1.1-0.4-2.2-1.1-3.2c-2-2.9-4.5-5.2-7.6-6.8c-1.2-0.6-2.5-1-3.8-1c-0.2,0-0.5,0-0.7,0
			c-2.3,0.3-4.6,0.9-6.5,2.3c-2.9,2-5.2,4.5-6.7,7.7c-0.5,1-1,2-1.5,3c-0.7,1.7-1.4,3.4-1.4,5.2c-0.1,3.6,0.5,7.1,3.2,9.8
			c0.1,0.1,0.2,0.3,0.3,0.4c1.8,2.2,4,4.1,6.7,5c1.7,0.6,3.5,1.1,5.2,1.5C78.45,91.3,79.25,91.4,79.95,91.4 M78.95,53.3L78.95,53.3
			c-1.3,0-2.5,0.2-3.7,0.6c-0.2,0.1-0.5,0.1-0.7,0.2c-3.1,0.5-6,2-8.7,4.5c-4,3.7-6.6,8.3-7.7,13.7c-0.8,3.7,0.2,7.1,1.4,10.2
			c0.2,0.4,0.5,0.8,0.8,1.1c0.3,0.4,0.6,0.7,0.9,1.1c0.8,1,1.7,2.1,2.6,3c2.2,2.2,4.5,3.7,7,4.4c0.4,0.1,0.7,0.3,1.1,0.4
			c0.1,0,0.2,0.1,0.3,0.1l0,0c0,0,0,0-0.1,0.1c-2.8,0-5.6-0.1-8.3-0.9c-0.9-0.3-1.8-0.3-2.7-0.4h-0.2l0,0c-0.4,0-0.9,0.3-1,0.6
			c-0.2,0.4,0,0.9,0.2,1.2c0.6,0.9,1.3,1.4,2.2,1.6c0.5,0.1,0.9,0.2,1.4,0.3c1.9,0.5,3.9,1,6,1c0.1,0,0.2,0,0.3,0h0.4
			c0.5,0,1,0,1.5,0c1.2,0,2.1,0.1,2.9,0.2c0.9,0.2,1.9,0.3,2.9,0.3c2,0,4.1-0.3,6-0.7h0.1c1.2-0.2,2.1-0.7,2.8-1.5
			c0.1-0.1,0.2-0.2,0.3-0.3c0.4-0.4,0.8-0.9,1-1.4c0.3-0.7,0.7-1,1.3-1.4c0.1-0.1,0.3-0.2,0.4-0.3c1-0.8,2.1-1.7,2.8-2.7
			c2-2.8,3.2-6.1,3.5-9.8c0.3-3.3,0.3-6.5,0.2-9.9c-0.1-3.5-1.3-6.4-3.8-8.7c-1.4-1.3-2.9-2.6-4.3-3.8c-0.4-0.4-1-0.8-1.6-1
			C84.35,54.3,81.65,53.3,78.95,53.3L78.95,53.3z M79.95,91.1c-0.7,0-1.5-0.1-2.2-0.2c-1.7-0.4-3.5-0.9-5.2-1.5
			c-2.4-0.8-4.6-2.5-6.6-5l-0.1-0.1c-0.1-0.1-0.2-0.2-0.2-0.3c-2.9-2.9-3.2-6.6-3.1-9.6c0-1.8,0.7-3.5,1.4-5.1c0.3-0.7,0.6-1.4,1-2
			c0.2-0.3,0.3-0.7,0.5-1c1.4-2.9,3.6-5.4,6.7-7.6c1.7-1.2,3.7-1.9,6.4-2.2c0.2,0,0.4,0,0.7,0c1.2,0,2.4,0.3,3.7,1
			c3.1,1.6,5.7,3.9,7.6,6.7c0.6,0.8,0.9,1.8,1,3c0.2,1.5,0.3,3.1,0.4,4.5c0,0.6,0.1,1.3,0.2,1.9c-0.1,4.3-0.8,8-2.3,11.2
			c-1,2.3-2.5,3.9-4.5,5C83.35,90.7,81.65,91.1,79.95,91.1L79.95,91.1z"/>
	</g>
	<g>
		<path d="M122.45,90.8c-3.5,0-7-1.1-10.7-3.2c-1.3-0.8-2.3-2-3-2.9c-0.6-0.8-1.1-1.5-1.6-2.3c-0.2-0.4-0.5-0.7-0.7-1.1
			c-0.9-1.4-1.5-3.1-1.6-5.2c-0.2-4.3,0.2-8,1.4-11.5c1.4-4.2,3.5-7.5,6.2-10.1c1.2-1.1,2.2-1.7,3.4-1.9c1.3-0.2,2.5-0.7,3.7-1.2
			l0.4-0.2c2.6-1.2,5.4-1.7,8.5-1.7c0.6,0,1.3,0,1.9,0.1h0.4c2,0.1,4,0.3,6,1.1c1.7,0.7,3.6,1.6,5.1,3c1,1,2,2,3,3l0.5,0.5
			c1.3,1.3,2.1,3,2.5,5.1c0.6,3.1,0.8,5.6,0.7,8c-0.1,2.3-0.6,4.6-1.5,7.4c-0.7,2.1-2,4-4,6c-2.9,2.8-6.3,4.8-10.2,6
			c-1.6,0.5-3.3,0.7-4.9,0.9c-0.5,0.1-1,0.1-1.4,0.2c-0.3,0-0.6,0.1-1,0.1c-0.3,0-0.5,0-0.8,0s-0.5,0-0.8,0
			C123.35,90.7,122.85,90.8,122.45,90.8z M129.75,52.2c-0.8,0-1.6,0.1-2.4,0.2c-1.3,0.2-2.5,0.5-3.7,1c-0.7,0.3-1.4,0.6-2.2,0.9
			c-0.8,0.4-1.7,0.7-2.6,1.1c-1,0.5-1.9,1.2-2.7,2c-0.6,0.5-1.3,1.1-2,1.6c-0.3,0.7-0.8,1.5-1.3,2.2c-0.7,1-1.3,2-1.7,3.1
			c-1,3.2-1.5,6.1-1.5,9.1v0.7c0,0.5,0,1.1,0,1.6c0,1.4,0.4,2.8,1.2,4.1c0.4,0.8,1,1.6,1.4,2.3l0.5,0.7c0.8,1.2,1.7,2,2.7,2.6
			c2.8,1.4,5.9,2.2,9,2.2l0,0c1.2,0,2.5-0.1,3.7-0.3c1.2-0.2,2.1-0.5,3-0.8c3.1-1.2,6-3.2,8.7-5.8c1.5-1.4,2.5-3.1,3.1-5
			c0.6-2.1,1.3-4.7,1.1-7.3c0-0.5-0.1-1-0.2-1.5c-0.1-0.8-0.2-1.5-0.2-2.3c0-2.7-1.2-5.1-3.5-7.4
			C136.95,53.7,133.45,52.2,129.75,52.2z"/>
		<path d="M128.45,49.5c0.6,0,1.3,0,1.9,0.1c2.2,0.2,4.3,0.3,6.3,1.1c1.8,0.8,3.6,1.6,5.1,3c1.2,1.1,2.3,2.3,3.5,3.5
			c1.4,1.4,2.1,3.1,2.5,5c0.5,2.6,0.8,5.3,0.7,8c-0.1,2.5-0.7,4.9-1.5,7.3c-0.8,2.4-2.2,4.3-4,5.9c-2.9,2.8-6.4,4.8-10.2,6
			c-2,0.6-4.2,0.8-6.4,1.1c-0.3,0-0.6,0.1-1,0.1c-0.5,0-1.1,0-1.6,0s-0.9,0.1-1.4,0.1c-3.8,0-7.3-1.3-10.7-3.2
			c-1.2-0.7-2.1-1.7-3-2.9c-0.8-1.1-1.5-2.3-2.3-3.4c-1-1.6-1.5-3.3-1.6-5.1c-0.2-3.9,0.1-7.7,1.4-11.5s3.2-7.2,6.2-10.1
			c1-0.9,2.1-1.6,3.4-1.8c1.5-0.2,2.8-0.8,4.1-1.4C122.65,50,125.55,49.5,128.45,49.5 M124.55,87.7c1.2,0,2.5-0.1,3.7-0.3
			c1-0.2,2-0.4,3-0.8c3.3-1.3,6.2-3.4,8.8-5.9c1.4-1.4,2.5-3.1,3.1-5c0.7-2.4,1.3-4.8,1.1-7.4c-0.1-1.3-0.3-2.6-0.3-3.9
			c0-3.1-1.5-5.5-3.5-7.5c-3-3-6.5-4.9-10.6-4.9c-0.8,0-1.6,0.1-2.4,0.2c-1.3,0.2-2.5,0.5-3.7,1c-1.6,0.7-3.2,1.3-4.7,2.1
			c-1.8,0.9-3,2.5-4.7,3.5c-0.9,1.9-2.4,3.3-3.1,5.3c-1,3-1.5,6-1.5,9.1c0,0.8,0,1.6,0,2.3c0,1.5,0.5,2.9,1.2,4.2
			c0.6,1,1.3,2.1,1.9,3.1c0.7,1.1,1.6,2,2.8,2.6C118.35,87,121.45,87.7,124.55,87.7 M128.45,49.3L128.45,49.3
			c-3.1,0-5.9,0.6-8.5,1.7l-0.4,0.2c-1.2,0.5-2.4,1.1-3.7,1.2c-1.2,0.2-2.3,0.8-3.5,1.9c-2.7,2.6-4.8,5.9-6.2,10.2
			c-1.2,3.5-1.7,7.3-1.4,11.6c0.1,2.1,0.6,3.8,1.6,5.3c0.2,0.4,0.5,0.7,0.7,1.1c0.5,0.8,1,1.6,1.6,2.3c0.7,0.9,1.7,2.1,3,2.9
			c3.7,2.2,7.3,3.2,10.8,3.2c0.5,0,1,0,1.4-0.1c0.2,0,0.5,0,0.8,0s0.5,0,0.8,0c0.4,0,0.7,0,1-0.1c0.5-0.1,1-0.1,1.4-0.2
			c1.7-0.2,3.4-0.4,5-0.9c3.9-1.2,7.4-3.3,10.3-6.1c2.1-2,3.4-3.9,4.1-6.1c0.9-2.8,1.4-5.1,1.5-7.4c0.1-2.4-0.1-4.9-0.7-8
			c-0.4-2.1-1.3-3.8-2.6-5.1l-0.5-0.5c-1-1-2-2-3-3c-1.6-1.5-3.5-2.4-5.1-3.1c-2-0.8-4-1-6-1.1h-0.4
			C129.65,49.3,129.05,49.3,128.45,49.3L128.45,49.3z M114.35,59c0.7-0.5,1.3-1,2-1.5c0.8-0.7,1.7-1.5,2.7-1.9
			c0.8-0.4,1.7-0.8,2.6-1.1c0.7-0.3,1.4-0.6,2.2-0.9c1.1-0.5,2.3-0.8,3.6-1c0.8-0.1,1.6-0.2,2.4-0.2c3.7,0,7.1,1.6,10.5,4.9
			c2.3,2.3,3.4,4.7,3.4,7.3c0,0.8,0.1,1.6,0.2,2.3c0.1,0.5,0.1,1,0.2,1.5c0.2,2.6-0.4,5.2-1.1,7.3c-0.6,1.8-1.6,3.5-3,4.9
			c-2.7,2.7-5.6,4.6-8.7,5.8c-0.8,0.3-1.8,0.6-2.9,0.8c-1.2,0.2-2.5,0.3-3.7,0.3c-3.1,0-6.1-0.7-9-2.1c-1-0.5-2-1.4-2.7-2.5
			c-0.2-0.2-0.3-0.5-0.5-0.7c-0.5-0.8-1-1.5-1.4-2.3c-0.7-1.3-1.1-2.7-1.1-4.1c0-0.5,0-1.1,0-1.6v-0.7c0-2.9,0.5-5.9,1.5-9
			c0.4-1.1,1-2.1,1.7-3.1C113.45,60.5,113.95,59.8,114.35,59L114.35,59z"/>
	</g>
	<g>
		<path d="M141.45,47.2c-0.2,0-0.4,0-0.7-0.1c0,0-0.1,0-0.1-0.1c-0.1-0.2-0.1-0.4-0.1-0.6c-0.1-0.6-0.2-1-0.6-1.4
			c-0.6-0.6-1.1-1.2-1.7-1.8c-0.5-0.5-1-1.1-1.5-1.6c-1.8-1.7-4.1-2.6-6.1-3.1c-1.5-0.4-3.2-0.7-4.8-0.7c-1.8,0-3.8,0.3-5.8,0.8
			c-0.6,0.2-1.2,0.3-1.8,0.4c-1.1,0.2-2.3,0.5-3.4,0.9c-0.2,0.1-0.3,0.1-0.5,0.1c-0.9,0-2-0.8-2.3-1.7c-0.1-0.2,0-0.6,0.2-0.8
			c0.4-0.4,0.8-0.6,1.1-0.7l0.9-0.3c1.3-0.4,2.6-0.8,3.9-1.1c2.3-0.5,4.6-0.8,7.2-1.1c0.6-0.1,1.2-0.1,1.8-0.1c2.4,0,5,0.6,7.8,1.9
			c0.6,0.3,1.2,0.5,1.8,0.8c0.4,0.2,0.9,0.4,1.3,0.6c2.7,1.2,4.5,3.5,6.4,6c0.2,0.3,0.4,0.8,0.5,1.2c0,0.3-0.1,0.8-0.3,1.1
			C143.75,46.5,142.75,47.2,141.45,47.2z"/>
		<path d="M127.15,34.4c2.7,0,5.3,0.7,7.7,1.8c1,0.5,2,0.9,3.1,1.4c2.8,1.3,4.6,3.6,6.3,6c0.2,0.3,0.4,0.8,0.4,1.2
			c0,0.3-0.1,0.8-0.3,0.9c-0.8,0.7-1.7,1.4-2.9,1.4c-0.2,0-0.4,0-0.7-0.1c-0.2-0.8-0.1-1.5-0.7-2.1c-1.1-1.1-2.1-2.3-3.2-3.4
			c-1.7-1.7-3.9-2.5-6.1-3.2c-1.6-0.5-3.2-0.7-4.8-0.7c-2,0-3.9,0.3-5.9,0.8c-1.7,0.5-3.5,0.7-5.2,1.4c-0.1,0.1-0.3,0.1-0.5,0.1
			c-0.9,0-1.9-0.8-2.2-1.7c-0.1-0.2,0-0.6,0.2-0.7c0.3-0.3,0.7-0.6,1.1-0.7c1.6-0.5,3.1-1.1,4.7-1.4c2.4-0.5,4.8-0.8,7.2-1.1
			C125.95,34.4,126.55,34.4,127.15,34.4 M127.15,34.1c-0.6,0-1.2,0-1.8,0.1c-2.6,0.3-4.9,0.6-7.2,1.1c-1.3,0.3-2.6,0.7-3.9,1.1
			c-0.3,0.1-0.6,0.2-0.9,0.3c-0.4,0.1-0.7,0.4-1.1,0.8c-0.2,0.2-0.3,0.7-0.2,1c0.3,1,1.4,1.8,2.4,1.8c0.2,0,0.4,0,0.6-0.1
			c1.1-0.4,2.3-0.7,3.4-0.9c0.6-0.1,1.2-0.3,1.8-0.4c2.1-0.5,4-0.8,5.8-0.8c1.6,0,3.2,0.2,4.8,0.7c2,0.6,4.3,1.4,6,3.1
			c0.5,0.5,1,1.1,1.5,1.6c0.5,0.6,1.1,1.2,1.7,1.8c0.4,0.4,0.4,0.8,0.5,1.3c0,0.2,0.1,0.4,0.1,0.6c0,0.1,0.1,0.2,0.2,0.2
			c0.2,0,0.5,0.1,0.7,0.1c1.3,0,2.3-0.7,3.1-1.4c0.3-0.3,0.4-0.8,0.4-1.2c-0.1-0.5-0.2-1-0.5-1.3c-1.9-2.6-3.6-4.8-6.4-6.1
			c-0.4-0.2-0.9-0.4-1.3-0.6c-0.6-0.3-1.2-0.5-1.8-0.8C132.15,34.7,129.55,34.1,127.15,34.1L127.15,34.1z"/>
	</g>
	<g>
		<path d="M123.35,97.6c-2.8-0.1-5.4-0.7-7.8-1.8l-0.7-0.4c-1-0.5-1.9-1-3-1.3c-1.2-0.3-2-1.1-2.4-2.3c-0.1-0.2,0-0.5,0.2-0.6
			c0.1-0.2,0.3-0.3,0.4-0.3c0.7,0.1,1.3,0.2,1.9,0.2c1.2,0.1,2.5,0.2,3.7,0.9c2,1.3,4.4,1.6,6.6,1.8c0.6,0,1.3,0.1,1.9,0.1
			c2.2,0,4.4-0.3,6.5-0.5c0.6-0.1,1.2-0.1,1.8-0.2c1.2-0.1,2.5-0.6,3.8-1.3l1.7-1c0.9-0.5,1.9-1,2.8-1.5c0.3-0.2,0.7-0.3,0.9-0.4
			l0.3-0.1c1.2,0.2,1.4,1,1.5,1.7v0.2c0,0.1-0.1,0.2-0.1,0.3c-1.3,2.5-3.7,3.8-6,4.9l-0.3,0.2c-0.4,0.2-0.9,0.4-1.5,0.4
			c-2.4,0.3-4.5,0.5-6.4,0.7l-0.9,0.1c-1.5,0.1-3,0.3-4.6,0.3L123.35,97.6z"/>
		<path d="M142.25,88.9c1,0.2,1.2,0.9,1.3,1.6c0,0.2-0.1,0.3-0.1,0.5c-1.3,2.6-3.8,3.8-6.3,5.1c-0.4,0.2-1,0.4-1.5,0.4
			c-2.1,0.3-4.3,0.5-6.4,0.7c-1.8,0.2-3.6,0.4-5.4,0.4c-0.2,0-0.3,0-0.5,0c-2.7-0.1-5.3-0.6-7.7-1.8c-1.2-0.6-2.4-1.3-3.8-1.7
			c-1.1-0.3-1.9-1.1-2.3-2.2c-0.1-0.3,0.2-0.8,0.5-0.8l0,0c1.8,0.4,3.8,0.1,5.5,1.1c2,1.2,4.3,1.6,6.6,1.8c0.6,0.1,1.3,0.1,1.9,0.1
			c2.8,0,5.6-0.4,8.4-0.7c1.4-0.2,2.7-0.6,3.9-1.3c1.5-0.8,3-1.7,4.5-2.5C141.45,89.2,141.85,89,142.25,88.9 M142.25,88.6h-0.1
			c-0.1,0-0.2,0.1-0.3,0.1c-0.3,0.1-0.6,0.3-1,0.4c-0.9,0.5-1.8,1-2.8,1.5c-0.6,0.3-1.2,0.6-1.8,1c-1.3,0.7-2.6,1.1-3.8,1.3
			c-0.6,0.1-1.2,0.1-1.8,0.2c-2.1,0.3-4.3,0.5-6.5,0.5c-0.7,0-1.3,0-1.9-0.1c-2.2-0.2-4.5-0.5-6.5-1.8c-1.2-0.8-2.5-0.9-3.8-1
			c-0.6,0-1.2-0.1-1.8-0.2h-0.1c-0.2,0-0.4,0.1-0.5,0.3s-0.3,0.5-0.2,0.7c0.4,1.2,1.3,2.1,2.5,2.4c1.1,0.3,2,0.8,3,1.3
			c0.2,0.1,0.5,0.2,0.7,0.4c2.4,1.2,4.9,1.8,7.8,1.9c0.2,0,0.3,0,0.5,0c1.5,0,3.1-0.1,4.6-0.3l0.9-0.1c1.9-0.2,4-0.4,6.4-0.7
			c0.6-0.1,1.1-0.2,1.6-0.4l0.3-0.2c2.3-1.2,4.7-2.4,6.1-5c0.1-0.1,0.1-0.3,0.1-0.4v-0.1v-0.1C143.65,89.7,143.45,88.9,142.25,88.6
			L142.25,88.6L142.25,88.6z"/>
	</g>
	<g>
		<path d="M63.05,54c-0.7,0-1.4-0.3-1.9-0.8c-0.2-0.2-0.3-0.8-0.2-1.1c0.3-1.1,0.8-2.2,1.8-3.5c0.9-1.2,1.6-2.2,2.4-3.1
			c1.4-1.7,2.9-3.1,4.6-4.2c1.6-1,3.3-2.1,4.8-3.2c0.8-0.5,1.5-1,2.3-1.5c1.8-1.2,3.9-2,6-2.7c0.4-0.1,0.8-0.3,1.1-0.4
			c0.9-0.3,1.7-0.5,2.6-0.5c0.8,0,1.6,0.1,2.7,0.4c0.1,0,0.1,0.1,0.1,0.1c0,1.6-0.6,2.4-1.9,2.8c-1,0.3-2.1,0.6-3.1,1l-0.6,0.2
			c-2,0.7-3.6,1.3-5.1,2.4c-1.6,1.2-3.2,2.2-4.9,3.3l-1.2,0.8c-2.4,1.6-4.3,3.5-5.6,5.9c-0.4,0.7-0.8,1.5-1.3,2.2l-0.4,0.7
			C64.75,53.5,63.95,54,63.05,54z"/>
		<path d="M86.45,33.2c0.8,0,1.7,0.1,2.6,0.4c0,1.4-0.5,2.3-1.8,2.6c-1.2,0.3-2.5,0.8-3.7,1.2c-1.8,0.6-3.6,1.2-5.1,2.4
			c-1.9,1.4-4,2.7-6,4c-2.4,1.5-4.3,3.5-5.6,6c-0.5,1-1.1,1.9-1.7,2.9c-0.5,0.8-1.3,1.3-2.2,1.3c-0.6,0-1.3-0.3-1.8-0.8
			c-0.2-0.2-0.3-0.7-0.2-0.9c0.3-1.3,1-2.4,1.8-3.4s1.6-2.1,2.4-3.1c1.3-1.6,2.8-3,4.6-4.1c2.4-1.5,4.7-3.2,7.1-4.7
			c2.2-1.5,4.7-2.2,7.1-3.1C84.85,33.3,85.65,33.2,86.45,33.2 M86.45,32.9L86.45,32.9c-0.9,0-1.7,0.2-2.7,0.5
			c-0.4,0.1-0.8,0.3-1.1,0.4c-2,0.7-4.1,1.5-6,2.7c-0.8,0.5-1.5,1-2.3,1.5c-1.6,1.1-3.2,2.2-4.8,3.2c-1.7,1.1-3.2,2.5-4.6,4.2
			c-0.7,0.9-1.5,1.9-2.4,3.1c-0.9,1.3-1.5,2.4-1.8,3.5c-0.1,0.3,0,0.9,0.3,1.2c0.5,0.6,1.2,0.9,2,0.9c1,0,1.9-0.5,2.4-1.4l0.4-0.7
			c0.4-0.7,0.9-1.4,1.3-2.2c1.3-2.4,3.1-4.3,5.5-5.9c0.4-0.3,0.8-0.5,1.2-0.8c1.6-1,3.3-2.1,4.9-3.3c1.5-1.1,3.1-1.7,5.1-2.4
			l0.6-0.2c1-0.3,2-0.7,3.1-1c1.3-0.4,2-1.3,2-2.9c0-0.1-0.1-0.2-0.2-0.2C88.05,33.1,87.25,32.9,86.45,32.9L86.45,32.9z"/>
	</g>
	<g>
		<path d="M106.35,200.2c-2.4-0.1-6.1-0.3-9.7-1.4c-0.8-0.2-1.7-0.6-2.4-1c-0.4-0.3-0.7-0.7-0.9-1.2c-0.1-0.3-0.1-0.6,0-0.9
			c0.2-0.3,0.4-0.4,0.7-0.4c0.8,0.1,1.9,0.2,2.9,0.4c0.7,0.1,1.5,0.3,2.2,0.4c1.2,0.2,2.4,0.5,3.6,0.6c1,0.1,2,0.2,2.9,0.2
			c0.4,0,0.8,0,1.2,0c3.6-0.3,7.4-0.8,11.5-1.6l0.3-0.1c0.3-0.1,0.5-0.1,0.8-0.1c0.1,0,0.2,0,0.2,0c0.3,0,0.7,0.4,0.8,0.7
			c0.1,0.3,0.1,0.8-0.1,1.1c-0.5,0.8-1.3,1.2-2.4,1.6C114.65,199.6,110.95,200.2,106.35,200.2L106.35,200.2z"/>
		<path d="M119.45,195.2c0.1,0,0.1,0,0.2,0c0.3,0,0.6,0.3,0.7,0.6c0.1,0.3,0.1,0.7-0.1,0.9c-0.6,0.8-1.4,1.2-2.3,1.5
			c-3.6,1.3-7.3,1.9-11.6,1.9c-2.9-0.1-6.4-0.4-9.7-1.4c-0.8-0.2-1.6-0.6-2.3-1c-0.4-0.2-0.7-0.8-0.9-1.2c-0.2-0.5,0.1-1.1,0.6-1.1
			c0,0,0,0,0.1,0c0.9,0.1,1.9,0.2,2.8,0.3c1.9,0.3,3.9,0.8,5.8,1c1,0.1,1.9,0.2,2.9,0.2c0.4,0,0.8,0,1.2,0c3.9-0.3,7.7-0.9,11.5-1.6
			C118.75,195.3,119.05,195.2,119.45,195.2 M119.45,194.9c-0.3,0-0.6,0.1-0.8,0.1c-0.1,0-0.2,0-0.3,0.1c-4.1,0.8-7.9,1.3-11.5,1.6
			c-0.4,0-0.8,0-1.2,0c-0.9,0-1.8-0.1-2.9-0.2c-1.2-0.2-2.4-0.4-3.6-0.6c-0.7-0.1-1.5-0.3-2.2-0.4c-0.8-0.1-1.7-0.2-2.8-0.4h-0.1
			c-0.3,0-0.6,0.2-0.8,0.5c-0.2,0.3-0.2,0.7-0.1,1c0.3,0.5,0.5,1,1,1.3c0.7,0.4,1.5,0.8,2.4,1c3.6,1.1,7.3,1.3,9.7,1.4
			c4.6,0,8.3-0.6,11.7-1.9c1-0.4,1.9-0.8,2.4-1.6c0.2-0.3,0.3-0.8,0.1-1.2c-0.2-0.4-0.6-0.7-0.9-0.7
			C119.55,194.9,119.55,194.9,119.45,194.9L119.45,194.9z"/>
	</g>
	<g>
		<path d="M78.25,84.9c-0.2,0-0.4,0-0.6,0l-0.7-0.1c-0.5,0-1-0.1-1.4-0.1c-1.3-0.1-2.4-0.5-3.4-1.2c-0.6-0.4-1.2-0.9-1.7-1.3
			c-0.5-0.4-1-0.8-1.5-1.2c-0.8-0.6-1.4-1.4-1.6-2.4c-0.6-2.5-0.8-4.6,0-6.7c0.1-0.2,0.2-0.4,0.3-0.6c0.1-0.3,0.3-0.7,0.4-1
			c0.8-2.1,2.4-3.5,4.8-4.1c1.1-0.3,2.2-0.4,3.3-0.6c0.4-0.1,0.9-0.1,1.3-0.2c0.4-0.1,0.8-0.1,1.2-0.1c1.2,0,2.4,0.3,3.6,0.9
			l0.2,0.1c0.9,0.4,1.8,0.8,2.6,1.2c1.1,0.5,1.8,1.1,2.2,1.9c0.8,1.5,1.6,3.2,1.7,5.1c0.1,2-0.3,3.7-1.3,5.2l-0.4,0.5
			c-0.7,1.1-1.4,2.2-2.6,3C82.75,84.3,80.85,84.9,78.25,84.9z"/>
		<path d="M78.45,65.3c1.2,0,2.4,0.3,3.6,0.8c0.9,0.4,1.9,0.8,2.8,1.3c0.9,0.4,1.7,1,2.1,1.8c0.8,1.6,1.6,3.2,1.7,5.1
			c0.1,1.9-0.3,3.6-1.3,5.2c-0.9,1.3-1.6,2.6-3,3.5c-1.9,1.3-4,1.7-6.2,1.7c-0.2,0-0.4,0-0.6,0c-0.8-0.1-1.5-0.1-2.2-0.2
			c-1.2-0.1-2.4-0.5-3.4-1.2c-1.1-0.8-2.2-1.7-3.3-2.5c-0.8-0.6-1.3-1.4-1.5-2.3c-0.5-2.2-0.8-4.4,0-6.6c0.2-0.6,0.5-1.1,0.7-1.7
			c0.8-2.2,2.5-3.5,4.7-4c1.5-0.4,3-0.6,4.6-0.8C77.65,65.4,78.05,65.3,78.45,65.3 M78.45,65.1L78.45,65.1c-0.4,0-0.8,0-1.2,0.1
			c-0.4,0.1-0.9,0.1-1.3,0.2c-1.1,0.2-2.2,0.3-3.3,0.6c-2.4,0.6-4.1,2-4.9,4.2c-0.1,0.3-0.3,0.7-0.4,1c-0.1,0.2-0.2,0.4-0.3,0.6
			c-0.8,2.1-0.6,4.2,0,6.7c0.2,1,0.8,1.8,1.6,2.5c0.5,0.4,1,0.8,1.5,1.2c0.6,0.4,1.1,0.9,1.7,1.3c1,0.8,2.2,1.2,3.5,1.2
			c0.5,0,0.9,0.1,1.4,0.1l0.7,0.1c0.2,0,0.4,0,0.6,0c2.6,0,4.6-0.6,6.3-1.7c1.2-0.8,1.9-1.9,2.7-3c0.1-0.2,0.2-0.4,0.4-0.5
			c1-1.5,1.5-3.3,1.3-5.3c-0.1-2-1-3.7-1.8-5.2c-0.4-0.8-1.1-1.4-2.2-1.9c-0.9-0.4-1.8-0.8-2.6-1.2l-0.2-0.1
			C80.85,65.4,79.65,65.1,78.45,65.1L78.45,65.1z"/>
	</g>
	<g>
		<path d="M126.15,81.5c-0.4,0-0.7,0-1.1-0.1c-2.1-0.4-3.9-1-5.4-1.9c-1.4-0.7-2.6-1.9-3.5-3.4c-0.3-0.4-0.4-1-0.5-1.8
			c-0.4-4,0.8-7.6,3.5-11.1c0.1-0.1,0.1-0.2,0.2-0.2c0.4-0.2,0.8-0.5,1.2-0.7c1.9-1.1,3.8-2.3,6.2-2.3c0.4,0,0.7,0,1.1,0.1
			c2.7,0.4,5.9,1.3,7.7,4.7c0.9,1.7,1,3.7,1.1,5.6v0.2c0,2.5-1.1,4.6-2.3,6.5c-1.4,2.2-3.4,3.5-6.3,4.2
			C127.25,81.4,126.65,81.5,126.15,81.5z"/>
		<path d="M126.65,60.1c0.3,0,0.7,0,1.1,0.1c3.2,0.5,6,1.6,7.6,4.7c0.9,1.8,1,3.8,1.1,5.8c0,2.4-1,4.5-2.3,6.5
			c-1.5,2.4-3.7,3.5-6.3,4.1c-0.6,0.1-1.2,0.2-1.8,0.2c-0.4,0-0.7,0-1.1-0.1c-1.9-0.4-3.7-0.9-5.4-1.8c-1.5-0.8-2.6-2-3.5-3.4
			c-0.3-0.5-0.4-1.1-0.5-1.7c-0.4-4.2,1-7.8,3.5-11c0.1-0.1,0.1-0.2,0.2-0.2C121.65,61.8,123.85,60.1,126.65,60.1 M126.65,59.8
			L126.65,59.8c-2.4,0-4.3,1.2-6.2,2.3c-0.4,0.2-0.8,0.5-1.2,0.7c-0.1,0.1-0.2,0.1-0.2,0.2c0,0,0,0,0,0.1c-2.8,3.6-4,7.2-3.6,11.2
			c0.1,0.8,0.3,1.4,0.5,1.8c1,1.5,2.2,2.7,3.6,3.5c1.5,0.8,3.3,1.4,5.4,1.9c0.3,0.1,0.7,0.1,1.1,0.1c0.6,0,1.2-0.1,1.8-0.2
			c2.9-0.6,5-2,6.4-4.2c1.2-1.9,2.3-4,2.3-6.6v-0.3c-0.1-1.9-0.2-3.8-1.1-5.6c-1.8-3.5-5.1-4.4-7.8-4.8
			C127.35,59.9,126.95,59.8,126.65,59.8L126.65,59.8z"/>
	</g>
</g>
</svg>
