<?xml version="1.0" encoding="utf-8"?>
<!-- Generator: Adobe Illustrator 24.0.1, SVG Export Plug-In . SVG Version: 6.00 Build 0)  -->
<svg version="1.1" id="Layer_1" xmlns="http://www.w3.org/2000/svg" xmlns:xlink="http://www.w3.org/1999/xlink" x="0px" y="0px"
	 viewBox="0 0 215.37 308.7" style="enable-background:new 0 0 215.37 308.7;" xml:space="preserve">
<style type="text/css">
	.st0{fill:#61CAE5;}
	.st1{fill:#FFFFFF;}
	.st2{fill:#2E869B;}
	.st3{fill:#46AEC6;}
</style>
<path class="st0" d="M162.71,296c-1.4-4-2.6-7.8-4.1-11.5c-1.8-4.6-3.5-9.2-4.2-14.2c-0.3-2.1-1-4.1-1.5-6.1
	c-0.9-3.5-1.9-6.9-2.8-10.4c-0.9-3.4-1.6-6.8-2.7-10c-2.1-6-3.5-12.1-5-18.3c-1.4-6-2.3-12.2-3.3-18.3c-1.1-6.6-1.2-13.2-0.7-19.8
	c0.3-3.4,0.5-6.7,0.8-10.1c0.4-3.8,0.7-7.5,1.3-11.3c0.8-4.6,1.8-9.1,2.8-13.6c1.2-5.2,2.5-10.4,3.8-15.6c0.9-3.5,2-6.9,2.8-10.3
	c1.6-6.5,3.5-13,4.8-19.6c1.3-6.8,3.3-13.5,4.5-20.3c0.7-4.1,1.4-8.3,1.9-12.5c0.7-7.3,0.7-14.7-0.3-22c-0.7-5-1.6-10-3.8-14.6
	c-0.7-1.4-1.4-2.9-1.8-4.4c-0.8-2.9-2.4-5.4-3.8-7.9c-0.4-0.7-1-1.4-1.4-2.1c-2.1-3.9-5-7-8.2-10c-1.2-1.1-2.5-2.3-4-3.1
	c-2.1-1.1-4.4-2-6.7-2.7c-10.4-3.2-20.8-5.1-31.7-3.4c-1.6,0.2-3.1,0.4-4.7,0.7c-2.8,0.6-5.5,1.6-8,2.8c-3.2,1.5-6.6,2.8-9.8,4.2
	c-4.3,1.8-8.4,3.9-11.8,7.2c-3.4,3.3-6.6,6.8-9.9,10.2c-0.5,0.5-0.8,1.2-1.2,1.8c-0.5,0.9-1.1,1.8-1.6,2.7c-1.5,2.9-3.4,5.6-4.5,8.7
	c-1.6,4.4-3.3,8.8-5,13.3c-0.2,0.6-0.3,1.2-0.4,1.8c-0.3,4-1,7.9-1.9,11.8c-0.3,1.3-0.4,2.7-0.5,4c-0.2,2.3-0.5,4.6-0.7,6.9
	c-0.3,2.7-1.3,5.3-0.9,8.1c0.1,0.4-0.1,0.8-0.2,1.2c-0.7,5-1.9,9.9-1.8,15c0,1.4-0.1,2.7-0.1,4.1c-0.1,3.3-0.2,6.5-0.1,9.8
	c0.1,3.9-0.4,7.8,0.3,11.6c0.6,0.3,1.2,0.7,1.7,1c0,2.1,0,4.1,0,6.1c0,0.7-0.2,1.5-0.2,2.2c-0.4,4.9-0.3,9.9-0.2,14.8
	c0,2.7,0,5.5,0.2,8.2c0.2,3.1,0.6,6.2,0.4,9.4c-0.1,1-0.1,2.1,0.2,3.1c0.3,1.2,0.3,2.3,0.3,3.4c-0.1,7,0.2,14.1,0.6,21.1
	c0.2,4,0.6,8,0.8,12c0.2,4.7,0.5,9.5,1.3,14.1c0.3,1.7,0.3,3.3,0,5c-0.1,0.5-0.1,1-0.1,1.5c0.4,3.8,0.5,7.5,0.8,11.3
	c0.3,4.2,0.8,8.4,1.1,12.6c0.5,7.6,0.9,15.1,1.4,22.7c0.1,1.8,0.4,3.6,0.6,5.3c0.5,4,0.9,7.9,1.4,11.9c0.2,2.1,0.5,4.1,0.8,6.3
	c0.7,0.1,1.3,0.3,2,0.3c2.6,0.2,5.3,0.2,7.9,0.4c2.8,0.3,5.5,0,8.2-0.5c2.2-0.5,4.4-0.3,6.6-0.3c1.6,0,3.1,0.2,4.7,0.2
	c2.6,0.1,5.3,0.1,7.9,0.1c2,0,4,0.1,6,0.1c4.2-0.1,8.4,0,12.6-0.5c0.8-0.1,1.7,0.1,2.5,0.1c1,0,2,0.1,2.9,0.7c-0.9,0.3-2,0-2.5,1
	c0.8,0.8,1.6,0.6,2.4,0.6c2,0,4,0,6-0.2c2.7-0.3,5.4-0.6,8.1-1c4.4-0.8,8.7-1.7,13-2.5c2.7-0.5,5.4-0.7,8.1-1.2c5.8-1,11.6-2,17.4-3
	C161.91,296.5,162.21,296.3,162.71,296z"/>
<path class="st0" d="M59.71,77.8c-0.2-4,0.7-8.4,2.5-12.6c2.2-5.1,4.8-10,9.1-13.7c1.8-1.6,3.9-2.9,5.8-4.3c0.9-0.7,2-1.2,2.9-1.9
	c2.4-1.8,5-2.9,7.9-3.7c5.1-1.4,10.4-1.7,15.6-1.3c0.3,0,0.6,0.1,0.9,0.1c6.6-0.8,12.7,1.1,18.5,4c1.8,0.9,3.4,2,4.8,3.5
	c1.1,1.2,2.3,2.2,3.4,3.3c2.3,2.1,3.8,4.8,5,7.6c1.2,3,2.2,6.1,3.3,9.2c0.2,0.5,0.3,1,0.2,1.5c-0.5,2.3-0.2,4.6-0.1,6.9
	c0.1,1.5,0.2,2.9,0.2,4.4c0,0.9-0.1,1.9-0.4,2.8c-0.7,2.6-1.6,5.2-2.2,7.9c-0.9,3.7-3,6.7-5.6,9.3c-3.3,3.4-7.2,5.7-11.6,7.4
	c-4,1.5-8.1,3-12.2,4.1c-4.1,1.1-8.1,1.2-12.2,0.8c-3.7-0.4-7.3-1-10.9-1.8c-5.2-1.1-10-3.3-14.3-6.4c-2.2-1.6-4-3.7-5.3-6.2
	c-2.4-4.5-4.5-9.1-5.1-14.2c-0.1-0.8-0.3-1.7-0.4-2.5C59.71,80.9,59.71,79.6,59.71,77.8z"/>
<path class="st1" d="M64.91,74.8c0,2.8-0.1,5.5,0,8.2c0.2,3.3,1.2,6.4,2.5,9.4c0.6,1.4,1.3,2.8,2.1,4.2c0.8,1.5,1.6,3,2.7,4.2
	c3.6,3.7,8.1,5.9,13.1,7.3c2.4,0.7,4.9,1.1,7.4,1.4c2.7,0.3,5.5,0.6,8.2,0.4c2.5-0.1,5-0.6,7.4-1.5c2.7-1,5.4-1.8,8.1-2.7
	c4.7-1.7,8.8-4.5,12-8.5c1.9-2.3,3.5-4.7,4.1-7.7c0.2-1.3,0.5-2.7,1-4c1.1-2.8,1.1-5.8,1-8.7c-0.1-2.6-0.2-5.2-0.4-7.9
	c-2.1-0.9-3.5-2.8-6-3.3c0,1,0,1.8,0,2.6c-0.2,3.7-1.5,7.1-4.4,9.4c-4.1,3.4-8.9,5.1-14.3,4.5c-1.2-0.1-2.3-0.3-3.4,0.1
	c-1.2,0.5-2.3,0.1-3.3-0.6c-0.9-0.6-1.7-1.2-2.7-1.6c-5.2-2-8.8-5.7-10.9-10.8c-0.7-1.7-1.3-3.5-2-5.4
	C78.71,65.3,71.51,69.1,64.91,74.8z"/>
<path class="st0" d="M66.51,67.9c0.9-0.3,1.3-0.3,1.5-0.5c2.8-2.1,6-3.5,9.3-4.6c4-1.4,8.1-2.3,12.2-3.3c4.2-1.1,8.5-1,12.8-1.5
	c5.8-0.7,11.6-0.2,17.3,0.9c3.6,0.7,7.1,1.7,10.5,3.2c0.6,0.3,1.2,1.1,2.1,0.3c-1.1-3-2.3-6-4.5-8.5c-0.9-1-1.8-2-2.8-3
	c-3.6-3.4-7.8-5.7-12.7-6.6c-4.5-0.8-9-0.4-13.5-0.5c-1.3,0-2.5,0.1-3.7,0.6c-0.6,0.2-1.2,0.2-1.9,0.2c-2.2,0.1-4.1,0.8-6,1.7
	c-3.3,1.5-6.2,3.6-9.1,5.7c-2.3,1.6-4.5,3.5-6,6c-1.4,2.2-2.6,4.5-3.9,6.8C67.51,65.5,67.11,66.4,66.51,67.9z"/>
<path class="st1" d="M42.01,175.9c0.2-0.9,0.5-1.8,0.5-2.7c0-0.8-0.4-1.7-0.2-2.5c0.5-2.7,1.6-5.2,3.1-7.5c0.4-0.7,1.2-1.2,1.9-1.7
	c3.6-2.2,7.3-4.1,11.3-5.4c5.8-1.9,11.7-3.3,17.6-4.9c4.5-1.2,9.1-1.7,13.7-2.1c1.8-0.2,3.6,0.1,5.3,0.1c0.6,0,1.3,0.1,1.9,0.1
	c6.1,0,11.9,1.4,17.7,3c5.8,1.7,10.1,5.4,13.2,10.5c1.5,2.5,2.2,5.2,2.6,8c0.4,3.2,0.1,6.3-0.2,9.4c-0.3,3.2-1.8,6-3.9,8.5
	c-1.3,1.6-3.2,2.4-5.2,2.9c-4.3,1.1-8.3,0.4-12.2-1.7c-1.7-1-3.6-1.7-5.5-2.4c-2.7-1.1-5.5-1.2-8.4-0.8c-5.3,0.7-10.4,2.4-15.5,4.1
	c-6,2.1-12.2,2.8-18.7,1.9c-3.5-0.5-6.8-1.6-9.8-3.3c-3.4-1.9-5.8-4.8-7.6-8.2C42.91,179.6,42.01,177.9,42.01,175.9z"/>
<path class="st2" d="M49.71,166.2c-0.7,0.8-1.1,1.1-1.3,1.5c-0.4,1.2-0.8,2.4-1.1,3.6c-0.5,2.7-0.4,5.5,0.8,8
	c2.8,5.8,7.6,9.1,13.9,10.3c1.4,0.3,2.9,0.3,4.4,0.4c3.2,0.2,6.2-0.7,9.2-1.8s6-1.9,9-2.9c2.8-0.9,5.8-1.3,8.7-1.6
	c3.1-0.4,6.3-0.9,9.4,0c3.6,1.1,7.2,2.3,10.5,4.2c1.2,0.7,2.4,1,3.6,1c2.8,0,5.3-0.7,6.6-3.7c1.6-3.8,2.2-7.6,1.9-11.7
	c0-0.2-0.2-0.4-0.4-0.7c-0.3,0.1-0.7,0.1-1.1,0.2c-1.2,0.3-2.4,0.6-3.7,0.8c-3.6,0.4-6.4-1-8-4.3c-0.3-0.6-0.7-1.2-1-1.7
	c-0.3,0-0.5-0.1-0.5-0.1c-0.8,0.3-1.5,0.7-2.3,1c-6,2.6-11.6,1.5-15.8-3.2c-0.3-0.3-0.6-0.6-0.9-1c-0.3,0.4-0.6,0.7-0.8,1
	c-1.1,1.9-2.8,3.1-4.6,4.3c-2.3,1.5-4.9,1.9-7.6,1c-1.6-0.5-3.2-1.1-4.5-2.2c-0.4-0.3-0.9-0.5-1.4-0.8c-0.5,0.7-0.8,1.2-1.2,1.7
	c-1.1,1.3-2.1,2.7-3.4,3.8c-2.7,2.3-5.8,3.4-9.3,2.4c-0.9-0.3-1.8-0.6-2.7-0.9c-2.9-1-4.7-3.1-5.7-5.9
	C50.21,168.2,50.11,167.5,49.71,166.2z"/>
<path class="st1" d="M94.31,152.4c0,3.5,1,6.6,1.9,9.7c0.2,0.6,0.5,1.2,0.8,1.7c1.2,1.9,3,3.1,5.2,3c2-0.1,3.8-1,5.2-2.6
	c2.1-2.6,3.3-5.5,3.7-8.8C107.11,153.6,98.41,152.1,94.31,152.4z"/>
<path class="st1" d="M74.41,155.3c-0.6,3.6,0.4,6.6,1.9,9.5c0.8,1.5,2.1,2.3,3.5,2.9c0.5,0.2,1.3,0.2,1.8,0c1.3-0.4,2.5-1.2,3.3-2.3
	c2.5-3.5,3.8-7.4,3.6-11.8c0-0.3-0.2-0.6-0.3-0.8C85.11,152.7,78.91,153.8,74.41,155.3z"/>
<path class="st1" d="M54.71,162.8c-0.1,1.8,0.3,3.6,0.8,5.4c0.6,2,2,3.3,4,4.1c1.3,0.5,2.4,0.4,3.5-0.4c3.9-2.7,7.4-8.1,5.7-14.9
	c-0.4,0-0.8,0-1.2,0.1c-1.4,0.7-3,1-4.5,1.3c-1.7,0.4-3.4,0.9-4.9,2C57.01,161.3,55.91,162,54.71,162.8z"/>
<path class="st1" d="M116.91,157.4c-0.3,0.7-0.7,1.1-0.7,1.6c-0.1,1.5-0.1,2.9-0.2,4.4c-0.2,2.2,0.5,4.1,1.6,5.9
	c0.6,1.1,1.5,1.4,2.6,1.2c1.7-0.3,2.9-1.4,4.6-2.1C123.41,163.7,120.71,160.3,116.91,157.4z"/>
<path class="st0" d="M68.71,112.4c2.2-0.8,4.3-0.6,6.4,0.3c3.1,1.4,13.9,4.8,17.1,5.3c2.4,0.4,4.8,0.8,7.2,1
	c1.9,0.2,3.8,0.1,5.6-0.6c1.8-0.6,3.6-1.2,5.5-1.6c1.5-0.3,2.9-0.8,4.1-1.5c1.4-0.8,2.8-0.7,4.1-0.7c0.6,0.6,0.3,1.1,0,1.5
	c-1,1.3-2.1,2.4-3.6,2.9c-3.9,1.3-7.8,2.6-11.9,3c-1.9,0.2-3.8,0.2-5.7-0.1c-1.8-0.3-3.5-0.5-5.3-0.8c-5.7-0.9-11.2-3-16.7-4.6
	c-1.9-0.6-3.7-1.6-5.5-2.4C69.51,114,69.51,114,68.71,112.4z"/>
<path class="st0" d="M93.21,196.8c2.1,0,4.2,0.3,6.2,0.9c0.6,0.2,1.2,0.5,1.7,0.8s0.5,1.3,0,1.7c-0.3,0.2-0.7,0.5-1.1,0.6
	c-0.5,0.1-1.1,0.1-1.6,0c-5.8-0.8-11.5,0.2-17.2,1.6c-0.8,0.2-1.6,0.4-2.5,0.4c-0.5,0-1-0.2-1.5-0.5c-0.6-0.3-0.7-1.2-0.2-1.6
	c0.3-0.3,0.7-0.5,1-0.7c2.1-0.9,4.2-1.8,6.6-2c1.6-0.1,3.1-0.6,4.6-0.9C90.71,196.9,91.91,196.9,93.21,196.8z"/>
<path class="st3" d="M138.61,85.9c-0.3-1.9-3.1-2.4-3.9-0.5c-1.2,3.1-1.8,6.4-3.4,9.4c-1.6,3.1-3.9,5.5-6.4,7.9
	c-6.8,6.6-15.2,8.7-24.4,9.4c-8.7,0.7-17.5-1.3-24.8-6.3c-2.4-1.6-4.3-3.5-6.1-5.7c-4.9-6-5.3-12.3-7.5-19.3c-0.5-1.6-2.9-1.8-3.4,0
	c-3.2,12.3,0.8,25.9,10.2,34.4c8.1,7.4,20.1,10.2,30.9,9.6c11.3-0.6,22-6.3,29.7-14.5C134.81,104.4,139.81,94,138.61,85.9z"/>
<path class="st3" d="M162.51,293.1c0.8-1.5,0.1-3.9-1.9-3.9c-5.1,0.2-10.2,1.8-15.3,2.5c-5,0.7-10,1.2-15,1.7
	c-9.3,0.9-18.6,1.1-27.9,1.4c-5.1,0.2-10.3,0.3-15.4,0.4c-7.1-1-14.3-2.6-21.2-4.2c-4.4-1-6.5-3.2-7.9-7.6c-1.3-3.9-2-8-2.8-11.9
	c-2.6-13.2-3.9-26.5-5.3-39.9c-0.4-4.6-0.7-9.3-1.1-13.9c-0.6-7.8-1.1-15.6-1.5-23.4c0.7,0.7,1.4,1.3,2.1,1.8
	c9,6.9,20.9,7.2,31.4,4.5c5.1-1.3,9.8-2.6,15.1-2.3c4.2,0.2,8.2,1.6,12.3,1.8c2.4,0.1,5-0.2,7.4-0.6c6.4-0.9,14.4-5.7,12.4-13.3
	c-0.5-1.7-2.6-2.4-3.8-0.8c-2,2.7-4.9,5.7-8.5,5.8c-2.9,0.1-6.7-1.1-9.8-2c-4.4-3.1-11-4-16.1-2.2c-1.1,0.1-2.2,0.2-3.4,0.4
	c-8.3,1.5-15.7,4.8-24.5,4.6c-2-0.1-3.7,0-5.5-0.7c-2.5-0.9-8.1-5.3-9.5-7.5c-0.1-0.2-0.2-0.4-0.4-0.6c-0.2-2.8-0.3-5.6-0.5-8.4
	c-0.5-7.1-0.9-14.3-1.4-21.4c0.6-11,1-22,1.3-33c0.4-16.2,0.5-32.6,2.8-48.6c4.2-30.2,24.1-59.3,56.3-62.8c2.3-0.3,2.2-3.8,0-4
	c-32.8-3.4-56.5,24.8-64.6,53.6c-4.9,17.2-5,35.5-5.7,53.2c-0.9,20.9-1.1,41.9,1.6,62.7c0.1,0.7,0.4,1.3,0.7,1.7
	c0.2,14,1,28.1,1.7,42.1c0.8,14.5,2,29,3.2,43.4c0.6,6.9,1.3,13.8,2,20.6c0.6,6.3,0.4,14,3.2,19.7c1.4,2.8,5.9,3.4,7.6,0.7
	c6.2,1.6,13.4,1.2,19.4,1.3c8.4,0.1,16.7-0.1,25.1-0.3c0.3,1.3,1.2,2.4,2.9,2.7c9.6,2,19.3-0.7,28.6-2.8c6.4-1.5,12.8-2.2,19.3-3
	c4.7-0.6,9.1-1.2,12.7-4.4C163.51,295.4,163.41,293.9,162.51,293.1z M55.71,295.5c0-0.3,0-0.7,0-1c0.4,0.3,0.7,0.6,1.1,0.9
	C56.41,295.5,56.01,295.5,55.71,295.5z"/>
<g>
	<g>
		<path d="M106.21,308.4c-2,0-4-0.4-5.7-0.8c-2.1-0.5-4.4-0.7-6.9-0.8c-0.7,0-1.3,0-2,0c-2.4,0-5,0-7.5-0.4
			c-0.9-0.1-1.7-0.2-2.7-0.2c-1.7,0-3.4,0.2-4.8,0.3c-4,0.5-8.1,0.7-12,0.9c-0.2,0-0.4,0-0.5,0c-1,0-2-0.1-2.9-0.2
			c-0.5-0.1-1.1-0.1-1.6-0.2l-1-0.1c-0.8-0.1-1.7-0.1-2.5-0.2c-0.6,0-1.1,0-1.7-0.1c-0.9,0-1.8,0-2.7-0.1c-0.7-0.1-1.5-0.1-2.3-0.1
			c-1,0-1.9,0.1-2.7,0.4c-0.3,0.1-0.7,0.1-1,0.1h-0.6c-0.1,0-0.2,0-0.3,0l-3.3-3.2c-0.1-0.8,0.3-1.1,0.6-1.4
			c0.1-0.1,0.2-0.1,0.3-0.2c0.2-0.2,0.5-0.6,0.5-1c0.1-0.5,0.1-1.1,0-1.9c-0.1-1-0.3-2.1-0.4-3.1c-0.3-2.8-0.7-5.6-1.2-8.4
			c-0.8-4.5-1-9.1-1.2-13.5c-0.1-2.3-0.2-4.6-0.4-6.9c-0.3-4-0.7-8-1.1-12l-0.3-3.4c-0.1-0.6-0.1-1.2-0.2-1.8
			c-0.1-1.7-0.3-3.4-0.7-5.1c-0.5-2-0.7-4.1-1-6.2c-0.2-2.1-0.5-4.2-1-6.3c-0.6-2.3-0.6-4.6-0.6-6.8c0-0.8,0-1.5-0.1-2.3
			c-0.1-3.1-0.2-6.2-0.3-9.3c0-1.2-0.1-2.5-0.1-3.7c0-0.1,0-0.3,0-0.4c0-0.4,0-0.8,0-1.2c0.4-2.2,0-4.4-0.4-6.6
			c-0.1-0.4-0.1-0.8-0.2-1.2c-0.1-0.9-0.3-1.9-0.5-2.8c-0.7-4.4-1.5-8.9-1.8-13.5c-0.1-0.8-0.1-1.7-0.1-2.5v-1c-0.1,0-0.3,0-0.3,0
			c-0.6,0.7-1.2,1.4-1.8,2.1c-1,1.2-2.1,2.4-2.9,3.8c-1,1.6-2,3.1-3.1,4.6c-0.6,0.9-1.3,1.8-1.9,2.7s-1.2,1.9-1.8,2.9
			c-1.1,1.7-2.2,3.4-3.4,5c-1.7,2.3-3,4.8-4.4,7.2c-1.1,2-2.2,4.1-3.5,6c-0.3,0.5-0.6,1.1-0.9,1.6c-0.1,0.3-0.3,0.6-0.4,0.9
			c-1.3,2.4-1.6,5.1-1,8.2c0.5,2.3,0.9,4.6,1.4,6.9c0.6,2.8,1.2,5.7,1.8,8.6c0.6,3.1,1,6.2,1.5,9.7c0.3,2.4,0.6,4.8,0.8,7.2
			c0.2,1.9,0.4,3.8,0.7,5.7c0.1,0.5,0.2,1.1,0.4,1.6c0.1,0.2,0.1,0.5,0.2,0.7c0.3,0,0.7,0,1,0c3.6,0,6.7,1.5,9.8,2.9l1.2,0.5
			c2,0.9,3.2,2.3,3.6,4.2c0.1,0.5,0.2,1.2-0.5,1.5c-0.2,0.1-0.6,0.2-0.8,0.2c-0.2,0-0.4,0-0.5-0.1c-1.8-1.4-3.9-2.3-5.9-3.1
			c-0.8-0.3-1.7-0.7-2.5-1.1c-0.7-0.3-1.4-0.6-2.2-0.8c-0.3-0.1-0.6-0.2-0.9-0.3c-0.5,0.5-0.3,0.8,0,1.1l0.1,0.1
			c1.1,1.4,2.1,3,3,4.5c1.3,2.1,2.7,4.2,4.4,6.1c0.2,0.2,0.4,0.5,0.6,0.8c0.3,0.6,0.2,1.6-0.4,2.2c-0.4,0.4-0.9,0.7-1.3,0.7
			c-0.2,0-0.4,0-0.5-0.1c-0.6-0.2-1.4-0.6-1.9-1.2c-1.5-1.7-3-3.5-4.6-5.6c-0.1-0.2-0.2-0.3-0.3-0.5c-0.4-0.6-0.8-1.1-1.5-1.4
			c-0.4,0.1-0.5,0.5-0.5,0.9c0,2.2-0.1,4.3-0.1,6.5l-0.1,3.9c0,1.2-0.8,2.1-2,2.2c-0.1,0-0.1,0-0.2,0c-1.1,0-2-0.8-2.1-2
			c-0.2-2.1-0.3-4.4-0.3-6.6c0-2.1,0-4.2,0.1-6.3c0.1-1.6,0.3-3.1,0.5-4.7c0.2-1.1,0.1-2.1-0.3-3c-1-2.3-1.5-4.9-1.6-8.4
			c0-0.8-0.1-1.6-0.3-2.4c0-0.3-0.1-0.7-0.1-1l-0.3-2.4c-0.4-2.8-0.7-5.7-1.1-8.5c-0.1-1-0.3-2.1-0.6-3.4c-0.3-1.6-0.7-3.2-1-4.7
			c-0.6-2.9-1.3-5.9-1.9-8.8c-0.4-2-0.6-4-0.7-6c-0.1-2.7,1.3-4.9,2.6-7.1c2.2-3.5,4.1-7,5.8-10.4c0.3-0.6,0.5-1,0.8-1.4
			c1-1.5,2.1-3.1,3.1-4.6c2-3,4.2-6.2,6.2-9.3c2.5-3.9,5.4-7.6,8.1-11.2l0.9-1.2c1-1.3,1.9-2.8,2.7-4.2c0.3-0.6,0.6-1.1,1-1.6
			c0.5-0.8,0.6-1.8,0.6-2.7c0-1.5,0-3,0-4.5c0-3,0.1-6.1-0.1-9.1c-0.3-5.1-0.4-10.3-0.5-15.4c-0.1-3.4-0.1-7-0.3-10.5
			c-0.1-2.7,0-5.4,0-8.1c0-1.9,0.1-3.8,0.1-5.7c0-0.7,0-1.4,0-2.1c0-1.3,0-2.6,0-3.9c-0.1-4.1,0.2-8.4,1.1-13.5
			c0.6-3.5,1-7.2,1.4-10.7l0.1-0.9c0.3-2.3,0.5-4.6,0.7-6.9c0.2-2.1,0.4-4.2,0.6-6.3c0.2-2,0.5-4,0.9-5.9c0.5-2.4,0.8-4.8,1.2-7.1
			c0.2-1.6,0.7-3.4,1.4-5.5c1.2-3.4,2.5-7.1,4.2-11.5c1.3-3.5,3.3-6.9,5.1-9.8c0.3-0.5,0.5-0.9,0.7-1.4c0.6-1.5,1.6-2.7,2.5-3.6
			c0.7-0.7,1.3-1.4,2-2.1c2-2.1,4-4.2,6.1-6.3c2.5-2.4,5.4-4.5,8.9-6.5c1.1-0.6,2.1-1.2,3.2-1.7l0.7-0.4c0.2-0.1,0.5-0.3,0.7-0.4
			c0.6-0.3,1.2-0.7,1.9-0.9c2.1-0.6,4-1.5,5.9-2.4c1.5-0.7,3-1.4,4.5-1.9l0.5-0.2c3.5-1.3,7.2-2.6,11.1-2.7c0.7,0,1.4-0.2,2-0.3
			s1.3-0.3,2-0.3h1.7c1.8-0.1,3.6-0.1,5.4-0.1c3.1,0,5.7,0.2,8,0.5c3.5,0.5,7.2,1.2,11.8,2.1c2.7,0.5,5.4,1.4,8.7,2.7
			c1.4,0.5,2.6,1.4,3.7,2.3c0.3,0.2,0.5,0.4,0.8,0.6c5,3.6,8.4,6.8,11,10.4c1.6,2.2,3,4.6,4.4,6.9c0.6,1,1.2,2,1.8,3
			c0.1,0.2,0.2,0.4,0.3,0.6c0.6,2.5,1.6,4.8,2.6,7c0.4,1,0.9,1.9,1.3,2.9c1.1,2.6,1.8,5.1,2.1,7.6c0.2,1.1,0.4,2.3,0.6,3.4
			c0.3,1.8,0.7,3.7,0.8,5.6v0.5c0.4,5.6,0.7,11.4-0.1,17.1c-0.3,2.3-0.6,4.5-0.9,6.8c-0.4,2.9-0.8,5.9-1.2,8.8c-0.3,2-0.8,4.1-1.2,6
			c-0.2,0.8-0.4,1.5-0.5,2.3c-0.5,2.2-1,4.4-1.5,6.5l-0.9,3.8c-0.3,1.2-0.5,2.3-0.8,3.5l-0.8,3.3c-0.9,3.8-1.9,7.8-2.9,11.7
			c-0.4,1.5-0.9,3-1.3,4.4c-0.4,1.3-0.8,2.7-1.2,4c-0.8,3-1.6,6.1-2.4,9.2c-0.3,1.3-0.7,2.7-1,4c0.2,0.1,0.4,0.2,0.5,0.3
			c0.3,0.2,0.5,0.3,0.7,0.4c4.6,0.8,8.3,1.9,11.5,3.4c0.7,0.3,1.4,0.5,2.3,0.7c0.4,0.1,0.7,0.2,1.1,0.3c0.1-0.2,0.3-0.4,0.4-0.6
			c0.3-0.5,0.6-0.9,0.9-1.4c2.6-5,5.2-10.1,7.8-15.1c1-1.9,2-3.9,2.9-5.8c0.8-1.6,1.6-3.3,2.5-4.9c0.8-1.5,1.5-2.9,2.3-4.4l0.9-1.7
			c1.9-3.6,3.7-7.1,5.1-10.8c0.9-2.2,1.9-4.5,2.9-6.6c0.5-1.1,1-2.1,1.5-3.2c0.5-1.2,1-2.4,1.6-3.6l0.7-1.6
			c-1.2-2.1-1.9-4.5-2.2-7.1c-0.4-3.3-1.2-6.4-2.3-10.1c-0.2-0.6-0.1-1.2,0.1-1.6c0.3-0.4,0.8-0.7,1.4-0.8c0.4-0.1,0.7-0.1,1-0.1
			c1.4,0,2.2,0.7,2.7,2.3c0.9,2.8,1.5,5.7,1.8,8.7c0,0.4,0.1,0.8,0.2,1.1c0,0.1,0.1,0.3,0.1,0.4c0.7-0.1,0.9-0.6,1-1
			c0-0.1,0-0.2,0.1-0.2c1.1-3.1,2.6-6.4,4.6-10.4c0.4-0.7,0.7-1.4,1.1-2.1c0.3-0.7,0.7-1.4,1-2.1c0.2-0.4,0.4-0.6,0.8-0.6
			c0.3,0,0.7,0.1,1.3,0.3c0.1,0,0.1,0.1,0.1,0.1c0,0.3,0,0.6,0,0.8c0,1.5,0,3.1-0.7,4.7c-1.1,2.7-2,5.4-3,8.1
			c-0.4,1.1-0.8,2.2-1.1,3.3c0.1,0.1,0.2,0.2,0.3,0.2s0.3-0.1,0.4-0.2c0.1,0,0.1-0.1,0.2-0.1c0.9-0.5,1.7-1,2.6-1.5
			c1.2-0.7,2.5-1.4,3.7-2.1c0.8-0.4,1.7-0.8,2.6-1.1c0.3-0.1,0.5-0.1,0.7-0.1c0.4,0,0.7,0.2,0.8,0.5c0.1,0.4-0.1,1.1-0.4,1.5
			c-0.4,0.5-0.9,1-1.6,1.5c-0.9,0.7-1.9,1.3-2.8,2c-0.9,0.6-1.7,1.2-2.6,1.8c-0.3,0.2-0.6,0.4-0.9,0.6c-0.6,0.4-1.3,0.8-1.8,1.5
			c-0.8,1-1.9,1.3-3.1,1.7c-0.3,0.1-0.6,0.2-0.9,0.3c-0.9,2.5-2.2,5-3.4,7.4c-1.4,2.8-2.9,5.8-3.9,8.9c-0.8,2.5-2.1,4.9-3.4,7.2
			l-0.4,0.7c-3.2,5.8-6,11.2-8.5,16.5c-0.6,1.2-1.2,2.5-1.8,3.7c-2.7,5.1-5.3,10.2-8,15.4c-1.2,2.3-3.6,3.8-6.1,3.8
			c-0.7,0-1.4-0.1-2-0.3c-1.7-0.5-3.5-1.1-5.6-2c-2.8-1.2-5.6-1.9-8.5-2.1c-0.1,0.1-0.1,0.2-0.2,0.3c-0.1,0.2-0.3,0.5-0.3,0.7
			c-0.2,0.9-0.4,1.7-0.6,2.6c-0.5,2.3-1.1,4.6-1.4,7c-0.2,1.3-0.4,2.5-0.6,3.7c-0.4,2.7-0.9,5.6-1.1,8.4c-0.1,1.4-0.3,2.9-0.5,4.3
			c-0.2,1.2-0.3,2.4-0.4,3.5c-0.2,2.8-0.4,5.5-0.4,8.2c0,2.1,0,4.2,0.1,6.3c0,0.8,0,1.7,0.1,2.5v0.2c0,0.4,0,0.9,0.1,1.4
			c0.5,4,1.1,7.9,1.6,11.9c0.1,0.8,0.3,1.6,0.4,2.4c0.1,0.3,0.1,0.7,0.2,1c0.2,1,0.4,2,0.6,3c0.5,2.4,0.9,5,1.5,7.4
			c0.2,0.9,0.5,1.9,0.7,2.8c0.3,1.1,0.6,2.2,0.8,3.3c0.5,2.7,1.4,5.3,2.3,7.8c0.5,1.4,1,2.8,1.4,4.2c0.1,0.3,0.2,0.5,0.2,0.8
			c0.2,0.6,0.4,1.3,0.5,2c0.3,2.3,1,4.5,1.6,6.6c0.3,1.1,0.7,2.3,1,3.4c0.1,0.4,0.2,0.8,0.3,1.2c0.3,1.1,0.6,2.2,0.8,3.4
			c0.1,1.1,0.5,2.2,0.8,3.3c0.2,0.6,0.4,1.2,0.5,1.9c0.3,1.1,0.5,2.4,0.7,3.7c0.4,2.5,1.3,4.8,2.2,7.1c0.5,1.2,1,2.4,1.4,3.7
			c0.2,0.7,0.5,1.4,0.8,2.1c0.2,0.7,0.5,1.3,0.7,2l0.1,0.2c0.4,1.2,0.8,2.4,1.4,3.6c0.4,0.8,0.7,1.8,0.9,2.7
			c0.1,0.3,0.2,0.6,0.2,0.9c0.1,0.3,0.1,0.6,0.2,0.9c0.1,0.4,0.1,0.8,0.3,1.2c0.4,1,0.5,1.7,0.2,2.3c-0.3,0.7-1.2,1.1-2.1,1.4
			c-0.7,0.2-1.5,0.3-2.5,0.3c-1.7,0-3.3,0.2-4.7,0.4c-5.1,1-10.3,2-15.3,2.9h-0.2c-1,0.2-2.1,0.3-3.2,0.5c-0.8,0.1-1.6,0.2-2.4,0.4
			l-3,0.5c-3.3,0.5-6.7,1.1-10.1,1.7c-5.9,1.1-11.9,1.7-17.9,1.8L106.21,308.4z M106.71,303.8c0.5,0.4,1,0.5,1.4,0.5
			c0.1,0,0.3,0,0.4,0c0.1,0,0.3,0,0.4,0h0.4c1.8,0,3.7,0,5.6-0.2c3.1-0.3,5.7-0.6,8.1-1c2.3-0.4,4.5-0.8,6.7-1.3
			c2.1-0.4,4.2-0.8,6.3-1.2c1.4-0.2,2.9-0.4,4.3-0.6c1.3-0.2,2.6-0.3,3.8-0.5c5.1-0.9,10.4-1.8,15.4-2.7l2-0.4
			c0.2,0,0.3-0.1,0.5-0.3c0.1-0.1,0.3-0.2,0.4-0.3c-0.4-1.2-0.8-2.4-1.2-3.6c-0.9-2.7-1.8-5.3-2.8-7.8c-2-5.1-3.5-9.4-4.2-14.2
			c-0.2-1.5-0.6-3.1-1.1-4.5c-0.1-0.5-0.3-1-0.4-1.6c-0.5-1.9-1-3.9-1.6-5.8c-0.4-1.5-0.8-3-1.2-4.5c-0.3-1.1-0.6-2.2-0.8-3.3
			c-0.5-2.2-1.1-4.6-1.9-6.8c-2.1-6.2-3.7-12.6-5-18.3c-1.2-5.1-2-10.3-2.8-15.3l-0.5-3c-1-6.4-1.2-12.8-0.7-19.8
			c0.1-1.3,0.2-2.5,0.3-3.8c0.2-2.1,0.3-4.2,0.5-6.3l0.2-1.6c0.3-3.2,0.6-6.5,1.2-9.7c0.8-4.6,1.8-9.3,2.8-13.6
			c1.2-5.5,2.6-11,3.8-15.6c0.4-1.6,0.9-3.2,1.3-4.7c0.5-1.8,1.1-3.7,1.5-5.6c0.6-2.4,1.2-4.7,1.8-7.1c1.1-4.1,2.2-8.3,3-12.5
			c0.6-2.9,1.3-5.9,2-8.8c0.9-3.8,1.8-7.7,2.5-11.5l0.3-1.9c0.6-3.5,1.2-7.1,1.6-10.6c0.7-7.4,0.7-14.9-0.3-22
			c-0.6-4.8-1.5-9.8-3.8-14.5c-0.6-1.3-1.4-2.8-1.8-4.4c-0.6-2.3-1.8-4.3-2.9-6.3c-0.3-0.5-0.6-1.1-0.9-1.6c-0.2-0.4-0.4-0.7-0.7-1
			c-0.2-0.3-0.5-0.7-0.7-1.1c-2.2-4.1-5.4-7.3-8.2-9.9c-1.1-1-2.5-2.3-4-3c-2.2-1.1-4.5-2.1-6.7-2.7c-8.8-2.8-16.3-4-23.3-4
			c-2.8,0-5.6,0.2-8.3,0.6c-0.6,0.1-1.1,0.2-1.7,0.2c-1,0.1-2,0.3-3,0.5c-2.6,0.5-5.2,1.4-8,2.8c-2.3,1.1-4.6,2-6.9,3
			c-1,0.4-2,0.8-3,1.2c-3.8,1.6-8.2,3.7-11.7,7.2c-2.7,2.6-5.3,5.4-7.8,8.1l-2,2.1c-0.4,0.4-0.6,0.9-0.9,1.3
			c-0.1,0.2-0.2,0.3-0.3,0.5l0,0.2c-0.5,0.8-1,1.6-1.4,2.4s-0.9,1.6-1.4,2.4c-1.1,2-2.3,4-3.1,6.2c-1,2.7-2,5.5-3,8.1
			c-0.7,1.7-1.3,3.4-1.9,5.1c-0.2,0.5-0.3,1.1-0.4,1.8c-0.3,3.5-0.8,7.2-1.9,11.8c-0.2,1-0.3,2-0.4,3c0,0.4-0.1,0.7-0.1,1.1
			c-0.2,2.2-0.4,4.3-0.7,6.5V80c-0.1,0.9-0.3,1.9-0.5,2.8c-0.3,1.7-0.7,3.5-0.4,5.3c0,0.3,0,0.6-0.1,0.9c0,0.1-0.1,0.3-0.1,0.4
			c-0.2,1.2-0.4,2.4-0.6,3.6c-0.6,3.7-1.3,7.5-1.2,11.4c0,0.9,0,1.8,0,2.7c0,0.5,0,0.9,0,1.4c0,1,0,1.9-0.1,2.9
			c-0.1,2.3-0.1,4.6-0.1,6.9c0,1.3,0,2.6-0.1,3.8c-0.1,2.5-0.2,5.2,0.3,7.8l1.7,1l0.1,0.1v1.8c0,1.5,0,2.9,0,4.3
			c0,0.4-0.1,0.9-0.1,1.3c0,0.3-0.1,0.6-0.1,0.9c-0.3,4.4-0.3,9-0.2,13.3v3.3c0,2.1,0,4.3,0.2,6.4c0.1,0.9,0.1,1.8,0.2,2.7
			c0.2,2.2,0.4,4.5,0.2,6.7c-0.1,0.9-0.1,2.1,0.2,3.1c0.3,1.2,0.3,2.4,0.3,3.5c-0.1,6.7,0.2,13.3,0.6,21.1c0.1,1.8,0.2,3.5,0.4,5.3
			c0.2,2.2,0.3,4.4,0.4,6.7c0.2,4.2,0.5,9.1,1.3,14.1c0.3,1.8,0.3,3.4,0,5.1c-0.1,0.5-0.1,1-0.1,1.5c0.3,2.5,0.4,5,0.5,7.5
			c0.1,1.3,0.1,2.6,0.2,3.8c0.1,2.1,0.3,4.2,0.6,6.2c0.2,2.1,0.4,4.2,0.6,6.3c0.3,4.3,0.5,8.7,0.8,13c0.2,3.2,0.4,6.4,0.6,9.6
			c0.1,1.3,0.2,2.6,0.4,3.8c0.1,0.5,0.1,1,0.2,1.5v0.3c0.5,3.9,0.9,7.7,1.4,11.6c0.2,1.4,0.4,2.8,0.5,4.3l0.3,1.9
			c0.2,0,0.4,0.1,0.6,0.1c0.5,0.1,0.8,0.2,1.2,0.2c0.9,0.1,1.9,0.1,2.8,0.1c1.7,0.1,3.4,0.1,5,0.3c0.7,0.1,1.5,0.1,2.3,0.1
			c1.9,0,3.8-0.2,5.8-0.6c1.5-0.3,2.9-0.3,4.2-0.3c0.4,0,0.9,0,1.3,0s0.8,0,1.1,0c0.9,0,1.8,0.1,2.7,0.1c0.7,0,1.4,0.1,2.1,0.1
			c1.8,0.1,3.6,0.1,5.4,0.1h2.5c0.6,0,1.3,0,1.9,0c1.1,0,2.2,0.1,3.2,0.1c0.3,0,0.6,0,0.8,0c0.9,0,1.8,0,2.7,0
			c3.3,0,6.6-0.1,9.9-0.4c0.2,0,0.4,0,0.6,0c0.3,0,0.6,0,0.9,0c0.3,0,0.6,0,0.9,0h0.4c0.8,0,1.8,0.1,2.7,0.7l0.1,0.1
			c0,0,0,0.1-0.1,0.1c-0.3,0.1-0.6,0.1-0.9,0.2C107.61,303.2,107.01,303.2,106.71,303.8z M104.51,303.8c0.2,0,0.5,0,0.7,0.1h0.1
			c0-0.1,0-0.1-0.1-0.2c0-0.1-0.1-0.2-0.1-0.2l0,0c-0.2,0-0.5,0-0.7,0.1l0,0C104.41,303.5,104.51,303.7,104.51,303.8z"/>
		<path d="M108.21,0.2c2.7,0,5.3,0.1,8,0.5c4,0.6,7.9,1.3,11.8,2.1c3,0.6,5.9,1.6,8.7,2.7c1.6,0.6,3,1.8,4.5,2.9
			c4.1,3,8,6.3,11,10.4c2.3,3.1,4.2,6.6,6.2,9.9c0.1,0.2,0.2,0.4,0.3,0.6c0.8,3.5,2.6,6.6,3.9,9.9c1,2.4,1.7,4.9,2.1,7.6
			c0.4,3,1.2,6,1.4,9c0.4,5.9,0.8,11.8-0.1,17.6c-0.8,5.2-1.4,10.4-2.2,15.6c-0.4,2.8-1.2,5.6-1.8,8.3c-0.7,3-1.3,5.9-2,8.9
			c-0.4,1.6-0.7,3.3-1.1,4.9c-1.2,5-2.4,10-3.7,15c-0.7,2.8-1.7,5.6-2.5,8.5c-1.2,4.3-2.2,8.7-3.4,13.4c0.7,0.3,1,0.7,1.4,0.7
			c4,0.7,7.8,1.6,11.4,3.4c1,0.5,2.2,0.6,3.5,1c0.5-0.7,1-1.4,1.3-2.1c2.6-5,5.2-10.1,7.8-15.1c1.8-3.6,3.6-7.1,5.4-10.7
			c1-2.1,2.1-4.1,3.2-6.1c1.9-3.5,3.7-7.1,5.1-10.8c1.3-3.3,2.9-6.5,4.3-9.8c0.8-1.7,1.5-3.5,2.3-5.3c-1.3-2.2-2-4.6-2.3-7.1
			c-0.4-3.5-1.3-6.8-2.3-10.1c-0.4-1.2,0.2-2,1.5-2.2c0.4-0.1,0.7-0.1,1-0.1c1.4,0,2.1,0.6,2.6,2.3c0.9,2.8,1.5,5.7,1.8,8.6
			c0.1,0.6,0.3,1.1,0.4,1.7c1-0.1,1.1-0.8,1.3-1.4c1.3-3.6,2.9-7,4.6-10.4c0.7-1.4,1.4-2.8,2.1-4.2c0.2-0.3,0.4-0.5,0.7-0.5
			c0.3,0,0.7,0.1,1.3,0.3c-0.1,1.8,0,3.6-0.7,5.5c-1.5,3.8-2.8,7.7-4.1,11.5c0.2,0.2,0.3,0.3,0.5,0.3s0.5-0.2,0.7-0.3
			c2.1-1.2,4.2-2.4,6.3-3.5c0.8-0.4,1.7-0.8,2.6-1.1c0.2-0.1,0.5-0.1,0.7-0.1c0.3,0,0.6,0.1,0.7,0.4c0.1,0.4-0.1,1-0.4,1.4
			c-0.4,0.6-1,1.1-1.6,1.5c-1.8,1.3-3.6,2.5-5.4,3.8c-0.9,0.7-2,1.1-2.7,2.1c-1,1.2-2.5,1.4-4.1,2c-2,5.5-5.4,10.5-7.3,16.3
			c-0.9,2.8-2.4,5.4-3.8,8c-3,5.4-5.8,10.9-8.5,16.5c-0.6,1.2-1.2,2.4-1.8,3.7c-2.7,5.1-5.3,10.2-8,15.4c-1.2,2.3-3.5,3.7-6,3.7
			c-0.7,0-1.3-0.1-2-0.3c-1.9-0.5-3.8-1.3-5.6-2c-2.7-1.2-5.5-1.9-8.6-2.1c-0.2,0.4-0.5,0.8-0.6,1.1c-0.7,3.2-1.6,6.3-2.1,9.6
			c-0.6,4.1-1.4,8.1-1.7,12.2c-0.2,2.6-0.6,5.2-0.9,7.8c-0.2,2.7-0.4,5.5-0.4,8.2c0,2.9,0.1,5.9,0.1,8.8c0,0.5,0,1.1,0.1,1.6
			c0.5,4,1.1,7.9,1.6,11.9c0.2,1.1,0.4,2.3,0.6,3.4c0.7,3.5,1.3,7,2.1,10.5c0.4,2,1.2,4,1.6,6.1c0.8,4.2,2.5,8,3.7,12
			c0.3,0.9,0.6,1.8,0.8,2.7c0.4,3.5,1.7,6.7,2.6,10.1c0.4,1.5,0.9,3,1.1,4.6c0.2,1.7,0.9,3.4,1.3,5.2c0.3,1.2,0.5,2.5,0.7,3.7
			c0.6,3.8,2.4,7.2,3.6,10.7c0.5,1.4,1,2.8,1.5,4.2c0.4,1.3,0.8,2.6,1.5,3.8c0.6,1.1,0.8,2.4,1.2,3.6c0.2,0.7,0.2,1.5,0.5,2.1
			c1,2.3-0.1,2.9-1.8,3.5c-0.8,0.3-1.7,0.3-2.5,0.3c-1.6,0-3.1,0.1-4.7,0.4c-5.2,1-10.3,2-15.5,2.9c-1.9,0.3-3.7,0.6-5.6,0.9
			c-4.4,0.7-8.7,1.4-13,2.2c-5.9,1.1-11.9,1.7-17.9,1.8c-0.1,0-0.2,0-0.3,0c-1.9,0-3.8-0.4-5.6-0.8c-2.3-0.5-4.6-0.7-6.9-0.8
			c-3.2,0-6.3,0-9.5-0.4c-0.9-0.1-1.8-0.2-2.7-0.2c-1.6,0-3.2,0.2-4.8,0.4c-4,0.5-8,0.7-12,0.9c-0.2,0-0.4,0-0.5,0
			c-1.5,0-3-0.3-4.5-0.4c-1.2-0.1-2.3-0.2-3.5-0.3c-1.5-0.1-3,0-4.4-0.2c-0.8-0.1-1.5-0.1-2.3-0.1c-0.9,0-1.8,0.1-2.7,0.4
			c-0.3,0.1-0.6,0.1-1,0.1c-0.2,0-0.4,0-0.6,0c-0.1,0-0.2,0-0.3,0c-1.2-1.1-2.3-2.2-3.2-3.2c-0.1-0.9,0.5-1,0.8-1.4
			c0.3-0.3,0.5-0.7,0.6-1.1c0.1-0.6,0.1-1.3,0-1.9c-0.5-3.9-0.9-7.7-1.6-11.6c-1.2-6.8-1-13.6-1.6-20.4c-0.4-5.1-1-10.3-1.5-15.4
			c-0.2-2.3-0.3-4.7-0.8-6.9c-1-4.1-1-8.3-2-12.4c-0.7-3-0.6-6.1-0.7-9.1c-0.2-4.3-0.2-8.6-0.3-12.9c0-0.5-0.1-1.1,0-1.6
			c0.5-2.7-0.1-5.2-0.6-7.8c-0.9-5.4-1.8-10.8-2.2-16.2c-0.1-1.2-0.1-2.5-0.1-3.7c-0.2,0-0.3,0-0.4,0h-0.1c-1.5,2-3.4,3.7-4.7,5.9
			c-1.5,2.5-3.3,4.9-4.9,7.3c-1.7,2.6-3.3,5.4-5.2,7.9c-3.1,4.1-5,9-7.9,13.2c-0.5,0.8-0.9,1.7-1.3,2.5c-1.4,2.6-1.6,5.4-1,8.3
			c1,5.2,2.2,10.3,3.2,15.4c0.6,3.2,1,6.4,1.5,9.7c0.5,4.3,1,8.6,1.5,12.8c0.1,0.8,0.4,1.6,0.6,2.5c0.4,0,0.7,0,1.1,0
			c4,0,7.4,1.8,10.9,3.4c1.8,0.8,3.1,2.1,3.5,4.1c0.1,0.6,0.1,1.1-0.4,1.4c-0.2,0.1-0.5,0.2-0.8,0.2c-0.2,0-0.3,0-0.4-0.1
			c-2.5-2-5.6-2.9-8.4-4.2c-1-0.5-2.1-0.8-3.1-1.1c-0.8,0.7-0.2,1.1,0,1.5c2.6,3.4,4.5,7.3,7.5,10.5c0.2,0.2,0.4,0.5,0.5,0.8
			c0.3,0.6,0.1,1.5-0.4,2c-0.4,0.4-0.8,0.6-1.2,0.6c-0.2,0-0.3,0-0.5-0.1c-0.7-0.3-1.4-0.6-1.8-1.1c-1.6-1.8-3.1-3.7-4.6-5.6
			c-0.6-0.7-1-1.6-1.9-1.9c-0.6,0.2-0.6,0.6-0.6,1c-0.1,3.5-0.1,6.9-0.2,10.4c0,1.2-0.8,2-1.9,2.1c-0.1,0-0.1,0-0.2,0
			c-1,0-1.9-0.7-2-1.8c-0.2-2.2-0.3-4.4-0.3-6.6c0-2.1,0-4.2,0.1-6.3c0.1-1.6,0.3-3.1,0.5-4.7c0.2-1.1,0.1-2.1-0.3-3.1
			c-1.1-2.7-1.5-5.5-1.6-8.3c0-1.2-0.3-2.3-0.4-3.4c-0.5-3.7-0.9-7.3-1.4-11c-0.1-1.1-0.4-2.3-0.6-3.4c-1-4.5-2-9-2.9-13.6
			c-0.4-2-0.6-4-0.7-6c-0.1-2.6,1.3-4.9,2.6-7c2.1-3.4,4.1-6.9,5.8-10.5c0.2-0.5,0.5-0.9,0.8-1.4c3.1-4.6,6.3-9.2,9.3-13.9
			c2.8-4.3,6-8.4,9.1-12.5c1.4-1.8,2.5-3.9,3.7-5.9c0.5-0.8,0.6-1.8,0.6-2.7c0-4.5,0.2-9.1-0.1-13.6c-0.5-8.6-0.4-17.2-0.7-25.9
			c-0.2-4.6,0.1-9.2,0.1-13.8c0-2,0-4,0-6c-0.1-4.5,0.3-9,1.1-13.5c0.6-3.8,1.1-7.7,1.5-11.6c0.5-4.4,0.9-8.8,1.3-13.2
			c0.2-2,0.5-4,0.9-5.9c0.5-2.4,0.8-4.8,1.2-7.2c0.2-1.9,0.8-3.7,1.4-5.5c1.3-3.9,2.8-7.7,4.2-11.5c1.3-3.4,3.2-6.6,5.1-9.8
			c0.3-0.4,0.5-0.9,0.7-1.4c0.6-1.4,1.5-2.5,2.5-3.6c2.7-2.8,5.3-5.7,8.1-8.4c2.7-2.6,5.7-4.7,8.9-6.5c1.3-0.7,2.6-1.4,3.9-2.1
			c0.8-0.4,1.6-1,2.5-1.3c3.6-1.1,6.9-3.1,10.5-4.4c3.7-1.4,7.5-2.8,11.5-2.8c1.3,0,2.7-0.6,4-0.6C103.51,0.3,105.81,0.2,108.21,0.2
			 M60.01,303c2,0,3.9-0.2,5.9-0.6c1.4-0.3,2.8-0.3,4.2-0.3c0.8,0,1.6,0,2.4,0c1.6,0,3.1,0.2,4.7,0.2c2.6,0.1,5.3,0.1,7.9,0.1
			c1.7,0,3.4,0.1,5.2,0.1c0.3,0,0.6,0,0.8,0c4.2-0.1,8.4,0,12.6-0.5c0.2,0,0.4,0,0.6,0c0.6,0,1.2,0.1,1.8,0.1h0.1c0.1,0,0.2,0,0.2,0
			c0.9,0,1.8,0.1,2.6,0.7c-0.9,0.3-2,0-2.5,1c0.5,0.5,1.1,0.6,1.6,0.6c0.3,0,0.6,0,0.8,0c2,0,4,0,6-0.2c2.7-0.3,5.4-0.6,8.1-1
			c4.4-0.8,8.7-1.7,13-2.5c2.7-0.5,5.4-0.7,8.1-1.2c5.8-1,11.6-2,17.4-3c0.3,0,0.5-0.3,1.1-0.6c-1.4-4-2.6-7.8-4.1-11.5
			c-1.8-4.6-3.5-9.2-4.2-14.2c-0.3-2.1-1-4.1-1.5-6.1c-0.9-3.5-1.9-6.9-2.8-10.4c-0.9-3.4-1.6-6.8-2.7-10c-2.1-6-3.5-12.1-5-18.3
			c-1.4-6-2.3-12.2-3.3-18.3c-1.1-6.6-1.2-13.2-0.7-19.8c0.3-3.4,0.5-6.7,0.8-10.1c0.4-3.8,0.7-7.5,1.3-11.3
			c0.8-4.6,1.8-9.1,2.8-13.6c1.2-5.2,2.5-10.4,3.8-15.6c0.9-3.5,2-6.9,2.8-10.3c1.6-6.5,3.5-13,4.8-19.6c1.3-6.8,3.3-13.5,4.5-20.3
			c0.7-4.1,1.4-8.3,1.9-12.5c0.7-7.3,0.7-14.7-0.3-22c-0.7-5-1.6-10-3.8-14.6c-0.7-1.4-1.4-2.9-1.8-4.4c-0.8-2.9-2.4-5.4-3.8-7.9
			c-0.4-0.7-1-1.4-1.4-2.1c-2.1-3.9-5-7-8.2-10c-1.2-1.1-2.5-2.3-4-3.1c-2.1-1.1-4.4-2-6.7-2.7c-7.7-2.4-15.4-4.1-23.4-4.1
			c-2.7,0-5.5,0.2-8.3,0.6c-1.6,0.2-3.1,0.4-4.7,0.7c-2.8,0.6-5.5,1.6-8,2.8c-3.2,1.5-6.6,2.8-9.8,4.2c-4.3,1.8-8.4,3.9-11.8,7.2
			c-3.4,3.3-6.6,6.8-9.9,10.2c-0.5,0.5-0.8,1.2-1.2,1.8c-0.5,0.9-1.1,1.8-1.6,2.7c-1.5,2.9-3.4,5.6-4.5,8.7c-1.6,4.4-3.3,8.8-5,13.3
			c-0.2,0.6-0.3,1.2-0.4,1.8c-0.3,4-1,7.9-1.9,11.8c-0.3,1.3-0.4,2.7-0.5,4c-0.2,2.3-0.5,4.6-0.7,6.9c-0.3,2.7-1.3,5.3-0.9,8.1
			c0.1,0.4-0.1,0.8-0.2,1.2c-0.7,5-1.9,9.9-1.8,15c0,1.4-0.1,2.7-0.1,4.1c-0.1,3.3-0.2,6.5-0.1,9.8c0.1,3.9-0.4,7.8,0.3,11.6
			c0.6,0.3,1.2,0.7,1.7,1c0,2.1,0,4.1,0,6.1c0,0.7-0.2,1.5-0.2,2.2c-0.4,4.9-0.3,9.9-0.2,14.8c0,2.7,0,5.5,0.2,8.2
			c0.2,3.1,0.6,6.2,0.4,9.4c-0.1,1-0.1,2.1,0.2,3.1c0.3,1.2,0.3,2.3,0.3,3.4c-0.1,7,0.2,14.1,0.6,21.1c0.2,4,0.6,8,0.8,12
			c0.2,4.7,0.5,9.5,1.3,14.1c0.3,1.7,0.3,3.3,0,5c-0.1,0.5-0.1,1-0.1,1.5c0.4,3.8,0.5,7.5,0.8,11.3c0.3,4.2,0.8,8.4,1.1,12.6
			c0.5,7.6,0.9,15.1,1.4,22.7c0.1,1.8,0.4,3.6,0.6,5.3c0.5,4,0.9,7.9,1.4,11.9c0.2,2.1,0.5,4.1,0.8,6.3c0.7,0.1,1.3,0.3,2,0.3
			c2.6,0.2,5.3,0.2,7.9,0.4C58.51,303,59.21,303,60.01,303 M105.51,304c-0.1-0.4-0.2-0.6-0.3-0.6h-0.1c-0.3,0-0.5,0-0.7,0.1v0.4
			C104.71,303.9,105.01,303.9,105.51,304 M108.21,0c-1.8,0-3.6,0.1-5.4,0.1c-0.6,0-1.2,0-1.7,0c-0.7,0-1.4,0.2-2,0.3
			c-0.7,0.1-1.3,0.3-2,0.3c-4,0-7.6,1.4-11.1,2.7l-0.5,0.2c-1.5,0.6-3.1,1.3-4.5,2c-1.9,0.9-3.9,1.8-5.9,2.4
			c-0.7,0.2-1.3,0.6-1.9,0.9c-0.2,0.1-0.5,0.3-0.7,0.4l-0.7,0.4c-1.1,0.6-2.1,1.1-3.2,1.7c-3.5,2-6.4,4.1-8.9,6.5
			c-2.1,2-4.1,4.2-6.1,6.3c-0.7,0.7-1.3,1.4-2,2.1c-0.9,1-1.9,2.1-2.6,3.7c-0.2,0.4-0.4,0.9-0.7,1.3c-1.8,2.9-3.8,6.3-5.1,9.8
			c-1.7,4.5-3.1,8.2-4.2,11.5c-0.7,2.1-1.2,3.9-1.4,5.5c-0.3,2.4-0.7,4.8-1.2,7.1c-0.4,1.9-0.7,3.9-0.9,5.9
			c-0.2,2.1-0.4,4.2-0.6,6.3c-0.2,2.2-0.4,4.6-0.7,6.9l-0.1,0.9c-0.4,3.5-0.8,7.1-1.4,10.7c-0.9,5.1-1.2,9.4-1.1,13.5
			c0,1.3,0,2.6,0,3.9c0,0.7,0,1.4,0,2.1c0,1.9,0,3.8-0.1,5.7c-0.1,2.7-0.1,5.4,0,8.1c0.1,3.5,0.2,7.1,0.3,10.5
			c0.1,5,0.2,10.2,0.5,15.4c0.2,3,0.1,6.1,0.1,9.1c0,1.5,0,3,0,4.5c0,1-0.1,1.9-0.5,2.6c-0.3,0.5-0.7,1.1-1,1.6
			c-0.8,1.4-1.7,2.9-2.7,4.2l-1,1.3c-2.8,3.6-5.6,7.3-8.1,11.2c-2,3.1-4.1,6.2-6.2,9.3c-1,1.5-2.1,3.1-3.1,4.6
			c-0.3,0.4-0.5,0.8-0.8,1.4c-1.7,3.4-3.7,6.9-5.8,10.4c-1.3,2.2-2.7,4.4-2.6,7.1c0.1,2,0.3,4,0.7,6c0.6,3,1.2,5.9,1.9,8.8
			c0.3,1.6,0.7,3.2,1,4.7c0.3,1.2,0.5,2.4,0.6,3.4c0.4,2.8,0.7,5.7,1.1,8.5l0.3,2.4c0,0.3,0.1,0.7,0.1,1c0.1,0.8,0.2,1.6,0.3,2.4
			c0.1,3.5,0.6,6.1,1.6,8.4c0.4,0.9,0.5,1.9,0.3,2.9c-0.3,1.6-0.4,3.1-0.5,4.7c-0.1,2.1-0.1,4.2-0.1,6.3c0,2.3,0.2,4.5,0.3,6.6
			c0.1,1.2,1,2.1,2.2,2.1c0.1,0,0.1,0,0.2,0c1.3-0.1,2.1-1,2.2-2.3c0-1.3,0-2.6,0.1-4c0-2.2,0.1-4.3,0.1-6.5c0-0.4,0.1-0.7,0.4-0.8
			c0.6,0.2,1,0.7,1.4,1.3c0.1,0.2,0.2,0.3,0.4,0.5c1.6,2.1,3.1,3.9,4.6,5.6c0.5,0.6,1.3,1,1.9,1.2c0.2,0.1,0.4,0.1,0.6,0.1
			c0.5,0,1-0.2,1.4-0.7c0.6-0.6,0.8-1.6,0.4-2.3c-0.2-0.3-0.4-0.6-0.6-0.8c-1.7-1.9-3.1-4-4.4-6.1c-1-1.5-2-3-3.1-4.5l-0.1-0.1
			c-0.3-0.3-0.4-0.5-0.1-0.9c0.3,0.1,0.5,0.2,0.8,0.3c0.7,0.2,1.5,0.5,2.1,0.8c0.8,0.4,1.7,0.7,2.5,1.1c2,0.8,4.1,1.7,5.8,3.1
			c0.1,0.1,0.3,0.2,0.5,0.2c0.3,0,0.6-0.1,0.9-0.2c0.8-0.4,0.6-1.3,0.6-1.6c-0.4-1.9-1.6-3.4-3.6-4.3c-0.4-0.2-0.8-0.4-1.2-0.5
			c-3.1-1.4-6.2-2.9-9.9-2.9c-0.3,0-0.6,0-0.9,0c-0.1-0.2-0.1-0.4-0.2-0.6c-0.2-0.6-0.3-1.1-0.4-1.6c-0.2-1.9-0.4-3.8-0.7-5.7
			c-0.3-2.3-0.5-4.8-0.8-7.2c-0.4-3.5-0.9-6.6-1.5-9.7c-0.5-2.9-1.2-5.8-1.8-8.6c-0.5-2.3-1-4.6-1.4-6.9c-0.6-3.1-0.3-5.8,1-8.1
			c0.2-0.3,0.3-0.6,0.4-0.9c0.3-0.5,0.5-1.1,0.9-1.6c1.3-1.9,2.4-4,3.5-6.1c1.3-2.4,2.7-4.9,4.3-7.2c1.2-1.6,2.3-3.4,3.4-5
			c0.6-0.9,1.2-1.9,1.8-2.9c0.6-0.9,1.3-1.8,1.9-2.7c1-1.5,2.1-3,3.1-4.6c0.8-1.4,1.9-2.6,2.9-3.7c0.6-0.7,1.2-1.3,1.7-2
			c0,0,0,0,0.1,0l0,0c0,0.3,0,0.6,0,0.9c0,0.8,0.1,1.7,0.1,2.5c0.3,4.5,1,9.1,1.8,13.5c0.2,0.9,0.3,1.9,0.5,2.8
			c0.1,0.4,0.1,0.8,0.2,1.2c0.4,2.1,0.7,4.3,0.4,6.5c-0.1,0.4-0.1,0.8,0,1.2c0,0.1,0,0.3,0,0.4c0,1.2,0.1,2.5,0.1,3.7
			c0.1,3,0.1,6.2,0.3,9.3c0,0.8,0,1.5,0.1,2.3c0,2.3,0.1,4.6,0.6,6.9c0.5,2.1,0.8,4.2,1,6.3c0.2,2,0.5,4.1,1,6.2
			c0.4,1.6,0.5,3.4,0.7,5c0,0.6,0.1,1.2,0.2,1.8c0.1,1.1,0.2,2.3,0.3,3.4c0.4,3.9,0.8,8,1.1,12c0.2,2.3,0.3,4.6,0.4,6.9
			c0.2,4.5,0.4,9.1,1.2,13.6c0.5,2.8,0.9,5.6,1.2,8.4c0.1,1,0.3,2.1,0.4,3.1c0.1,0.7,0.1,1.3,0,1.8c0,0.3-0.2,0.6-0.5,0.9
			c-0.1,0.1-0.2,0.1-0.2,0.2c-0.3,0.2-0.8,0.6-0.7,1.4c0,0.1,0,0.1,0.1,0.1l0.6,0.6l2.6,2.6c0,0,0.1,0.1,0.2,0.1l0,0
			c0.1,0,0.2,0,0.3,0c0.1,0,0.2,0,0.3,0c0.1,0,0.2,0,0.3,0c0.3,0,0.7,0,1-0.1c0.8-0.2,1.6-0.3,2.7-0.3c0.8,0,1.5,0.1,2.3,0.1
			c0.9,0.1,1.8,0.1,2.7,0.1c0.6,0,1.1,0,1.7,0.1c0.8,0,1.7,0.1,2.5,0.2l1,0.1c0.5,0,1,0.1,1.6,0.2c1,0.1,1.9,0.2,2.9,0.2
			c0.2,0,0.4,0,0.6,0c4.5-0.2,8.2-0.4,12-0.9c1.4-0.2,3.1-0.3,4.8-0.3c1,0,1.9,0.1,2.7,0.2c2.5,0.3,5,0.4,7.5,0.4c0.7,0,1.3,0,2,0
			c2.5,0,4.7,0.3,6.8,0.8c1.7,0.4,3.7,0.8,5.7,0.8c0.1,0,0.2,0,0.3,0c6-0.1,12-0.7,17.9-1.8c3.3-0.6,6.8-1.2,10-1.7
			c1-0.2,2-0.3,3-0.5c0.8-0.1,1.6-0.3,2.4-0.4c1-0.2,2.1-0.3,3.2-0.5h0.2c5-0.9,10.2-1.9,15.3-2.9c1.4-0.3,2.9-0.4,4.7-0.4
			c0.7,0,1.7-0.1,2.6-0.4c1-0.3,1.9-0.7,2.2-1.5c0.3-0.6,0.2-1.4-0.2-2.4c-0.2-0.4-0.2-0.8-0.3-1.2c-0.1-0.3-0.1-0.6-0.2-0.9
			c-0.1-0.3-0.2-0.6-0.2-0.9c-0.2-0.9-0.5-1.9-0.9-2.7c-0.6-1.1-1-2.3-1.4-3.6l-0.1-0.2c-0.2-0.7-0.5-1.4-0.7-2
			c-0.3-0.7-0.5-1.4-0.8-2.1c-0.4-1.2-0.9-2.5-1.4-3.7c-0.9-2.3-1.8-4.6-2.2-7c-0.2-1.4-0.5-2.6-0.7-3.7c-0.2-0.6-0.3-1.3-0.5-1.9
			c-0.3-1.1-0.6-2.2-0.8-3.3c-0.2-1.2-0.5-2.3-0.8-3.4c-0.1-0.4-0.2-0.8-0.3-1.2c-0.3-1.2-0.6-2.3-1-3.4c-0.6-2.1-1.3-4.3-1.6-6.6
			c-0.1-0.7-0.3-1.4-0.5-2c-0.1-0.3-0.2-0.5-0.2-0.8c-0.4-1.4-0.9-2.8-1.4-4.2c-0.9-2.5-1.8-5.1-2.3-7.8c-0.2-1.1-0.5-2.2-0.8-3.3
			c-0.3-0.9-0.5-1.9-0.7-2.8c-0.5-2.5-1-5-1.5-7.4c-0.2-1-0.4-2-0.6-3.1c-0.1-0.3-0.1-0.7-0.2-1c-0.2-0.8-0.3-1.6-0.4-2.4
			c-0.6-4-1.1-8.1-1.6-11.9c-0.1-0.4-0.1-0.9-0.1-1.3v-0.2c0-0.8,0-1.7-0.1-2.5c0-2.1-0.1-4.2-0.1-6.3c0-2.7,0.2-5.4,0.4-8.2
			c0.1-1.2,0.3-2.4,0.4-3.5c0.2-1.4,0.4-2.9,0.5-4.3c0.2-2.8,0.6-5.7,1.1-8.4c0.2-1.2,0.4-2.5,0.6-3.8c0.3-2.3,0.9-4.7,1.4-7
			c0.2-0.9,0.4-1.7,0.6-2.6c0-0.2,0.2-0.4,0.3-0.7c0.1-0.1,0.1-0.2,0.2-0.3c2.8,0.2,5.5,0.9,8.4,2c2.2,0.9,4,1.6,5.7,2.1
			c0.7,0.2,1.4,0.3,2.1,0.3c2.6,0,5-1.5,6.2-3.8c2.7-5.1,5.3-10.2,8-15.4c0.6-1.1,1.1-2.2,1.8-3.7c2.6-5.3,5.3-10.7,8.5-16.5
			l0.4-0.7c1.3-2.3,2.6-4.7,3.4-7.3c1-3.1,2.5-6,3.9-8.8c1.2-2.4,2.4-4.8,3.3-7.3c0.3-0.1,0.6-0.2,0.9-0.3c1.2-0.4,2.4-0.7,3.2-1.7
			c0.5-0.6,1.1-1,1.8-1.4c0.3-0.2,0.6-0.4,0.9-0.6c0.9-0.6,1.7-1.2,2.6-1.8c0.9-0.6,1.9-1.3,2.8-2c0.7-0.5,1.2-1,1.6-1.6
			c0.3-0.4,0.6-1.1,0.4-1.6c-0.1-0.4-0.4-0.6-0.9-0.6c-0.2,0-0.5,0.1-0.8,0.2c-0.9,0.3-1.8,0.7-2.6,1.2c-1.2,0.7-2.5,1.4-3.7,2.1
			c-0.9,0.5-1.7,1-2.6,1.5c-0.1,0-0.1,0.1-0.2,0.1c-0.1,0.1-0.2,0.2-0.3,0.2s-0.1,0-0.2-0.1c0.4-1.1,0.7-2.1,1.1-3.2
			c0.9-2.7,1.9-5.5,3-8.1c0.6-1.6,0.7-3.2,0.7-4.7c0-0.3,0-0.6,0-0.8c0-0.1-0.1-0.2-0.2-0.2c-0.7-0.2-1.1-0.3-1.4-0.3
			c-0.5,0-0.8,0.3-0.9,0.6c-0.4,0.7-0.7,1.4-1,2.1c-0.4,0.7-0.7,1.4-1.1,2.1c-2.1,4-3.5,7.3-4.6,10.4c0,0.1-0.1,0.2-0.1,0.2
			c-0.1,0.4-0.2,0.8-0.8,0.9c0-0.1-0.1-0.2-0.1-0.3c-0.1-0.4-0.2-0.8-0.2-1.1c-0.3-2.9-0.9-5.8-1.8-8.7c-0.6-1.7-1.4-2.4-2.8-2.4
			c-0.3,0-0.6,0-1,0.1c-0.7,0.1-1.2,0.4-1.5,0.8c-0.3,0.4-0.3,1-0.1,1.7c1.1,3.7,1.9,6.8,2.3,10.1c0.3,2.7,1,5,2.2,7.1l-0.7,1.6
			c-0.5,1.2-1,2.4-1.6,3.6c-0.5,1.1-1,2.1-1.5,3.2c-1,2.2-2,4.4-2.9,6.6c-1.5,3.7-3.3,7.2-5.1,10.8l-0.9,1.7
			c-0.8,1.5-1.5,2.9-2.3,4.4c-0.8,1.6-1.6,3.3-2.5,4.9c-1,1.9-1.9,3.9-2.9,5.8c-2.5,4.8-5,9.8-7.8,15.1c-0.3,0.5-0.6,0.9-0.9,1.4
			c-0.1,0.2-0.2,0.3-0.3,0.5c-0.4-0.1-0.7-0.2-1-0.2c-0.8-0.2-1.6-0.3-2.2-0.7c-3.2-1.6-6.9-2.6-11.5-3.4c-0.2,0-0.4-0.2-0.7-0.3
			c-0.1-0.1-0.3-0.2-0.4-0.3c0.3-1.3,0.7-2.6,1-3.9c0.8-3.2,1.6-6.2,2.4-9.2c0.4-1.3,0.8-2.7,1.2-4c0.5-1.4,0.9-2.9,1.3-4.4
			c1-3.9,2-7.9,2.9-11.7l0.8-3.3c0.3-1.1,0.5-2.3,0.8-3.4c0.1-0.5,0.2-1,0.3-1.5l0.6-2.5c0.5-2.1,1-4.3,1.4-6.4
			c0.2-0.8,0.3-1.5,0.5-2.3c0.5-2,0.9-4,1.2-6.1c0.5-2.9,0.9-5.9,1.2-8.8c0.3-2.2,0.6-4.5,0.9-6.8c0.8-5.7,0.5-11.5,0.1-17.1v-0.5
			c-0.1-1.9-0.5-3.8-0.8-5.6c-0.2-1.1-0.4-2.3-0.6-3.4c-0.4-2.5-1.1-5-2.1-7.6c-0.4-1-0.9-2-1.3-2.9c-1-2.2-2.1-4.5-2.6-7
			c0-0.2-0.1-0.4-0.3-0.7c-0.6-1-1.2-2-1.8-3c-1.4-2.3-2.8-4.7-4.4-6.9c-2.6-3.6-6-6.8-11-10.4c-0.3-0.2-0.5-0.4-0.8-0.6
			c-1.2-0.9-2.4-1.8-3.8-2.3c-3.3-1.3-6.1-2.2-8.8-2.7c-4.6-0.9-8.3-1.6-11.8-2.1C113.91,0.1,111.31,0,108.21,0L108.21,0z
			 M37.11,129.8c-0.4-2.6-0.4-5.2-0.3-7.7c0-1.2,0.1-2.5,0.1-3.8c0-2.3,0-4.6,0.1-6.9c0-1,0-1.9,0.1-2.9c0-0.5,0-0.9,0-1.4
			c0-0.9,0.1-1.8,0-2.7c-0.1-3.8,0.6-7.7,1.2-11.4c0.2-1.2,0.4-2.4,0.6-3.6c0-0.1,0.1-0.3,0.1-0.4c0.1-0.3,0.1-0.6,0.1-0.9
			c-0.2-1.8,0.1-3.5,0.4-5.2c0.2-0.9,0.4-1.9,0.5-2.8v-0.4c0.2-2.2,0.4-4.4,0.7-6.5c0-0.3,0.1-0.7,0.1-1.1c0.1-1,0.2-2,0.4-2.9
			c1-4.7,1.6-8.3,1.9-11.9c0.1-0.7,0.2-1.3,0.4-1.8c0.6-1.7,1.3-3.4,1.9-5.1c1-2.7,2.1-5.4,3-8.1c0.8-2.2,2-4.2,3.1-6.2
			c0.5-0.8,0.9-1.6,1.4-2.4c0.4-0.8,0.9-1.6,1.4-2.4l0.2-0.3c0.1-0.2,0.2-0.3,0.3-0.5c0.3-0.5,0.5-0.9,0.9-1.3
			c0.7-0.7,1.3-1.4,2-2.1c2.5-2.7,5.2-5.5,7.8-8.1c3.5-3.4,7.9-5.5,11.7-7.1c1-0.4,2-0.8,3-1.2c2.3-0.9,4.6-1.9,6.9-3
			c2.8-1.3,5.4-2.3,8-2.8c1-0.2,2-0.3,3-0.5c0.6-0.1,1.1-0.1,1.7-0.2c2.7-0.4,5.5-0.6,8.3-0.6c7.1,0,14.5,1.3,23.3,4
			c2.2,0.7,4.4,1.6,6.6,2.7c1.5,0.8,2.8,2,3.9,3c2.8,2.6,6,5.8,8.1,9.9c0.2,0.4,0.5,0.8,0.7,1.1s0.5,0.7,0.7,1
			c0.3,0.5,0.6,1.1,0.9,1.6c1.1,2,2.3,4,2.9,6.3c0.4,1.6,1.1,3.1,1.8,4.4c2.3,4.7,3.2,9.7,3.8,14.5c0.9,7.2,1,14.6,0.3,22
			c-0.4,3.5-1,7.1-1.5,10.6l-0.3,1.9c-0.6,3.9-1.6,7.8-2.5,11.5c-0.7,2.9-1.4,5.8-2,8.8c-0.8,4.2-1.9,8.5-3,12.5
			c-0.6,2.3-1.2,4.7-1.8,7.1c-0.5,1.9-1,3.8-1.5,5.6c-0.4,1.5-0.9,3.1-1.3,4.7c-1.2,4.6-2.5,10.1-3.8,15.6c-1,4.4-2,9-2.8,13.6
			c-0.5,3.2-0.9,6.5-1.2,9.7l-0.2,1.6c-0.2,2.1-0.4,4.2-0.5,6.3c-0.1,1.3-0.2,2.5-0.3,3.8c-0.6,7-0.4,13.5,0.7,19.9
			c0.2,1,0.3,2,0.5,3c0.8,5,1.6,10.3,2.8,15.3c1.3,5.7,2.8,12.1,5,18.3c0.8,2.2,1.3,4.5,1.9,6.7c0.3,1.1,0.5,2.2,0.8,3.3
			c0.4,1.5,0.8,3,1.2,4.5c0.5,1.9,1.1,3.9,1.6,5.8c0.1,0.5,0.3,1.1,0.4,1.6c0.4,1.5,0.8,3,1.1,4.5c0.7,4.8,2.2,9.1,4.2,14.2
			c1,2.6,1.9,5.1,2.8,7.8c0.4,1.1,0.8,2.3,1.2,3.5c-0.1,0.1-0.2,0.1-0.3,0.2c-0.2,0.1-0.4,0.2-0.5,0.2l-2.1,0.4
			c-5,0.9-10.2,1.8-15.3,2.7c-1.3,0.2-2.6,0.4-3.8,0.5c-1.4,0.2-2.9,0.4-4.3,0.6c-2.1,0.4-4.2,0.8-6.3,1.2c-2.2,0.4-4.5,0.9-6.7,1.3
			c-2.4,0.4-5,0.7-8.1,1c-1.8,0.2-3.7,0.2-5.6,0.2h-0.4c-0.1,0-0.3,0-0.4,0c-0.1,0-0.3,0-0.4,0c-0.4,0-0.9-0.1-1.3-0.4
			c0.3-0.4,0.8-0.5,1.3-0.6c0.3,0,0.6-0.1,0.9-0.2c0.1,0,0.1-0.1,0.2-0.2c0-0.1,0-0.2-0.1-0.2c-0.9-0.7-1.9-0.7-2.8-0.7h-0.3h-0.1
			c-0.3,0-0.6,0-0.9,0c-0.3,0-0.6,0-0.9,0c-0.2,0-0.4,0-0.6,0c-3.3,0.4-6.7,0.4-9.9,0.4c-0.9,0-1.8,0-2.7,0c-0.3,0-0.6,0-0.8,0
			c-1.1,0-2.2,0-3.2-0.1c-0.6,0-1.3,0-1.9,0c-0.8,0-1.6,0-2.5,0c-1.8,0-3.6-0.1-5.4-0.1c-0.7,0-1.4-0.1-2.1-0.1
			c-0.9-0.1-1.8-0.1-2.7-0.1c-0.4,0-0.8,0-1.1,0c-0.4,0-0.9,0-1.3,0c-1.3,0-2.7,0-4.2,0.3c-2,0.4-3.9,0.6-5.8,0.6
			c-0.8,0-1.5,0-2.3-0.1c-1.7-0.2-3.4-0.2-5-0.3c-0.9,0-1.9-0.1-2.8-0.1c-0.4,0-0.8-0.1-1.2-0.2c-0.2,0-0.3-0.1-0.5-0.1l-0.2-1.8
			c-0.2-1.4-0.4-2.9-0.5-4.3c-0.5-3.9-0.9-7.9-1.4-11.8v-0.1c-0.1-0.5-0.1-1-0.2-1.5c-0.2-1.3-0.3-2.5-0.4-3.8
			c-0.2-3.2-0.4-6.4-0.6-9.6c-0.2-4.3-0.5-8.7-0.8-13c-0.1-2.1-0.4-4.3-0.6-6.3s-0.4-4.1-0.6-6.2c-0.1-1.3-0.2-2.6-0.2-3.8
			c-0.1-2.5-0.3-5-0.5-7.5c-0.1-0.5,0-1,0.1-1.5c0.3-1.6,0.3-3.3,0-5.1c-0.8-5-1.1-9.9-1.3-14.1c-0.1-2.2-0.3-4.5-0.4-6.7
			c-0.1-1.7-0.3-3.5-0.4-5.3c-0.4-7.8-0.7-14.4-0.6-21.1c0-1.1,0-2.3-0.3-3.5c-0.3-1-0.2-2.2-0.2-3.1c0.2-2.3,0-4.5-0.2-6.8
			c-0.1-0.9-0.1-1.8-0.2-2.7c-0.1-2.1-0.1-4.3-0.2-6.4c0-0.6,0-1.2,0-1.8v-1.5c-0.1-4.4-0.1-8.9,0.2-13.3c0-0.3,0.1-0.6,0.1-0.9
			c0.1-0.4,0.1-0.9,0.1-1.3c0-1.4,0-2.8,0-4.3c0-0.6,0-1.2,0-1.8c0-0.1,0-0.2-0.1-0.2l-0.5-0.3L37.11,129.8L37.11,129.8z
			 M104.61,303.6c0.2,0,0.3-0.1,0.5-0.1v0.1l0,0C104.91,303.7,104.81,303.7,104.61,303.6L104.61,303.6L104.61,303.6z"/>
	</g>
	<g>
		<path d="M99.61,113.5c-1.3,0-2.7-0.1-4-0.2c-3.6-0.4-7.3-1-10.9-1.8c-5.2-1.2-10.1-3.3-14.3-6.4c-2.2-1.6-4-3.7-5.4-6.2
			c-2.1-4-4.4-8.8-5.1-14.2c0-0.3-0.1-0.7-0.2-1c-0.1-0.5-0.2-1-0.2-1.5c0-0.9,0-1.7,0-2.8c0-0.5,0-1,0-1.6c-0.2-4,0.6-8.4,2.5-12.6
			c2.1-4.9,4.7-10,9.2-13.8c1.4-1.2,2.9-2.2,4.3-3.2c0.5-0.4,1-0.7,1.5-1.1c0.4-0.3,0.9-0.6,1.3-0.9c0.5-0.3,1.1-0.7,1.6-1.1
			c2.2-1.7,4.8-2.9,8-3.7c3.6-1,7.4-1.4,11.3-1.4c1.4,0,2.9,0.1,4.4,0.2c0.1,0,0.2,0,0.3,0c0.2,0,0.3,0,0.5,0c0.1,0,0.1,0,0.2,0
			c1-0.1,2.1-0.2,3.1-0.2c4.8,0,9.7,1.3,15.5,4.2c2,1,3.6,2.1,4.8,3.5c0.8,0.9,1.7,1.7,2.6,2.5l0.8,0.7c2.1,1.9,3.7,4.5,5,7.7
			c0.9,2.3,1.8,4.8,2.6,7.1l0.7,2.1c0.2,0.5,0.3,1.1,0.2,1.6c-0.4,1.8-0.3,3.6-0.1,5.3c0,0.5,0.1,1,0.1,1.5c0,0.6,0.1,1.1,0.1,1.7
			c0.1,0.9,0.1,1.8,0.1,2.7s-0.1,1.9-0.4,2.8c-0.3,1.1-0.6,2.2-0.9,3.3c-0.4,1.5-0.9,3.1-1.2,4.6c-0.9,4.1-3.5,7.2-5.6,9.4
			c-3,3.2-7,5.6-11.7,7.4c-4,1.5-8.1,3-12.3,4.1C105.31,113.1,102.51,113.5,99.61,113.5z M65.01,74.9c0,0.8,0,1.7,0,2.5
			c0,1.9,0,3.8,0,5.7c0.2,3.6,1.4,6.9,2.5,9.3c0.6,1.4,1.3,2.8,2.1,4.2c0.2,0.3,0.3,0.6,0.5,0.9c0.6,1.2,1.3,2.4,2.2,3.3
			c3.3,3.4,7.5,5.8,13,7.3c2.1,0.6,4.6,1,7.4,1.4c2,0.2,4.4,0.5,6.7,0.5c0.5,0,1,0,1.4,0c2.5-0.1,5-0.6,7.4-1.5
			c1.4-0.5,2.8-1,4.2-1.4c1.3-0.4,2.6-0.8,3.9-1.3c4.8-1.7,8.8-4.6,11.9-8.4c1.8-2.2,3.5-4.6,4.1-7.7c0.3-1.5,0.5-2.8,1-4
			c1.1-2.7,1.1-5.4,1-8.7c-0.1-1.8-0.1-3.6-0.2-5.5l-0.1-2.3c-0.9-0.4-1.6-0.9-2.4-1.4c-1-0.7-2.1-1.5-3.4-1.8v0.7
			c0,0.6,0,1.2,0,1.7c-0.2,3.9-1.7,7.2-4.4,9.5c-3.7,3.1-7.8,4.7-12.2,4.7c-0.7,0-1.5,0-2.3-0.1c-0.6-0.1-1.2-0.1-1.7-0.1
			c-0.6,0-1.1,0.1-1.6,0.3c-0.4,0.1-0.7,0.2-1.1,0.2c-0.7,0-1.5-0.3-2.3-0.8l-0.5-0.4c-0.7-0.5-1.4-1-2.1-1.2
			c-5.1-1.9-8.8-5.6-10.9-10.8c-0.5-1.2-0.9-2.4-1.3-3.6c-0.2-0.5-0.4-1.1-0.6-1.6C79.11,65.4,71.91,68.9,65.01,74.9z M98.11,43.9
			c-1.3,0-2.3,0.2-3.3,0.6c-0.5,0.2-1,0.2-1.5,0.2h-0.4c-2.2,0.1-4.3,0.9-6,1.7c-3.2,1.5-6.2,3.6-9,5.6s-4.7,3.9-6,5.9
			c-1.2,1.8-2.2,3.8-3.3,5.7l-0.6,1.2c-0.3,0.5-0.5,1.1-0.8,1.8c-0.1,0.3-0.3,0.7-0.5,1.1c0.2-0.1,0.4-0.1,0.6-0.2
			c0.3-0.1,0.5-0.1,0.6-0.2c2.5-1.8,5.3-3.2,9.3-4.6c3-1,6.1-1.8,9.1-2.5c1-0.3,2.1-0.5,3.1-0.8c2.8-0.7,5.7-0.9,8.5-1.1
			c1.4-0.1,2.9-0.2,4.3-0.4c1.7-0.2,3.6-0.3,5.4-0.3c3.6,0,7.5,0.4,11.9,1.2c3.7,0.7,7.3,1.8,10.6,3.2c0.1,0.1,0.3,0.2,0.4,0.2
			c0.3,0.2,0.5,0.4,0.8,0.4c0.2,0,0.4-0.1,0.6-0.3c-1.1-3-2.3-6-4.5-8.4c-1.1-1.2-2-2.1-2.8-3c-3.7-3.5-8-5.7-12.6-6.6
			c-2.5-0.4-5-0.5-7.1-0.5c-0.7,0-1.5,0-2.2,0s-1.5,0-2.2,0s-1.4,0-2,0C98.31,43.9,98.21,43.9,98.11,43.9z"/>
		<path d="M99.21,40.1c1.4,0,2.9,0.1,4.3,0.2c0.2,0,0.5,0.1,0.8,0.1c0.1,0,0.1,0,0.2,0c1-0.1,2.1-0.2,3.1-0.2
			c5.4,0,10.5,1.7,15.4,4.2c1.8,0.9,3.4,2,4.8,3.5c1.1,1.2,2.3,2.2,3.4,3.3c2.3,2.1,3.8,4.8,5,7.6c1.2,3,2.2,6.1,3.3,9.2
			c0.2,0.5,0.3,1,0.2,1.5c-0.5,2.3-0.2,4.6-0.1,6.9c0.1,1.5,0.2,2.9,0.2,4.4c0,0.9-0.1,1.9-0.4,2.8c-0.7,2.6-1.6,5.2-2.2,7.9
			c-0.9,3.7-3,6.7-5.6,9.3c-3.3,3.4-7.2,5.7-11.6,7.4c-4,1.5-8.1,3-12.2,4.1c-2.7,0.7-5.5,1-8.2,1c-1.3,0-2.7-0.1-4-0.2
			c-3.7-0.4-7.3-1-10.9-1.8c-5.2-1.1-10-3.3-14.3-6.4c-2.2-1.6-4-3.7-5.3-6.2c-2.4-4.5-4.5-9.1-5.1-14.2c-0.1-0.8-0.3-1.7-0.4-2.5
			c-0.1-1.3,0-2.5,0-4.4c-0.2-4,0.7-8.4,2.5-12.6c2.2-5.1,4.8-10,9.1-13.7c1.8-1.6,3.9-2.9,5.8-4.3c0.9-0.7,2-1.2,2.9-1.9
			c2.4-1.8,5-2.9,7.9-3.7C91.61,40.6,95.41,40.1,99.21,40.1 M66.51,67.9c0.9-0.3,1.3-0.3,1.5-0.5c2.8-2.1,6-3.5,9.3-4.6
			c4-1.4,8.1-2.3,12.2-3.3c4.2-1.1,8.5-1,12.8-1.5c1.8-0.2,3.6-0.3,5.4-0.3c4,0,7.9,0.5,11.9,1.2c3.6,0.7,7.1,1.7,10.5,3.2
			c0.4,0.2,0.8,0.6,1.3,0.6c0.2,0,0.5-0.1,0.8-0.4c-1.1-3-2.3-6-4.5-8.5c-0.9-1-1.8-2-2.8-3c-3.6-3.4-7.8-5.7-12.7-6.6
			c-2.4-0.4-4.7-0.5-7.1-0.5c-1.5,0-2.9,0-4.4,0c-0.7,0-1.4,0-2,0c-0.1,0-0.2,0-0.4,0c-1.1,0-2.2,0.2-3.3,0.6
			c-0.6,0.2-1.2,0.2-1.9,0.2c-2.2,0.1-4.1,0.8-6,1.7c-3.3,1.5-6.2,3.6-9.1,5.7c-2.3,1.6-4.5,3.5-6,6c-1.4,2.2-2.6,4.5-3.9,6.8
			C67.51,65.5,67.11,66.4,66.51,67.9 M99.41,110c0.5,0,1,0,1.4,0c2.5-0.1,5-0.6,7.4-1.5c2.7-1,5.4-1.8,8.1-2.7
			c4.7-1.7,8.8-4.5,12-8.5c1.9-2.3,3.5-4.7,4.1-7.7c0.2-1.3,0.5-2.7,1-4c1.1-2.8,1.1-5.8,1-8.7c-0.1-2.6-0.2-5.2-0.4-7.9
			c-2.1-0.9-3.5-2.8-6-3.3c0,1,0,1.8,0,2.6c-0.2,3.7-1.5,7.1-4.4,9.4c-3.5,2.9-7.6,4.6-12.1,4.6c-0.7,0-1.5,0-2.2-0.1
			c-0.6-0.1-1.2-0.1-1.7-0.1c-0.6,0-1.1,0.1-1.7,0.3c-0.4,0.1-0.7,0.2-1,0.2c-0.8,0-1.5-0.3-2.2-0.8c-0.9-0.6-1.7-1.2-2.7-1.6
			c-5.2-2-8.8-5.7-10.9-10.8c-0.7-1.7-1.3-3.5-2-5.4c-8.4,1.3-15.6,5.1-22.2,10.8c0,2.8-0.1,5.5,0,8.2c0.2,3.3,1.2,6.4,2.5,9.4
			c0.6,1.4,1.3,2.8,2.1,4.2c0.8,1.5,1.6,3,2.7,4.2c3.6,3.7,8.1,5.9,13.1,7.3c2.4,0.7,4.9,1.1,7.4,1.4
			C94.91,109.8,97.21,110,99.41,110 M99.21,39.9c-3.9,0-7.7,0.5-11.3,1.4c-3.2,0.9-5.8,2.1-8,3.7c-0.5,0.4-1,0.7-1.6,1.1
			c-0.4,0.3-0.9,0.6-1.3,0.9c-0.5,0.4-1,0.7-1.5,1.1c-1.4,1-2.9,2.1-4.3,3.2c-4.5,3.8-7.1,8.9-9.2,13.8c-1.8,4.3-2.7,8.6-2.5,12.7
			c0,0.6,0,1.1,0,1.6c0,1,0,1.9,0,2.8c0,0.5,0.1,1,0.2,1.5c0.1,0.3,0.1,0.7,0.2,1c0.6,5.4,2.9,10.3,5.1,14.2
			c1.4,2.5,3.2,4.7,5.4,6.3c4.3,3.1,9.1,5.3,14.4,6.4c3.6,0.8,7.3,1.4,10.9,1.8c1.4,0.1,2.7,0.2,4,0.2c2.9,0,5.6-0.3,8.3-1
			c4.2-1.1,8.3-2.6,12.3-4.1c4.7-1.8,8.7-4.3,11.7-7.4c2.1-2.2,4.7-5.3,5.7-9.5c0.4-1.5,0.8-3.1,1.2-4.6c0.3-1.1,0.6-2.2,0.9-3.3
			c0.2-0.9,0.4-1.9,0.4-2.9c0-0.9-0.1-1.9-0.1-2.8c0-0.6-0.1-1.1-0.1-1.7c0-0.5-0.1-1-0.1-1.5c-0.1-1.7-0.2-3.5,0.1-5.3
			c0.1-0.5,0-1.1-0.2-1.6c-0.2-0.7-0.5-1.4-0.7-2.1c-0.8-2.4-1.6-4.8-2.6-7.1c-1.3-3.2-2.9-5.7-5-7.7c-0.3-0.2-0.5-0.5-0.8-0.7
			c-0.9-0.8-1.8-1.7-2.6-2.5c-1.3-1.4-2.9-2.5-4.9-3.5c-5.7-2.9-10.7-4.2-15.5-4.2c-1,0-2.1,0.1-3.1,0.2c-0.1,0-0.1,0-0.2,0
			c-0.1,0-0.3,0-0.5,0c-0.1,0-0.2,0-0.3,0C102.11,40,100.61,39.9,99.21,39.9L99.21,39.9z M66.91,67.5c0.1-0.3,0.2-0.6,0.4-0.8
			c0.3-0.7,0.5-1.3,0.8-1.8l0.6-1.2c1-1.9,2.1-3.8,3.2-5.7c1.3-2.1,3.2-3.9,5.9-5.9c2.9-2,5.8-4.1,9-5.6c1.7-0.8,3.7-1.6,5.9-1.7
			c0.1,0,0.2,0,0.4,0c0.5,0,1.1,0,1.6-0.2c1-0.4,2-0.6,3.2-0.6c0.1,0,0.2,0,0.4,0c0.7,0,1.4,0,2,0c0.7,0,1.5,0,2.2,0s1.5,0,2.2,0
			c2.1,0,4.6,0.1,7.1,0.5c4.6,0.8,8.9,3,12.6,6.5c0.9,0.8,1.8,1.7,2.8,3c2.1,2.4,3.3,5.3,4.4,8.3c-0.2,0.1-0.3,0.2-0.5,0.2
			c-0.3,0-0.5-0.2-0.8-0.3c-0.1-0.1-0.3-0.2-0.4-0.3c-3.3-1.5-6.8-2.6-10.6-3.2c-4.4-0.8-8.3-1.2-11.9-1.2c-1.9,0-3.7,0.1-5.4,0.3
			c-1.4,0.2-2.9,0.3-4.3,0.4c-2.8,0.2-5.7,0.4-8.5,1.1c-1,0.3-2,0.5-3.1,0.8c-3,0.7-6.1,1.5-9.1,2.5c-4,1.4-6.9,2.8-9.3,4.6
			c-0.1,0.1-0.3,0.1-0.6,0.2C67.21,67.4,67.11,67.4,66.91,67.5L66.91,67.5z M65.11,74.9c6.9-5.9,14-9.4,21.8-10.7
			c0.2,0.5,0.4,1,0.5,1.6c0.4,1.3,0.9,2.5,1.3,3.6c2.2,5.3,5.9,8.9,11,10.9c0.7,0.3,1.4,0.8,2.1,1.2c0.2,0.1,0.4,0.2,0.5,0.4
			c0.9,0.6,1.6,0.8,2.4,0.8c0.4,0,0.8-0.1,1.1-0.2c0.5-0.2,1-0.3,1.6-0.3c0.5,0,1.1,0.1,1.6,0.1h0.1c0.8,0.1,1.5,0.1,2.3,0.1
			c4.4,0,8.5-1.6,12.3-4.7c2.8-2.3,4.3-5.6,4.5-9.6c0-0.6,0-1.1,0-1.7c0-0.2,0-0.4,0-0.6c1.3,0.3,2.2,1,3.2,1.7
			c0.7,0.5,1.5,1,2.3,1.4c0,0.8,0.1,1.5,0.1,2.3c0.1,1.8,0.2,3.6,0.2,5.4c0.1,3.2,0.1,5.9-1,8.6c-0.5,1.2-0.7,2.5-1,4
			c-0.6,3-2.3,5.4-4,7.6c-3.1,3.8-7.1,6.7-11.9,8.4c-1.3,0.5-2.6,0.9-3.9,1.3c-1.4,0.4-2.8,0.9-4.2,1.4c-2.3,0.9-4.8,1.4-7.3,1.5
			c-0.5,0-0.9,0-1.4,0c-2.3,0-4.7-0.2-6.7-0.5c-2.9-0.3-5.3-0.8-7.4-1.4c-5.4-1.5-9.7-3.9-12.9-7.2c-0.9-0.9-1.6-2.1-2.2-3.3
			c-0.2-0.3-0.3-0.6-0.5-0.9c-0.8-1.4-1.5-2.8-2.1-4.2c-1.6-3.6-2.3-6.5-2.5-9.3c-0.1-1.9-0.1-3.7,0-5.7
			C65.11,76.6,65.11,75.7,65.11,74.9L65.11,74.9z"/>
	</g>
	<g>
		<path d="M66.51,48.6c-0.4,0-0.9-0.1-1.3-0.1c-1.1-0.1-1.9-0.9-2.4-2.1c-0.5-1.3-1-2.7-1.4-3.9c-0.6-1.8-1.1-3.5-1.7-5.4l-0.7-2.4
			c0-0.1,0-0.1,0.1-0.1c0.1-0.1,0.2-0.2,0.4-0.2c0.3-0.2,0.7-0.5,1.1-0.6c0.6-0.1,1.1-0.2,1.8-0.2c0.2,0,0.5,0,0.7,0v-2.4
			c0,0,0-0.1,0.1-0.1c1.7-0.9,2.2-1.1,3.1-1.1c0.4,0,0.8,0,1.4,0.1l0.1-0.1c0.1-0.1,0.2-0.2,0.2-0.3c0.1-2.7,0.4-2.8,1.8-3.1
			c0.3-0.1,0.6-0.1,1-0.2c0.2-0.1,0.4-0.1,0.7-0.1l0.4-0.1l0.1-0.2c0.1-0.2,0.2-0.5,0.3-0.7c0.1-0.3,0.2-0.6,0.2-0.8l0.1-0.3
			c0,0,0-0.1,0.1-0.1c1.3-0.5,1.9-0.8,2.8-0.8c0.6,0,1.4,0.1,2.6,0.3c0.3-0.4,0.4-0.8,0.6-1.2c0.4-0.9,0.8-1.8,1.8-2.2
			c0.6-0.3,1.4-0.4,2.1-0.5c0.3-0.1,0.7-0.1,1.1-0.2c0-0.1,0.1-0.2,0.2-0.4c0.2-0.4,0.4-0.9,0.6-1.3c0.8-1.4,1.6-2,2.9-2
			c0.5,0,1,0.1,1.7,0.2c0.1,0,0.2,0,0.4,0c0.1,0,0.2,0,0.3,0c0.1-0.1,0.2-0.2,0.4-0.4c0.3-0.3,0.7-0.7,0.9-1.1
			c0.5-0.8,1.3-1.2,2.1-1.2c0.3,0,0.5,0,0.8,0.1c0.8,0.2,1.6,0.4,2.4,0.4c0.6,0,1.2-0.1,1.8-0.2c0.1,0,0.2,0,0.3,0
			c0.3,0,0.5,0.1,0.8,0.1c0.2,0,0.3,0.1,0.5,0.1c0.1-0.1,0.2-0.2,0.3-0.3c0.3-0.3,0.6-0.6,0.9-0.9c0.9-0.6,1.7-1,2.5-1
			c0.9,0,1.7,0.4,2.5,1.2c0.6,0.6,1.1,1,1.9,1c0.1,0,0.1,0,0.2,0c0.1,0,0.3,0,0.5,0c0.6,0,1.1,0.1,1.4,0.3c0.9,0.5,1.8,0.6,2.8,0.7
			h0.2c0.7,0.1,1.6,0.3,2,0.9c0.7,0.8,1.4,0.9,2.4,0.9c0.4,0,0.7,0.1,1.1,0.3c0.2,0.1,0.3,0.1,0.5,0.1l0.2-0.1
			c1.1-0.6,2.3-1.2,3.4-1.2c1,0,1.9,0.4,2.8,1.3v0.1l-0.2,2.9l2.8,1.8c0,0,0.2,0,0.3,0c0.2,0,0.4,0,0.6-0.1c0.7-0.3,1.4-0.4,2-0.4
			c0.9,0,1.7,0.2,2.6,0.7c0.4,0.2,1,0.5,1.6,0.5h0.1c0.1,0,0.2,0,0.3,0c1.8,0,2.5,1.2,3,2.5c0.3,0,0.5,0,0.7,0
			c1.4,0,2.5,0.5,3.4,1.6v0.1l-0.5,2.8c0.2,0.4,0.5,0.4,0.9,0.4h0.3c1.1,0,2,0.4,2.8,1.1v0.1l-0.2,3c0.2,0,0.4,0.1,0.5,0.1
			c0.4,0.1,0.9,0.1,1.3,0.2c1.3,0.4,2,1.3,1.9,2.7c-0.2,3.3-1.2,6.5-2.2,9.2c-0.3,0.9-1.3,1.5-2.4,1.5c-0.7,0-1.3-0.2-1.8-0.6
			c-0.4-0.3-0.6-0.6-0.9-1c-0.1-0.1-0.2-0.3-0.3-0.4c-0.1,0-0.2,0-0.3,0c-0.2,0-0.5,0-0.8,0c-0.9,0-1.8-0.1-2.6-0.2
			c-0.4-0.1-0.7-0.4-1.1-0.7c-0.2-0.1-0.3-0.3-0.5-0.4c0,0-0.1-0.1,0-0.1l0.9-2.7c-0.3,0.1-0.5,0.1-0.7,0.2c-0.5,0.1-1,0.2-1.5,0.3
			c-0.3,0-0.6,0.1-0.9,0.1c-0.7,0-1.3-0.2-1.9-0.5c-0.9-0.5-0.9-1.3-1-2c0-0.2,0-0.3-0.1-0.5l-0.1-0.1c0-0.1-0.1-0.1-0.2-0.2
			c-0.2,0-0.5-0.1-0.8-0.1c-1-0.2-2-0.4-2.8-1.1c-0.2-0.2-0.6-0.2-1-0.3c-0.2,0-0.3,0-0.5-0.1l-3.3-0.8c-0.3,0.1-0.6,0.1-0.9,0.2
			c-0.7,0.2-1.5,0.3-2.2,0.4c-0.1,0-0.1,0-0.2,0c-0.4,0-0.9-0.1-1.4-0.4c-1-0.6-1.1-1.1-0.8-2.7c-1.7-0.6-1.7-0.6-3.2-2h-1.8h-1.9
			c-1.2,0-2.4,0-3.5,0c-0.5,0-1,0.1-1.4,0.3c-0.7,0.2-1.3,0.3-1.8,0.3c-1.3,0-2.3-0.5-3.2-1.6c-0.2-0.3-0.4-0.5-0.6-0.6
			c-0.5-0.2-1-0.4-1.5-0.5l-0.6-0.2l-0.2,0.1c-0.8,0.5-1.5,0.9-2.5,0.9c-0.5,0-0.9-0.1-1.3-0.4c-0.1,0.3-0.2,0.6-0.3,0.9
			c-0.2,0.6-0.4,1.1-0.6,1.6c-0.4,1.1-1.3,1.7-2.4,1.7c-0.2,0-0.3,0-0.5,0c-0.6-0.1-1.2-0.3-1.8-0.6c-0.9-0.4-1.6-0.6-2.3-0.6
			c-0.8,0-1.6,0.3-2.3,1c-0.3,0.3-0.8,0.3-1.3,0.4h-0.3c-0.5,0.1-1,0.1-1.6,0.1h-0.7l-1.4,4.1l-0.1,0.1l-2.6,0.5
			c0,0-0.1,0.1-0.1,0.3c-0.2,0.3-0.4,0.5-0.5,0.9c-0.3,1.2-1.1,1.8-2.4,1.9c-1.1,0.1-1.8,0.4-2.3,1.3c-0.2,0.3-0.7,0.5-1.1,0.6
			c-0.2,0.1-0.4,0.1-0.5,0.2l-0.3,3.4v0.1C68.01,48.4,67.31,48.6,66.51,48.6z"/>
		<path d="M103.31,11.7c0.8,0,1.6,0.4,2.4,1.1c0.6,0.6,1.1,1,1.9,1c0.1,0,0.1,0,0.2,0c0.1,0,0.3,0,0.4,0c0.5,0,1,0.1,1.4,0.3
			c1,0.5,2,0.6,3,0.7c0.7,0.1,1.5,0.3,2,0.8c0.7,0.8,1.6,0.9,2.5,1c0.5,0,1,0.3,1.6,0.4c1.2-0.6,2.4-1.3,3.7-1.3
			c0.9,0,1.8,0.3,2.7,1.3c-0.1,0.9-0.1,1.9-0.2,3c1,0.6,1.9,1.3,2.8,1.9c0.4,0,0.7,0,1-0.1c0.7-0.3,1.3-0.4,2-0.4
			c0.9,0,1.7,0.2,2.6,0.7c0.5,0.3,1.1,0.5,1.6,0.5c0.1,0,0.1,0,0.2,0c0.1,0,0.2,0,0.3,0c1.6,0,2.4,1,3,2.5c0.3,0,0.6-0.1,0.8-0.1
			c1.2,0,2.3,0.4,3.3,1.6c-0.2,0.8-0.3,1.8-0.5,2.8c0.2,0.5,0.6,0.5,1,0.5c0.1,0,0.1,0,0.2,0h0.1c1,0,1.9,0.3,2.7,1.1
			c-0.1,0.9-0.1,1.9-0.2,3.1c0.7,0.1,1.3,0.2,1.9,0.3c1.3,0.4,1.9,1.2,1.8,2.6c-0.2,3.2-1.1,6.2-2.2,9.2c-0.3,0.9-1.3,1.5-2.3,1.5
			c-0.6,0-1.2-0.2-1.7-0.6s-0.8-0.9-1.1-1.3c-1.3-0.1-2.5-0.1-3.7-0.3c-0.5-0.1-1-0.7-1.5-1.1c0.3-0.9,0.6-1.8,0.9-2.9
			c-1,0.2-1.7,0.4-2.4,0.5c-0.3,0-0.6,0.1-0.9,0.1c-0.6,0-1.2-0.1-1.9-0.5c-1-0.6-0.9-1.6-1-2.5c0-0.1-0.1-0.2-0.3-0.4
			c-1.2-0.3-2.6-0.3-3.7-1.3c-0.4-0.3-1-0.3-1.5-0.4c-1-0.2-2-0.5-3.3-0.8c-1.1,0.2-2.1,0.5-3.1,0.6c-0.1,0-0.1,0-0.2,0
			c-0.4,0-0.9-0.2-1.3-0.4c-1-0.5-1.1-1-0.8-2.7c-1.8-0.6-1.8-0.6-3.2-2c-1.2,0-2.5,0-3.8,0c-1.2,0-2.4,0-3.6,0
			c-0.5,0-1,0.2-1.5,0.3c-0.6,0.2-1.2,0.3-1.7,0.3c-1.2,0-2.2-0.4-3.1-1.6c-0.2-0.2-0.4-0.5-0.7-0.6c-0.7-0.3-1.4-0.5-2.2-0.7
			c-0.8,0.5-1.7,1.1-2.6,1.1c-0.4,0-0.9-0.1-1.4-0.4c-0.4,1.1-0.6,1.9-0.9,2.7c-0.4,1-1.3,1.6-2.3,1.6c-0.2,0-0.3,0-0.5,0
			c-0.6-0.1-1.2-0.3-1.8-0.5c-0.8-0.3-1.6-0.6-2.3-0.6c-0.8,0-1.6,0.3-2.3,1c-0.3,0.3-1,0.3-1.5,0.4c-0.7,0.1-1.5,0.1-2.3,0.1
			c-0.5,1.4-1,2.7-1.5,4.2c-0.9,0.2-1.7,0.3-2.6,0.5c-0.2,0.3-0.6,0.7-0.7,1.2c-0.3,1.2-1.1,1.8-2.3,1.8c-1,0.1-1.8,0.4-2.4,1.3
			c-0.3,0.4-1.1,0.5-1.7,0.8c-0.1,1.2-0.2,2.4-0.3,3.5c-0.6,0.5-1.3,0.7-2,0.7c-0.5,0-0.9-0.1-1.4-0.1c-1.1-0.2-1.8-1.1-2.2-2.1
			c-0.5-1.3-1-2.6-1.4-3.9c-0.8-2.5-1.5-5-2.4-7.7c0.4-0.2,0.9-0.7,1.4-0.8c0.8-0.2,1.6-0.1,2.6-0.2c0-0.9,0-1.7,0-2.5
			c1.7-0.9,2.2-1.1,3.1-1.1c0.4,0,0.8,0,1.4,0.1c0.1-0.2,0.3-0.3,0.3-0.5c0.1-3.3,0.6-2.6,2.8-3.3c0.3-0.1,0.6-0.1,1.1-0.2
			c0.1-0.3,0.3-0.6,0.5-1c0.1-0.4,0.2-0.8,0.3-1.1c1.3-0.5,1.9-0.7,2.7-0.7c0.6,0,1.4,0.1,2.7,0.3c0.8-1.1,0.9-2.9,2.4-3.5
			c0.9-0.4,2-0.4,3.3-0.7c0.2-0.4,0.4-1.1,0.8-1.7c0.8-1.4,1.5-1.9,2.8-1.9c0.5,0,1,0.1,1.7,0.2c0.2,0,0.4,0,0.8,0.1
			c0.4-0.5,1-0.9,1.3-1.5c0.5-0.8,1.2-1.2,2-1.2c0.2,0,0.5,0,0.7,0.1c0.8,0.3,1.6,0.4,2.5,0.4c0.6,0,1.2-0.1,1.9-0.2
			c0.1,0,0.2,0,0.3,0c0.4,0,0.9,0.2,1.4,0.2c0.4-0.4,0.8-0.8,1.3-1.2C101.71,12,102.51,11.7,103.31,11.7 M103.31,11.5
			c-0.8,0-1.7,0.3-2.6,1c-0.4,0.3-0.7,0.6-1,0.9c-0.1,0.1-0.2,0.2-0.3,0.3c-0.2,0-0.3-0.1-0.5-0.1c-0.3-0.1-0.6-0.1-0.9-0.1
			c-0.1,0-0.2,0-0.3,0c-0.6,0.1-1.2,0.2-1.8,0.2c-0.8,0-1.6-0.1-2.4-0.4c-0.3-0.1-0.5-0.1-0.8-0.1c-0.9,0-1.7,0.5-2.2,1.3
			c-0.3,0.4-0.6,0.7-0.9,1.1c-0.1,0.1-0.2,0.2-0.3,0.3c-0.1,0-0.2,0-0.2,0c-0.2,0-0.3,0-0.4,0c-0.7-0.2-1.3-0.2-1.8-0.2
			c-1.3,0-2.2,0.6-3,2.1c-0.3,0.5-0.5,1-0.6,1.3c0,0.1-0.1,0.2-0.1,0.3c-0.4,0.1-0.7,0.1-1,0.2c-0.8,0.1-1.5,0.2-2.2,0.5
			c-1,0.4-1.4,1.4-1.8,2.3c-0.2,0.4-0.3,0.8-0.6,1.2c-1.2-0.2-1.9-0.3-2.5-0.3c-0.9,0-1.5,0.2-2.8,0.8c-0.1,0-0.1,0.1-0.2,0.2
			c0,0.1,0,0.2-0.1,0.3c-0.1,0.3-0.1,0.5-0.2,0.8s-0.2,0.5-0.3,0.7c0,0.1-0.1,0.1-0.1,0.2c-0.1,0-0.2,0-0.3,0.1
			c-0.2,0-0.5,0.1-0.7,0.1c-0.4,0.1-0.7,0.2-1,0.2c-1.5,0.3-1.8,0.5-1.9,3.3l-0.1,0.2c0,0,0,0,0,0.1c-0.6-0.1-1-0.1-1.3-0.1
			c-0.9,0-1.5,0.3-3.2,1.2c-0.1,0-0.1,0.1-0.1,0.2v2.2c-0.2,0-0.4,0-0.6,0c-0.6,0-1.2,0-1.8,0.2c-0.4,0.1-0.8,0.4-1.1,0.6
			c-0.1,0.1-0.2,0.2-0.4,0.2c-0.1,0.1-0.1,0.2-0.1,0.3l0.7,2.4c0.6,1.8,1.1,3.6,1.7,5.4c0.4,1.2,0.8,2.6,1.4,3.9
			c0.5,1.3,1.4,2.1,2.4,2.2h0.1c0.4,0.1,0.9,0.1,1.3,0.1c0.9,0,1.5-0.2,2.1-0.7c0.1,0,0.1-0.1,0.1-0.2l0.1-1.5l0.2-1.8
			c0.1-0.1,0.3-0.1,0.4-0.1c0.5-0.1,1-0.3,1.2-0.7c0.5-0.8,1.1-1.1,2.2-1.2c1.3-0.1,2.1-0.7,2.5-2c0.1-0.3,0.3-0.6,0.5-0.8
			c0.1-0.1,0.1-0.2,0.2-0.2l0.6-0.1l1.9-0.4c0.1,0,0.2-0.1,0.2-0.2l0.1-0.2l1.3-3.8c0.2,0,0.4,0,0.6,0c0.5,0,1.1,0,1.6-0.1
			c0.1,0,0.2,0,0.3,0c0.5,0,1-0.1,1.4-0.4c0.7-0.6,1.4-0.9,2.2-0.9c0.6,0,1.3,0.2,2.2,0.6c0.7,0.3,1.3,0.5,1.9,0.6
			c0.2,0,0.4,0,0.5,0c1.1,0,2-0.6,2.5-1.7c0.2-0.5,0.4-1,0.6-1.7c0.1-0.2,0.2-0.5,0.3-0.8c0.4,0.2,0.8,0.3,1.3,0.3
			c0.9,0,1.7-0.5,2.5-1l0.1-0.1c0.2,0.1,0.4,0.1,0.6,0.2c0.5,0.2,1,0.3,1.5,0.5c0.2,0.1,0.4,0.3,0.6,0.5c0.9,1.1,1.9,1.7,3.3,1.7
			c0.6,0,1.1-0.1,1.8-0.3c0.5-0.1,1-0.3,1.4-0.3c1.2,0,2.4,0,3.6,0h1.9h1.7c1.4,1.3,1.5,1.3,3,1.9c-0.3,1.6-0.2,2.1,0.9,2.7
			c0.5,0.3,1,0.4,1.4,0.4c0.1,0,0.1,0,0.2,0c0.8-0.1,1.5-0.2,2.2-0.4c0.3-0.1,0.6-0.1,0.9-0.2l1,0.2c0.8,0.2,1.5,0.3,2.2,0.5
			c0.2,0,0.3,0.1,0.5,0.1c0.3,0,0.7,0.1,0.9,0.3c0.9,0.8,1.9,1,2.9,1.1c0.3,0.1,0.6,0.1,0.8,0.2c0,0.1,0.1,0.1,0.1,0.1l0.1,0.1
			c0,0.1,0,0.3,0,0.5c0.1,0.7,0.2,1.6,1.1,2.1c0.6,0.4,1.2,0.5,2,0.5c0.3,0,0.6,0,0.9-0.1c0.5-0.1,0.9-0.2,1.5-0.3
			c0.2,0,0.3-0.1,0.5-0.1l-0.1,0.5l-0.7,2.1c0,0.1,0,0.2,0.1,0.3c0.2,0.1,0.3,0.3,0.5,0.4c0.4,0.3,0.7,0.7,1.2,0.7
			c0.9,0.2,1.7,0.2,2.6,0.3c0.3,0,0.7,0,1,0.1c0.1,0.1,0.1,0.2,0.2,0.3c0.2,0.3,0.5,0.7,0.9,1c0.5,0.4,1.2,0.6,1.9,0.6
			c1.2,0,2.2-0.6,2.5-1.6c1-2.7,2-5.9,2.2-9.2c0.1-1.4-0.6-2.4-2-2.8c-0.4-0.1-0.8-0.2-1.3-0.3c-0.1,0-0.3,0-0.4-0.1l0.2-2.8v-0.1
			c0-0.1,0-0.2-0.1-0.2c-0.9-0.7-1.8-1.1-2.9-1.1h-0.1h-0.1h-0.1c-0.4,0-0.6,0-0.7-0.3l0.3-1.3l0.3-1.4c0-0.1,0-0.2-0.1-0.2
			c-0.9-1.1-2.1-1.7-3.5-1.7c-0.2,0-0.4,0-0.7,0c-0.5-1.2-1.3-2.5-3.1-2.5c-0.1,0-0.2,0-0.4,0h-0.1c-0.5,0-1.1-0.2-1.5-0.4
			c-0.9-0.5-1.8-0.7-2.7-0.7c-0.7,0-1.4,0.1-2.1,0.4c-0.1,0.1-0.3,0.1-0.5,0.1c-0.1,0-0.2,0-0.3,0l-2.7-1.8l0.1-1.3l0.1-1.6
			c0-0.1,0-0.1-0.1-0.2c-0.9-0.9-1.9-1.4-2.9-1.4c-1.2,0-2.4,0.6-3.5,1.2l-0.2,0.1c-0.1,0-0.3-0.1-0.4-0.1c-0.4-0.1-0.7-0.2-1.1-0.3
			c-1-0.1-1.7-0.2-2.3-0.9c-0.5-0.6-1.4-0.8-2.1-0.9h-0.2c-1-0.1-1.9-0.2-2.7-0.6c-0.4-0.2-0.9-0.3-1.5-0.3c-0.2,0-0.3,0-0.5,0
			c-0.1,0-0.1,0-0.2,0c-0.7,0-1.1-0.3-1.8-0.9C105.11,11.9,104.21,11.5,103.31,11.5L103.31,11.5z"/>
	</g>
	<g>
		<path d="M66.81,193.3c-1.8,0-3.7-0.1-5.6-0.4c-3.5-0.5-6.7-1.6-9.8-3.3c-3.2-1.8-5.7-4.5-7.7-8.2c-0.9-1.7-1.8-3.4-1.8-5.5
			c0.1-0.3,0.1-0.6,0.2-0.8c0.1-0.6,0.3-1.3,0.3-1.9c0-0.4-0.1-0.7-0.1-1.1c-0.1-0.5-0.2-0.9-0.1-1.4c0.4-2.5,1.4-4.9,3.1-7.6
			c0.4-0.6,1-1.2,1.9-1.7c3.8-2.4,7.6-4.2,11.4-5.5c4.7-1.6,9.6-2.8,14.3-4c1.1-0.3,2.2-0.6,3.3-0.8c4.5-1.2,9-1.6,13.7-2.1
			c0.4,0,0.9-0.1,1.3-0.1c0.8,0,1.6,0.1,2.4,0.1c0.5,0,1.1,0.1,1.6,0.1c0.3,0,0.6,0,0.8,0.1c0.4,0,0.7,0.1,1.1,0.1
			c6.5,0,12.6,1.6,17.7,3.1c5.6,1.6,10,5.2,13.3,10.6c1.3,2.2,2.1,4.7,2.6,8.1c0.4,3,0.1,6-0.2,9v0.5c-0.3,2.9-1.6,5.7-3.9,8.5
			c-1.2,1.4-2.8,2.3-5.2,2.9c-1.3,0.3-2.7,0.5-4,0.5c-2.8,0-5.6-0.7-8.3-2.2c-1.8-1-3.7-1.7-5.4-2.4s-3.5-1-5.5-1
			c-0.9,0-1.8,0.1-2.8,0.2c-5.5,0.7-10.9,2.5-15.5,4.1C75.61,192.6,71.11,193.3,66.81,193.3z M49.61,166.4c-0.2,0.2-0.3,0.4-0.5,0.5
			c-0.3,0.3-0.5,0.5-0.6,0.8c-0.4,1.1-0.8,2.3-1.1,3.6c-0.6,3-0.3,5.7,0.8,7.9c2.7,5.6,7.4,9,13.8,10.2c1.3,0.2,2.7,0.3,4,0.4h0.3
			c0.3,0,0.6,0,0.8,0c3,0,5.9-0.9,8.3-1.8c2-0.7,4.1-1.4,6-2c1-0.3,2-0.6,3-0.9c2.6-0.8,5.4-1.2,8.1-1.6l1.1-0.2
			c1.6-0.2,3.3-0.5,5-0.5c1.4,0,2.7,0.2,3.9,0.5c3.5,1,7.2,2.2,10.5,4.2c1.1,0.6,2.3,1,3.5,1h0.2c3.2,0,5.2-1.1,6.3-3.7
			c1.6-3.6,2.2-7.4,1.9-11.6c0-0.1-0.1-0.2-0.2-0.3c0-0.1-0.1-0.1-0.1-0.2h-0.3c-0.3,0-0.5,0.1-0.8,0.2c-0.4,0.1-0.8,0.2-1.2,0.3
			c-0.8,0.2-1.7,0.4-2.5,0.5c-0.4,0-0.8,0.1-1.2,0.1c-3.1,0-5.5-1.5-6.9-4.5c-0.2-0.4-0.5-0.8-0.7-1.2c-0.1-0.1-0.2-0.3-0.3-0.4
			c-0.1,0-0.2,0-0.3,0s-0.1,0-0.2,0c-0.6,0.2-1.1,0.5-1.7,0.7l-0.7,0.3c-2.1,0.9-4.2,1.4-6.2,1.4c-3.6,0-7-1.6-9.7-4.6l-0.8-0.9
			c-0.1,0.1-0.1,0.2-0.2,0.3c-0.2,0.2-0.4,0.4-0.5,0.7c-1.2,2-3.1,3.4-4.6,4.3c-1.6,1-3.2,1.5-4.8,1.5c-0.9,0-1.9-0.2-2.8-0.5
			c-1.7-0.6-3.2-1.1-4.5-2.2c-0.2-0.2-0.5-0.4-0.9-0.5c-0.1-0.1-0.3-0.1-0.4-0.2c-0.1,0.2-0.2,0.4-0.3,0.5c-0.3,0.4-0.5,0.8-0.8,1.1
			s-0.6,0.7-0.8,1c-0.8,1-1.6,1.9-2.5,2.8c-2.1,1.9-4.4,2.8-6.7,2.8c-0.9,0-1.8-0.1-2.7-0.4c-0.6-0.2-1.1-0.4-1.7-0.6
			c-0.3-0.1-0.7-0.2-1-0.3c-2.8-0.9-4.7-2.9-5.8-5.9c-0.2-0.4-0.3-0.9-0.4-1.5C49.81,167.1,49.71,166.8,49.61,166.4z M54.81,162.9
			c-0.1,1.5,0.2,3.3,0.8,5.3c0.6,1.9,1.9,3.2,3.9,4c0.5,0.2,1,0.3,1.5,0.3c0.7,0,1.3-0.2,1.9-0.7c3.8-2.7,7.3-7.9,5.7-14.7
			c-0.1,0-0.2,0-0.3,0c-0.3,0-0.5,0-0.8,0.1c-1.4,0.6-2.9,1-4.5,1.3c-2,0.4-3.6,1.1-4.9,2c-0.8,0.5-1.5,1-2.3,1.6L54.81,162.9z
			 M116.91,157.6c-0.1,0.2-0.2,0.3-0.3,0.5c-0.2,0.3-0.3,0.6-0.4,0.9c-0.1,0.8-0.1,1.7-0.1,2.5c0,0.6,0,1.3-0.1,1.9
			c-0.1,1.9,0.4,3.8,1.6,5.9c0.5,0.8,1.1,1.2,1.9,1.2c0.2,0,0.4,0,0.6-0.1c1-0.2,1.8-0.7,2.7-1.2c0.5-0.3,1.1-0.6,1.7-0.9
			C123.41,164.1,120.91,160.7,116.91,157.6z M74.51,155.4c-0.6,3.7,0.6,6.7,1.9,9.4c0.7,1.3,1.7,2.2,3.5,2.8
			c0.2,0.1,0.5,0.1,0.9,0.1c0.3,0,0.6,0,0.9-0.1c1.4-0.5,2.5-1.2,3.3-2.2c2.5-3.6,3.8-7.5,3.6-11.7c0-0.2-0.1-0.4-0.2-0.5
			c0-0.1-0.1-0.1-0.1-0.2c-0.2,0-0.4,0-0.5,0C84.31,152.9,78.61,154,74.51,155.4z M94.41,152.5c0,3.4,0.9,6.3,1.9,9.6
			c0.2,0.5,0.4,1,0.8,1.7c1.2,1.9,2.9,2.9,4.8,2.9c0.1,0,0.2,0,0.3,0c2-0.1,3.8-1,5.1-2.6c2-2.5,3.2-5.3,3.6-8.7
			c-3.6-1.6-10.9-3-15.4-3C95.11,152.5,94.71,152.5,94.41,152.5z"/>
		<path d="M91.21,149.1c1.3,0,2.7,0.1,4,0.2c0.6,0,1.3,0.1,1.9,0.1c6.1,0,11.9,1.4,17.7,3c5.8,1.7,10.1,5.4,13.2,10.5
			c1.5,2.5,2.2,5.2,2.6,8c0.4,3.2,0.1,6.3-0.2,9.4c-0.3,3.2-1.8,6-3.9,8.5c-1.3,1.6-3.2,2.4-5.2,2.9c-1.4,0.3-2.7,0.5-4,0.5
			c-2.8,0-5.6-0.8-8.2-2.2c-1.7-1-3.6-1.7-5.5-2.4c-1.8-0.7-3.7-1-5.6-1c-0.9,0-1.8,0.1-2.8,0.2c-5.3,0.7-10.4,2.4-15.5,4.1
			c-4.3,1.5-8.6,2.3-13.1,2.3c-1.8,0-3.7-0.1-5.6-0.4c-3.5-0.5-6.8-1.6-9.8-3.3c-3.4-1.9-5.8-4.8-7.6-8.2c-0.9-1.7-1.8-3.4-1.7-5.4
			c0.2-0.9,0.5-1.8,0.5-2.7c0-0.8-0.4-1.7-0.2-2.5c0.5-2.7,1.6-5.2,3.1-7.5c0.4-0.7,1.2-1.2,1.9-1.7c3.6-2.2,7.3-4.1,11.3-5.4
			c5.8-1.9,11.7-3.3,17.6-4.9c4.5-1.2,9.1-1.7,13.7-2.1C90.31,149.1,90.81,149.1,91.21,149.1 M101.91,166.9c0.1,0,0.2,0,0.3,0
			c2-0.1,3.8-1,5.2-2.6c2.1-2.6,3.3-5.5,3.7-8.8c-3.6-1.6-11.1-3-15.6-3c-0.5,0-0.9,0-1.3,0c0,3.5,1,6.6,1.9,9.7
			c0.2,0.6,0.5,1.2,0.8,1.7C98.11,165.7,99.91,166.9,101.91,166.9 M80.81,167.9c0.3,0,0.6,0,0.9-0.1c1.3-0.4,2.5-1.2,3.3-2.3
			c2.5-3.5,3.8-7.4,3.6-11.8c0-0.3-0.2-0.6-0.3-0.8c-0.2,0-0.4,0-0.6,0c-3.5,0-9.2,1.1-13.4,2.5c-0.6,3.6,0.4,6.6,1.9,9.5
			c0.8,1.5,2.1,2.3,3.5,2.9C80.21,167.8,80.51,167.9,80.81,167.9 M61.01,172.7c0.7,0,1.3-0.2,2-0.7c3.9-2.7,7.4-8.1,5.7-14.9
			c-0.4,0-0.8,0-1.2,0.1c-1.4,0.7-3,1-4.5,1.3c-1.7,0.4-3.4,0.9-4.9,2c-1.1,0.8-2.2,1.5-3.4,2.4c-0.1,1.8,0.3,3.6,0.8,5.4
			c0.6,2,2,3.3,4,4.1C60.01,172.6,60.51,172.7,61.01,172.7 M119.61,170.5c0.2,0,0.4,0,0.6-0.1c1.7-0.3,2.9-1.4,4.6-2.1
			c-1.4-4.7-4.1-8.1-7.9-11c-0.3,0.7-0.7,1.1-0.7,1.6c-0.1,1.5-0.1,2.9-0.2,4.4c-0.2,2.2,0.5,4.1,1.6,5.9
			C118.11,170.1,118.81,170.5,119.61,170.5 M81.41,171.4c-0.9,0-1.8-0.2-2.8-0.5c-1.6-0.5-3.2-1.1-4.5-2.2c-0.4-0.3-0.9-0.5-1.4-0.8
			c-0.5,0.7-0.8,1.2-1.2,1.7c-1.1,1.3-2.1,2.7-3.4,3.8c-2,1.7-4.2,2.8-6.7,2.8c-0.9,0-1.8-0.1-2.7-0.4c-0.9-0.3-1.8-0.6-2.7-0.9
			c-2.9-1-4.7-3.1-5.7-5.9c-0.2-0.7-0.4-1.4-0.7-2.7c-0.7,0.8-1.1,1.1-1.3,1.5c-0.4,1.2-0.8,2.4-1.1,3.6c-0.5,2.7-0.4,5.5,0.8,8
			c2.8,5.8,7.6,9.1,13.9,10.3c1.4,0.3,2.9,0.3,4.4,0.4c0.3,0,0.6,0,0.8,0c2.9,0,5.6-0.8,8.4-1.8c3-1.1,6-1.9,9-2.9
			c2.8-0.9,5.8-1.3,8.7-1.6c1.8-0.2,3.7-0.5,5.5-0.5c1.3,0,2.6,0.1,3.9,0.5c3.6,1.1,7.2,2.3,10.5,4.2c1.2,0.7,2.4,1,3.6,1
			c0.1,0,0.2,0,0.2,0c2.7,0,5.1-0.8,6.4-3.7c1.6-3.8,2.2-7.6,1.9-11.7c0-0.2-0.2-0.4-0.4-0.7c-0.3,0.1-0.7,0.1-1.1,0.2
			c-1.2,0.3-2.4,0.6-3.7,0.8c-0.4,0-0.8,0.1-1.2,0.1c-3,0-5.3-1.4-6.8-4.4c-0.3-0.6-0.7-1.2-1-1.7c-0.3,0-0.4-0.1-0.5-0.1
			c0,0,0,0-0.1,0c-0.8,0.3-1.5,0.7-2.3,1c-2.1,0.9-4.2,1.4-6.2,1.4c-3.6,0-6.9-1.5-9.6-4.6c-0.3-0.3-0.6-0.6-0.9-1
			c-0.3,0.4-0.6,0.7-0.8,1c-1.1,1.9-2.8,3.1-4.6,4.3C84.71,170.8,83.11,171.4,81.41,171.4 M91.21,148.8L91.21,148.8
			c-0.5,0-0.9,0-1.4,0.1c-4.7,0.4-9.3,0.9-13.7,2.1c-1.1,0.3-2.2,0.6-3.3,0.8c-4.7,1.2-9.6,2.4-14.3,4c-3.8,1.3-7.5,3.1-11.4,5.5
			c-0.9,0.6-1.5,1.1-1.9,1.8c-1.7,2.7-2.7,5.1-3.1,7.6c-0.1,0.5,0,0.9,0.1,1.4c0.1,0.4,0.1,0.7,0.1,1.1c0,0.6-0.2,1.2-0.3,1.9
			c-0.1,0.3-0.1,0.6-0.2,0.8c0,2.2,0.9,3.9,1.8,5.6c2,3.8,4.5,6.5,7.7,8.3c3.1,1.8,6.3,2.8,9.9,3.4c1.9,0.3,3.8,0.4,5.6,0.4
			c4.4,0,8.8-0.8,13.2-2.3c4.6-1.6,9.9-3.4,15.4-4.1c1-0.1,1.9-0.2,2.7-0.2c2,0,3.8,0.3,5.5,1c1.8,0.7,3.7,1.5,5.4,2.4
			c2.7,1.5,5.5,2.2,8.3,2.2c1.3,0,2.7-0.2,4-0.5c2.4-0.6,4.1-1.5,5.3-3c2.4-2.8,3.7-5.7,3.9-8.6V180c0.3-2.9,0.6-6,0.2-9
			c-0.5-3.4-1.3-5.9-2.6-8.1c-3.3-5.4-7.8-9-13.4-10.6c-5.1-1.5-11.3-3-17.7-3.1c-0.3,0-0.7,0-1-0.1c-0.3,0-0.6,0-0.8-0.1
			c-0.5,0-1.1-0.1-1.6-0.1C92.81,148.9,92.01,148.8,91.21,148.8L91.21,148.8z M94.51,152.7c0.3,0,0.6,0,1,0c4.4,0,11.7,1.4,15.3,2.9
			c-0.4,3.3-1.6,6.1-3.6,8.5c-1.3,1.6-3,2.4-5,2.5c-0.1,0-0.2,0-0.3,0c-1.9,0-3.6-1-4.7-2.9c-0.4-0.6-0.6-1.2-0.8-1.6
			C95.41,158.9,94.61,156,94.51,152.7L94.51,152.7z M74.61,155.5c4.1-1.4,9.7-2.5,13.2-2.5c0.2,0,0.3,0,0.5,0v0.1
			c0.1,0.2,0.1,0.3,0.1,0.5c0.1,4.2-1.1,8.1-3.6,11.6c-0.7,1-1.8,1.8-3.2,2.2c-0.3,0.1-0.6,0.1-0.9,0.1c-0.3,0-0.6,0-0.8-0.1
			c-1.7-0.6-2.8-1.5-3.4-2.8C75.21,162.1,74.11,159.1,74.61,155.5L74.61,155.5z M54.91,163l1-0.7c0.8-0.5,1.6-1.1,2.3-1.6
			c1.3-0.9,2.9-1.5,4.8-2c1.7-0.3,3.1-0.7,4.6-1.3c0.2-0.1,0.4-0.1,0.7-0.1c0.1,0,0.1,0,0.2,0c1.5,6.7-1.9,11.8-5.6,14.5
			c-0.6,0.4-1.2,0.7-1.8,0.7c-0.4,0-0.9-0.1-1.4-0.3c-2-0.8-3.3-2.1-3.9-3.9C55.11,166.2,54.91,164.5,54.91,163L54.91,163z
			 M119.61,170.2c-0.8,0-1.3-0.3-1.8-1.1c-1.2-2.1-1.7-3.9-1.6-5.8c0-0.6,0.1-1.3,0.1-1.9c0-0.8,0.1-1.7,0.1-2.5
			c0-0.3,0.2-0.5,0.4-0.9c0.1-0.1,0.1-0.2,0.2-0.3c3.9,3,6.3,6.3,7.5,10.4c-0.6,0.2-1.1,0.5-1.6,0.8c-0.9,0.5-1.7,1-2.7,1.1
			C120.01,170.2,119.81,170.2,119.61,170.2L119.61,170.2z M81.41,171.6c1.7,0,3.3-0.5,4.9-1.5c1.5-0.9,3.4-2.3,4.7-4.3
			c0.1-0.2,0.3-0.4,0.5-0.6l0.1-0.1l0.1,0.1l0.6,0.6c2.7,3,6.1,4.7,9.8,4.7c2,0,4.1-0.5,6.3-1.4l0.6-0.3c0.6-0.2,1.1-0.5,1.7-0.7
			c0,0,0,0,0.1,0s0.1,0,0.2,0c0.1,0.1,0.1,0.2,0.2,0.4c0.2,0.4,0.5,0.8,0.7,1.2c1.5,3,3.8,4.5,7,4.5c0.4,0,0.8,0,1.2-0.1
			c0.9-0.1,1.7-0.3,2.5-0.5c0.4-0.1,0.8-0.2,1.2-0.3c0.3-0.1,0.5-0.1,0.8-0.2h0.2c0,0.1,0.1,0.1,0.1,0.1c0.1,0.1,0.1,0.2,0.1,0.3
			c0.3,4.2-0.3,8-1.9,11.6c-1.1,2.5-3,3.6-6.2,3.6h-0.2c-1.3,0-2.4-0.3-3.5-1c-3.4-2-7.1-3.2-10.6-4.2c-1.2-0.3-2.5-0.5-3.9-0.5
			c-1.7,0-3.4,0.2-5,0.5l-0.5,0.1l-0.6,0.1c-2.7,0.4-5.5,0.7-8.1,1.6c-1,0.3-2,0.6-3,0.9c-2,0.6-4.1,1.2-6.1,2
			c-2.4,0.9-5.3,1.8-8.3,1.8c-0.3,0-0.6,0-0.8,0h-0.3c-1.3-0.1-2.7-0.1-4-0.4c-6.4-1.2-11-4.6-13.7-10.1c-1.1-2.2-1.3-4.9-0.8-7.9
			c0.2-1.3,0.7-2.5,1.1-3.6c0.1-0.2,0.3-0.4,0.6-0.8c0.1-0.1,0.2-0.2,0.3-0.4c0.1,0.3,0.1,0.5,0.2,0.8c0.2,0.6,0.3,1.1,0.4,1.5
			c1.1,3.1,3.1,5.1,5.9,6c0.3,0.1,0.7,0.2,1,0.3c0.6,0.2,1.1,0.4,1.7,0.6c0.9,0.3,1.9,0.4,2.8,0.4c2.4,0,4.7-1,6.8-2.8
			c0.9-0.8,1.8-1.8,2.6-2.8c0.3-0.3,0.6-0.7,0.8-1c0.3-0.3,0.5-0.7,0.8-1.1c0.1-0.1,0.2-0.3,0.3-0.4c0.1,0.1,0.2,0.1,0.3,0.2
			c0.3,0.2,0.6,0.3,0.8,0.5c1.3,1.1,2.9,1.7,4.6,2.3C79.51,171.4,80.51,171.6,81.41,171.6L81.41,171.6z"/>
	</g>
	<g>
		<path d="M100.71,122.4c-1.1,0-2.2-0.1-3.2-0.2c-0.9-0.1-1.8-0.3-2.6-0.4c-0.9-0.1-1.8-0.3-2.7-0.4c-4.2-0.7-8.4-2-12.4-3.3
			c-1.5-0.5-2.9-0.9-4.4-1.4c-1.3-0.4-2.6-1-3.9-1.6c-0.5-0.3-1.1-0.5-1.6-0.8c-0.5-0.2-0.6-0.3-1.3-1.8l-0.1-0.1v-0.1
			c0,0,0-0.1,0.1-0.1c0.9-0.3,1.8-0.5,2.8-0.5c1.2,0,2.4,0.3,3.7,0.8c3.1,1.3,13.8,4.8,17.1,5.3c2.6,0.5,4.9,0.8,7.2,1
			c0.5,0.1,1,0.1,1.5,0.1c1.4,0,2.8-0.2,4-0.7c1.8-0.6,3.6-1.2,5.5-1.6c1.2-0.3,2.7-0.7,4.1-1.5c1.1-0.6,2.3-0.7,3.3-0.7
			c0.3,0,0.6,0,0.9,0c0.8,0.7,0.5,1.3,0.1,1.7c-0.9,1.2-2,2.4-3.7,3l-1.1,0.4c-3.5,1.1-7.1,2.3-10.8,2.6
			C102.31,122.4,101.51,122.4,100.71,122.4z"/>
		<path d="M71.51,111.9c1.2,0,2.4,0.3,3.6,0.8c3.1,1.4,13.9,4.8,17.1,5.3c2.4,0.4,4.8,0.8,7.2,1c0.5,0.1,1,0.1,1.5,0.1
			c1.4,0,2.7-0.2,4.1-0.7c1.8-0.6,3.6-1.2,5.5-1.6c1.5-0.3,2.9-0.8,4.1-1.5c1.1-0.6,2.1-0.7,3.2-0.7c0.3,0,0.6,0,0.9,0
			c0.6,0.6,0.3,1.1,0,1.5c-1,1.3-2.1,2.4-3.6,2.9c-3.9,1.3-7.8,2.6-11.9,3c-0.8,0.1-1.7,0.1-2.5,0.1c-1.1,0-2.1-0.1-3.2-0.2
			c-1.8-0.3-3.5-0.5-5.3-0.8c-5.7-0.9-11.2-3-16.7-4.6c-1.9-0.6-3.7-1.6-5.5-2.4c-0.5-0.2-0.5-0.3-1.3-1.8
			C69.71,112.1,70.61,111.9,71.51,111.9 M71.51,111.7L71.51,111.7c-0.9,0-1.9,0.2-2.8,0.5c-0.1,0-0.1,0.1-0.1,0.1c0,0.1,0,0.1,0,0.2
			l0.1,0.1c0.7,1.4,0.8,1.6,1.4,1.8c0.5,0.2,1.1,0.5,1.6,0.8c1.3,0.6,2.6,1.3,3.9,1.7c1.5,0.4,2.9,0.9,4.4,1.4
			c4,1.3,8.1,2.6,12.4,3.3c0.9,0.1,1.8,0.3,2.7,0.4c0.9,0.1,1.7,0.3,2.6,0.4c1,0.2,2.1,0.2,3.2,0.2c0.8,0,1.6,0,2.5-0.1
			c3.8-0.3,7.3-1.5,10.8-2.6l1.1-0.4c1.7-0.6,2.9-1.8,3.8-3c0.2-0.3,0.8-1,0-1.8c0,0-0.1-0.1-0.2-0.1c-0.3,0-0.6,0-0.9,0
			c-1,0-2.2,0.1-3.3,0.7c-1.4,0.8-2.9,1.2-4.1,1.4c-1.8,0.4-3.7,1-5.5,1.6c-1.3,0.4-2.6,0.7-4,0.7c-0.5,0-1,0-1.5-0.1
			c-2.2-0.2-4.6-0.5-7.2-1c-3.3-0.6-14-4-17.1-5.3C73.91,112,72.71,111.7,71.51,111.7L71.51,111.7z"/>
	</g>
	<g>
		<path d="M78.81,202.8c-0.5,0-1-0.3-1.5-0.5c-0.3-0.2-0.5-0.5-0.6-0.9c0-0.4,0.1-0.7,0.3-0.9c0.3-0.3,0.7-0.5,1.1-0.7
			c2.1-0.9,4.3-1.8,6.6-2c0.9-0.1,1.8-0.3,2.7-0.5c0.6-0.1,1.3-0.3,1.9-0.4c0.9-0.1,1.8-0.2,2.6-0.3c0.4,0,0.8-0.1,1.2-0.1
			c2.3,0,4.3,0.3,6.3,0.9c0.6,0.2,1.2,0.5,1.7,0.8c0.3,0.2,0.4,0.5,0.5,0.9c0,0.4-0.1,0.8-0.4,1c-0.3,0.2-0.7,0.5-1.1,0.6
			c-0.3,0.1-0.6,0.1-0.9,0.1c-0.2,0-0.5,0-0.7,0c-1.4-0.2-2.9-0.3-4.4-0.3c-3.7,0-7.7,0.6-12.8,1.8
			C80.31,202.7,79.51,202.8,78.81,202.8L78.81,202.8z"/>
		<path d="M93.21,196.8c2.1,0,4.2,0.3,6.2,0.9c0.6,0.2,1.2,0.5,1.7,0.8s0.5,1.3,0,1.7c-0.3,0.2-0.7,0.5-1.1,0.6
			c-0.3,0.1-0.6,0.1-0.9,0.1c-0.2,0-0.5,0-0.7,0c-1.5-0.2-2.9-0.3-4.4-0.3c-4.3,0-8.6,0.8-12.8,1.9c-0.8,0.2-1.6,0.4-2.5,0.4l0,0
			c-0.5,0-1-0.2-1.4-0.5c-0.6-0.3-0.7-1.2-0.2-1.6c0.3-0.3,0.7-0.5,1-0.7c2.1-0.9,4.2-1.8,6.6-2c1.6-0.1,3.1-0.6,4.6-0.9
			C90.71,196.9,91.91,196.9,93.21,196.8 M93.21,196.5L93.21,196.5c-0.4,0-0.8,0.1-1.2,0.1c-0.9,0.1-1.8,0.1-2.6,0.3
			c-0.6,0.1-1.3,0.2-1.9,0.4c-0.9,0.2-1.8,0.4-2.7,0.5c-2.4,0.2-4.5,1.1-6.6,2h-0.1c-0.4,0.2-0.8,0.5-1.1,0.7
			c-0.3,0.2-0.4,0.6-0.4,1.1c0.1,0.4,0.3,0.8,0.7,1c0.4,0.2,1,0.5,1.5,0.5c0.8,0,1.6-0.1,2.6-0.4c5.1-1.3,9-1.8,12.7-1.8
			c1.5,0,2.9,0.1,4.3,0.3c0.2,0,0.5,0,0.7,0c0.3,0,0.6,0,0.9-0.1c0.4-0.1,0.8-0.4,1.2-0.6c0.3-0.2,0.5-0.7,0.5-1.1
			c0-0.4-0.2-0.8-0.5-1c-0.5-0.3-1.1-0.7-1.7-0.9C97.51,196.8,95.41,196.5,93.21,196.5L93.21,196.5L93.21,196.5z"/>
	</g>
</g>
</svg>
