<?xml version="1.0" encoding="utf-8"?>
<!-- Generator: Adobe Illustrator 24.0.1, SVG Export Plug-In . SVG Version: 6.00 Build 0)  -->
<svg version="1.1" id="Layer_1" xmlns="http://www.w3.org/2000/svg" xmlns:xlink="http://www.w3.org/1999/xlink" x="0px" y="0px"
	 viewBox="0 0 201.29 243.6" style="enable-background:new 0 0 201.29 243.6;" xml:space="preserve">
<style type="text/css">
	.st0{fill:#61CAE5;}
	.st1{fill:#FFFFFF;}
	.st2{fill:#47ACC4;}
</style>
<path class="st0" d="M39.88,236.5c1.1,0.4,1.8,0.7,2.5,0.8c4.3,0.8,8.7,1.2,13.1,0.9c1.3-0.1,2.5,0,3.8,0.1c5.5,0.5,10.9,1,16.4,1.5
	c1.8,0.1,3.6,0.2,5.4,0c2.6-0.3,5.3-0.2,7.9-0.2c3.1,0,6.3,0,9.4,0.2c3.7,0.3,7.5,0,11.3-0.6c1-0.2,2.1-0.3,3.1-0.4
	c3.7-0.5,7.5-1,11.2-1.5c2-0.3,3.9-0.7,5.9-1c5.1-0.7,10.2-1.6,15.1-3.1c2.4-0.7,4.9-1.4,7.4-1.4c0.5,0,1.1-0.1,1.6-0.2
	c2.2-0.7,4.6-0.8,6.9-0.7c1.9,0,3.8-0.4,5.6-0.6c0.6-0.1,1.3-0.3,1.7-0.7c1.4-1.3,3-2.5,3.9-4.1s0.8-3.7,0.6-5.6
	c0-0.3-0.2-0.6-0.2-0.9c-0.3-2.9-0.6-5.9-0.9-8.8c-0.2-1.7-0.4-3.4-0.2-5c0.2-1.7-0.3-3.3-0.4-5c-0.4-5.9-0.9-11.8-1.4-17.6
	c-0.2-2.3-0.4-4.6-0.6-6.9c-0.2-1.6-0.4-3.1-0.3-4.7c0.1-1.6-0.5-3.3-0.7-5c-0.1-0.5-0.1-1.1-0.1-1.6c0-5.7-0.2-11.3-0.4-17
	c-0.1-2.1,0.1-4.2,0.2-6.3c0.2-3.5,0.5-6.9,0.7-10.4c0.1-2,0.4-4,0.5-6c0.1-3.3,0.5-6.5,0.8-9.7c0.3-2.8,0.1-5.7,0.1-8.5
	c0-3.5-0.1-6.9-0.1-10.4c0.1-4.7,0.3-9.5-0.5-14.2c-0.1-0.6-0.1-1.3,0-1.9c0.1-1.8,0.2-3.6,0.2-5.3c-0.2-3.2-0.6-6.5-0.7-9.7
	c-0.3-5.8-2.6-10.8-6.2-15.2c-2-2.5-4.7-3.8-7.9-4.2c-2.4-0.3-4.8-0.2-7.2-0.4c-4.3-0.2-8.6-0.5-12.9-0.8c-2.3-0.2-4.6-0.3-6.9-0.8
	c-2.5-0.5-5-0.6-7.5-0.6c-4.1,0-8.2-0.1-12.3,0c-4.2,0.1-8.4,0.4-12.6,0.6s-8.4,0.6-12.6,0.6c-3.3,0-6.5,0.2-9.7,0.3
	c-1.4,0.1-2.7,0.5-4.1,0.5c-3.6,0.1-7.1,1-10.5,2.1c-2.9,0.9-5.7,2.3-8.6,3.1c-2.1,0.6-3.8,1.7-5.7,2.7c-2.4,1.3-3.6,3.4-4.1,6
	c-0.8,5-1.2,10-1.6,15.1c-0.3,4.8-0.5,9.7-0.8,14.5c-0.1,1.1-0.3,2.3-0.5,3.4c-0.3,2.3-0.6,4.6-0.9,6.9c-0.4,3-0.8,6-1.2,9.1
	c-0.3,2.1-0.6,4.2-0.9,6.2c-0.4,3.3-0.9,6.7-1.2,10c-0.3,3.8-0.6,7.5-0.8,11.3c-0.1,2.5-0.2,5.1-0.1,7.6c0.2,3.6,0.6,7.1,1,10.7
	c0.4,3.3,0.7,6.7,1.4,10c0.9,4.1,1.3,8.3,1.7,12.5c0.4,4.4,0.9,8.8,1.2,13.2c0.2,2.8,0.4,5.7,0.5,8.5c0.1,2.9,0,5.9,0.2,8.8
	c0.2,4.3,0.4,8.6,0.7,12.9c0.3,3.6,0.7,7.1,1,10.7C39.88,232.4,40.68,234.3,39.88,236.5z"/>
<path class="st0" d="M166.08,10.4c1.1-0.7,1.2-1.7,1.7-3.1C166.18,8.2,165.78,9,166.08,10.4z"/>
<path class="st0" d="M51.18,9.5c0-0.2,0-0.3-0.1-0.4c-0.3-0.6-1-0.7-1.6-0.3c-0.1,0.1-0.3,0.3-0.3,0.5c0,0.1,0.2,0.4,0.3,0.4
	c0.4,0.1,0.8,0.1,1.2,0.1C50.88,9.8,51.08,9.6,51.18,9.5z"/>
<path class="st0" d="M100.38,5.9c-0.3,0.3-0.6,0.5-0.6,0.7s0.3,0.3,0.5,0.5c0,0,0.3-0.2,0.3-0.4C100.68,6.5,100.48,6.3,100.38,5.9z"
	/>
<path class="st0" d="M78.68,87.8c-1.6-0.1-3.1-0.5-4.5,0.8c-1,0.8-2.4,0.6-3.1-0.4c-1-1.3-2.3-1.4-3.7-1.3c-1.3,0-2.6-0.1-3.9,0.9
	c-1.5,1.1-2.9,0.8-4.4-0.7c-0.8-0.8-1.4-0.8-1.8,0.3c-0.4,1-1,1.5-2,1.7s-2,0.6-3.1,0.7c-0.8,0.1-1.4,0.4-1.8,1
	c-0.9,1.3-2,1.3-3.3,0.8c-0.9-0.3-1.3-0.9-1.5-1.8c-0.6-3.4-0.3-6.7-0.3-10.1c0-0.9,0.3-1.7,1.2-2c0.9-0.3,1.2-1,1.5-1.9
	c0.2-0.8,0.8-1.3,1.6-1.3c1.7-0.1,3.3-0.2,5.2-0.4c0.1-0.2,0.3-0.5,0.4-0.9c0.3-0.7,0.9-1,1.5-0.9c1.8,0.4,3.8,0.1,5.5,1.3
	c0.9-0.6,0.5-1.6,0.8-2.3c0.3-0.9,0.8-1.5,1.8-1.4c0.9,0,1.6-0.1,2.4-0.6c1.3-0.9,2.6-0.7,3.7,0.4c0.4,0.5,0.8,1,1.4,1.2
	c0.8,0.3,1.6,0.5,2.3-0.3c0.4-0.3,0.9-0.8,1.3-0.7c1.6,0.3,2.9-0.4,4.3-0.8c1.3-0.4,2.3,0.2,2.9,1.7c0.1,0.2,0.1,0.4,0.2,0.6
	c0,0.1,0.1,0.2,0.2,0.3c1.2,0.3,2.2,0.1,3-1c0.5-0.6,1.2-1,1.9-0.8c2.2,0.6,4.1-0.5,6-1c0.8-0.2,1.6-0.4,2.5-0.2
	c1.1,0.2,1.7,0.7,1.8,1.8c0,0.3,0.2,0.6,0.3,0.8c0.7,0,0.8-0.5,1-1c0.6-2.7,0.9-2.9,3.6-2.5c1.7,0.2,3.3,0.4,4.9-0.5
	c0.3-0.2,0.8-0.3,1.2-0.3c1.6,0.2,3.1,0.2,4.6-0.2c1.1-0.3,1.6,0.8,2.4,1.3s1.4,0.3,1.7-0.6c0.1-0.3,0.1-0.6,0.2-0.9
	c0.4-1.1,1.1-1.6,2.1-1.5c0.5,0,1,0.3,1.6,0.2c1.4-0.1,3,0.4,4.2-0.9c0.1-0.1,0.4-0.3,0.6-0.3c1.5,0,2.9-0.1,3.8-1.6
	c0.2-0.2,0.8-0.3,1.2-0.3c1.3,0.1,2.5,0.3,3.7-0.2c0.4-0.1,0.8,0,1.2,0c1.1,0,1.3,1.9,2.6,1.3c1-0.4,1.8,0,2.7,0.5
	c0.1,0,0.2,0.1,0.3,0.1c1.7-0.2,3.3,0.1,4.6,1.4c1,0.1,2.1,0.2,3.2,0.2c0.3-0.3,0.6-0.6,0.8-0.9c1.4-1.9,2-2.1,3.9-1.2
	c0.8,0.4,1.6,0.9,2.6,0.9s1.7,0.8,2,1.8c0.2,1,0.4,2.1,0.3,3.1c-0.4,2.9-0.3,5.9,0.1,8.6c-0.7,1.5-2.1,1.5-3.3,1.6
	c-0.3,0.8-0.4,1.5-0.7,2.2c-0.9,2-2.6,2.6-4.4,1.4c-1-0.7-1.8-0.9-2.8-0.7c-0.4,0.1-0.8-0.1-1.2-0.2c-0.3,0-0.7-0.2-0.9,0
	c-2.5,1.9-5.1-0.1-7.6,0c-0.7,0-1.4-0.2-2.2-0.3c-0.3,0-0.7,0.1-0.9,0c-3.8-1.1-7.4-0.1-11.1,0.5c-0.7,0.1-1.5,0.1-2.2,0.1
	c-1.2,0.1-2.3,0.1-2.9,1.4c-0.2,0.3-0.6,0.6-1,0.8c-0.3,0.2-0.6,0.2-0.9,0.4c-1.2,0.6-4.2,1.3-5.6,1.5c-1.2,0.2-2.4,0.6-3.6,1
	c-1.4,0.6-2.8,0.9-4.2-0.1c-0.3-0.2-0.8-0.3-1.2-0.4c-0.9-0.2-1.9-0.6-2.7-0.5c-1.1,0.2-0.9,1.5-1.3,2.3c-0.3,0.8-0.9,1.1-1.7,1.2
	c-1.1,0.1-2.1,0-2.9-0.8c-0.6-0.6-0.3-1.4-0.6-2.1c-0.1-0.3-0.4-0.6-0.6-0.6s-0.6,0.2-0.8,0.4c-0.2,0.2-0.3,0.6-0.4,0.8
	c-1,1.5-2.1,2.2-3.7,1.5c-1.9-0.8-3.4-0.5-5.1,0.2c-2,0.8-2.7,0.6-4.1-1.1C79.08,88.3,78.88,88,78.68,87.8z"/>
<path class="st0" d="M116.48,101.4c-1.1-0.1-1.8-0.1-2.6-0.1c-0.4,0-0.8-0.1-1.2-0.3c-0.5-0.3-1.1-0.6-1.2-1.4c0-0.5,0.5-1,1.3-1.1
	c1.6-0.2,3.1-0.3,4.7-0.5c4.8-0.7,9.6-1.2,14.4-1.7c5.3-0.6,10.7-0.3,16.1-1c0.7-0.1,1.5-0.1,2.1-0.4c1.1-0.6,2.2-0.5,3.4-0.2
	c0.9,0.2,1.8,0.5,2.7,0.9c0.8,0.3,1.3,1.1,1.2,1.7c-0.1,0.7-0.6,1.1-1.2,1.3c-0.3,0.1-0.6,0.2-0.9,0.3c-0.3,0.1-0.6,0.2-0.8,0.4
	c-0.1,0.3-0.2,0.6-0.2,0.9c0.6,5.4-0.8,10.4-3.7,15c-0.3,0.5-0.6,1.1-0.9,1.7c-2.6,4-6.1,6.7-10.9,7.3c-3.2,0.4-6.5,0.6-9.7-0.2
	c-2.3-0.5-4.3-1.5-6.1-3.1c-0.4-0.3-0.8-0.6-1.4-1c-0.1,0.9-0.1,1.5-0.1,2.1c0,1.1,0.1,2.1,0,3.2c-0.3,4.4,0,8.8,0,13.2
	c0,3.6,0.2,7.1,0.3,10.7c0,0.6,0,1.3-0.1,1.9c-0.1,1.4-0.4,2.7,0.3,4c0,0.1,0,0.2,0.1,0.3c0.3,1.8-0.4,2.9-2.2,3.2
	c-1.4,0.2-2.9,0.4-4.4,0.5c-3.8,0.3-7.5,0.5-11.3,0.8c-4,0.3-8,0.3-11.9-0.2c-0.3,0-0.6-0.1-0.9-0.1c-2.4-0.4-2.6-0.9-2.6-3.4
	c-0.1-5.5,0.3-10.9-0.3-16.4c-0.3-3.4-0.1-6.9-0.1-10.4c0-2.1-0.1-4.2-0.2-6.6c-1.1,0.6-1.8,1.1-2.6,1.6c-1.8,0.9-3.5,2.1-5.3,2.7
	c-7.4,2.6-14.5,2-20.9-2.8c-1.7-1.2-2.8-2.8-3.5-4.7c-1.2-3.1-1.7-6.3-2.2-9.5c-0.2-1.9-0.5-3.7-0.8-5.7c-1.4-0.2-2.6-0.4-3.8-0.6
	c-0.5-0.1-1.1-0.2-1.5-0.4c-0.3-0.2-0.5-0.6-0.6-1c0-0.2,0.3-0.6,0.5-0.7c0.9-0.2,1.8-0.4,2.8-0.5c1.6-0.1,3.2-0.1,4.7-0.2
	c5-0.3,10-0.9,15-1.7c1.3-0.2,2.7-0.1,4.1-0.2c3.6-0.2,7.1-0.4,10.7-0.4c4.6,0,9.2,0.3,13.8,0.5c0.2,0.4,0.4,0.7,0.5,0.9
	c0.3,0.9,0,1.6-0.8,1.8c-0.7,0.2-1.4,0.3-2.2,0.3c-1,0.1-2.1-0.1-3.1,0.4c-0.7,0.9-0.6,2-0.6,3c0.6,9.6,0.5,19.1,0.7,28.7
	c0,3.2,0.2,6.3,0.4,9.5c0.2,2.9,0.1,5.9,0.1,8.8c0,1,0.1,2.1,0.1,3.1c1.5,0.5,3,0.8,4.4,0.8c2.4,0,4.8,0,7.2-0.4
	c2.8-0.4,5.7-0.4,8.5-0.6c0.9-0.1,1.8-0.3,2.9-0.4c0.1-0.7,0.2-1.3,0.2-1.9c0-3.2,0.1-6.3-0.3-9.5c-0.3-2.6-0.3-5.3-0.3-7.9
	c0.1-7.2,0.2-14.3,0.3-21.5c0-2.7-0.2-5.5-0.3-8.2C116.38,104.6,116.48,103.2,116.48,101.4z"/>
<path class="st1" d="M80.18,102c1.8,4.2,0.8,7.7-1,11.2c-0.7,1.4-1.9,2.2-3.5,2.3c-1.3,0-2.5,0.2-3.8,0.1c-3.4-0.3-5.9-2-7-5.4
	c-0.5-1.6-1-3.2-1-4.9c0-0.6-0.2-1.2-0.3-1.9c-2.2,0-4.2-0.1-6.3,0.6c0.4,2.8,0.7,5.5,1,8.2c0.2,1.1,0.4,2.3,0.7,3.4
	c1.1,3.7,2.9,6.8,6.8,8.5c3.5,1.6,7,1.3,10.4,0.3c2-0.5,3.8-1.7,5.7-2.6c0.7-0.4,1.5-0.9,1.9-1.6c1.6-2.7,3.2-5.5,3.4-8.7
	c0.2-3,0.1-6.1,0.1-9.1c0-0.2-0.2-0.3-0.5-0.7C84.98,101.7,82.78,101.3,80.18,102z"/>
<path class="st1" d="M121.78,100.8c0,1.7-0.1,2.9,0,4.2c0.3,3.9,0.7,7.7,2.7,11.2c1.4,2.5,3.2,4.2,6,4.6c1.7,0.3,3.6,0.4,5.3,0.3
	c3.8-0.4,7-1.8,9.3-5.2c2-3,3.5-6.2,4.2-9.8c0.4-2.3,0.6-4.8-0.1-7.2c-1.8-0.2-3.4-0.2-5.2,0.2c0.4,2,0.3,3.8-0.1,5.7
	c-1.1,4.4-3.3,6.3-7.8,6.8c-0.1,0-0.2,0-0.3,0c-4.7,0.5-8.1-2.4-8.4-7.2c-0.1-0.8,0-1.7,0-2.5c0-0.5-0.1-1-0.2-1.5
	c-0.4-0.1-0.7-0.2-1-0.2C124.58,100.4,123.28,100.6,121.78,100.8z"/>
<path class="st0" d="M72.78,112.3c-0.5-0.4-1-0.8-1.5-1.1c-0.1-0.1-0.4,0.1-0.5,0.2s-0.1,0.4,0,0.5
	C71.28,112.6,71.78,112.9,72.78,112.3z"/>
<path class="st1" d="M66.88,208c0.6-1.6,2-2.3,3-3.3s2-1.9,3.1-2.9c-1.3-1.8-1.1-3.6-0.9-5.5c0.3-2.7,0.9-5.4,1.8-8
	c1.2-3.2,3.3-5.6,5.7-7.8c0.4-0.4,1.1-0.6,1.7-0.5c1.8,0,3.3,0.8,4.4,2.2c1.4,1.8,2.8,3.7,4.1,5.6c0.6,0.8,1,1.8,1.6,2.8
	c1.3-0.1,2.4-0.6,3.6-0.9c4.2-1.1,8.4-1.9,12.7-1.9c4.8,0,9.7,0.3,14.3,1.8c0.2,0.1,0.4,0,0.8,0c0.4-0.7,0.8-1.5,1.2-2.4
	c1.3-2.4,3.1-4.4,5.4-6.1c2.3-1.7,6.4-1.1,8.4,1.1c0.8,0.9,1.4,1.9,1.3,3.1c-0.1,1.8-0.3,3.6-0.5,5.3c-0.3,2.3-1.1,4.5-0.8,7
	c1.2,1.1,2.5,2.2,3.8,3.2c0.5,0.4,0.7,1,0.7,1.7s-0.5,1.3-1.1,1.4c-1.6,0.3-3.2,0.2-4.5-0.9c-0.8-0.7-1.5-1.5-2.3-2.1
	c-1.5-1.2-2.9-2.5-4.5-3.4c-3.7-2.2-7.7-3.9-11.8-5.3c-0.7-0.2-1.4-0.5-2.1-0.6c-5.3-0.5-10.7-0.9-16,0.4
	c-5.5,1.4-10.9,3.4-15.7,6.4c-2.3,1.4-4.3,3.3-6.3,5.2c-1,0.9-1.9,1.9-3,2.7c-0.9,0.7-1.9,1.3-2.5,2.3c-0.2,0.3-0.5,0.4-0.7,0.7
	c-0.8,0.9-1.9,1.3-3.1,1.1C67.78,210.2,67.28,209.3,66.88,208z"/>
<path class="st1" d="M87.38,192.3c-1-2.9-2.3-5.6-4.6-7.8c-3.7,3-6.3,9.2-5.7,13.5c1.2-0.6,2-1.6,2.9-2.4c1.4-1.2,3-2.3,5-2.2
	C85.88,193.4,86.68,193.2,87.38,192.3z"/>
<path class="st1" d="M128.08,191.6c1.4,1.6,3.3,2.2,5.3,2.7c0.7-3.3,1.4-6.5,1.2-9.7c0-0.1-0.3-0.3-0.6-0.5
	C131.08,185.7,128.98,188.1,128.08,191.6z"/>
<path class="st2" d="M120.78,157.4c-4.9-2.2-12.2-0.2-17.4,0.1c-4.2,0.3-8.6,0-12.9,0.1c0.1-5.7,0.1-11.4,0-17.1
	c-0.1-5.6,0.3-11.6-0.9-17c-0.5-2-2.9-2.5-4.3-1.4c-0.3,0.1-0.5,0.2-0.8,0.3c-4.4,2.6-7.9,5.6-13.4,5.4c-3.6-0.1-7.2-1.5-9.9-3.8
	c-6.3-5.3-5.4-13.6-8.7-20.5c-1.1-2.2-4.5-1.4-5,0.8c-2.5,10.4,2.6,23.1,12,28.3c4.2,2.3,9.7,3.1,14.8,2.3c-0.9,0.4-1.8,0.8-2.8,1.2
	c-7.4,2.7-15.4,1.3-23,1.2c-1.6,0-1.4,2.2-0.1,2.5c8.5,2.6,18.5,3.7,27.1,0.8c2.4-0.8,5.1-2.2,7.4-4.1c-0.1,1.1-0.1,2.2-0.2,3.3
	c-0.4,6.6-0.6,13.2-0.7,19.9c0,1.1,0.3,1.9,0.8,2.5c0.2,0.9,0.7,1.7,1.4,2.2c4.5,3,11.9,1.8,17,1.3c6.1-0.6,15.8-1,20.2-5.8
	C122.18,158.9,121.88,157.8,120.78,157.4z"/>
<path class="st2" d="M150.68,129.9c-5.8,0.7-11.1,1.4-16.5-0.7c3.5-0.3,6.9-1.3,9.9-2.9c10-5.4,15-17.7,13.7-28.7
	c-0.4-3.1-5.6-3.3-5.6,0c0,7.5-1.2,15.3-7.3,20.4c-6.3,5.3-14.9,6.9-21.4,1.3c-0.4-0.4-0.9-0.5-1.3-0.5c-0.1-0.1-0.2-0.2-0.4-0.3
	c-1.4-1-3.7,0.2-3.6,2c0.5,6.2,7.4,10.9,12.7,13.1c6.4,2.7,14.9,2.9,20.7-1.4C152.48,131.5,151.98,129.7,150.68,129.9z"/>
<path class="st2" d="M142.98,205c-3.7-5.5-11.1-9.2-17.3-11.3c-7.1-2.5-14.7-2.9-22.2-1.9c-7.1,1-13.9,3.3-20.2,6.6
	c-5,2.7-12.6,6.3-14.5,12c-0.3,0.9,0.6,1.9,1.5,1.9c5.5-0.3,11-5.3,15.9-7.6c6.3-2.9,13.1-5.1,20.1-5.7c6.1-0.5,12.3,0,18.2,1.8
	c5.6,1.7,10.7,5.6,16.4,6.8C142.38,208,143.98,206.4,142.98,205z"/>
<path class="st2" d="M172.78,222.5c0.4-1.2,0.6-2.4,0.6-3.5c0-1.3-1.9-1.6-2.4-0.5c-0.9,1.9-2.2,3.3-3.6,4.7
	c-4.2,2.7-9.4,3.4-14.3,4.3c-5.4,1-10.8,2-16.2,2.9c-10.8,1.7-21.7,2.4-32.6,2.6c-10.2,0.2-20.3,0-30.5-0.1c-1.4,0-2.8,0-4.1-0.1
	c-0.2-0.6-0.7-1-1.6-1c-4.4-0.1-8.8,0.1-13.2,0.1c-0.8,0-1.6,0-2.4-0.1c-2.1-0.2-4.3-0.3-6.4-0.5c0.4-18.8-0.1-38-2.1-56.6
	c-2.1-19.3-7.9-37.2-3.6-56.6c2-9.2,4-18.4,4.5-27.9c0.3-7.5-0.5-15.1,0.1-22.6c0.8-10.5,8.4-15,17.7-17.4
	c8.9-2.3,17.7-1.1,26.6-2.7c1.6-0.3,1.9-3,0.2-3.3c-8.6-2-19.5-1.3-28.1,0.3c-8.5,1.6-17.1,5.1-21.1,13.3
	c-3.9,7.9-3.1,16.6-3.2,25.1c-0.2,9.9-1.6,19.7-3.9,29.4s-3.7,19-2.8,28.9c0.9,10.3,3.4,20.4,4.6,30.6c2.5,20.8,1.7,41.6,3,62.5
	c0.2,3.2,4.1,4.1,6.4,2.7c9.8,2.7,20.2,2.6,30.3,2.7c11.5,0.1,23,0.4,34.5-0.3c11.7-0.7,23.2-2.3,34.6-4.3
	c9.5-1.7,21.2-2.4,28.8-9.1C173.68,224.9,173.48,223.5,172.78,222.5z"/>
<g>
	<path d="M98.28,243.2h-3.4c-2.5,0-5.1,0-7.6,0c-1.3,0-2.6,0-3.8,0c-0.5,0-1.1,0-1.6,0c-5.7,0-11.7-0.3-18.3-1.1
		c-1.8-0.2-3.6-0.3-5.7-0.3c-1.2,0-2.4,0-3.8,0.1c-0.6,0-1.2,0-1.8,0c-2.7,0-5.5-0.3-8.9-0.9c-2.3-0.4-4.7-1.1-7.3-2
		c-1.7-0.6-2.5-1.8-2.5-3.5c0-1.8,0.1-3.6,0.2-5.4l0.1-1.5c0-0.4,0.1-0.8,0.1-1.2c0.1-0.6,0.1-1.3,0.1-1.9c0-1.4,0-2.8-0.1-4.2
		c0-2.9,0-5.8-0.3-8.8c-0.4-4.1-0.6-8.5-0.7-13.9c0-4.3-0.3-9-0.9-14.8c-0.4-3.9-0.8-7.5-1-11c-0.2-2.9-0.7-5.9-1.2-8.7
		c-0.2-1.2-0.4-2.5-0.6-3.7c-0.2-1.3-0.4-2.6-0.6-3.9c-0.6-3.6-1.2-7.4-1.4-11.2c-0.3-5-0.5-10.9,0.3-16.7c0.2-1.6,0.4-3.3,0.5-5
		c0.1-1.2,0.2-2.3,0.3-3.5c0.4-4,0.9-7.7,1.3-11.3c0.6-4.3,1.1-8.7,1.8-13.1c0.8-5.3,1.2-10.8,1.5-16c0.1-2.2,0.3-4.5,0.4-6.7l0.2-3
		l-4.4-4.3c-4.2-4.1-8.1-7.9-12.2-11.8c-0.8-0.8-1.8-1.5-2.8-2.1c-0.3-0.2-0.7-0.5-1-0.7c-0.9-0.6-1.8-1.2-2.7-1.9l-1.2-0.9
		c-0.2,0.1-0.4,0.2-0.6,0.4c-0.5,0.3-1,0.6-1.5,0.8c-0.8,0.4-1.6,0.6-2.4,0.6c-1.7,0-3.2-1-4-2.9c-1.1-2.3-1-4.8,0.1-7.4
		c0.6-1.4,2.5-2.5,4.5-2.5c0.6,0,1.2,0.1,1.7,0.3c0.6,0.2,1.2,0.5,1.7,0.8c1.9,1.2,2.4,2.4,2,4.7c-0.1,0.3-0.1,0.7-0.2,1
		c-0.1,0.5-0.2,1-0.3,1.4c0,0.1,0,0.2,0.1,0.4c0,0.1,0.1,0.2,0.1,0.3c0.4,0.1,0.8,0.4,1.2,0.6c1,0.5,2.1,1,3.1,1.6
		c1.7,1,3.7,2.3,5.4,3.8c1.8,1.6,3.7,3.2,5.6,4.8c0.9,0.8,1.9,1.6,2.8,2.4l0.5,0.4c0.8,0.7,1.6,1.4,2.4,2.1c0.6,0.6,1.1,1.3,1.7,2
		c0.2,0.3,0.4,0.6,0.7,0.8c0.4-0.4,0.4-0.9,0.4-1.4c0-0.2,0-0.4,0-0.5c0.2-2.9,0.6-6,2-8.9c0.8-1.6,1.7-2.7,2.8-3.4
		c1.4-0.8,3-1.8,4.7-2.5s3.6-1.4,5.3-2l1.5-0.5c1.8-0.7,3.7-1.3,5.6-2l2.4-0.8c-2.1-4-3.5-8.3-4.9-12.4c-0.7-2-1.4-4.1-2.1-6.1
		c-0.1-0.3-0.2-0.5-0.3-0.8c-0.5-1.3-0.9-2.6-1.9-3.6c-0.3,0-1.4,0-1.7,0c-0.4,0-0.7,0-1.1,0c-1.7-0.1-3-0.9-3.6-2.3
		c-0.6-1.2-1-2.3-1.2-3.3c-0.7-2.8,0.1-5.3,2.3-7.2c1.4-1.2,3-1.9,4.6-1.9c0.9,0,1.9,0.2,2.9,0.6c0.2,0.1,0.3,0.1,0.4,0.2
		s0.3,0.1,0.4,0.2c1.4,0.6,2.4,1.5,2.8,2.5s0.4,2.2-0.2,3.5c-0.5,1.1-1.1,2.2-1.7,3.3c-0.3,0.5-0.6,1-0.8,1.6c1.8,2.1,3.1,4.6,4.3,8
		c1.3,3.7,2.8,7.8,4.4,11.8c0.4,1.1,1,2.2,1.6,3.3c0.2,0.5,0.5,0.9,0.7,1.4c0.6,0.2,1.2,0.4,1.9,0.4c0.6,0,1.2-0.1,1.8-0.2l0.4-0.1
		c4.9-0.7,9.9-0.9,14.8-1c1.5,0,3-0.1,4.5-0.1c2.5-0.1,5-0.3,7.4-0.4l1.1-0.1c0.3,0,0.7-0.1,1-0.2c0.1,0,0.3-0.1,0.5-0.1
		c0.3-1.6,0.1-3.2-0.2-4.8c-0.2-1.1-0.3-2.2-0.3-3.4c0-1.5,0-3,0-4.5c0-1.2,0-2.5,0-3.7c0-1.9,0.1-3.8,0.2-5.8l0.1-2.4
		c-0.2-0.2-0.5-0.3-0.7-0.5c-0.6-0.4-1.1-0.7-1.6-1.1c-1.5-1.2-2.4-2.8-2.6-4.6c-0.2-2.1,0-4,0.6-5.7c0.7-1.9,2.4-3.2,4.4-3.2
		c0.1,0,0.2,0,0.3,0c2.6,0.2,5,1.4,7.3,3.6c1.3,1.3,1.8,3.1,1.2,5.1c-0.6,2-1.4,3.7-2.6,5c-0.5,0.5-1.1,0.9-1.7,1.3
		c-0.2,0.2-0.5,0.3-0.7,0.5l0.2,4.5c0.2,4.1,0.4,8.3,0.6,12.4c0.1,1.2,0.2,2.4,0.4,3.6l0.1,0.8c0.1,0.6,0.2,1.1,0.3,1.7
		c0,0.2,0.1,0.5,0.1,0.7c0.1,0,0.2,0.1,0.3,0.1c0.2,0.1,0.4,0.2,0.6,0.2c1.8,0,3.5,0,5.3-0.1c2.6,0,5.1-0.1,7.7-0.1c1,0,2.1,0,3.1,0
		c2,0,4.1,0.3,6.1,0.5c1,0.1,2,0.2,3,0.3c4.1,0.4,8.2,0.7,12.3,1.1c0.9,0.1,1.8,0.1,2.7,0.2c0.8,0,1.6,0.1,2.4,0.2
		c0.1,0,0.1,0,0.2,0c0.9,0,1.4-0.4,1.9-1.3c3.2-6.9,6.5-13.8,9.7-20.7l1.4-3c0.3-0.6,0.6-1.2,0.9-1.8c0.8-1.2,1-2.6,0.9-4.2
		c-0.2-1.9,0-3.5,0.5-5c0.4-1.2,1-2.3,2.1-3.5c0.6-0.6,1.3-1,2-1c0.3,0,0.7,0.1,1,0.2c1.7,0.7,3.6,1.5,5.4,2.6
		c0.9,0.5,1.5,1.5,1.9,2.2c0.5,0.9,0.5,1.8,0,2.5c-0.4,0.7-0.7,1.5-1,2.2l-0.1,0.3c-1.2,3-3.2,4.6-5.8,4.6c-1.1,0-2.2-0.3-3.5-0.8
		c-0.1,0-0.2,0-0.4-0.1c-0.1,0-0.2,0-0.3,0c-1,4.5-2.4,9-4.2,13.6c-1.9,4.8-3.7,8.9-5.6,13c0.3,0.1,0.6,0.1,0.9,0.2
		c0.7,0.2,1.3,0.3,1.9,0.4c4.6,0.4,8.4,2.7,12,7l0.1,0.2c0.4,0.4,0.7,0.9,1,1.4c0.2,0.4,0.3,0.9,0.5,1.3c0.2,0.5,0.4,1.1,0.6,1.6
		c0.2,0.4,0.5,0.7,0.7,1c0.3,0.4,0.7,0.8,0.9,1.3c0.9,2.6,1.5,4.7,2,7c0.3,1.8,0.5,3.6,0.6,5.4c0.1,0.8,0.1,1.5,0.2,2.3h0.1
		c0.2,0,0.4-0.1,0.4-0.2c3.5-4.5,7.5-8.5,11-11.8c-0.5-2.6,0.2-5.1,1-7.1c0.2-0.6,0.6-1.3,1-2c1.2-2,2.9-3,5-3c0.4,0,0.8,0,1.2,0.1
		c2.2,0.3,4.2,1.4,6.1,3.2c1.1,1.1,1.5,2.6,1.1,4.2c-0.7,2.9-1.7,5.1-3.3,6.8c-1.6,1.7-3.6,2.6-5.8,2.6c-0.6,0-1.3-0.1-2-0.2
		c-0.6-0.1-1.1-0.4-1.6-0.7c-0.2-0.1-0.4-0.3-0.6-0.4c-1.1,0.6-1.8,1.6-2.4,2.6c-0.1,0.2-0.3,0.4-0.4,0.6c-1.7,2.4-3.4,4.8-5.4,7
		c-0.5,0.5-0.9,1.1-1.2,1.6c-0.1,0.2-0.3,0.4-0.4,0.6c-1.5,2.1-1.5,2.2-3.7,3.4c0,0.6,0.1,1.2,0.1,1.8c0.1,1.4,0.1,2.9,0.3,4.3
		c0.4,2.6,0.4,5.1,0.4,7.7c0,1.1,0,2.2,0,3.4l0.1,3.4c0,2,0.1,4.1,0.1,6.1c0.1,5.4,0.2,9.9-0.9,14.5c-0.1,0.4-0.1,0.9-0.1,1.3v0.2
		c-0.1,1.7-0.2,3.3-0.2,5c-0.2,3.5-0.3,6.9-0.5,10.4c-0.1,1.2-0.2,2.5-0.3,3.7c-0.1,1.3-0.3,2.6-0.3,3.8c0,0.4-0.1,0.8-0.1,1.3
		c-0.1,1.2-0.2,2.5,0.1,3.7c0.1,0.3,0.1,0.7,0.1,1c-0.3,2.9-0.2,5.8,0,8.7c0.1,1.5,0.1,3,0.1,4.5c0,2.9,0.3,5.8,0.6,8.6
		c0.1,1.2,0.3,2.4,0.4,3.6c0.2,2.8,0.5,5.7,0.8,8.5c0.2,2.4,0.4,4.8,0.7,7.2c0.2,2.4,0.4,4.8,0.6,7.2c0.2,2.2,0.4,4.4,0.6,6.6
		c0.1,0.8,0.1,1.5-0.4,2.2c-0.4,0.5-0.4,0.9,0.1,1.5c0.3,0.3,0.3,0.8,0.4,1.2l0.3,2.3c0.3,2.4,0.6,4.9,0.8,7.4
		c0.2,2.1,0.1,4.3,0.1,6.3c0,0.7-0.3,1.5-0.8,2.1c-1.1,1.4-2.1,2.6-3.2,3.5c-1.6,1.5-3.5,2.4-5.7,2.6c-2.1,0.2-4.4,0.4-6.6,0.5
		c-2.7,0.1-5,0.5-7.1,1.3l-0.2,0.1c-0.4,0.1-0.8,0.3-1.2,0.3h-0.1c-0.4,0-0.8-0.1-1.2-0.1c-2.1,0-4.2,0.5-6.2,1.1
		c-5.3,1.6-10.8,2.4-16.2,3.2l-2.1,0.3c-2.6,0.4-5.2,0.7-7.8,1c-1.8,0.2-3.6,0.4-5.3,0.7c-4.6,0.6-9.4,0.9-14.8,0.9L98.28,243.2z
		 M91.08,239.4c2.7,0,5,0.1,7.1,0.3c1,0.1,2,0.1,3,0.1c2.6,0,5.3-0.2,8.2-0.8c0.7-0.1,1.3-0.2,2-0.3c0.4,0,0.8-0.1,1.2-0.1l3-0.4
		c2.8-0.4,5.5-0.7,8.2-1.1c1-0.1,2-0.3,3-0.5s1.9-0.3,2.9-0.5c4.2-0.6,9.7-1.5,15.1-3.1l0.2-0.1c2.2-0.6,4.6-1.3,7-1.3h0.4
		c0.5,0,0.9-0.1,1.4-0.2c2.2-0.7,4.4-0.8,6-0.8c0.3,0,1.1,0,1.1,0c1.3,0,2.6-0.2,3.8-0.4c0.5-0.1,1-0.2,1.6-0.2
		c0.6-0.1,1.3-0.3,1.6-0.7c0.3-0.3,0.6-0.6,0.9-0.8c1.1-1,2.2-2,2.9-3.2c0.9-1.6,0.8-3.7,0.6-5.5c0-0.2-0.1-0.3-0.1-0.5
		s-0.1-0.3-0.1-0.5l-0.2-2c-0.2-2.3-0.5-4.5-0.7-6.8c0-0.3-0.1-0.6-0.1-1c-0.1-1.3-0.3-2.7-0.1-4.1c0.1-1.1,0-2.2-0.2-3.2
		c-0.1-0.6-0.2-1.2-0.2-1.8c-0.3-4.5-0.7-9.2-1-13.6l-0.3-4c-0.2-2.5-0.4-4.7-0.6-6.9c0-0.3-0.1-0.6-0.1-1c-0.1-1.2-0.3-2.5-0.2-3.8
		c0.1-1.1-0.2-2.2-0.4-3.3c-0.1-0.5-0.2-1.1-0.3-1.6c-0.1-0.4-0.1-0.9-0.1-1.3v-0.3c0-6-0.2-11.5-0.4-17c-0.1-1.7,0-3.4,0.1-5.1
		l0.1-1.2c0.2-3.3,0.4-6.5,0.7-10.4c0.1-0.8,0.1-1.6,0.2-2.4c0.1-1.2,0.2-2.4,0.3-3.6c0.1-3.2,0.4-6.3,0.8-9.7
		c0.2-2.1,0.2-4.2,0.2-6.3c0-0.7,0-1.5,0-2.2c0-1.3,0-2.7,0-4c0-2.1-0.1-4.3,0-6.4v-1.6c0.1-4.1,0.2-8.4-0.6-12.6
		c-0.1-0.5-0.1-1.1-0.1-1.6v-0.3c0-0.6,0.1-1.2,0.1-1.8c0.1-1.1,0.1-2.3,0.1-3.5c-0.1-1.6-0.2-3.2-0.4-4.8c-0.1-1.6-0.3-3.3-0.4-4.9
		c-0.2-5.3-2.3-10.3-6.2-15.1c-1.9-2.4-4.5-3.8-7.8-4.2c-1.5-0.2-3.1-0.2-4.7-0.3c-0.8,0-1.7-0.1-2.5-0.1l-1.7-0.1
		c-3.7-0.2-7.5-0.4-11.2-0.7h-0.3c-2.2-0.2-4.4-0.3-6.6-0.7c-2.6-0.5-5.2-0.6-7.4-0.6h-0.6c-1.2,0-2.4,0-3.6,0s-2.4,0-3.6,0
		c-1.5,0-3.1,0-4.6,0c-3.2,0.1-6.4,0.2-9.5,0.4l-3.1,0.2c-1.3,0.1-2.7,0.2-4,0.2c-2.7,0.2-5.4,0.4-8.2,0.4h-0.9
		c-3.2,0-6.5,0.2-9.2,0.3c-0.6,0-1.3,0.1-1.9,0.3c-0.7,0.1-1.5,0.3-2.2,0.3c-3.7,0.1-7.2,1.1-10.4,2.1c-1.3,0.4-2.7,1-4,1.5
		c-1.5,0.6-3,1.2-4.6,1.7c-1.8,0.5-3.4,1.4-5,2.3l-0.6,0.3c-2.3,1.2-3.5,3.1-4,6c-0.9,5.2-1.3,10.5-1.5,15c-0.2,2.7-0.3,5.3-0.5,8
		c-0.1,2.2-0.2,4.4-0.4,6.5c0,0.8-0.2,1.6-0.3,2.3c-0.1,0.4-0.1,0.7-0.2,1.1c-0.3,2.3-0.6,4.6-0.9,6.9l-0.4,3.3
		c-0.3,1.9-0.5,3.9-0.8,5.8c-0.1,0.9-0.3,1.8-0.4,2.8c-0.2,1.2-0.4,2.3-0.5,3.5l-0.2,1.7c-0.4,2.7-0.7,5.6-1,8.3
		c-0.3,3.3-0.5,6.9-0.8,11.3c-0.1,2.7-0.2,5.1-0.1,7.6c0.2,3.5,0.6,7.1,1,10.7l0.2,1.4c0.3,2.8,0.7,5.8,1.2,8.6
		c0.9,4.1,1.3,8.2,1.7,12.5c0.4,4.2,0.9,8.7,1.2,13.2c0.2,2.7,0.4,5.6,0.5,8.5c0.1,1.4,0.1,2.8,0.1,4.2c0,1.5,0,3.1,0.1,4.6
		c0.2,4.4,0.4,8.7,0.7,12.9c0.1,1.8,0.3,3.7,0.5,5.5c0.2,1.7,0.3,3.5,0.5,5.2c0,0.6,0.1,1.1,0.2,1.7c0.2,1.4,0.5,2.8-0.1,4.4
		c0.3,0.1,0.6,0.2,0.9,0.3c0.6,0.2,1,0.4,1.4,0.5c3.5,0.7,6.8,1,9.9,1c1.1,0,2.2,0,3.2-0.1c0.5,0,0.9-0.1,1.4-0.1
		c0.7,0,1.5,0,2.4,0.1c2.2,0.2,4.5,0.4,6.7,0.6c3.2,0.3,6.4,0.6,9.6,0.8c1,0.1,1.9,0.1,2.7,0.1c1,0,1.8-0.1,2.7-0.2
		c1.4-0.2,2.8-0.2,3.9-0.2c0.5,0,1.1,0,1.6,0s1.1,0,1.6,0h0.7C89.58,239.4,90.38,239.4,91.08,239.4z M167.48,7.6
		c-1.2,0.8-1.6,1.5-1.4,2.6c0.7-0.5,0.9-1.1,1.2-2C167.38,8,167.48,7.8,167.48,7.6z M50.18,8.7c-0.2,0-0.4,0.1-0.6,0.2
		c-0.1,0.1-0.2,0.3-0.2,0.4s0.1,0.3,0.2,0.3c0.3,0.1,0.7,0.1,1,0.1h0.2c0,0,0.1-0.1,0.2-0.2c0,0,0-0.1,0.1-0.1V9.3
		c0-0.1,0-0.1,0-0.2C50.78,8.9,50.48,8.7,50.18,8.7z M100.18,6.3c-0.1,0.1-0.3,0.3-0.3,0.4s0.2,0.2,0.5,0.4c0,0,0.1-0.2,0.2-0.3
		c0-0.1-0.1-0.3-0.2-0.5c0,0,0-0.1-0.1-0.1C100.28,6.2,100.18,6.2,100.18,6.3z"/>
	<path d="M96.78,0.4c0.1,0,0.2,0,0.3,0c2.9,0.2,5.2,1.6,7.2,3.5c1.4,1.3,1.7,3.2,1.2,5s-1.3,3.6-2.6,5c-0.7,0.8-1.7,1.2-2.5,1.8
		c0.3,5.7,0.5,11.3,0.8,17c0.1,1.5,0.3,2.9,0.5,4.4c0.1,0.8,0.3,1.6,0.5,2.4c0.4,0.1,0.7,0.3,1,0.3l0,0c4.3,0,8.7-0.2,13-0.2
		c1,0,2.1,0,3.1,0c3,0.1,6.1,0.5,9.1,0.8c4.1,0.4,8.2,0.7,12.3,1.1c1.7,0.1,3.4,0.2,5,0.3c0.1,0,0.2,0,0.2,0c1,0,1.6-0.5,2-1.4
		c3.6-7.7,7.3-15.4,10.9-23.1c0.4-0.8,0.7-1.5,1.1-2.3c0.8-1.3,1.1-2.7,0.9-4.2c-0.2-1.7-0.1-3.3,0.5-5c0.4-1.4,1.2-2.4,2.1-3.5
		c0.6-0.6,1.2-0.9,1.9-0.9c0.3,0,0.6,0.1,1,0.2c1.8,0.8,3.7,1.6,5.4,2.6c0.8,0.4,1.4,1.3,1.8,2.1c0.4,0.7,0.5,1.6,0,2.4
		s-0.8,1.7-1.2,2.6c-1.2,3-3.1,4.5-5.7,4.5c-1,0-2.2-0.3-3.4-0.8c-0.2-0.1-0.4,0-0.8-0.1c-1,4.7-2.4,9.2-4.2,13.7
		c-1.7,4.4-3.6,8.7-5.7,13.1c1.2,0.2,2.1,0.5,3,0.6c5.1,0.5,8.8,3.2,11.9,7c0.4,0.5,0.8,1,1.1,1.5c0.4,0.9,0.6,2,1.1,2.9
		c0.4,0.8,1.3,1.4,1.6,2.3c0.8,2.3,1.5,4.6,2,6.9c0.5,2.6,0.6,5.2,0.9,7.9c0.2-0.1,0.6-0.1,0.8-0.3c3.3-4.3,7.1-8.1,11.1-11.8
		c-0.5-2.5,0.1-4.8,1-7.1c0.3-0.7,0.6-1.3,1-2c1.2-2,2.8-3,4.9-3c0.4,0,0.8,0,1.2,0.1c2.4,0.4,4.4,1.5,6,3.2
		c1.1,1.1,1.4,2.6,1.1,4.1c-0.6,2.5-1.5,4.8-3.3,6.7c-1.6,1.8-3.6,2.6-5.8,2.6c-0.7,0-1.3-0.1-2-0.2c-0.8-0.2-1.5-0.7-2.2-1.2
		c-1.4,0.7-2.1,2-2.9,3.2c-1.7,2.4-3.4,4.8-5.4,7c-0.6,0.7-1.1,1.5-1.7,2.3c-1.5,2.1-1.5,2.1-3.8,3.4c0.1,2,0.1,4.1,0.4,6.2
		c0.6,3.7,0.3,7.3,0.4,11c0.1,3.2,0.1,6.3,0.2,9.5c0.1,4.8,0.2,9.7-0.9,14.4c-0.1,0.5-0.1,1-0.1,1.6c-0.3,5.1-0.5,10.3-0.8,15.4
		c-0.1,2.5-0.5,5-0.6,7.5c-0.1,1.7-0.5,3.3,0,5c0.1,0.3,0.1,0.6,0.1,0.9c-0.4,4.4,0.1,8.8,0.1,13.2c0,4.1,0.6,8.2,1,12.2
		c0.5,5.2,1,10.5,1.4,15.7c0.4,4.6,0.8,9.2,1.2,13.8c0.1,0.7,0.2,1.5-0.4,2.1c-0.5,0.6-0.4,1.1,0.1,1.6c0.2,0.3,0.3,0.8,0.4,1.2
		c0.4,3.2,0.9,6.5,1.1,9.7c0.2,2.1,0.1,4.2,0.1,6.3c0,0.7-0.4,1.4-0.8,2c-1,1.2-2,2.4-3.2,3.5c-1.6,1.5-3.5,2.3-5.6,2.6
		c-2.2,0.2-4.4,0.4-6.6,0.5c-2.4,0.1-4.8,0.4-7.1,1.3c-0.4,0.2-0.9,0.4-1.4,0.4h-0.1c-0.4,0-0.8-0.1-1.2-0.1c-2.1,0-4.2,0.5-6.2,1.1
		c-6,1.8-12.1,2.6-18.2,3.5c-4.4,0.7-8.8,1.1-13.1,1.7c-4.9,0.7-9.8,0.9-14.7,0.9c-0.3,0-0.7,0-1,0c-3.7,0-7.3-0.1-11-0.1
		c-1.3,0-2.6,0-3.9,0c-0.5,0-1.1,0-1.6,0c-6.1,0-12.2-0.4-18.2-1.1c-1.9-0.2-3.8-0.3-5.7-0.3c-1.3,0-2.5,0-3.8,0.1
		c-0.6,0-1.2,0-1.7,0c-3,0-5.9-0.4-8.9-0.9c-2.5-0.5-4.9-1.2-7.3-2c-1.6-0.6-2.4-1.7-2.4-3.3c0-2.3,0.2-4.6,0.3-6.9
		c0.1-1.1,0.2-2.1,0.2-3.1c-0.1-4.3,0.1-8.6-0.4-12.9c-0.5-4.6-0.6-9.2-0.7-13.9c0-5-0.4-9.9-0.9-14.8c-0.4-3.7-0.7-7.3-1-11
		c-0.4-4.2-1.1-8.3-1.8-12.5c-0.7-5-1.7-10-2-15c-0.3-5.6-0.5-11.1,0.3-16.7c0.4-2.8,0.5-5.7,0.8-8.5c0.4-3.8,0.8-7.5,1.3-11.2
		c0.6-4.4,1.1-8.8,1.8-13.1c0.8-5.3,1.2-10.6,1.5-16c0.2-3.2,0.4-6.5,0.6-9.7c-5.6-5.5-11.1-10.8-16.7-16.1
		c-1.1-1.1-2.5-1.9-3.8-2.8s-2.6-1.8-4-2.8c-0.7,0.4-1.4,0.9-2.1,1.2c-0.8,0.4-1.6,0.6-2.3,0.6c-1.7,0-3.1-1-3.9-2.8
		c-1.1-2.5-0.9-4.9,0.1-7.3c0.6-1.5,2.6-2.4,4.4-2.4c0.6,0,1.1,0.1,1.6,0.3c0.6,0.2,1.2,0.5,1.7,0.8c1.9,1.2,2.4,2.3,1.9,4.5
		c-0.2,0.8-0.4,1.6-0.5,2.5c0,0.2,0.1,0.4,0.2,0.7c1.4,0.7,2.9,1.4,4.4,2.3c1.9,1.1,3.7,2.3,5.4,3.8c2.7,2.5,5.6,4.8,8.4,7.2
		c1,0.8,1.9,1.6,2.8,2.5s1.6,1.9,2.4,2.9c0.8-0.7,0.5-1.4,0.5-2.1c0.2-3.1,0.6-6.1,2-8.9c0.7-1.4,1.5-2.6,2.8-3.3
		c1.5-0.9,3.1-1.8,4.7-2.5c2.2-1,4.5-1.7,6.8-2.5c2.7-1,5.3-1.9,8.1-2.9c-3.1-6-4.8-12.4-7.1-18.6c-0.6-1.6-1-3.2-2.2-4.5
		c-0.6,0-1.2,0-1.8,0c-0.4,0-0.7,0-1.1,0c-1.6-0.1-2.8-0.8-3.5-2.3c-0.5-1-0.9-2.1-1.2-3.2c-0.7-2.8,0.1-5.3,2.2-7.1
		c1.4-1.2,2.9-1.8,4.5-1.8c0.9,0,1.8,0.2,2.8,0.6c0.3,0.1,0.6,0.3,0.9,0.4c2.7,1.1,3.7,3.2,2.5,5.8c-0.7,1.6-1.6,3.2-2.6,5
		c2.1,2.4,3.3,5.2,4.4,8c1.4,4,2.8,7.9,4.4,11.8c0.6,1.7,1.6,3.2,2.3,4.6c0.7,0.3,1.4,0.4,2,0.4c0.8,0,1.5-0.2,2.2-0.3
		c6.4-1,12.8-0.9,19.2-1.1c2.8-0.1,5.7-0.3,8.5-0.5c0.5,0,1-0.2,1.6-0.3c0.5-2.9-0.5-5.5-0.4-8.2s0-5.5,0.1-8.2s0.2-5.4,0.2-8.2
		c-0.8-0.6-1.6-1-2.4-1.6c-1.5-1.1-2.4-2.6-2.5-4.5c-0.2-1.9,0-3.8,0.6-5.6C93.18,1.6,94.78,0.4,96.78,0.4 M100.38,7.1
		c0,0,0.3-0.3,0.3-0.4c0-0.2-0.2-0.5-0.3-0.8c-0.3,0.3-0.6,0.5-0.6,0.7C99.78,6.8,100.08,7,100.38,7.1L100.38,7.1 M167.78,7.3
		c-1.6,0.9-2,1.7-1.7,3.1C167.18,9.7,167.18,8.7,167.78,7.3 M50.58,9.8c0.1,0,0.1,0,0.2,0s0.3-0.2,0.4-0.3c0-0.2,0-0.3-0.1-0.4
		c-0.2-0.4-0.6-0.5-0.9-0.5c-0.2,0-0.4,0.1-0.6,0.2c-0.1,0.1-0.3,0.3-0.3,0.5c0,0.1,0.2,0.4,0.3,0.4C49.88,9.8,50.28,9.8,50.58,9.8
		 M82.78,44.3c-0.1,0-0.3,0-0.4,0c-0.2,0-0.4,0-0.5,0c-3.1,0-6.1,0.2-9.2,0.3c-1.4,0.1-2.7,0.5-4.1,0.5c-3.6,0.1-7.1,1-10.5,2.1
		c-2.9,0.9-5.7,2.3-8.6,3.1c-2.1,0.6-3.8,1.7-5.7,2.7c-2.4,1.3-3.6,3.4-4.1,6c-0.8,5-1.2,10-1.6,15.1c-0.3,4.8-0.5,9.7-0.8,14.5
		c-0.1,1.1-0.3,2.3-0.5,3.4c-0.3,2.3-0.6,4.6-0.9,6.9c-0.4,3-0.8,6-1.2,9.1c-0.3,2.1-0.6,4.2-0.9,6.2c-0.4,3.3-0.9,6.7-1.2,10
		c-0.3,3.8-0.6,7.5-0.8,11.3c-0.1,2.5-0.2,5.1-0.1,7.6c0.2,3.6,0.6,7.1,1,10.7c0.4,3.3,0.7,6.7,1.4,10c0.9,4.1,1.3,8.3,1.7,12.5
		c0.4,4.4,0.9,8.8,1.2,13.2c0.2,2.8,0.4,5.7,0.5,8.5c0.1,2.9,0,5.9,0.2,8.8c0.2,4.3,0.4,8.6,0.7,12.9c0.3,3.6,0.7,7.1,1,10.7
		c0.1,2,1,3.9,0.1,6.1c1.1,0.4,1.8,0.7,2.5,0.8c3.3,0.6,6.6,1,9.9,1c1.1,0,2.2,0,3.3-0.1c0.4,0,0.9-0.1,1.3-0.1c0.8,0,1.6,0,2.4,0.1
		c5.5,0.5,10.9,1,16.4,1.5c0.9,0.1,1.8,0.1,2.7,0.1c0.9,0,1.8,0,2.7-0.2c1.3-0.2,2.6-0.2,3.9-0.2c1.1,0,2.2,0,3.3,0
		c0.2,0,0.5,0,0.7,0c0.8,0,1.5,0,2.3,0c2.4,0,4.7,0.1,7.1,0.3c1,0.1,2,0.1,3,0.1c2.8,0,5.5-0.3,8.3-0.8c1-0.2,2.1-0.3,3.1-0.4
		c3.7-0.5,7.5-1,11.2-1.5c2-0.3,3.9-0.7,5.9-1c5.1-0.7,10.2-1.6,15.1-3.1c2.3-0.7,4.7-1.4,7.1-1.4c0.1,0,0.2,0,0.3,0h0.1
		c0.5,0,1-0.1,1.4-0.2c2-0.6,4-0.7,6-0.7c0.3,0,0.6,0,0.8,0c0.1,0,0.1,0,0.2,0c1.9,0,3.6-0.4,5.4-0.6c0.6-0.1,1.3-0.3,1.7-0.7
		c1.4-1.3,3-2.5,3.9-4.1s0.8-3.7,0.6-5.6c0-0.3-0.2-0.6-0.2-0.9c-0.3-2.9-0.6-5.9-0.9-8.8c-0.2-1.7-0.4-3.4-0.2-5
		c0.2-1.7-0.3-3.3-0.4-5c-0.4-5.9-0.9-11.8-1.4-17.6c-0.2-2.3-0.4-4.6-0.6-6.9c-0.2-1.6-0.4-3.1-0.3-4.7c0.1-1.6-0.5-3.3-0.7-5
		c-0.1-0.5-0.1-1.1-0.1-1.6c0-5.7-0.2-11.3-0.4-17c-0.1-2.1,0.1-4.2,0.2-6.3c0.2-3.5,0.5-6.9,0.7-10.4c0.1-2,0.4-4,0.5-6
		c0.1-3.3,0.5-6.5,0.8-9.7c0.3-2.8,0.1-5.7,0.1-8.5c0-3.5-0.1-6.9-0.1-10.4c0.1-4.7,0.3-9.5-0.5-14.2c-0.1-0.6-0.1-1.3,0-1.9
		c0.1-1.8,0.2-3.6,0.2-5.3c-0.2-3.2-0.6-6.5-0.7-9.7c-0.3-5.8-2.6-10.8-6.2-15.2c-2-2.5-4.7-3.8-7.9-4.2c-2.4-0.3-4.8-0.2-7.2-0.4
		c-4.3-0.2-8.6-0.5-12.9-0.8c-2.3-0.2-4.6-0.3-6.9-0.8c-2.5-0.5-4.9-0.6-7.4-0.6h-0.1c-0.2,0-0.3,0-0.5,0c-2.4,0-4.8,0-7.2,0
		c-1.5,0-3.1,0-4.6,0c-4.2,0.1-8.4,0.4-12.6,0.6C90.88,43.9,86.78,44.3,82.78,44.3 M96.78,0.2c-2,0-3.8,1.3-4.5,3.3
		c-0.6,1.7-0.8,3.6-0.6,5.7c0.2,1.9,1,3.5,2.6,4.7c0.5,0.4,1,0.7,1.6,1.1c0.2,0.1,0.4,0.3,0.7,0.4c0,0.8-0.1,1.6-0.1,2.4
		c-0.1,1.9-0.1,3.8-0.2,5.7c0,1.2,0,2.5,0,3.7c0,1.5,0,3,0,4.5c0,1.1,0.1,2.3,0.3,3.4c0.2,1.5,0.4,3.1,0.2,4.7
		c-0.1,0-0.3,0.1-0.4,0.1c-0.3,0.1-0.7,0.2-1,0.2l-1.2,0.1c-2.4,0.2-4.9,0.3-7.3,0.4c-1.5,0.1-3,0.1-4.4,0.1
		c-4.8,0.1-9.9,0.2-14.8,1l-0.4,0.1c-0.6,0.1-1.2,0.2-1.8,0.2c-0.7,0-1.3-0.1-1.8-0.4c-0.2-0.4-0.4-0.8-0.7-1.3
		c-0.6-1-1.1-2.1-1.6-3.3c-1.6-4-3.1-8.2-4.4-11.8c-1.2-3.4-2.6-5.9-4.3-8c0.3-0.5,0.5-1,0.8-1.5c0.6-1.1,1.2-2.2,1.7-3.3
		c0.6-1.3,0.6-2.5,0.2-3.6s-1.4-2-2.9-2.6c-0.1-0.1-0.3-0.1-0.4-0.2s-0.3-0.1-0.4-0.2c-1-0.4-2-0.6-2.9-0.6c-1.7,0-3.3,0.6-4.7,1.9
		c-2.2,1.9-3,4.5-2.3,7.4c0.3,1,0.7,2.1,1.2,3.3c0.7,1.5,2,2.3,3.7,2.4c0.4,0,0.7,0,1.1,0c0.3,0,0.6,0,0.9,0s0.5,0,0.8,0
		c0.9,1,1.3,2.2,1.8,3.5c0.1,0.3,0.2,0.5,0.3,0.8c0.8,2,1.5,4.1,2.1,6.1c1.4,4.1,2.8,8.3,4.8,12.3l-2.2,0.8c-1.9,0.7-3.7,1.3-5.6,2
		c-0.5,0.2-1,0.4-1.5,0.5c-1.8,0.6-3.6,1.3-5.3,2c-1.6,0.7-3,1.5-4.8,2.5c-1.2,0.7-2.1,1.8-2.9,3.4c-1.4,2.9-1.8,6-2,9
		c0,0.2,0,0.4,0,0.5c0,0.4,0.1,0.8-0.3,1.2c-0.2-0.2-0.4-0.5-0.6-0.7c-0.6-0.7-1.1-1.4-1.7-2c-0.7-0.8-1.6-1.5-2.4-2.2l-0.4-0.4
		c-0.9-0.8-1.9-1.6-2.8-2.4c-1.9-1.5-3.8-3.2-5.6-4.8c-1.7-1.6-3.7-2.8-5.4-3.8c-1-0.6-2.1-1.1-3.1-1.6c-0.4-0.2-0.8-0.4-1.2-0.6
		c0-0.1-0.1-0.2-0.1-0.2c0-0.1-0.1-0.2-0.1-0.3c0.1-0.5,0.2-1,0.3-1.4c0.1-0.3,0.1-0.7,0.2-1c0.4-2.3-0.1-3.6-2.1-4.8
		c-0.5-0.3-1.1-0.6-1.7-0.8c-0.5-0.2-1.1-0.3-1.7-0.3c-2.1,0-4,1.1-4.6,2.6c-1.1,2.7-1.2,5.2-0.1,7.5c0.9,1.9,2.4,2.9,4.1,2.9
		c0.8,0,1.6-0.2,2.4-0.6c0.5-0.2,1-0.5,1.5-0.8c0.2-0.1,0.3-0.2,0.5-0.3c0.4,0.3,0.8,0.5,1.2,0.8c0.9,0.6,1.8,1.2,2.7,1.9
		c0.3,0.2,0.7,0.5,1,0.7c0.9,0.6,1.9,1.3,2.7,2.1c4.1,3.9,8,7.8,12.2,11.8c1.4,1.4,2.9,2.8,4.3,4.2l-0.2,2.9
		c-0.1,2.2-0.3,4.5-0.4,6.7c-0.3,5.4-0.6,10.6-1.5,16c-0.7,4.4-1.3,8.8-1.8,13.1c-0.5,3.6-0.9,7.3-1.3,11.3
		c-0.1,1.2-0.2,2.4-0.3,3.5c-0.1,1.6-0.3,3.3-0.5,5c-0.8,5.9-0.6,11.8-0.3,16.8c0.2,3.7,0.8,7.5,1.4,11.2c0.2,1.3,0.4,2.6,0.6,3.8
		s0.4,2.5,0.6,3.7c0.5,2.8,0.9,5.8,1.2,8.7c0.3,3.5,0.6,7.1,1,11c0.6,5.8,0.9,10.5,0.9,14.8c0,5.4,0.2,9.8,0.7,13.9
		c0.3,2.9,0.3,5.9,0.3,8.8c0,1.4,0,2.8,0.1,4.2c0,0.6,0,1.3-0.1,1.9c0,0.4-0.1,0.8-0.1,1.2l-0.1,1.5c-0.1,1.8-0.2,3.7-0.2,5.5
		s0.8,3,2.5,3.6c2.6,0.9,5,1.6,7.3,2c3.4,0.6,6.3,0.9,8.9,0.9c0.6,0,1.2,0,1.8,0c1.3-0.1,2.6-0.1,3.8-0.1c2,0,3.9,0.1,5.7,0.3
		c6.5,0.7,12.5,1.1,18.3,1.1c0.5,0,1.1,0,1.6,0c1.3,0,2.6,0,3.9,0c2.5,0,5.1,0,7.6,0c1.1,0,2.3,0,3.4,0c0.3,0,0.7,0,1,0
		c5.3,0,10.1-0.3,14.8-0.9c1.8-0.2,3.5-0.5,5.3-0.7c2.6-0.3,5.2-0.7,7.8-1c0.7-0.1,1.4-0.2,2.1-0.3c5.3-0.8,10.9-1.6,16.2-3.2
		c1.9-0.6,4-1.1,6.2-1.1c0.4,0,0.8,0,1.2,0.1c0.1,0,0.1,0,0.2,0c0.4,0,0.8-0.2,1.2-0.3l0.2-0.1c2.1-0.7,4.4-1.2,7-1.3
		c2.2-0.1,4.5-0.3,6.6-0.5c2.2-0.2,4.2-1.2,5.8-2.7c1-1,2.1-2.1,3.2-3.6c0.5-0.6,0.8-1.4,0.8-2.1c0.1-2,0.1-4.2-0.1-6.3
		c-0.2-2.5-0.5-5-0.8-7.4c-0.1-0.8-0.2-1.5-0.3-2.3c-0.1-0.5-0.1-1-0.4-1.3c-0.5-0.5-0.5-0.9-0.1-1.3c0.6-0.7,0.5-1.4,0.5-2.2V205
		c-0.2-2.2-0.4-4.4-0.6-6.6c-0.2-2.4-0.4-4.8-0.6-7.2s-0.4-4.8-0.7-7.2c-0.3-2.8-0.5-5.7-0.8-8.5c-0.1-1.2-0.2-2.4-0.4-3.6
		c-0.3-2.8-0.6-5.7-0.6-8.6c0-1.5-0.1-3-0.1-4.5c-0.1-2.8-0.2-5.8,0-8.7c0-0.4,0-0.7-0.1-1c-0.4-1.2-0.2-2.4-0.1-3.7
		c0-0.4,0.1-0.8,0.1-1.3c0.1-1.3,0.2-2.6,0.3-3.8c0.1-1.2,0.2-2.5,0.3-3.7c0.2-3.5,0.4-7,0.5-10.4c0.1-1.7,0.2-3.4,0.2-5.1v-0.2
		c0-0.4,0-0.9,0.1-1.3c1.1-4.6,1-9.1,0.9-14.5c-0.1-2-0.1-4.1-0.1-6.1c0-1.1,0-2.2-0.1-3.3c0-1.1,0-2.3,0-3.4c0-2.5,0.1-5.1-0.4-7.7
		c-0.2-1.4-0.3-2.9-0.3-4.3c0-0.6,0-1.2-0.1-1.7c2.2-1.3,2.2-1.3,3.7-3.4c0.2-0.2,0.3-0.4,0.4-0.7c0.4-0.6,0.8-1.1,1.2-1.6
		c2-2.2,3.7-4.6,5.4-7v-0.1c0.1-0.2,0.3-0.4,0.4-0.6c0.6-0.9,1.3-1.9,2.3-2.5c0.2,0.1,0.4,0.2,0.6,0.4c0.5,0.3,1,0.6,1.6,0.8
		c0.7,0.1,1.4,0.2,2.1,0.2c2.3,0,4.3-0.9,5.9-2.7c1.6-1.7,2.7-3.9,3.3-6.9c0.4-1.7,0-3.3-1.1-4.3c-1.9-1.8-3.9-2.9-6.2-3.2
		c-0.4-0.1-0.8-0.1-1.2-0.1c-2.2,0-3.9,1-5.1,3.1c-0.4,0.7-0.7,1.4-1,2c-0.8,2-1.5,4.5-1,7.1c-3.5,3.3-7.5,7.3-11,11.7
		c0,0.1-0.2,0.1-0.3,0.1c-0.1-0.7-0.1-1.4-0.2-2.2c-0.2-1.9-0.3-3.7-0.6-5.4c-0.4-2.2-1.1-4.4-2-7c-0.2-0.5-0.5-0.9-0.9-1.3
		c-0.3-0.3-0.5-0.6-0.7-1c-0.3-0.5-0.4-1-0.6-1.6c-0.1-0.4-0.3-0.9-0.5-1.4s-0.6-1-1-1.4l-0.1-0.2c-3.6-4.4-7.4-6.6-12.1-7.1
		c-0.6-0.1-1.2-0.2-1.9-0.4c-0.2-0.1-0.5-0.1-0.8-0.2c1.9-4,3.7-8.1,5.5-12.9c1.8-4.5,3.2-9.1,4.2-13.5c0.1,0,0.1,0,0.1,0
		c0.2,0,0.3,0,0.3,0c1.3,0.5,2.5,0.8,3.5,0.8c2.6,0,4.6-1.6,5.9-4.7l0.1-0.3c0.3-0.7,0.6-1.5,1-2.2c0.5-0.8,0.4-1.7,0-2.7
		c-0.4-0.7-1-1.7-1.9-2.2c-1.8-1.1-3.8-1.9-5.4-2.6c-0.4-0.1-0.7-0.2-1.1-0.2c-0.8,0-1.5,0.4-2.1,1c-1.1,1.2-1.8,2.3-2.2,3.6
		c-0.5,1.5-0.6,3.2-0.5,5.1c0.1,1.5-0.1,2.9-0.9,4.1c-0.3,0.6-0.6,1.2-0.9,1.8c-0.1,0.2-0.2,0.3-0.2,0.5l-1.1,2.3
		c-3.3,6.9-6.5,13.9-9.8,20.8c-0.4,0.9-0.9,1.3-1.8,1.3c-0.1,0-0.1,0-0.2,0c-0.8-0.1-1.6-0.1-2.4-0.2c-0.9-0.1-1.8-0.1-2.7-0.2
		c-3.8-0.3-7.8-0.7-12.3-1.1c-1-0.1-2-0.2-3-0.3c-2-0.2-4.1-0.5-6.1-0.5c-1,0-2.1,0-3.1,0c-2.6,0-5.2,0-7.7,0.1
		c-1.8,0-3.5,0.1-5.3,0.1l0,0c-0.1,0-0.3-0.1-0.5-0.1c-0.1,0-0.2-0.1-0.3-0.1c0-0.2-0.1-0.4-0.1-0.6c-0.1-0.5-0.2-1.1-0.3-1.7
		l-0.1-0.7c-0.2-1.2-0.3-2.4-0.4-3.6c-0.2-4.1-0.4-8.3-0.6-12.4l-0.2-4.5c0.2-0.1,0.4-0.3,0.7-0.4c0.6-0.4,1.2-0.8,1.7-1.3
		c1.2-1.4,2.1-3.1,2.7-5.1s0.1-3.9-1.3-5.2c-2.3-2.3-4.7-3.4-7.4-3.6C96.98,0.2,96.88,0.2,96.78,0.2L96.78,0.2z M100.28,6.8
		c-0.1-0.1-0.3-0.2-0.3-0.2s0.1-0.1,0.2-0.2l0,0C100.38,6.5,100.38,6.6,100.28,6.8C100.38,6.7,100.38,6.8,100.28,6.8L100.28,6.8z
		 M166.18,9.9c-0.1-0.9,0.2-1.5,1.1-2.1c0,0.1-0.1,0.2-0.1,0.3C166.98,8.9,166.78,9.5,166.18,9.9L166.18,9.9z M50.58,9.6
		c-0.3,0-0.6,0-1-0.1c0,0-0.1-0.1-0.1-0.2s0.1-0.3,0.1-0.3c0.2-0.1,0.3-0.2,0.5-0.2c0.3,0,0.5,0.2,0.7,0.4v0.1l0,0l0,0l-0.1,0.1
		C50.68,9.6,50.68,9.6,50.58,9.6C50.68,9.6,50.58,9.6,50.58,9.6L50.58,9.6z M82.78,44.6c2.7,0,5.5-0.2,8.2-0.4
		c1.3-0.1,2.7-0.2,4-0.2c1-0.1,2-0.1,3.1-0.2c3.1-0.2,6.4-0.3,9.5-0.4c1.4,0,2.8,0,4.6,0c1.2,0,2.4,0,3.6,0s2.4,0,3.6,0h0.5h0.1
		c2.2,0,4.7,0.1,7.3,0.6c2.2,0.4,4.4,0.6,6.6,0.7h0.3c3.8,0.3,7.6,0.5,11.3,0.7l1.7,0.1c0.8,0,1.7,0.1,2.5,0.1
		c1.5,0,3.1,0.1,4.7,0.3c3.2,0.4,5.8,1.8,7.7,4.1c3.9,4.8,5.9,9.8,6.1,15.1c0.1,1.7,0.2,3.3,0.4,5c0.1,1.6,0.3,3.2,0.4,4.8
		c0.1,1.2,0,2.3-0.1,3.5c0,0.6-0.1,1.2-0.1,1.8v0.3c0,0.5,0,1.1,0.1,1.6c0.7,4.2,0.7,8.4,0.6,12.6v1.6c0,2.1,0,4.3,0,6.4
		c0,1.4,0,2.7,0,4c0,0.7,0,1.5,0,2.2c0,2.1,0.1,4.2-0.2,6.3c-0.4,3.4-0.7,6.5-0.8,9.7c0,1.2-0.2,2.4-0.3,3.6
		c-0.1,0.8-0.2,1.6-0.2,2.4c-0.2,3.3-0.5,6.9-0.7,10.4c0,0.4,0,0.8-0.1,1.2c-0.1,1.7-0.2,3.4-0.1,5.1c0.3,5.5,0.4,11,0.4,17v0.3
		c0,0.4,0,0.9,0.1,1.3c0.1,0.6,0.2,1.1,0.3,1.7c0.2,1.1,0.5,2.2,0.4,3.3c-0.1,1.3,0.1,2.6,0.2,3.8c0,0.3,0.1,0.6,0.1,1
		c0.3,2.4,0.5,4.8,0.6,6.9c0.1,1.3,0.2,2.7,0.3,4c0.4,4.4,0.7,9,1,13.6c0,0.6,0.1,1.2,0.2,1.8c0.1,1,0.3,2.1,0.2,3.2
		c-0.2,1.4,0,2.8,0.1,4.1c0,0.3,0.1,0.6,0.1,1c0.2,2.3,0.5,4.6,0.7,6.8l0.2,1.9c0,0.2,0.1,0.3,0.1,0.5s0.1,0.3,0.1,0.4
		c0.2,1.8,0.3,3.9-0.6,5.4c-0.7,1.2-1.8,2.2-2.9,3.2c-0.3,0.3-0.6,0.6-0.9,0.8c-0.3,0.3-1,0.6-1.6,0.7c-0.5,0.1-1.1,0.1-1.6,0.2
		c-1.2,0.2-2.5,0.4-3.8,0.4h-0.2c-0.3,0-0.6,0-0.8,0c-1.7,0-3.9,0.1-6.1,0.8c-0.5,0.1-0.9,0.2-1.4,0.2h-0.1c-0.1,0-0.2,0-0.3,0
		c-2.4,0-4.8,0.7-7,1.3h-0.2c-5.4,1.6-10.9,2.5-15.1,3.1c-1,0.1-2,0.3-2.9,0.5c-1,0.2-2,0.4-3,0.5c-2.8,0.4-5.6,0.8-8.4,1.1
		l-2.9,0.4c-0.4,0.1-0.8,0.1-1.1,0.1c-0.7,0.1-1.3,0.2-2,0.3c-3,0.5-5.6,0.8-8.2,0.8c-1,0-2,0-3-0.1c-2.1-0.2-4.4-0.3-7.2-0.3
		c-0.8,0-1.5,0-2.3,0c-0.2,0-0.5,0-0.7,0c-0.5,0-1.1,0-1.6,0s-1.1,0-1.6,0c-1.1,0-2.5,0-3.9,0.2c-0.8,0.1-1.7,0.2-2.6,0.2
		c-0.8,0-1.7,0-2.7-0.1c-3.2-0.3-6.4-0.6-9.6-0.8c-2.3-0.2-4.5-0.4-6.8-0.6c-0.9-0.1-1.7-0.1-2.5-0.1c-0.5,0-0.9,0-1.4,0.1
		c-1.1,0.1-2.1,0.1-3.2,0.1c-3.1,0-6.3-0.3-9.8-1c-0.4-0.1-0.9-0.2-1.4-0.5c-0.2-0.1-0.5-0.2-0.8-0.3c0.5-1.5,0.3-2.9,0-4.3
		c-0.1-0.6-0.2-1.1-0.2-1.7c-0.1-1.7-0.3-3.5-0.5-5.2c-0.2-1.8-0.4-3.6-0.5-5.5c-0.3-4.2-0.6-8.5-0.7-12.9c-0.1-1.5-0.1-3.1-0.1-4.6
		c0-1.4,0-2.8-0.1-4.2c-0.1-2.9-0.3-5.8-0.5-8.5c-0.4-4.4-0.8-8.9-1.2-13.2c-0.4-4.2-0.9-8.4-1.7-12.5c-0.6-2.8-0.9-5.7-1.2-8.5
		l-0.2-1.4c-0.4-3.6-0.8-7.1-1-10.7c-0.1-2.5,0-4.9,0.1-7.5c0.2-4.4,0.5-8,0.8-11.3c0.3-2.8,0.6-5.6,1-8.4l0.2-1.6
		c0.1-1.2,0.3-2.3,0.5-3.5c0.1-0.9,0.3-1.8,0.4-2.8c0.3-1.9,0.5-3.9,0.8-5.8c0.1-1.1,0.3-2.2,0.4-3.2c0.3-2.3,0.6-4.6,0.9-6.9
		c0.1-0.4,0.1-0.7,0.2-1.1c0.1-0.8,0.2-1.5,0.3-2.3c0.1-2.2,0.2-4.3,0.4-6.5c0.1-2.6,0.3-5.3,0.4-8c0.3-4.6,0.7-9.9,1.5-15
		c0.5-2.8,1.7-4.6,3.9-5.9l0.6-0.3c1.7-0.9,3.2-1.8,5-2.3c1.6-0.5,3.1-1.1,4.6-1.7c1.3-0.5,2.6-1,4-1.5c3.2-1,6.7-2.1,10.4-2.1
		c0.7,0,1.5-0.1,2.2-0.3c0.6-0.1,1.2-0.2,1.9-0.2c2.7-0.2,6-0.3,9.2-0.3h0.5L82.78,44.6L82.78,44.6z"/>
</g>
<g>
	<path d="M48.38,92c-0.4,0-0.9-0.1-1.4-0.3c-0.9-0.3-1.4-0.9-1.5-1.9c-0.5-2.8-0.4-5.6-0.3-8.4c0-0.6,0-1.1,0-1.7
		c0-1.1,0.5-1.8,1.3-2.1c0.8-0.3,1.2-0.9,1.4-1.8c0.2-0.8,0.9-1.4,1.7-1.4c1.2-0.1,2.3-0.2,3.6-0.3l1.6-0.1l0.1-0.1
		c0.1-0.2,0.2-0.4,0.3-0.7c0.3-0.6,0.8-1,1.4-1c0.1,0,0.2,0,0.3,0c0.5,0.1,1.1,0.2,1.6,0.2c1.3,0.1,2.6,0.3,3.8,1
		c0.5-0.4,0.5-0.9,0.5-1.4c0-0.3,0-0.6,0.1-0.8c0.2-0.7,0.7-1.5,1.8-1.5c0,0,0.3,0,0.4,0c0.8,0,1.4-0.2,1.9-0.6s1.1-0.6,1.7-0.6
		c0.8,0,1.5,0.4,2.1,1l0.2,0.3c0.3,0.4,0.6,0.7,1.1,0.9c0.3,0.1,0.7,0.3,1.1,0.3s0.8-0.2,1.1-0.5c0.1-0.1,0.8-0.7,1.3-0.7h0.1
		c0.3,0.1,0.5,0.1,0.8,0.1c0.9,0,1.6-0.3,2.4-0.6c0.3-0.1,0.6-0.2,1-0.3c0.3-0.1,0.5-0.1,0.8-0.1c1,0,1.7,0.6,2.2,1.9
		c0,0.1,0.1,0.2,0.1,0.3c0,0.1,0,0.2,0.1,0.3l0.1,0.1l0.1,0.1c0.3,0.1,0.6,0.1,0.9,0.1c0.8,0,1.4-0.3,1.9-1c0.4-0.6,1-0.9,1.6-0.9
		c0.1,0,0.3,0,0.4,0.1c0.4,0.1,0.8,0.2,1.3,0.2c1.1,0,2.2-0.4,3.2-0.7c0.5-0.2,1-0.3,1.4-0.4c0.6-0.2,1.2-0.3,1.9-0.3
		c0.2,0,0.4,0,0.6,0c1.2,0.2,1.8,0.8,1.9,1.9c0,0.2,0.1,0.4,0.2,0.5c0,0.1,0.1,0.1,0.1,0.2c0.5-0.1,0.6-0.4,0.8-0.9
		c0.4-2,0.7-2.8,2.2-2.8c0.4,0,0.8,0,1.5,0.1s1.4,0.2,2.1,0.2c1.1,0,1.9-0.2,2.7-0.7c0.3-0.2,0.7-0.3,1.1-0.3c0.1,0,0.1,0,0.2,0
		c0.6,0.1,1.2,0.1,1.8,0.1c0.9,0,1.9-0.1,2.8-0.4c0.1,0,0.2,0,0.4,0c0.6,0,1.1,0.4,1.5,0.8c0.2,0.2,0.4,0.4,0.6,0.5
		c0.3,0.2,0.5,0.3,0.7,0.3c0.5,0,0.7-0.4,0.8-0.8c0-0.1,0.1-0.3,0.1-0.4c0-0.2,0-0.3,0.1-0.5c0.4-1.1,1.1-1.6,2.1-1.6h0.1
		c0.2,0,0.5,0.1,0.7,0.1c0.2,0.1,0.5,0.1,0.7,0.1h0.1c0.2,0,0.4,0,0.6,0s0.4,0,0.6,0s0.4,0,0.6,0c0.8,0,1.6-0.1,2.3-0.8
		c0.2-0.2,0.4-0.3,0.7-0.3c1.4,0,2.8-0.1,3.7-1.5c0.2-0.3,0.8-0.3,1-0.3c0.1,0,0.2,0,0.3,0c0.5,0.1,1.2,0.1,1.8,0.1
		c0.7,0,1.3-0.1,1.9-0.3c0.1,0,0.2-0.1,0.4-0.1c0.2,0,0.3,0,0.5,0.1c0.1,0,0.3,0,0.4,0c0.5,0,0.9,0.4,1.2,0.7c0.3,0.3,0.6,0.6,1,0.6
		c0.1,0,0.3,0,0.4-0.1c0.3-0.1,0.6-0.2,0.9-0.2c0.7,0,1.3,0.3,1.9,0.6l0.1,0.1l0.1,0.1c0.3,0,0.7-0.1,1-0.1c1.5,0,2.7,0.5,3.7,1.5
		l1.2,0.1l1.9,0.1l0.2-0.2c0.2-0.2,0.4-0.4,0.5-0.6c0.9-1.2,1.5-1.7,2.3-1.7c0.4,0,1,0.2,1.8,0.5c0.2,0.1,0.3,0.2,0.5,0.2
		c0.6,0.3,1.2,0.6,2,0.6h0.1c1,0,1.8,0.7,2,1.9c0.2,0.9,0.4,2.1,0.3,3.2c-0.4,2.6-0.3,5.3,0.1,8.6c-0.8,1.6-2.1,1.7-3.3,1.7l0,0
		c-0.1,0.2-0.1,0.5-0.2,0.7c-0.2,0.5-0.3,1-0.5,1.4c-0.6,1.3-1.6,2.1-2.8,2.1c-0.6,0-1.2-0.2-1.8-0.6c-0.7-0.5-1.4-0.7-2.1-0.7
		c-0.2,0-0.4,0-0.7,0.1c-0.1,0-0.1,0-0.2,0c-0.2,0-0.4,0-0.6-0.1c-0.1,0-0.3-0.1-0.4-0.1s-0.2,0-0.3,0c-0.1,0-0.3-0.1-0.4-0.1
		s-0.1,0-0.2,0c-0.8,0.6-1.6,0.9-2.5,0.9c-0.8,0-1.7-0.2-2.5-0.4c-0.8-0.2-1.6-0.4-2.5-0.4h-0.3c-0.4,0-0.9-0.1-1.3-0.1
		c-0.3,0-0.5-0.1-0.8-0.1h-0.1c-0.1,0-0.2,0-0.2,0c-0.1,0-0.2,0-0.3,0c-0.1,0-0.2,0-0.3,0c-1.1-0.3-2.3-0.5-3.7-0.5
		c-2,0-4,0.4-5.9,0.7c-0.5,0.1-1,0.2-1.5,0.3c-0.5,0.1-1,0.1-1.6,0.1c-0.2,0-0.4,0-0.7,0c-1.2,0.1-2.2,0.1-2.8,1.3
		c-0.1,0.3-0.5,0.5-0.8,0.7l-0.2,0.1c-0.2,0.1-0.3,0.2-0.5,0.2c-0.1,0-0.3,0.1-0.4,0.2c-1.3,0.7-4.3,1.4-5.7,1.6
		c-1.1,0.2-2.3,0.5-3.6,1c-0.7,0.3-1.5,0.6-2.3,0.6c-0.7,0-1.4-0.2-2-0.7c-0.2-0.2-0.6-0.2-0.9-0.3h-0.2c-0.3-0.1-0.5-0.1-0.8-0.2
		c-0.5-0.1-1-0.3-1.5-0.3c-0.1,0-0.2,0-0.3,0c-0.7,0.1-0.8,0.8-1,1.4c-0.1,0.3-0.1,0.6-0.2,0.8c-0.3,0.8-0.9,1.2-1.8,1.3
		c-0.2,0-0.5,0-0.7,0c-1,0-1.7-0.3-2.3-0.9c-0.4-0.4-0.4-0.9-0.5-1.3c0-0.3,0-0.5-0.1-0.8c-0.1-0.2-0.4-0.5-0.5-0.5l0,0
		c-0.2,0-0.5,0.2-0.6,0.4c-0.1,0.1-0.2,0.3-0.2,0.4c-0.1,0.1-0.1,0.3-0.2,0.4c-0.8,1.2-1.6,1.8-2.6,1.8c-0.4,0-0.8-0.1-1.3-0.3
		c-0.7-0.3-1.4-0.5-2.1-0.5c-0.9,0-1.7,0.2-2.9,0.7c-0.8,0.3-1.3,0.5-1.8,0.5c-0.9,0-1.6-0.6-2.5-1.6c-0.1-0.2-0.3-0.3-0.4-0.5
		l-0.2-0.2c0,0-0.1,0-0.2,0s-0.2,0-0.3,0c-0.4,0-0.9-0.1-1.3-0.1c-0.7,0-1.6,0.1-2.5,0.9c-0.4,0.4-0.9,0.5-1.5,0.5
		c-0.7,0-1.4-0.3-1.9-0.9c-0.9-1.1-2-1.3-3.1-1.3c-0.2,0-0.9,0-0.9,0c-1.2,0-2.3,0-3.4,0.9c-0.6,0.5-1.2,0.7-1.8,0.7
		c-0.9,0-1.8-0.5-2.7-1.4c-0.4-0.4-0.7-0.6-0.9-0.6c-0.3,0-0.5,0.3-0.7,0.8c-0.5,1.1-1.1,1.6-2.1,1.8c-0.5,0.1-0.9,0.2-1.4,0.3
		c-0.6,0.1-1.1,0.3-1.7,0.4c-0.8,0.1-1.4,0.4-1.8,1C49.88,91.6,49.18,92,48.38,92z"/>
	<path d="M135.88,62c0.3,0,0.6,0.1,0.9,0.1c0.9,0,1.2,1.4,2.2,1.4c0.1,0,0.3,0,0.5-0.1c0.3-0.1,0.6-0.2,0.8-0.2
		c0.7,0,1.2,0.3,1.8,0.6c0.1,0,0.2,0.1,0.3,0.1l0,0c0.3,0,0.6-0.1,1-0.1c1.4,0,2.6,0.4,3.6,1.4c1,0.1,2.1,0.2,3.2,0.2
		c0.3-0.3,0.6-0.6,0.8-0.9c0.9-1.2,1.4-1.7,2.2-1.7c0.5,0,1,0.2,1.7,0.5c0.8,0.4,1.5,0.9,2.5,0.9h0.1c0,0,0,0,0.1,0
		c1,0,1.7,0.8,1.9,1.8c0.2,1,0.4,2.1,0.3,3.1c-0.4,2.9-0.3,5.9,0.1,8.6c-0.7,1.5-2.1,1.5-3.3,1.6c-0.3,0.8-0.4,1.5-0.7,2.2
		c-0.6,1.3-1.6,2-2.6,2c-0.6,0-1.1-0.2-1.7-0.6c-0.7-0.5-1.4-0.8-2.1-0.8c-0.2,0-0.5,0-0.7,0.1c-0.1,0-0.1,0-0.2,0
		c-0.3,0-0.7-0.1-1.1-0.2c-0.2,0-0.5-0.1-0.7-0.1c-0.1,0-0.2,0-0.2,0.1c-0.8,0.6-1.6,0.8-2.4,0.8c-1.7,0-3.3-0.9-5-0.9
		c-0.1,0-0.1,0-0.2,0h-0.1c-0.7,0-1.4-0.2-2-0.3c0,0-0.1,0-0.2,0c-0.2,0-0.3,0-0.5,0c-0.1,0-0.2,0-0.3,0c-1.2-0.4-2.5-0.5-3.7-0.5
		c-2.5,0-5,0.6-7.4,1c-0.7,0.1-1.5,0.1-2.2,0.1c-1.2,0.1-2.3,0.1-2.9,1.4c-0.2,0.3-0.6,0.6-1,0.8c-0.3,0.2-0.6,0.2-0.9,0.4
		c-1.2,0.6-4.2,1.3-5.6,1.5c-1.2,0.2-2.4,0.6-3.6,1c-0.8,0.3-1.5,0.5-2.3,0.5c-0.6,0-1.3-0.2-1.9-0.6c-0.3-0.2-0.8-0.3-1.2-0.4
		c-0.8-0.2-1.6-0.5-2.3-0.5c-0.1,0-0.2,0-0.4,0c-1.1,0.2-0.9,1.5-1.3,2.3c-0.3,0.8-0.9,1.1-1.7,1.2c-0.2,0-0.4,0-0.7,0
		c-0.8,0-1.6-0.2-2.3-0.9c-0.6-0.6-0.3-1.4-0.6-2.1c-0.1-0.3-0.4-0.6-0.6-0.6c0,0,0,0-0.1,0c-0.2,0-0.5,0.2-0.7,0.4
		c-0.2,0.2-0.3,0.6-0.4,0.8c-0.7,1.1-1.5,1.7-2.5,1.7c-0.4,0-0.8-0.1-1.2-0.3c-0.8-0.3-1.5-0.5-2.2-0.5c-1,0-2,0.3-3,0.7
		c-0.7,0.3-1.3,0.4-1.7,0.4c-0.8,0-1.4-0.5-2.4-1.5c-0.2-0.2-0.4-0.5-0.6-0.7c-0.6,0-1.3-0.1-1.9-0.1c-0.9,0-1.7,0.2-2.6,0.9
		c-0.4,0.3-0.9,0.5-1.4,0.5c-0.7,0-1.3-0.3-1.8-0.9c-0.9-1.1-2-1.3-3.2-1.3c-0.2,0-0.3,0-0.5,0c-1.3,0-2.6-0.1-3.9,0.9
		c-0.6,0.5-1.2,0.7-1.8,0.7c-0.9,0-1.8-0.5-2.6-1.4c-0.4-0.4-0.7-0.6-1-0.6s-0.6,0.3-0.9,0.9c-0.4,1-1,1.5-2,1.7s-2,0.6-3.1,0.7
		c-0.8,0.1-1.4,0.4-1.8,1c-0.5,0.8-1.2,1.1-2,1.1c-0.4,0-0.9-0.1-1.4-0.3c-0.9-0.3-1.3-0.9-1.5-1.8c-0.6-3.4-0.3-6.7-0.3-10.1
		c0-0.9,0.3-1.7,1.2-2c0.9-0.3,1.2-1,1.5-1.9c0.2-0.8,0.8-1.3,1.6-1.3c1.7-0.1,3.3-0.2,5.2-0.4c0.1-0.2,0.3-0.5,0.4-0.9
		c0.3-0.6,0.7-0.9,1.3-0.9c0.1,0,0.2,0,0.3,0c1.8,0.4,3.8,0.1,5.5,1.3c0.9-0.6,0.5-1.6,0.8-2.3c0.3-0.8,0.8-1.4,1.7-1.4h0.1
		c0.1,0,0.2,0,0.3,0c0.7,0,1.3-0.1,2-0.6c0.5-0.4,1.1-0.5,1.6-0.5c0.7,0,1.5,0.3,2.1,1c0.4,0.5,0.8,1,1.4,1.2
		c0.4,0.1,0.8,0.3,1.1,0.3c0.4,0,0.8-0.1,1.2-0.5c0.3-0.3,0.8-0.7,1.2-0.7h0.1c0.3,0.1,0.6,0.1,0.8,0.1c1.2,0,2.3-0.5,3.4-0.9
		c0.3-0.1,0.5-0.1,0.7-0.1c0.9,0,1.6,0.6,2.1,1.8c0.1,0.2,0.1,0.4,0.2,0.6c0,0.1,0.1,0.2,0.2,0.3c0.3,0.1,0.7,0.1,1,0.1
		c0.8,0,1.5-0.3,2-1.1c0.4-0.5,0.9-0.9,1.5-0.9c0.1,0,0.3,0,0.4,0.1c0.5,0.1,0.9,0.2,1.3,0.2c1.6,0,3.2-0.7,4.7-1.1
		c0.6-0.2,1.2-0.3,1.8-0.3c0.2,0,0.4,0,0.6,0c1.1,0.2,1.7,0.7,1.8,1.8c0,0.3,0.2,0.6,0.3,0.8c0.7,0,0.8-0.5,1-1
		c0.4-2,0.7-2.7,2.1-2.7c0.4,0,0.9,0.1,1.5,0.1c0.7,0.1,1.4,0.2,2.1,0.2c1,0,1.9-0.2,2.8-0.7c0.3-0.2,0.7-0.3,1-0.3
		c0.1,0,0.1,0,0.2,0c0.6,0.1,1.2,0.1,1.8,0.1c0.9,0,1.9-0.1,2.8-0.4c0.1,0,0.2,0,0.3,0c0.9,0,1.4,0.9,2.1,1.3
		c0.3,0.2,0.5,0.3,0.8,0.3c0.4,0,0.7-0.3,0.9-0.8c0.1-0.3,0.1-0.6,0.2-0.9c0.4-1,1-1.5,2-1.5h0.1c0.5,0,1,0.2,1.4,0.2h0.1
		c0.2,0,0.4,0,0.6,0c0.4,0,0.8,0,1.2,0c0.9,0,1.7-0.1,2.4-0.9c0.1-0.1,0.4-0.3,0.6-0.3c1.5,0,2.9-0.1,3.8-1.6
		c0.1-0.2,0.6-0.3,0.9-0.3c0.1,0,0.2,0,0.3,0c0.6,0.1,1.2,0.1,1.8,0.1c0.7,0,1.3-0.1,2-0.3C135.68,62,135.78,62,135.88,62
		 M135.88,61.7c-0.2,0-0.3,0-0.4,0.1c-0.6,0.2-1.2,0.3-1.9,0.3c-0.6,0-1.2-0.1-1.7-0.1c-0.1,0-0.2,0-0.3,0c-0.3,0-0.9,0-1.1,0.4
		c-0.8,1.3-2.2,1.5-3.6,1.5c-0.3,0-0.6,0.1-0.7,0.3c-0.6,0.7-1.3,0.8-2.2,0.8c-0.2,0-0.4,0-0.6,0s-0.4,0-0.6,0s-0.4,0-0.6,0h-0.1
		c-0.2,0-0.4-0.1-0.7-0.1c-0.2-0.1-0.5-0.1-0.7-0.1h-0.1c-1.1,0-1.8,0.6-2.2,1.7c-0.1,0.2-0.1,0.4-0.1,0.5s0,0.3-0.1,0.4
		c-0.1,0.3-0.3,0.7-0.7,0.7c-0.2,0-0.4-0.1-0.6-0.2s-0.4-0.3-0.6-0.5c-0.4-0.4-0.9-0.9-1.6-0.9c-0.1,0-0.3,0-0.4,0.1
		c-0.9,0.2-1.9,0.3-2.8,0.3c-0.6,0-1.2,0-1.8-0.1c-0.1,0-0.1,0-0.2,0c-0.4,0-0.8,0.1-1.1,0.3c-0.8,0.5-1.6,0.7-2.7,0.7
		c-0.7,0-1.4-0.1-2.1-0.2s-1.2-0.1-1.5-0.1c-1.6,0-1.9,0.8-2.3,2.8c-0.1,0.5-0.2,0.7-0.6,0.8V71c-0.1-0.2-0.1-0.3-0.2-0.5
		c-0.1-1.2-0.7-1.9-2-2.1c-0.2,0-0.4,0-0.6,0c-0.7,0-1.3,0.1-1.9,0.3c-0.5,0.1-1,0.3-1.5,0.4c-1,0.3-2.1,0.7-3.2,0.7
		c-0.4,0-0.8-0.1-1.3-0.2c-0.2,0-0.3-0.1-0.5-0.1c-0.7,0-1.3,0.4-1.7,1c-0.5,0.7-1.1,1-1.8,1c-0.3,0-0.5,0-0.9-0.1c0,0,0,0-0.1,0
		l-0.1-0.1c0-0.1-0.1-0.2-0.1-0.3c0-0.1-0.1-0.2-0.1-0.3c-0.5-1.3-1.3-1.9-2.4-1.9c-0.3,0-0.5,0-0.8,0.1s-0.6,0.2-1,0.3
		c-0.8,0.3-1.6,0.6-2.4,0.6c-0.3,0-0.5,0-0.8-0.1c0,0-0.1,0-0.2,0c-0.6,0-1.2,0.6-1.4,0.8c-0.3,0.3-0.6,0.4-1,0.4s-0.7-0.1-1.1-0.2
		c-0.4-0.2-0.7-0.5-1.1-0.9c-0.1-0.1-0.2-0.2-0.2-0.3c-0.6-0.7-1.4-1.1-2.2-1.1c-0.6,0-1.2,0.2-1.8,0.6c-0.6,0.4-1.1,0.6-1.9,0.6
		c-0.1,0-0.2,0-0.3,0h-0.1c-0.9,0-1.5,0.5-1.9,1.6c-0.1,0.3-0.1,0.6-0.1,0.9c0,0.5-0.1,0.9-0.4,1.2c-1.2-0.7-2.5-0.9-3.8-1
		c-0.5-0.1-1.1-0.1-1.6-0.2c-0.1,0-0.2,0-0.3,0c-0.6,0-1.2,0.4-1.5,1.1c-0.1,0.3-0.2,0.5-0.3,0.7l0,0c-0.5,0-1,0.1-1.5,0.1
		c-1.2,0.1-2.4,0.2-3.6,0.3c-0.9,0.1-1.6,0.6-1.8,1.5c-0.2,0.9-0.5,1.4-1.3,1.7c-0.9,0.3-1.4,1.1-1.4,2.3c0,0.6,0,1.1,0,1.7
		c-0.1,2.8-0.2,5.6,0.3,8.4c0.2,1.1,0.7,1.7,1.6,2c0.5,0.2,1,0.3,1.5,0.3c0.9,0,1.6-0.4,2.2-1.2c0.4-0.6,0.9-0.8,1.7-0.9
		c0.6-0.1,1.2-0.2,1.7-0.4c0.4-0.1,0.9-0.2,1.4-0.3c1.1-0.2,1.8-0.7,2.2-1.8c0.2-0.5,0.4-0.7,0.6-0.7s0.5,0.2,0.8,0.5
		c1,1,1.9,1.5,2.8,1.5c0.6,0,1.3-0.2,1.9-0.7c1-0.8,2.1-0.8,3.3-0.8h0.4c0.2,0,0.3,0,0.5,0c1.2,0,2.2,0.2,3,1.2c0.5,0.6,1.2,1,2,1
		c0.6,0,1.1-0.2,1.5-0.6c0.7-0.6,1.4-0.8,2.4-0.8c0.4,0,0.8,0,1.3,0.1c0.2,0,0.3,0,0.5,0l0.1,0.2c0.1,0.2,0.3,0.3,0.4,0.5
		c0.9,1.1,1.6,1.6,2.6,1.6c0.5,0,1-0.1,1.8-0.5c1.2-0.5,2-0.7,2.9-0.7c0.7,0,1.4,0.1,2.1,0.4c0.5,0.2,0.9,0.3,1.3,0.3
		c1,0,1.9-0.6,2.7-1.9c0.1-0.1,0.1-0.3,0.2-0.4c0.1-0.2,0.1-0.3,0.2-0.4c0.2-0.2,0.4-0.3,0.5-0.3s0.4,0.3,0.5,0.5s0.1,0.5,0.1,0.7
		c0,0.5,0,1,0.5,1.4c0.7,0.6,1.4,0.9,2.4,0.9c0.2,0,0.4,0,0.7,0c0.9-0.1,1.6-0.6,1.9-1.4c0.1-0.3,0.2-0.6,0.2-0.8
		c0.2-0.8,0.3-1.2,0.9-1.3c0.1,0,0.2,0,0.3,0c0.5,0,1,0.2,1.5,0.3c0.3,0.1,0.5,0.2,0.8,0.2h0.2c0.3,0.1,0.7,0.1,0.9,0.3
		c0.6,0.5,1.3,0.7,2,0.7c0.8,0,1.6-0.3,2.4-0.6c1.3-0.5,2.5-0.8,3.5-1c1.3-0.2,4.4-0.9,5.7-1.6c0.1-0.1,0.2-0.1,0.4-0.1
		c0.2-0.1,0.4-0.1,0.5-0.2l0.2-0.1c0.3-0.2,0.7-0.4,0.9-0.8c0.6-1.2,1.6-1.2,2.7-1.3c0.2,0,0.4,0,0.7,0c0.5,0,1.1,0,1.6-0.1
		s1-0.2,1.5-0.3c1.9-0.4,3.9-0.7,5.9-0.7c1.3,0,2.5,0.2,3.6,0.5c0.1,0,0.2,0,0.4,0c0.1,0,0.2,0,0.3,0c0.1,0,0.2,0,0.2,0h0.1
		c0.3,0,0.5,0.1,0.8,0.1c0.4,0.1,0.9,0.1,1.3,0.1h0.1h0.1c0.8,0,1.6,0.2,2.4,0.4c0.8,0.2,1.7,0.4,2.6,0.4c1,0,1.8-0.3,2.6-0.9l0,0
		c0,0,0,0,0.1,0s0.2,0,0.4,0c0.1,0,0.2,0,0.3,0c0.1,0,0.3,0,0.4,0.1c0.2,0,0.4,0.1,0.7,0.1c0.1,0,0.2,0,0.2,0c0.2,0,0.5-0.1,0.7-0.1
		c0.7,0,1.3,0.2,2,0.7c0.6,0.4,1.2,0.6,1.9,0.6c1.2,0,2.2-0.8,2.9-2.2c0.2-0.5,0.4-0.9,0.5-1.4c0.1-0.2,0.1-0.4,0.2-0.6
		c1.2,0,2.6-0.1,3.4-1.7v-0.1c-0.4-3.3-0.4-6-0.1-8.5c0.2-1.1-0.1-2.3-0.3-3.2c-0.3-1.2-1.1-2-2.2-2h-0.1h-0.1
		c-0.7,0-1.3-0.3-1.9-0.6c-0.2-0.1-0.3-0.2-0.5-0.2c-0.8-0.4-1.4-0.5-1.8-0.5c-0.9,0-1.5,0.6-2.4,1.8c-0.2,0.2-0.4,0.4-0.5,0.6
		c-0.1,0.1-0.1,0.1-0.2,0.2h-0.6l-2.4-0.2c-1-1-2.2-1.4-3.7-1.4c-0.3,0-0.7,0-1,0.1c0,0,0,0-0.1,0h-0.1c-0.6-0.3-1.2-0.7-2-0.7
		c-0.3,0-0.6,0.1-0.9,0.2c-0.1,0.1-0.3,0.1-0.4,0.1c-0.4,0-0.6-0.3-0.9-0.6c-0.3-0.4-0.7-0.8-1.3-0.8c-0.1,0-0.3,0-0.4,0
		C136.28,61.7,136.08,61.7,135.88,61.7L135.88,61.7z"/>
</g>
<g>
	<path d="M99.08,160c-2.3,0-4.6-0.1-6.9-0.4c-0.3,0-0.6-0.1-0.9-0.1c-2.5-0.4-2.7-1-2.8-3.5c0-1.8,0-3.7,0-5.5
		c0-3.6,0.1-7.3-0.3-10.9c-0.2-2.3-0.2-4.7-0.2-7c0-1.2,0-2.3,0-3.5c0-1.4-0.1-2.8-0.1-4.4l-0.1-2c-0.3,0.2-0.6,0.3-0.8,0.5
		c-0.6,0.4-1.1,0.7-1.7,1c-0.5,0.3-1,0.5-1.5,0.8c-1.2,0.7-2.5,1.4-3.9,1.9c-2.9,1-5.7,1.5-8.4,1.5c-4.5,0-8.8-1.5-12.7-4.3
		c-1.6-1.2-2.8-2.8-3.6-4.8c-1.2-3.2-1.8-6.6-2.2-9.5c-0.2-1.3-0.4-2.5-0.6-3.9l-0.3-1.7l-1.1-0.1c-0.9-0.1-1.8-0.2-2.7-0.4h-0.1
		c-0.5-0.1-1-0.2-1.4-0.4c-0.3-0.2-0.6-0.7-0.6-1.1c0-0.3,0.3-0.7,0.6-0.8c0.9-0.2,1.8-0.4,2.8-0.5c0.9-0.1,1.8-0.1,2.6-0.1
		c0.7,0,1.4,0,2.1-0.1c4.6-0.2,9.5-0.8,15-1.7c0.9-0.1,1.8-0.1,2.7-0.1c0.5,0,0.9,0,1.4,0c1.1,0,2.3-0.1,3.4-0.2
		c2.3-0.1,4.6-0.3,7-0.3h0.3c3.2,0,6.5,0.2,9.7,0.3c1.4,0.1,2.7,0.1,4.1,0.2c0,0,0.1,0,0.1,0.1c0.1,0.1,0.2,0.3,0.2,0.4
		c0.1,0.2,0.3,0.4,0.3,0.6c0.2,0.5,0.1,1-0.1,1.3s-0.4,0.5-0.8,0.6c-0.8,0.2-1.6,0.3-2.2,0.3c-0.3,0-0.5,0-0.8,0
		c-0.8,0-1.5,0-2.2,0.4c-0.6,0.9-0.6,1.9-0.5,2.9c0.5,7.2,0.5,14.5,0.6,21.6c0,2.4,0,4.8,0.1,7.1c0,3.2,0.2,6.4,0.4,9.4
		c0.1,2,0.1,4,0.1,5.9c0,1,0,2,0,3c0,0.7,0,1.4,0.1,2.1v0.9c1.5,0.5,2.8,0.7,4.1,0.7h1.5c1.9,0,4-0.1,5.9-0.4
		c1.8-0.3,3.8-0.4,5.6-0.5c1,0,1.9-0.1,2.9-0.2c0.6,0,1.2-0.1,1.9-0.3c0.3,0,0.6-0.1,0.9-0.1c0-0.2,0.1-0.4,0.1-0.6
		c0.1-0.4,0.1-0.8,0.1-1.2c0-0.7,0-1.4,0-2.2c0-2.4,0-4.9-0.3-7.3c-0.3-2.5-0.3-5.1-0.3-7.6v-0.3c0-3.4,0.1-6.8,0.1-10.2
		c0.1-3.8,0.1-7.5,0.1-11.3c0-1.7-0.1-3.4-0.2-5.1c-0.1-1-0.1-2.1-0.1-3.1s0-2,0-3c0-0.5,0-1,0-1.5h-0.8c-0.6,0-1.1,0-1.6-0.1
		c-0.4,0-0.9-0.1-1.2-0.3c-0.5-0.3-1.2-0.7-1.2-1.5c0-0.6,0.6-1.1,1.5-1.2c0.8-0.1,1.5-0.2,2.3-0.3c0.8-0.1,1.6-0.2,2.4-0.3
		c5.1-0.7,10.1-1.3,14.4-1.7c2.5-0.3,5.1-0.4,7.5-0.4c2.8-0.1,5.7-0.2,8.5-0.6c0.2,0,0.4,0,0.6-0.1c0.5,0,1.1-0.1,1.5-0.3
		c0.6-0.3,1.1-0.5,1.8-0.5c0.6,0,1.2,0.1,1.7,0.3c1.1,0.3,1.9,0.6,2.7,0.9c0.8,0.3,1.4,1.1,1.3,1.8c-0.1,0.7-0.5,1.1-1.3,1.4
		c-0.2,0.1-0.3,0.1-0.5,0.2c-0.1,0-0.3,0.1-0.4,0.1c-0.2,0.1-0.4,0.2-0.6,0.2l-0.2,0.1c0,0.1-0.1,0.2-0.1,0.3
		c-0.1,0.2-0.1,0.4-0.1,0.6c0.6,5.2-0.7,10.3-3.7,15.1c-0.2,0.3-0.3,0.5-0.4,0.8s-0.3,0.6-0.5,0.9c-2.7,4.3-6.4,6.7-10.9,7.3
		c-1.8,0.2-3.3,0.3-4.8,0.3c-1.8,0-3.4-0.2-5-0.5c-2.4-0.5-4.4-1.6-6.2-3.1c-0.2-0.2-0.5-0.4-0.8-0.6c-0.1-0.1-0.3-0.2-0.4-0.3v0.6
		c0,0.5-0.1,0.9-0.1,1.3c0,0.4,0,0.8,0,1.2c0,0.6,0,1.3,0,1.9c-0.2,3.1-0.2,6.2-0.1,9.2c0,1.3,0.1,2.7,0.1,4c0,2.3,0.1,4.7,0.2,7
		c0,1.2,0.1,2.5,0.1,3.7c0,0.6,0,1.1-0.1,1.7v0.2c0,0.3,0,0.5-0.1,0.8c-0.1,1.1-0.2,2.2,0.3,3.2c0,0.1,0.1,0.2,0.1,0.3
		c0.3,2-0.5,3.1-2.3,3.4c-1.5,0.2-3,0.4-4.4,0.5c-1.7,0.1-3.3,0.2-5,0.3c-2.1,0.1-4.2,0.3-6.3,0.4
		C102.48,159.9,100.78,160,99.08,160z M57.78,106.4c0.2,2,0.5,3.9,0.7,5.8c0.2,1.3,0.4,2.4,0.7,3.4c1.3,4.3,3.3,6.9,6.7,8.4
		c1.7,0.7,3.4,1.1,5.2,1.1c1.5,0,3.2-0.2,5.1-0.8c1.6-0.4,3.1-1.2,4.5-2c0.4-0.2,0.7-0.4,1.1-0.6c0.5-0.3,1.4-0.8,1.8-1.6
		c1.5-2.5,3.2-5.4,3.4-8.7c0.1-2.2,0.1-4.5,0.1-6.7c0-0.8,0-1.6,0-2.5c0-0.1-0.1-0.2-0.2-0.3c-0.1-0.1-0.1-0.2-0.2-0.3h-0.3
		c-0.4,0-0.9,0-1.3,0c-0.5,0-1,0-1.5,0c-0.9,0-2,0-3.4,0.3c1.8,4.4,0.5,8.1-1,11.2c-0.8,1.5-2,2.3-3.6,2.3c-0.4,0-0.7,0-1.1,0.1
		c-0.6,0-1.1,0.1-1.7,0.1c-0.3,0-0.7,0-1,0c-3.7-0.3-6.1-2.2-7.1-5.5c-0.5-1.5-1-3.2-1-5c0-0.4-0.1-0.8-0.1-1.2
		c0-0.2-0.1-0.4-0.1-0.5h-1.5c-1.5,0-3,0-4.5,0.6L57.78,106.4z M121.98,100.9c0,0.5,0,1,0,1.5c0,1,0,1.8,0,2.6
		c0.3,3.7,0.7,7.6,2.7,11.2c1.5,2.7,3.3,4.1,5.9,4.6c1.3,0.2,2.6,0.3,3.7,0.3l0,0c0.6,0,1.1,0,1.6-0.1c4.2-0.4,7.2-2.1,9.2-5.1
		c2.2-3.3,3.6-6.5,4.2-9.7c0.5-2.7,0.5-4.9-0.1-7c-0.8-0.1-1.5-0.1-2.1-0.1c-1,0-1.9,0.1-2.8,0.3c0.4,1.9,0.3,3.7-0.2,5.6
		c-1.1,4.5-3.4,6.4-8,6.9h-0.3c-0.3,0-0.7,0-1,0c-4.3,0-7.3-2.9-7.6-7.3c0-0.5,0-0.9,0-1.4c0-0.4,0-0.8,0-1.1c0-0.3-0.1-0.7-0.1-1
		l-0.1-0.4c-0.1,0-0.2-0.1-0.3-0.1c-0.2-0.1-0.4-0.1-0.5-0.1v-0.1l-0.1,0.1c-1,0.1-2,0.2-3,0.4H121.98z M71.18,111.4
		c-0.1,0-0.3,0.1-0.3,0.1c0,0.1,0,0.3,0,0.4c0.3,0.4,0.6,0.6,0.9,0.6l0,0c0.2,0,0.4-0.1,0.7-0.2l-0.3-0.2
		C71.88,111.8,71.58,111.6,71.18,111.4L71.18,111.4z"/>
	<path d="M151.88,94.4c0.5,0,1.1,0.1,1.6,0.3c0.9,0.2,1.8,0.5,2.7,0.9c0.8,0.3,1.3,1.1,1.2,1.7c-0.1,0.7-0.6,1.1-1.2,1.3
		c-0.3,0.1-0.6,0.2-0.9,0.3c-0.3,0.1-0.6,0.2-0.8,0.4c-0.1,0.3-0.2,0.6-0.2,0.9c0.6,5.4-0.8,10.4-3.7,15c-0.3,0.5-0.6,1.1-0.9,1.7
		c-2.6,4-6.1,6.7-10.9,7.3c-1.6,0.2-3.2,0.3-4.7,0.3c-1.7,0-3.3-0.2-5-0.5c-2.3-0.5-4.3-1.5-6.1-3.1c-0.4-0.3-0.8-0.6-1.4-1
		c-0.1,0.9-0.1,1.5-0.1,2.1c0,1.1,0.1,2.1,0,3.2c-0.3,4.4,0,8.8,0,13.2c0,3.6,0.2,7.1,0.3,10.7c0,0.6,0,1.3-0.1,1.9
		c-0.1,1.4-0.4,2.7,0.3,4c0,0.1,0,0.2,0.1,0.3c0.3,1.8-0.4,2.9-2.2,3.2c-1.4,0.2-2.9,0.4-4.4,0.5c-3.8,0.3-7.5,0.5-11.3,0.8
		c-1.7,0.1-3.4,0.2-5.1,0.2c-2.3,0-4.6-0.1-6.9-0.4c-0.3,0-0.6-0.1-0.9-0.1c-2.4-0.4-2.6-0.9-2.6-3.4c-0.1-5.5,0.3-10.9-0.3-16.4
		c-0.3-3.4-0.1-6.9-0.1-10.4c0-2.1-0.1-4.2-0.2-6.6c-1.1,0.6-1.8,1.1-2.6,1.6c-1.8,0.9-3.5,2.1-5.3,2.7c-2.8,1-5.6,1.5-8.4,1.5
		c-4.4,0-8.6-1.4-12.6-4.3c-1.7-1.2-2.8-2.8-3.5-4.7c-1.2-3.1-1.7-6.3-2.2-9.5c-0.2-1.9-0.5-3.7-0.8-5.7c-1.4-0.2-2.6-0.4-3.8-0.6
		c-0.5-0.1-1.1-0.2-1.5-0.4c-0.3-0.2-0.5-0.6-0.6-1c0-0.2,0.3-0.6,0.5-0.7c0.9-0.2,1.8-0.4,2.8-0.5c1.6-0.1,3.2-0.1,4.7-0.2
		c5-0.3,10-0.9,15-1.7c1.3-0.2,2.7-0.1,4.1-0.2c3.5-0.1,6.9-0.4,10.4-0.4c0.1,0,0.2,0,0.3,0c4.6,0,9.2,0.3,13.8,0.5
		c0.2,0.4,0.4,0.7,0.5,0.9c0.3,0.9,0,1.6-0.8,1.8c-0.7,0.2-1.4,0.3-2.2,0.3c-1,0.1-2.1-0.1-3.1,0.4c-0.7,0.9-0.6,2-0.6,3
		c0.6,9.6,0.5,19.1,0.7,28.7c0,3.2,0.2,6.3,0.4,9.5c0.2,2.9,0.1,5.9,0.1,8.8c0,1,0.1,2.1,0.1,3.1c1.5,0.5,2.8,0.8,4.2,0.8
		c0.1,0,0.1,0,0.2,0c2.4,0,4.8,0,7.2-0.4c2.8-0.4,5.7-0.4,8.5-0.6c0.9-0.1,1.8-0.3,2.9-0.4c0.1-0.7,0.2-1.3,0.2-1.9
		c0-3.2,0.1-6.3-0.3-9.5c-0.3-2.6-0.3-5.3-0.3-7.9c0.1-7.2,0.2-14.3,0.3-21.5c0-2.7-0.2-5.5-0.3-8.2c0-1.4,0-2.9,0-4.6
		c-1.1-0.1-1.8-0.1-2.6-0.1c-0.4,0-0.8-0.1-1.2-0.3c-0.5-0.3-1.1-0.6-1.2-1.4c0-0.5,0.5-1,1.3-1.1c1.6-0.2,3.1-0.3,4.7-0.5
		c4.8-0.7,9.6-1.2,14.4-1.7c5.3-0.6,10.7-0.3,16.1-1c0.7-0.1,1.5-0.1,2.1-0.4C150.78,94.5,151.28,94.4,151.88,94.4 M134.68,111.8
		c-4.2,0-7.2-2.8-7.5-7.2c-0.1-0.8,0-1.7,0-2.5c0-0.5-0.1-1-0.2-1.5c-0.4-0.1-0.7-0.2-0.9-0.2h-0.1c-1.3,0.1-2.7,0.3-4.2,0.5
		c0,1.7-0.1,2.9,0,4.2c0.3,3.9,0.7,7.7,2.7,11.2c1.4,2.5,3.2,4.2,6,4.6c1.2,0.2,2.5,0.3,3.7,0.3c0.5,0,1.1,0,1.6-0.1
		c3.8-0.4,7-1.8,9.3-5.2c2-3,3.5-6.2,4.2-9.8c0.4-2.3,0.6-4.8-0.1-7.2c-0.8-0.1-1.5-0.2-2.2-0.2c-1,0-1.9,0.1-3,0.3
		c0.4,2,0.3,3.8-0.1,5.7c-1.1,4.4-3.3,6.3-7.8,6.8c-0.1,0-0.2,0-0.3,0C135.28,111.8,134.98,111.8,134.68,111.8 M72.98,115.5
		c-0.3,0-0.7,0-1,0c-3.4-0.3-5.9-2-7-5.4c-0.5-1.6-1-3.2-1-4.9c0-0.6-0.2-1.2-0.3-1.9c-0.2,0-0.4,0-0.6,0c-0.4,0-0.7,0-1,0
		c-1.6,0-3.1,0.1-4.7,0.6c0.4,2.8,0.7,5.5,1,8.2c0.2,1.1,0.4,2.3,0.7,3.4c1.1,3.7,2.9,6.8,6.8,8.5c1.8,0.8,3.5,1.1,5.3,1.1
		c1.7,0,3.4-0.3,5.2-0.8c2-0.5,3.8-1.7,5.7-2.6c0.7-0.4,1.5-0.9,1.9-1.6c1.6-2.7,3.2-5.5,3.4-8.7c0.2-3,0.1-6.1,0.1-9.1
		c0-0.2-0.2-0.3-0.5-0.7c-0.1,0-0.3,0-0.4,0c-0.9,0-1.8-0.1-2.8-0.1c-1.1,0-2.3,0.1-3.5,0.4c1.8,4.2,0.8,7.7-1,11.2
		c-0.7,1.4-1.9,2.2-3.5,2.3C74.78,115.4,73.88,115.5,72.98,115.5 M71.88,112.6c0.3,0,0.6-0.1,0.9-0.3c-0.5-0.4-1-0.8-1.5-1.1
		c0,0,0,0-0.1,0s-0.4,0.1-0.4,0.2c-0.1,0.1-0.1,0.4,0,0.5C71.08,112.4,71.38,112.6,71.88,112.6 M151.88,94.1L151.88,94.1
		c-0.7,0-1.3,0.2-1.8,0.5c-0.4,0.2-0.9,0.3-1.5,0.3c-0.2,0-0.4,0-0.6,0.1c-2.8,0.4-5.7,0.5-8.5,0.6c-2.5,0.1-5,0.2-7.5,0.4
		c-4.3,0.5-9.3,1-14.4,1.7c-0.8,0.1-1.6,0.2-2.4,0.3c-0.8,0.1-1.5,0.2-2.3,0.3c-0.9,0.1-1.6,0.7-1.6,1.4c0.1,0.9,0.8,1.3,1.3,1.6
		c0.4,0.2,0.9,0.3,1.3,0.3c0.5,0.1,1,0.1,1.6,0.1c0.2,0,0.4,0,0.7,0c0,0.5,0,0.9,0,1.3c0,1.1,0,2.1,0,3c0,1,0.1,2.1,0.1,3.1
		c0.1,1.7,0.2,3.4,0.2,5.1c0,3.8-0.1,7.6-0.1,11.3c0,3.3-0.1,6.8-0.1,10.2v0.3c0,2.5,0,5.1,0.3,7.6c0.3,2.4,0.3,4.9,0.3,7.3
		c0,0.7,0,1.4,0,2.2c0,0.4-0.1,0.8-0.1,1.2c0,0.2-0.1,0.3-0.1,0.5c-0.3,0-0.6,0.1-0.8,0.1c-0.7,0.1-1.3,0.2-1.9,0.3
		c-1,0.1-1.9,0.1-2.9,0.2c-1.8,0.1-3.8,0.2-5.6,0.5c-2,0.3-4,0.3-5.9,0.4c-0.4,0-0.8,0-1.3,0h-0.2c-1.3,0-2.5-0.2-4-0.7
		c0-0.3,0-0.5,0-0.8c0-0.7-0.1-1.4-0.1-2.1c0-1,0-2,0-2.9c0-1.9,0-3.9-0.1-5.9c-0.2-3.1-0.3-6.3-0.4-9.4c0-2.4-0.1-4.8-0.1-7.1
		c-0.1-7.1-0.1-14.4-0.6-21.6c-0.1-1-0.1-2,0.5-2.8c0.7-0.4,1.4-0.4,2.1-0.4c0.3,0,0.5,0,0.8,0c0.6,0,1.4-0.1,2.2-0.3
		c0.4-0.1,0.7-0.3,0.9-0.6c0.2-0.4,0.2-0.9,0.1-1.4c-0.1-0.2-0.2-0.4-0.3-0.6c-0.1-0.1-0.1-0.2-0.2-0.4c0-0.1-0.1-0.1-0.2-0.1
		c-1.4-0.1-2.7-0.1-4.1-0.2c-3.2-0.1-6.4-0.3-9.7-0.3h-0.3c-2.3,0-4.7,0.1-7,0.3c-1.1,0.1-2.3,0.1-3.4,0.2c-0.5,0-0.9,0-1.4,0
		c-0.9,0-1.8,0-2.7,0.2c-5.5,0.9-10.4,1.5-15,1.7c-0.7,0-1.4,0.1-2.1,0.1c-0.9,0-1.7,0-2.6,0.1c-1,0.1-1.9,0.3-2.8,0.5
		c-0.3,0.1-0.8,0.6-0.7,1c0.1,0.4,0.3,1,0.7,1.2c0.4,0.3,0.9,0.3,1.4,0.4h0.1c0.9,0.1,1.7,0.3,2.7,0.4l1,0.1
		c0.1,0.6,0.2,1.1,0.2,1.6c0.2,1.3,0.4,2.6,0.6,3.9c0.4,2.9,0.9,6.3,2.2,9.6c0.8,2.1,2,3.6,3.6,4.9c3.9,2.9,8.2,4.3,12.7,4.3
		c2.7,0,5.5-0.5,8.5-1.5c1.4-0.5,2.6-1.2,3.9-1.9c0.5-0.3,1-0.6,1.5-0.8c0.5-0.3,1.1-0.6,1.7-1c0.2-0.1,0.4-0.2,0.6-0.4
		c0,0.6,0,1.2,0,1.8c0,1.5,0.1,2.9,0.1,4.4c0,1.1,0,2.3,0,3.4c0,2.3-0.1,4.7,0.2,7c0.4,3.6,0.3,7.3,0.3,10.9c0,1.8,0,3.7,0,5.5
		c0,2.6,0.3,3.2,2.9,3.6c0.3,0.1,0.6,0.1,1,0.1c2.3,0.3,4.6,0.4,6.9,0.4c1.7,0,3.4-0.1,5.1-0.2c2.1-0.2,4.2-0.3,6.3-0.4
		c1.7-0.1,3.3-0.2,5-0.3c1.4-0.1,2.9-0.3,4.4-0.5c1.9-0.3,2.7-1.4,2.4-3.4v-0.1c0-0.1,0-0.2-0.1-0.3c-0.5-1-0.4-2-0.3-3.1
		c0-0.3,0-0.5,0.1-0.8v-0.2c0-0.5,0.1-1.1,0.1-1.7c0-1.2-0.1-2.5-0.1-3.7c-0.1-2.3-0.2-4.6-0.2-7c0-1.3,0-2.7-0.1-4
		c-0.1-3-0.2-6.1,0.1-9.2c0.1-0.7,0-1.3,0-2c0-0.4,0-0.8,0-1.2s0-0.8,0.1-1.3c0-0.1,0-0.3,0-0.4c0.1,0.1,0.1,0.1,0.2,0.1
		c0.3,0.2,0.6,0.4,0.8,0.6c1.8,1.6,3.8,2.6,6.2,3.1c1.6,0.4,3.2,0.5,5,0.5c1.4,0,3-0.1,4.8-0.3c4.6-0.6,8.3-3.1,11-7.4
		c0.2-0.3,0.3-0.6,0.5-0.9c0.1-0.3,0.3-0.5,0.4-0.8c3-4.8,4.3-9.9,3.7-15.2c0-0.1,0-0.3,0.1-0.5c0-0.1,0-0.1,0.1-0.2l0.2-0.1
		c0.2-0.1,0.4-0.2,0.6-0.2c0.1,0,0.3-0.1,0.4-0.1c0.2,0,0.3-0.1,0.5-0.2c0.8-0.3,1.2-0.8,1.4-1.5c0.1-0.7-0.5-1.6-1.4-1.9
		c-0.8-0.3-1.6-0.6-2.7-0.9C153.08,94.3,152.48,94.1,151.88,94.1L151.88,94.1z M144.18,99.4c0.9-0.2,1.8-0.3,2.7-0.3
		c0.6,0,1.3,0,2,0.1c0.6,2.1,0.6,4.3,0.1,6.9c-0.6,3.2-2,6.4-4.2,9.7c-2,3-5,4.6-9.1,5.1c-0.5,0.1-1,0.1-1.6,0.1
		c-1.1,0-2.4-0.1-3.7-0.3c-2.5-0.4-4.3-1.9-5.8-4.5c-2-3.6-2.4-7.5-2.7-11.1c-0.1-0.8,0-1.6,0-2.6c0-0.4,0-0.9,0-1.3l0.9-0.1
		c1-0.1,2-0.3,3-0.4c0,0,0,0,0.1,0s0.3,0,0.5,0.1c0.1,0,0.2,0,0.3,0.1c0,0.1,0,0.2,0,0.3c0,0.4,0.1,0.7,0.1,1c0,0.4,0,0.8,0,1.1
		c0,0.5,0,0.9,0,1.4c0.3,4.5,3.3,7.5,7.7,7.5c0.3,0,0.7,0,1,0c0.1,0,0.1,0,0.2,0h0.1c4.6-0.5,6.9-2.5,8.1-7
		C144.48,103,144.58,101.2,144.18,99.4L144.18,99.4z M80.58,102.1c1.2-0.3,2.3-0.3,3.2-0.3c0.5,0,1,0,1.5,0s0.9,0,1.3,0
		c0.1,0,0.2,0,0.3,0c0.1,0.1,0.1,0.2,0.2,0.2c0.1,0.1,0.2,0.2,0.2,0.2c0,0.8,0,1.6,0,2.4c0,2.2,0.1,4.4-0.1,6.7
		c-0.2,3.2-1.9,6.1-3.4,8.6c-0.3,0.5-0.9,1.1-1.8,1.5c-0.4,0.2-0.7,0.4-1.1,0.6c-1.5,0.8-3,1.6-4.5,2c-1.9,0.5-3.6,0.8-5.1,0.8
		c-1.8,0-3.5-0.4-5.2-1.1c-3.3-1.5-5.4-4.1-6.7-8.3c-0.3-1-0.5-2.1-0.7-3.3c-0.3-1.9-0.5-3.8-0.7-5.8c-0.1-0.7-0.2-1.5-0.3-2.2
		c1.5-0.5,2.9-0.5,4.4-0.5h0.5h0.5c0.1,0,0.3,0,0.4,0c0,0.1,0.1,0.3,0.1,0.4c0.1,0.4,0.2,0.8,0.1,1.2c-0.1,1.8,0.5,3.5,1,5
		c1.1,3.3,3.5,5.2,7.2,5.6c0.3,0,0.7,0,1,0c0.6,0,1.1,0,1.7-0.1c0.4,0,0.7,0,1.1-0.1c1.7-0.1,2.9-0.9,3.7-2.4
		C80.98,110.2,82.38,106.5,80.58,102.1L80.58,102.1z M71.88,112.4c-0.3,0-0.6-0.2-0.8-0.6v-0.2c0,0,0.1-0.1,0.2-0.1
		c0.3,0.2,0.7,0.5,1,0.7l0.1,0.1C72.18,112.4,71.98,112.4,71.88,112.4L71.88,112.4z"/>
</g>
<g>
	<path d="M69.58,210.5c-0.2,0-0.4,0-0.6-0.1c-1.1-0.2-1.8-0.9-2.2-2.4c0.4-1.3,1.3-1.9,2.1-2.6c0.4-0.3,0.7-0.5,1-0.9
		c0.7-0.7,1.3-1.3,2.1-2c0.3-0.3,0.6-0.6,0.9-0.8c-1.2-1.7-1-3.5-0.8-5.4v-0.1c0.3-2.9,0.9-5.5,1.8-8c1.3-3.5,3.8-6,5.8-7.8
		c0.4-0.4,1.2-0.6,1.7-0.6c1.9,0,3.4,0.8,4.6,2.2c1.6,1.9,3,3.9,4.2,5.6c0.4,0.6,0.8,1.2,1.1,1.9c0.2,0.3,0.3,0.6,0.5,0.9
		c0.9-0.1,1.7-0.3,2.5-0.6c0.3-0.1,0.7-0.2,1-0.3c3.7-1,8.1-1.9,12.8-1.9h0.3c4.2,0,9.2,0.2,14.1,1.9c0,0,0.1,0,0.2,0s0.1,0,0.2,0
		s0.2,0,0.3,0l0.3-0.6c0.3-0.5,0.6-1.1,0.9-1.6c1.3-2.4,3.1-4.4,5.4-6.2c0.9-0.6,2.1-1,3.4-1c2,0,4,0.8,5.2,2.1
		c1,1.1,1.4,2.1,1.3,3.2c-0.1,1.7-0.3,3.5-0.5,5.3c-0.1,0.7-0.2,1.5-0.4,2.2c-0.3,1.5-0.6,3.1-0.4,4.7l1,0.8
		c0.9,0.8,1.8,1.6,2.7,2.3c0.5,0.5,0.8,1,0.8,1.8c0,0.7-0.5,1.4-1.2,1.5c-0.5,0.1-1,0.2-1.5,0.2c-1.2,0-2.2-0.4-3.1-1.1
		c-0.3-0.3-0.6-0.6-0.9-0.8c-0.5-0.4-0.9-0.9-1.4-1.3c-0.3-0.3-0.7-0.5-1-0.8c-1.1-0.9-2.2-1.9-3.5-2.6c-3.7-2.2-7.6-3.9-11.8-5.3
		c-0.2-0.1-0.4-0.1-0.5-0.2c-0.5-0.2-1-0.4-1.6-0.4c-2.7-0.2-5.4-0.5-8.1-0.5c-2.9,0-5.5,0.3-7.8,0.8c-6,1.5-11.1,3.6-15.7,6.4
		c-2.2,1.4-4.1,3.1-6.3,5.2c-0.3,0.3-0.6,0.5-0.9,0.8c-0.7,0.7-1.4,1.4-2.2,1.9l-0.2,0.2c-0.9,0.6-1.7,1.2-2.3,2.1
		c-0.1,0.2-0.3,0.3-0.4,0.4c-0.1,0.1-0.2,0.2-0.3,0.3C71.48,210.1,70.68,210.5,69.58,210.5z M82.78,184.7c-3.5,2.9-6.1,9-5.5,13.2
		c0.7-0.4,1.3-1,1.9-1.5c0.3-0.3,0.6-0.5,0.9-0.8c1.4-1.1,2.8-2.3,4.8-2.3c0.1,0,0.5,0,0.5,0c0.8,0,1.5-0.3,2-1
		C86.08,188.9,84.68,186.5,82.78,184.7z M128.18,191.5c1.3,1.4,3,2.1,5.1,2.6v-0.2c0.7-3.2,1.4-6.2,1.2-9.4c0,0-0.1-0.1-0.2-0.2
		c-0.1-0.1-0.1-0.1-0.2-0.2C130.98,185.9,129.08,188.3,128.18,191.5z"/>
	<path d="M81.38,180L81.38,180c1.8,0,3.4,0.8,4.5,2.2c1.4,1.8,2.8,3.7,4.1,5.6c0.6,0.8,1,1.8,1.6,2.8c1.3-0.1,2.4-0.6,3.6-0.9
		c4.2-1.1,8.4-1.9,12.7-1.9c0.1,0,0.2,0,0.3,0c4.7,0,9.5,0.3,14,1.8c0.1,0,0.1,0,0.2,0s0.3,0,0.6,0c0.4-0.7,0.8-1.5,1.2-2.4
		c1.3-2.4,3.1-4.4,5.4-6.1c0.9-0.7,2.1-1,3.3-1c1.9,0,3.8,0.7,5.1,2c0.8,0.9,1.4,1.9,1.3,3.1c-0.1,1.8-0.3,3.6-0.5,5.3
		c-0.3,2.3-1.1,4.5-0.8,7c1.2,1.1,2.5,2.2,3.8,3.2c0.5,0.4,0.7,1,0.7,1.7s-0.5,1.3-1.1,1.4c-0.5,0.1-1,0.2-1.5,0.2
		c-1.1,0-2.1-0.3-3-1.1c-0.8-0.7-1.5-1.5-2.3-2.1c-1.5-1.2-2.9-2.5-4.5-3.4c-3.7-2.2-7.7-3.9-11.8-5.3c-0.7-0.2-1.4-0.5-2.1-0.6
		c-2.7-0.2-5.4-0.5-8.2-0.5c-2.6,0-5.2,0.2-7.8,0.9c-5.5,1.4-10.9,3.4-15.7,6.4c-2.3,1.4-4.3,3.3-6.3,5.2c-1,0.9-1.9,1.9-3,2.7
		c-0.9,0.7-1.9,1.3-2.5,2.3c-0.2,0.3-0.5,0.4-0.7,0.7c-0.7,0.8-1.5,1.2-2.5,1.2c-0.2,0-0.4,0-0.6,0c-1.2-0.2-1.8-1-2.1-2.3
		c0.6-1.6,2-2.3,3-3.3s2-1.9,3.1-2.9c-1.3-1.8-1.1-3.6-0.9-5.5c0.3-2.7,0.9-5.4,1.8-8c1.2-3.2,3.3-5.6,5.7-7.8
		C80.08,180.2,80.78,180,81.38,180 M133.38,194.2c0.7-3.3,1.4-6.5,1.2-9.7c0-0.1-0.3-0.3-0.6-0.5c-3,1.7-5.1,4.1-6,7.6
		C129.58,193.1,131.38,193.7,133.38,194.2 M77.08,198c1.2-0.6,2-1.6,2.9-2.4c1.4-1.2,2.8-2.2,4.7-2.2c0.1,0,0.2,0,0.3,0
		c0.1,0,0.1,0,0.2,0c0.8,0,1.5-0.3,2.1-1.1c-1-2.9-2.3-5.6-4.6-7.8C79.08,187.5,76.48,193.7,77.08,198 M81.38,179.8
		c-0.5,0-1.3,0.2-1.8,0.6c-2,1.8-4.5,4.4-5.8,7.9c-0.9,2.5-1.5,5.1-1.9,8v0.1c-0.2,1.8-0.4,3.6,0.8,5.4c-0.3,0.3-0.6,0.5-0.8,0.8
		c-0.7,0.7-1.4,1.3-2.1,2c-0.3,0.3-0.6,0.6-1,0.8c-0.8,0.7-1.7,1.4-2.1,2.6c0,0,0,0.1,0,0.2c0.3,0.9,0.8,2.2,2.3,2.5
		c0.2,0,0.4,0.1,0.7,0.1c1.1,0,2-0.4,2.7-1.2c0.1-0.1,0.2-0.2,0.3-0.2c0.2-0.1,0.3-0.3,0.4-0.5c0.6-0.9,1.4-1.5,2.3-2.1l0.2-0.2
		c0.8-0.6,1.5-1.3,2.2-1.9c0.3-0.3,0.6-0.6,0.9-0.8c1.9-1.7,4-3.7,6.3-5.1c4.5-2.8,9.6-4.9,15.6-6.4c2.3-0.6,4.9-0.8,7.8-0.8
		c2.7,0,5.5,0.2,8.1,0.5c0.5,0,1,0.2,1.5,0.4c0.2,0.1,0.4,0.1,0.5,0.2c4.1,1.3,8.1,3.1,11.7,5.3c1.2,0.7,2.4,1.7,3.5,2.6
		c0.3,0.3,0.7,0.6,1,0.8c0.5,0.4,1,0.9,1.4,1.3c0.3,0.3,0.6,0.6,0.9,0.8c0.9,0.8,1.9,1.2,3.1,1.2c0.5,0,1-0.1,1.5-0.2
		c0.7-0.1,1.2-0.8,1.3-1.6c0-0.8-0.2-1.4-0.8-1.9c-0.9-0.8-1.8-1.5-2.7-2.3l-1-0.9c-0.2-1.6,0.1-3.1,0.4-4.6
		c0.1-0.7,0.3-1.5,0.4-2.2c0.2-1.9,0.4-3.6,0.5-5.3c0.1-1.1-0.4-2.2-1.4-3.3c-1.2-1.3-3.2-2.1-5.3-2.1c-1.3,0-2.6,0.4-3.5,1
		c-2.3,1.7-4.1,3.7-5.4,6.2c-0.3,0.6-0.6,1.1-0.9,1.7l-0.3,0.5c-0.1,0-0.2,0-0.2,0c-0.1,0-0.1,0-0.2,0s-0.1,0-0.1,0
		c-4.9-1.6-9.9-1.9-14.1-1.9h-0.3c-4.6,0-9.1,1-12.8,1.9c-0.3,0.1-0.7,0.2-1,0.3c-0.8,0.2-1.6,0.5-2.4,0.6c-0.2-0.3-0.3-0.6-0.4-0.8
		c-0.4-0.7-0.7-1.3-1.1-1.9c-1.1-1.6-2.6-3.6-4.2-5.6C84.88,180.6,83.28,179.8,81.38,179.8L81.38,179.8L81.38,179.8z M128.38,191.5
		c0.9-3.1,2.7-5.5,5.7-7.2c0.1,0,0.1,0.1,0.2,0.1s0.1,0.1,0.2,0.1c0.2,3.1-0.5,6.1-1.2,9.3v0.1
		C131.28,193.4,129.68,192.8,128.38,191.5L128.38,191.5z M77.28,197.6c-0.4-4.1,2-9.9,5.4-12.8c1.8,1.8,3.2,4.2,4.3,7.4
		c-0.5,0.6-1.1,0.9-1.8,0.9c-0.1,0-0.1,0-0.2,0s-0.2,0-0.3,0c-2,0-3.5,1.1-4.9,2.3c-0.3,0.3-0.6,0.5-0.9,0.8
		C78.48,196.7,77.98,197.2,77.28,197.6L77.28,197.6z"/>
</g>
</svg>
