<?xml version="1.0" encoding="utf-8"?>
<!-- Generator: Adobe Illustrator 24.0.1, SVG Export Plug-In . SVG Version: 6.00 Build 0)  -->
<svg version="1.1" id="Layer_1" xmlns="http://www.w3.org/2000/svg" xmlns:xlink="http://www.w3.org/1999/xlink" x="0px" y="0px"
	 viewBox="0 0 95.3 186.59" style="enable-background:new 0 0 95.3 186.59;" xml:space="preserve">
<style type="text/css">
	.st0{fill:#F0983E;}
	.st1{fill:#EA602E;}
	.st2{opacity:0.6;fill:#F0983E;}
	.st3{fill:#ED7E3B;}
	.st4{fill:#FFFFFF;}
	.st5{fill:#5D1C00;}
	.st6{fill:#833723;}
	.st7{fill:#2C0000;}
	.st8{fill:#CBCCCE;}
	.st9{opacity:0.4;fill:#F0983E;}
	.st10{fill:#EA622E;}
	.st11{fill:#CC5426;}
	.st12{fill:#A20E18;}
	.st13{fill:#B8BABC;}
	.st14{opacity:0.5;fill:#FFFFFF;}
</style>
<g>
	<g>
		<g>
			<path class="st0" d="M8.97,186.18c-1.2,0-2.35-0.66-2.92-1.8c-3.05-6.1,0.71-10.61,8.94-20.5l1.65-1.99
				c4.47-5.39,2.08-10.96-2.2-19.59c-2.02-4.07-4.11-8.29-5.18-12.81c-3.52-14.77,8.28-23.59,8.78-23.96
				c1.45-1.06,3.49-0.74,4.55,0.71c1.06,1.45,0.75,3.48-0.7,4.55c-0.36,0.27-8.8,6.7-6.3,17.2c0.91,3.8,2.83,7.68,4.68,11.43
				c4.12,8.31,8.78,17.72,1.38,26.65l-1.66,2c-7.51,9.01-9.16,11.33-8.12,13.41c0.8,1.61,0.15,3.57-1.46,4.37
				C9.96,186.07,9.46,186.18,8.97,186.18z"/>
			<path class="st1" d="M8.97,186.59c-1.4,0-2.66-0.78-3.28-2.03c-3.17-6.34,0.64-10.91,8.99-20.94l1.65-1.99
				c4.31-5.19,1.95-10.66-2.25-19.15c-2.03-4.09-4.13-8.33-5.22-12.9c-3.58-15.02,8.43-24.01,8.94-24.38
				c0.63-0.46,1.38-0.71,2.16-0.71c1.17,0,2.27,0.56,2.96,1.5c1.19,1.62,0.84,3.92-0.78,5.11c-0.35,0.26-8.58,6.55-6.15,16.77
				c0.89,3.76,2.8,7.61,4.65,11.34c4.17,8.42,8.9,17.96,1.32,27.09l-1.66,2c-7.25,8.71-8.99,11.12-8.07,12.97
				c0.9,1.81,0.17,4.01-1.64,4.92C10.1,186.46,9.55,186.59,8.97,186.59z M19.97,105.32c-0.61,0-1.19,0.19-1.68,0.55
				c-0.5,0.36-12.08,9.03-8.63,23.54c1.07,4.48,3.14,8.67,5.15,12.73c4.35,8.78,6.78,14.45,2.15,20.03l-1.65,1.99
				c-8.12,9.74-11.82,14.19-8.89,20.05c0.49,0.97,1.46,1.58,2.55,1.58c0.44,0,0.87-0.1,1.27-0.3c1.41-0.7,1.98-2.42,1.28-3.83
				c-1.16-2.31,0.4-4.53,8.17-13.85l1.66-1.99c7.24-8.72,2.63-18.01-1.43-26.21c-1.87-3.77-3.8-7.67-4.71-11.51
				c-2.56-10.74,6.08-17.34,6.45-17.62c1.26-0.93,1.53-2.71,0.61-3.98C21.74,105.75,20.88,105.32,19.97,105.32z"/>
		</g>
		<path class="st0" d="M15.17,124.94c-0.44-8.68,6.41-13.91,6.74-14.16c1.44-1.06,1.75-3.1,0.7-4.55c-1.06-1.45-3.1-1.77-4.55-0.71
			c-0.49,0.36-11.65,8.7-9.04,22.73C11.02,127.11,13.07,125.97,15.17,124.94z"/>
		<path class="st2" d="M20.29,139.41c-1.86-3.75-3.78-7.63-4.68-11.43c-2.5-10.49,5.94-16.92,6.3-17.2c1.44-1.06,1.75-3.1,0.7-4.55
			c-1.06-1.45-3.1-1.77-4.55-0.71c-0.39,0.28-7.45,5.57-9.09,14.72c0.55-0.19,1.14-0.23,1.77-0.06c2.72,0.77,2.17,4.15,2.04,6.28
			c-0.35,5.68,2.9,11.15,5.2,16.14c3.62,7.83,6.65,16.89,0.3,24.27c-3.75,4.35-14.24,13.38-8.5,19.19c0.23-0.06,0.45-0.13,0.67-0.24
			c1.61-0.81,2.26-2.76,1.46-4.37c-1.04-2.08,0.61-4.4,8.12-13.41l1.66-2C29.07,157.14,24.41,147.72,20.29,139.41z"/>
		<g>
			<path class="st0" d="M82.22,176.95c-0.49,0-0.99-0.11-1.46-0.35c-1.61-0.8-2.26-2.76-1.46-4.37c2.86-5.71-0.1-11.3-3.52-17.77
				c-2.71-5.14-5.52-10.45-5.49-16.34c0.03-4.7,1.6-8.91,3.11-12.97c1.65-4.42,3.21-8.6,2.51-12.87c-0.63-3.84-3.26-8.07-6.71-10.78
				c-1.42-1.11-1.66-3.16-0.55-4.58c1.11-1.42,3.16-1.66,4.58-0.55c4.73,3.71,8.23,9.4,9.12,14.85c0.98,5.98-0.96,11.17-2.83,16.2
				c-1.38,3.7-2.68,7.19-2.7,10.74c-0.03,4.25,2.28,8.62,4.73,13.25c3.72,7.04,7.94,15.03,3.58,23.73
				C84.56,176.29,83.41,176.95,82.22,176.95z"/>
			<path class="st1" d="M82.22,177.35c-0.57,0-1.12-0.13-1.64-0.39c-1.81-0.9-2.54-3.11-1.64-4.92c2.76-5.52-0.15-11.02-3.51-17.4
				c-2.74-5.18-5.57-10.54-5.53-16.54c0.03-4.78,1.61-9.01,3.14-13.11c1.63-4.37,3.17-8.5,2.49-12.66
				c-0.62-3.75-3.19-7.88-6.56-10.52c-1.59-1.25-1.87-3.56-0.62-5.15c0.7-0.89,1.75-1.4,2.89-1.4c0.83,0,1.61,0.27,2.26,0.78
				c4.81,3.77,8.36,9.56,9.27,15.11c1,6.08-0.96,11.33-2.85,16.41c-1.37,3.67-2.66,7.13-2.68,10.6c-0.03,4.15,2.26,8.48,4.68,13.06
				c3.77,7.13,8.04,15.21,3.59,24.11C84.87,176.58,83.61,177.35,82.22,177.35z M71.22,96.08c-0.88,0-1.7,0.4-2.25,1.09
				c-0.97,1.24-0.75,3.03,0.48,4c3.52,2.76,6.22,7.09,6.86,11.03c0.72,4.38-0.86,8.6-2.53,13.08c-1.5,4.03-3.06,8.2-3.09,12.83
				c-0.04,5.79,2.75,11.05,5.44,16.15c3.47,6.57,6.47,12.25,3.52,18.15c-0.7,1.41-0.13,3.12,1.28,3.83c0.4,0.2,0.83,0.3,1.27,0.3
				c1.09,0,2.07-0.6,2.55-1.58c4.26-8.52,0.09-16.4-3.58-23.36c-2.47-4.68-4.81-9.1-4.78-13.45c0.02-3.62,1.34-7.15,2.73-10.88
				c1.86-4.98,3.77-10.12,2.81-15.99c-0.88-5.35-4.32-10.95-8.97-14.6C72.47,96.29,71.86,96.08,71.22,96.08z"/>
		</g>
		<path class="st0" d="M69.21,101.5c3.45,2.7,6.08,6.93,6.71,10.78c0.61,3.72-0.49,7.37-1.88,11.17c2.27,0.32,4.54,0.5,6.77,0.39
			c1.33-3.93,2.29-8.04,1.54-12.62c-0.89-5.45-4.39-11.14-9.12-14.85c-1.42-1.11-3.46-0.86-4.58,0.55
			C67.54,98.34,67.79,100.39,69.21,101.5z"/>
		<path class="st2" d="M81.55,151.41c-2.45-4.63-4.76-9-4.73-13.25c0.02-3.55,1.32-7.04,2.7-10.74c1.87-5.03,3.81-10.22,2.83-16.2
			c-0.89-5.45-4.39-11.14-9.12-14.85c-1.42-1.11-3.46-0.86-4.58,0.55c-1.11,1.42-0.86,3.47,0.55,4.58c3.45,2.7,6.08,6.93,6.71,10.78
			c0.48,2.9-0.09,5.76-1.02,8.68c0.24-0.04,0.48-0.06,0.73-0.05c1.87,0.08,2.49,1.53,2.13,3.31c-0.94,4.64-3.32,9.04-3.42,13.86
			c-0.18,9.16,6.28,15.88,9.05,24.18c1.07,3.2,1.85,6.9,0.7,10.2c-0.48,1.38-1.12,3.05-2.02,4.47c0.05,0,0.11,0.02,0.16,0.02
			c1.2,0,2.35-0.66,2.92-1.8C89.49,166.44,85.27,158.45,81.55,151.41z"/>
		<g>
			<path class="st0" d="M68.74,168.53c-0.41,0-0.83-0.08-1.23-0.24c-1.67-0.68-2.46-2.58-1.78-4.25c1.06-2.59-0.68-5.33-6.88-14.44
				l-1.4-2.06c-6.09-8.97-2.39-18.1,1.19-26.93c1.58-3.9,3.21-7.93,3.99-11.92c2.2-11.3-5.26-18.12-5.34-18.19
				c-1.34-1.2-1.46-3.26-0.26-4.6c1.2-1.34,3.26-1.46,4.6-0.26c0.42,0.38,10.3,9.4,7.39,24.3c-0.9,4.61-2.65,8.94-4.35,13.12
				c-3.7,9.13-5.77,15.02-1.83,20.82l1.4,2.05c6.84,10.04,9.96,14.62,7.53,20.57C71.24,167.76,70.02,168.53,68.74,168.53z"/>
			<path class="st1" d="M68.74,168.93c-0.48,0-0.94-0.09-1.39-0.27c-0.91-0.37-1.61-1.07-1.99-1.98c-0.38-0.9-0.38-1.9-0.01-2.81
				c0.98-2.4-0.74-5.09-6.84-14.05l-1.4-2.06c-6.22-9.15-2.47-18.38,1.14-27.31c1.57-3.88,3.2-7.89,3.97-11.84
				c2.15-11.02-5.14-17.74-5.21-17.81c-1.51-1.35-1.64-3.67-0.29-5.18c0.7-0.78,1.69-1.22,2.74-1.22c0.9,0,1.77,0.33,2.44,0.93
				c0.43,0.38,10.47,9.57,7.52,24.68c-0.91,4.65-2.67,8.99-4.37,13.19c-3.65,9.01-5.7,14.81-1.88,20.44l1.4,2.05
				c6.93,10.16,10.09,14.8,7.57,20.96C71.57,168.04,70.24,168.93,68.74,168.93z M59.45,85.22c-0.81,0-1.59,0.35-2.13,0.95
				c-0.51,0.57-0.76,1.3-0.72,2.06c0.04,0.76,0.38,1.46,0.95,1.97c0.08,0.07,7.71,7.06,5.47,18.57c-0.79,4.03-2.43,8.08-4.01,11.99
				c-3.54,8.73-7.2,17.75-1.23,26.55l1.4,2.06c6.3,9.24,8.06,12.03,6.92,14.82c-0.29,0.7-0.29,1.48,0.01,2.18
				c0.29,0.7,0.84,1.25,1.55,1.54c0.35,0.14,0.71,0.21,1.08,0.21c1.16,0,2.2-0.7,2.64-1.77c2.35-5.75-0.73-10.27-7.49-20.19
				l-1.4-2.05c-4.05-5.97-1.96-11.94,1.79-21.2c1.69-4.17,3.43-8.47,4.32-13.04c2.86-14.67-6.85-23.55-7.27-23.92
				C60.83,85.48,60.15,85.22,59.45,85.22z"/>
		</g>
		<path class="st0" d="M62.62,108.69c-0.78,3.99-2.41,8.02-3.99,11.92c-0.04,0.09-0.07,0.18-0.11,0.28
			c2.22,0.25,4.43,0.58,6.64,0.96c1.54-3.81,3.05-7.74,3.86-11.91c2.9-14.9-6.97-23.92-7.39-24.3c-1.34-1.2-3.4-1.08-4.6,0.26
			c-1.2,1.34-1.08,3.4,0.26,4.6C57.35,90.57,64.82,97.39,62.62,108.69z"/>
		<path class="st2" d="M64.23,145.93l-1.4-2.05c-3.94-5.79-1.87-11.69,1.83-20.82c1.7-4.18,3.45-8.51,4.35-13.12
			c2.9-14.9-6.97-23.92-7.39-24.3c-1.34-1.2-3.4-1.08-4.6,0.26c-1.2,1.34-1.08,3.4,0.26,4.6c0.08,0.07,7.54,6.89,5.34,18.19
			c-0.52,2.69-1.44,5.39-2.46,8.05c0.35-0.02,0.7-0.01,1.06,0.06c1.44,0.29,1.63,2.53,1.3,3.61c-1.31,4.2-3.39,7.32-4.24,11.88
			c-1.1,5.88,0.57,9.73,2.95,14.2c1.85,3.48,4.34,6.55,6.21,10c1.78,3.29,3.39,8.21,2.04,11.94c0.99-0.23,1.87-0.92,2.28-1.93
			C74.19,160.55,71.07,155.97,64.23,145.93z"/>
		<g>
			<path class="st0" d="M33.68,168.6c-0.49,0-0.99-0.11-1.46-0.34c-1.61-0.8-2.26-2.76-1.46-4.37c2.63-5.27,2.63-11.87,0-16.83
				c-0.67-1.26-1.46-2.52-2.31-3.87c-2.43-3.87-5.19-8.26-5.29-13.58c-0.09-4.94,2.11-9.05,4.06-12.68
				c0.69-1.28,1.33-2.48,1.88-3.69c1.97-4.38,2.2-8.87,0.73-13.72c-1.6-5.26-4.29-10.58-8-15.79c-1.04-1.47-0.7-3.5,0.77-4.54
				c1.47-1.04,3.5-0.7,4.54,0.77c4.12,5.79,7.12,11.74,8.92,17.67c1.93,6.34,1.58,12.5-1.02,18.29c-0.64,1.42-1.37,2.78-2.08,4.1
				c-1.72,3.21-3.35,6.24-3.29,9.47c0.07,3.51,2.12,6.78,4.29,10.24c0.87,1.38,1.77,2.81,2.54,4.28c3.64,6.86,3.67,15.6,0.07,22.8
				C36.03,167.93,34.88,168.6,33.68,168.6z"/>
			<path class="st1" d="M33.68,169c-0.57,0-1.12-0.13-1.64-0.39c-1.81-0.9-2.54-3.11-1.64-4.92c2.58-5.15,2.58-11.61,0.01-16.46
				c-0.66-1.25-1.45-2.51-2.29-3.84c-2.46-3.92-5.25-8.35-5.35-13.79c-0.1-5.04,2.14-9.21,4.11-12.88c0.68-1.27,1.32-2.46,1.86-3.67
				c1.92-4.28,2.16-8.68,0.71-13.44c-1.59-5.22-4.26-10.5-7.94-15.68c-1.17-1.65-0.78-3.94,0.86-5.11c0.63-0.44,1.36-0.68,2.12-0.68
				c1.19,0,2.31,0.58,2.99,1.54c4.14,5.83,7.16,11.82,8.98,17.79c1.96,6.44,1.61,12.69-1.04,18.58c-0.65,1.44-1.38,2.81-2.09,4.13
				c-1.7,3.16-3.3,6.15-3.24,9.27c0.07,3.4,2.09,6.62,4.23,10.03c0.88,1.4,1.78,2.83,2.56,4.3c3.7,6.98,3.73,15.86,0.07,23.17
				C36.34,168.23,35.08,169,33.68,169z M24.5,78.97c-0.59,0-1.16,0.18-1.65,0.53c-1.28,0.91-1.58,2.69-0.67,3.98
				c3.73,5.25,6.45,10.61,8.06,15.91c1.51,4.95,1.26,9.54-0.75,14.01c-0.55,1.23-1.2,2.44-1.89,3.72
				c-1.93,3.59-4.11,7.65-4.02,12.48c0.1,5.21,2.82,9.54,5.23,13.37c0.85,1.35,1.65,2.62,2.32,3.89c2.69,5.07,2.69,11.82,0,17.2
				c-0.7,1.41-0.13,3.12,1.28,3.83c0.4,0.2,0.83,0.3,1.27,0.3c1.09,0,2.07-0.6,2.55-1.58c3.54-7.08,3.52-15.68-0.06-22.43
				c-0.77-1.45-1.66-2.87-2.52-4.24c-2.21-3.52-4.29-6.83-4.36-10.46c-0.06-3.34,1.59-6.41,3.34-9.67c0.71-1.31,1.43-2.67,2.07-4.08
				c2.56-5.7,2.9-11.76,1-18c-1.79-5.89-4.77-11.8-8.86-17.56C26.3,79.42,25.43,78.97,24.5,78.97z"/>
		</g>
		<path class="st0" d="M29.85,99.5c1.48,4.86,1.24,9.35-0.73,13.72c-0.54,1.21-1.19,2.42-1.88,3.69c-0.79,1.46-1.61,3.01-2.32,4.65
			c0.2-0.04,0.4-0.08,0.61-0.11c2.36-0.37,4.74-0.63,7.11-0.82c0.11-0.21,0.23-0.43,0.34-0.64c0.71-1.32,1.44-2.68,2.08-4.1
			c2.6-5.8,2.95-11.95,1.02-18.29c-1.8-5.94-4.81-11.88-8.92-17.67c-1.04-1.47-3.08-1.81-4.54-0.77c-1.47,1.04-1.81,3.08-0.77,4.54
			C25.56,88.93,28.25,94.24,29.85,99.5z"/>
		<path class="st2" d="M36.53,143.99c-0.78-1.47-1.68-2.9-2.54-4.28c-2.17-3.46-4.23-6.73-4.29-10.24
			c-0.06-3.23,1.57-6.26,3.29-9.47c0.71-1.32,1.44-2.68,2.08-4.1c2.6-5.8,2.95-11.95,1.02-18.29c-1.8-5.94-4.81-11.88-8.92-17.67
			c-1.04-1.47-3.08-1.81-4.54-0.77c-1.47,1.04-1.81,3.08-0.77,4.54c3.71,5.22,6.4,10.53,8,15.79c1.48,4.86,1.24,9.35-0.73,13.72
			c-0.54,1.21-1.19,2.42-1.88,3.69c-0.5,0.94-1.03,1.91-1.52,2.92c0.56,0.03,1.06,0.34,1.19,1.06c0.68,3.73-1.22,7.57-0.13,11.31
			c1.48,5.06,5.33,8.8,7.3,13.61c1.7,4.16,2.29,8.53,1.89,13c-0.23,2.51-0.56,6.57-1.8,9.74c1.01-0.15,1.94-0.78,2.43-1.76
			C40.2,159.59,40.18,150.86,36.53,143.99z"/>
		<g>
			<path class="st0" d="M51.88,185.16c-0.7,0-1.4-0.22-1.99-0.68c-1.42-1.1-1.68-3.15-0.58-4.57c2.4-3.09,4.89-8.48-1.1-19.54
				c-0.68-1.26-1.34-2.45-1.98-3.59c-5.64-10.15-9.71-17.48-4.1-29.74c4.66-10.17-5.08-24.92-5.18-25.07c-1-1.5-0.6-3.52,0.89-4.52
				c1.49-1,3.52-0.61,4.52,0.89c0.49,0.73,11.87,17.92,5.69,31.42c-4.24,9.26-1.53,14.14,3.87,23.86c0.64,1.16,1.32,2.37,2.01,3.65
				c5.79,10.66,5.96,19.62,0.53,26.63C53.82,184.73,52.85,185.16,51.88,185.16z"/>
			<path class="st1" d="M51.88,185.57c-0.82,0-1.6-0.27-2.24-0.77c-1.6-1.24-1.89-3.55-0.65-5.14c2.33-3,4.74-8.25-1.14-19.09
				c-0.68-1.25-1.34-2.45-1.98-3.59c-5.7-10.25-9.81-17.66-4.11-30.11c4.55-9.94-5.05-24.53-5.14-24.68c-1.12-1.68-0.67-3.96,1-5.08
				c0.61-0.41,1.31-0.62,2.04-0.62c1.22,0,2.36,0.61,3.04,1.62c0.49,0.73,12,18.12,5.72,31.82c-4.16,9.07-1.48,13.89,3.85,23.49
				c0.64,1.16,1.32,2.37,2.01,3.65c5.87,10.82,6.03,19.93,0.49,27.08C54.08,185.05,53.02,185.57,51.88,185.57z M39.66,97.3
				c-0.57,0-1.11,0.17-1.59,0.48c-1.3,0.88-1.66,2.65-0.78,3.96c0.1,0.15,9.95,15.12,5.21,25.47c-5.53,12.07-1.5,19.33,4.08,29.37
				c0.63,1.14,1.3,2.33,1.98,3.59c6.11,11.26,3.54,16.8,1.07,19.98c-0.96,1.24-0.74,3.04,0.51,4c0.5,0.39,1.11,0.6,1.75,0.6
				c0.89,0,1.71-0.4,2.26-1.1c5.33-6.87,5.14-15.68-0.56-26.19c-0.69-1.28-1.36-2.49-2.01-3.64c-5.47-9.84-8.21-14.78-3.88-24.23
				c6.09-13.29-5.18-30.31-5.66-31.02C41.5,97.78,40.61,97.3,39.66,97.3z"/>
		</g>
		<path class="st0" d="M43.38,120.21c1.43-0.01,2.86-0.01,4.29,0c0.74,0,1.47,0.02,2.21,0.05c-0.24-10.94-7.14-21.35-7.51-21.92
			c-1-1.49-3.03-1.89-4.52-0.89c-1.49,1-1.89,3.03-0.89,4.52C37.03,102.09,43.12,111.32,43.38,120.21z"/>
		<path class="st2" d="M53.93,157.26c-0.69-1.28-1.37-2.49-2.01-3.65c-5.4-9.72-8.11-14.6-3.87-23.86c6.18-13.5-5.2-30.7-5.69-31.42
			c-1-1.49-3.03-1.89-4.52-0.89c-1.49,1-1.89,3.03-0.89,4.52c0.07,0.11,5.07,7.68,6.21,15.71c2.28-0.36,4.48,0.9,4.22,4.29
			c-0.34,4.4-2.51,8.33-3.57,12.56c-1.43,5.71-0.41,11.01,2.14,16.25c3.48,7.15,9.75,15.07,9.33,23.46
			c-0.13,2.66-1.01,7.42-2.92,10.86c0.8-0.12,1.55-0.52,2.09-1.21C59.89,176.89,59.72,167.93,53.93,157.26z"/>
		<g>
			<path class="st0" d="M75.38,124.6c0,0-0.4,0.72-0.97,2.04c-0.58,1.31-1.3,3.23-1.87,5.61c-0.29,1.19-0.51,2.49-0.62,3.88
				c-0.12,1.39-0.05,2.85,0.11,4.35c0.16,0.75,0.24,1.47,0.49,2.24c0.2,0.77,0.47,1.51,0.74,2.25c0.58,1.48,1.25,2.97,2.01,4.41
				c1.46,2.92,3.15,5.74,4.5,8.53c0.69,1.38,1.26,2.78,1.67,4.15c0.45,1.36,0.63,2.72,0.68,3.98c0,0.61,0,1.2,0,1.77
				c0.01,0.56-0.1,1.1-0.13,1.6c-0.03,0.25-0.04,0.5-0.09,0.73c-0.05,0.23-0.1,0.45-0.15,0.67c-0.05,0.21-0.09,0.42-0.14,0.61
				c-0.05,0.19-0.13,0.37-0.19,0.54c-0.06,0.17-0.13,0.33-0.18,0.48c-0.07,0.15-0.16,0.27-0.23,0.39c-0.07,0.12-0.14,0.23-0.2,0.33
				c-0.08,0.09-0.15,0.17-0.22,0.24c-0.26,0.29-0.46,0.36-0.46,0.36s0.2-0.09,0.43-0.39c0.06-0.07,0.12-0.16,0.19-0.25
				c0.06-0.1,0.11-0.22,0.18-0.34c0.06-0.12,0.14-0.25,0.19-0.4c0.05-0.15,0.1-0.31,0.15-0.48c0.05-0.17,0.12-0.34,0.16-0.54
				c0.03-0.19,0.07-0.4,0.1-0.61c0.04-0.21,0.07-0.43,0.11-0.66c0.03-0.23,0.03-0.47,0.04-0.72c0.01-0.5,0.08-1.01,0.04-1.57
				c-0.02-0.56-0.04-1.15-0.06-1.76c-0.09-1.19-0.31-2.5-0.79-3.8c-0.44-1.32-1.06-2.66-1.74-4.02c-1.36-2.74-3.08-5.53-4.59-8.47
				c-0.75-1.47-1.42-2.99-2-4.52c-0.27-0.78-0.54-1.56-0.73-2.32c-0.24-0.75-0.34-1.58-0.48-2.34c-0.17-1.56-0.18-3.08,0-4.5
				c0.17-1.42,0.43-2.74,0.77-3.94c0.31-1.2,0.72-2.26,1.09-3.2c0.39-0.93,0.75-1.72,1.08-2.36c0.32-0.65,0.61-1.13,0.8-1.46
				C75.27,124.77,75.38,124.6,75.38,124.6z"/>
			<path class="st0" d="M59.08,122.83c0,0-0.3,0.6-0.76,1.69c-0.46,1.08-1.05,2.67-1.6,4.6c-0.26,0.97-0.53,2.03-0.7,3.16
				c-0.2,1.13-0.28,2.34-0.32,3.58c0.01,1.24,0.09,2.53,0.41,3.78c0.08,0.31,0.15,0.64,0.24,0.93l0.34,0.95
				c0.21,0.65,0.53,1.21,0.79,1.81c0.59,1.19,1.24,2.36,1.95,3.47c0.7,1.12,1.43,2.19,2.15,3.23c1.45,2.07,2.78,4.04,3.81,5.79
				c0.51,0.88,0.94,1.72,1.25,2.49c0.18,0.37,0.27,0.76,0.4,1.09c0.13,0.33,0.2,0.66,0.26,0.95c0.06,0.29,0.13,0.55,0.15,0.78
				c0.01,0.23,0.02,0.43,0.03,0.59c0.01,0.32,0.02,0.48,0.02,0.48s-0.02-0.17-0.07-0.48c-0.02-0.16-0.05-0.35-0.08-0.57
				c-0.04-0.22-0.13-0.47-0.2-0.76c-0.07-0.28-0.17-0.59-0.32-0.92c-0.15-0.32-0.26-0.69-0.47-1.04c-0.36-0.73-0.83-1.52-1.37-2.37
				c-0.55-0.84-1.17-1.74-1.85-2.68c-0.68-0.94-1.42-1.91-2.15-2.95c-0.74-1.03-1.49-2.1-2.22-3.23c-0.73-1.12-1.42-2.3-2.04-3.53
				c-0.26-0.64-0.6-1.27-0.8-1.91l-0.33-0.95c-0.11-0.36-0.17-0.67-0.25-1.01c-0.33-1.33-0.39-2.67-0.38-3.96
				c0.05-1.29,0.19-2.53,0.45-3.67c0.22-1.15,0.54-2.22,0.85-3.19c0.63-1.94,1.36-3.48,1.89-4.54
				C58.71,123.4,59.08,122.83,59.08,122.83z"/>
			<path class="st0" d="M43.6,127.45c0,0-0.15,0.17-0.37,0.52c-0.12,0.17-0.25,0.39-0.39,0.66c-0.14,0.27-0.33,0.56-0.46,0.93
				c-0.14,0.36-0.33,0.75-0.48,1.19c-0.13,0.45-0.27,0.93-0.42,1.45c-0.14,0.52-0.19,1.1-0.3,1.69c-0.04,0.3-0.12,0.6-0.13,0.92
				c-0.01,0.32-0.03,0.64-0.04,0.97c-0.02,0.33-0.03,0.67-0.05,1.01c-0.03,0.34-0.01,0.69,0.02,1.05c0.06,0.71,0.11,1.45,0.17,2.2
				c0.01,0.35,0.12,0.75,0.18,1.13c0.07,0.38,0.13,0.79,0.24,1.16c0.1,0.38,0.2,0.76,0.3,1.15c0.12,0.39,0.25,0.78,0.37,1.17
				c1.04,3.14,2.71,6.29,4.48,9.37c1.73,3.11,3.63,6.15,4.95,9.27c0.65,1.58,1.11,3.11,1.52,4.62c0.39,1.49,0.66,2.95,0.71,4.31
				c0.06,1.36-0.12,2.61-0.43,3.67c-0.33,1.06-0.78,1.91-1.19,2.58c-0.43,0.66-0.8,1.15-1.08,1.46c-0.27,0.32-0.42,0.49-0.42,0.49
				s0.13-0.18,0.38-0.51c0.26-0.33,0.59-0.84,0.98-1.51c0.37-0.68,0.76-1.54,1.03-2.58c0.25-1.04,0.36-2.25,0.27-3.56
				c-0.09-1.31-0.39-2.72-0.82-4.17c-0.22-0.73-0.46-1.47-0.73-2.22c-0.27-0.76-0.55-1.53-0.87-2.28c-1.32-3.03-3.24-6.04-5.01-9.15
				c-1.75-3.11-3.41-6.32-4.45-9.55c-0.12-0.4-0.25-0.8-0.37-1.2c-0.1-0.41-0.19-0.81-0.29-1.21c-0.11-0.4-0.15-0.79-0.21-1.18
				c-0.05-0.4-0.14-0.75-0.15-1.17c-0.04-0.77-0.07-1.53-0.11-2.25c-0.03-0.36-0.03-0.72,0.01-1.07c0.03-0.35,0.05-0.7,0.08-1.03
				c0.03-0.34,0.05-0.67,0.08-0.99c0.02-0.32,0.11-0.63,0.17-0.93c0.14-0.6,0.22-1.18,0.39-1.7c0.18-0.52,0.35-1,0.5-1.45
				c0.18-0.44,0.39-0.82,0.55-1.18c0.15-0.36,0.36-0.65,0.52-0.91c0.16-0.26,0.3-0.47,0.44-0.64
				C43.44,127.61,43.6,127.45,43.6,127.45z"/>
			<path class="st0" d="M25.13,125.96c0,0-0.05,0.16-0.11,0.46c-0.08,0.3-0.13,0.75-0.22,1.32c-0.03,0.57-0.12,1.26-0.06,2.06
				c-0.01,0.8,0.16,1.68,0.27,2.65c0.26,0.94,0.43,1.99,0.89,3.02c0.22,0.51,0.37,1.07,0.65,1.58c0.13,0.27,0.27,0.54,0.4,0.81
				c0.15,0.26,0.29,0.52,0.44,0.78c1.22,2.1,2.9,4.14,4.39,6.35c0.72,1.12,1.39,2.29,1.92,3.51c0.5,1.23,0.9,2.48,1.09,3.74
				c0.1,0.63,0.14,1.25,0.18,1.85c-0.02,0.61,0,1.19-0.06,1.78c-0.06,0.56-0.12,1.11-0.18,1.64c-0.06,0.53-0.11,1.04-0.23,1.53
				c-0.11,0.49-0.21,0.96-0.31,1.41c-0.11,0.44-0.29,0.84-0.42,1.23c-0.07,0.19-0.14,0.37-0.2,0.55c-0.09,0.17-0.18,0.33-0.26,0.48
				c-0.19,0.3-0.29,0.61-0.5,0.82c-0.19,0.22-0.34,0.44-0.51,0.59c-0.18,0.14-0.33,0.26-0.46,0.35c-0.14,0.07-0.25,0.12-0.32,0.15
				c-0.08,0.02-0.12,0.03-0.12,0.03s0.04-0.01,0.11-0.04c0.07-0.04,0.17-0.1,0.3-0.18c0.12-0.1,0.25-0.23,0.41-0.38
				c0.15-0.16,0.28-0.38,0.45-0.61c0.19-0.21,0.27-0.53,0.43-0.83c0.07-0.16,0.15-0.32,0.22-0.48c0.05-0.18,0.11-0.36,0.16-0.56
				c0.1-0.38,0.25-0.78,0.33-1.22c0.07-0.44,0.15-0.9,0.23-1.38c0.1-0.47,0.13-0.99,0.17-1.52c0.04-0.53,0.07-1.08,0.11-1.65
				c0.04-0.54-0.01-1.12-0.01-1.7c-0.07-0.58-0.09-1.17-0.21-1.77c-0.2-1.19-0.59-2.38-1.08-3.55c-0.53-1.16-1.18-2.28-1.9-3.36
				c-1.42-2.19-3.08-4.26-4.32-6.46c-0.15-0.28-0.3-0.55-0.45-0.83c-0.13-0.28-0.25-0.55-0.38-0.82c-0.27-0.55-0.41-1.13-0.61-1.67
				c-0.43-1.07-0.56-2.16-0.78-3.14c-0.08-1-0.2-1.91-0.13-2.73c0-0.81,0.14-1.51,0.21-2.09C24.87,126.57,25.13,125.96,25.13,125.96
				z"/>
			<path class="st0" d="M9.92,122.56c0,0-0.04,0.25-0.04,0.73c-0.02,0.24,0.01,0.53,0.03,0.88c0.02,0.35,0.03,0.74,0.11,1.19
				c0.07,0.44,0.13,0.93,0.22,1.46c0.12,0.52,0.25,1.09,0.39,1.7c0.12,0.61,0.34,1.24,0.54,1.9c0.22,0.66,0.38,1.38,0.66,2.09
				c0.57,1.42,1.07,3,1.85,4.58c0.72,1.59,1.5,3.27,2.34,4.99c0.83,1.73,1.7,3.52,2.51,5.37c0.81,1.85,1.6,3.77,2.09,5.81
				c0.51,2.02,0.45,4.28-0.34,6.23c-0.81,1.95-2.14,3.51-3.35,4.98c-1.23,1.48-2.47,2.86-3.62,4.19c-1.15,1.33-2.19,2.61-3.1,3.84
				c-0.91,1.23-1.64,2.42-2.23,3.5c-0.25,0.56-0.54,1.07-0.69,1.58c-0.09,0.25-0.18,0.49-0.26,0.72c-0.05,0.24-0.1,0.47-0.15,0.68
				c-0.12,0.43-0.13,0.83-0.16,1.17c-0.01,0.17-0.02,0.33-0.03,0.48c0.01,0.14,0.03,0.28,0.04,0.4c0.05,0.48,0.07,0.73,0.07,0.73
				s-0.04-0.25-0.12-0.73c-0.02-0.12-0.04-0.25-0.06-0.4c0-0.15,0-0.31,0.01-0.48c0-0.35,0-0.76,0.1-1.2
				c0.04-0.22,0.08-0.46,0.12-0.7c0.07-0.24,0.15-0.49,0.23-0.75c0.14-0.53,0.4-1.06,0.63-1.64c0.55-1.13,1.24-2.38,2.13-3.63
				c1.76-2.54,4.1-5.28,6.54-8.21c1.21-1.49,2.47-3.01,3.19-4.81c0.71-1.8,0.74-3.83,0.25-5.77c-0.45-1.95-1.21-3.84-1.99-5.69
				c-0.79-1.84-1.64-3.63-2.45-5.37c-0.84-1.72-1.57-3.44-2.25-5.07c-0.74-1.61-1.2-3.22-1.73-4.66c-0.26-0.73-0.42-1.45-0.61-2.13
				c-0.17-0.68-0.37-1.32-0.46-1.94c-0.11-0.62-0.22-1.19-0.31-1.73c-0.07-0.54-0.11-1.04-0.15-1.48c-0.06-0.44-0.05-0.85-0.05-1.2
				c0-0.35-0.01-0.65,0.02-0.89C9.87,122.81,9.92,122.56,9.92,122.56z"/>
		</g>
	</g>
	<g>
		<g>
			<path class="st0" d="M17.89,73.23c-0.75,0-1.51-0.3-2.07-0.88C7.73,63.94,3.99,52.36,5,38.84c0.75-10.03,3.82-17.56,3.95-17.88
				c0.61-1.47,2.29-2.16,3.75-1.56c1.47,0.61,2.16,2.28,1.56,3.75c-0.15,0.37-11.08,27.77,5.69,45.21c1.1,1.14,1.06,2.96-0.08,4.06
				C19.32,72.96,18.6,73.23,17.89,73.23z"/>
			<path class="st1" d="M17.89,73.63c-0.9,0-1.74-0.36-2.36-1C7.36,64.14,3.58,52.44,4.6,38.81c0.76-10.12,3.85-17.68,3.98-18
				c0.51-1.23,1.7-2.03,3.03-2.03c0.43,0,0.85,0.08,1.25,0.25c1.67,0.69,2.47,2.61,1.78,4.28c-0.11,0.27-10.96,27.55,5.61,44.77
				c1.25,1.3,1.21,3.38-0.09,4.64C19.55,73.31,18.74,73.63,17.89,73.63z M11.61,19.6c-1,0-1.9,0.6-2.28,1.52
				c-0.13,0.31-3.18,7.76-3.92,17.75c-1,13.4,2.7,24.87,10.7,33.19c0.91,0.95,2.54,0.98,3.48,0.07c0.98-0.94,1.01-2.5,0.07-3.48
				c-16.93-17.6-5.89-45.36-5.78-45.64c0.52-1.26-0.08-2.7-1.34-3.22C12.25,19.66,11.93,19.6,11.61,19.6z"/>
		</g>
		<g>
			<path class="st3" d="M17.89,73.23c-0.75,0-1.51-0.3-2.07-0.88C7.73,63.94,3.99,52.36,5,38.84c0.75-10.03,3.82-17.56,3.95-17.88
				c0.61-1.47,2.29-2.16,3.75-1.56c1.47,0.61,2.16,2.28,1.56,3.75c-0.15,0.37-11.08,27.77,5.69,45.21c1.1,1.14,1.06,2.96-0.08,4.06
				C19.32,72.96,18.6,73.23,17.89,73.23z"/>
			<path class="st1" d="M17.89,73.63c-0.9,0-1.74-0.36-2.36-1C7.36,64.14,3.58,52.44,4.6,38.81c0.76-10.12,3.85-17.68,3.98-18
				c0.51-1.23,1.7-2.03,3.03-2.03c0.43,0,0.85,0.08,1.25,0.25c1.67,0.69,2.47,2.61,1.78,4.28c-0.11,0.27-10.96,27.55,5.61,44.77
				c1.25,1.3,1.21,3.38-0.09,4.64C19.55,73.31,18.74,73.63,17.89,73.63z M11.61,19.6c-1,0-1.9,0.6-2.28,1.52
				c-0.13,0.31-3.18,7.76-3.92,17.75c-1,13.4,2.7,24.87,10.7,33.19c0.91,0.95,2.54,0.98,3.48,0.07c0.98-0.94,1.01-2.5,0.07-3.48
				c-16.93-17.6-5.89-45.36-5.78-45.64c0.52-1.26-0.08-2.7-1.34-3.22C12.25,19.66,11.93,19.6,11.61,19.6z"/>
		</g>
		<path class="st3" d="M11.97,31.07c1.02-4.7,2.24-7.79,2.29-7.91c0.6-1.47-0.09-3.14-1.56-3.75c-1.46-0.6-3.14,0.09-3.75,1.56
			c-0.09,0.21-1.44,3.53-2.57,8.62C8.19,30.29,10.06,30.77,11.97,31.07z"/>
		<path class="st3" d="M13.81,59.24c-1.52,1.37-2.91,2.9-4.18,4.54c1.65,3.13,3.71,6,6.18,8.57c0.56,0.58,1.32,0.88,2.07,0.88
			c0.72,0,1.43-0.27,1.99-0.8c1.14-1.1,1.18-2.92,0.08-4.06C17.23,65.53,15.24,62.44,13.81,59.24z"/>
		<g>
			<circle class="st0" cx="14.19" cy="14.19" r="13.78"/>
			<path class="st1" d="M14.19,28.38C6.37,28.38,0,22.01,0,14.19S6.37,0,14.19,0c7.82,0,14.19,6.36,14.19,14.19
				S22.01,28.38,14.19,28.38z M14.19,0.81c-7.38,0-13.38,6-13.38,13.38s6,13.38,13.38,13.38c7.37,0,13.37-6,13.37-13.38
				S21.56,0.81,14.19,0.81z"/>
		</g>
		<g>
			<path class="st4" d="M25.2,14.29c0,6.08-4.93,11.01-11.01,11.01S3.18,20.36,3.18,14.29S8.11,3.28,14.19,3.28
				S25.2,8.21,25.2,14.29z"/>
			<path class="st1" d="M14.19,25.7c-6.29,0-11.41-5.12-11.41-11.41c0-6.29,5.12-11.41,11.41-11.41S25.6,7.99,25.6,14.29
				C25.6,20.58,20.48,25.7,14.19,25.7z M14.19,3.69c-5.85,0-10.6,4.75-10.6,10.6s4.75,10.6,10.6,10.6c5.84,0,10.6-4.75,10.6-10.6
				S20.03,3.69,14.19,3.69z"/>
		</g>
		<g>
			<g>
				<path class="st5" d="M20.54,14.38c0,3.49-2.83,6.32-6.32,6.32c-3.49,0-6.32-2.83-6.32-6.32c0-3.49,2.83-6.32,6.32-6.32
					C17.71,8.06,20.54,10.89,20.54,14.38z"/>
				<path class="st6" d="M19.1,14.19c0,2.7-2.19,4.88-4.88,4.88c-2.7,0-4.88-2.18-4.88-4.88c0-2.7,2.19-4.88,4.88-4.88
					C16.92,9.31,19.1,11.49,19.1,14.19z"/>
				<path class="st7" d="M17.76,14.19c0,1.96-1.59,3.54-3.54,3.54c-1.96,0-3.54-1.59-3.54-3.54c0-1.96,1.59-3.54,3.54-3.54
					C16.18,10.65,17.76,12.23,17.76,14.19z"/>
			</g>
			<path class="st4" d="M14.57,11.75c0,1.19-0.96,2.15-2.15,2.15c-1.19,0-2.15-0.96-2.15-2.15c0-1.19,0.96-2.15,2.15-2.15
				C13.61,9.6,14.57,10.56,14.57,11.75z"/>
		</g>
		<path class="st8" d="M14.19,3.28c-6.08,0-11.01,4.93-11.01,11.01s4.93,11.01,11.01,11.01S25.2,20.36,25.2,14.29
			S20.27,3.28,14.19,3.28z M14.83,18.98c-3.71,0.84-9.68-1.19-9.62-5.84c0.05-3.65,2.63-6.93,6.05-7.83
			c3.81-1.01,9.46,0.14,10.58,4.56C22.94,14.21,18.82,18.08,14.83,18.98z"/>
		<g>
			<g>
				<path class="st0" d="M77.1,78.52c0.75,0,1.51-0.29,2.07-0.88c8.09-8.4,11.83-19.99,10.81-33.5
					c-0.75-10.03-3.82-17.56-3.95-17.88c-0.61-1.47-2.29-2.16-3.75-1.56c-1.47,0.61-2.16,2.28-1.56,3.75
					c0.15,0.37,11.08,27.77-5.69,45.21c-1.1,1.14-1.06,2.96,0.08,4.06C75.67,78.26,76.38,78.52,77.1,78.52z"/>
				<path class="st1" d="M77.1,78.93c-0.85,0-1.66-0.33-2.27-0.92c-1.3-1.25-1.34-3.33-0.09-4.64c16.57-17.22,5.72-44.5,5.61-44.77
					c-0.69-1.67,0.11-3.59,1.78-4.28c0.4-0.17,0.82-0.25,1.25-0.25c1.33,0,2.52,0.8,3.03,2.03c0.13,0.32,3.23,7.89,3.98,18
					c1.02,13.63-2.76,25.33-10.93,33.82C78.84,78.57,78,78.93,77.1,78.93z M83.38,24.9c-0.32,0-0.64,0.06-0.94,0.19
					c-1.26,0.52-1.85,1.96-1.34,3.22c0.11,0.28,11.16,28.04-5.78,45.64c-0.94,0.98-0.91,2.54,0.07,3.48
					c0.95,0.91,2.57,0.88,3.48-0.07c8-8.32,11.7-19.8,10.7-33.19c-0.75-9.99-3.79-17.44-3.92-17.75
					C85.27,25.49,84.38,24.9,83.38,24.9z"/>
			</g>
			<g>
				<path class="st3" d="M77.1,78.52c0.75,0,1.51-0.29,2.07-0.88c8.09-8.4,11.83-19.99,10.81-33.5
					c-0.75-10.03-3.82-17.56-3.95-17.88c-0.61-1.47-2.29-2.16-3.75-1.56c-1.47,0.61-2.16,2.28-1.56,3.75
					c0.15,0.37,11.08,27.77-5.69,45.21c-1.1,1.14-1.06,2.96,0.08,4.06C75.67,78.26,76.38,78.52,77.1,78.52z"/>
				<path class="st1" d="M77.1,78.93c-0.85,0-1.66-0.33-2.27-0.92c-1.3-1.25-1.34-3.33-0.09-4.64c16.57-17.22,5.72-44.5,5.61-44.77
					c-0.69-1.67,0.11-3.59,1.78-4.28c0.4-0.17,0.82-0.25,1.25-0.25c1.33,0,2.52,0.8,3.03,2.03c0.13,0.32,3.23,7.89,3.98,18
					c1.02,13.63-2.76,25.33-10.93,33.82C78.84,78.57,78,78.93,77.1,78.93z M83.38,24.9c-0.32,0-0.64,0.06-0.94,0.19
					c-1.26,0.52-1.85,1.96-1.34,3.22c0.11,0.28,11.16,28.04-5.78,45.64c-0.94,0.98-0.91,2.54,0.07,3.48
					c0.95,0.91,2.57,0.88,3.48-0.07c8-8.32,11.7-19.8,10.7-33.19c-0.75-9.99-3.79-17.44-3.92-17.75
					C85.27,25.49,84.38,24.9,83.38,24.9z"/>
			</g>
			<path class="st3" d="M83.21,37.3c1.92-0.2,3.79-0.66,5.63-1.28c-1.17-5.73-2.72-9.53-2.81-9.75c-0.61-1.47-2.29-2.16-3.75-1.56
				c-1.47,0.61-2.16,2.28-1.56,3.75C80.78,28.58,82.17,32.08,83.21,37.3z"/>
			<path class="st3" d="M83.29,58.19c-1.25,5.4-3.76,10.79-8.26,15.47c-1.1,1.14-1.06,2.96,0.08,4.06c0.56,0.54,1.27,0.8,1.99,0.8
				c0.75,0,1.51-0.29,2.07-0.88c4.18-4.34,7.18-9.54,8.99-15.41C86.65,60.73,85.08,59.32,83.29,58.19z"/>
			<g>
				<circle class="st0" cx="80.8" cy="19.49" r="13.78"/>
				<path class="st1" d="M80.8,33.68c-7.82,0-14.19-6.37-14.19-14.19c0-7.82,6.37-14.19,14.19-14.19c7.82,0,14.19,6.37,14.19,14.19
					C94.99,27.31,88.62,33.68,80.8,33.68z M80.8,6.11c-7.38,0-13.38,6-13.38,13.37s6,13.38,13.38,13.38s13.38-6,13.38-13.38
					S88.17,6.11,80.8,6.11z"/>
			</g>
			<g>
				<path class="st4" d="M69.79,19.58c0,6.08,4.93,11.01,11.01,11.01c6.08,0,11.01-4.93,11.01-11.01c0-6.08-4.93-11.01-11.01-11.01
					C74.72,8.57,69.79,13.5,69.79,19.58z"/>
				<path class="st1" d="M80.8,31c-6.29,0-11.41-5.12-11.41-11.42c0-6.29,5.12-11.41,11.41-11.41c6.29,0,11.41,5.12,11.41,11.41
					C92.21,25.87,87.09,31,80.8,31z M80.8,8.98c-5.84,0-10.6,4.75-10.6,10.6c0,5.85,4.75,10.6,10.6,10.6c5.85,0,10.6-4.75,10.6-10.6
					C91.4,13.74,86.64,8.98,80.8,8.98z"/>
			</g>
			<g>
				<g>
					<path class="st5" d="M87.08,19.68c0,3.49-2.83,6.32-6.32,6.32c-3.49,0-6.32-2.83-6.32-6.32c0-3.49,2.83-6.32,6.32-6.32
						C84.25,13.36,87.08,16.19,87.08,19.68z"/>
					<path class="st6" d="M85.65,19.48c0,2.7-2.19,4.88-4.88,4.88s-4.88-2.19-4.88-4.88c0-2.7,2.19-4.88,4.88-4.88
						S85.65,16.79,85.65,19.48z"/>
					<path class="st7" d="M84.3,19.49c0,1.96-1.58,3.54-3.54,3.54c-1.96,0-3.54-1.59-3.54-3.54c0-1.96,1.59-3.54,3.54-3.54
						C82.72,15.94,84.3,17.53,84.3,19.49z"/>
				</g>
				<path class="st4" d="M81.12,17.05c0,1.19-0.96,2.15-2.15,2.15c-1.19,0-2.15-0.96-2.15-2.15c0-1.19,0.96-2.15,2.15-2.15
					C80.15,14.89,81.12,15.86,81.12,17.05z"/>
			</g>
			<path class="st8" d="M69.79,19.58c0,6.08,4.93,11.01,11.01,11.01c6.08,0,11.01-4.93,11.01-11.01c0-6.08-4.93-11.01-11.01-11.01
				C74.72,8.57,69.79,13.5,69.79,19.58z M73.15,15.16c1.12-4.42,6.77-5.57,10.58-4.56c3.42,0.91,6,4.18,6.05,7.83
				c0.06,4.65-5.92,6.68-9.62,5.84C76.17,23.37,72.04,19.5,73.15,15.16z"/>
		</g>
		<g>
			<path class="st0" d="M94.89,98.82c0,29.5-20.58,15.31-45.96,15.31c-25.39,0-45.96,14.18-45.96-15.31
				c0-29.5,20.58-53.41,45.96-53.41C74.31,45.42,94.89,69.33,94.89,98.82z"/>
			<path class="st1" d="M80.94,117.95c-3.75,0-8.18-0.7-12.87-1.45c-5.77-0.92-12.31-1.96-19.14-1.96c-6.82,0-13.36,1.04-19.14,1.96
				c-4.69,0.75-9.12,1.45-12.87,1.45c-4.9,0-8.24-1.23-10.52-3.86c-2.59-3.01-3.85-8-3.85-15.27c0-29.67,20.8-53.81,46.37-53.81
				c25.57,0,46.37,24.14,46.37,53.81C95.3,112.41,91.14,117.95,80.94,117.95z M48.93,113.73c6.89,0,13.46,1.05,19.27,1.97
				c4.66,0.74,9.06,1.44,12.74,1.44c11.24,0,13.55-7.32,13.55-18.31c0-29.22-20.44-53-45.56-53c-25.12,0-45.56,23.77-45.56,53
				c0,7.06,1.19,11.88,3.65,14.73c2.11,2.44,5.25,3.58,9.9,3.58c3.68,0,8.08-0.7,12.74-1.44C35.47,114.77,42.04,113.73,48.93,113.73
				z"/>
		</g>
		<path class="st0" d="M48.93,81.69c-18.77,0-33.98,7.84-33.98,27.9c0,2.72,0.29,5.38,0.82,7.93c8.36,0.35,20.13-3.38,33.16-3.38
			c13.03,0,24.79,3.74,33.16,3.38c0.53-2.55,0.82-5.2,0.82-7.93C82.91,89.53,67.69,81.69,48.93,81.69z"/>
		<path class="st0" d="M48.53,114.1c1.31,0.05,2.61,0.18,3.92,0.33c6.11-0.17,12.24,0.21,18.03,1.64c0.18-1.18,0.28-2.39,0.28-3.63
			c0-12.88-9.77-17.92-21.82-17.92c-12.05,0-21.82,5.03-21.82,17.92c0,1.37,0.12,2.7,0.33,4C34.1,114.49,41.7,113.83,48.53,114.1z"
			/>
		<path class="st9" d="M48.93,45.42c-25.39,0-45.96,23.91-45.96,53.41c0,29.5,20.58,15.31,45.96,15.31
			c25.39,0,45.96,14.18,45.96-15.31C94.89,69.33,74.31,45.42,48.93,45.42z M78.43,111.02c-6.51-1.53-23.99-4.9-30.76-4.77
			c-5.82,0.11-11.46,1.38-17.23,1.97c-6.7,0.68-16.27,1.02-20.22-5.8c-0.77-1.33-1.33-2.76-1.71-4.23
			c-2.69-6.71-0.14-16.44,2.13-22.21c3-7.63,7.81-15.8,14.59-20.66c2.02-1.45,4.27-2.37,6.42-3.57c4.09-2.27,9.08-3.44,13.49-3.88
			c4.25-0.42,7.8,0.15,11.84,1.51c3.41,1.15,7.52,2.52,9.84,5.45c1.72,2.17,0.32,4.58-1.78,5.84c-5.35,3.19-12.01,3.42-18.06,2.85
			c-2.94-0.28-11.7-0.63-16.39-3.13c-2.18-0.71-4.6-1.33-6.5-1.08c-0.57,0.41-1.02,0.74-1.14,0.84c-2.85,2.44-3.05,7.01-2.41,10.44
			c0.59,3.17,2.43,5.95,4.81,8.08c5.33,4.76,12.76,5.81,19.64,5.36c3.87-0.25,7.6-0.29,11.44-0.89
			C82.74,78.97,87.07,113.06,78.43,111.02z"/>
		<path class="st9" d="M48.93,45.42c-1.13,0-2.25,0.06-3.36,0.16c1.35,0.17,2.69,0.38,4.02,0.67c17.12,3.72,30.25,14.91,36.11,31.39
			c2.01,5.65,3.63,11.56,4.19,17.55c0.45,4.78,0.6,10.85-2.46,14.91c-2.96,3.93-7.75,4.94-12.46,4.14
			c-6.76-1.15-13.32-3.58-20.21-3.88c-6.28-0.28-12.52,0.39-18.67,1.73c-8.65,1.89-20.05,7.07-28.23,1.22
			c-1.34-0.96-2.42-2.04-3.28-3.21c5.31,13.92,23.15,4.04,44.35,4.04c25.39,0,45.96,14.18,45.96-15.31
			C94.89,69.33,74.31,45.42,48.93,45.42z"/>
		<g>
			<g>
				<g>
					<path class="st10" d="M50.94,68.41c-3.76-0.11-7.51-0.51-11.21-1.13c-4.34-0.73-8.87-1.58-12.82-3.61
						c-7.46-3.83-5.74,9.38,6.51,12.63c6.72,1.79,13.92,1.75,20.8,1.2c3.59-0.29,7.11-1.02,10.56-2.04c2.67-0.79,5.31-1.74,7.4-3.64
						c1.06-0.97,2.33-2.29,2.29-3.84c-0.04-1.64-1.4-2.57-2.97-2.34c-3.41,0.49-6.68,1.64-10.07,2.2
						C57.99,68.42,54.43,68.51,50.94,68.41z"/>
					<path class="st11" d="M46.6,78.24c-5.02,0-9.37-0.51-13.28-1.54c-7.96-2.11-11.69-8.33-11.24-11.83
						c0.19-1.44,1.11-2.3,2.47-2.3c0.74,0,1.6,0.25,2.55,0.73c3.85,1.98,8.2,2.81,12.7,3.57c3.84,0.64,7.59,1.02,11.15,1.13
						c0.79,0.02,1.59,0.04,2.38,0.04c3.02,0,5.64-0.19,8.03-0.59c1.58-0.26,3.16-0.66,4.7-1.05c1.75-0.44,3.55-0.89,5.38-1.16
						c1.91-0.27,3.39,0.94,3.44,2.74c0.04,1.68-1.27,3.1-2.42,4.15c-2.24,2.04-5.08,2.99-7.56,3.73c-3.74,1.11-7.22,1.78-10.64,2.05
						C51.44,78.13,48.94,78.24,46.6,78.24z M24.56,63.38c-1.21,0-1.57,0.86-1.67,1.59c-0.37,2.81,2.87,8.87,10.64,10.93
						c3.84,1.02,8.12,1.52,13.07,1.52c2.32,0,4.8-0.11,7.59-0.33c3.36-0.27,6.79-0.93,10.47-2.02c2.4-0.71,5.13-1.63,7.24-3.55
						c1.02-0.93,2.19-2.17,2.16-3.52c-0.03-1.31-1.1-2.15-2.51-1.95c-1.78,0.26-3.57,0.71-5.3,1.14c-1.55,0.39-3.15,0.79-4.76,1.06
						c-2.43,0.4-5.1,0.6-8.16,0.6c-0.81,0-1.61-0.01-2.41-0.04c-3.6-0.1-7.39-0.49-11.26-1.14c-4.56-0.76-8.98-1.62-12.94-3.65
						C25.9,63.6,25.16,63.38,24.56,63.38z"/>
				</g>
				<path class="st12" d="M64.99,72.65c-4.82-1.15-9.78-1.69-14.74-1.5c-5.44,0.21-10.91,1.03-16.13,2.59
					c-1.14,0.34-2.66,0.72-4.2,1.23c1.06,0.53,2.22,0.99,3.51,1.33c6.72,1.79,13.92,1.75,20.8,1.2c3.59-0.29,7.11-1.02,10.56-2.04
					c1.51-0.45,3.01-0.95,4.41-1.64C67.76,73.35,66.33,72.97,64.99,72.65z"/>
				<g>
					<path class="st4" d="M30.98,71.35c1.73-1.25,2.94-3.09,4.04-4.96c-2.39-0.52-4.76-1.2-6.97-2.19
						C27.73,67.61,27.79,73.66,30.98,71.35z"/>
					<path class="st4" d="M38.13,71.77c0.46,2.01,1.85,3.45,3.59,1.73c1.43-1.42,2.73-3.42,3.57-5.47
						c-1.86-0.19-3.72-0.45-5.56-0.75c-0.5-0.08-1-0.17-1.51-0.26C37.98,68.61,37.78,70.24,38.13,71.77z"/>
					<path class="st4" d="M48.07,72.02c0.35,1.43,1.68,3.67,3.19,1.94c1.19-1.37,2.04-3.5,2.39-5.52c-0.9,0-1.81-0.01-2.71-0.03
						c-1.07-0.03-2.14-0.1-3.21-0.18C47.76,69.5,47.77,70.79,48.07,72.02z"/>
					<path class="st4" d="M57.04,71.27c0.85,1.43,2.94,3.43,4.12,1.16c0.72-1.38,1.07-3.07,1.18-4.75c-0.3,0.06-0.6,0.12-0.9,0.17
						c-1.85,0.31-3.72,0.47-5.6,0.54C56.14,69.39,56.51,70.38,57.04,71.27z"/>
					<path class="st4" d="M69.45,70c0.55-1.22,0.95-2.71,1.13-4.21c-2.07,0.37-4.1,0.93-6.14,1.42C65.83,69.71,68.12,72.95,69.45,70
						z"/>
				</g>
			</g>
			<g>
				<path class="st13" d="M31.97,67.22c0.74,0.17,1.49,0.34,2.23,0.51c0.28-0.44,0.55-0.89,0.82-1.33c-2.39-0.52-4.76-1.2-6.97-2.19
					c-0.04,0.45-0.08,0.94-0.1,1.45C29.23,66.27,30.5,66.88,31.97,67.22z"/>
				<path class="st13" d="M44.78,69.14c0.18-0.37,0.36-0.74,0.51-1.12c-1.86-0.19-3.72-0.45-5.56-0.75c-0.5-0.08-1-0.17-1.51-0.26
					c-0.07,0.48-0.14,0.97-0.19,1.45C40.27,68.8,42.52,69.01,44.78,69.14z"/>
				<path class="st13" d="M51.52,69.38c0.64,0.01,1.28,0.02,1.92,0.02c0.08-0.32,0.15-0.64,0.21-0.96c-0.9,0-1.81-0.01-2.71-0.03
					c-1.07-0.03-2.14-0.1-3.21-0.18c0.01,0.35,0.02,0.7,0.03,1.06C49.01,69.33,50.27,69.36,51.52,69.38z"/>
				<path class="st13" d="M62.21,68.94c0.06-0.42,0.1-0.84,0.13-1.26c-0.3,0.06-0.6,0.12-0.9,0.17c-1.85,0.31-3.72,0.47-5.6,0.54
					c0.1,0.33,0.21,0.66,0.33,0.99C58.19,69.32,60.21,69.19,62.21,68.94z"/>
				<path class="st13" d="M70.39,66.96c0.08-0.39,0.14-0.78,0.19-1.17c-2.07,0.37-4.1,0.93-6.14,1.42c0.23,0.4,0.48,0.82,0.74,1.24
					C66.95,68.09,68.69,67.6,70.39,66.96z"/>
			</g>
		</g>
		<path class="st0" d="M45.77,49.1c0,0-24.99-0.95-34.08,27.7C11.69,76.8,19.7,54.8,45.77,49.1z"/>
		<path class="st0" d="M7.24,30.26c0,0-4.58,16.7,2.85,32.18C10.09,62.44,4.59,48.49,7.24,30.26z"/>
		<path class="st0" d="M83.73,34.64c0,0,4.99,13.54-0.31,27.09C83.42,61.73,91.26,50.32,83.73,34.64z"/>
		<g>
			<g>
				<path class="st14" d="M82.43,103.72c-0.33-0.66-1.21-0.84-1.84-0.55c-0.02,0.01-0.04,0.02-0.06,0.03
					c-0.41,0.14-0.73,0.41-0.99,0.75c-0.06,0.07-0.12,0.15-0.16,0.23c-0.01,0.01-0.02,0.02-0.02,0.03
					c-0.29,0.49-0.58,1.11-0.42,1.69c0.18,0.64,1.02,0.64,1.54,0.56C81.72,106.28,83.08,105.05,82.43,103.72z"/>
				<path class="st14" d="M87.7,102.27c-0.21-0.15-0.49-0.05-0.7,0.11c-0.06-0.01-0.14,0.01-0.23,0.07
					c-0.25,0.15-0.44,0.45-0.49,0.73c-0.05,0.3,0.17,0.54,0.47,0.54c0.41,0,0.72-0.25,0.96-0.56
					C87.91,102.91,87.98,102.48,87.7,102.27z"/>
				<path class="st14" d="M89.09,105.61c-0.31-0.23-0.64-0.25-0.96-0.16c-0.14-0.06-0.3-0.08-0.48-0.05
					c-0.74,0.13-1.23,0.86-1.1,1.59c0.08,0.43,0.34,0.79,0.7,1.03c0.42,0.28,0.94,0.01,1.32-0.2
					C89.37,107.36,90.02,106.29,89.09,105.61z"/>
				<path class="st14" d="M91.25,101.77c-0.24-0.13-0.52-0.13-0.8-0.04c-0.27-0.06-0.54,0.08-0.75,0.24
					c-0.53,0.4-0.7,1.22-0.34,1.77c0.49,0.73,1.49,0.46,2-0.06C91.9,103.13,91.98,102.18,91.25,101.77z"/>
			</g>
			<g>
				<path class="st14" d="M19.35,114.35c0.48,0.23,1.29,0.46,1.64-0.1c0.32-0.51,0.23-1.19,0.09-1.74c0-0.01-0.01-0.03-0.01-0.04
					c-0.02-0.09-0.05-0.18-0.09-0.27c-0.15-0.4-0.38-0.75-0.73-1c-0.02-0.02-0.03-0.03-0.05-0.05c-0.52-0.45-1.42-0.54-1.92,0
					C17.25,112.24,18.21,113.81,19.35,114.35z"/>
				<path class="st14" d="M12.53,108.41c0.24-0.09,0.48,0.09,0.64,0.31c0.06,0.01,0.13,0.05,0.2,0.13c0.2,0.22,0.3,0.55,0.26,0.84
					c-0.04,0.3-0.32,0.46-0.6,0.38c-0.39-0.12-0.62-0.45-0.76-0.81C12.15,108.97,12.2,108.54,12.53,108.41z"/>
				<path class="st14" d="M10.1,113.48c0.3,0.31,0.73,0.72,1.21,0.57c0.41-0.13,0.77-0.4,0.97-0.79c0.34-0.66,0.08-1.5-0.6-1.84
					c-0.17-0.08-0.33-0.11-0.47-0.09c-0.27-0.18-0.6-0.25-0.96-0.13C9.16,111.59,9.47,112.81,10.1,113.48z"/>
				<path class="st14" d="M9.27,106.91c0.26-0.06,0.54,0.03,0.78,0.19c0.27,0.02,0.5,0.23,0.65,0.45c0.39,0.54,0.33,1.37-0.19,1.79
					c-0.68,0.56-1.56,0.01-1.9-0.63C8.26,108.03,8.46,107.09,9.27,106.91z"/>
			</g>
			<g>
				<path class="st14" d="M27.52,105.38c-0.47-0.24-1.27-0.5-1.64,0.05c-0.34,0.5-0.26,1.18-0.14,1.74c0,0.01,0.01,0.03,0.01,0.04
					c0.02,0.09,0.05,0.18,0.08,0.27c0.14,0.41,0.36,0.76,0.7,1.02c0.02,0.02,0.03,0.04,0.05,0.05c0.51,0.47,1.4,0.58,1.92,0.05
					C29.55,107.55,28.64,105.96,27.52,105.38z"/>
				<path class="st14" d="M34.17,111.51c-0.25,0.08-0.48-0.11-0.63-0.33c-0.06-0.01-0.12-0.06-0.19-0.13
					c-0.19-0.22-0.28-0.56-0.24-0.85c0.05-0.3,0.34-0.45,0.62-0.36c0.39,0.13,0.6,0.46,0.73,0.83
					C34.56,110.97,34.5,111.4,34.17,111.51z"/>
				<path class="st14" d="M36.74,106.52c-0.29-0.32-0.71-0.74-1.19-0.6c-0.41,0.11-0.78,0.38-0.99,0.76
					c-0.36,0.65-0.12,1.49,0.55,1.85c0.16,0.09,0.32,0.12,0.47,0.1c0.27,0.19,0.59,0.27,0.95,0.15
					C37.63,108.43,37.35,107.21,36.74,106.52z"/>
				<path class="st14" d="M37.38,113.11c-0.26,0.05-0.54-0.04-0.78-0.21c-0.27-0.03-0.49-0.25-0.64-0.46
					c-0.37-0.55-0.29-1.38,0.24-1.79c0.69-0.54,1.56,0.04,1.88,0.68C38.42,112.01,38.2,112.95,37.38,113.11z"/>
			</g>
			<g>
				<path class="st14" d="M65.77,110.6c0.25-0.7-0.24-1.46-0.88-1.71c-0.02-0.01-0.05-0.01-0.07-0.02c-0.39-0.19-0.8-0.24-1.23-0.19
					c-0.1,0.01-0.19,0.02-0.28,0.04c-0.01,0-0.03,0-0.04,0.01c-0.56,0.13-1.2,0.35-1.51,0.88c-0.34,0.57,0.25,1.18,0.67,1.5
					C63.43,111.86,65.27,112,65.77,110.6z"/>
				<path class="st14" d="M75.34,107.95c-0.03-0.26-0.3-0.38-0.56-0.42c-0.04-0.05-0.11-0.09-0.21-0.11
					c-0.29-0.08-0.63-0.01-0.87,0.15c-0.25,0.17-0.26,0.5-0.06,0.71c0.28,0.29,0.68,0.34,1.07,0.3
					C75.02,108.55,75.38,108.3,75.34,107.95z"/>
				<path class="st14" d="M73.9,111.27c-0.05-0.38-0.27-0.63-0.55-0.79c-0.05-0.14-0.15-0.27-0.3-0.38
					c-0.61-0.44-1.47-0.29-1.91,0.31c-0.25,0.36-0.33,0.8-0.26,1.22c0.09,0.49,0.65,0.69,1.06,0.81
					C72.84,112.69,74.06,112.41,73.9,111.27z"/>
				<path class="st14" d="M78.17,110.16c-0.07-0.26-0.27-0.46-0.53-0.61c-0.14-0.24-0.44-0.34-0.69-0.37
					c-0.65-0.1-1.36,0.34-1.51,0.99c-0.19,0.86,0.71,1.39,1.43,1.4C77.63,111.57,78.38,110.97,78.17,110.16z"/>
			</g>
		</g>
		<path class="st4" d="M17.02,1.74c0,0-0.54-0.09-1.49-0.09c-0.47,0-1.05,0.02-1.7,0.11c-0.65,0.1-1.38,0.22-2.15,0.45
			c-0.77,0.21-1.58,0.54-2.4,0.94c-0.8,0.43-1.63,0.93-2.4,1.57c-0.4,0.3-0.77,0.64-1.13,1L5.48,5.98C5.45,6.02,5.37,6.08,5.36,6.1
			L5.23,6.25l-0.52,0.6l-0.26,0.3L4.24,7.48L3.81,8.12c-0.27,0.44-0.5,0.92-0.72,1.39c-0.39,0.97-0.72,1.98-0.83,3.01
			c-0.16,1.02-0.13,2.05-0.05,3.04c0.06,0.49,0.16,0.97,0.24,1.44c0.13,0.46,0.23,0.92,0.37,1.35c0.17,0.42,0.3,0.85,0.48,1.24
			c0.19,0.38,0.36,0.77,0.56,1.12c0.21,0.34,0.41,0.67,0.6,0.98c0.2,0.31,0.42,0.58,0.61,0.85c0.38,0.54,0.8,0.93,1.1,1.3
			c0.69,0.65,1.08,1.03,1.08,1.03s-0.11-0.08-0.31-0.24c-0.2-0.16-0.51-0.37-0.88-0.68c-0.33-0.34-0.8-0.7-1.23-1.22
			c-0.22-0.25-0.46-0.52-0.69-0.81c-0.21-0.31-0.44-0.64-0.67-0.98c-0.22-0.35-0.41-0.74-0.63-1.13c-0.21-0.4-0.37-0.83-0.57-1.27
			c-0.17-0.44-0.3-0.92-0.46-1.4c-0.11-0.49-0.22-0.99-0.3-1.51C1.38,14.6,1.3,13.5,1.47,12.41c0.11-1.1,0.45-2.18,0.87-3.23
			c0.25-0.5,0.5-1.01,0.79-1.49l0.48-0.7l0.24-0.35l0.26-0.3l0.53-0.6l0.13-0.15c0.07-0.08,0.11-0.1,0.16-0.16l0.3-0.27
			C5.63,4.8,6.03,4.45,6.46,4.15c0.82-0.65,1.72-1.13,2.58-1.54c0.87-0.38,1.73-0.68,2.54-0.85c0.8-0.21,1.57-0.27,2.23-0.31
			c0.67-0.03,1.25-0.01,1.73,0.04C16.49,1.58,17.02,1.74,17.02,1.74z"/>
		<path class="st4" d="M83.42,6.93c0,0-0.54-0.09-1.49-0.1c-0.47,0-1.05,0.02-1.7,0.11c-0.65,0.1-1.38,0.22-2.14,0.45
			c-0.77,0.21-1.58,0.53-2.4,0.94c-0.8,0.43-1.63,0.93-2.4,1.57c-0.4,0.3-0.77,0.64-1.13,1l-0.28,0.27
			c-0.04,0.04-0.11,0.1-0.12,0.12l-0.13,0.15l-0.52,0.6l-0.26,0.3l-0.21,0.32l-0.43,0.64c-0.27,0.44-0.5,0.92-0.72,1.39
			c-0.39,0.97-0.72,1.97-0.83,3.01c-0.16,1.02-0.13,2.05-0.05,3.04c0.06,0.49,0.16,0.97,0.24,1.44c0.13,0.46,0.23,0.92,0.37,1.35
			c0.17,0.42,0.3,0.85,0.48,1.24c0.19,0.39,0.36,0.77,0.56,1.12c0.21,0.34,0.41,0.67,0.6,0.98c0.2,0.31,0.42,0.58,0.61,0.85
			c0.38,0.54,0.8,0.93,1.1,1.3c0.69,0.65,1.08,1.03,1.08,1.03s-0.11-0.08-0.31-0.23c-0.2-0.16-0.51-0.37-0.88-0.68
			c-0.33-0.34-0.8-0.7-1.23-1.22c-0.22-0.26-0.46-0.52-0.69-0.81c-0.21-0.31-0.44-0.64-0.67-0.98c-0.22-0.35-0.42-0.74-0.63-1.13
			c-0.21-0.4-0.37-0.83-0.57-1.27c-0.17-0.44-0.3-0.92-0.46-1.39c-0.11-0.49-0.22-0.99-0.3-1.51c-0.11-1.04-0.19-2.13-0.02-3.23
			c0.11-1.1,0.45-2.18,0.87-3.23c0.25-0.5,0.5-1.01,0.79-1.49l0.48-0.7l0.24-0.35l0.27-0.3l0.53-0.6l0.13-0.15
			c0.07-0.08,0.11-0.1,0.16-0.16l0.3-0.27c0.39-0.37,0.79-0.72,1.22-1.02c0.82-0.65,1.72-1.13,2.58-1.54
			c0.87-0.38,1.73-0.68,2.54-0.85c0.8-0.21,1.57-0.27,2.23-0.31c0.67-0.03,1.25-0.01,1.73,0.04C82.9,6.77,83.42,6.93,83.42,6.93z"/>
	</g>
</g>
</svg>
