<?xml version="1.0" encoding="utf-8"?>
<!-- Generator: Adobe Illustrator 24.0.1, SVG Export Plug-In . SVG Version: 6.00 Build 0)  -->
<svg version="1.1" id="Layer_1" xmlns="http://www.w3.org/2000/svg" xmlns:xlink="http://www.w3.org/1999/xlink" x="0px" y="0px"
	 viewBox="0 0 108.48 187.99" style="enable-background:new 0 0 108.48 187.99;" xml:space="preserve">
<style type="text/css">
	.st0{fill:#F0983E;}
	.st1{fill:#EA602E;}
	.st2{fill:#5BC5C5;}
	.st3{fill:#0096A6;}
	.st4{opacity:0.7;fill:#4EC7E7;}
	.st5{fill:#4EC7E7;}
	.st6{fill:#FFFFFF;}
	.st7{fill:#437898;}
	.st8{fill:#5D1C00;}
	.st9{fill:#833723;}
	.st10{fill:#2C0000;}
	.st11{fill:#CBCCCE;}
	.st12{fill:#00BBC4;}
	.st13{fill:#EA622E;}
	.st14{fill:#893611;}
	.st15{fill:#A20E18;}
	.st16{fill:#B8BABC;}
	.st17{fill:#50C7E4;}
	.st18{opacity:0.6;fill:#4EC7E7;}
	.st19{opacity:0.8;fill:#4EC7E7;}
	.st20{opacity:0.8;fill:#EC7A23;}
</style>
<g>
	<g>
		<g>
			<g>
				<g>
					<path class="st0" d="M17.89,76.6c-0.75,0-1.51-0.29-2.07-0.88C7.73,67.32,3.99,55.73,5,42.22c0.75-10.03,3.82-17.56,3.95-17.88
						c0.61-1.47,2.29-2.16,3.75-1.56c1.47,0.61,2.16,2.28,1.56,3.75C14.11,26.9,3.18,54.3,19.96,71.74c1.1,1.14,1.06,2.96-0.08,4.06
						C19.32,76.34,18.6,76.6,17.89,76.6z"/>
					<path class="st1" d="M17.89,77.01c-0.9,0-1.74-0.36-2.36-1C7.36,67.52,3.58,55.82,4.6,42.19c0.76-10.12,3.85-17.68,3.98-18
						c0.51-1.23,1.7-2.03,3.03-2.03c0.43,0,0.85,0.08,1.25,0.25c1.67,0.69,2.47,2.61,1.78,4.28c-0.11,0.27-10.96,27.54,5.61,44.77
						c1.25,1.3,1.21,3.38-0.09,4.64C19.55,76.69,18.74,77.01,17.89,77.01z M11.61,22.98c-1,0-1.9,0.6-2.28,1.52
						c-0.13,0.31-3.18,7.76-3.92,17.75c-1,13.4,2.7,24.87,10.7,33.19c0.91,0.95,2.54,0.98,3.48,0.07c0.98-0.94,1.01-2.5,0.07-3.48
						c-16.93-17.6-5.89-45.36-5.78-45.64c0.52-1.26-0.08-2.7-1.34-3.22C12.25,23.04,11.93,22.98,11.61,22.98z"/>
				</g>
				<g>
					<path class="st2" d="M17.89,76.6c-0.75,0-1.51-0.29-2.07-0.88C7.73,67.32,3.99,55.73,5,42.22c0.75-10.03,3.82-17.56,3.95-17.88
						c0.61-1.47,2.29-2.16,3.75-1.56c1.47,0.61,2.16,2.28,1.56,3.75C14.11,26.9,3.18,54.3,19.96,71.74c1.1,1.14,1.06,2.96-0.08,4.06
						C19.32,76.34,18.6,76.6,17.89,76.6z"/>
					<path class="st3" d="M17.89,77.01c-0.9,0-1.74-0.36-2.36-1C7.36,67.52,3.58,55.82,4.6,42.19c0.76-10.12,3.85-17.68,3.98-18
						c0.51-1.23,1.7-2.03,3.03-2.03c0.43,0,0.85,0.08,1.25,0.25c1.67,0.69,2.47,2.61,1.78,4.28c-0.11,0.27-10.96,27.54,5.61,44.77
						c1.25,1.3,1.21,3.38-0.09,4.64C19.55,76.69,18.74,77.01,17.89,77.01z M11.61,22.98c-1,0-1.9,0.6-2.28,1.52
						c-0.13,0.31-3.18,7.76-3.92,17.75c-1,13.4,2.7,24.87,10.7,33.19c0.91,0.95,2.54,0.98,3.48,0.07c0.98-0.94,1.01-2.5,0.07-3.48
						c-16.93-17.6-5.89-45.36-5.78-45.64c0.52-1.26-0.08-2.7-1.34-3.22C12.25,23.04,11.93,22.98,11.61,22.98z"/>
				</g>
				<path class="st4" d="M17.89,76.6c-0.75,0-1.51-0.29-2.07-0.88C7.73,67.32,3.99,55.73,5,42.22c0.75-10.03,3.82-17.56,3.95-17.88
					c0.61-1.47,2.29-2.16,3.75-1.56c1.47,0.61,2.16,2.28,1.56,3.75C14.11,26.9,3.18,54.3,19.96,71.74c1.1,1.14,1.06,2.96-0.08,4.06
					C19.32,76.34,18.6,76.6,17.89,76.6z"/>
				<path class="st5" d="M11.61,36.22c1.06-5.69,2.6-9.55,2.65-9.68c0.6-1.47-0.09-3.14-1.56-3.75c-1.46-0.6-3.14,0.09-3.75,1.56
					c-0.09,0.22-1.66,4.09-2.84,9.9C7.89,35.25,9.72,35.87,11.61,36.22z"/>
				<g>
					<path class="st2" d="M27.97,17.57c0,7.61-6.17,13.78-13.78,13.78c-7.61,0-13.78-6.17-13.78-13.78
						c0-7.61,6.17-13.78,13.78-13.78C21.8,3.79,27.97,9.96,27.97,17.57z"/>
					<path class="st3" d="M14.19,31.76C6.37,31.76,0,25.39,0,17.57S6.37,3.38,14.19,3.38s14.19,6.37,14.19,14.19
						S22.01,31.76,14.19,31.76z M14.19,4.19c-7.38,0-13.38,6-13.38,13.38s6,13.38,13.38,13.38c7.37,0,13.37-6,13.37-13.38
						S21.56,4.19,14.19,4.19z"/>
				</g>
				<g>
					<path class="st6" d="M25.2,17.66c0,6.08-4.93,11.01-11.01,11.01c-6.08,0-11.01-4.93-11.01-11.01c0-6.08,4.93-11.01,11.01-11.01
						C20.27,6.66,25.2,11.58,25.2,17.66z"/>
					<path class="st7" d="M14.19,29.08c-6.29,0-11.41-5.12-11.41-11.41c0-6.29,5.12-11.41,11.41-11.41
						c6.29,0,11.41,5.12,11.41,11.41C25.6,23.96,20.48,29.08,14.19,29.08z M14.19,7.06c-5.85,0-10.6,4.76-10.6,10.6
						c0,5.84,4.75,10.6,10.6,10.6c5.84,0,10.6-4.75,10.6-10.6C24.79,11.82,20.03,7.06,14.19,7.06z"/>
				</g>
				<g>
					<g>
						<path class="st8" d="M20.54,17.76c0,3.49-2.83,6.32-6.32,6.32c-3.49,0-6.32-2.83-6.32-6.32c0-3.49,2.83-6.32,6.32-6.32
							C17.71,11.44,20.54,14.27,20.54,17.76z"/>
						<path class="st9" d="M19.1,17.57c0,2.7-2.19,4.88-4.88,4.88s-4.88-2.19-4.88-4.88s2.19-4.88,4.88-4.88S19.1,14.87,19.1,17.57z
							"/>
						<path class="st10" d="M17.76,17.57c0,1.95-1.58,3.54-3.54,3.54c-1.96,0-3.54-1.59-3.54-3.54c0-1.96,1.59-3.54,3.54-3.54
							C16.18,14.03,17.76,15.61,17.76,17.57z"/>
					</g>
					<path class="st6" d="M14.57,15.13c0,1.19-0.96,2.15-2.15,2.15c-1.19,0-2.15-0.96-2.15-2.15c0-1.19,0.96-2.15,2.15-2.15
						C13.61,12.97,14.57,13.94,14.57,15.13z"/>
				</g>
				<path class="st11" d="M14.19,6.66c-6.08,0-11.01,4.93-11.01,11.01c0,6.08,4.93,11.01,11.01,11.01c6.08,0,11.01-4.93,11.01-11.01
					C25.2,11.58,20.27,6.66,14.19,6.66z M14.83,22.36c-3.71,0.84-9.68-1.19-9.62-5.84c0.05-3.65,2.63-6.93,6.05-7.83
					c3.81-1.01,9.46,0.14,10.58,4.56C22.94,17.58,18.82,21.45,14.83,22.36z"/>
				<path class="st2" d="M7.24,33.63c0,0-4.58,16.7,2.85,32.18C10.09,65.82,4.59,51.86,7.24,33.63z"/>
				<path class="st2" d="M17.02,5.12c0,0-0.54-0.09-1.49-0.09c-0.47,0-1.05,0.02-1.7,0.11c-0.65,0.1-1.38,0.22-2.15,0.45
					c-0.77,0.21-1.58,0.54-2.4,0.94c-0.8,0.43-1.63,0.93-2.4,1.57c-0.4,0.3-0.77,0.64-1.13,1L5.48,9.36
					C5.45,9.4,5.37,9.46,5.36,9.48L5.23,9.63l-0.52,0.61l-0.26,0.3l-0.21,0.32L3.81,11.5c-0.27,0.44-0.5,0.92-0.72,1.39
					c-0.39,0.97-0.72,1.97-0.83,3.01c-0.16,1.02-0.13,2.05-0.05,3.04c0.06,0.49,0.16,0.97,0.24,1.44c0.13,0.46,0.23,0.92,0.37,1.35
					c0.17,0.42,0.3,0.85,0.48,1.24c0.19,0.38,0.36,0.77,0.56,1.12c0.21,0.34,0.41,0.67,0.6,0.98c0.2,0.31,0.42,0.58,0.61,0.85
					c0.38,0.54,0.8,0.93,1.1,1.3c0.69,0.65,1.08,1.03,1.08,1.03S7.13,28.15,6.93,28c-0.2-0.16-0.51-0.37-0.88-0.68
					c-0.33-0.34-0.8-0.7-1.23-1.22c-0.22-0.26-0.46-0.52-0.69-0.81c-0.21-0.31-0.44-0.64-0.67-0.98c-0.22-0.35-0.42-0.74-0.64-1.13
					c-0.21-0.39-0.37-0.83-0.57-1.27c-0.17-0.44-0.3-0.92-0.46-1.4c-0.11-0.49-0.22-0.99-0.3-1.51c-0.11-1.04-0.19-2.13-0.02-3.23
					c0.11-1.1,0.45-2.18,0.87-3.23c0.25-0.5,0.5-1.01,0.79-1.49l0.48-0.7l0.24-0.35l0.27-0.3l0.53-0.6l0.13-0.15
					c0.07-0.08,0.11-0.1,0.16-0.16l0.3-0.27c0.39-0.37,0.79-0.72,1.22-1.02C7.27,6.87,8.18,6.4,9.04,5.99
					c0.87-0.38,1.73-0.68,2.54-0.85c0.8-0.21,1.57-0.27,2.23-0.31c0.67-0.03,1.25-0.01,1.73,0.04C16.49,4.96,17.02,5.12,17.02,5.12z
					"/>
			</g>
			<g>
				<g>
					<g>
						<path class="st0" d="M82.8,73.23c0.75,0,1.51-0.29,2.07-0.88c8.09-8.4,11.83-19.99,10.82-33.5
							c-0.75-10.03-3.82-17.56-3.95-17.88c-0.61-1.47-2.29-2.16-3.75-1.56c-1.47,0.61-2.16,2.28-1.56,3.75
							c0.15,0.37,11.08,27.77-5.69,45.2c-1.1,1.14-1.06,2.96,0.08,4.06C81.37,72.96,82.09,73.23,82.8,73.23z"/>
						<path class="st1" d="M82.8,73.63c-0.85,0-1.66-0.33-2.27-0.92c-1.3-1.25-1.34-3.33-0.09-4.64
							c16.57-17.22,5.72-44.5,5.61-44.77c-0.69-1.67,0.11-3.59,1.78-4.28c0.4-0.17,0.82-0.25,1.25-0.25c1.33,0,2.52,0.8,3.03,2.03
							c0.13,0.32,3.23,7.89,3.98,18c1.02,13.63-2.76,25.33-10.93,33.82C84.54,73.28,83.7,73.63,82.8,73.63z M89.08,19.6
							c-0.32,0-0.64,0.06-0.94,0.19c-1.26,0.52-1.86,1.96-1.34,3.22c0.11,0.28,11.16,28.04-5.78,45.64
							c-0.94,0.98-0.91,2.54,0.07,3.48c0.95,0.91,2.57,0.88,3.48-0.07c8-8.32,11.7-19.8,10.7-33.19
							c-0.75-9.99-3.79-17.44-3.92-17.75C90.98,20.2,90.08,19.6,89.08,19.6z"/>
					</g>
					<g>
						<path class="st2" d="M82.8,73.23c0.75,0,1.51-0.29,2.07-0.88c8.09-8.4,11.83-19.99,10.82-33.5
							c-0.75-10.03-3.82-17.56-3.95-17.88c-0.61-1.47-2.29-2.16-3.75-1.56c-1.47,0.61-2.16,2.28-1.56,3.75
							c0.15,0.37,11.08,27.77-5.69,45.2c-1.1,1.14-1.06,2.96,0.08,4.06C81.37,72.96,82.09,73.23,82.8,73.23z"/>
						<path class="st3" d="M82.8,73.63c-0.85,0-1.66-0.33-2.27-0.92c-1.3-1.25-1.34-3.33-0.09-4.64
							c16.57-17.22,5.72-44.5,5.61-44.77c-0.69-1.67,0.11-3.59,1.78-4.28c0.4-0.17,0.82-0.25,1.25-0.25c1.33,0,2.52,0.8,3.03,2.03
							c0.13,0.32,3.23,7.89,3.98,18c1.02,13.63-2.76,25.33-10.93,33.82C84.54,73.28,83.7,73.63,82.8,73.63z M89.08,19.6
							c-0.32,0-0.64,0.06-0.94,0.19c-1.26,0.52-1.86,1.96-1.34,3.22c0.11,0.28,11.16,28.04-5.78,45.64
							c-0.94,0.98-0.91,2.54,0.07,3.48c0.95,0.91,2.57,0.88,3.48-0.07c8-8.32,11.7-19.8,10.7-33.19
							c-0.75-9.99-3.79-17.44-3.92-17.75C90.98,20.2,90.08,19.6,89.08,19.6z"/>
					</g>
					<path class="st4" d="M82.8,73.23c0.75,0,1.51-0.29,2.07-0.88c8.09-8.4,11.83-19.99,10.82-33.5
						c-0.75-10.03-3.82-17.56-3.95-17.88c-0.61-1.47-2.29-2.16-3.75-1.56c-1.47,0.61-2.16,2.28-1.56,3.75
						c0.15,0.37,11.08,27.77-5.69,45.2c-1.1,1.14-1.06,2.96,0.08,4.06C81.37,72.96,82.09,73.23,82.8,73.23z"/>
					<path class="st5" d="M89.31,34.14c1.88-0.48,3.73-1.05,5.6-1.49c-1.18-6.79-3.07-11.44-3.17-11.69
						c-0.61-1.47-2.29-2.16-3.75-1.56c-1.47,0.61-2.16,2.28-1.56,3.75C86.49,23.31,88.26,27.75,89.31,34.14z"/>
					<g>
						<path class="st2" d="M72.72,14.19c0,7.61,6.17,13.78,13.78,13.78c7.61,0,13.78-6.17,13.78-13.78
							c0-7.61-6.17-13.78-13.78-13.78C78.89,0.41,72.72,6.58,72.72,14.19z"/>
						<path class="st3" d="M86.5,28.38c-7.82,0-14.19-6.37-14.19-14.19C72.31,6.37,78.68,0,86.5,0s14.19,6.37,14.19,14.19
							C100.69,22.01,94.33,28.38,86.5,28.38z M86.5,0.82c-7.38,0-13.38,6-13.38,13.37c0,7.38,6,13.38,13.38,13.38
							c7.38,0,13.38-6,13.38-13.38C99.88,6.82,93.88,0.82,86.5,0.82z"/>
					</g>
					<g>
						<path class="st6" d="M75.49,14.29c0,6.08,4.93,11.01,11.01,11.01c6.08,0,11.01-4.93,11.01-11.01S92.58,3.28,86.5,3.28
							C80.42,3.28,75.49,8.21,75.49,14.29z"/>
						<path class="st7" d="M86.5,25.7c-6.29,0-11.41-5.12-11.41-11.42c0-6.29,5.12-11.41,11.41-11.41c6.29,0,11.41,5.12,11.41,11.41
							C97.92,20.58,92.79,25.7,86.5,25.7z M86.5,3.69c-5.84,0-10.6,4.75-10.6,10.6c0,5.84,4.75,10.6,10.6,10.6
							c5.84,0,10.6-4.75,10.6-10.6C97.1,8.44,92.35,3.69,86.5,3.69z"/>
					</g>
					<g>
						<g>
							<path class="st8" d="M92.79,14.38c0,3.49-2.83,6.32-6.32,6.32c-3.49,0-6.32-2.83-6.32-6.32c0-3.49,2.83-6.32,6.32-6.32
								C89.96,8.06,92.79,10.89,92.79,14.38z"/>
							<path class="st9" d="M91.35,14.19c0,2.7-2.19,4.88-4.88,4.88c-2.7,0-4.88-2.19-4.88-4.88c0-2.7,2.19-4.88,4.88-4.88
								C89.16,9.31,91.35,11.49,91.35,14.19z"/>
							<path class="st10" d="M90.01,14.19c0,1.96-1.58,3.54-3.54,3.54c-1.96,0-3.54-1.59-3.54-3.54c0-1.95,1.59-3.54,3.54-3.54
								C88.42,10.65,90.01,12.23,90.01,14.19z"/>
						</g>
						<path class="st6" d="M86.82,11.75c0,1.19-0.96,2.15-2.15,2.15c-1.19,0-2.15-0.96-2.15-2.15c0-1.19,0.96-2.15,2.15-2.15
							C85.86,9.6,86.82,10.56,86.82,11.75z"/>
					</g>
					<path class="st11" d="M75.49,14.29c0,6.08,4.93,11.01,11.01,11.01c6.08,0,11.01-4.93,11.01-11.01S92.58,3.28,86.5,3.28
						C80.42,3.28,75.49,8.21,75.49,14.29z M78.85,9.86c1.12-4.42,6.77-5.57,10.58-4.56c3.42,0.91,6,4.18,6.05,7.83
						c0.06,4.65-5.92,6.68-9.62,5.84C81.87,18.08,77.75,14.21,78.85,9.86z"/>
				</g>
				<path class="st2" d="M89.13,1.64c0,0-0.54-0.09-1.49-0.1c-0.47,0-1.05,0.03-1.7,0.11c-0.65,0.1-1.38,0.22-2.14,0.45
					c-0.77,0.21-1.58,0.54-2.4,0.94c-0.8,0.44-1.63,0.93-2.4,1.57c-0.4,0.3-0.77,0.64-1.13,1l-0.28,0.27
					c-0.04,0.04-0.11,0.1-0.12,0.12l-0.13,0.15l-0.52,0.61l-0.26,0.3l-0.21,0.32l-0.43,0.64c-0.27,0.44-0.5,0.92-0.72,1.39
					c-0.39,0.97-0.72,1.98-0.83,3.01c-0.16,1.02-0.13,2.05-0.05,3.04c0.06,0.49,0.16,0.97,0.24,1.44c0.13,0.46,0.23,0.92,0.37,1.35
					c0.17,0.42,0.3,0.85,0.48,1.24c0.19,0.38,0.36,0.77,0.56,1.12c0.21,0.34,0.41,0.67,0.6,0.98c0.2,0.31,0.42,0.58,0.61,0.85
					c0.38,0.54,0.8,0.93,1.1,1.3c0.69,0.65,1.08,1.03,1.08,1.03s-0.11-0.08-0.31-0.24c-0.2-0.16-0.51-0.37-0.88-0.68
					c-0.33-0.34-0.8-0.7-1.23-1.22c-0.22-0.25-0.46-0.52-0.69-0.81c-0.21-0.31-0.44-0.64-0.67-0.98c-0.22-0.35-0.41-0.74-0.63-1.13
					c-0.21-0.39-0.37-0.83-0.57-1.27c-0.18-0.44-0.3-0.92-0.46-1.39c-0.11-0.49-0.22-0.99-0.3-1.51c-0.11-1.04-0.19-2.13-0.02-3.23
					c0.11-1.1,0.46-2.18,0.87-3.23c0.25-0.5,0.5-1.01,0.79-1.49l0.48-0.7l0.24-0.35l0.26-0.3l0.53-0.6l0.13-0.15
					c0.07-0.09,0.11-0.1,0.16-0.16l0.3-0.27c0.39-0.37,0.79-0.72,1.22-1.02c0.82-0.65,1.72-1.13,2.58-1.54
					c0.87-0.38,1.73-0.68,2.54-0.85c0.8-0.21,1.57-0.27,2.23-0.31c0.67-0.03,1.25-0.01,1.73,0.04C88.6,1.48,89.13,1.64,89.13,1.64z"
					/>
				<path class="st2" d="M89.43,29.34c0,0,4.99,13.55-0.31,27.09C89.13,56.43,96.97,45.02,89.43,29.34z"/>
			</g>
			<g>
				<g>
					<g>
						<path class="st0" d="M46,75.56c0.66,0,1.32-0.26,1.81-0.77c7.09-7.37,10.37-17.53,9.48-29.38c-0.66-8.79-3.35-15.4-3.47-15.67
							c-0.53-1.29-2-1.9-3.29-1.36c-1.28,0.53-1.9,2-1.37,3.29c0.13,0.32,9.72,24.35-4.99,39.64c-0.96,1-0.93,2.6,0.07,3.56
							C44.75,75.32,45.37,75.56,46,75.56z"/>
						<path class="st1" d="M46,75.96c-0.76,0-1.48-0.29-2.03-0.82c-1.16-1.12-1.2-2.97-0.08-4.14c14.52-15.09,5.01-38.96,4.91-39.2
							c-0.61-1.49,0.1-3.2,1.59-3.82c0.36-0.15,0.73-0.22,1.11-0.22c1.19,0,2.25,0.71,2.7,1.81c0.12,0.28,2.83,6.93,3.5,15.8
							c0.89,11.97-2.42,22.24-9.6,29.69C47.55,75.65,46.8,75.96,46,75.96z M51.51,28.59c-0.28,0-0.55,0.05-0.8,0.16
							c-1.07,0.44-1.59,1.68-1.15,2.76c0.1,0.25,9.81,24.61-5.07,40.08c-0.81,0.84-0.78,2.18,0.06,2.98
							c0.81,0.78,2.2,0.75,2.98-0.06c7.01-7.28,10.25-17.33,9.37-29.07c-0.65-8.74-3.32-15.27-3.44-15.55
							C53.13,29.1,52.36,28.59,51.51,28.59z"/>
					</g>
					<g>
						<path class="st2" d="M46,75.56c0.66,0,1.32-0.26,1.81-0.77c7.09-7.37,10.37-17.53,9.48-29.38c-0.66-8.79-3.35-15.4-3.47-15.67
							c-0.53-1.29-2-1.9-3.29-1.36c-1.28,0.53-1.9,2-1.37,3.29c0.13,0.32,9.72,24.35-4.99,39.64c-0.96,1-0.93,2.6,0.07,3.56
							C44.75,75.32,45.37,75.56,46,75.56z"/>
						<path class="st3" d="M46,75.96c-0.76,0-1.48-0.29-2.03-0.82c-1.16-1.12-1.2-2.97-0.08-4.14c14.52-15.09,5.01-38.96,4.91-39.2
							c-0.61-1.49,0.1-3.2,1.59-3.82c0.36-0.15,0.73-0.22,1.11-0.22c1.19,0,2.25,0.71,2.7,1.81c0.12,0.28,2.83,6.93,3.5,15.8
							c0.89,11.97-2.42,22.24-9.6,29.69C47.55,75.65,46.8,75.96,46,75.96z M51.51,28.59c-0.28,0-0.55,0.05-0.8,0.16
							c-1.07,0.44-1.59,1.68-1.15,2.76c0.1,0.25,9.81,24.61-5.07,40.08c-0.81,0.84-0.78,2.18,0.06,2.98
							c0.81,0.78,2.2,0.75,2.98-0.06c7.01-7.28,10.25-17.33,9.37-29.07c-0.65-8.74-3.32-15.27-3.44-15.55
							C53.13,29.1,52.36,28.59,51.51,28.59z"/>
					</g>
					<path class="st4" d="M46,75.56c0.66,0,1.32-0.26,1.81-0.77c7.09-7.37,10.37-17.53,9.48-29.38c-0.66-8.79-3.35-15.4-3.47-15.67
						c-0.53-1.29-2-1.9-3.29-1.36c-1.28,0.53-1.9,2-1.37,3.29c0.13,0.32,9.72,24.35-4.99,39.64c-0.96,1-0.93,2.6,0.07,3.56
						C44.75,75.32,45.37,75.56,46,75.56z"/>
					<path class="st5" d="M51.56,40.45c1.6-0.1,3.28-0.55,4.94-1.16c-1.04-5.58-2.58-9.34-2.66-9.55c-0.53-1.29-2-1.9-3.29-1.36
						c-1.28,0.53-1.9,2-1.37,3.29C49.23,31.78,50.63,35.3,51.56,40.45z"/>
					<g>
						
							<ellipse transform="matrix(0.9997 -0.0227 0.0227 0.9997 -0.5276 1.1245)" class="st2" cx="49.24" cy="23.79" rx="12.09" ry="12.08"/>
						<path class="st3" d="M49.24,36.29c-6.89,0-12.49-5.6-12.49-12.49s5.6-12.49,12.49-12.49c6.89,0,12.49,5.6,12.49,12.49
							S56.13,36.29,49.24,36.29z M49.24,12.12c-6.44,0-11.68,5.24-11.68,11.68c0,6.44,5.24,11.68,11.68,11.68
							c6.44,0,11.68-5.24,11.68-11.68C60.92,17.35,55.68,12.12,49.24,12.12z"/>
					</g>
					<g>
						<path class="st6" d="M39.59,23.88c0,5.33,4.32,9.65,9.65,9.65c5.33,0,9.65-4.32,9.65-9.65c0-5.33-4.32-9.65-9.65-9.65
							C43.91,14.22,39.59,18.55,39.59,23.88z"/>
						<path class="st7" d="M49.24,33.94c-5.55,0-10.06-4.51-10.06-10.06c0-5.55,4.51-10.06,10.06-10.06
							c5.55,0,10.06,4.51,10.06,10.06C59.3,29.42,54.79,33.94,49.24,33.94z M49.24,14.63c-5.1,0-9.24,4.15-9.24,9.24
							c0,5.1,4.15,9.24,9.24,9.24c5.1,0,9.24-4.15,9.24-9.24C58.49,18.78,54.34,14.63,49.24,14.63z"/>
					</g>
					<g>
						<g>
							<path class="st8" d="M54.75,23.96c0,3.06-2.48,5.54-5.54,5.54c-3.06,0-5.54-2.48-5.54-5.54c0-3.06,2.48-5.54,5.54-5.54
								C52.27,18.42,54.75,20.9,54.75,23.96z"/>
							<path class="st9" d="M53.5,23.79c0,2.36-1.92,4.28-4.28,4.28c-2.36,0-4.28-1.92-4.28-4.28c0-2.36,1.92-4.28,4.28-4.28
								C51.58,19.51,53.5,21.43,53.5,23.79z"/>
							<path class="st10" d="M52.32,23.79c0,1.72-1.39,3.11-3.1,3.11c-1.71,0-3.11-1.39-3.11-3.11c0-1.71,1.39-3.1,3.11-3.1
								C50.93,20.69,52.32,22.08,52.32,23.79z"/>
						</g>
						<path class="st6" d="M49.52,21.65c0,1.04-0.84,1.89-1.89,1.89c-1.04,0-1.89-0.84-1.89-1.89c0-1.04,0.85-1.89,1.89-1.89
							C48.68,19.76,49.52,20.61,49.52,21.65z"/>
					</g>
					<path class="st11" d="M39.59,23.88c0,5.33,4.32,9.65,9.65,9.65c5.33,0,9.65-4.32,9.65-9.65c0-5.33-4.32-9.65-9.65-9.65
						C43.91,14.22,39.59,18.55,39.59,23.88z M42.54,20c0.98-3.87,5.93-4.89,9.27-4c3,0.8,5.27,3.67,5.31,6.87
						c0.05,4.08-5.19,5.86-8.44,5.12C45.18,27.2,41.57,23.81,42.54,20z"/>
				</g>
				<path class="st2" d="M51.54,12.79c0,0-0.47-0.08-1.3-0.08c-0.41,0-0.92,0.02-1.49,0.09c-0.57,0.08-1.21,0.19-1.88,0.39
					c-0.68,0.19-1.39,0.47-2.1,0.83c-0.7,0.38-1.43,0.82-2.1,1.38c-0.35,0.26-0.67,0.56-0.99,0.88l-0.24,0.23
					c-0.03,0.03-0.1,0.09-0.11,0.11l-0.11,0.13l-0.46,0.53l-0.23,0.27l-0.19,0.28l-0.38,0.56c-0.23,0.39-0.44,0.81-0.64,1.22
					c-0.34,0.85-0.64,1.73-0.73,2.64c-0.14,0.9-0.12,1.8-0.04,2.66c0.05,0.43,0.14,0.85,0.21,1.26c0.11,0.4,0.2,0.81,0.33,1.19
					c0.15,0.37,0.26,0.75,0.42,1.09c0.17,0.34,0.32,0.67,0.49,0.98c0.18,0.3,0.36,0.59,0.53,0.86c0.18,0.27,0.37,0.51,0.53,0.74
					c0.33,0.47,0.7,0.82,0.97,1.14c0.6,0.57,0.95,0.9,0.95,0.9s-0.1-0.07-0.27-0.21c-0.17-0.14-0.45-0.32-0.77-0.59
					c-0.29-0.3-0.7-0.62-1.08-1.07c-0.19-0.22-0.4-0.45-0.61-0.71c-0.19-0.27-0.38-0.56-0.59-0.86c-0.19-0.31-0.36-0.65-0.56-0.99
					c-0.18-0.35-0.32-0.73-0.5-1.11c-0.15-0.39-0.27-0.81-0.41-1.22c-0.1-0.43-0.19-0.87-0.26-1.32c-0.1-0.91-0.17-1.87-0.02-2.83
					c0.09-0.97,0.4-1.91,0.76-2.83c0.22-0.44,0.44-0.88,0.7-1.3l0.42-0.62l0.21-0.3l0.23-0.27l0.46-0.52l0.12-0.13
					c0.06-0.07,0.09-0.09,0.14-0.14l0.26-0.24c0.34-0.32,0.69-0.63,1.07-0.89c0.72-0.57,1.51-0.99,2.26-1.35
					c0.77-0.34,1.52-0.59,2.23-0.75c0.71-0.18,1.37-0.24,1.96-0.27c0.59-0.02,1.1-0.01,1.52,0.03
					C51.08,12.64,51.54,12.79,51.54,12.79z"/>
				<path class="st2" d="M51.81,37.08c0,0,4.38,11.88-0.27,23.75C51.54,60.83,58.42,50.83,51.81,37.08z"/>
			</g>
			<g>
				<path class="st12" d="M99.25,142.73c-2.29-4.09-4.39-8.26-5.55-12.85c-3.09-12.26,0.32-25.78,2.27-37.94
					c1.7-10.62,3.15-24.27-1.63-34.35c-2.36-4.98-7.74-9.29-13.08-10.78c-4.65-1.3-10.38-1.14-15.13-0.45
					c-9.66,1.41-19.32,1.24-29.03,1.7c-7.15,0.34-15.24,1.56-21.29,5.69c-3.47,2.37-6.44,6.25-8.12,10.1
					C3.85,72.66,5.05,82.6,6.99,91.72c2.4,11.3,6.18,22.33,7.64,33.82c0.93,7.32,0.85,14.74-0.99,21.92
					c-2.47,9.65-15.97,28.74-2.36,36.34c7.94,4.43,62.05,5.63,82.19-0.01c5.04-1.42,9.04-4.47,11.89-8.88c2.57-3.98,3.5-11.47,2-16
					C105.45,153.15,102.2,148.01,99.25,142.73z"/>
				<path class="st3" d="M50.81,187.99L50.81,187.99c-19.34,0-35.67-1.58-39.72-3.84c-10.67-5.95-5.29-18.5-0.96-28.58
					c1.31-3.05,2.54-5.93,3.13-8.21c1.68-6.59,2-13.71,0.98-21.76c-0.91-7.17-2.77-14.29-4.56-21.18
					c-1.07-4.12-2.18-8.38-3.08-12.61c-1.87-8.79-3.24-19.01,0.74-28.12c1.81-4.13,4.89-7.97,8.26-10.27
					c5.02-3.42,12.05-5.31,21.5-5.76c2.78-0.13,5.59-0.21,8.32-0.29c6.78-0.2,13.8-0.4,20.67-1.41c2.42-0.35,4.8-0.53,7.09-0.53
					c3.1,0,5.86,0.33,8.21,0.99c5.6,1.57,10.96,5.99,13.34,11C99.48,67.47,98.1,81.18,96.38,92c-0.32,1.99-0.68,4.02-1.04,6.08
					c-1.87,10.59-3.79,21.53-1.23,31.7c1.16,4.63,3.33,8.86,5.51,12.75c0.54,0.96,1.08,1.92,1.63,2.87
					c2.43,4.24,4.93,8.63,6.51,13.37c1.54,4.63,0.58,12.27-2.05,16.34c-2.95,4.58-7.03,7.63-12.12,9.05
					C85.07,186.56,69.08,187.99,50.81,187.99z M73.17,46.24c-2.24,0-4.59,0.18-6.97,0.53c-6.92,1.01-13.96,1.22-20.76,1.42
					c-2.72,0.08-5.53,0.16-8.31,0.29c-9.29,0.45-16.19,2.28-21.07,5.62c-3.25,2.22-6.23,5.93-7.98,9.92
					c-3.89,8.89-2.53,18.95-0.69,27.62c0.89,4.21,2,8.46,3.07,12.57c1.8,6.91,3.66,14.06,4.58,21.28
					c1.04,8.16,0.72,15.38-0.99,22.07c-0.6,2.34-1.85,5.25-3.17,8.33c-4.2,9.78-9.42,21.96,0.61,27.55
					c3.94,2.2,20.11,3.73,39.32,3.73c18.2,0,34.11-1.41,42.56-3.79c4.89-1.37,8.81-4.3,11.65-8.71c2.52-3.9,3.43-11.21,1.96-15.65
					c-1.55-4.66-4.03-9.01-6.44-13.22c-0.55-0.96-1.1-1.92-1.64-2.88c-2.2-3.94-4.4-8.23-5.59-12.95
					c-2.6-10.33-0.66-21.37,1.22-32.04c0.36-2.05,0.72-4.08,1.04-6.07c1.71-10.7,3.07-24.25-1.6-34.11
					c-2.25-4.74-7.52-9.08-12.82-10.57C78.88,46.56,76.19,46.24,73.17,46.24z"/>
			</g>
			<path class="st2" d="M61.22,152.53c-5.19-0.17-10.37-0.8-15.46-1.76c-5.98-1.13-12.24-2.47-17.68-5.62
				c-10.3-5.96-7.92,14.61,8.98,19.68c9.26,2.78,19.21,2.72,28.7,1.87c4.96-0.45,9.8-1.58,14.56-3.18c3.68-1.23,7.32-2.7,10.21-5.67
				c1.47-1.51,3.22-3.57,3.16-5.97c-0.06-2.56-1.94-4-4.1-3.65c-4.7,0.77-9.21,2.55-13.89,3.43
				C70.94,152.56,66.03,152.69,61.22,152.53z"/>
			<g>
				<g>
					<g>
						<path class="st13" d="M60.84,154.58c-4.31-0.12-8.61-0.58-12.85-1.3c-4.97-0.83-10.17-1.81-14.69-4.13
							c-8.56-4.39-6.58,10.75,7.46,14.48c7.7,2.04,15.96,2,23.85,1.37c4.12-0.33,8.15-1.16,12.1-2.34c3.06-0.91,6.09-1.99,8.49-4.17
							c1.22-1.11,2.67-2.63,2.62-4.4c-0.05-1.88-1.61-2.95-3.41-2.68c-3.91,0.56-7.65,1.88-11.54,2.53
							C68.92,154.6,64.84,154.7,60.84,154.58z"/>
						<path class="st14" d="M55.87,165.79c-5.75,0-10.73-0.58-15.21-1.77c-9.09-2.41-13.36-9.51-12.84-13.49
							c0.21-1.62,1.25-2.58,2.78-2.58c0.84,0,1.81,0.28,2.89,0.83c4.42,2.27,9.42,3.23,14.58,4.1c4.4,0.74,8.7,1.17,12.79,1.29
							c0.91,0.03,1.82,0.04,2.73,0.04c3.46,0,6.48-0.22,9.21-0.68c1.81-0.3,3.63-0.76,5.39-1.2c2-0.5,4.07-1.02,6.16-1.33
							c2.15-0.31,3.82,1.05,3.87,3.08c0.05,1.91-1.45,3.52-2.76,4.71c-2.56,2.33-5.8,3.42-8.64,4.26
							c-4.28,1.27-8.27,2.04-12.18,2.35C61.42,165.67,58.54,165.79,55.87,165.79z M30.6,148.76c-1.42,0-1.86,1.02-1.97,1.87
							c-0.42,3.24,3.3,10.23,12.24,12.6c4.41,1.17,9.32,1.74,15,1.74c2.66,0,5.51-0.12,8.71-0.38c3.86-0.31,7.79-1.07,12.02-2.32
							c2.75-0.82,5.9-1.87,8.33-4.08c1.18-1.07,2.53-2.51,2.49-4.08c-0.04-1.54-1.28-2.54-2.94-2.29c-2.05,0.3-4.1,0.81-6.08,1.31
							c-1.77,0.45-3.61,0.91-5.46,1.22c-2.78,0.46-5.84,0.69-9.35,0.69c-0.92,0-1.84-0.02-2.76-0.04c-4.13-0.12-8.47-0.56-12.9-1.3
							c-5.23-0.88-10.29-1.86-14.81-4.17C32.15,149.01,31.31,148.76,30.6,148.76z"/>
					</g>
					<path class="st15" d="M76.94,159.44c-5.52-1.32-11.21-1.93-16.89-1.71c-6.24,0.24-12.5,1.18-18.49,2.96
						c-1.31,0.39-3.05,0.83-4.82,1.41c1.21,0.61,2.55,1.13,4.02,1.52c7.7,2.04,15.96,2,23.85,1.37c4.12-0.33,8.15-1.16,12.1-2.34
						c1.73-0.51,3.45-1.09,5.05-1.88C80.13,160.25,78.49,159.81,76.94,159.44z"/>
					<g>
						<path class="st6" d="M37.96,157.96c1.98-1.43,3.37-3.55,4.63-5.69c-2.75-0.6-5.46-1.38-8-2.51
							C34.24,153.67,34.31,160.6,37.96,157.96z"/>
						<path class="st6" d="M46.16,158.43c0.52,2.31,2.12,3.96,4.12,1.98c1.64-1.62,3.13-3.92,4.1-6.27
							c-2.14-0.22-4.26-0.51-6.37-0.87c-0.57-0.1-1.15-0.19-1.73-0.3C45.99,154.82,45.76,156.68,46.16,158.43z"/>
						<path class="st6" d="M57.56,158.72c0.41,1.64,1.93,4.2,3.65,2.22c1.36-1.57,2.33-4.01,2.74-6.32
							c-1.04,0.01-2.07-0.01-3.1-0.04c-1.23-0.04-2.46-0.11-3.68-0.21C57.2,155.83,57.21,157.31,57.56,158.72z"/>
						<path class="st6" d="M67.83,157.86c0.98,1.64,3.37,3.93,4.72,1.33c0.82-1.59,1.23-3.52,1.35-5.45
							c-0.34,0.07-0.69,0.13-1.03,0.19c-2.12,0.35-4.27,0.54-6.42,0.62C66.8,155.71,67.22,156.84,67.83,157.86z"/>
						<path class="st6" d="M82.05,156.41c0.63-1.4,1.09-3.11,1.29-4.83c-2.37,0.42-4.7,1.07-7.04,1.63
							C77.92,156.07,80.53,159.79,82.05,156.41z"/>
					</g>
				</g>
				<g>
					<path class="st16" d="M39.1,153.21c0.85,0.2,1.7,0.39,2.55,0.58c0.33-0.5,0.64-1.02,0.94-1.53c-2.75-0.6-5.46-1.38-8-2.51
						c-0.05,0.51-0.09,1.07-0.11,1.66C35.96,152.13,37.41,152.83,39.1,153.21z"/>
					<path class="st16" d="M53.78,155.42c0.21-0.42,0.41-0.85,0.59-1.28c-2.14-0.22-4.26-0.51-6.37-0.87
						c-0.57-0.1-1.15-0.19-1.73-0.3c-0.08,0.55-0.16,1.11-0.22,1.66C48.62,155.03,51.2,155.27,53.78,155.42z"/>
					<path class="st16" d="M61.51,155.7c0.73,0.01,1.47,0.02,2.2,0.02c0.09-0.37,0.17-0.74,0.24-1.1c-1.04,0.01-2.07-0.01-3.1-0.04
						c-1.23-0.04-2.46-0.11-3.68-0.21c0.01,0.4,0.02,0.81,0.03,1.21C58.63,155.64,60.07,155.67,61.51,155.7z"/>
					<path class="st16" d="M73.76,155.19c0.07-0.48,0.12-0.96,0.15-1.44c-0.34,0.07-0.69,0.13-1.03,0.19
						c-2.12,0.35-4.27,0.54-6.42,0.62c0.12,0.38,0.25,0.76,0.38,1.13C69.15,155.63,71.47,155.48,73.76,155.19z"/>
					<path class="st16" d="M83.14,152.92c0.09-0.44,0.16-0.89,0.21-1.34c-2.37,0.42-4.7,1.07-7.04,1.63
						c0.26,0.46,0.54,0.95,0.85,1.42C79.19,154.22,81.19,153.66,83.14,152.92z"/>
				</g>
			</g>
		</g>
	</g>
	<path class="st17" d="M30.04,144.72c0,0,25.66,12.63,56.63,2.44C86.67,147.16,60.39,154.08,30.04,144.72z"/>
	<g>
		<path class="st18" d="M107.36,158.9c-1.91-5.75-5.16-10.89-8.11-16.17c-2.29-4.09-4.39-8.26-5.55-12.85
			c-3.09-12.26,0.32-25.78,2.27-37.94c1.7-10.62,3.15-24.27-1.63-34.35c-2.36-4.98-7.74-9.29-13.08-10.78
			c-4.65-1.3-10.38-1.14-15.13-0.45c-9.66,1.41-19.32,1.24-29.03,1.7c-7.15,0.34-15.24,1.56-21.29,5.69
			c-3.47,2.37-6.44,6.25-8.12,10.1C3.85,72.66,5.05,82.6,6.99,91.72c2.4,11.3,6.18,22.33,7.64,33.82
			c0.93,7.32,0.85,14.74-0.99,21.92c-2.47,9.65-15.97,28.74-2.36,36.34c7.94,4.43,62.05,5.63,82.19-0.01
			c5.04-1.42,9.04-4.47,11.89-8.88C107.93,170.91,108.86,163.42,107.36,158.9z M98.59,168.31c-2.46,3.57-5.92,6.03-10.28,7.17
			c-17.41,4.56-64.19,3.59-71.05,0.01c-11.76-6.13-0.09-21.54,2.04-29.32c1.59-5.79,1.66-11.78,0.85-17.69
			c-1.27-9.28-4.53-18.17-6.61-27.29c-1.67-7.36-2.71-15.38,0.62-22.49c1.45-3.1,4.02-6.24,7.02-8.15
			c5.23-3.33,12.22-4.31,18.4-4.59c8.4-0.37,16.75-0.24,25.1-1.38c4.1-0.56,9.05-0.69,13.08,0.36c4.62,1.21,9.26,4.68,11.31,8.7
			c4.13,8.13,2.87,19.15,1.41,27.71c-1.68,9.82-4.63,20.73-1.96,30.62c1,3.7,2.82,7.06,4.8,10.37c2.55,4.26,5.36,8.41,7.01,13.05
			C101.61,159.05,100.81,165.1,98.59,168.31z"/>
		<path class="st19" d="M10.41,105.64c-1.03-4.99-2.08-9.97-2.66-15.05c-0.97-8.51-1.04-17.79,4.08-25.06
			c3.86-5.48,10.55-8.64,16.93-10.06c9.62-2.14,19.84-2.67,29.64-3.54c8.38-0.75,18.54-2.63,26.22,1.99
			c5.53,3.33,9.08,8.95,10.11,15.31c1.64,10.17,0.75,21.14-0.47,31.31c-0.21,1.76-0.43,3.54-0.62,5.32
			c0.72-4.74,1.63-9.42,2.35-13.92c1.7-10.62,3.15-24.27-1.63-34.35c-2.36-4.98-7.74-9.29-13.08-10.78
			c-4.65-1.3-10.38-1.14-15.13-0.45c-9.66,1.41-19.32,1.24-29.03,1.7c-7.15,0.34-15.24,1.56-21.29,5.69
			c-3.47,2.37-6.44,6.25-8.12,10.1C3.85,72.66,5.05,82.6,6.99,91.72C7.98,96.39,9.21,101.01,10.41,105.64z"/>
		<path class="st4" d="M107.36,158.9c-0.76-2.3-1.75-4.51-2.84-6.67c0.65,2.13,1.09,4.33,1.13,6.66c0.1,6.28-1.03,12.66-6.23,16.82
			c-5.56,4.44-12.26,4.83-19.07,5.66c-9.12,1.12-18.31,1.58-27.49,1.79c-8.63,0.19-17.42,0.33-26.03-0.51
			c-5.6-0.54-11.47-1.44-16.18-4.73c-3.58-2.5-4.76-5.77-4.75-9.38c-1.36,6.14-0.71,11.86,5.39,15.26
			c7.94,4.43,62.05,5.63,82.19-0.01c5.04-1.42,9.04-4.47,11.89-8.88C107.93,170.91,108.86,163.42,107.36,158.9z"/>
	</g>
	<path class="st2" d="M34.42,168.14c0,0,18.84,9.77,48.58-1.84C83,166.31,61.4,181.59,34.42,168.14z"/>
	<path class="st17" d="M38.19,168.14c0,0,22.61,7.13,42.77-2.85C80.96,165.29,63.44,172.01,38.19,168.14z"/>
	<g>
		<path class="st20" d="M50.93,142.55c-0.48-0.97-1.77-1.23-2.69-0.81c-0.03,0.01-0.06,0.03-0.09,0.05c-0.59,0.21-1.07,0.6-1.44,1.1
			c-0.09,0.11-0.17,0.22-0.24,0.34c-0.01,0.02-0.02,0.03-0.03,0.05c-0.43,0.72-0.85,1.62-0.61,2.48c0.26,0.93,1.5,0.94,2.26,0.82
			C49.89,146.29,51.89,144.5,50.93,142.55z"/>
		<path class="st20" d="M58.63,140.44c-0.3-0.23-0.71-0.07-1.02,0.16c-0.09-0.01-0.2,0.02-0.33,0.1c-0.37,0.22-0.65,0.65-0.72,1.07
			c-0.07,0.43,0.26,0.78,0.69,0.78c0.59,0,1.05-0.37,1.4-0.82C58.94,141.37,59.04,140.75,58.63,140.44z"/>
		<path class="st20" d="M60.67,145.31c-0.45-0.33-0.94-0.36-1.4-0.23c-0.2-0.09-0.43-0.12-0.7-0.08c-1.09,0.2-1.8,1.25-1.61,2.32
			c0.12,0.63,0.5,1.16,1.02,1.51c0.61,0.4,1.38,0.02,1.93-0.29C61.08,147.88,62.02,146.31,60.67,145.31z"/>
		<path class="st20" d="M69.53,134.27c-0.34-0.19-0.76-0.19-1.18-0.06c-0.39-0.09-0.79,0.12-1.1,0.35
			c-0.77,0.59-1.03,1.78-0.49,2.58c0.71,1.07,2.18,0.66,2.92-0.08C70.47,136.27,70.6,134.87,69.53,134.27z"/>
		<path class="st20" d="M86.65,134.43c0.14-0.46-0.22-0.89-0.64-1.15c-0.03-0.11-0.11-0.23-0.26-0.35c-0.43-0.35-1.06-0.5-1.59-0.39
			c-0.55,0.11-0.83,0.65-0.64,1.17c0.26,0.71,0.9,1.1,1.59,1.32C85.66,135.2,86.46,135.05,86.65,134.43z"/>
		<path class="st20" d="M77.34,145.24c0.2-0.68,0.02-1.28-0.34-1.77c0.02-0.28-0.04-0.57-0.21-0.87c-0.71-1.22-2.29-1.62-3.49-0.91
			c-0.7,0.41-1.18,1.11-1.36,1.88c-0.22,0.91,0.58,1.67,1.2,2.19C74.45,146.86,76.74,147.3,77.34,145.24z"/>
		<path class="st20" d="M89.81,140.34c0.08-0.5-0.11-1-0.44-1.44c-0.06-0.51-0.49-0.9-0.9-1.16c-1.04-0.67-2.58-0.46-3.32,0.54
			c-0.97,1.32,0.15,2.9,1.38,3.47C87.82,142.34,89.55,141.88,89.81,140.34z"/>
		<path class="st20" d="M30.38,134.93c0.5-1.4-0.48-2.92-1.77-3.43c-0.04-0.02-0.09-0.03-0.13-0.05c-0.77-0.39-1.62-0.49-2.47-0.38
			c-0.19,0.01-0.38,0.04-0.56,0.09c-0.03,0.01-0.06,0.01-0.08,0.01c-1.12,0.26-2.41,0.71-3.03,1.76c-0.67,1.14,0.5,2.38,1.34,3.02
			C25.69,137.47,29.37,137.74,30.38,134.93z"/>
		<path class="st20" d="M49.61,129.61c-0.06-0.51-0.61-0.77-1.13-0.85c-0.08-0.1-0.21-0.17-0.41-0.23
			c-0.57-0.16-1.26-0.02-1.74,0.31c-0.5,0.35-0.53,1-0.12,1.43c0.56,0.59,1.36,0.69,2.14,0.61
			C48.97,130.81,49.69,130.31,49.61,129.61z"/>
		<path class="st20" d="M40.2,138.72c-0.1-0.76-0.54-1.27-1.11-1.6c-0.1-0.28-0.29-0.55-0.6-0.77c-1.23-0.89-2.96-0.59-3.83,0.63
			c-0.51,0.71-0.67,1.6-0.52,2.45c0.18,0.99,1.3,1.39,2.13,1.63C38.06,141.58,40.51,141.01,40.2,138.72z"/>
		<path class="st20" d="M55.29,134.05c-0.14-0.52-0.55-0.93-1.06-1.22c-0.28-0.47-0.87-0.67-1.4-0.75c-1.31-0.2-2.74,0.68-3.03,1.98
			c-0.38,1.72,1.42,2.79,2.87,2.81C54.22,136.89,55.72,135.68,55.29,134.05z"/>
		<path class="st20" d="M78.9,68.68c-0.48-0.97-1.77-1.23-2.69-0.81c-0.03,0.01-0.06,0.03-0.09,0.05c-0.59,0.21-1.07,0.6-1.45,1.1
			c-0.09,0.11-0.17,0.22-0.24,0.34c-0.01,0.02-0.02,0.03-0.04,0.05c-0.43,0.72-0.85,1.62-0.61,2.48c0.26,0.93,1.5,0.94,2.25,0.82
			C77.86,72.42,79.86,70.63,78.9,68.68z"/>
		<path class="st20" d="M86.61,66.57c-0.3-0.23-0.71-0.07-1.02,0.16c-0.09-0.01-0.2,0.02-0.33,0.1c-0.37,0.22-0.65,0.65-0.72,1.07
			c-0.07,0.43,0.26,0.78,0.69,0.78c0.59,0,1.05-0.37,1.4-0.82C86.91,67.5,87.02,66.88,86.61,66.57z"/>
		<path class="st20" d="M88.64,71.44c-0.45-0.33-0.94-0.36-1.4-0.23c-0.2-0.09-0.43-0.12-0.7-0.08c-1.09,0.2-1.8,1.25-1.61,2.32
			c0.12,0.63,0.5,1.16,1.02,1.51c0.61,0.4,1.38,0.02,1.93-0.29C89.05,74.01,89.99,72.44,88.64,71.44z"/>
		<path class="st20" d="M91.8,65.83c-0.34-0.19-0.76-0.18-1.18-0.06c-0.39-0.09-0.79,0.12-1.1,0.35c-0.77,0.59-1.03,1.78-0.49,2.58
			c0.71,1.07,2.18,0.66,2.92-0.09C92.74,67.83,92.87,66.43,91.8,65.83z"/>
		<path class="st20" d="M58.97,56.98c0.5-1.4-0.48-2.92-1.77-3.44c-0.04-0.02-0.09-0.03-0.13-0.05c-0.77-0.39-1.62-0.49-2.47-0.38
			c-0.19,0.01-0.38,0.04-0.56,0.09c-0.03,0.01-0.06,0.01-0.08,0.01c-1.12,0.26-2.41,0.71-3.03,1.76c-0.67,1.15,0.5,2.38,1.34,3.02
			C54.27,59.53,57.95,59.79,58.97,56.98z"/>
		<path class="st20" d="M78.19,51.67c-0.06-0.51-0.61-0.77-1.13-0.85c-0.08-0.1-0.21-0.18-0.41-0.23c-0.57-0.16-1.26-0.02-1.74,0.31
			c-0.5,0.35-0.53,1-0.12,1.43c0.56,0.59,1.36,0.69,2.14,0.61C77.56,52.86,78.28,52.37,78.19,51.67z"/>
		<path class="st20" d="M68.79,60.78c-0.1-0.76-0.54-1.27-1.11-1.6c-0.1-0.28-0.29-0.54-0.6-0.77c-1.23-0.89-2.96-0.59-3.83,0.63
			c-0.51,0.71-0.67,1.61-0.52,2.45c0.18,0.99,1.3,1.39,2.13,1.63C66.64,63.63,69.1,63.06,68.79,60.78z"/>
		<path class="st20" d="M83.88,56.1c-0.14-0.52-0.55-0.93-1.06-1.22c-0.28-0.47-0.87-0.67-1.4-0.75c-1.31-0.2-2.74,0.68-3.03,1.98
			c-0.38,1.73,1.42,2.79,2.87,2.81C82.8,58.94,84.3,57.73,83.88,56.1z"/>
		<path class="st20" d="M16.33,174.31c0.5-1.4-0.48-2.92-1.77-3.44c-0.04-0.02-0.09-0.03-0.13-0.05c-0.78-0.39-1.62-0.49-2.47-0.38
			c-0.19,0.01-0.38,0.04-0.56,0.09c-0.03,0.01-0.06,0.01-0.08,0.01c-1.12,0.26-2.41,0.71-3.03,1.76c-0.67,1.15,0.5,2.38,1.34,3.02
			C11.63,176.85,15.31,177.12,16.33,174.31z"/>
		<path class="st20" d="M35.55,168.99c-0.06-0.52-0.61-0.77-1.13-0.85c-0.08-0.1-0.21-0.18-0.41-0.23
			c-0.57-0.16-1.26-0.02-1.74,0.31c-0.5,0.35-0.53,1-0.12,1.43c0.56,0.59,1.36,0.69,2.14,0.61
			C34.92,170.19,35.64,169.69,35.55,168.99z"/>
		<path class="st20" d="M26.15,178.1c-0.1-0.76-0.54-1.27-1.11-1.6c-0.1-0.28-0.29-0.54-0.6-0.77c-1.23-0.89-2.96-0.59-3.83,0.63
			c-0.51,0.71-0.67,1.6-0.52,2.45c0.18,0.99,1.3,1.39,2.13,1.63C24,180.96,26.46,180.39,26.15,178.1z"/>
		<path class="st20" d="M41.24,173.43c-0.14-0.52-0.55-0.93-1.06-1.22c-0.28-0.47-0.87-0.67-1.4-0.75c-1.31-0.2-2.74,0.68-3.03,1.98
			c-0.38,1.72,1.42,2.79,2.87,2.81C40.16,176.27,41.66,175.06,41.24,173.43z"/>
		<path class="st20" d="M98.44,173.27c0.75-0.75,1.74-2.13,0.92-3.17c-0.75-0.95-2.09-1.22-3.24-1.33c-0.03,0-0.05,0-0.08,0
			c-0.19-0.02-0.38-0.02-0.57-0.01c-0.86,0.01-1.68,0.22-2.39,0.71c-0.04,0.02-0.08,0.04-0.13,0.07c-1.21,0.68-1.97,2.33-1.29,3.64
			C93.04,175.82,96.65,175.06,98.44,173.27z"/>
		<path class="st20" d="M71.89,170.51c-0.01-0.52,0.5-0.85,1.01-1c0.06-0.11,0.19-0.2,0.38-0.29c0.55-0.23,1.25-0.19,1.77,0.07
			c0.54,0.28,0.66,0.92,0.31,1.4c-0.48,0.66-1.26,0.87-2.04,0.89C72.68,171.61,71.9,171.22,71.89,170.51z"/>
		<path class="st20" d="M86.64,180.05c0.8-0.35,1.85-0.9,1.89-1.9c0.04-0.86-0.24-1.72-0.84-2.36c-1.03-1.09-2.78-1.15-3.88-0.1
			c-0.27,0.26-0.42,0.55-0.49,0.84c-0.52,0.4-0.88,0.97-0.88,1.73C82.44,180.57,84.95,180.8,86.64,180.05z"/>
		<path class="st20" d="M66.86,175.68c0.06-0.54,0.41-1,0.89-1.35c0.22-0.51,0.77-0.79,1.28-0.93c1.28-0.37,2.81,0.3,3.27,1.55
			c0.61,1.66-1.03,2.96-2.46,3.17C68.31,178.35,66.66,177.35,66.86,175.68z"/>
		<path class="st20" d="M37.63,56.43c0.45-0.95,0.92-2.59-0.2-3.29c-1.03-0.64-2.38-0.45-3.5-0.17c-0.03,0.01-0.05,0.02-0.08,0.03
			c-0.18,0.05-0.36,0.1-0.54,0.18c-0.81,0.3-1.51,0.78-2.02,1.48c-0.03,0.04-0.06,0.07-0.1,0.1c-0.91,1.05-1.08,2.85,0.02,3.86
			C33.4,60.65,36.54,58.71,37.63,56.43z"/>
		<path class="st20" d="M11.7,62.76c-0.18-0.49,0.19-0.96,0.61-1.28c0.02-0.12,0.11-0.26,0.26-0.4c0.44-0.4,1.11-0.6,1.69-0.52
			c0.6,0.08,0.93,0.64,0.76,1.21c-0.23,0.78-0.89,1.24-1.62,1.53C12.81,63.53,11.94,63.42,11.7,62.76z"/>
		<path class="st20" d="M28.8,66.78c0.63-0.6,1.44-1.47,1.14-2.43c-0.25-0.82-0.81-1.54-1.59-1.94c-1.33-0.68-3-0.15-3.69,1.21
			c-0.17,0.34-0.21,0.66-0.17,0.95c-0.36,0.55-0.51,1.21-0.25,1.93C25.02,68.68,27.46,68.06,28.8,66.78z"/>
		<path class="st20" d="M8.69,69.32c-0.12-0.53,0.05-1.08,0.38-1.57c0.03-0.55,0.47-1,0.89-1.31c1.07-0.78,2.75-0.66,3.6,0.36
			c1.13,1.36,0.02,3.13-1.25,3.81C10.96,71.34,9.07,70.96,8.69,69.32z"/>
	</g>
	<path class="st12" d="M29.02,56.52c0,0-17.92,2.44-19.96,22.4c0,0-0.81,6.11,0.61,15.07C9.67,94,5.8,65.68,29.02,56.52z"/>
	<path class="st12" d="M76.84,53.21c0,0,16.97,3.97,17.12,23.3c0,0,0.23,5.94-1.95,14.41C92,90.92,98.28,64.11,76.84,53.21z"/>
</g>
</svg>
