<?xml version="1.0" encoding="utf-8"?>
<!-- Generator: Adobe Illustrator 24.0.1, SVG Export Plug-In . SVG Version: 6.00 Build 0)  -->
<svg version="1.1" id="Layer_1" xmlns="http://www.w3.org/2000/svg" xmlns:xlink="http://www.w3.org/1999/xlink" x="0px" y="0px"
	 viewBox="0 0 130.17 178.56" style="enable-background:new 0 0 130.17 178.56;" xml:space="preserve">
<style type="text/css">
	.st0{fill:#635F8C;}
	.st1{fill:#322E4C;}
	.st2{opacity:0.6;fill:#635F8C;}
	.st3{fill:#EA622E;}
	.st4{fill:#82330D;}
	.st5{fill:#A20E18;}
	.st6{fill:#FFFFFF;}
	.st7{fill:#B8BABC;}
	.st8{fill:#AF91B6;}
	.st9{opacity:0.7;}
	.st10{opacity:0.8;fill:#635F8C;}
	.st11{opacity:0.7;fill:#635F8C;}
	.st12{fill:#5BC5C5;}
	.st13{fill:#0096A6;}
	.st14{fill:#437898;}
	.st15{fill:#5D1C00;}
	.st16{fill:#833723;}
	.st17{fill:#2C0000;}
	.st18{fill:#CBCCCE;}
</style>
<g>
	<g>
		<g>
			<g>
				<g>
					<path class="st0" d="M118.93,122.52c-2.8-5.17-5.38-10.44-6.75-16.21c-3.67-15.43,0.82-32.34,3.46-47.57
						c2.3-13.3,4.34-30.4-1.49-43.12c-2.88-6.29-9.56-11.78-16.23-13.74c-5.82-1.71-13.01-1.6-18.97-0.81
						C66.8,2.68,54.67,2.31,42.48,2.74c-8.98,0.32-19.15,1.71-26.8,6.79C11.3,12.44,7.5,17.27,5.33,22.07
						C0.36,33.06,1.7,45.55,3.98,57.02c2.83,14.22,7.39,28.12,9.05,42.56c1.05,9.21,0.83,18.51-1.59,27.49
						c-3.25,12.06-20.5,35.81-3.55,45.55c9.89,5.69,77.77,8.07,103.12,1.31c6.34-1.69,11.41-5.46,15.06-10.96
						c3.29-4.95,4.58-14.34,2.77-20.04C126.54,135.7,122.54,129.19,118.93,122.52z"/>
					<path class="st1" d="M57.41,178.52C57.41,178.52,57.41,178.52,57.41,178.52c-24.26-0.31-44.73-2.56-49.78-5.46
						c-13.29-7.64-6.34-23.3-0.75-35.88c1.69-3.81,3.29-7.4,4.06-10.25c2.22-8.24,2.73-17.17,1.58-27.3
						c-1.03-9.02-3.24-17.98-5.38-26.65c-1.28-5.18-2.6-10.55-3.66-15.87c-2.2-11.06-3.76-23.9,1.38-35.26
						C7.2,16.7,11.14,11.94,15.4,9.11c6.35-4.22,15.2-6.46,27.07-6.88c3.49-0.12,7.02-0.18,10.44-0.23
						c8.51-0.14,17.32-0.28,25.96-1.43c3.04-0.4,6.04-0.59,8.9-0.55c3.89,0.05,7.35,0.51,10.28,1.38c7,2.06,13.65,7.69,16.56,14.02
						c5.82,12.69,3.87,29.87,1.53,43.42c-0.43,2.5-0.91,5.04-1.4,7.61c-2.51,13.25-5.11,26.96-2.06,39.76
						c1.39,5.82,4.04,11.17,6.7,16.08c0.66,1.21,1.33,2.42,2,3.63c2.98,5.36,6.05,10.91,7.95,16.88c1.86,5.84,0.53,15.41-2.83,20.48
						c-3.78,5.7-8.95,9.46-15.35,11.17C100.42,177.29,80.33,178.82,57.41,178.52z M87.76,1.03C84.94,0.99,81.99,1.17,79,1.57
						c-8.7,1.16-17.53,1.3-26.08,1.44c-3.42,0.06-6.95,0.11-10.43,0.23c-11.67,0.41-20.35,2.6-26.53,6.71
						c-4.11,2.73-7.91,7.34-10.17,12.32c-5.02,11.1-3.48,23.74-1.31,34.64c1.05,5.3,2.37,10.65,3.65,15.83
						c2.15,8.7,4.36,17.7,5.4,26.78c1.17,10.26,0.65,19.31-1.6,27.68c-0.79,2.93-2.4,6.55-4.11,10.4
						C2.4,149.81-4.35,165,8.15,172.18c4.91,2.82,25.17,5.01,49.28,5.32c22.84,0.29,42.82-1.22,53.46-4.06
						c6.16-1.64,11.12-5.26,14.76-10.74c3.22-4.85,4.48-14.01,2.71-19.6c-1.87-5.87-4.92-11.37-7.87-16.69
						c-0.67-1.21-1.35-2.42-2.01-3.64c-2.7-4.97-5.38-10.4-6.8-16.34c-3.1-13.01-0.48-26.82,2.05-40.18c0.49-2.57,0.97-5.11,1.4-7.6
						c2.32-13.4,4.25-30.38-1.45-42.82c-2.74-5.98-9.29-11.52-15.91-13.47C94.92,1.53,91.55,1.08,87.76,1.03z"/>
				</g>
				<path class="st2" d="M71.05,134.21c-6.5-0.29-12.99-1.17-19.37-2.46c-7.49-1.52-15.31-3.29-22.09-7.34
					c-12.82-7.65-10.18,18.21,10.95,24.84c11.58,3.64,24.06,3.72,35.98,2.81c6.23-0.48,12.33-1.83,18.32-3.75
					c4.64-1.49,9.23-3.27,12.9-6.95c1.87-1.87,4.09-4.42,4.06-7.44c-0.03-3.21-2.36-5.06-5.09-4.64c-5.91,0.89-11.6,3.05-17.49,4.08
					C83.24,134.39,77.08,134.48,71.05,134.21z"/>
				<g>
					<g>
						<g>
							<path class="st3" d="M70.55,136.77c-5.4-0.23-10.8-0.88-16.1-1.83c-6.22-1.13-12.73-2.44-18.37-5.43
								c-10.67-5.64-8.43,13.38,9.13,18.29c9.63,2.69,20,2.77,29.9,2.11c5.17-0.34,10.24-1.33,15.22-2.74
								c3.85-1.09,7.67-2.4,10.71-5.1c1.55-1.37,3.4-3.25,3.37-5.47c-0.03-2.36-1.97-3.72-4.23-3.42
								c-4.91,0.65-9.64,2.23-14.53,2.98C80.68,136.92,75.56,136.98,70.55,136.77z"/>
							<path class="st4" d="M64.12,150.76c-7.22-0.09-13.45-0.9-19.05-2.46c-11.36-3.18-16.61-12.15-15.89-17.14
								c0.29-2.02,1.61-3.22,3.52-3.19c1.05,0.01,2.27,0.38,3.62,1.09c5.51,2.91,11.76,4.2,18.22,5.38c5.51,1,10.9,1.61,16.03,1.83
								c1.14,0.05,2.28,0.08,3.43,0.1c4.35,0.06,8.13-0.17,11.57-0.7c2.28-0.35,4.57-0.89,6.79-1.42c2.52-0.6,5.12-1.22,7.75-1.56
								c2.7-0.35,4.78,1.38,4.81,3.93c0.03,2.39-1.87,4.39-3.54,5.86c-3.25,2.88-7.34,4.2-10.91,5.21
								c-5.39,1.53-10.41,2.43-15.32,2.76C71.08,150.69,67.48,150.8,64.12,150.76z M32.69,128.98c-1.79-0.02-2.35,1.24-2.5,2.32
								c-0.58,4.06,3.98,12.89,15.15,16.01c5.52,1.54,11.66,2.33,18.79,2.43c3.33,0.04,6.91-0.06,10.94-0.33
								c4.85-0.32,9.79-1.21,15.11-2.72c3.47-0.98,7.43-2.25,10.52-4.99c1.5-1.33,3.22-3.1,3.19-5.08
								c-0.02-1.94-1.57-3.21-3.66-2.92c-2.57,0.34-5.15,0.95-7.65,1.54c-2.23,0.53-4.54,1.08-6.87,1.44
								c-3.5,0.54-7.34,0.77-11.74,0.71c-1.16-0.01-2.31-0.05-3.46-0.1c-5.17-0.22-10.61-0.84-16.17-1.84
								c-6.54-1.19-12.88-2.5-18.52-5.48C34.64,129.32,33.58,128.99,32.69,128.98z"/>
						</g>
						<path class="st5" d="M90.67,143.13c-6.91-1.75-14.04-2.6-21.17-2.42c-7.83,0.2-15.71,1.28-23.25,3.42
							c-1.65,0.46-3.84,0.99-6.06,1.69c1.51,0.78,3.18,1.46,5.02,1.98c9.63,2.69,20,2.77,29.9,2.11c5.17-0.34,10.24-1.33,15.22-2.74
							c2.18-0.62,4.34-1.31,6.37-2.28C94.65,144.19,92.6,143.62,90.67,143.13z"/>
						<g>
							<path class="st6" d="M41.78,140.64c2.5-1.77,4.28-4.4,5.9-7.06c-3.43-0.8-6.82-1.82-9.99-3.29
								C37.17,135.19,37.15,143.9,41.78,140.64z"/>
							<path class="st6" d="M52.05,141.37c0.62,2.9,2.59,5,5.13,2.55c2.08-2.01,3.98-4.87,5.24-7.8c-2.68-0.31-5.34-0.71-7.98-1.19
								c-0.72-0.13-1.44-0.27-2.16-0.4C51.91,136.83,51.58,139.17,52.05,141.37z"/>
							<path class="st6" d="M66.35,141.92c0.48,2.07,2.35,5.3,4.55,2.84c1.73-1.94,2.99-5,3.54-7.89c-1.3-0.01-2.6-0.05-3.89-0.1
								c-1.54-0.07-3.08-0.18-4.62-0.32C65.95,138.28,65.94,140.14,66.35,141.92z"/>
							<path class="st6" d="M79.26,141c1.2,2.07,4.17,4.99,5.9,1.75c1.06-1.98,1.6-4.4,1.78-6.82c-0.43,0.08-0.86,0.16-1.3,0.23
								c-2.66,0.41-5.36,0.61-8.07,0.68C78,138.29,78.51,139.71,79.26,141z"/>
							<path class="st6" d="M97.13,139.41c0.82-1.74,1.42-3.88,1.7-6.03c-2.98,0.49-5.91,1.27-8.86,1.93
								C91.94,138.92,95.17,143.62,97.13,139.41z"/>
						</g>
					</g>
					<g>
						<path class="st7" d="M43.29,134.71c1.07,0.26,2.13,0.52,3.2,0.77c0.42-0.63,0.82-1.26,1.2-1.9c-3.43-0.8-6.82-1.82-9.99-3.29
							c-0.07,0.64-0.13,1.35-0.17,2.08C39.36,133.29,41.17,134.19,43.29,134.71z"/>
						<path class="st7" d="M61.67,137.72c0.27-0.53,0.53-1.06,0.76-1.59c-2.68-0.31-5.34-0.71-7.98-1.19
							c-0.72-0.13-1.44-0.27-2.16-0.4c-0.12,0.69-0.22,1.39-0.31,2.08C55.19,137.14,58.43,137.48,61.67,137.72z"/>
						<path class="st7" d="M71.36,138.18c0.92,0.03,1.84,0.05,2.76,0.06c0.12-0.46,0.23-0.92,0.31-1.38c-1.3-0.01-2.6-0.05-3.89-0.1
							c-1.54-0.07-3.08-0.18-4.62-0.32c0.01,0.51,0.01,1.01,0.02,1.52C67.75,138.06,69.56,138.13,71.36,138.18z"/>
						<path class="st7" d="M86.74,137.74c0.09-0.6,0.16-1.2,0.21-1.81c-0.43,0.08-0.86,0.16-1.3,0.23
							c-2.66,0.41-5.36,0.61-8.07,0.68c0.14,0.48,0.3,0.95,0.46,1.42C80.95,138.22,83.86,138.07,86.74,137.74z"/>
						<path class="st7" d="M98.54,135.05c0.12-0.55,0.21-1.11,0.29-1.67c-2.98,0.49-5.91,1.27-8.86,1.93
							c0.32,0.58,0.67,1.19,1.04,1.79C93.57,136.62,96.09,135.94,98.54,135.05z"/>
					</g>
				</g>
			</g>
		</g>
		<path class="st8" d="M58.3,121.51c-0.59-1.22-2.2-1.57-3.36-1.06c-0.04,0.02-0.08,0.04-0.12,0.06c-0.75,0.26-1.35,0.74-1.83,1.36
			c-0.11,0.13-0.22,0.27-0.3,0.42c-0.01,0.02-0.03,0.04-0.05,0.06c-0.55,0.9-1.09,2.02-0.8,3.1c0.31,1.17,1.86,1.2,2.82,1.07
			C56.94,126.19,59.47,123.98,58.3,121.51z"/>
		<path class="st8" d="M68,118.99c-0.38-0.29-0.89-0.1-1.28,0.19c-0.11-0.02-0.25,0.02-0.41,0.12c-0.47,0.27-0.82,0.81-0.91,1.33
			c-0.1,0.54,0.31,0.99,0.85,0.99c0.75,0.01,1.32-0.44,1.77-1C68.37,120.17,68.51,119.38,68,118.99z"/>
		<path class="st8" d="M70.47,125.14c-0.56-0.42-1.17-0.47-1.75-0.3c-0.25-0.11-0.54-0.16-0.88-0.11c-1.37,0.23-2.28,1.54-2.05,2.89
			c0.14,0.79,0.61,1.46,1.26,1.91c0.75,0.52,1.73,0.05,2.42-0.34C70.95,128.36,72.16,126.41,70.47,125.14z"/>
		<path class="st8" d="M81.77,111.42c-0.43-0.25-0.96-0.24-1.47-0.09c-0.49-0.12-1,0.14-1.38,0.42c-0.97,0.73-1.32,2.21-0.66,3.24
			c0.88,1.35,2.72,0.87,3.67-0.06C82.92,113.95,83.1,112.19,81.77,111.42z"/>
		<path class="st8" d="M103.25,111.9c0.18-0.58-0.27-1.12-0.79-1.45c-0.03-0.14-0.14-0.29-0.32-0.44c-0.53-0.44-1.33-0.64-2-0.52
			c-0.69,0.12-1.05,0.8-0.82,1.45c0.31,0.9,1.11,1.4,1.97,1.69C102,112.86,103,112.68,103.25,111.9z"/>
		<path class="st8" d="M91.4,125.32c0.26-0.85,0.05-1.61-0.4-2.23c0.03-0.35-0.04-0.72-0.26-1.1c-0.87-1.54-2.85-2.07-4.36-1.2
			c-0.89,0.51-1.49,1.37-1.74,2.34c-0.29,1.13,0.7,2.1,1.46,2.76C87.74,127.3,90.61,127.89,91.4,125.32z"/>
		<path class="st8" d="M107.11,119.37c0.11-0.62-0.12-1.25-0.53-1.81c-0.07-0.64-0.6-1.13-1.11-1.47c-1.29-0.85-3.23-0.62-4.17,0.62
			c-1.24,1.64,0.15,3.64,1.67,4.37C104.59,121.85,106.77,121.3,107.11,119.37z"/>
		<path class="st8" d="M32.64,111.62c0.65-1.75-0.55-3.68-2.16-4.34c-0.05-0.02-0.12-0.04-0.17-0.06c-0.97-0.5-2.02-0.64-3.09-0.52
			c-0.24,0.01-0.48,0.05-0.71,0.1c-0.03,0.01-0.07,0.01-0.1,0.02c-1.41,0.31-3.04,0.85-3.83,2.16c-0.86,1.43,0.59,2.99,1.63,3.81
			C26.71,114.73,31.32,115.13,32.64,111.62z"/>
		<path class="st8" d="M56.85,105.26c-0.07-0.65-0.75-0.98-1.41-1.08c-0.09-0.13-0.27-0.23-0.51-0.3c-0.72-0.21-1.58-0.05-2.19,0.36
			c-0.63,0.43-0.68,1.25-0.17,1.79c0.7,0.75,1.7,0.89,2.68,0.79C56.03,106.75,56.95,106.14,56.85,105.26z"/>
		<path class="st8" d="M44.9,116.54c-0.12-0.96-0.65-1.61-1.37-2.02c-0.12-0.35-0.36-0.69-0.73-0.97c-1.53-1.14-3.71-0.79-4.82,0.72
			c-0.65,0.89-0.87,2-0.69,3.07c0.21,1.24,1.6,1.76,2.65,2.08C42.17,120.09,45.26,119.41,44.9,116.54z"/>
		<path class="st8" d="M63.91,110.92c-0.16-0.66-0.67-1.18-1.31-1.55c-0.35-0.6-1.09-0.86-1.74-0.96c-1.64-0.27-3.45,0.81-3.83,2.44
			c-0.51,2.16,1.74,3.52,3.56,3.57C62.52,114.47,64.42,112.97,63.91,110.92z"/>
		<path class="st8" d="M94.59,29.28c-0.58-1.22-2.2-1.57-3.36-1.06c-0.04,0.01-0.08,0.04-0.12,0.06c-0.75,0.25-1.35,0.74-1.83,1.36
			c-0.11,0.13-0.22,0.27-0.3,0.42c-0.01,0.02-0.03,0.04-0.05,0.06c-0.55,0.89-1.09,2.02-0.81,3.1c0.31,1.17,1.86,1.2,2.82,1.07
			C93.23,33.95,95.76,31.74,94.59,29.28z"/>
		<path class="st8" d="M104.29,26.75c-0.38-0.29-0.89-0.1-1.28,0.19c-0.11-0.02-0.25,0.02-0.41,0.12c-0.47,0.27-0.82,0.8-0.92,1.33
			c-0.1,0.54,0.31,0.99,0.85,1c0.75,0.01,1.33-0.44,1.77-1C104.66,27.93,104.8,27.15,104.29,26.75z"/>
		<path class="st8" d="M106.76,32.9c-0.56-0.42-1.17-0.47-1.75-0.31c-0.25-0.11-0.54-0.16-0.88-0.1c-1.37,0.23-2.29,1.54-2.05,2.89
			c0.14,0.79,0.61,1.47,1.26,1.91c0.76,0.52,1.73,0.05,2.43-0.34C107.24,36.13,108.45,34.17,106.76,32.9z"/>
		<path class="st8" d="M110.82,25.91c-0.43-0.25-0.95-0.24-1.48-0.09c-0.49-0.12-0.99,0.14-1.38,0.42
			c-0.97,0.73-1.32,2.21-0.66,3.24c0.88,1.36,2.72,0.87,3.67-0.06C111.97,28.43,112.15,26.68,110.82,25.91z"/>
		<path class="st8" d="M69.77,14.28c0.65-1.75-0.55-3.68-2.16-4.34c-0.05-0.02-0.12-0.04-0.17-0.06c-0.97-0.5-2.02-0.64-3.09-0.52
			c-0.24,0.01-0.48,0.05-0.71,0.1c-0.03,0.01-0.07,0.01-0.1,0.01c-1.41,0.31-3.04,0.85-3.83,2.16c-0.86,1.43,0.59,2.99,1.63,3.81
			C63.84,17.39,68.45,17.79,69.77,14.28z"/>
		<path class="st8" d="M93.97,7.92c-0.07-0.65-0.75-0.98-1.41-1.08c-0.09-0.13-0.27-0.22-0.51-0.3c-0.72-0.21-1.58-0.05-2.19,0.36
			c-0.63,0.43-0.68,1.25-0.17,1.79c0.7,0.75,1.7,0.89,2.68,0.79C93.16,9.41,94.07,8.8,93.97,7.92z"/>
		<path class="st8" d="M82.02,19.2c-0.12-0.95-0.65-1.61-1.36-2.02c-0.12-0.36-0.36-0.69-0.74-0.97c-1.53-1.14-3.7-0.79-4.81,0.72
			c-0.65,0.89-0.87,2-0.69,3.07c0.21,1.24,1.6,1.76,2.65,2.08C79.29,22.75,82.38,22.07,82.02,19.2z"/>
		<path class="st8" d="M101.04,13.58c-0.16-0.66-0.67-1.18-1.31-1.55c-0.35-0.6-1.09-0.86-1.74-0.96c-1.64-0.27-3.45,0.81-3.83,2.44
			c-0.51,2.16,1.74,3.52,3.56,3.57C99.64,17.13,101.54,15.63,101.04,13.58z"/>
		<path class="st8" d="M14.37,160.81c0.65-1.75-0.55-3.68-2.16-4.34c-0.05-0.02-0.12-0.04-0.17-0.06c-0.97-0.5-2.02-0.64-3.09-0.52
			c-0.24,0.01-0.48,0.05-0.71,0.1C8.21,156,8.17,156,8.14,156c-1.41,0.31-3.04,0.85-3.83,2.16c-0.87,1.43,0.59,2.99,1.63,3.81
			C8.44,163.92,13.05,164.32,14.37,160.81z"/>
		<path class="st8" d="M38.58,154.44c-0.07-0.65-0.75-0.98-1.41-1.08c-0.09-0.13-0.27-0.22-0.51-0.3c-0.72-0.21-1.58-0.05-2.19,0.36
			c-0.63,0.43-0.68,1.25-0.17,1.79c0.7,0.75,1.7,0.89,2.68,0.79C37.76,155.94,38.67,155.32,38.58,154.44z"/>
		<path class="st8" d="M26.63,165.72c-0.12-0.95-0.65-1.61-1.37-2.02c-0.12-0.35-0.36-0.69-0.73-0.97
			c-1.53-1.14-3.71-0.79-4.82,0.72c-0.65,0.89-0.87,2-0.69,3.07c0.21,1.24,1.6,1.76,2.65,2.08
			C23.89,169.27,26.98,168.6,26.63,165.72z"/>
		<path class="st8" d="M45.64,160.1c-0.16-0.66-0.67-1.18-1.31-1.55c-0.35-0.6-1.09-0.86-1.74-0.96c-1.64-0.27-3.45,0.81-3.83,2.44
			c-0.5,2.16,1.74,3.52,3.56,3.57C44.24,163.65,46.15,162.15,45.64,160.1z"/>
		<path class="st8" d="M117.42,160.82c0.95-0.92,2.22-2.64,1.2-3.96c-0.93-1.21-2.61-1.57-4.05-1.72c-0.03,0-0.07,0-0.1,0
			c-0.23-0.03-0.47-0.04-0.72-0.02c-1.08,0-2.11,0.25-3.02,0.85c-0.05,0.03-0.11,0.05-0.16,0.08c-1.53,0.84-2.51,2.89-1.67,4.55
			C110.61,163.94,115.15,163.04,117.42,160.82z"/>
		<path class="st8" d="M84.15,156.94c0-0.65,0.64-1.06,1.28-1.23c0.08-0.14,0.24-0.25,0.48-0.35c0.69-0.28,1.57-0.22,2.21,0.12
			c0.67,0.35,0.82,1.16,0.37,1.76c-0.61,0.82-1.59,1.07-2.57,1.09C85.12,158.33,84.15,157.82,84.15,156.94z"/>
		<path class="st8" d="M102.51,169.15c1-0.43,2.33-1.1,2.41-2.36c0.06-1.08-0.28-2.16-1.02-2.97c-1.27-1.38-3.47-1.49-4.87-0.19
			c-0.34,0.32-0.54,0.68-0.62,1.04c-0.66,0.49-1.12,1.2-1.13,2.16C97.23,169.73,100.37,170.06,102.51,169.15z"/>
		<path class="st8" d="M77.75,163.34c0.09-0.67,0.54-1.25,1.14-1.68c0.28-0.63,0.98-0.98,1.62-1.15c1.61-0.45,3.52,0.42,4.08,2
			c0.74,2.09-1.34,3.69-3.14,3.94C79.53,166.71,77.47,165.43,77.75,163.34z"/>
		<path class="st8" d="M43,13.24c0.58-1.19,1.2-3.23-0.2-4.14c-1.28-0.83-2.98-0.6-4.39-0.26c-0.04,0.01-0.06,0.03-0.1,0.03
			c-0.23,0.05-0.46,0.12-0.68,0.22c-1.02,0.36-1.9,0.95-2.55,1.82c-0.04,0.04-0.08,0.08-0.12,0.13c-1.16,1.3-1.4,3.56-0.04,4.85
			C37.63,18.46,41.6,16.09,43,13.24z"/>
		<path class="st8" d="M10.36,20.76c-0.22-0.61,0.25-1.21,0.79-1.59c0.03-0.15,0.14-0.32,0.33-0.49c0.55-0.5,1.4-0.74,2.13-0.63
			c0.75,0.11,1.16,0.82,0.94,1.54c-0.3,0.98-1.14,1.54-2.06,1.89C11.74,21.74,10.66,21.6,10.36,20.76z"/>
		<path class="st8" d="M31.75,26.09c0.8-0.74,1.83-1.82,1.47-3.03c-0.3-1.03-0.99-1.94-1.96-2.46c-1.66-0.87-3.77-0.24-4.65,1.46
			c-0.21,0.42-0.28,0.82-0.24,1.19c-0.46,0.69-0.65,1.51-0.34,2.42C26.98,28.41,30.05,27.66,31.75,26.09z"/>
		<path class="st8" d="M6.48,28.94c-0.14-0.67,0.09-1.35,0.5-1.97c0.05-0.69,0.6-1.25,1.14-1.63c1.36-0.96,3.46-0.79,4.51,0.51
			c1.4,1.72-0.02,3.93-1.64,4.77C9.29,31.52,6.93,31.01,6.48,28.94z"/>
		<path class="st0" d="M32.05,123.9c0,0,32,16.26,71.01,3.98C103.06,127.88,69.98,136.14,32.05,123.9z"/>
		<g class="st9">
			<path class="st2" d="M128.84,142.94c-2.3-7.24-6.3-13.75-9.91-20.42c-2.8-5.17-5.38-10.44-6.75-16.21
				c-3.67-15.43,0.82-32.34,3.46-47.57c2.3-13.3,4.34-30.4-1.49-43.12c-2.88-6.29-9.56-11.78-16.23-13.74
				c-5.82-1.71-13.01-1.6-18.97-0.81C66.8,2.68,54.67,2.31,42.48,2.74c-8.98,0.32-19.15,1.71-26.8,6.79
				C11.3,12.44,7.5,17.27,5.33,22.07C0.36,33.06,1.7,45.55,3.98,57.02c2.83,14.22,7.39,28.12,9.05,42.56
				c1.05,9.21,0.83,18.51-1.59,27.49c-3.25,12.06-20.5,35.81-3.55,45.55c9.89,5.69,77.77,8.07,103.12,1.31
				c6.34-1.69,11.41-5.46,15.06-10.96C129.36,158.03,130.65,148.64,128.84,142.94z M117.68,154.61c-3.15,4.44-7.53,7.47-13.01,8.83
				c-21.91,5.44-80.6,3.46-89.15-1.13c-14.66-7.88,0.23-27.03,3.03-36.76c2.08-7.25,2.27-14.75,1.35-22.18
				c-1.44-11.66-5.39-22.88-7.85-34.35c-1.98-9.26-3.15-19.34,1.14-28.21c1.87-3.86,5.15-7.76,8.94-10.11
				c6.61-4.1,15.4-5.22,23.16-5.46c10.54-0.33,21.02-0.03,31.51-1.32c5.16-0.64,11.37-0.72,16.41,0.66
				c5.77,1.59,11.55,6.03,14.05,11.1c5.05,10.27,3.3,24.07,1.32,34.8c-2.27,12.29-6.14,25.93-2.96,38.39
				c1.2,4.66,3.42,8.91,5.85,13.09c3.13,5.38,6.59,10.64,8.58,16.48C121.63,143.04,120.52,150.62,117.68,154.61z"/>
			<path class="st10" d="M8.05,74.55C6.84,68.27,5.6,62,4.95,55.63c-1.08-10.69-1.02-22.34,5.52-31.38
				c4.93-6.81,13.38-10.68,21.4-12.35c12.1-2.53,24.94-3.03,37.25-3.97c10.53-0.8,23.31-3,32.86,2.92
				c6.88,4.26,11.25,11.38,12.43,19.37c1.89,12.79,0.6,26.54-1.1,39.28c-0.3,2.21-0.6,4.44-0.86,6.66
				c0.98-5.93,2.2-11.79,3.18-17.43c2.3-13.3,4.34-30.4-1.49-43.12c-2.88-6.29-9.56-11.78-16.23-13.74
				c-5.82-1.71-13.01-1.6-18.97-0.81C66.8,2.68,54.67,2.31,42.48,2.74c-8.98,0.32-19.15,1.71-26.8,6.79
				C11.3,12.44,7.5,17.27,5.33,22.07C0.36,33.06,1.7,45.55,3.98,57.02C5.15,62.9,6.62,68.72,8.05,74.55z"/>
			<path class="st11" d="M128.84,142.94c-0.92-2.9-2.12-5.69-3.46-8.41c0.78,2.68,1.3,5.44,1.31,8.37c0.02,7.88-1.5,15.87-8.09,21
				c-7.05,5.49-15.46,5.86-24.01,6.79c-11.46,1.25-23.01,1.69-34.53,1.8c-10.84,0.1-21.86,0.13-32.65-1.05
				c-7.02-0.77-14.37-2-20.22-6.2c-4.45-3.19-5.88-7.32-5.81-11.84c-1.8,7.68-1.09,14.87,6.51,19.24
				c9.89,5.69,77.77,8.07,103.12,1.31c6.34-1.69,11.41-5.46,15.06-10.96C129.36,158.03,130.65,148.64,128.84,142.94z"/>
		</g>
		<path class="st0" d="M32.2,13.21c0,0-22.53,2.78-25.41,27.79c0,0-1.12,7.65,0.52,18.92C7.31,59.93,2.92,24.34,32.2,13.21z"/>
		<path class="st0" d="M92.25,9.83c0,0,21.23,5.26,21.1,29.52c0,0,0.19,7.45-2.69,18.04C110.66,57.39,118.98,23.85,92.25,9.83z"/>
		<path class="st2" d="M37.17,153.36c0,0,23.49,12.57,60.99-1.52C98.15,151.84,70.81,170.67,37.17,153.36z"/>
		<path class="st0" d="M41.9,153.42c0,0,28.25,9.31,53.72-2.89C95.62,150.53,73.53,158.68,41.9,153.42z"/>
	</g>
	<g>
		<path class="st2" d="M40.87,70.97c-0.12,9.25-7.71,16.65-16.96,16.53c-9.25-0.12-16.65-7.71-16.53-16.96
			c0.12-9.25,7.71-16.64,16.96-16.53C33.59,54.13,40.99,61.72,40.87,70.97z"/>
		<path class="st2" d="M78.51,82.15c-0.09,7.34-6.12,13.21-13.46,13.12c-7.34-0.09-13.21-6.12-13.12-13.46
			c0.09-7.34,6.12-13.21,13.46-13.12C72.74,68.78,78.61,74.81,78.51,82.15z"/>
		<path class="st2" d="M113.62,69.22c-0.11,8.33-6.94,14.99-15.27,14.88C90.02,84,83.35,77.16,83.46,68.83
			c0.11-8.33,6.94-14.99,15.27-14.88C107.06,54.05,113.72,60.89,113.62,69.22z"/>
		<path class="st2" d="M93.88,39.99c-0.11,8.33-6.95,14.99-15.27,14.89c-8.33-0.11-14.99-6.94-14.88-15.27
			c0.11-8.33,6.94-14.99,15.27-14.88C87.33,24.83,93.99,31.67,93.88,39.99z"/>
		<path class="st2" d="M58.26,50.32c-0.07,5.48-4.57,9.87-10.05,9.8c-5.48-0.07-9.87-4.57-9.8-10.05c0.07-5.49,4.57-9.87,10.05-9.8
			C53.95,40.33,58.33,44.83,58.26,50.32z"/>
		<g>
			<g>
				<g>
					<path class="st12" d="M37.74,70.35c-0.1,7.91-6.59,14.23-14.5,14.13C15.33,84.38,9,77.89,9.1,69.98
						c0.1-7.91,6.59-14.23,14.5-14.13C31.51,55.96,37.84,62.45,37.74,70.35z"/>
					<path class="st13" d="M23.23,84.91c-8.13-0.1-14.66-6.8-14.55-14.93c0.11-8.13,6.8-14.65,14.93-14.55
						c8.13,0.1,14.65,6.8,14.55,14.93C38.06,78.49,31.36,85.01,23.23,84.91z M23.6,56.28c-7.66-0.1-13.97,6.05-14.07,13.71
						c-0.1,7.66,6.05,13.97,13.71,14.07c7.66,0.1,13.97-6.05,14.07-13.71C37.41,62.69,31.26,56.37,23.6,56.28z"/>
				</g>
				<g>
					<path class="st6" d="M34.85,70.42c-0.08,6.31-5.27,11.37-11.58,11.29c-6.32-0.08-11.37-5.27-11.29-11.58
						c0.08-6.31,5.27-11.37,11.58-11.29C29.88,58.92,34.93,64.1,34.85,70.42z"/>
					<path class="st14" d="M23.27,82.12c-6.54-0.08-11.79-5.47-11.7-12.01c0.08-6.54,5.47-11.79,12.01-11.71
						c6.54,0.09,11.79,5.47,11.7,12.01C35.19,76.96,29.8,82.21,23.27,82.12z M23.56,59.26c-6.07-0.08-11.07,4.8-11.15,10.87
						c-0.08,6.07,4.8,11.07,10.87,11.15c6.07,0.08,11.07-4.8,11.15-10.87C34.51,64.34,29.63,59.34,23.56,59.26z"/>
				</g>
				<g>
					<g>
						<path class="st15" d="M30.01,70.45c-0.05,3.62-3.02,6.52-6.65,6.48c-3.62-0.05-6.52-3.02-6.48-6.64
							c0.04-3.63,3.02-6.52,6.64-6.48C27.16,63.85,30.06,66.83,30.01,70.45z"/>
						<path class="st16" d="M28.52,70.23c-0.04,2.8-2.34,5.04-5.14,5c-2.8-0.04-5.04-2.34-5.01-5.14c0.04-2.8,2.34-5.04,5.14-5.01
							C26.32,65.13,28.56,67.43,28.52,70.23z"/>
						<path class="st17" d="M27.13,70.22c-0.02,2.03-1.69,3.66-3.72,3.63s-3.66-1.7-3.63-3.73c0.02-2.03,1.69-3.66,3.73-3.63
							C25.53,66.52,27.16,68.19,27.13,70.22z"/>
					</g>
					<path class="st6" d="M23.85,67.64c-0.02,1.23-1.03,2.22-2.27,2.21c-1.24-0.02-2.22-1.03-2.21-2.27
						c0.02-1.24,1.03-2.22,2.26-2.21C22.88,65.39,23.87,66.4,23.85,67.64z"/>
				</g>
				<path class="st18" d="M23.57,58.84c-6.32-0.08-11.5,4.97-11.58,11.29c-0.08,6.31,4.97,11.5,11.29,11.58
					c6.31,0.08,11.5-4.97,11.58-11.29C34.93,64.1,29.88,58.92,23.57,58.84z M24.02,75.15c-3.86,0.82-10.04-1.37-9.92-6.2
					c0.1-3.79,2.83-7.16,6.39-8.05c3.97-1,9.82,0.27,10.93,4.87C32.51,70.3,28.18,74.27,24.02,75.15z"/>
				<path class="st12" d="M26.52,57.27c0,0-0.56-0.1-1.54-0.12c-0.49-0.01-1.09,0.01-1.76,0.09c-0.67,0.09-1.43,0.21-2.23,0.44
					c-0.81,0.21-1.65,0.54-2.5,0.95c-0.84,0.44-1.7,0.95-2.51,1.6c-0.42,0.3-0.81,0.66-1.19,1.03l-0.29,0.27
					c-0.04,0.04-0.12,0.1-0.13,0.12l-0.13,0.15l-0.55,0.62l-0.28,0.32l-0.22,0.33l-0.46,0.66c-0.28,0.45-0.53,0.95-0.77,1.43
					c-0.42,1-0.78,2.04-0.91,3.11c-0.18,1.06-0.17,2.13-0.09,3.15c0.06,0.51,0.15,1.01,0.23,1.5c0.13,0.48,0.23,0.96,0.37,1.41
					c0.17,0.44,0.3,0.89,0.48,1.3c0.2,0.4,0.37,0.8,0.56,1.17c0.21,0.36,0.42,0.7,0.61,1.03c0.21,0.32,0.43,0.61,0.62,0.89
					c0.38,0.57,0.82,0.98,1.13,1.36c0.7,0.69,1.11,1.08,1.11,1.08s-0.11-0.08-0.32-0.25c-0.21-0.17-0.53-0.39-0.9-0.71
					c-0.34-0.36-0.82-0.74-1.26-1.28c-0.22-0.27-0.47-0.54-0.71-0.85c-0.22-0.32-0.45-0.67-0.69-1.02
					c-0.22-0.37-0.42-0.77-0.64-1.18c-0.21-0.42-0.38-0.87-0.57-1.32c-0.18-0.46-0.3-0.96-0.46-1.46c-0.11-0.51-0.21-1.04-0.29-1.57
					c-0.1-1.08-0.17-2.22,0.02-3.35c0.12-1.14,0.5-2.26,0.94-3.34c0.27-0.52,0.53-1.04,0.84-1.53l0.51-0.72l0.26-0.36l0.28-0.31
					l0.56-0.62l0.14-0.15c0.08-0.09,0.11-0.1,0.17-0.16l0.31-0.28c0.41-0.37,0.83-0.73,1.28-1.04c0.86-0.67,1.8-1.15,2.7-1.56
					c0.91-0.39,1.81-0.68,2.65-0.85c0.84-0.2,1.63-0.26,2.32-0.29c0.7-0.02,1.3,0.01,1.8,0.06C25.98,57.1,26.52,57.27,26.52,57.27z"
					/>
			</g>
			<g>
				<g>
					<g>
						<path class="st12" d="M84.26,67.44c-0.1,7.91,6.23,14.4,14.13,14.5c7.91,0.1,14.4-6.23,14.5-14.13
							c0.1-7.91-6.23-14.4-14.13-14.5C90.85,53.21,84.36,59.54,84.26,67.44z"/>
						<path class="st13" d="M98.39,82.37c-8.13-0.1-14.65-6.8-14.55-14.93c0.1-8.13,6.8-14.66,14.93-14.55
							c8.13,0.1,14.66,6.8,14.55,14.93C113.21,75.94,106.52,82.47,98.39,82.37z M98.76,53.73c-7.66-0.1-13.97,6.05-14.07,13.71
							c-0.1,7.66,6.05,13.97,13.71,14.07c7.66,0.1,13.97-6.05,14.07-13.71C112.57,60.15,106.42,53.83,98.76,53.73z"/>
					</g>
					<g>
						<path class="st6" d="M87.14,67.58c-0.08,6.31,4.97,11.5,11.29,11.58c6.31,0.08,11.5-4.97,11.58-11.29
							c0.08-6.32-4.97-11.5-11.29-11.58C92.41,56.21,87.23,61.26,87.14,67.58z"/>
						<path class="st14" d="M98.42,79.58c-6.54-0.08-11.79-5.47-11.7-12.01c0.08-6.54,5.47-11.79,12.01-11.7
							c6.54,0.09,11.79,5.47,11.7,12.01C110.35,74.41,104.96,79.67,98.42,79.58z M98.72,56.72c-6.07-0.08-11.07,4.8-11.15,10.87
							c-0.08,6.07,4.8,11.07,10.87,11.15c6.07,0.08,11.07-4.8,11.15-10.87C109.66,61.8,104.79,56.79,98.72,56.72z"/>
					</g>
					<g>
						<g>
							<path class="st15" d="M105.1,67.91c-0.04,3.63-3.02,6.53-6.65,6.48c-3.62-0.05-6.52-3.02-6.48-6.64
								c0.05-3.63,3.02-6.52,6.65-6.48C102.25,61.31,105.15,64.29,105.1,67.91z"/>
							<path class="st16" d="M103.61,67.69c-0.04,2.8-2.34,5.04-5.14,5.01c-2.8-0.04-5.04-2.33-5.01-5.13
								c0.04-2.8,2.34-5.04,5.14-5.01C101.41,62.59,103.65,64.89,103.61,67.69z"/>
							<path class="st17" d="M102.22,67.67c-0.03,2.03-1.69,3.66-3.73,3.63c-2.03-0.03-3.66-1.69-3.63-3.72
								c0.03-2.03,1.69-3.66,3.72-3.63C100.62,63.98,102.25,65.64,102.22,67.67z"/>
						</g>
						<path class="st6" d="M98.94,65.1c-0.02,1.24-1.03,2.22-2.27,2.21c-1.24-0.02-2.22-1.03-2.21-2.26
							c0.02-1.23,1.03-2.22,2.26-2.21C97.97,62.85,98.96,63.86,98.94,65.1z"/>
					</g>
					<path class="st18" d="M87.14,67.58c-0.08,6.31,4.97,11.5,11.29,11.58c6.31,0.08,11.5-4.97,11.58-11.29
						c0.08-6.32-4.97-11.5-11.29-11.58C92.41,56.21,87.23,61.26,87.14,67.58z M90.69,63.03c1.22-4.57,7.1-5.7,11.05-4.59
						c3.54,0.99,6.18,4.43,6.18,8.22c0,4.83-6.23,6.86-10.07,5.94C93.72,71.6,89.48,67.53,90.69,63.03z"/>
				</g>
				<path class="st12" d="M101.47,54.62c0,0-0.56-0.1-1.54-0.12c-0.49-0.01-1.09,0.01-1.77,0.09c-0.67,0.09-1.43,0.21-2.23,0.44
					c-0.81,0.21-1.65,0.54-2.5,0.95c-0.84,0.44-1.7,0.95-2.51,1.6c-0.42,0.3-0.81,0.66-1.19,1.03l-0.29,0.27
					c-0.04,0.04-0.12,0.1-0.13,0.13l-0.13,0.15l-0.55,0.62l-0.28,0.31l-0.23,0.33l-0.45,0.66c-0.28,0.45-0.53,0.95-0.77,1.43
					c-0.41,1-0.78,2.04-0.91,3.11c-0.18,1.06-0.17,2.13-0.09,3.15c0.06,0.51,0.15,1.01,0.23,1.5c0.13,0.48,0.23,0.96,0.37,1.41
					c0.17,0.44,0.3,0.89,0.48,1.3c0.2,0.4,0.37,0.8,0.56,1.17c0.21,0.36,0.42,0.7,0.61,1.03c0.21,0.32,0.43,0.61,0.62,0.89
					c0.38,0.57,0.82,0.98,1.13,1.36c0.71,0.69,1.11,1.08,1.11,1.08s-0.11-0.08-0.32-0.25c-0.2-0.17-0.53-0.39-0.9-0.72
					c-0.34-0.36-0.82-0.74-1.26-1.28c-0.22-0.27-0.47-0.54-0.71-0.85c-0.22-0.33-0.45-0.67-0.69-1.02
					c-0.22-0.37-0.42-0.77-0.64-1.18c-0.21-0.41-0.37-0.87-0.57-1.32c-0.18-0.46-0.3-0.96-0.46-1.46c-0.11-0.51-0.21-1.03-0.29-1.57
					c-0.1-1.08-0.17-2.22,0.02-3.35c0.13-1.14,0.5-2.26,0.94-3.34c0.27-0.52,0.53-1.04,0.84-1.54l0.51-0.72l0.26-0.36l0.28-0.31
					l0.56-0.62l0.14-0.15c0.08-0.09,0.11-0.11,0.17-0.16l0.32-0.28c0.41-0.37,0.83-0.73,1.28-1.04c0.86-0.67,1.8-1.15,2.7-1.56
					c0.91-0.39,1.81-0.68,2.65-0.85c0.84-0.2,1.63-0.26,2.32-0.29c0.7-0.02,1.3,0.01,1.8,0.06
					C100.93,54.45,101.47,54.62,101.47,54.62z"/>
			</g>
			<g>
				<g>
					<g>
						<path class="st12" d="M53.75,80.73c-0.08,6.32,4.98,11.51,11.29,11.59c6.32,0.08,11.5-4.98,11.59-11.29
							c0.08-6.32-4.97-11.51-11.29-11.59C59.02,69.36,53.83,74.41,53.75,80.73z"/>
						<path class="st13" d="M65.04,92.71c-6.52-0.08-11.76-5.46-11.67-11.98c0.08-6.52,5.46-11.76,11.98-11.67
							c6.52,0.08,11.76,5.46,11.68,11.98C76.94,87.55,71.56,92.79,65.04,92.71z M65.34,69.83c-6.1-0.08-11.12,4.82-11.2,10.91
							c-0.08,6.09,4.82,11.12,10.91,11.2c6.1,0.08,11.12-4.82,11.2-10.91C76.33,74.93,71.43,69.9,65.34,69.83z"/>
					</g>
					<g>
						<path class="st6" d="M56.06,80.84c-0.07,5.05,3.97,9.19,9.02,9.25c5.05,0.07,9.19-3.97,9.25-9.02
							c0.06-5.05-3.97-9.19-9.02-9.25C60.26,71.76,56.12,75.8,56.06,80.84z"/>
						<path class="st14" d="M65.07,90.48c-5.25-0.07-9.47-4.39-9.4-9.64c0.07-5.25,4.39-9.47,9.64-9.4c5.25,0.07,9.47,4.39,9.4,9.64
							C74.65,86.33,70.32,90.55,65.07,90.48z M65.31,72.21c-4.83-0.06-8.8,3.81-8.86,8.64c-0.06,4.82,3.81,8.8,8.64,8.86
							c4.82,0.06,8.8-3.81,8.86-8.64C74.01,76.25,70.13,72.27,65.31,72.21z"/>
					</g>
					<g>
						<g>
							<path class="st15" d="M70.41,81.11C70.37,84,68,86.32,65.1,86.28c-2.9-0.04-5.21-2.42-5.18-5.31
								c0.04-2.9,2.42-5.21,5.31-5.18C68.13,75.83,70.45,78.21,70.41,81.11z"/>
							<path class="st16" d="M69.22,80.93c-0.03,2.24-1.87,4.03-4.1,4c-2.24-0.03-4.03-1.87-4-4.1c0.03-2.24,1.87-4.03,4.1-4
								C67.46,76.86,69.25,78.69,69.22,80.93z"/>
							<path class="st17" d="M68.11,80.92c-0.02,1.62-1.35,2.92-2.98,2.9c-1.62-0.02-2.92-1.35-2.9-2.98
								c0.02-1.62,1.35-2.92,2.98-2.9C66.83,77.96,68.13,79.29,68.11,80.92z"/>
						</g>
						<path class="st6" d="M65.49,78.86c-0.01,0.99-0.82,1.78-1.81,1.77c-0.99-0.01-1.78-0.82-1.76-1.81
							c0.01-0.99,0.82-1.77,1.81-1.76C64.71,77.06,65.5,77.87,65.49,78.86z"/>
					</g>
					<path class="st18" d="M56.06,80.84c-0.07,5.05,3.97,9.19,9.02,9.25c5.05,0.07,9.19-3.97,9.25-9.02
						c0.06-5.05-3.97-9.19-9.02-9.25C60.26,71.76,56.12,75.8,56.06,80.84z M58.89,77.2c0.98-3.65,5.68-4.55,8.83-3.67
						c2.83,0.79,4.94,3.54,4.94,6.57c0,3.86-4.98,5.48-8.05,4.74C61.31,84.06,57.93,80.8,58.89,77.2z"/>
				</g>
				<path class="st12" d="M67.51,70.49c0,0-0.45-0.08-1.23-0.09c-0.39-0.01-0.87,0.01-1.41,0.07c-0.54,0.07-1.14,0.17-1.79,0.35
					c-0.64,0.17-1.32,0.43-2,0.75c-0.67,0.35-1.36,0.76-2.01,1.28c-0.34,0.24-0.65,0.53-0.95,0.82l-0.24,0.22
					c-0.03,0.03-0.09,0.08-0.1,0.1l-0.11,0.12l-0.44,0.5l-0.22,0.25l-0.18,0.26l-0.36,0.52c-0.23,0.36-0.42,0.76-0.62,1.14
					c-0.33,0.8-0.62,1.63-0.72,2.49c-0.15,0.85-0.14,1.7-0.08,2.52c0.05,0.41,0.13,0.81,0.18,1.2c0.1,0.38,0.18,0.77,0.3,1.13
					c0.14,0.35,0.24,0.71,0.39,1.04c0.16,0.32,0.29,0.64,0.45,0.93c0.17,0.29,0.33,0.56,0.49,0.82c0.16,0.25,0.34,0.48,0.49,0.71
					c0.31,0.45,0.66,0.78,0.9,1.09c0.56,0.55,0.89,0.87,0.89,0.87s-0.09-0.07-0.26-0.2c-0.16-0.13-0.42-0.31-0.72-0.57
					c-0.27-0.29-0.66-0.59-1-1.02c-0.18-0.21-0.38-0.43-0.57-0.68c-0.18-0.26-0.36-0.53-0.55-0.82c-0.18-0.3-0.34-0.62-0.52-0.94
					c-0.17-0.33-0.3-0.69-0.46-1.06c-0.14-0.37-0.24-0.77-0.37-1.16c-0.09-0.41-0.17-0.83-0.23-1.26c-0.08-0.86-0.13-1.77,0.02-2.68
					c0.1-0.92,0.4-1.81,0.75-2.67c0.21-0.42,0.42-0.83,0.67-1.23l0.41-0.58l0.2-0.29l0.22-0.25l0.45-0.49l0.11-0.12
					c0.06-0.07,0.09-0.08,0.13-0.13l0.25-0.22c0.33-0.3,0.66-0.59,1.02-0.83c0.68-0.53,1.44-0.92,2.15-1.25
					c0.73-0.31,1.44-0.54,2.12-0.68c0.67-0.16,1.3-0.21,1.86-0.23c0.56-0.01,1.04,0.01,1.44,0.05
					C67.07,70.35,67.51,70.49,67.51,70.49z"/>
			</g>
			<g>
				<g>
					<g>
						<path class="st12" d="M65.57,39.35c-0.09,6.93,5.46,12.63,12.39,12.71c6.93,0.09,12.63-5.46,12.71-12.39
							c0.09-6.94-5.46-12.63-12.39-12.72C71.35,26.87,65.66,32.41,65.57,39.35z"/>
						<path class="st13" d="M77.96,52.48c-7.16-0.09-12.9-5.99-12.81-13.14c0.09-7.16,5.99-12.9,13.14-12.81
							c7.15,0.09,12.9,5.99,12.81,13.14C91.01,46.83,85.11,52.58,77.96,52.48z M78.28,27.38c-6.69-0.08-12.2,5.29-12.29,11.97
							c-0.09,6.69,5.28,12.2,11.97,12.29c6.69,0.09,12.2-5.28,12.29-11.97C90.34,32.98,84.97,27.46,78.28,27.38z"/>
					</g>
					<g>
						<path class="st6" d="M68.1,39.47c-0.07,5.53,4.36,10.08,9.9,10.15c5.54,0.07,10.08-4.36,10.15-9.9
							c0.07-5.54-4.36-10.08-9.9-10.15C72.72,29.5,68.17,33.93,68.1,39.47z"/>
						<path class="st14" d="M77.99,50.04c-5.76-0.07-10.39-4.82-10.31-10.58c0.07-5.76,4.82-10.39,10.58-10.32
							c5.76,0.08,10.39,4.82,10.32,10.58C88.5,45.49,83.75,50.12,77.99,50.04z M78.25,29.99c-5.29-0.07-9.66,4.18-9.72,9.48
							c-0.07,5.29,4.18,9.66,9.48,9.73c5.29,0.07,9.66-4.18,9.73-9.48C87.79,34.42,83.54,30.06,78.25,29.99z"/>
					</g>
					<g>
						<g>
							<path class="st15" d="M83.85,39.76c-0.04,3.18-2.65,5.72-5.83,5.68c-3.18-0.04-5.72-2.65-5.68-5.83
								c0.04-3.18,2.65-5.72,5.83-5.68C81.35,33.97,83.89,36.58,83.85,39.76z"/>
							<path class="st16" d="M82.54,39.56c-0.03,2.46-2.05,4.42-4.5,4.39c-2.46-0.03-4.42-2.05-4.39-4.5
								c0.03-2.45,2.05-4.42,4.5-4.39C80.61,35.09,82.57,37.11,82.54,39.56z"/>
							<path class="st17" d="M81.32,39.55c-0.02,1.78-1.48,3.21-3.27,3.18c-1.78-0.02-3.21-1.48-3.18-3.26
								c0.02-1.78,1.49-3.21,3.27-3.18C79.92,36.31,81.34,37.77,81.32,39.55z"/>
						</g>
						<path class="st6" d="M78.44,37.29c-0.01,1.08-0.9,1.95-1.99,1.94c-1.08-0.01-1.95-0.9-1.94-1.99c0.01-1.08,0.9-1.95,1.98-1.93
							C77.59,35.32,78.46,36.21,78.44,37.29z"/>
					</g>
					<path class="st18" d="M68.1,39.47c-0.07,5.53,4.36,10.08,9.9,10.15c5.54,0.07,10.08-4.36,10.15-9.9
						c0.07-5.54-4.36-10.08-9.9-10.15C72.72,29.5,68.17,33.93,68.1,39.47z M71.21,35.48c1.07-4.01,6.23-5,9.69-4.03
						c3.1,0.87,5.42,3.88,5.42,7.21c0,4.24-5.47,6.01-8.83,5.21C73.86,42.99,70.15,39.42,71.21,35.48z"/>
				</g>
				<path class="st12" d="M80.66,28.11c0,0-0.49-0.09-1.35-0.1c-0.43-0.01-0.95,0.01-1.55,0.08c-0.59,0.08-1.26,0.18-1.96,0.38
					c-0.71,0.18-1.45,0.47-2.2,0.83c-0.74,0.39-1.5,0.83-2.2,1.4c-0.37,0.26-0.71,0.58-1.04,0.9l-0.26,0.24
					c-0.04,0.03-0.1,0.09-0.11,0.11l-0.12,0.13l-0.48,0.54l-0.24,0.28l-0.2,0.29l-0.4,0.58c-0.25,0.4-0.46,0.83-0.68,1.26
					c-0.36,0.88-0.68,1.79-0.79,2.73c-0.16,0.93-0.15,1.87-0.08,2.76c0.05,0.45,0.14,0.89,0.2,1.32c0.11,0.42,0.2,0.84,0.33,1.24
					c0.15,0.39,0.26,0.78,0.42,1.14c0.17,0.35,0.32,0.7,0.5,1.03c0.18,0.31,0.36,0.62,0.53,0.9c0.18,0.28,0.37,0.53,0.54,0.78
					c0.33,0.5,0.72,0.86,0.99,1.19c0.62,0.6,0.97,0.95,0.97,0.95s-0.1-0.08-0.28-0.22c-0.18-0.15-0.46-0.34-0.79-0.63
					c-0.3-0.31-0.72-0.65-1.1-1.12c-0.19-0.24-0.41-0.48-0.62-0.75c-0.19-0.29-0.39-0.59-0.6-0.9c-0.19-0.32-0.37-0.68-0.56-1.03
					c-0.18-0.36-0.33-0.76-0.5-1.16c-0.15-0.41-0.27-0.84-0.4-1.28c-0.1-0.45-0.19-0.91-0.26-1.38c-0.09-0.95-0.15-1.95,0.02-2.94
					c0.11-1,0.44-1.98,0.83-2.93c0.23-0.46,0.46-0.91,0.74-1.35l0.45-0.63l0.22-0.31l0.24-0.27l0.49-0.54l0.12-0.13
					c0.07-0.08,0.1-0.09,0.15-0.14l0.28-0.25c0.36-0.33,0.73-0.64,1.12-0.91c0.75-0.59,1.58-1.01,2.37-1.37
					c0.8-0.34,1.58-0.6,2.32-0.75c0.74-0.18,1.43-0.23,2.04-0.25c0.61-0.02,1.14,0.01,1.58,0.05
					C80.19,27.95,80.66,28.11,80.66,28.11z"/>
			</g>
			<g>
				<g>
					<g>
						<path class="st12" d="M39.77,48.6c-0.06,4.95,3.9,9.02,8.85,9.08c4.95,0.06,9.02-3.9,9.08-8.85c0.06-4.95-3.9-9.02-8.85-9.08
							C43.9,39.69,39.83,43.65,39.77,48.6z"/>
						<path class="st13" d="M48.62,57.98c-5.11-0.07-9.22-4.28-9.15-9.39c0.07-5.11,4.28-9.22,9.39-9.15
							c5.11,0.07,9.22,4.28,9.15,9.39C57.94,53.95,53.73,58.05,48.62,57.98z M48.85,40.05c-4.78-0.06-8.72,3.77-8.78,8.55
							c-0.06,4.78,3.78,8.71,8.56,8.78c4.78,0.06,8.71-3.78,8.77-8.55C57.46,44.05,53.63,40.11,48.85,40.05z"/>
					</g>
					<g>
						<path class="st6" d="M41.58,48.69c-0.05,3.96,3.11,7.2,7.07,7.25c3.96,0.05,7.2-3.11,7.25-7.07c0.05-3.96-3.12-7.2-7.07-7.25
							C44.87,41.56,41.63,44.73,41.58,48.69z"/>
						<path class="st14" d="M48.64,56.24c-4.12-0.05-7.42-3.44-7.37-7.56c0.05-4.12,3.45-7.42,7.56-7.37
							c4.12,0.05,7.42,3.44,7.37,7.56C56.15,52.99,52.76,56.29,48.64,56.24z M48.83,41.92c-3.78-0.05-6.9,2.99-6.95,6.77
							c-0.05,3.78,2.99,6.9,6.77,6.95c3.78,0.05,6.9-2.99,6.95-6.77C55.65,45.08,52.61,41.97,48.83,41.92z"/>
					</g>
					<g>
						<g>
							<path class="st15" d="M52.83,48.89c-0.03,2.27-1.89,4.09-4.16,4.06c-2.27-0.03-4.09-1.89-4.06-4.16
								c0.03-2.27,1.89-4.09,4.16-4.06C51.04,44.76,52.85,46.62,52.83,48.89z"/>
							<path class="st16" d="M51.89,48.76c-0.02,1.75-1.46,3.16-3.22,3.14c-1.75-0.02-3.16-1.46-3.14-3.22
								c0.02-1.75,1.46-3.16,3.22-3.14C50.51,45.56,51.92,47,51.89,48.76z"/>
							<path class="st17" d="M51.02,48.74c-0.02,1.27-1.06,2.29-2.34,2.27c-1.27-0.02-2.29-1.06-2.27-2.33
								c0.02-1.27,1.06-2.29,2.33-2.27C50.02,46.43,51.04,47.47,51.02,48.74z"/>
						</g>
						<path class="st6" d="M48.97,47.13c-0.01,0.78-0.65,1.39-1.42,1.38c-0.77-0.01-1.39-0.64-1.38-1.42
							c0.01-0.78,0.64-1.39,1.42-1.38C48.36,45.72,48.98,46.36,48.97,47.13z"/>
					</g>
					<path class="st18" d="M41.58,48.69c-0.05,3.96,3.11,7.2,7.07,7.25c3.96,0.05,7.2-3.11,7.25-7.07c0.05-3.96-3.12-7.2-7.07-7.25
						C44.87,41.56,41.63,44.73,41.58,48.69z M43.8,45.83c0.77-2.86,4.45-3.57,6.92-2.88c2.22,0.62,3.87,2.77,3.87,5.15
						c0,3.03-3.91,4.3-6.31,3.72C45.69,51.2,43.04,48.65,43.8,45.83z"/>
				</g>
				<path class="st12" d="M50.55,40.57c0,0-0.35-0.06-0.97-0.07c-0.31-0.01-0.68,0.01-1.11,0.05c-0.42,0.06-0.9,0.13-1.4,0.27
					c-0.51,0.13-1.03,0.34-1.57,0.6c-0.53,0.27-1.07,0.59-1.57,1c-0.26,0.19-0.5,0.41-0.75,0.64l-0.18,0.17
					c-0.02,0.02-0.07,0.06-0.08,0.08l-0.09,0.1L42.5,43.8l-0.17,0.2l-0.14,0.2l-0.28,0.41c-0.18,0.28-0.33,0.59-0.48,0.9
					c-0.26,0.63-0.49,1.28-0.57,1.95c-0.11,0.67-0.11,1.33-0.06,1.98c0.04,0.32,0.1,0.63,0.14,0.94c0.08,0.3,0.14,0.6,0.23,0.89
					c0.11,0.28,0.19,0.56,0.3,0.81c0.12,0.25,0.23,0.5,0.35,0.73c0.13,0.22,0.26,0.44,0.38,0.65c0.13,0.2,0.27,0.38,0.39,0.56
					c0.24,0.35,0.51,0.61,0.71,0.85c0.44,0.43,0.7,0.68,0.7,0.68s-0.07-0.05-0.2-0.16c-0.13-0.11-0.33-0.25-0.56-0.45
					c-0.21-0.22-0.51-0.46-0.79-0.8c-0.14-0.17-0.3-0.34-0.44-0.54c-0.14-0.2-0.28-0.42-0.43-0.64c-0.14-0.23-0.26-0.49-0.4-0.74
					c-0.13-0.26-0.23-0.54-0.36-0.83c-0.11-0.29-0.19-0.6-0.29-0.91c-0.07-0.32-0.14-0.65-0.18-0.98c-0.06-0.67-0.11-1.39,0.02-2.1
					c0.08-0.72,0.31-1.42,0.59-2.09c0.17-0.32,0.33-0.65,0.53-0.96l0.32-0.45l0.16-0.22l0.18-0.19l0.35-0.39l0.09-0.1
					c0.05-0.05,0.07-0.06,0.11-0.1l0.2-0.17c0.26-0.24,0.52-0.46,0.8-0.65c0.54-0.42,1.13-0.72,1.69-0.98
					c0.57-0.24,1.13-0.42,1.66-0.53c0.53-0.13,1.02-0.16,1.46-0.18c0.43-0.01,0.82,0,1.13,0.04C50.21,40.46,50.55,40.57,50.55,40.57
					z"/>
			</g>
		</g>
	</g>
</g>
</svg>
