<?xml version="1.0" encoding="utf-8"?>
<!-- Generator: Adobe Illustrator 24.0.1, SVG Export Plug-In . SVG Version: 6.00 Build 0)  -->
<svg version="1.1" id="Layer_1" xmlns="http://www.w3.org/2000/svg" xmlns:xlink="http://www.w3.org/1999/xlink" x="0px" y="0px"
	 viewBox="0 0 407.47 472.54" style="enable-background:new 0 0 407.47 472.54;" xml:space="preserve">
<style type="text/css">
	.st0{fill:#009444;}
	.st1{fill:#8DC63F;}
	.st2{fill:#231F20;}
	.st3{fill:#FFFFFF;}
</style>
<path class="st0" d="M404.41,203.39c-4.81-1.94-9.85,2.22-13.83,4.59c-2.72,1.62-5.38,3.34-8.03,5.07c-0.25-1.93-0.6-3.87-1.05-5.8
	c3.57-2.46,6.79-5.41,9.52-8.81c3.44-4.28,7.82-10.65,5.15-16.14c-1.06-2.19-3.86-2.42-5.8-1.52c-3.93,1.82-5.45,7.73-7.71,11.22
	c-1.93,2.97-4.31,5.6-7.02,7.86l1.93-6.17c1.4-4.48,3.88-9.27,2.73-13.97c-0.75-3.04-4.86-4.1-7.01-1.85
	c-3.3,3.45-3.56,8.85-4.57,13.38c-0.84,3.76-1.68,7.52-2.52,11.27c-0.39-0.59-0.78-1.18-1.2-1.74c-1.32-1.75-2.53-2.52-4.57-3.37
	c-2.29-0.96-5.76,1.06-6.13,3.48c-0.36,2.36-0.24,4.16,0.97,6.25c0.8,1.38,2.05,2.66,3.21,3.75c0.92,0.87,1.88,1.59,2.9,2.21
	c-6.91,9.76-14.24,19.22-23.23,27.19c-10.38,9.21-22.13,14.51-35.28,17.82c-4.45-12.38-9.61-24.92-16.48-36.09
	c-21.17,2.7-34.13,1.6-52.24-8.5c-20.23-11.28-36.45-22.1-61.34-16.55c-14.3,3.19-27.36,11.45-36.71,22.69
	c-2.62,3.15-15.18,31.61-18.2,31.82c-8.5,0.58-17.01-0.03-25.16-2.18c-3.99-1.26-7.91-2.74-11.69-4.49
	c-1.15-0.53-2.29-1.09-3.41-1.65c-0.17-0.1-0.34-0.18-0.51-0.28c-13.87-8.05-24.49-21.22-30.38-36.08c0.53-2.31,1.09-4.61,1.72-6.9
	c1.36-4.93,4.02-9.92,2.98-15.05c-0.72-3.53-5.97-4.99-8.33-2.2c-3.5,4.13-3.4,9.91-3.91,15.14c-0.07,0.76-0.13,1.52-0.19,2.28
	c-1.25-0.07-2.57,0.14-3.9,0.71c-0.54-1.96-1.08-3.91-1.62-5.87c-1.36-4.94-2.2-10.5-4.56-15.04c-3.07-5.92-11.44-1.63-10.25,4.32
	c0.98,4.89,4,9.85,5.97,14.44c1.1,2.56,2.2,5.13,3.3,7.69c-0.16,0.2-0.32,0.39-0.48,0.6c-2.18-1.7-4.37-3.4-6.57-5.08
	c-1.74-1.33-3.51-2.63-5.27-3.93c-0.95-0.7-1.9-1.4-2.84-2.1c-0.27-0.3-0.51-0.52-0.72-0.7c-0.2-0.95-0.66-1.84-1.36-2.5
	c-2.23-2.1-5.22-2.63-7.9-0.97c-1.61,0.99-2.97,2.92-2.81,4.9c0.48,5.92,5.74,7.78,10.34,10.43c4.42,2.56,8.9,5.01,13.38,7.46
	c-1.86,6.12-1.72,13.09-0.38,19.27c2.76,12.77,10.12,24.94,19.05,34.33c15.56,16.36,37.89,24.59,60.02,23.35
	c-13.74,52.52-5.41,111.11,25.1,156.22c-8.11,3.41-17.82,12.1-12.3,18.95c2.65,3.29,7.47,3.57,11.7,3.58
	c7.91,0.02,15.82,0.05,23.74,0.07c3.39,0.01,7.23-0.17,9.46-2.73c1.84-2.11,1.96-5.15,2.35-7.93c2.26-16.24,16.62-28.7,32.23-33.71
	c24.4-7.83,57.39-5.58,72.08,18.77c11.82,19.76,0.99,26.86,26.31,27.76c11.01,0.39,41.31,1.7,39.67-16.17
	c-0.45-4.88-5.49-8.07-10.29-9.1c-4.8-1.04-9.89-0.74-14.48-2.5c-2.18-27.86,9.26-51.71,10.67-79.38
	c1.18-23.13-0.57-46.43-5.18-69.14c8.41-0.31,16.79-4.55,23.98-8.53c9.57-5.31,18.7-11.93,26.18-19.96
	c11.6-12.45,18.92-28.42,19.4-45.07c4.07-1.6,8.16-3.18,12.17-4.93c4.55-1.98,10.9-3.63,12.15-9.04
	C407.9,206.14,406.59,204.27,404.41,203.39z"/>
<path class="st1" d="M35.62,105.73c-5.99-32.26,2.63-68.56,27.64-89.81c25.01-21.25,67.13-22.05,88.76,2.62
	c3.59,4.09,6.75,8.88,11.65,11.25c3.21,1.55,6.86,1.9,10.41,2.22c25.39,2.28,50.79,4.57,76.18,6.85
	c3.01-18.04,20.46-30.47,38.12-35.21c20.54-5.51,45.02-2.2,58.79,14c6.81,8,10.34,18.26,12.85,28.46
	c14.75,60.01-4.49,128.65-52.33,167.77C213.36,291.02,56.92,220.4,35.62,105.73z"/>
<g>
	<path class="st2" d="M144.65,42.34c-1.7-1.6-3.49-3.08-5.35-4.47c-4-4.26-8.63-7.91-12.95-10.62c-12.18-7.65-28.27-11.6-42.55-9.41
		c-17.6,2.7-27.65,18.34-23.38,35.61c4.14,16.73,20.97,25.99,35.95,31.31c14.61,5.19,35.91,9.21,49.75-0.08
		c7.1-4.77,11.83-13.21,10.96-21.85C156.24,54.68,150.37,47.75,144.65,42.34z M104.8,48.68c1.55,0.1,3.09,0.3,4.62,0.57
		c-0.15,0.36-0.28,0.73-0.4,1.1C107.59,49.84,106.19,49.28,104.8,48.68z"/>
</g>
<path class="st2" d="M344.38,49.81c1.91-13.39-6.2-26.44-18.06-32.42c-14.03-7.07-30.71-3.27-42.8,5.92
	c-12.7,9.65-24.07,26.57-26.37,42.54c-0.21,1.44,0.06,2.8,0.62,4c0.06,2.8,0.85,5.56,2.74,8.17c4.28,5.91,13.05,8.18,19.92,9.24
	c13.16,2.03,26.43-0.25,38.25-6.35C330.31,74.91,342.45,63.32,344.38,49.81z"/>
<path class="st0" d="M201.51,81.14c-0.77-5.1-9.52-5.1-10.3,0c-0.76,5.03-1.72,10.27-0.78,15.32c1.09,5.86,10.76,5.87,11.85,0
	C203.23,91.41,202.28,86.17,201.51,81.14z"/>
<path class="st0" d="M223.57,79.98c-1.33-2.13-3.99-3.1-6.34-2.08c-2.09,0.92-3.9,3.61-2.94,5.99c0.72,1.78,1.14,3.46,1.2,5.37
	c0.08,2.59,0.42,4.64,1.49,7.02c1.2,2.69,5.41,2.95,7.27,0.94C228.81,92.25,226.81,85.14,223.57,79.98z"/>
<path class="st0" d="M224.56,134.86c-4.53-6.41-12.96-10.27-19.61-4.28c-4.75,4.28-7.04,10.47-7.52,17.01
	c-0.94,3.27-1.3,6.72-1.26,9.49c0.1,6.97,2.33,16.15,8.47,20.32c14.59,9.91,22.58-14.14,23.81-24.51
	C229.2,146.67,228.25,140.07,224.56,134.86z"/>
<path class="st3" d="M94.87,28.15c-0.48-1.9-2.59-3.05-4.46-3.02c-1.12,0.02-2.02,0.26-3.02,0.78c-0.58,0.3-1.14,0.73-1.59,1.2
	c-2.02,2.09-1.99,5.25-0.03,7.36c0.8,0.86,2.29,1.49,3.47,1.44c1.22-0.05,2.66-0.44,3.47-1.44c0.29-0.36,0.65-0.73,0.88-1.15
	c0.09-0.18,0.16-0.34,0.23-0.51c0.55-0.48,0.83-1,1.13-1.71C95.31,30.22,95.24,29.07,94.87,28.15z"/>
<path class="st3" d="M321.68,28.98c-6.64,0-6.65,10.31,0,10.31C328.31,39.29,328.33,28.98,321.68,28.98z"/>
</svg>
