<?xml version="1.0" encoding="utf-8"?>
<!-- Generator: Adobe Illustrator 24.0.1, SVG Export Plug-In . SVG Version: 6.00 Build 0)  -->
<svg version="1.1" id="Layer_1" xmlns="http://www.w3.org/2000/svg" xmlns:xlink="http://www.w3.org/1999/xlink" x="0px" y="0px"
	 viewBox="0 0 245.76 291" style="enable-background:new 0 0 245.76 291;" xml:space="preserve">
<style type="text/css">
	.st0{fill:#FF8EA0;}
	.st1{fill:#D11A21;}
	.st2{fill:#E71D24;}
	.st3{fill:#FFFFFF;}
	.st4{fill:#DFDFDF;}
	.st5{fill:#B5171C;}
</style>
<g>
	<g>
		<g>
			<path class="st0" d="M196.58,150.21c1.17-0.25,18.95,7.25,18.17-8.63c0,0-6.64-16.42,2.59-24.69c0,0,10.65-10.07,22.23-3.75
				c0,0,2.07,3.28-3.55,4.93c0,0,8.12-0.72,9.74,5.75c0,0-1.02,5.02-8.33,1.89c0,0,7.82,7.7,3.64,11.43c0,0-3.88,4.75-10.5-3.58
				c0,0-4.67-5.3-0.54,5.71c0,0,7.15,35.67-42.62,31.69C187.4,170.96,189.27,151.8,196.58,150.21z"/>
			<path class="st1" d="M220.26,164.29c-5.57-1.86-6.93-11.42-7.25-15.39c-1.85,2.4-4.89,2.97-7.87,2.85
				c-1.99,7.22,0.26,18.46,0.26,18.46C213.03,169.89,220.26,164.29,220.26,164.29z"/>
			<path class="st1" d="M214.67,141.37c5.35,3.74,11.83,4.61,15.62,4.77c0.31-4.01-0.26-6.86-0.26-6.86
				c-0.23-0.62-0.43-1.18-0.61-1.7c-4.88-1.89-12.9-5.48-16.96-7.33C212.61,135.61,214.28,140.34,214.67,141.37z"/>
		</g>
		<g>
			<path class="st0" d="M49.18,150.21c-1.17-0.25-18.95,7.25-18.17-8.63c0,0,6.64-16.42-2.59-24.69c0,0-10.65-10.07-22.23-3.75
				c0,0-2.07,3.28,3.55,4.93c0,0-8.12-0.72-9.74,5.75c0,0,1.02,5.02,8.33,1.89c0,0-7.82,7.7-3.64,11.43c0,0,3.88,4.75,10.5-3.58
				c0,0,4.67-5.3,0.54,5.71c0,0-7.15,35.67,42.62,31.69C58.35,170.96,56.49,151.8,49.18,150.21z"/>
			<path class="st1" d="M25.49,164.29c5.57-1.86,6.93-11.42,7.25-15.39c1.85,2.4,4.89,2.97,7.87,2.85
				c1.99,7.22-0.26,18.46-0.26,18.46C32.72,169.89,25.49,164.29,25.49,164.29z"/>
			<path class="st1" d="M31.09,141.37c-5.35,3.74-11.83,4.61-15.62,4.77c-0.31-4.01,0.26-6.86,0.26-6.86
				c0.23-0.62,0.43-1.18,0.61-1.7c4.88-1.89,12.9-5.48,16.96-7.33C33.15,135.61,31.47,140.34,31.09,141.37z"/>
		</g>
		<g>
			<path class="st1" d="M87.49,249.95L95,285.6c0,0-18.75-13.5-21.88,5.4h42.15l-6.17-41.69L87.49,249.95z"/>
			<path class="st0" d="M110.75,259.9l-1.65-11.36l-21.61-0.04l1.94,9.39C96.55,258.42,103.66,259.05,110.75,259.9z"/>
			<path class="st0" d="M112.77,273.72l-0.94-6.45c-6.94-0.89-13.9-1.5-20.88-2.03l1.56,7.53
				C99.27,272.79,106.06,272.93,112.77,273.72z"/>
			<path class="st0" d="M94.01,280.03l0.99,4.8c0,0-18.75-12.66-21.88,6.07h42.15l-1.42-9.75
				C107.29,280.22,100.64,280.05,94.01,280.03z"/>
		</g>
		<g>
			<path class="st1" d="M163.04,249.95l-7.51,35.66c0,0,18.75-13.5,21.88,5.4h-42.15l6.17-41.69L163.04,249.95z"/>
			<path class="st0" d="M139.78,259.89l1.65-11.36l21.61-0.04l-1.94,9.39C153.98,258.42,146.87,259.05,139.78,259.89z"/>
			<path class="st0" d="M137.77,273.72l0.94-6.45c6.94-0.89,13.9-1.5,20.88-2.03l-1.55,7.53
				C151.26,272.79,144.47,272.93,137.77,273.72z"/>
			<path class="st0" d="M156.53,280.02l-0.99,4.8c0,0,18.75-12.66,21.88,6.07h-42.15l1.42-9.75
				C143.24,280.22,149.89,280.05,156.53,280.02z"/>
		</g>
		<g>
			<path class="st2" d="M215.93,238.89c-2.08-0.99-4.05-2.22-5.9-3.62c0.12-0.21,0.25-0.43,0.38-0.66c2.56,0.63,4.71,0.75,7.56,0.51
				c-3.47-2.93-7.5-4.99-10.8-8.51c-4.03-4.31-6.27-9.13-8.75-14.32c4.7,2.16,8.1,4.62,13.43,5.04c-3.64-4.29-7.68-9.84-9.78-15.06
				c3.46,0.58,6.46,2.04,10.04,0.42c-2.69-2.23-5.09-4.75-7.73-7.37c-1.31-1.3-6.66-7.45-5.69-9.36c0.75-1.48,8.45-0.22,10.18-0.19
				c-6.45-3.3-11.51-7.1-13.39-14.36c-1.31-5.05-2.76-10.08-4.32-14.85c3.25-0.34,6.63,0.94,9.87,1.04
				c-7.34-6.68-9.39-17.63-11.97-26.9c4.03,1.83,6.79,5.47,11.51,6.22c-1.23-3.95-3.69-7.49-5.46-11.2
				c-0.61-1.29-4.06-8.65-5.52-8.72c3.74,0.19,6.93-1.57,10.52-1.88c-4.07-1.02-6.87-4.19-9.75-7.13c-0.43-0.44-0.81-0.88-1.15-1.31
				c-1.79-2.24-2.43-4.37-2.98-6.82c0-0.01,0-0.01,0-0.02c-0.27-1.19-0.52-2.45-0.87-3.84c2.43-0.84,5.33-1.43,7.99-2.47l0,0
				c0.97-0.38,1.91-0.83,2.78-1.37c1.26-0.78,2.38-1.76,3.25-3.06c-3.61,0.15-7.12-0.47-10.44-1.58c-1.35-0.45-2.67-0.98-3.95-1.59
				c-2.55-1.21-4.59-2.22-6.85-3.85c-2.12-1.54-4.47-2.56-2.69-4.78c0.11-0.13,0.61-0.6,1.25-1.17c0.02-0.01,0.03-0.03,0.05-0.04
				c0.14-0.12,0.28-0.25,0.42-0.37c0.01-0.01,0.02-0.02,0.04-0.03c0.33-0.29,0.66-0.58,0.99-0.86c0.03-0.02,0.06-0.05,0.09-0.07
				c0.13-0.11,0.25-0.21,0.37-0.31c0.04-0.03,0.08-0.06,0.11-0.1c0.13-0.11,0.26-0.22,0.38-0.31c0.02-0.02,0.04-0.03,0.06-0.05
				c0.11-0.09,0.21-0.17,0.3-0.24c0.03-0.03,0.06-0.05,0.09-0.07c0.07-0.05,0.12-0.1,0.17-0.13c0.02-0.02,0.04-0.03,0.06-0.05
				c0.06-0.04,0.11-0.07,0.13-0.08c-2.76,0.98-5.62,1.02-8.48,0.49c-1.47-0.28-6.4-0.97-7.3-2.17c-2.04-2.73,5.71-7.3,8.04-8.07
				c-5.42,1.79-10.71,2.32-16.4,1.75c-3.16-0.32-7.39-0.43-10.33-1.25c1.3-1.24,1.98-3.02,3.22-4.32c1.63-1.71,3.87-2.88,5.52-4.48
				c-9.17-0.51-20.9,0.49-29.14,4.93c0.2-2.05,0.89-4.17,1.72-6.23c0.94-2.34,2.7-3.76,3.77-5.88c-10.61,2.51-22.54,4.79-28.46,15
				c-3.47-1.61-8.06-1.53-11.8-3.12c-4.13-1.76-8.05-4.05-11.76-6.57c0.59,4.28,5.28,9.45,2.3,14.26c-2.5,4.04-12.8,3.69-16.87,2.71
				c2.77,0.98,6.85,2.06,8.92,4.2c-0.39,0.15-0.76,0.31-1.13,0.47c-0.28,0.12-0.56,0.25-0.82,0.38c-0.06,0.03-0.13,0.06-0.2,0.09
				c-0.65,0.32-1.26,0.64-1.82,0.99c-3.72,2.24-5.71,5.11-7.9,9.75c-2.09,4.43-5.58,8.59-9.95,11.12c-0.32,0.19-0.64,0.36-0.97,0.53
				c-0.2,0.1-0.4,0.19-0.61,0.29c-0.2,0.09-0.4,0.18-0.6,0.27c-0.2,0.08-0.39,0.16-0.59,0.24c-0.25,0.1-0.51,0.19-0.77,0.27
				c-0.15,0.05-0.3,0.11-0.45,0.15c-0.4,0.12-0.81,0.23-1.22,0.32c-0.14,0.03-0.29,0.06-0.43,0.09c-0.31,0.06-0.63,0.12-0.95,0.16
				c-0.14,0.02-0.28,0.04-0.42,0.06c-0.45,0.05-0.9,0.09-1.36,0.11c0.62,0.19,1.26,0.37,1.92,0.54c0.14,0.04,0.28,0.07,0.42,0.1
				c0.54,0.14,1.09,0.27,1.64,0.39c0.11,0.02,0.22,0.05,0.33,0.07c0.61,0.13,1.23,0.26,1.86,0.37c0.05,0.01,0.1,0.02,0.15,0.03
				c0.69,0.13,1.39,0.24,2.09,0.34c0,0,0,0,0,0c1.87,0.27,3.73,0.46,5.53,0.55c0.28,0.01,0.57,0.03,0.84,0.04
				c-0.94,2.88-3.46,5.71-5.22,8.18c-2.45,3.45-5.92,4.61-9.08,6.86c3.25,0.23,6.36,0.14,9.59-0.33c1.76-0.26,2.03-1,3.19,0.34
				c0.83,0.96,0.53,3.21,0.22,4.29c-1.81,6.37-10.42,9.21-14.32,14.04c3.97,0.29,7.9,0.21,11.89,0.34c1.06,8.8-9.3,16.16-16.08,20.1
				c4.4,1.9,10.25,2.16,14.81,1.23c-0.2,8.73-4.55,20.52-11.63,26.15c2.89,0.49,6.58-0.63,9.2-1.52c2.23,2.26,1.84,5.28,0.82,8.01
				c-1.16,3.09-2.21,6.69-3.73,9.57c-2.51,4.76-5.16,10.44-9.21,14.03c2.87-0.55,5.67-1.62,8.35-2.38
				c1.81,3.56-1.67,9.15-3.73,11.91c-2.6,3.47-6.65,6.43-10.55,8.59c3.58,1.04,9.09-0.22,12.43-1.82
				c2.03,3.99-2.29,10.95-4.79,13.97c-3.21,3.87-9.25,4.13-12.72,7.17c3.06,3.02,9.88,1.73,13.71,1.52
				c3.9-0.21,7.95-0.71,11.67-2.05c1.81-0.65,3.54-1.51,5.14-2.62c3.94,3.94,12.58,14.79,16.84,14.49
				c-0.44-2.05,20.93-4.8,19.36-6.02c-1.82-1.41-2.74-2.81-3.89-4.75c4.42,0.09,8.57,2.08,13.25,2.08c3.24,0,6.28,2.09,6.28,3.72
				h28.35c0,0,0.27,0.64,0.88,1.95c0.02,0.05,0.05,0.09,0.08,0.14c0.08,0.16,0.17,0.31,0.29,0.46c2.38-3.1,5.42-5.01,8.96-6.75
				c3.87-1.91,9.09-4.87,13.52-4.54c0.58,3.52,5.1,5.2,6.94,8.1c2.04-3.4,6.27-7.89,9.25-10.23c1.62,3.57,7.1,3.71,10.42,4.22
				c5.63,0.86,11.3,1.33,16.99,1.02c-1.62-3.09-4.47-5.35-6.12-8.38c0.34,0.07,0.7,0.12,1.05,0.18l0.01,0.09
				c1.7,0.46,3.49,0.62,5.32,0.6c6.35,0.47,13.07-0.18,18.85-2.08C222.07,240.61,218.43,240.08,215.93,238.89z"/>
			<g>
				<path class="st1" d="M184.8,116.88c-0.62-2.88-2.36-5.22-3.2-8.02c-0.29-0.96-0.47-1.97-0.47-3.07
					c0.01-2.12-0.45-4.34-2.07-5.85c-1.46-1.35-2.93-0.16-3.17,1.69c-0.25,1.88,1.32,3.53,2.03,5.23c0.31,0.75,0.62,1.53,0.95,2.33
					C180.15,112.27,181.73,115.44,184.8,116.88z"/>
				<path class="st1" d="M91.95,159.65c-0.84-4.44-7.27-2.4-8.46,0.77c-1.55,4.11-3.61,7.84-5.58,11.8c2-1.7,4.19-3.26,6.39-4.68
					C87.12,165.72,92.78,164.02,91.95,159.65z"/>
				<path class="st1" d="M103.08,170.94c-1.12,0.7-1.42,1.35-1.76,2.56c-0.41,1.46-0.93,2.86-1.39,4.31
					c-0.31,0.98-0.61,1.97-0.89,2.96c-0.12,0.42-0.34,2.46-0.63,2.66c2.99-2.14,6.52-4.84,7.9-8.41c0.4-1.04,1.09-3.49,0.4-4.53
					C105.87,169.25,104.07,170.32,103.08,170.94z"/>
				<path class="st1" d="M76.87,118.48c0.98-1.86-0.84-2.55-2.36-2.22c-1.72,0.38-2.98,1.73-4.18,2.9c-1.4,1.37-2.88,2.99-4.42,4.17
					c-1.25,0.97-2.37,1.99-3.52,3.08c2.59,0,5.2-1.55,7.48-2.58C72.38,122.7,75.54,121.02,76.87,118.48z"/>
				<path class="st1" d="M120.68,150.41c-1.62,0.15-3.6,2.4-3.82,3.96c-0.21,1.5-0.28,2.64-0.95,4.06
					c-0.38,0.81-1.31,3.49-2.15,3.91c2.87-1.41,6.06-3.61,7.55-6.58C122,154.36,123.56,150.15,120.68,150.41z"/>
				<path class="st1" d="M77.21,128.32c-1.97-1.28-5.66,1.12-6.48,3.06c-1.35,3.21-3.45,5.91-5.87,8.48
					c1.45,0.28,3.21-0.59,4.49-1.19c2.37-1.11,5.69-2.23,7.53-4.07C78.59,132.88,79.65,129.91,77.21,128.32z"/>
				<path class="st1" d="M158.09,186.52c-1.98,1.07-1.49,4.42-2.11,6.23c-0.83,2.46-1.59,5.31-2.73,7.61
					c3.32-2.13,7.51-6.37,7.79-10.56C161.15,188.18,160.13,185.41,158.09,186.52z"/>
				<path class="st1" d="M124.21,182.48c-1.98,1.07-1.49,4.42-2.11,6.23c-0.83,2.46-1.59,5.31-2.73,7.61
					c3.32-2.13,7.51-6.37,7.79-10.56C127.27,184.14,126.25,181.38,124.21,182.48z"/>
				<path class="st1" d="M99.23,221.45c-2.42,0.25-2.37,3.12-2.93,4.82c-0.3,0.92-2.01,7.17-2.86,7.31c3.06-0.49,5.56-4.6,6.8-7.15
					C100.96,224.95,102.65,221.1,99.23,221.45z"/>
				<path class="st1" d="M57.48,226.45c-1.46,0.65-2.01,2.78-2.7,4.07c-0.77,1.46-1.3,2.95-2.34,4.23c-1.11,1.38-2.5,2.63-3.76,3.84
					c3.37,0,7.86-2.85,10.33-5.03c1.08-0.95,1.9-2.49,2.29-3.83C61.86,227.77,59.3,225.63,57.48,226.45z"/>
				<path class="st1" d="M82.43,231.85c0.08-2.98-3.73-8.03-6.76-4.77c-1.71,1.83,0.4,5.72,1.54,7.38c1.89,2.75,4.4,4.45,6.65,6.75
					C81.03,238.31,82.33,235.38,82.43,231.85z"/>
				<path class="st1" d="M70.35,158.99c-0.31-1.62-1.26-1.94-2.57-0.98c-1.11,0.81-1.16,1.69-1.41,2.96
					c-0.29,1.44-1.68,2.65-2.41,3.9c-0.93,1.59-1.87,3.2-2.84,4.76c-0.64,1.03-2.13,1.96-2.47,3.02c1.96,0.13,5.02-2.57,6.33-3.84
					C67.1,166.75,70.95,162.15,70.35,158.99z"/>
				<path class="st1" d="M64.57,197.14c-1.2-0.44-3.04,0.76-3.75,1.58c-1.16,1.33-2.86,2.06-4.15,3.24c-1.31,1.2-2.89,2.6-3.69,4.2
					c3.82-1.34,8.6-2.09,11.72-4.86C65.77,200.35,66.32,197.77,64.57,197.14z"/>
				<path class="st1" d="M75.3,207.9c0.54-1.46,0.78-3.98-0.94-4.87c-1.47-0.75-3.68,1.01-4.14,2.43c-0.26,0.83-0.1,1.57-0.4,2.44
					c-0.34,0.97-0.94,1.87-1,2.93c-0.17,3.44,2.25,8.11,5.67,9.25C73.15,216.13,73.92,211.66,75.3,207.9z"/>
				<path class="st1" d="M98.1,212.68c-2.55-2.77-3.09-5.98-2.32-9.51c1-4.58-5.53-6.58-6.02-1.72c-0.19,1.87,1.42,4.01,2.48,5.4
					C93.95,209.1,95.55,211.35,98.1,212.68z"/>
				<path class="st1" d="M128.48,227.11c-2.55-2.77-3.09-5.98-2.32-9.51c1-4.58-5.53-6.58-6.02-1.72c-0.19,1.87,1.42,4.01,2.48,5.4
					C124.33,223.53,125.92,225.77,128.48,227.11z"/>
				<path class="st1" d="M182.72,126.45c-1.82-0.23-2.88,2.42-3.13,3.96c-0.32,1.86,1.08,3.51,1.93,5.08
					c1.41,2.58,3.32,5.27,5.4,7.29c-0.86-3.84-1.27-8.24-1.3-12.27C185.61,128.85,184.59,126.68,182.72,126.45z"/>
				<path class="st1" d="M183.01,155.49c-1.14-0.28-2.29,0.33-2.68,1.38c-0.7,1.86,0.72,4.53,1.48,6.14
					c0.63,1.33,1.48,2.57,1.97,3.97c0.27,0.78,0.29,1.54,0.79,2.2c-0.48-1.46,0.05-3.03,0.25-4.47c0.26-1.81-0.08-3.56,0-5.36
					C184.89,157.8,184.92,155.96,183.01,155.49z"/>
				<path class="st1" d="M184.96,201.99c-0.01-2.07-2.79-7.31-5.1-4.29c-1.36,1.78-0.24,4.96,0.37,6.79
					c0.95,2.88,2.91,6.12,5.41,7.89C183.97,209.41,184.97,205.23,184.96,201.99z"/>
				<path class="st1" d="M197.51,226.33c-1.07-1.68-4.79-4.56-6.7-2.68c-2.58,2.52,1.47,4.78,3.13,5.98
					c2.24,1.63,5.59,4.35,8.42,4.74C199.85,232.91,199.02,228.69,197.51,226.33z"/>
				<path class="st1" d="M194.53,192.58c0.36,0.65,2.67,3.4,2.6,3.94c0.2-1.39-0.95-2.93-1.19-4.28c-0.32-1.83-0.44-3.99-0.54-5.85
					c-0.1-1.91-0.85-3.24-2.6-4.08c-1.53-0.74-3.86-0.04-3.58,2.11c0.16,1.25,1.97,2.53,2.69,3.59
					C192.89,189.47,193.67,191.05,194.53,192.58z"/>
				<path class="st1" d="M175.32,174.51c0.06-1.82,0.49-4.14-0.82-5.68c-1.01-1.18-3.23-1.21-4.33-0.13
					c-1.88,1.83-0.2,5.55,0.53,7.55c1.32,3.61,3.2,7.38,5.67,10.13C174.88,182.76,175.18,178.42,175.32,174.51z"/>
				<path class="st1" d="M169.87,228.45c0.29-1.63,0.45-4.43-1.9-4.67c-1.84-0.19-2.63,2.31-2.93,3.69
					c-0.43,2.03,0.45,3.88,1.15,5.8c1.21,3.33,3.41,5.11,5.96,7.39C170.08,237.44,169.2,232.22,169.87,228.45z"/>
				<path class="st1" d="M144.4,234.36c-2.66,0.69-1.86,4.63-2.38,6.72c-0.6,2.41-1.56,4.65-3.6,6.07c-0.5,0.35-1.01,0.64-1.51,0.97
					c2.2-0.03,3.7-0.54,5.64-1.59c2.87-1.56,3.93-3.38,4.79-6.47C147.95,237.84,148.24,233.36,144.4,234.36z"/>
				<path class="st1" d="M129.83,131.14c0.6-2.95-2.59-7.15-4.91-3.42c-1.36,2.19-0.34,5.49,0.58,7.64c1.08,2.55,2.99,3.89,4.77,5.8
					C128.87,138.01,129.16,134.42,129.83,131.14z"/>
				<path class="st1" d="M141.34,157.63c-1.11,2.38,0.26,5.62,1.21,7.79c0.93,2.12,2.31,4.82,3.85,6.53
					c-1.86-3.39-0.12-7.82,0.25-11.46C146.97,157.38,143.22,153.59,141.34,157.63z"/>
				<path class="st1" d="M155.72,216.52c-0.97,0.98-0.26,0.98-0.74,2.21c-0.44,1.13-1.45,2.2-2.25,3.07
					c-1.79,1.96-4.09,3.56-5.78,5.53c4.61-0.28,9.39-3.83,12.65-6.85c1.09-1.01,2.41-2.58,1.43-4.09
					C159.84,214.58,157.03,215.21,155.72,216.52z"/>
				<path class="st1" d="M170.72,139.81c-1.74-0.82-4.22,0.26-5.46,1.51c-1.45,1.46-1.37,3.56-1.71,5.46
					c-0.31,1.73-0.88,3.91-0.77,5.63c1.12-0.48,2.78-1.82,3.71-2.78C168.09,148,175.14,141.9,170.72,139.81z"/>
				<path class="st1" d="M94.27,76.76c2.27-0.05,8.55-0.3,7.1-4.29c-1.15-3.17-7.41-0.04-9.53,0.59c-2.88,0.87-6.31,1.9-9.17,1.94
					c0.94,0.25,1.86,0.49,2.75,0.7C88.34,76.4,91.1,76.84,94.27,76.76z"/>
				<path class="st1" d="M130.74,64.45c-1.79-1.51-5.27-0.89-7.38-0.53c-2.81,0.48-5.78,1.14-8.45,2.11
					c-1.32,0.48-2.64,1.17-3.66,2.16c-2.03,1.96,0.93,2.53,2.39,2.41c1.86-0.15,3.81-0.84,5.49-1.63
					C122.89,67.18,126.56,64.87,130.74,64.45z"/>
				<path class="st1" d="M105.46,78.33c-0.35,0.63-0.29,1.58-0.65,2.29c-0.49,0.97-1.15,1.85-1.8,2.71
					c-2.16,2.9-5.76,4.54-8.58,6.08c4.5-1,11.09-3.27,13.9-7.18c0.77-1.06,2.14-3.66,1.22-5C108.61,75.87,106.12,77.15,105.46,78.33
					z"/>
				<path class="st1" d="M85.87,102.59c1.47-0.95,3.66-4.28,0.34-4.33c-2.35-0.03-4.45,2.57-6.28,3.73
					c-1.91,1.2-3.99,2.29-5.97,3.45c-0.9,0.53-1.79,1.07-2.61,1.65c1.93,0.3,4.33-0.49,6.36-1.05c0.36-0.1,0.72-0.19,1.05-0.27
					C81.21,105.21,83.76,103.96,85.87,102.59z"/>
				<path class="st1" d="M144.82,90.07c3.03,1.29,8.2,3.48,11.45,2.27c-3.97-0.7-7.21-3.6-9.9-6.34c-1.52-1.55-5.61-4.16-7.81-3.94
					c-1.32,0.13-2.87,1.06-2.23,2.48c0.38,0.85,1.7,1.36,2.38,1.85C140.6,87.77,142.68,89.16,144.82,90.07z"/>
				<path class="st1" d="M78.74,90.34c1.34-0.94,2.04-2.74,0.39-3.73c-1.4-0.85-3.85,0.01-5.21,0.72c-1.13,0.58-1.73,1.59-2.68,2.42
					c-2.41,2.09-5.03,3.92-7.53,5.89c2.31-0.23,4.6-1.06,6.83-1.76C73.34,93.01,76.31,92.04,78.74,90.34z"/>
				<path class="st1" d="M121.87,105.92c-3.33-2.63-1.96,2.26-1.17,4.96c0.21,0.7,0.37,1.25,0.41,1.49c0.29,1.96,0.3,4.17,1.09,5.93
					c-0.25-0.56,0.64-2.59,0.79-3.21c0.27-1.11,0.53-2.24,0.64-3.38c0.02-0.21,0.03-0.43,0.04-0.65
					C123.75,109.2,123.39,107.11,121.87,105.92z"/>
				<path class="st1" d="M152.84,75.31c-1.38-0.42-3.16-0.16-4.61-0.16c-1.9,0-3.7-0.28-5.58-0.53c-1.59-0.21-3.24-0.35-4.79-0.73
					c-1.31-0.32-2.51-0.96-3.9-0.86c-1.77,0.13-5.57,1.37-2.54,3.28c1.81,1.14,4.28,1.32,6.34,1.71
					C143.11,79.04,148.14,77.57,152.84,75.31z"/>
				<path class="st1" d="M121.65,88.26c-0.05-0.38-0.13-0.76-0.23-1.14c-0.44-1.71-1.48-4.69-3.42-5.23
					c-2.51-0.7-2.26,2.46-1.93,4.01c0.61,2.86,2.02,5.8,3.62,8.25c1.28,1.95,2.45,4.96,4.61,5.96c-0.23-0.67-0.8-1.12-1.14-1.73
					c-0.52-0.92-0.73-1.97-1-2.98C121.54,93.06,121.99,90.61,121.65,88.26z"/>
				<path class="st1" d="M164.11,91.23c4.52,2.05,9.45,2.41,14.34,2.41c-3.87-0.01-8.2-3.56-11.3-5.55
					c-1.69-1.09-8.4-6.62-10.02-2.96c-0.5,1.14,0.49,2.2,1.26,2.98C159.95,89.7,162.13,90.34,164.11,91.23z"/>
			</g>
		</g>
		<g>
			<path class="st3" d="M114.26,169.83c-8.62-9.78-14.25-21.51-17.61-34.72c-7.71,11.08-11.43,21.24-8.29,29.84
				c6.21,0.4,11.6,2.94,17.18,4.88C108.45,169.8,111.36,169.78,114.26,169.83z"/>
			<path class="st3" d="M142.98,170.73c7.97-8.3,13.05-18.48,16-30.06c6.27,9,9.3,17.27,6.74,24.27
				C157.56,165.45,151.15,170.53,142.98,170.73z"/>
			<path d="M63.44,154.23c0,0,70.69,39.88,124.16-4.53C187.6,149.7,140.47,201.36,63.44,154.23z"/>
		</g>
		<g>
			<path class="st1" d="M127.35,109.91c0,14.58-11.53,26.39-25.75,26.39c-14.22,0-25.75-11.82-25.75-26.39
				c0-14.58,11.53-26.39,25.75-26.39C115.83,83.52,127.35,95.34,127.35,109.91z"/>
			<ellipse class="st1" cx="153.2" cy="107.34" rx="21.98" ry="21.24"/>
			<path class="st3" d="M123.86,104.73c0,11.02-9.79,19.95-21.86,19.95c-12.07,0-21.86-8.93-21.86-19.95
				c0-11.02,9.78-19.95,21.86-19.95C114.08,84.78,123.86,93.71,123.86,104.73z"/>
			<path class="st4" d="M122.41,109.6c-12.65,18.83-40.26,6.69-42.26-4.98c0,0.04-0.01,0.07-0.01,0.11
				c0,11.02,9.78,19.95,21.86,19.95c10.45,0,19.18-6.7,21.34-15.65C123.04,109.23,122.74,109.42,122.41,109.6z"/>
			<path class="st3" d="M172.25,102.63c0,9.86-8.75,17.85-19.56,17.85c-10.8,0-19.55-7.99-19.55-17.85
				c0-9.86,8.75-17.85,19.55-17.85C163.49,84.78,172.25,92.77,172.25,102.63z"/>
			<path class="st4" d="M170.95,106.99c-11.32,16.85-36.01,5.99-37.81-4.45c0,0.03-0.01,0.06-0.01,0.09
				c0,9.86,8.75,17.85,19.55,17.85c9.35,0,17.16-5.99,19.09-14C171.51,106.65,171.24,106.83,170.95,106.99z"/>
			<path d="M111.49,94.01c0,2.48-2.01,4.49-4.49,4.49c-2.48,0-4.49-2.01-4.49-4.49s2.01-4.49,4.49-4.49
				C109.48,89.52,111.49,91.53,111.49,94.01z"/>
			<path d="M161.45,94.15c0,2.48-2.01,4.49-4.49,4.49c-2.48,0-4.49-2.01-4.49-4.49s2.01-4.49,4.49-4.49
				C159.44,89.67,161.45,91.68,161.45,94.15z"/>
		</g>
	</g>
	<g>
		<g>
			<g>
				<path class="st5" d="M161.23,75.8l-0.52-1.72c4.03-1.21,6.24-5.64,6.06-9.43c-1.91,0.31-4.66,0-6.55-0.83
					c-1.37-0.6-2.25-1.42-2.63-2.42c-0.47-1.27-0.21-2.56,0.7-3.54c1.14-1.23,3.13-1.79,4.74-1.33c2.67,0.77,4.42,3.25,5.14,5.68
					c2.1-1.18,3.52-3.17,3.8-5.37c0.15-1.2-0.19-2.71-0.85-4.15c-2.09,1.08-4.39,1.55-6.24,1.34c-2.83-0.32-4.44-2.14-4.21-4.76
					c0.12-1.33,0.8-2.31,1.96-2.82c2.1-0.93,5.31-0.05,6.69,0.99c0.87,0.65,1.72,1.6,2.45,2.71c1.62-1.22,2.88-2.94,3.17-5.09
					c0.26-1.89-0.44-3.76-1.55-5.27c-0.71,1.91-2.36,3.62-6.32,3.62h0c-2.05,0-3.67-1.07-4.33-2.85c-0.62-1.65-0.24-3.45,0.94-4.48
					c2.08-1.81,4.84-2,7.58-0.52c0.3,0.16,0.59,0.34,0.89,0.55c0-0.02,0-0.04,0-0.06c0.01-0.29,0.02-0.56,0.04-0.81
					c0.03-0.5,0.14-1.21,0.26-2.03c0.38-2.5,1.08-7.14-0.31-8.36c-0.15-0.13-0.59-0.52-1.9-0.13l-0.51-1.73
					c1.5-0.44,2.71-0.27,3.59,0.5c2.14,1.87,1.43,6.56,0.91,9.99c-0.12,0.78-0.22,1.45-0.25,1.87c-0.02,0.24-0.02,0.5-0.03,0.76
					c-0.02,0.44-0.03,0.94-0.09,1.47c1.9,2,3.25,4.82,2.86,7.71c-0.38,2.78-2,4.94-4.06,6.43c0.83,1.72,1.3,3.63,1.09,5.32
					c-0.37,2.96-2.35,5.58-5.23,6.99C169.06,69.23,165.89,74.4,161.23,75.8z M161.84,58.17c-0.82,0-1.7,0.35-2.23,0.91
					c-0.45,0.49-0.57,1.06-0.33,1.69c0.19,0.52,0.77,1.01,1.66,1.4c1.68,0.74,4.1,0.94,5.54,0.7c-0.54-1.94-1.91-4.02-3.96-4.61
					C162.31,58.19,162.08,58.17,161.84,58.17z M164.71,47.87c-0.5,0-0.96,0.07-1.34,0.24c-0.55,0.25-0.84,0.67-0.9,1.34
					c-0.18,2.06,1.32,2.66,2.62,2.81c1.5,0.17,3.42-0.23,5.17-1.13c-0.58-0.89-1.27-1.67-2.01-2.23
					C167.54,48.36,166.02,47.87,164.71,47.87z M167.64,36.4c-0.9,0-1.86,0.27-2.77,1.06c-0.6,0.52-0.79,1.57-0.44,2.49
					c0.19,0.51,0.83,1.68,2.65,1.68h0c3.55,0,4.57-1.5,4.9-3.36c-0.5-0.44-1.03-0.81-1.57-1.1C169.75,36.81,168.75,36.4,167.64,36.4
					z"/>
			</g>
			<g>
				<path class="st0" d="M191.03,1.27c3.74,2.32,5.05,7.4,4.03,11.69s-3.9,7.88-7.03,10.98c-4.66,4.61-10.06,8.48-15.92,11.42
					c-1.66-5.08-6.2-8.55-10.18-12.12c-3.98-3.56-7.88-8.17-7.54-13.51c0.33-5.07,5.03-9.39,10.11-9.53
					c5.08-0.13,9.91,3.75,11.11,8.68c0.98-3.16,3.04-6.06,5.95-7.65C184.46-0.35,188.21-0.48,191.03,1.27z"/>
			</g>
			<path class="st5" d="M163.3,73.93c0.23,0.86-1.32,2.01-3.44,2.57c-2.13,0.56-4.04,0.32-4.26-0.54c-0.23-0.86,1.31-2.01,3.44-2.57
				C161.17,72.83,163.08,73.07,163.3,73.93z"/>
		</g>
		<g>
			<g>
				<path class="st5" d="M84.53,75.8l0.52-1.72c-4.03-1.21-6.24-5.64-6.06-9.43c1.91,0.31,4.66,0,6.55-0.83
					c1.37-0.6,2.25-1.42,2.63-2.42c0.47-1.27,0.21-2.56-0.7-3.54c-1.14-1.23-3.13-1.79-4.74-1.33c-2.67,0.77-4.42,3.25-5.14,5.68
					c-2.1-1.18-3.52-3.17-3.8-5.37c-0.15-1.2,0.19-2.71,0.85-4.15c2.09,1.08,4.39,1.55,6.24,1.34c2.83-0.32,4.44-2.14,4.21-4.76
					c-0.12-1.33-0.8-2.31-1.96-2.82c-2.1-0.93-5.31-0.05-6.69,0.99c-0.87,0.65-1.72,1.6-2.45,2.71c-1.62-1.22-2.88-2.94-3.17-5.09
					c-0.26-1.89,0.44-3.76,1.55-5.27c0.71,1.91,2.36,3.62,6.32,3.62h0c2.05,0,3.67-1.07,4.33-2.85c0.62-1.65,0.24-3.45-0.94-4.48
					c-2.08-1.81-4.84-2-7.58-0.52c-0.3,0.16-0.59,0.34-0.89,0.55c0-0.02,0-0.04,0-0.06c-0.01-0.29-0.02-0.56-0.04-0.81
					c-0.03-0.5-0.14-1.21-0.26-2.03c-0.38-2.5-1.09-7.14,0.31-8.36c0.15-0.13,0.59-0.52,1.9-0.13l0.51-1.73
					c-1.5-0.44-2.71-0.27-3.59,0.5c-2.14,1.87-1.43,6.56-0.91,9.99c0.12,0.78,0.22,1.45,0.25,1.87c0.02,0.24,0.02,0.5,0.03,0.76
					c0.02,0.44,0.03,0.94,0.09,1.47c-1.9,2-3.25,4.82-2.86,7.71c0.38,2.78,2,4.94,4.06,6.43c-0.83,1.72-1.3,3.63-1.09,5.32
					c0.37,2.96,2.35,5.58,5.23,6.99C76.7,69.23,79.86,74.4,84.53,75.8z M83.91,58.17c0.82,0,1.7,0.35,2.23,0.91
					c0.45,0.49,0.57,1.06,0.33,1.69c-0.19,0.52-0.77,1.01-1.66,1.4c-1.68,0.74-4.1,0.94-5.54,0.7c0.54-1.94,1.91-4.02,3.96-4.61
					C83.44,58.19,83.68,58.17,83.91,58.17z M81.05,47.87c0.5,0,0.96,0.07,1.34,0.24c0.55,0.25,0.84,0.67,0.9,1.34
					c0.18,2.06-1.32,2.66-2.62,2.81c-1.5,0.17-3.42-0.23-5.17-1.13c0.58-0.89,1.27-1.67,2.01-2.23
					C78.21,48.36,79.74,47.87,81.05,47.87z M78.11,36.4c0.9,0,1.86,0.27,2.77,1.06c0.6,0.52,0.79,1.57,0.44,2.49
					c-0.19,0.51-0.83,1.68-2.65,1.68h0c-3.55,0-4.57-1.5-4.9-3.36c0.5-0.44,1.03-0.81,1.57-1.1C76,36.81,77.01,36.4,78.11,36.4z"/>
			</g>
			<g>
				<path class="st0" d="M54.73,1.27c-3.74,2.32-5.05,7.4-4.03,11.69c1.02,4.28,3.9,7.88,7.03,10.98
					c4.66,4.61,10.06,8.48,15.92,11.42c1.66-5.08,6.2-8.55,10.18-12.12c3.98-3.56,7.88-8.17,7.54-13.51
					c-0.33-5.07-5.03-9.39-10.11-9.53c-5.08-0.13-9.91,3.75-11.11,8.68c-0.98-3.16-3.04-6.06-5.95-7.65
					C61.3-0.35,57.54-0.48,54.73,1.27z"/>
			</g>
			<path class="st5" d="M82.46,73.93c-0.23,0.86,1.31,2.01,3.44,2.57c2.13,0.56,4.04,0.32,4.26-0.54c0.23-0.86-1.32-2.01-3.44-2.57
				C84.59,72.83,82.68,73.07,82.46,73.93z"/>
		</g>
	</g>
</g>
</svg>
