<?xml version="1.0" encoding="utf-8"?>
<!-- Generator: Adobe Illustrator 24.0.1, SVG Export Plug-In . SVG Version: 6.00 Build 0)  -->
<svg version="1.1" id="Layer_1" xmlns="http://www.w3.org/2000/svg" xmlns:xlink="http://www.w3.org/1999/xlink" x="0px" y="0px"
	 viewBox="0 0 453.92 537.98" style="enable-background:new 0 0 453.92 537.98;" xml:space="preserve">
<style type="text/css">
	.st0{fill:#FFFFFF;}
	.st1{fill:#009444;}
	.st2{fill:#8DC63F;}
	.st3{fill:#231F20;}
	.st4{fill:#FFDE17;}
</style>
<path class="st0" d="M119.02,65.31c-0.48-1.9-2.59-3.05-4.46-3.02c-1.12,0.02-2.02,0.26-3.02,0.78c-0.58,0.3-1.14,0.73-1.59,1.2
	c-2.02,2.1-1.99,5.25-0.03,7.36c0.8,0.86,2.29,1.49,3.47,1.44c1.22-0.05,2.66-0.45,3.47-1.44c0.29-0.36,0.65-0.73,0.88-1.15
	c0.09-0.18,0.16-0.34,0.23-0.51c0.55-0.48,0.83-1,1.13-1.71C119.45,67.38,119.39,66.23,119.02,65.31z"/>
<path class="st0" d="M345.82,66.14c-6.64,0-6.65,10.31,0,10.31C352.46,76.46,352.47,66.14,345.82,66.14z"/>
<g>
	<g>
		<path class="st1" d="M206.1,305.84c-7.88,5.01-11.61,14.42-14.5,23.31c-11.22,34.52-16.09,70.63-16.46,106.86
			c-0.18,17,14.28,68.28-1.89,79.46c-10.55,7.3-16.02,13.17,1.15,18.04c7.13,2.02,18.66-0.57,24.4-5.18
			c3.15-2.53,5.01-6.35,6.14-10.22c3.06-10.48,1.43-21.66,0.45-32.54s-1.11-22.5,4.47-31.89c5.57-9.39,18.79-14.98,27.86-8.9
			c9.22,6.18,9.12,19.53,8,30.58c-1.32,13.09-2.64,26.19-3.97,39.28c-0.43,4.28-0.81,8.85,1.18,12.66
			c5.06,9.67,44.14,16.88,47.72,2.84c2.66-10.44-11.78-12.34-15.96-20.14c-4.47-8.33-1.95-20.55-0.11-29.24
			c13.16-62.13,8.08-128.01-14.42-187.4L206.1,305.84z"/>
		<path class="st1" d="M204.5,312.49c1.99-3.31-1.6-7.04-5.08-6.63c-6.6,0.78-12.43,4.92-17.78,8.6
			c-5.37,3.69-10.47,7.73-15.25,12.16c-9.64,8.93-18.25,19.11-25.35,30.17c-2.47,3.84-5.59,8.21-7.25,12.8
			c-11.82,0.93-23.65,8.38-32.69,15.24c-2.03,1.54-2.77,5.1-1.49,7.32c0.24,0.42,0.52,0.97,0.86,1.3c2.51,2.43,5.77,2.74,8.63,0.62
			c4.8-3.56,9.74-7.01,14.93-9.98c2.97-1.71,6.06-3.37,9-5.22c0.03,0.12,0.08,0.24,0.11,0.36c-3.38,2.69-6.2,6.1-9.01,9.37
			c-3.96,4.6-7.9,9.21-11.76,13.9c-1.58,1.92-1.04,4.89,0.38,6.69c0.63,0.8,1.43,1.15,2.31,1.58c2.31,1.14,4.92-0.35,6.36-2.07
			c3.74-4.45,7.4-8.95,11.04-13.48c1.93-2.4,3.96-4.86,5.69-7.47c-2.48,8.28-3.91,16.88-5.66,25.35c-1.36,6.59,9.39,7.5,10.57,0.76
			c1.55-8.9,3.44-17.78,3.98-26.79c2.08-0.67,3.8-1.9,5.31-3.44c0.82,1.89,1.67,3.77,2.29,5.75c1.32,4.17,1.14,8.04,1.32,12.3
			c0.11,2.74,1.48,5.08,4.33,5.68c2.41,0.51,5.61-0.83,6.24-3.46c2.1-8.7-0.99-22.01-9.03-27.44c0.71-1.19,1.4-2.36,2.1-3.44
			c3.89-6.03,8.07-11.87,12.45-17.56c4.72-6.13,9.67-12.09,14.91-17.78c2.82-3.06,5.72-6.06,8.66-9.01
			c2.94-2.95,6.68-5.75,8.75-9.39C205.64,317.01,205.52,314.48,204.5,312.49z"/>
		<path class="st1" d="M357.21,386.43c-5.04-4.31-10.76-7.9-16.63-10.97c-4.6-2.4-9.28-4.43-14.36-4.79
			c-0.13-0.32-0.26-0.65-0.4-0.97c-5.27-12.02-13.64-23.4-22.23-33.24c-4.91-5.63-10.27-10.83-15.9-15.74
			c-5.79-5.05-12.06-10.59-19.36-13.25c-4.63-1.69-9.21,2.11-9.73,6.35c-2.3,1.09-3.51,4.18-1.58,6.84
			c8.11,11.2,17.63,21.35,25.72,32.62c3.94,5.48,7.56,11.17,10.91,17.03c1.84,3.22,3.43,6.8,5.24,10.2
			c-3.75,2.68-5.96,6.54-6.98,11.41c-1.14,5.47-0.82,12.27,3.16,16.57c1.14,1.23,3.06,2.15,4.78,1.64
			c6.38-1.88,2.87-7.75,2.47-12.23c-0.28-3.1,0.7-6.35,2.17-9.26c1.46,1.46,3.16,2.62,4.98,3.42c0.36,5.37,1.84,10.59,3.25,15.78
			c1.44,5.28,2.38,15.43,8.66,16.91c2.49,0.59,4.47-0.01,6.1-1.98c4.2-5.09-1.22-13.62-3.33-18.8c-1.57-3.86-3.12-7.76-5.13-11.4
			c0.87-0.31,1.71-0.73,2.53-1.25c1.26,2.3,2.76,4.49,4.26,6.61c3.18,4.51,6.45,9.04,10.07,13.21c5.43,6.27,14.52-1.84,9.64-8.34
			c-3.31-4.41-7.03-8.56-10.76-12.62c-2.26-2.46-4.67-4.89-7.39-6.87c0.31-1.14,0.47-2.31,0.53-3.5c2.67,1.61,5.47,3.05,8.19,4.63
			c5.39,3.14,10.25,6.88,15.09,10.79C356.57,399.59,362.34,390.81,357.21,386.43z"/>
	</g>
	<g>
		<path class="st1" d="M112.25,162.45c-4.93-18.65-9.9-37.4-17.98-54.91C87.6,93.09,76.69,78.2,60.86,76.56
			c-6.32-0.66-12.68,0.96-18.55,3.38c-22.73,9.39-39.48,31.88-41.97,56.34c-2.78,27.36,11.37,54.24,31.15,73.35
			c19.77,19.11,44.74,31.77,69.29,44.14L112.25,162.45z"/>
		<path class="st1" d="M344.74,146.25c2.3-19.15,4.62-38.41,10.19-56.88c4.6-15.23,13.34-31.49,28.78-35.31
			c6.16-1.52,12.69-0.81,18.84,0.78c23.81,6.14,43.52,26.09,49.37,49.98c6.55,26.71-3.74,55.3-20.68,76.96
			c-16.93,21.66-39.9,37.66-62.5,53.33L344.74,146.25z"/>
		<path class="st1" d="M268.7,89.69c-3.2-8.66-6.61-17.24-10.21-25.76c-1.49-3.52-3.01-7.02-4.56-10.51
			c-4.64-10.45-9.57-20.78-14.73-30.97c-1.55-3.08-3.13-6.15-4.73-9.21c-1.44-2.76-2.9-5.5-4.37-8.23
			c-3.58-6.65-13.96-6.94-16.69,0.72c-2.35,6.59-4.59,13.21-6.68,19.87c-1.34,4.22-2.61,8.46-3.83,12.7
			c-2.54,8.8-4.82,17.64-6.85,26.59c-0.84,3.7-1.65,7.41-2.42,11.11c-0.74,3.61-1.45,7.22-2.1,10.85l0,0.01
			c-0.44,2.45-0.86,4.9-1.26,7.37c-0.83,5.21-1.75,10.44-2.27,15.69c-0.51,5.25-0.26,10.62-0.19,15.9c0.06,4.45,6.64,6.77,8.2,1.86
			c0.13-0.37,0.23-0.73,0.34-1.11c0.69,0.21,1.4,0.33,2.1,0.3c14.94-0.6,29.41-2.86,43.68-7.42c6.93-2.22,14.3-4.57,20.65-8.19
			C271.4,106.34,271.85,98.24,268.7,89.69z M211.78,104.69c0.27-1.27,0.52-2.54,0.79-3.8c0.47,1.11,1.15,2.1,1.97,2.97
			C213.62,104.12,212.7,104.41,211.78,104.69z"/>
		<path class="st2" d="M98.77,279.2c-6.6-14.37-7.32-31.37-6.37-47.42c2.03-34.13,4.16-83.07,30.93-108.23
			c35.51-33.37,118.88-25.73,163.86-25.41c43.1,0.31,65.76,17.44,73.42,60.54c3.29,18.54,5.66,37.25,7.09,56.03
			c1.9,24.86,1.59,51.79-12.85,72.11c-18.98,26.71-55.54,33.14-88.27,34.63c-31.1,1.42-62.31,0.39-93.25-3.07
			c-25.76-2.88-54-9.03-69.22-30.01C102.01,285.48,100.25,282.4,98.77,279.2z"/>
		<path class="st2" d="M239.2,22.45c-5.93,1.86-11.75,4.05-17.46,6.53c-6.42,2.78-12.74,5.89-18.84,9.32
			c1.22-4.24,2.49-8.48,3.83-12.7c3.52-1.97,7.12-3.83,10.8-5.53c5.52-2.56,11.19-4.82,16.94-6.82
			C236.08,16.29,237.65,19.37,239.2,22.45z"/>
		<path class="st2" d="M258.5,63.93c-4.64,1.01-9.38,1.75-13.63,2.88c-9.29,2.5-18.45,5.4-27.43,8.84
			c-8.78,3.36-17.45,7.09-25.91,11.18c0.65-3.63,1.36-7.24,2.1-10.85c6.65-3.5,13.46-6.66,20.45-9.5c9.16-3.72,18.54-7,28.05-9.7
			c3.63-1.03,7.67-2.33,11.8-3.38C255.49,56.91,257.01,60.41,258.5,63.93z"/>
		<g>
			<path class="st3" d="M358.8,207.92c1.3-14.85-8.41-28.73-21.82-34.6c-15.87-6.94-34-1.75-46.75,9.08
				c-13.4,11.39-24.89,30.69-26.47,48.4c-0.14,1.6,0.23,3.08,0.92,4.36c0.23,3.08,1.27,6.07,3.5,8.83
				c5.06,6.25,14.86,8.22,22.48,8.97c14.61,1.44,29.07-1.86,41.72-9.28C344.83,236.38,357.5,222.9,358.8,207.92z"/>
			<path class="st3" d="M194.72,206.36c-1.82-1.54-3.73-2.95-5.7-4.26c-4.31-4.12-9.23-7.57-13.78-10.1
				c-12.83-7.11-29.43-10.25-43.86-7.23c-17.77,3.72-27.14,20.21-21.83,37.56c5.14,16.8,22.8,25.3,38.35,29.89
				c15.16,4.47,37.09,7.38,50.66-2.85c6.97-5.25,11.31-14.11,9.94-22.86C207.21,218.29,200.85,211.55,194.72,206.36z"/>
		</g>
		<g>
			<path class="st3" d="M297.79,144.51c0.75-8.59-4.86-16.62-12.62-20.01c-9.18-4.02-19.67-1.01-27.04,5.25
				c-7.75,6.59-14.4,17.75-15.31,27.99c-0.08,0.92,0.13,1.78,0.53,2.52c0.13,1.78,0.74,3.51,2.03,5.11c2.93,3.61,8.59,4.75,13,5.19
				c8.45,0.83,16.82-1.07,24.13-5.37C289.71,160.97,297.04,153.18,297.79,144.51z"/>
			<path class="st3" d="M202.88,143.61c-1.05-0.89-2.16-1.7-3.3-2.46c-2.49-2.38-5.34-4.38-7.97-5.84
				c-7.42-4.12-17.02-5.93-25.37-4.18c-10.28,2.15-15.7,11.69-12.63,21.73c2.97,9.72,13.19,14.63,22.18,17.29
				c8.77,2.59,21.45,4.27,29.3-1.65c4.03-3.04,6.54-8.16,5.75-13.22C210.11,150.51,206.43,146.61,202.88,143.61z M179.61,148.62
				c0.92,0.01,1.83,0.07,2.74,0.19c-0.08,0.22-0.14,0.44-0.2,0.66C181.3,149.22,180.45,148.93,179.61,148.62z"/>
		</g>
	</g>
	<path class="st1" d="M289.36,280.09c-2.38,11.15-15.81,11.09-24.94,12.33c-9.08,1.24-18.18,2.34-27.33,2.86
		c-9.37,0.53-18.72,0.49-28.04-0.7c-9.51-1.22-20.29-2.54-27.67-9.16c-4.61-4.14-2.49-13.22,3.8-14.41
		c1.41-0.26,2.86-0.42,4.31-0.49c5.98-0.3,12.18,0.81,18.22,1.46c1.78,0.18,3.56,0.34,5.31,0.4c0.35,0.01,0.69,0.02,1.03,0.02
		c5.16,0.17,10.31,0.17,15.46-0.01c1.98-0.08,3.97-0.17,5.95-0.3c1.88-0.11,3.78-0.25,5.66-0.42c4.36-0.4,8.71-0.95,13.05-1.55
		c2.58-0.36,5.16-0.74,7.74-1.12c1.74-0.26,3.49-0.52,5.24-0.78c3.89-0.58,8.13-1.82,12.07-1.24c1.39,0.18,2.74,0.61,4.03,1.36
		C287.46,270.8,290.41,275.12,289.36,280.09z"/>
	<path class="st0" d="M207.46,277.26c-1.48,4.5-5.8,7.56-10.56,6.92c-4.58-0.62-8.02-4.93-8.1-9.49c-0.02-1.39,0.15-2.86,0.69-4.17
		c5.98-0.3,12.18,0.81,18.22,1.46C208.03,273.69,208.07,275.41,207.46,277.26z"/>
	<path class="st0" d="M276.58,279.27c-1.26,2.12-3.56,3.46-6.04,3.46c-2.25,0-5.06-1.28-6.03-3.46c-0.85-1.88-1.81-3.72-2.24-5.77
		c-0.34-1.58-0.42-3.03-0.35-4.51c1.74-0.26,3.49-0.52,5.24-0.78c3.89-0.58,8.13-1.82,12.07-1.24
		C279.88,271.2,278.74,275.63,276.58,279.27z"/>
	<path class="st0" d="M228.85,278.77c-1.3,2.2-3.44,3.54-5.92,3.86c-5.45,0.74-10.71-4.54-8.9-10.12c0.01-0.03,0.02-0.08,0.03-0.11
		c5.16,0.17,10.31,0.17,15.46-0.01C230.14,274.53,230.1,276.65,228.85,278.77z"/>
	<path class="st0" d="M254.45,273.4c-0.37,5.32-4.05,9.25-9.49,9.49c-2.36,0.11-5.06-1.13-6.72-2.78c-1.84-1.84-2.6-4.18-2.78-6.72
		c-0.03-0.41-0.02-0.85,0-1.31c1.88-0.11,3.78-0.25,5.66-0.42c4.36-0.4,8.71-0.95,13.05-1.55
		C254.42,271.26,254.53,272.38,254.45,273.4z"/>
	<path class="st4" d="M333.73,260.85c-4.56-1.8-9.94,1.52-14.11,3.23c-2.63,1.08-4.55,3.24-4.09,6.27c0.4,2.68,2.72,5.08,5.61,4.95
		c5.11-0.22,11.67,0.59,15.49-3.45C340.29,267.98,338.3,262.65,333.73,260.85z"/>
	<path class="st4" d="M140.09,259.1c-4.02-1.21-8.12-0.84-12.09,0.3c-5.7,1.65-5.65,9.84,0,11.51c3.45,1.02,5.72,2.41,9.16,3.61
		c4.15,1.44,9.79,0.6,11.08-4.32C149.68,264.72,144.86,260.55,140.09,259.1z"/>
	<path class="st0" d="M153.32,191.72c-0.85-1.46-2.45-2.38-4.14-2.38c-1.69,0-3.29,0.92-4.14,2.38c-0.82,1.4-0.94,3.45,0,4.84
		c0.12,0.17,0.23,0.35,0.35,0.52c0.89,1.3,2.16,2.17,3.79,2.17c1.63,0,2.9-0.87,3.79-2.17c0.12-0.17,0.23-0.35,0.35-0.52
		C154.27,195.17,154.14,193.12,153.32,191.72z"/>
	<path class="st0" d="M329.73,181.2c-0.77-0.71-1.71-1.15-2.78-1.15c-1.01,0-2.07,0.44-2.78,1.15c-1.07,1.07-1.25,2.4-1.01,3.82
		c0.2,1.16,0.79,2.29,1.86,2.87c0.57,0.31,1.27,0.63,1.93,0.6c0.68-0.03,1.34-0.26,1.93-0.6c1.06-0.61,1.66-1.7,1.86-2.87
		C330.97,183.65,330.83,182.21,329.73,181.2z"/>
	<path class="st0" d="M278.34,128.37c-4.33,0-4.34,6.73,0,6.73C282.67,135.1,282.68,128.37,278.34,128.37z"/>
	<path class="st0" d="M176.03,137.07c-3.41,0-3.42,5.31,0,5.31C179.44,142.37,179.45,137.07,176.03,137.07z"/>
</g>
</svg>
