<?xml version="1.0" encoding="utf-8"?>
<!-- Generator: Adobe Illustrator 24.0.1, SVG Export Plug-In . SVG Version: 6.00 Build 0)  -->
<svg version="1.1" id="Layer_1" xmlns="http://www.w3.org/2000/svg" xmlns:xlink="http://www.w3.org/1999/xlink" x="0px" y="0px"
	 viewBox="0 0 320.16 609" style="enable-background:new 0 0 320.16 609;" xml:space="preserve">
<style type="text/css">
	.st0{fill:#009444;}
	.st1{fill:#8DC63F;}
	.st2{fill:#231F20;}
	.st3{fill:#FFFFFF;}
</style>
<path class="st0" d="M143.46,47.5c-3.65-13.07-12.03-27.9-24.35-35.23c-4.17-3.82-8.99-6.93-14.39-9.06
	c-16.54-6.52-36.21-2.73-50.21,7.86c-33.5,25.33-26.2,80.7,9.44,100.63c5.69,3.18,11.61,5.11,17.74,5.79
	c1.47,19.89,2.66,39.87,5.31,59.61c1.17,8.74,13.56,9.31,14.06,0c1.08-19.97,0.64-40.08,0.52-60.11
	c12.63-0.17,24.93-9.05,32.51-18.67C145.35,84.05,148.32,64.92,143.46,47.5z"/>
<path class="st0" d="M244.85,11.07c-14-10.58-33.66-14.38-50.21-7.86c-10.65,4.2-19.11,12.19-24.53,22
	c-2.93,3.93-5.22,8.35-7.01,13.07c-6.29,16.64-4.81,36.31,4.01,51.77c4.17,7.31,9.99,13.89,16.82,18.82
	c3.31,2.39,7.13,4.44,11.04,5.66c0.88,0.27,1.84,0.51,2.8,0.7c-0.1,20.62-0.6,41.31,0.51,61.88c0.5,9.31,12.89,8.74,14.06,0
	c2.65-19.74,3.83-39.72,5.31-59.61c6.14-0.68,12.05-2.61,17.74-5.79C271.05,91.77,278.35,36.4,244.85,11.07z"/>
<path class="st0" d="M252.88,282.14c15.67-3.07,29.71,11.47,38.07,22.96c9.2,12.65,15.25,27.57,19.54,42.53
	c10.59,36.94,12.34,77.02,4.38,114.55c-0.11,0.54-0.27,1.04-0.44,1.53c6.55,9.87,8.77,23.78-0.28,32.29
	c-3.72,3.5-8.97-0.06-8.12-4.73c0.9-5.01,2.81-9.48,2.11-14.69c-0.26-1.95-0.75-3.85-1.46-5.67c-1.34,0.4-2.75,0.62-4.17,0.64
	c1.19,7.57,0.13,15.2-2.55,22.54c-2.4,6.57-12.3,4.05-10.6-2.92c1.91-7.87,2.16-15.78,2.04-23.84c0-0.11,0.02-0.21,0.02-0.32
	c-1.25-1.44-2.14-3.2-2.47-5.27c-0.36,0.21-0.71,0.41-1.05,0.6c-2.17,1.23-4.28,2.76-5.86,4.7c-1.75,2.15-2.52,5.19-5.04,6.66
	c-2.64,1.54-5.39,0.84-7.62-0.98c-1.7-1.39-2.15-4.11-1.62-6.12c1.45-5.47,6.07-10.47,10.77-13.46c2.27-1.44,5.17-2.77,7.82-3.22
	c1.09-0.19,2.17-0.19,3.24-0.1c2.34-30.59,1.56-61.47-5.73-91.39c-3.06-12.56-7.33-24.83-13.99-35.96
	c-3.16-5.28-6.77-10.13-10.7-14.85c-4.3-5.17-9.23-9.92-11.47-16.38C246.47,287.66,249.14,282.87,252.88,282.14z"/>
<path class="st0" d="M67.28,282.14c-15.67-3.07-29.71,11.47-38.07,22.96c-9.2,12.65-15.25,27.57-19.54,42.53
	c-10.59,36.94-12.34,77.02-4.38,114.55c0.11,0.54,0.27,1.04,0.44,1.53c-6.55,9.87-8.77,23.78,0.28,32.29
	c3.72,3.5,8.97-0.06,8.12-4.73c-0.9-5.01-2.81-9.48-2.11-14.69c0.26-1.95,0.75-3.85,1.46-5.67c1.34,0.4,2.75,0.62,4.17,0.64
	c-1.19,7.57-0.13,15.2,2.55,22.54c2.4,6.57,12.3,4.05,10.6-2.92c-1.91-7.87-2.16-15.78-2.04-23.84c0-0.11-0.02-0.21-0.02-0.32
	c1.25-1.44,2.14-3.2,2.47-5.27c0.36,0.21,0.71,0.41,1.05,0.6c2.17,1.23,4.28,2.76,5.86,4.7c1.75,2.15,2.52,5.19,5.04,6.66
	c2.64,1.54,5.39,0.84,7.62-0.98c1.7-1.39,2.15-4.11,1.62-6.12c-1.45-5.47-6.07-10.47-10.77-13.46c-2.27-1.44-5.17-2.77-7.82-3.22
	c-1.09-0.19-2.17-0.19-3.24-0.1c-2.34-30.59-1.56-61.47,5.73-91.39c3.06-12.56,7.33-24.83,13.99-35.96
	c3.16-5.28,6.77-10.13,10.7-14.85c4.3-5.17,9.23-9.92,11.47-16.38C73.69,287.66,71.02,282.87,67.28,282.14z"/>
<path class="st0" d="M260.91,575.9c-2.8-2.89-6.06-5.1-10.36-6.12c-4.42-1.04-9.13-0.92-13.64-1.2c-0.64-0.04-1.28-0.11-1.92-0.16
	c0.56-22.27,0.22-44.47-1.23-66.76c-0.88-13.5-2.26-26.88-4.04-40.29c-1.04-7.84-2.33-15.44-4.18-23.13
	c-1.71-7.1-3.36-14.31-7.82-20.25c-4.21-5.61-15.11-8.33-18.66,0c-5.5,12.9-4.75,28.4-4.33,42.26c0.42,13.79,0.66,27.61,0.84,41.41
	c0.36,27.62-0.06,55.36-1.38,82.95c-0.43,8.89,6.57,16.98,14.77,19.4c8.43,2.49,17.1,3.94,25.85,4.72c3.51,0.31,6.94,0.4,10.45,0.05
	c4.02-0.4,8.19-1.3,11.69-3.49c1.28-0.99,2.57-1.98,3.85-2.97c3.27-4.35,3.93-5.16,1.99-2.45
	C270.3,592.67,267.98,581.93,260.91,575.9z"/>
<path class="st0" d="M134.87,499.69c-0.22-13.64-0.04-27.35-0.92-40.96c-0.5-7.67-0.83-15.33-2.02-22.93
	c-1.08-6.91-4.1-13.14-5.82-19.88c-2.82-11.03-18.55-10.37-21.7,0c-1.94,6.37-5.11,12.24-6.55,18.8
	c-1.64,7.48-2.11,15.27-2.94,22.87c-1.54,13.97-2.03,28.07-2.89,42.1c-1.23,20.25-1.96,40.55-2.51,60.84
	c-4.62,0.1-9.19,0.49-13.67,1.72c-7.82,2.15-13.52,9.01-14.59,16.93c-1.14,8.48,2.86,15.5,9.72,20.29
	c11.43,7.97,27.29,7.42,40.61,5.89c12.37-1.42,22.31-9.21,22.61-22.61C134.82,555.08,135.32,527.36,134.87,499.69z"/>
<path class="st1" d="M287.71,356.94c-24.65,53.56-115.1,125.68-188.1,79.03C31.43,392.39,3.87,311.58,15.45,244.32
	c6.02-34.93,27.74-69.33,64.73-88.63c61.76-32.23,151.87-11.57,195.74,35.77c39.72,42.86,36.86,101.93,18.05,150.62
	C291.99,347.19,289.91,352.15,287.71,356.94z"/>
<path class="st2" d="M235.17,29.69c-4.82-2.72-10.04-3.62-15.12-3.09c-9.94,0.55-19.49,5.16-27.15,11.68
	c-7.72,6.56-12.47,16.12-12.19,26.34c0.31,10.89,6.07,21.36,15.56,26.84c12.22,7.06,25.04,1.59,35.03-6.44
	c7.85-6.31,15.1-14.11,17.06-24.33C250.62,48.87,246,35.79,235.17,29.69z"/>
<path class="st2" d="M124.04,59.61c-2.97-13.99-15.19-27.01-29.4-29.78c-16.34-3.18-33.89,6.05-38.96,22.3
	c-11.77,37.72,58.71,57.3,67.77,19.13c0.54-2.27,0.66-4.44,0.43-6.52C124.33,63.14,124.42,61.38,124.04,59.61z"/>
<path class="st0" d="M207.3,272.57c-6.18,17.57-17.45,34.5-36.19,40.04c-6.62,1.96-14.14,2.55-22.65,1.43
	c-13.7-1.81-24.61-12.53-31.99-24.22c-12.34-19.54-19.4-48.98-11.75-71.61c2.97,0.66,5.99,1.25,9.03,1.75
	c8.64,1.43,17.53,2.22,26.5,2.38c2.12,0.05,4.25,0.05,6.37,0.02c7.16-0.09,14.35-0.58,21.48-1.44c2.54-0.31,5.08-0.66,7.6-1.07
	c7.89-1.25,15.68-2.97,23.24-5.14c4.28-1.22,8.48-2.58,12.6-4.09C213.23,210,209.71,265.74,207.3,272.57z"/>
<path class="st0" d="M175.75,170.28c-0.08-0.25-0.15-0.5-0.21-0.75c-0.09-0.5-0.11-0.51-0.03-0.02c0.11,0.86,0.06,0.48-0.16-1.13
	c-0.04-0.19-0.08-0.39-0.13-0.58c-0.01-0.22-0.02-0.43-0.02-0.65c-0.03-2.55-1.92-4.68-4.43-5.02c-2.7-0.36-4.64,1.26-5.61,3.66
	c-1.37,3.4-1.39,9.24,2.51,11.02c2.66,1.22,5.75,0.77,7.36-1.93C175.91,173.42,176.11,171.93,175.75,170.28z"/>
<path class="st0" d="M137.07,168.92c-0.11-0.33-0.2-0.67-0.25-1.03l0.04,0.28c-0.17-0.87-0.47-1.65-1.06-2.41
	c-0.71-0.92-1.73-1.73-2.9-2c-2.4-0.55-5.05,0.35-6.3,2.56c-0.73,1.28-1.17,2.6-1.37,4.05c-0.3,2.21,0.27,5.25,2.14,6.7
	c0.86,0.66,1.67,1.3,2.73,1.59c1.35,0.37,2.76,0.23,4.03-0.31c1.02-0.43,1.8-1.03,2.48-1.91c0.91-1.17,1.16-2.28,1.33-3.75
	C138.1,171.47,137.6,170.12,137.07,168.92z"/>
<path class="st3" d="M140.25,222.34c-8.97-0.16-17.86-0.95-26.5-2.38c-1.65,3.76-2.55,8.07-2.88,11.42
	c-0.77,7.76,2.84,15.13,10.56,17.64c6.94,2.26,14.51-0.58,17.28-7.58C140.93,235.83,140.4,228.67,140.25,222.34z M121.67,232.09
	c-0.08,1.15-0.17,2.68,0.05,3.31C120.67,233.33,120.9,232.43,121.67,232.09z"/>
<path class="st3" d="M196.96,244.42c-7.41,3.95-16.28,0.8-18.32-7.5c-0.95-3.88-1.46-7.96-2.14-11.9c-0.3-1.74-0.61-3.46-0.8-5.17
	c7.89-1.25,15.68-2.97,23.24-5.14c0.21,0.39,0.42,0.79,0.65,1.19c1.75,3.1,3.61,6.22,4.52,9.71
	C206.01,232.88,203.89,240.73,196.96,244.42z"/>
<path class="st3" d="M168.85,235.49c0.24,4.47-3.92,8.13-8.17,8.18c-4.07,0.05-7.62-0.94-11.15-2.94c-3.26-1.83-4.33-5.54-3.68-9.02
	c0.6-3.18,0.76-6.27,0.77-9.35c7.16-0.09,14.35-0.58,21.48-1.44C168.35,225.78,168.6,230.63,168.85,235.49z"/>
</svg>
