<?xml version="1.0" encoding="utf-8"?>
<!-- Generator: Adobe Illustrator 24.0.1, SVG Export Plug-In . SVG Version: 6.00 Build 0)  -->
<svg version="1.1" id="Layer_1" xmlns="http://www.w3.org/2000/svg" xmlns:xlink="http://www.w3.org/1999/xlink" x="0px" y="0px"
	 viewBox="0 0 94.15 79.69" style="enable-background:new 0 0 94.15 79.69;" xml:space="preserve">
<style type="text/css">
	.st0{fill:#5B9B07;}
	.st1{opacity:0.5;}
	.st2{fill:#EAEA59;}
	.st3{opacity:0.5;fill:#5B9B07;}
	.st4{fill:#99B72A;}
	.st5{fill:#DBD74B;}
	.st6{fill:#FFE0B6;}
	.st7{fill:#92CE0F;}
	.st8{opacity:0.7;}
	.st9{fill:#D5D7D8;}
	.st10{fill:#FFFFFF;}
	.st11{fill:#F4783F;}
	.st12{fill:#FDB845;}
	.st13{fill:#703410;}
	.st14{opacity:0.4;}
	.st15{fill:#9559A4;}
	.st16{opacity:0.5;fill:#9559A4;}
	.st17{fill:#47214F;}
</style>
<g>
	<g>
		<g>
			<path class="st0" d="M65.83,16.6c0,0,1.04-0.05,2.03,0.05c0.64,0.07-0.38-1.46-2.92-2.38C67.64,1.44,83.45-0.59,85.87,1.03
				c2.15,1.44,3.27,20.42-10.9,22.45C73.78,21.1,70.38,17.86,65.83,16.6z"/>
			<g class="st1">
				<path class="st0" d="M67.86,16.65c0.64,0.07-0.38-1.46-2.92-2.38c1.22-5.8,5.5-9.78,9.52-11.71c-4.42,2.39-4.79,6.83-2.37,4.93
					c6.02-4.72,12.34-4.2,12.34-4.2c0.48,6.38-1.42,9.82-3.77,12.89c-2.36,3.08-0.8,3.88,1.72,2.5c3.34-1.81,4.48-8.32,4.5-8.42
					c-0.87,5.69-4.02,12.08-11.9,13.21c-1.19-2.38-4.59-5.62-9.14-6.88C65.83,16.6,66.87,16.55,67.86,16.65z"/>
			</g>
			<g>
				<path class="st2" d="M72.22,9.67c3.26-4.78,9.22-6.03,11.78-5.82c0,0,0.71,11.55-11.2,16.47c-0.77-0.88-1.71-1.74-2.8-2.48
					C69.89,15.98,70.1,12.78,72.22,9.67z"/>
			</g>
			<g>
				<path class="st2" d="M70.01,17.84c-0.11-1.85,0.1-5.06,2.22-8.17c0.96-1.4,2.15-2.5,3.42-3.35c2.86,0.93,3.88,6.84-3.36,13.44
					C71.62,19.08,70.86,18.42,70.01,17.84z"/>
			</g>
			<path class="st3" d="M85.67,1.49c0,0-5.47-2.7-13.02,3.12C72.65,4.61,79.16,1.27,85.67,1.49z"/>
		</g>
		<g>
			<g>
				<path class="st0" d="M44.68,65.32c0.46,3.52,0.38,6.92-1.26,7.2c-3.35,0.58-4.88-2.7-4.88-2.7c-1.09,3.07-6.03,3.07-4.99,1.95
					c1.04-1.12,1.04-2.26,1.04-2.26c-3.17,3.33-5.63,2.18-4.83,1.51c2.47-2.09,2.41-6.19,2.6-7.96c0.36-2.93,1.32-7.93,6.29-7.9
					C43.58,55.19,44.45,61.49,44.68,65.32z"/>
				<g class="st1">
					<path class="st0" d="M44.68,65.32c-0.23-3.82-1.1-10.13-6.04-10.16c-4.97-0.03-5.93,4.96-6.29,7.9
						c-0.19,1.77-0.13,5.86-2.6,7.96c-0.8,0.68,1.66,1.82,4.83-1.51c0,0,0,1.14-1.04,2.26c-1.04,1.12,3.9,1.12,4.99-1.95
						c0,0,1.53,3.28,4.88,2.7C45.06,72.24,45.14,68.84,44.68,65.32z M41.74,71.49c-2.25-0.44-3.05-4.13-3.05-4.13
						c-0.83,3.62-5.26,4.81-4.4,3.78c1.1-1.32,0.97-3.95,0.97-3.95c-0.62,1.97-3.48,3.85-4.24,3.36c-0.76-0.49,1.74-1.7,1.71-6.1
						c2.12,0.88,3.81,0.87,3.26,0.14c-0.55-0.73-0.94-1.46,0.66-0.21c1.59,1.25,5.13,2.29,4.85,1.59c-0.28-0.69-0.48-1.53,0.49-0.24
						C42.95,67.01,43.99,71.93,41.74,71.49z"/>
				</g>
			</g>
			<g>
				<g>
					<path class="st2" d="M43.59,72.48c-0.05,0.02-0.11,0.03-0.17,0.04c-3.35,0.58-4.88-2.7-4.88-2.7
						c-1.09,3.07-6.03,3.07-4.99,1.95c1.04-1.12,1.04-2.26,1.04-2.26c-2.06,2.16-3.81,2.43-4.58,2.18c-0.37,0.2-0.96,0.39-1.81,0.39
						c-1.8,0-3.36,0.35-3.57,3.36c-0.21,3.01,1.66,3.36,3.53,2.74c0,0,0.35,0.87,2.08,0.9c1.73,0.03,2.18-0.49,2.18-0.49
						s0.24,1.42,5.2,1.04c4.96-0.38,6.58-1.12,6.83-4.33C44.55,73.86,44.11,73,43.59,72.48z"/>
					<path class="st4" d="M38.9,74.6c0,0-0.15-0.06-0.41-0.16c-0.27-0.09-0.65-0.22-1.12-0.33c-0.47-0.11-1.03-0.21-1.65-0.23
						c-0.15-0.01-0.31,0.01-0.47,0.01c-0.16,0.02-0.32,0.03-0.48,0.06c-0.32,0.05-0.66,0.17-0.94,0.35c-0.58,0.37-1,0.91-1.29,1.47
						c-0.29,0.56-0.44,1.13-0.47,1.64c-0.03,0.51,0.09,0.94,0.24,1.2c0.16,0.26,0.31,0.35,0.35,0.32c0.04-0.04-0.05-0.17-0.13-0.42
						c-0.09-0.25-0.15-0.62-0.11-1.08c0.04-0.45,0.18-0.99,0.44-1.5c0.26-0.52,0.63-1.03,1.14-1.37c0.25-0.17,0.53-0.29,0.83-0.35
						c0.15-0.04,0.3-0.05,0.45-0.08c0.15-0.01,0.3-0.03,0.45-0.03c0.59-0.02,1.15,0.05,1.62,0.13c0.47,0.08,0.86,0.18,1.13,0.25
						C38.75,74.55,38.9,74.6,38.9,74.6z"/>
					<path class="st4" d="M33.66,73.36c0,0-0.59-0.16-1.51-0.23c-0.11-0.01-0.23-0.02-0.36-0.02c-0.12,0-0.25,0-0.38,0
						c-0.27-0.01-0.54,0.02-0.83,0.04c-0.15,0.01-0.29,0.04-0.44,0.07c-0.15,0.03-0.3,0.05-0.45,0.09l-0.23,0.08l-0.11,0.04
						l-0.11,0.06l-0.21,0.12c-0.07,0.05-0.13,0.1-0.19,0.15c-0.5,0.41-0.82,0.99-1.02,1.55c-0.19,0.56-0.26,1.12-0.22,1.6
						c0.04,0.48,0.16,0.87,0.33,1.11c0.07,0.12,0.16,0.2,0.22,0.25c0.06,0.05,0.1,0.06,0.12,0.05c0.02-0.02,0.01-0.06-0.01-0.13
						c-0.02-0.07-0.08-0.15-0.12-0.27c-0.1-0.23-0.18-0.58-0.2-1.02c-0.01-0.43,0.05-0.95,0.22-1.47c0.17-0.52,0.45-1.05,0.88-1.43
						c0.05-0.05,0.11-0.1,0.16-0.14l0.18-0.11l0.09-0.06l0.1-0.04l0.19-0.08c0.14-0.04,0.28-0.07,0.42-0.11
						c0.14-0.03,0.28-0.07,0.42-0.09c0.28-0.04,0.55-0.09,0.81-0.09c0.13-0.01,0.26-0.02,0.38-0.02c0.12,0,0.24,0,0.35,0
						C33.06,73.25,33.66,73.36,33.66,73.36z"/>
					<g>
						<path class="st5" d="M43.59,72.48c-0.05,0.02-0.11,0.03-0.17,0.04c-3.35,0.58-4.88-2.7-4.88-2.7
							c-1.09,3.07-6.03,3.07-4.99,1.95c1.04-1.12,1.04-2.26,1.04-2.26c-2.06,2.16-3.81,2.43-4.58,2.18
							c-0.37,0.2-0.96,0.39-1.81,0.39c-1.8,0-3.36,0.35-3.57,3.36c-0.21,3.01,1.66,3.36,3.53,2.74c0,0,0.35,0.87,2.08,0.9
							c1.73,0.03,2.18-0.49,2.18-0.49s0.24,1.42,5.2,1.04c4.96-0.38,6.58-1.12,6.83-4.33C44.55,73.86,44.11,73,43.59,72.48z
							 M35.05,78.93c-3.25-0.33-2.81-1.63-2.7-2.1c0,0-0.43,1.35-2.75,1.14c-2.04-0.18-1.82-1.52-1.74-1.83
							c-0.09,0.29-0.56,1.41-2.12,1.04c-1.32-0.31-1.11-1.99-0.84-2.94c0.96-3.43,5.74-2.05,3.81-0.2c0,0,1.4-1.22,3.56-0.75
							c1.82,0.4,1.81,0.86,1.04,1.66c0,0,1.84-1.82,5.72,0C42.9,76.78,37.89,79.22,35.05,78.93z"/>
					</g>
				</g>
				<path class="st6" d="M24.92,76.23c0,0-0.42-1.63,0.66-3.01C26.52,72,28,72.36,28,72.36S25.11,72.35,24.92,76.23z"/>
				<path class="st6" d="M28.28,77.32c0,0-0.42-1.63,0.66-3.01c0.95-1.22,2.42-0.85,2.42-0.85S28.47,73.44,28.28,77.32z"/>
				<path class="st6" d="M32.82,78.19c0,0-0.42-1.63,0.66-3.01c0.95-1.22,2.43-0.85,2.43-0.85S33.01,74.31,32.82,78.19z"/>
			</g>
		</g>
		<g>
			<g>
				<path class="st0" d="M24.46,24.61c-2.28-2.76-11.95,0.5-17.88,10.48c-5.93,9.98-6.02,22.22-4.33,22.25
					c1.04,0.01,1.18-3.6,1.18-3.6s-0.07,3.95,1.18,4.16c1.25,0.21,1.45-3.88,1.45-3.88s-0.07,3.83,1.11,3.89
					c1.18,0.06,1.25-3.47,1.25-3.47s-0.17,3.59,1.28,3.59c1.46-0.01,2.04-1.98,3.58-7.8c1.55-5.82,3.52-9.88,7.37-13.51
					C24.49,33.07,26.96,27.63,24.46,24.61z"/>
				<path class="st2" d="M2.11,57.31c0.04,0.02,0.09,0.03,0.14,0.03c1.04,0.01,1.18-3.6,1.18-3.6s-0.07,3.95,1.18,4.16
					c1.25,0.21,1.45-3.88,1.45-3.88s-0.07,3.83,1.11,3.89c1.06,0.05,1.22-2.77,1.24-3.36c-0.01,0.6-0.02,3.49,1.29,3.48
					c0.3,0,0.5-0.09,0.65-0.26c0.84,0.08,2.45,0.39,3.3,1.53c1.8,2.43,0.54,5.47-1.21,3.85c-1.84-1.7-3.05-1.06-3.64,0.46
					c-0.59,1.52,0.83,3.53-0.69,4.12c-1.52,0.59-2.42-1.18-2.42-1.18s-0.45,1.56-2.81-0.62c0,0-1.07,0.45-2.29-1.66
					C-0.57,62.22,0.01,59.07,2.11,57.31z"/>
				<g>
					<path class="st4" d="M6.48,60.98c0,0-0.1,0.06-0.25,0.19c-0.15,0.13-0.35,0.34-0.54,0.63c-0.19,0.28-0.38,0.65-0.51,1.07
						C5.06,63.29,5,63.76,4.99,64.22c-0.03,0.93,0.2,1.88,0.6,2.48c0.19,0.3,0.4,0.52,0.57,0.64c0.17,0.12,0.29,0.16,0.32,0.12
						c0.07-0.09-0.28-0.36-0.59-0.94c-0.32-0.56-0.56-1.42-0.59-2.31c-0.01-0.44,0.01-0.89,0.09-1.29c0.09-0.41,0.23-0.77,0.4-1.06
						c0.16-0.29,0.33-0.52,0.47-0.66C6.39,61.05,6.48,60.98,6.48,60.98z"/>
					<path class="st4" d="M3.62,60.57c0,0-0.09,0.06-0.24,0.19c-0.15,0.13-0.35,0.32-0.55,0.59c-0.2,0.26-0.41,0.6-0.57,1
						c-0.15,0.39-0.24,0.85-0.24,1.3c-0.01,0.11,0,0.23,0.01,0.34c0.01,0.11,0.01,0.23,0.03,0.34c0.04,0.22,0.07,0.44,0.16,0.65
						c0.13,0.42,0.37,0.76,0.59,1.02c0.24,0.25,0.45,0.44,0.64,0.53c0.17,0.1,0.28,0.14,0.31,0.09c0.03-0.04-0.03-0.14-0.16-0.28
						c-0.14-0.13-0.31-0.33-0.52-0.56c-0.39-0.48-0.73-1.27-0.74-2.13c-0.03-0.43,0.02-0.85,0.14-1.23c0.11-0.38,0.28-0.72,0.45-1
						c0.17-0.28,0.35-0.49,0.48-0.63C3.53,60.64,3.62,60.57,3.62,60.57z"/>
				</g>
			</g>
			<g class="st1">
				<path class="st0" d="M24.46,24.61c-1.8-2.17-8.18-0.61-13.7,5.03c4.33-4.09,4.53-1.12,2.74,4.65c-1.57,5.06-2.46,7.46-0.95,6.55
					c1.51-0.92-0.65,3.58-1.65,9.98c-0.87,5.55-1.12,6-1.7,5.96c-0.58-0.04-0.54-3.05-0.45-5.06c0,0-0.52,4.33-1.49,4.09
					c-0.97-0.24-0.9-3.43-0.78-4.5c0,0-0.85,4.19-1.68,3.84c-0.83-0.34-1.32-2.27-0.88-4.65c-0.05,0.31-0.61,3.45-1.58,3.02
					c-1.03-0.45-0.75-5.31,0.59-9.99c-2.19,7.34-1.91,13.78-0.68,13.8c1.04,0.01,1.18-3.6,1.18-3.6s-0.07,3.95,1.18,4.16
					c1.25,0.21,1.45-3.88,1.45-3.88s-0.07,3.83,1.11,3.89c1.06,0.05,1.22-2.77,1.24-3.36c-0.01,0.6-0.02,3.49,1.29,3.48
					c1.46-0.01,2.04-1.98,3.58-7.8c1.55-5.82,3.52-9.88,7.37-13.51C24.49,33.07,26.96,27.63,24.46,24.61z"/>
			</g>
			<path class="st3" d="M2.31,49.24c0,0,0.57-12.16,9.36-20.04C11.66,29.2,5.69,37.54,2.31,49.24z"/>
			<g>
				<path class="st5" d="M13.65,59.28c-0.33-0.45-0.79-0.77-1.27-1l0,0c1.6,0.81,2.43,3.53,1.25,4.25
					c-1.18,0.73-1.84-1.53-3.71-1.56c-1.87-0.03-2.01,2.22-1.94,3.81c0.07,1.59-1.56,1.56-2.25,0.1c-0.69-1.45,0.27-3.5,0.27-3.5
					S4.96,62.16,4.84,64c-0.13,1.84-1.62,1.94-2.18,0.23c-0.56-1.7,0.58-3.25,0.58-3.25C1.8,62.16,2.1,64.5,1.09,64.23
					c-0.9-0.24-1.06-1.88-1.09-2.21c0.02,0.8,0.21,1.57,0.58,2.22c1.21,2.11,2.29,1.66,2.29,1.66c2.36,2.18,2.81,0.62,2.81,0.62
					s0.9,1.77,2.42,1.18c1.53-0.59,0.1-2.6,0.69-4.12c0.59-1.52,1.8-2.16,3.64-0.46C14.19,64.75,15.45,61.71,13.65,59.28z"/>
			</g>
			<path class="st6" d="M0.64,63.6c0,0-1.49-2.62,1.11-5.58C1.75,58.02,0.22,60.78,0.64,63.6z"/>
			<path class="st6" d="M3.32,65.08c0,0-1.87-1.91,0.44-4.51C3.76,60.57,2.38,62.82,3.32,65.08z"/>
			<path class="st6" d="M6.62,65.68c0,0-2.34-1.91-0.03-4.51C6.59,61.16,5.32,63.42,6.62,65.68z"/>
		</g>
		<g>
			<g>
				<path class="st0" d="M49.47,65.32c-0.46,3.52-0.38,6.92,1.26,7.2c3.36,0.58,4.89-2.7,4.89-2.7c1.09,3.07,6.03,3.07,4.99,1.95
					c-1.04-1.12-1.04-2.26-1.04-2.26c3.17,3.33,5.63,2.18,4.83,1.51c-2.47-2.09-2.41-6.19-2.6-7.96c-0.36-2.93-1.32-7.93-6.29-7.9
					C50.58,55.19,49.7,61.49,49.47,65.32z"/>
				<g class="st1">
					<path class="st0" d="M50.73,72.52c3.36,0.58,4.89-2.7,4.89-2.7c1.09,3.07,6.03,3.07,4.99,1.95c-1.04-1.12-1.04-2.26-1.04-2.26
						c3.17,3.33,5.63,2.18,4.83,1.51c-2.47-2.09-2.41-6.19-2.6-7.96c-0.36-2.93-1.32-7.93-6.29-7.9c-4.94,0.03-5.81,6.33-6.04,10.16
						C49.02,68.84,49.1,72.24,50.73,72.52z M52.17,65.73c0.97-1.28,0.76-0.45,0.49,0.24c-0.28,0.69,3.26-0.35,4.85-1.59
						c1.59-1.25,1.21-0.52,0.66,0.21c-0.56,0.73,1.14,0.74,3.26-0.14c-0.03,4.4,2.47,5.61,1.71,6.1c-0.76,0.49-3.61-1.39-4.24-3.36
						c0,0-0.13,2.63,0.97,3.95c0.86,1.03-3.57-0.16-4.4-3.78c0,0-0.8,3.69-3.05,4.13C50.16,71.93,51.2,67.01,52.17,65.73z"/>
				</g>
			</g>
			<g>
				<g>
					<path class="st2" d="M50.57,72.48c0.05,0.02,0.11,0.03,0.17,0.04c3.36,0.58,4.89-2.7,4.89-2.7c1.09,3.07,6.03,3.07,4.99,1.95
						c-1.04-1.12-1.04-2.26-1.04-2.26c2.06,2.16,3.82,2.43,4.58,2.18c0.37,0.2,0.96,0.39,1.82,0.39c1.8,0,3.36,0.35,3.57,3.36
						c0.21,3.01-1.66,3.36-3.53,2.74c0,0-0.35,0.87-2.08,0.9c-1.73,0.03-2.18-0.49-2.18-0.49s-0.24,1.42-5.2,1.04
						c-4.96-0.38-6.58-1.12-6.83-4.33C49.6,73.86,50.04,73,50.57,72.48z"/>
					<path class="st4" d="M55.26,74.6c0,0,0.15-0.06,0.41-0.16c0.27-0.09,0.65-0.22,1.12-0.33c0.47-0.11,1.03-0.21,1.65-0.23
						c0.15-0.01,0.31,0.01,0.47,0.01c0.16,0.02,0.32,0.03,0.48,0.06c0.32,0.05,0.66,0.17,0.94,0.35c0.58,0.37,1,0.91,1.29,1.47
						c0.29,0.56,0.44,1.13,0.47,1.64c0.03,0.51-0.08,0.94-0.24,1.2c-0.16,0.26-0.31,0.35-0.35,0.32c-0.04-0.04,0.05-0.17,0.13-0.42
						c0.09-0.25,0.15-0.62,0.11-1.08c-0.04-0.45-0.18-0.99-0.44-1.5c-0.26-0.52-0.64-1.03-1.14-1.37c-0.25-0.17-0.53-0.29-0.83-0.35
						c-0.15-0.04-0.3-0.05-0.45-0.08c-0.15-0.01-0.3-0.03-0.45-0.03c-0.59-0.02-1.15,0.05-1.62,0.13c-0.47,0.08-0.86,0.18-1.13,0.25
						S55.26,74.6,55.26,74.6z"/>
					<path class="st4" d="M60.49,73.36c0,0,0.59-0.16,1.51-0.23c0.11-0.01,0.23-0.02,0.36-0.02c0.12,0,0.25,0,0.38,0
						c0.27-0.01,0.54,0.02,0.83,0.04c0.15,0.01,0.29,0.04,0.44,0.07c0.15,0.03,0.3,0.05,0.45,0.09l0.23,0.08l0.11,0.04l0.11,0.06
						l0.21,0.12c0.07,0.05,0.13,0.1,0.19,0.15c0.5,0.41,0.82,0.99,1.02,1.55c0.19,0.56,0.26,1.12,0.22,1.6
						c-0.04,0.48-0.16,0.87-0.34,1.11c-0.07,0.12-0.16,0.2-0.22,0.25c-0.06,0.05-0.1,0.06-0.12,0.05c-0.02-0.02-0.01-0.06,0.01-0.13
						c0.02-0.07,0.08-0.15,0.12-0.27c0.1-0.23,0.18-0.58,0.2-1.02c0.01-0.43-0.05-0.95-0.22-1.47c-0.17-0.52-0.45-1.05-0.88-1.43
						c-0.05-0.05-0.11-0.1-0.16-0.14l-0.18-0.11l-0.09-0.06l-0.1-0.04l-0.19-0.08c-0.14-0.04-0.28-0.07-0.42-0.11
						c-0.14-0.03-0.28-0.07-0.42-0.09c-0.28-0.04-0.55-0.09-0.81-0.09c-0.13-0.01-0.26-0.02-0.38-0.02c-0.12,0-0.24,0-0.35,0
						C61.09,73.25,60.49,73.36,60.49,73.36z"/>
					<g>
						<path class="st5" d="M49.71,75.29c0.24,3.22,1.87,3.95,6.83,4.33c4.96,0.38,5.2-1.04,5.2-1.04s0.45,0.52,2.18,0.49
							c1.73-0.03,2.08-0.9,2.08-0.9c1.87,0.62,3.74,0.28,3.53-2.74c-0.21-3.01-1.77-3.36-3.57-3.36c-0.86,0-1.44-0.19-1.82-0.39
							c-0.76,0.26-2.52-0.02-4.58-2.18c0,0,0,1.14,1.04,2.26c1.04,1.12-3.9,1.12-4.99-1.95c0,0-1.53,3.28-4.89,2.7
							c-0.06-0.01-0.11-0.03-0.17-0.04C50.04,73,49.6,73.86,49.71,75.29z M55.13,74.96c3.87-1.82,5.72,0,5.72,0
							c-0.77-0.8-0.78-1.26,1.04-1.66c2.16-0.47,3.56,0.75,3.56,0.75c-1.93-1.85,2.85-3.23,3.81,0.2c0.27,0.95,0.48,2.63-0.84,2.94
							c-1.55,0.37-2.03-0.75-2.12-1.04c0.08,0.31,0.3,1.65-1.74,1.83c-2.32,0.21-2.75-1.14-2.75-1.14c0.1,0.47,0.54,1.77-2.7,2.1
							C56.26,79.22,51.25,76.78,55.13,74.96z"/>
					</g>
				</g>
				<path class="st6" d="M69.24,76.23c0,0,0.42-1.63-0.66-3.01c-0.95-1.22-2.42-0.85-2.42-0.85S69.05,72.35,69.24,76.23z"/>
				<path class="st6" d="M65.88,77.32c0,0,0.42-1.63-0.66-3.01c-0.94-1.22-2.42-0.85-2.42-0.85S65.69,73.44,65.88,77.32z"/>
				<path class="st6" d="M61.34,78.19c0,0,0.42-1.63-0.66-3.01c-0.95-1.22-2.43-0.85-2.43-0.85S61.15,74.31,61.34,78.19z"/>
			</g>
		</g>
		<g>
			<g>
				<path class="st0" d="M69.69,24.61c2.28-2.76,11.95,0.5,17.88,10.48c5.93,9.98,6.02,22.22,4.33,22.25
					c-1.04,0.01-1.18-3.6-1.18-3.6s0.07,3.95-1.18,4.16c-1.25,0.21-1.45-3.88-1.45-3.88s0.07,3.83-1.11,3.89
					c-1.18,0.06-1.25-3.47-1.25-3.47s0.17,3.59-1.28,3.59c-1.46-0.01-2.04-1.98-3.58-7.8c-1.55-5.82-3.52-9.88-7.37-13.51
					C69.66,33.07,67.2,27.63,69.69,24.61z"/>
				<path class="st2" d="M92.04,57.31c-0.04,0.02-0.09,0.03-0.14,0.03c-1.04,0.01-1.18-3.6-1.18-3.6s0.07,3.95-1.18,4.16
					c-1.25,0.21-1.45-3.88-1.45-3.88s0.07,3.83-1.11,3.89c-1.06,0.05-1.22-2.77-1.24-3.36c0.01,0.6,0.02,3.49-1.29,3.48
					c-0.3,0-0.5-0.09-0.65-0.26c-0.84,0.08-2.46,0.39-3.3,1.53c-1.8,2.43-0.54,5.47,1.21,3.85c1.84-1.7,3.05-1.06,3.64,0.46
					c0.59,1.52-0.83,3.53,0.69,4.12c1.52,0.59,2.42-1.18,2.42-1.18s0.45,1.56,2.81-0.62c0,0,1.07,0.45,2.29-1.66
					C94.73,62.22,94.14,59.07,92.04,57.31z"/>
				<g>
					<path class="st4" d="M87.68,60.98c0,0,0.1,0.06,0.25,0.19c0.15,0.13,0.35,0.34,0.54,0.63c0.19,0.28,0.38,0.65,0.51,1.07
						c0.12,0.42,0.18,0.89,0.19,1.35c0.03,0.93-0.2,1.88-0.6,2.48c-0.19,0.3-0.4,0.52-0.57,0.64c-0.17,0.12-0.29,0.16-0.32,0.12
						c-0.07-0.09,0.28-0.36,0.59-0.94c0.32-0.56,0.56-1.42,0.59-2.31c0.01-0.44-0.01-0.89-0.09-1.29c-0.09-0.41-0.23-0.77-0.4-1.06
						c-0.16-0.29-0.34-0.52-0.47-0.66C87.77,61.05,87.68,60.98,87.68,60.98z"/>
					<path class="st4" d="M90.53,60.57c0,0,0.09,0.06,0.24,0.19c0.14,0.13,0.34,0.32,0.55,0.59c0.2,0.26,0.41,0.6,0.56,1
						c0.16,0.39,0.24,0.85,0.24,1.3c0.01,0.11,0,0.23-0.01,0.34c-0.01,0.11-0.01,0.23-0.03,0.34c-0.04,0.22-0.07,0.44-0.16,0.65
						c-0.13,0.42-0.37,0.76-0.59,1.02c-0.24,0.25-0.45,0.44-0.63,0.53c-0.17,0.1-0.28,0.14-0.31,0.09
						c-0.03-0.04,0.03-0.14,0.16-0.28c0.14-0.13,0.31-0.33,0.52-0.56c0.39-0.48,0.73-1.27,0.74-2.13c0.02-0.43-0.02-0.85-0.14-1.23
						c-0.11-0.38-0.28-0.72-0.45-1c-0.17-0.28-0.35-0.49-0.48-0.63C90.62,60.64,90.53,60.57,90.53,60.57z"/>
				</g>
			</g>
			<g class="st1">
				<path class="st0" d="M69.69,24.61c1.8-2.17,8.18-0.61,13.7,5.03c-4.33-4.09-4.53-1.12-2.74,4.65c1.57,5.06,2.46,7.46,0.95,6.55
					c-1.51-0.92,0.65,3.58,1.64,9.98c0.87,5.55,1.12,6,1.7,5.96c0.58-0.04,0.54-3.05,0.45-5.06c0,0,0.52,4.33,1.49,4.09
					c0.97-0.24,0.89-3.43,0.78-4.5c0,0,0.85,4.19,1.68,3.84c0.83-0.34,1.32-2.27,0.88-4.65c0.05,0.31,0.61,3.45,1.58,3.02
					c1.03-0.45,0.75-5.31-0.59-9.99c2.19,7.34,1.91,13.78,0.68,13.8c-1.04,0.01-1.18-3.6-1.18-3.6s0.07,3.95-1.18,4.16
					c-1.25,0.21-1.45-3.88-1.45-3.88s0.07,3.83-1.11,3.89c-1.06,0.05-1.22-2.77-1.24-3.36c0.01,0.6,0.02,3.49-1.29,3.48
					c-1.46-0.01-2.04-1.98-3.58-7.8c-1.55-5.82-3.52-9.88-7.37-13.51C69.66,33.07,67.2,27.63,69.69,24.61z"/>
			</g>
			<path class="st3" d="M91.85,49.24c0,0-0.57-12.16-9.36-20.04C82.49,29.2,88.46,37.54,91.85,49.24z"/>
			<g>
				<path class="st5" d="M80.5,59.28c0.33-0.45,0.79-0.77,1.27-1l0,0c-1.6,0.81-2.43,3.53-1.25,4.25c1.18,0.73,1.84-1.53,3.71-1.56
					c1.87-0.03,2.01,2.22,1.94,3.81c-0.07,1.59,1.56,1.56,2.25,0.1c0.69-1.45-0.27-3.5-0.27-3.5s1.05,0.77,1.17,2.6
					c0.12,1.84,1.62,1.94,2.18,0.23c0.56-1.7-0.58-3.25-0.58-3.25c1.43,1.18,1.13,3.51,2.14,3.25c0.9-0.24,1.06-1.88,1.09-2.21
					c-0.02,0.8-0.21,1.57-0.58,2.22c-1.21,2.11-2.29,1.66-2.29,1.66c-2.36,2.18-2.81,0.62-2.81,0.62s-0.9,1.77-2.42,1.18
					c-1.53-0.59-0.1-2.6-0.69-4.12c-0.59-1.52-1.8-2.16-3.64-0.46C79.96,64.75,78.7,61.71,80.5,59.28z"/>
			</g>
			<path class="st6" d="M93.51,63.6c0,0,1.49-2.62-1.11-5.58C92.4,58.02,93.94,60.78,93.51,63.6z"/>
			<path class="st6" d="M90.84,65.08c0,0,1.87-1.91-0.44-4.51C90.39,60.57,91.78,62.82,90.84,65.08z"/>
			<path class="st6" d="M87.53,65.68c0,0,2.34-1.91,0.03-4.51C87.56,61.16,88.84,63.42,87.53,65.68z"/>
		</g>
		<g>
			<path class="st0" d="M29.12,15.61c0,0-1.04-0.05-2.03,0.05c-0.64,0.07,0.38-1.46,2.92-2.38C27.31,0.45,11.98-1.09,9.56,0.53
				C7.42,1.97,6.3,20.94,20.46,22.98C21.65,20.6,24.57,16.87,29.12,15.61z"/>
			<g class="st1">
				<path class="st0" d="M27.09,15.66c-0.64,0.07,0.38-1.46,2.92-2.38C28.79,7.49,25,3.99,20.98,2.05c4.42,2.39,4.8,6.83,2.37,4.93
					c-6.02-4.72-12.34-4.2-12.34-4.2c-0.49,6.38,1.41,9.82,3.77,12.89c2.36,3.08,0.8,3.88-1.73,2.5c-3.34-1.82-4.48-8.32-4.5-8.42
					c0.87,5.69,4.02,12.08,11.9,13.21c1.19-2.38,4.11-6.11,8.66-7.37C29.12,15.61,28.08,15.56,27.09,15.66z"/>
			</g>
			<g>
				<path class="st2" d="M23.21,9.16c-3.26-4.78-9.22-6.03-11.78-5.82c0,0-0.71,11.55,11.2,16.47c0.77-0.88,1.71-1.74,2.8-2.48
					C25.54,15.48,25.33,12.28,23.21,9.16z"/>
			</g>
			<g>
				<path class="st2" d="M25.43,17.33c0.11-1.85-0.1-5.06-2.22-8.17c-0.96-1.4-2.15-2.5-3.42-3.35c-2.86,0.93-3.88,6.84,3.36,13.44
					C23.81,18.57,24.57,17.92,25.43,17.33z"/>
			</g>
			<path class="st3" d="M9.76,0.99c0,0,5.47-2.7,13.02,3.12C22.79,4.1,16.28,0.76,9.76,0.99z"/>
		</g>
		<path class="st7" d="M43.85,5.23c0,0,0.14-3.8,3.12-4.71c0.9-0.28,0.14,1.39,0,3.67c0,0,2.89-3.44,8.48-2.72
			C56.67,1.62,53,4.67,53,4.67c2.56-1.42,7.58-0.85,8.14-0.03c0.38,0.55-3.01,1.21-3.01,1.21s8.86-0.66,15.18,8.52
			c4.48,6.52,6,16.3,5.89,20.38c-0.07,2.49-0.83,1.18-2.22,0c0,0,4.75,4.42,2.22,11.85c-0.65,1.91-0.85-0.85-1.79-2.93
			c0,0,1.43,4.27-0.95,7.78c-0.66,0.97,0.07-2.53-1.28-4.75c0,0,0.99,3.93-2.76,9.23c-3.74,5.3-7.5,6.35-6.76,4.99
			c1.25-2.29,0.99-3.74,0.99-3.74s-1.35,3.55-4.37,5.22c-1.63,0.9-0.97-0.49-0.97-0.49s-1.25,1.79-4.61,2.7
			c-1.14,0.31-0.07-0.97,0.24-2.81c0,0-1.21,3.01-5.32,3.43c-4.11,0.42-7.22-3.64-7.22-3.64s0.88,1.56,2.39,3.22
			c1.51,1.66-5.25,0.57-8.42-3.59c0,0,0.52,1.16,2.22,3.27c1.7,2.11-3.88,0.69-8.04-4.4c0,0,0.69,1.25,2.08,3.15
			c1.39,1.91-4.16,1.7-8.8-6.1c0,0,0.26,1.09,0.76,2.91c0.38,1.39-3.26-1.04-3.67-5.23c0,0-0.09,2.55,0.23,4.83
			c0.31,2.29-7.02-1.19-6.13-15.9c0,0-0.52,0.88-0.94,3.07c-0.42,2.18-2.44-3.79,0-9.15c0,0-0.9,1.46-2.13,1.82
			c-0.88,0.26-0.25-1,0-1.61c0.99-2.44,2.39-16.89,7.17-20.01c0,0-0.82-0.27-2.34,0.62c-1.4,0.83,1.71-7.4,8.94-9.41
			c0,0-1.04-0.05-2.03,0.05c-0.99,0.1,2-3.66,8.58-2.96c0.99,0.1-0.16-0.88-1.4-1.14C31.62,4.79,35,2.77,39.83,4.79
			c0,0-0.62-1.09-1.61-1.77C37.23,2.35,41.32,1.4,43.85,5.23z"/>
		<g class="st8">
			<path class="st7" d="M76.98,34.75c1.39,1.18,2.15,2.49,2.22,0c0.11-4.07-1.41-13.86-5.89-20.38c-6.32-9.19-15.18-8.52-15.18-8.52
				s3.4-0.66,3.01-1.21C60.58,3.83,55.56,3.25,53,4.67c0,0,3.67-3.05,2.45-3.21c-5.59-0.72-8.48,2.72-8.48,2.72
				c0.14-2.29,0.9-3.95,0-3.67C44,1.43,43.85,5.23,43.85,5.23c-2.53-3.83-6.62-2.88-5.63-2.2c0.99,0.67,1.61,1.77,1.61,1.77
				c-4.83-2.03-8.21,0-6.97,0.26c1.25,0.26,2.39,1.25,1.4,1.14c-6.57-0.69-9.56,3.07-8.58,2.96c0.99-0.1,2.03-0.05,2.03-0.05
				c-7.23,2.01-10.34,10.24-8.94,9.41c1.51-0.9,2.34-0.62,2.34-0.62c-4.78,3.12-6.18,17.57-7.17,20.01c-0.25,0.61-0.88,1.87,0,1.61
				c1.23-0.36,2.13-1.82,2.13-1.82c-2.44,5.35-0.42,11.33,0,9.15c0.42-2.18,0.94-3.07,0.94-3.07c-0.88,14.71,6.44,18.19,6.13,15.9
				c-0.31-2.29-0.23-4.83-0.23-4.83c0.41,4.19,4.05,6.62,3.67,5.23c-0.5-1.82-0.76-2.91-0.76-2.91c4.64,7.8,10.19,8,8.8,6.1
				c-1.38-1.91-2.08-3.15-2.08-3.15c4.16,5.09,9.74,6.51,8.04,4.4c-1.7-2.11-2.22-3.27-2.22-3.27c3.17,4.16,9.93,5.25,8.42,3.59
				c-1.51-1.66-2.39-3.22-2.39-3.22s3.12,4.05,7.22,3.64c4.11-0.42,5.32-3.43,5.32-3.43c-0.31,1.84-1.39,3.12-0.24,2.81
				c3.36-0.92,4.61-2.7,4.61-2.7s-0.66,1.39,0.97,0.49c3.01-1.67,4.37-5.22,4.37-5.22s0.26,1.46-0.99,3.74
				c-0.74,1.36,3.01,0.31,6.76-4.99c3.74-5.3,2.76-9.23,2.76-9.23c1.35,2.22,0.62,5.72,1.28,4.75c2.38-3.51,0.95-7.78,0.95-7.78
				c0.94,2.08,1.14,4.83,1.79,2.93C81.73,39.17,76.98,34.75,76.98,34.75z M76.84,40.86c-0.78,0.42-2.07-2.17-2.07-2.17
				c0.98,3.97,0.16,5.73-0.78,5.83c-0.93,0.1-1.19-2.17-1.19-2.17c0.18,10.54-4.27,14.16-5.25,13.95c-0.98-0.21-0.67-3.06-0.67-3.06
				c-1.14,3.96-3.64,6.58-4.44,6.44c-0.79-0.14,0-2.31,0-2.31c-0.9,2.27-2.83,4.3-4.11,4.23c-1.28-0.07-0.28-3.03-0.28-3.03
				s-1.65,4.87-7.56,4.64c-4.42-0.17-7.33-3.47-7.33-3.47s2.11,4.23-0.9,3.35c-3-0.89-5.24-4.18-5.24-4.18
				c1.45,3.24,1.97,4.99-1.11,2.75c-3.07-2.24-4.66-4.47-4.66-4.47c1.18,3.2,1.11,4.78-1.79,2.58c-2.9-2.2-4.12-5-4.12-5
				c0.69,3.34-0.52,2.96-1.59,0.85c-0.69-1.35-1.19-4.12-1.19-4.12c0.35,7.21-2.21,4.61-3.11,0.39c-1.31-6.2-0.64-11.71-0.64-11.71
				c-1.14,2.79-2.25,3.73-1.71,0.32c0.54-3.41,1.37-6.44,1.37-6.44c-3.53,4.63-1.87-5.64,1.45-11.78c3.64-6.73,5.44-6.88,5.44-6.88
				c-3.45,1.01-6.07,0.75-1.82-2.85C27.74,9,34.02,8.16,34.02,8.16c-3.45,0-5.24-0.79-3.77-1.24c3.59-1.09,8.74,0.14,8.74,0.14
				c-2.86-0.89-5.08-2.75-2.59-2.79c2.49-0.03,5.83,1.9,5.83,1.9c-2.29-1.58-3.13-3.35-1.2-2.9c1.93,0.45,3.56,3.37,3.56,3.37
				c-0.41-4.2,2.2-6.03,1.9-4.23c-0.3,1.79,0,3.76,0,3.76c2.35-3.71,7.18-3.9,6.27-2.27c-1.07,1.91-2.68,3.02-2.68,3.02
				c2.31-1.34,7.74-3.51,8.01-2.13c0.28,1.38-2.43,1.95-2.43,1.95c20.72-1.21,22.96,24.13,21.37,24.89
				c-1.47,0.7-3.29-1.86-3.29-1.86C77.88,36.1,77.62,40.44,76.84,40.86z"/>
		</g>
	</g>
	<g>
		<path class="st9" d="M47.88,13.17c0,0-0.64,2.26,1.18,2.85c-0.44,2.15-0.71,8.37,4.16,9.67c-0.64,0.15-1.27-0.1-1.27-0.1
			s6.26,3.39,10.45-2.82c-1.01,0.83-1.91,1.29-1.91,1.29s3.17-4.37-1.02-10.85c1.05-0.89,1.47-1.94,1.47-1.94s-3.96,3.1-8.5,4.04
			C50.07,15.81,48.4,16.01,47.88,13.17z"/>
		<path class="st9" d="M32.45,12.63c0,0,0.78,1.59,1.9,2.29c-1.13,2.13-2.02,5.7-1.2,7.3c-1.13-0.74-1.28-1.28-1.28-1.28
			s0.28,3.77,4.82,5.05c1.76,0.55,3.72,0.56,6.36-1.25c-0.97,0.39-2.57,0.78-2.57,0.78s4.23-1.36,3.38-9.24
			c0.66-0.58,0.47-1.98,0.47-1.98s-0.7,2.21-3.45,2.02C38.43,15.92,34.05,13.83,32.45,12.63z"/>
		<path class="st10" d="M35.56,14.45c0,0-3.73,6.75-0.74,9.59c2.99,2.83,9.78,1.94,8.49-8.05C43.31,15.99,39.88,17,35.56,14.45z"/>
		<g>
			<path class="st9" d="M43.31,15.99c0,0-3.43,1.01-7.75-1.54c0,0-0.77,1.4-1.33,3.2c0.4-0.52,1.01-1.3,1.68-1.79
				c1.99,0.95,4.1,1.61,6.58,1.12c0.55,0.98,0.74,1.81,0.91,2.69C43.51,18.61,43.49,17.39,43.31,15.99z"/>
		</g>
		<path class="st10" d="M49.69,15.51c0,0-1.95,10.66,6.13,10.19c4.93-0.47,6.89-6.09,2.55-12.82
			C58.37,12.88,53.35,15.94,49.69,15.51z"/>
		<g>
			<path class="st9" d="M49.69,15.51c0,0-0.79,4.35,0.74,7.37c-0.53-1.86-0.97-4.67,0.49-6.35c0,0,3.52-0.09,6.81-1.97
				c1.23,0.59,2.05,1.38,2.55,2.36c-0.39-1.27-1.02-2.63-1.92-4.04C58.37,12.88,53.35,15.94,49.69,15.51z"/>
		</g>
		<g>
			<path class="st11" d="M41.35,19.89c0.06,1.31-0.79,2.39-1.91,2.41c-1.12,0.02-2.07-1.02-2.13-2.33
				c-0.06-1.31,0.79-2.38,1.91-2.41S41.29,18.58,41.35,19.89z"/>
			<path class="st12" d="M40.99,19.92c0.05,1.08-0.65,1.96-1.57,1.98c-0.92,0.02-1.71-0.84-1.75-1.91
				c-0.05-1.08,0.65-1.96,1.57-1.98C40.15,17.99,40.94,18.85,40.99,19.92z"/>
			<path class="st13" d="M40.41,19.93c0.03,0.67-0.41,1.23-0.99,1.24c-0.58,0.01-1.07-0.53-1.1-1.2c-0.03-0.67,0.41-1.23,0.99-1.24
				C39.89,18.72,40.38,19.26,40.41,19.93z"/>
			<path class="st10" d="M39.13,19.08c-0.13,0.29-0.44,0.49-0.69,0.45c-0.25-0.05-0.35-0.32-0.21-0.62
				c0.13-0.29,0.44-0.49,0.69-0.45C39.17,18.51,39.26,18.79,39.13,19.08z"/>
			<path class="st10" d="M38.29,20.12c0.01,0.14-0.09,0.25-0.2,0.25c-0.12,0-0.22-0.11-0.22-0.25c-0.01-0.14,0.09-0.25,0.2-0.25
				C38.19,19.87,38.29,19.98,38.29,20.12z"/>
		</g>
		<g>
			<path class="st11" d="M56.55,18.99c0.06,1.31-0.8,2.39-1.91,2.41c-1.12,0.02-2.07-1.02-2.13-2.33c-0.06-1.31,0.79-2.38,1.91-2.41
				C55.54,16.64,56.49,17.68,56.55,18.99z"/>
			<path class="st12" d="M56.19,19.03c0.05,1.07-0.65,1.96-1.57,1.98c-0.92,0.02-1.71-0.84-1.76-1.91
				c-0.05-1.07,0.65-1.96,1.57-1.98C55.36,17.09,56.14,17.95,56.19,19.03z"/>
			<path class="st13" d="M55.62,19.04c0.03,0.67-0.41,1.23-0.99,1.24c-0.58,0.01-1.07-0.53-1.1-1.2c-0.03-0.67,0.41-1.23,0.99-1.24
				C55.09,17.83,55.59,18.37,55.62,19.04z"/>
			<path class="st10" d="M54.33,18.19c-0.13,0.29-0.45,0.49-0.7,0.45c-0.25-0.05-0.35-0.32-0.21-0.62c0.13-0.29,0.44-0.49,0.7-0.45
				C54.37,17.62,54.47,17.9,54.33,18.19z"/>
			<path class="st10" d="M53.5,19.22c0,0.14-0.09,0.25-0.21,0.25c-0.12,0-0.22-0.11-0.22-0.25c0-0.14,0.09-0.25,0.21-0.25
				C53.4,18.98,53.49,19.09,53.5,19.22z"/>
		</g>
		<g class="st14">
			<path d="M61.52,10.36c-2.58,1.53-5.56,3.51-8.51,4.22c-1.43,0.34-3.41,1.2-4.48-0.14c-0.77-0.96-0.61-2.97-0.59-4.1
				c0-0.1-0.15,0.05-0.16,0.1c-0.23,2.6-0.33,5.88,3.11,5.39c5.07-0.73,7.36-2.27,10.62-4.98C61.65,10.73,61.83,10.18,61.52,10.36z"
				/>
			<path d="M44.4,13.22c-0.05-0.24-0.14,0.1-0.14,0.23c-0.19,5.65-10.46,0.02-12.56-1.65c-0.03-0.03-0.11,0.07-0.08,0.1
				c2,2.49,5.25,3.68,8.29,4.48C42.13,16.95,45.02,16.01,44.4,13.22z"/>
			<path d="M45.14,12.24c-0.02-0.07-0.17,0.08-0.15,0.14c0.21,0.93,0.22,2.21-0.07,3.13c-0.09,0.29,0.24,0.08,0.3-0.07
				C45.56,14.49,45.43,13.17,45.14,12.24z"/>
			<path d="M46.72,12.96c-0.04-0.14-0.22,0.07-0.2,0.16c0.04,0.25,0.11,0.49,0.12,0.74c0.02,0.34-0.04,0.68-0.02,1.01
				c0.01,0.2,0.3-0.09,0.31-0.2C46.96,14.07,46.87,13.53,46.72,12.96z"/>
		</g>
		<g class="st14">
			<path d="M55.67,12.78c-1.65,0.52-3.71,1.52-5.49,1.49c-2.03-0.03-1.74-2.47-1.84-3.82c-0.01-0.13-0.2,0.08-0.2,0.16
				c-0.02,1.56-0.5,3.49,1.24,4.29c1.61,0.74,4.32-0.66,5.66-1.46C55.16,13.36,55.98,12.68,55.67,12.78z"/>
			<path d="M44.09,12.38c-0.04-0.15-0.24,0.08-0.22,0.18c0.13,0.83,0.03,1.74-0.64,2.33c-0.62,0.55-2.51,0.6-3.27,0.58
				c-0.2-0.01,0.36,0.24,0.62,0.3c1.11,0.26,2.07,0.18,2.9-0.64C44.2,14.41,44.33,13.32,44.09,12.38z"/>
		</g>
		<path class="st9" d="M62.64,37.54c-1.82-2.05-4.56-2.89-7.13-3.68c-7.41-2.27-19.13-0.26-23.42,6.9c0.51-0.85,1.88-1.98,2.66-2.57
			c1.1-0.84,2.47-1.33,3.71-1.92c2.69-1.28,5.68-1.92,8.64-2.13c2.64-0.19,5.29,0.13,7.82,0.88c1.42,0.42,2.75,1.04,4.12,1.61
			c1.08,0.45,2,1.21,3.07,1.67C62.43,38.43,62.86,37.79,62.64,37.54z"/>
		<path class="st9" d="M30.63,53.28c0,0,3.09,7.39,10.3,5.7c4.66-1.09,11.33-1.09,16.3-0.78c4.97,0.31,8.64-4.93,8.33-8.03
			C65.25,47.07,30.63,53.28,30.63,53.28z"/>
		<g>
			<path class="st15" d="M37.44,47.24c0,0,14.46-2.38,23.37-2.69c4.2-0.1,5.18,1.87,5.13,4.15c-0.05,2.28-2.59,4.87-9.9,4.51
				c-7.31-0.36-11.92,0.1-17.67,0.98c-5.75,0.88-8.08-0.21-8.6-2.38C29.26,49.62,31.9,48.38,37.44,47.24z"/>
			<path class="st16" d="M32.65,51.72c0,0,1.41,0.28,2.65,0.23c1.13,1.86,2.09,1.64,3.44,1.13c1.35-0.51,1.13-1.07,1.07-1.92
				c-0.06-0.85,5.02-1.64,10.26-1.8c5.24-0.17,5.64-0.17,5.92,0.56c0.28,0.73,0.96,1.8,2.59,1.41c1.64-0.39,1.86-0.9,1.92-1.63
				c0.06-0.73,1.41-0.34,1.92-0.45c-0.23-0.56-0.23-0.56-0.23-0.56S46.57,46.76,32.65,51.72z"/>
			<g>
				<path class="st10" d="M56.19,48.46c0,0-0.08,2.35,1.68,2.38c1.76,0.03,2.1-0.9,1.94-2.25C57.9,48.43,56.19,48.46,56.19,48.46z"
					/>
				<path class="st9" d="M57.83,49.26c0.41,0.04,0.8,0.05,1.16,0.27c0.26,0.16,0.39,0.48,0.45,0.83c0.39-0.4,0.46-1.02,0.37-1.78
					c-1.91-0.16-3.62-0.13-3.62-0.13s-0.01,0.26,0.05,0.61C56.77,49.13,57.3,49.21,57.83,49.26z"/>
				<path class="st10" d="M35.65,51.02c0,0,0.41,1.91,1.6,1.86c1.19-0.05,2.28-0.41,2.12-1.35c-0.16-0.93-0.31-1.5-0.31-1.5
					L35.65,51.02z"/>
				<path class="st9" d="M38.83,51.7c0.17,0.14,0.28,0.33,0.36,0.55c0.16-0.19,0.23-0.42,0.19-0.72c-0.16-0.93-0.31-1.5-0.31-1.5
					l-3.42,0.98c0,0,0.06,0.3,0.22,0.65C36.85,51.46,38.05,51.05,38.83,51.7z"/>
			</g>
			<path class="st17" d="M62.78,49.36c-0.18-0.76-0.67-1.74-0.37-2.53c0.09-0.24-0.18-0.17-0.27-0.03c-0.29,0.44-0.35,1-0.28,1.56
				c-4.85-0.57-9.82-0.21-14.67,0.03c-4.92,0.24-10.14,1.64-14.78,3.21c-0.07,0.02-0.21,0.25-0.08,0.23
				c5.08-0.79,9.92-2.61,15.1-2.85c4.82-0.23,9.76-0.56,14.57,0.08c0.08,0.28,0.18,0.54,0.28,0.77
				C62.39,50.09,62.82,49.55,62.78,49.36z"/>
		</g>
		<path class="st14" d="M58.66,44.02c-4.08-0.15-9.29,0.01-13.31,0.58c-2.12,0.3-4.26,0.54-6.36,0.96
			c-1.22,0.24-2.42,0.59-3.59,0.98c-0.96,0.32-1.84,0.89-2.82,1.14c-0.07,0.02-0.21,0.26-0.1,0.25c0.62-0.02,1.14-0.21,1.72-0.44
			c1.05-0.41,2.24-0.57,3.34-0.8c2.09-0.43,4.24-0.62,6.36-0.89c4.42-0.57,8.84-1.04,13.28-1.46
			C57.46,44.32,59.06,44.03,58.66,44.02z"/>
		<path class="st14" d="M46.51,32.07c-4.19,0.09-8.82,1.89-11.71,4.97c-0.05,0.05-0.05,0.19,0.05,0.12
			c3.52-2.65,7.14-3.87,11.45-4.58C46.47,32.55,46.81,32.07,46.51,32.07z"/>
		<g class="st14">
			<g>
				<path d="M49.7,32.98c-1.04-0.96-2.3-1.82-3.76-1.21c-1.35,0.57-2.71,1.43-3.74,2.47c-0.68,0.68-1.34,1.75-1.12,2.75
					c0.3,1.35,1.9,1.37,3,1.42c0.91,0.04,1.87-0.15,2.77-0.24c0.84-0.09,1.67-0.06,2.51-0.22c1.05-0.2,2.64-0.37,2.91-1.35
					C52.55,35.51,50.4,33.64,49.7,32.98z"/>
				<path d="M49.7,32.98c-0.03-0.03-0.06-0.06-0.1-0.09c0.29,0.39,0.53,0.8,0.69,1.24c0.52,1.47-0.3,2.62-1.71,3.1
					c-2.21,0.75-4.51,0.92-6.76,0.31c-0.2-0.05-0.39-0.1-0.59-0.15c0.5,0.95,1.87,0.98,2.85,1.02c0.91,0.04,1.87-0.15,2.77-0.24
					c0.84-0.09,1.67-0.06,2.51-0.22c1.05-0.2,2.64-0.37,2.91-1.35C52.55,35.51,50.4,33.64,49.7,32.98z"/>
				<path d="M45.95,35.43c0,0.57-0.29,1.02-0.66,1.02c-0.36,0-0.66-0.46-0.66-1.02s0.3-1.02,0.66-1.02
					C45.65,34.4,45.95,34.86,45.95,35.43z"/>
				<path d="M49,35.11c0,0.57-0.29,1.02-0.66,1.02c-0.36,0-0.66-0.46-0.66-1.02c0-0.57,0.29-1.02,0.66-1.02
					C48.7,34.09,49,34.55,49,35.11z"/>
			</g>
			<path d="M46.81,32.3c0.1,0.27-0.34,0.68-0.98,0.91c-0.64,0.23-1.24,0.2-1.33-0.07c-0.1-0.27,0.34-0.68,0.98-0.91
				C46.11,32,46.71,32.03,46.81,32.3z"/>
		</g>
	</g>
</g>
</svg>
