<?xml version="1.0" encoding="utf-8"?>
<!-- Generator: Adobe Illustrator 24.0.1, SVG Export Plug-In . SVG Version: 6.00 Build 0)  -->
<svg version="1.1" id="Layer_1" xmlns="http://www.w3.org/2000/svg" xmlns:xlink="http://www.w3.org/1999/xlink" x="0px" y="0px"
	 viewBox="0 0 94.15 79.69" style="enable-background:new 0 0 94.15 79.69;" xml:space="preserve">
<style type="text/css">
	.st0{fill:#5B9B07;}
	.st1{opacity:0.5;}
	.st2{fill:#EAEA59;}
	.st3{opacity:0.5;fill:#5B9B07;}
	.st4{fill:#99B72A;}
	.st5{fill:#DBD74B;}
	.st6{fill:#FFE0B6;}
	.st7{fill:#92CE0F;}
	.st8{opacity:0.7;}
	.st9{fill:#DCDEDE;}
	.st10{opacity:0.4;}
	.st11{clip-path:url(#SVGID_2_);}
	.st12{fill:#F78C4F;}
	.st13{fill:#FFC356;}
	.st14{fill:#834513;}
	.st15{fill:#FFFFFF;}
	.st16{clip-path:url(#SVGID_4_);}
</style>
<g>
	<g>
		<g>
			<path class="st0" d="M65.83,16.6c0,0,1.04-0.05,2.03,0.05c0.64,0.07-0.38-1.46-2.92-2.38C67.64,1.44,83.45-0.59,85.87,1.03
				c2.15,1.44,3.27,20.42-10.9,22.45C73.78,21.1,70.38,17.86,65.83,16.6z"/>
			<g class="st1">
				<path class="st0" d="M67.86,16.65c0.64,0.07-0.38-1.46-2.92-2.38c1.22-5.8,5.5-9.78,9.52-11.71c-4.42,2.39-4.79,6.83-2.37,4.93
					c6.02-4.72,12.34-4.2,12.34-4.2c0.48,6.38-1.42,9.82-3.77,12.89c-2.36,3.08-0.8,3.88,1.72,2.5c3.34-1.82,4.48-8.32,4.5-8.42
					c-0.87,5.69-4.02,12.08-11.9,13.21c-1.19-2.38-4.59-5.62-9.14-6.88C65.83,16.6,66.87,16.55,67.86,16.65z"/>
			</g>
			<g>
				<path class="st2" d="M72.22,9.67c3.26-4.78,9.22-6.03,11.78-5.82c0,0,0.71,11.55-11.2,16.47c-0.77-0.88-1.71-1.74-2.8-2.48
					C69.89,15.98,70.1,12.78,72.22,9.67z"/>
			</g>
			<g>
				<path class="st2" d="M70,17.84c-0.11-1.85,0.1-5.06,2.22-8.17c0.96-1.4,2.15-2.5,3.42-3.35c2.86,0.93,3.88,6.84-3.36,13.44
					C71.62,19.08,70.86,18.42,70,17.84z"/>
			</g>
			<path class="st3" d="M85.67,1.49c0,0-5.47-2.7-13.02,3.12C72.65,4.61,79.16,1.27,85.67,1.49z"/>
		</g>
		<g>
			<g>
				<path class="st0" d="M44.68,65.32c0.46,3.52,0.38,6.92-1.26,7.2c-3.36,0.58-4.89-2.7-4.89-2.7c-1.09,3.07-6.03,3.07-4.99,1.95
					c1.04-1.12,1.04-2.26,1.04-2.26c-3.17,3.33-5.63,2.18-4.83,1.51c2.47-2.09,2.41-6.19,2.6-7.96c0.36-2.93,1.32-7.93,6.29-7.9
					C43.58,55.19,44.45,61.5,44.68,65.32z"/>
				<g class="st1">
					<path class="st0" d="M44.68,65.32c-0.23-3.82-1.1-10.12-6.04-10.16c-4.97-0.03-5.93,4.96-6.29,7.9
						c-0.19,1.77-0.13,5.87-2.6,7.96c-0.8,0.68,1.66,1.82,4.83-1.51c0,0,0,1.14-1.04,2.26c-1.04,1.12,3.9,1.12,4.99-1.95
						c0,0,1.53,3.28,4.89,2.7C45.06,72.24,45.14,68.84,44.68,65.32z M41.74,71.49c-2.25-0.44-3.05-4.13-3.05-4.13
						c-0.83,3.62-5.26,4.81-4.4,3.78c1.1-1.32,0.97-3.95,0.97-3.95c-0.62,1.98-3.48,3.85-4.24,3.36c-0.76-0.49,1.74-1.7,1.71-6.1
						c2.12,0.88,3.81,0.87,3.26,0.14c-0.56-0.73-0.94-1.46,0.66-0.21c1.59,1.25,5.13,2.29,4.85,1.59c-0.28-0.69-0.48-1.52,0.49-0.24
						C42.95,67.01,43.99,71.93,41.74,71.49z"/>
				</g>
			</g>
			<g>
				<g>
					<path class="st2" d="M43.59,72.48c-0.06,0.02-0.11,0.03-0.17,0.04c-3.36,0.58-4.89-2.7-4.89-2.7
						c-1.09,3.07-6.03,3.07-4.99,1.95c1.04-1.12,1.04-2.26,1.04-2.26c-2.06,2.16-3.82,2.43-4.58,2.18c-0.37,0.2-0.96,0.39-1.82,0.39
						c-1.8,0-3.36,0.35-3.57,3.36c-0.21,3.01,1.66,3.36,3.53,2.74c0,0,0.35,0.87,2.08,0.9c1.73,0.03,2.18-0.49,2.18-0.49
						s0.24,1.42,5.2,1.04c4.96-0.38,6.58-1.12,6.83-4.33C44.55,73.86,44.11,73,43.59,72.48z"/>
					<path class="st4" d="M38.9,74.6c0,0-0.15-0.06-0.41-0.16c-0.27-0.09-0.65-0.22-1.12-0.33c-0.47-0.11-1.03-0.21-1.65-0.23
						c-0.15-0.01-0.31,0.01-0.47,0.01c-0.16,0.02-0.32,0.03-0.48,0.06c-0.32,0.05-0.66,0.17-0.94,0.35c-0.58,0.37-1,0.91-1.29,1.47
						c-0.29,0.56-0.44,1.14-0.47,1.64c-0.03,0.51,0.09,0.94,0.24,1.2c0.16,0.26,0.31,0.35,0.35,0.32c0.04-0.04-0.05-0.17-0.13-0.42
						c-0.08-0.25-0.15-0.62-0.11-1.08c0.04-0.45,0.18-0.99,0.44-1.5c0.26-0.52,0.64-1.03,1.13-1.37c0.25-0.17,0.53-0.29,0.83-0.35
						c0.15-0.04,0.3-0.05,0.45-0.08c0.15-0.01,0.3-0.03,0.45-0.03c0.59-0.02,1.15,0.05,1.62,0.13c0.47,0.08,0.86,0.18,1.13,0.25
						C38.74,74.55,38.9,74.6,38.9,74.6z"/>
					<path class="st4" d="M33.67,73.36c0,0-0.59-0.16-1.51-0.23c-0.11-0.01-0.23-0.02-0.36-0.02c-0.12,0-0.25,0-0.38,0
						c-0.27-0.01-0.54,0.02-0.83,0.04c-0.15,0.01-0.29,0.04-0.44,0.07c-0.15,0.03-0.3,0.05-0.45,0.09l-0.23,0.08l-0.11,0.04
						l-0.11,0.06l-0.21,0.12c-0.06,0.05-0.13,0.1-0.19,0.15c-0.5,0.41-0.82,0.99-1.02,1.55c-0.19,0.56-0.26,1.12-0.22,1.6
						c0.04,0.48,0.17,0.87,0.33,1.11c0.07,0.12,0.16,0.2,0.22,0.25c0.06,0.05,0.1,0.06,0.12,0.05c0.02-0.02,0.01-0.06-0.01-0.13
						c-0.02-0.07-0.08-0.15-0.11-0.27c-0.1-0.23-0.18-0.58-0.2-1.02c-0.01-0.43,0.05-0.95,0.22-1.47c0.17-0.52,0.45-1.05,0.88-1.43
						c0.05-0.05,0.11-0.1,0.16-0.14l0.18-0.11l0.09-0.06l0.1-0.04l0.19-0.08c0.14-0.04,0.28-0.07,0.42-0.11
						c0.14-0.03,0.28-0.07,0.42-0.09c0.28-0.04,0.55-0.09,0.81-0.09c0.13-0.01,0.26-0.02,0.38-0.02c0.12,0,0.24,0,0.35,0
						C33.06,73.25,33.67,73.36,33.67,73.36z"/>
					<g>
						<path class="st5" d="M43.59,72.48c-0.06,0.02-0.11,0.03-0.17,0.04c-3.36,0.58-4.89-2.7-4.89-2.7
							c-1.09,3.07-6.03,3.07-4.99,1.95c1.04-1.12,1.04-2.26,1.04-2.26c-2.06,2.16-3.82,2.43-4.58,2.18
							c-0.37,0.2-0.96,0.39-1.82,0.39c-1.8,0-3.36,0.35-3.57,3.36c-0.21,3.01,1.66,3.36,3.53,2.74c0,0,0.35,0.87,2.08,0.9
							c1.73,0.03,2.18-0.49,2.18-0.49s0.24,1.42,5.2,1.04c4.96-0.38,6.58-1.12,6.83-4.33C44.55,73.86,44.11,73,43.59,72.48z
							 M35.05,78.93c-3.25-0.33-2.81-1.63-2.7-2.1c0,0-0.43,1.35-2.75,1.14c-2.04-0.18-1.82-1.52-1.74-1.83
							c-0.09,0.29-0.56,1.41-2.12,1.04c-1.32-0.31-1.11-1.99-0.84-2.94c0.96-3.43,5.74-2.04,3.81-0.2c0,0,1.4-1.22,3.56-0.75
							c1.82,0.4,1.81,0.86,1.04,1.66c0,0,1.84-1.82,5.72,0C42.9,76.78,37.89,79.23,35.05,78.93z"/>
					</g>
				</g>
				<path class="st6" d="M24.91,76.23c0,0-0.41-1.63,0.66-3.01C26.52,72,28,72.37,28,72.37S25.11,72.35,24.91,76.23z"/>
				<path class="st6" d="M28.28,77.32c0,0-0.41-1.63,0.66-3.01c0.95-1.22,2.43-0.85,2.43-0.85S28.47,73.44,28.28,77.32z"/>
				<path class="st6" d="M32.82,78.19c0,0-0.41-1.63,0.66-3.01c0.95-1.22,2.43-0.85,2.43-0.85S33.01,74.31,32.82,78.19z"/>
			</g>
		</g>
		<g>
			<g>
				<path class="st0" d="M24.46,24.61c-2.28-2.76-11.95,0.5-17.88,10.48c-5.92,9.98-6.02,22.22-4.33,22.25
					c1.04,0.01,1.18-3.6,1.18-3.6s-0.07,3.95,1.18,4.16c1.25,0.21,1.46-3.88,1.46-3.88s-0.07,3.83,1.11,3.89
					c1.18,0.06,1.25-3.47,1.25-3.47s-0.17,3.59,1.28,3.59c1.45-0.01,2.03-1.97,3.58-7.8c1.55-5.82,3.52-9.88,7.37-13.51
					C24.49,33.07,26.96,27.63,24.46,24.61z"/>
				<path class="st2" d="M2.11,57.31c0.04,0.02,0.09,0.03,0.14,0.03c1.04,0.01,1.18-3.6,1.18-3.6s-0.07,3.95,1.18,4.16
					c1.25,0.21,1.46-3.88,1.46-3.88s-0.07,3.83,1.11,3.89c1.06,0.06,1.22-2.77,1.24-3.36c-0.01,0.6-0.02,3.49,1.29,3.48
					c0.3,0,0.5-0.09,0.65-0.26c0.84,0.08,2.46,0.39,3.3,1.53c1.8,2.43,0.54,5.47-1.21,3.85c-1.84-1.7-3.05-1.06-3.64,0.46
					c-0.59,1.52,0.83,3.53-0.69,4.12c-1.53,0.59-2.43-1.18-2.43-1.18s-0.45,1.56-2.81-0.62c0,0-1.07,0.45-2.29-1.66
					C-0.57,62.22,0.01,59.07,2.11,57.31z"/>
				<g>
					<path class="st4" d="M6.48,60.98c0,0-0.1,0.06-0.25,0.19c-0.15,0.13-0.35,0.34-0.54,0.63c-0.19,0.29-0.38,0.65-0.5,1.07
						C5.06,63.29,5,63.76,4.99,64.22c-0.03,0.93,0.2,1.88,0.6,2.48c0.19,0.3,0.4,0.52,0.57,0.64c0.17,0.12,0.29,0.16,0.32,0.12
						c0.07-0.09-0.28-0.36-0.59-0.94c-0.32-0.56-0.56-1.42-0.59-2.31c-0.01-0.44,0.01-0.89,0.09-1.29c0.09-0.41,0.23-0.77,0.4-1.06
						c0.16-0.29,0.34-0.52,0.47-0.66C6.39,61.05,6.48,60.98,6.48,60.98z"/>
					<path class="st4" d="M3.62,60.57c0,0-0.09,0.06-0.24,0.19c-0.15,0.13-0.34,0.32-0.55,0.59c-0.2,0.26-0.41,0.6-0.57,1
						c-0.15,0.39-0.24,0.85-0.24,1.3c-0.01,0.11,0,0.23,0.01,0.34c0.01,0.11,0.01,0.23,0.03,0.34c0.04,0.22,0.08,0.44,0.16,0.65
						c0.13,0.42,0.37,0.76,0.59,1.02c0.24,0.25,0.45,0.44,0.64,0.53c0.17,0.1,0.28,0.14,0.31,0.09c0.03-0.04-0.03-0.14-0.16-0.28
						c-0.14-0.13-0.31-0.33-0.52-0.56c-0.39-0.48-0.73-1.27-0.74-2.13c-0.02-0.43,0.02-0.85,0.14-1.23c0.11-0.38,0.28-0.72,0.45-1
						c0.17-0.28,0.35-0.49,0.48-0.63C3.53,60.64,3.62,60.57,3.62,60.57z"/>
				</g>
			</g>
			<g class="st1">
				<path class="st0" d="M24.46,24.61c-1.8-2.17-8.18-0.61-13.7,5.03c4.33-4.09,4.53-1.12,2.74,4.65c-1.57,5.06-2.46,7.47-0.95,6.55
					c1.51-0.92-0.65,3.58-1.64,9.98c-0.87,5.54-1.11,6-1.7,5.96c-0.58-0.04-0.54-3.05-0.45-5.06c0,0-0.52,4.33-1.49,4.09
					c-0.97-0.24-0.9-3.43-0.78-4.5c0,0-0.85,4.19-1.68,3.84c-0.83-0.34-1.32-2.27-0.88-4.65c-0.05,0.31-0.61,3.45-1.58,3.02
					c-1.03-0.45-0.75-5.32,0.59-9.99c-2.19,7.34-1.91,13.78-0.68,13.8c1.04,0.01,1.18-3.6,1.18-3.6s-0.07,3.95,1.18,4.16
					c1.25,0.21,1.46-3.88,1.46-3.88s-0.07,3.83,1.11,3.89c1.06,0.06,1.22-2.77,1.24-3.36c-0.01,0.6-0.02,3.49,1.29,3.48
					c1.45-0.01,2.03-1.97,3.58-7.8c1.55-5.82,3.52-9.88,7.37-13.51C24.49,33.07,26.96,27.63,24.46,24.61z"/>
			</g>
			<path class="st3" d="M2.3,49.24c0,0,0.57-12.16,9.36-20.04C11.66,29.2,5.69,37.54,2.3,49.24z"/>
			<g>
				<path class="st5" d="M13.65,59.28c-0.33-0.45-0.79-0.77-1.27-1l0,0c1.6,0.81,2.43,3.53,1.25,4.25
					c-1.18,0.73-1.84-1.52-3.71-1.56c-1.87-0.03-2.01,2.22-1.94,3.81c0.07,1.59-1.56,1.56-2.25,0.1c-0.69-1.46,0.27-3.5,0.27-3.5
					S4.96,62.16,4.83,64c-0.12,1.84-1.62,1.94-2.18,0.23c-0.56-1.7,0.58-3.25,0.58-3.25C1.8,62.16,2.1,64.5,1.09,64.23
					c-0.9-0.24-1.07-1.88-1.09-2.21c0.02,0.8,0.21,1.57,0.58,2.22c1.21,2.11,2.29,1.66,2.29,1.66c2.36,2.18,2.81,0.62,2.81,0.62
					s0.9,1.77,2.43,1.18c1.52-0.59,0.1-2.6,0.69-4.12c0.59-1.52,1.8-2.15,3.64-0.46C14.19,64.76,15.45,61.71,13.65,59.28z"/>
			</g>
			<path class="st6" d="M0.64,63.6c0,0-1.49-2.62,1.11-5.58C1.75,58.02,0.22,60.78,0.64,63.6z"/>
			<path class="st6" d="M3.32,65.08c0,0-1.87-1.91,0.44-4.51C3.76,60.57,2.38,62.82,3.32,65.08z"/>
			<path class="st6" d="M6.62,65.68c0,0-2.34-1.91-0.03-4.51C6.59,61.16,5.32,63.42,6.62,65.68z"/>
		</g>
		<g>
			<g>
				<path class="st0" d="M49.47,65.32c-0.46,3.52-0.38,6.92,1.26,7.2c3.35,0.58,4.88-2.7,4.88-2.7c1.09,3.07,6.03,3.07,4.99,1.95
					c-1.04-1.12-1.04-2.26-1.04-2.26c3.17,3.33,5.63,2.18,4.83,1.51c-2.47-2.09-2.41-6.19-2.6-7.96c-0.36-2.93-1.32-7.93-6.29-7.9
					C50.58,55.19,49.71,61.5,49.47,65.32z"/>
				<g class="st1">
					<path class="st0" d="M50.74,72.52c3.35,0.58,4.88-2.7,4.88-2.7c1.09,3.07,6.03,3.07,4.99,1.95c-1.04-1.12-1.04-2.26-1.04-2.26
						c3.17,3.33,5.63,2.18,4.83,1.51c-2.47-2.09-2.41-6.19-2.6-7.96c-0.36-2.93-1.32-7.93-6.29-7.9c-4.94,0.03-5.81,6.33-6.04,10.16
						C49.02,68.84,49.1,72.24,50.74,72.52z M52.17,65.73c0.97-1.28,0.76-0.45,0.49,0.24c-0.28,0.69,3.26-0.35,4.85-1.59
						c1.59-1.25,1.21-0.52,0.66,0.21c-0.55,0.73,1.14,0.74,3.26-0.14c-0.03,4.4,2.47,5.61,1.71,6.1s-3.61-1.39-4.24-3.36
						c0,0-0.13,2.63,0.97,3.95c0.86,1.03-3.57-0.16-4.4-3.78c0,0-0.8,3.69-3.05,4.13C50.16,71.93,51.2,67.01,52.17,65.73z"/>
				</g>
			</g>
			<g>
				<g>
					<path class="st2" d="M50.57,72.48c0.05,0.02,0.11,0.03,0.17,0.04c3.35,0.58,4.88-2.7,4.88-2.7c1.09,3.07,6.03,3.07,4.99,1.95
						c-1.04-1.12-1.04-2.26-1.04-2.26c2.06,2.16,3.81,2.43,4.58,2.18c0.37,0.2,0.96,0.39,1.82,0.39c1.8,0,3.36,0.35,3.57,3.36
						c0.21,3.01-1.66,3.36-3.53,2.74c0,0-0.35,0.87-2.08,0.9c-1.73,0.03-2.18-0.49-2.18-0.49s-0.24,1.42-5.2,1.04
						c-4.95-0.38-6.58-1.12-6.83-4.33C49.6,73.86,50.04,73,50.57,72.48z"/>
					<path class="st4" d="M55.26,74.6c0,0,0.15-0.06,0.41-0.16c0.27-0.09,0.65-0.22,1.12-0.33c0.47-0.11,1.03-0.21,1.65-0.23
						c0.15-0.01,0.31,0.01,0.47,0.01c0.16,0.02,0.32,0.03,0.48,0.06c0.32,0.05,0.66,0.17,0.94,0.35c0.58,0.37,1,0.91,1.29,1.47
						c0.29,0.56,0.44,1.14,0.47,1.64c0.03,0.51-0.09,0.94-0.24,1.2c-0.16,0.26-0.31,0.35-0.35,0.32c-0.04-0.04,0.05-0.17,0.13-0.42
						c0.09-0.25,0.15-0.62,0.11-1.08c-0.04-0.45-0.18-0.99-0.44-1.5c-0.26-0.52-0.64-1.03-1.14-1.37c-0.25-0.17-0.53-0.29-0.83-0.35
						c-0.15-0.04-0.3-0.05-0.45-0.08c-0.15-0.01-0.3-0.03-0.45-0.03c-0.59-0.02-1.15,0.05-1.62,0.13c-0.47,0.08-0.86,0.18-1.13,0.25
						C55.41,74.55,55.26,74.6,55.26,74.6z"/>
					<path class="st4" d="M60.49,73.36c0,0,0.59-0.16,1.51-0.23c0.11-0.01,0.23-0.02,0.36-0.02c0.12,0,0.25,0,0.39,0
						c0.26-0.01,0.54,0.02,0.83,0.04c0.15,0.01,0.29,0.04,0.44,0.07c0.15,0.03,0.3,0.05,0.45,0.09l0.23,0.08l0.11,0.04l0.11,0.06
						l0.21,0.12c0.07,0.05,0.13,0.1,0.19,0.15c0.5,0.41,0.82,0.99,1.02,1.55c0.19,0.56,0.26,1.12,0.22,1.6
						c-0.04,0.48-0.17,0.87-0.34,1.11c-0.07,0.12-0.16,0.2-0.22,0.25c-0.06,0.05-0.1,0.06-0.12,0.05c-0.02-0.02-0.01-0.06,0.01-0.13
						c0.02-0.07,0.08-0.15,0.12-0.27c0.1-0.23,0.18-0.58,0.2-1.02c0.01-0.43-0.05-0.95-0.22-1.47c-0.17-0.52-0.45-1.05-0.88-1.43
						c-0.05-0.05-0.11-0.1-0.16-0.14l-0.18-0.11l-0.09-0.06l-0.1-0.04l-0.19-0.08c-0.14-0.04-0.28-0.07-0.42-0.11
						c-0.14-0.03-0.28-0.07-0.42-0.09c-0.28-0.04-0.55-0.09-0.81-0.09c-0.13-0.01-0.26-0.02-0.38-0.02c-0.12,0-0.24,0-0.35,0
						C61.09,73.25,60.49,73.36,60.49,73.36z"/>
					<g>
						<path class="st5" d="M49.71,75.29c0.24,3.22,1.87,3.95,6.83,4.33c4.96,0.38,5.2-1.04,5.2-1.04s0.45,0.52,2.18,0.49
							c1.73-0.03,2.08-0.9,2.08-0.9c1.87,0.62,3.74,0.28,3.53-2.74c-0.21-3.01-1.77-3.36-3.57-3.36c-0.86,0-1.44-0.19-1.82-0.39
							c-0.76,0.26-2.52-0.02-4.58-2.18c0,0,0,1.14,1.04,2.26c1.04,1.12-3.9,1.12-4.99-1.95c0,0-1.53,3.28-4.88,2.7
							c-0.06-0.01-0.11-0.02-0.17-0.04C50.04,73,49.6,73.86,49.71,75.29z M55.13,74.96c3.87-1.82,5.72,0,5.72,0
							c-0.78-0.8-0.78-1.26,1.04-1.66c2.16-0.47,3.56,0.75,3.56,0.75c-1.93-1.85,2.85-3.23,3.81,0.2c0.27,0.95,0.48,2.63-0.84,2.94
							c-1.55,0.37-2.03-0.76-2.12-1.04c0.08,0.31,0.3,1.65-1.74,1.83c-2.32,0.21-2.75-1.14-2.75-1.14c0.1,0.47,0.54,1.77-2.7,2.1
							C56.26,79.23,51.25,76.78,55.13,74.96z"/>
					</g>
				</g>
				<path class="st6" d="M69.24,76.23c0,0,0.42-1.63-0.66-3.01c-0.95-1.22-2.43-0.85-2.43-0.85S69.05,72.35,69.24,76.23z"/>
				<path class="st6" d="M65.88,77.32c0,0,0.42-1.63-0.66-3.01c-0.95-1.22-2.43-0.85-2.43-0.85S65.69,73.44,65.88,77.32z"/>
				<path class="st6" d="M61.34,78.19c0,0,0.42-1.63-0.66-3.01c-0.95-1.22-2.43-0.85-2.43-0.85S61.15,74.31,61.34,78.19z"/>
			</g>
		</g>
		<g>
			<g>
				<path class="st0" d="M69.69,24.61c2.28-2.76,11.95,0.5,17.88,10.48c5.93,9.98,6.02,22.22,4.33,22.25
					c-1.04,0.01-1.18-3.6-1.18-3.6s0.07,3.95-1.18,4.16c-1.25,0.21-1.45-3.88-1.45-3.88s0.07,3.83-1.11,3.89
					c-1.18,0.06-1.25-3.47-1.25-3.47s0.17,3.59-1.28,3.59c-1.46-0.01-2.04-1.97-3.58-7.8c-1.55-5.82-3.52-9.88-7.37-13.51
					C69.66,33.07,67.2,27.63,69.69,24.61z"/>
				<path class="st2" d="M92.04,57.31c-0.04,0.02-0.09,0.03-0.14,0.03c-1.04,0.01-1.18-3.6-1.18-3.6s0.07,3.95-1.18,4.16
					c-1.25,0.21-1.45-3.88-1.45-3.88s0.07,3.83-1.11,3.89c-1.06,0.06-1.22-2.77-1.24-3.36c0.01,0.6,0.02,3.49-1.29,3.48
					c-0.3,0-0.5-0.09-0.65-0.26c-0.84,0.08-2.46,0.39-3.3,1.53c-1.8,2.43-0.54,5.47,1.21,3.85c1.84-1.7,3.05-1.06,3.64,0.46
					c0.59,1.52-0.83,3.53,0.69,4.12c1.52,0.59,2.42-1.18,2.42-1.18s0.45,1.56,2.81-0.62c0,0,1.07,0.45,2.29-1.66
					C94.72,62.22,94.14,59.07,92.04,57.31z"/>
				<g>
					<path class="st4" d="M87.68,60.98c0,0,0.1,0.06,0.25,0.19c0.15,0.13,0.35,0.34,0.54,0.63c0.19,0.29,0.38,0.65,0.5,1.07
						c0.13,0.42,0.18,0.89,0.19,1.35c0.03,0.93-0.2,1.88-0.6,2.48c-0.19,0.3-0.4,0.52-0.57,0.64c-0.17,0.12-0.29,0.16-0.32,0.12
						c-0.07-0.09,0.28-0.36,0.59-0.94c0.32-0.56,0.56-1.42,0.59-2.31c0.01-0.44-0.01-0.89-0.09-1.29c-0.09-0.41-0.23-0.77-0.4-1.06
						c-0.16-0.29-0.34-0.52-0.47-0.66C87.77,61.05,87.68,60.98,87.68,60.98z"/>
					<path class="st4" d="M90.53,60.57c0,0,0.09,0.06,0.24,0.19c0.14,0.13,0.34,0.32,0.55,0.59c0.2,0.26,0.41,0.6,0.56,1
						c0.16,0.39,0.24,0.85,0.24,1.3c0.01,0.11,0,0.23-0.01,0.34c-0.01,0.11-0.01,0.23-0.03,0.34c-0.04,0.22-0.07,0.44-0.16,0.65
						c-0.13,0.42-0.37,0.76-0.59,1.02c-0.24,0.25-0.45,0.44-0.64,0.53c-0.17,0.1-0.28,0.14-0.31,0.09
						c-0.03-0.04,0.03-0.14,0.16-0.28c0.14-0.13,0.31-0.33,0.52-0.56c0.39-0.48,0.73-1.27,0.74-2.13c0.02-0.43-0.02-0.85-0.14-1.23
						c-0.11-0.38-0.28-0.72-0.45-1c-0.17-0.28-0.35-0.49-0.48-0.63C90.62,60.64,90.53,60.57,90.53,60.57z"/>
				</g>
			</g>
			<g class="st1">
				<path class="st0" d="M69.69,24.61c1.8-2.17,8.18-0.61,13.7,5.03c-4.33-4.09-4.53-1.12-2.74,4.65c1.57,5.06,2.46,7.47,0.95,6.55
					c-1.51-0.92,0.65,3.58,1.64,9.98c0.87,5.54,1.12,6,1.7,5.96c0.58-0.04,0.54-3.05,0.45-5.06c0,0,0.52,4.33,1.49,4.09
					c0.97-0.24,0.89-3.43,0.78-4.5c0,0,0.85,4.19,1.68,3.84c0.83-0.34,1.32-2.27,0.88-4.65c0.05,0.31,0.61,3.45,1.58,3.02
					c1.03-0.45,0.75-5.32-0.59-9.99c2.19,7.34,1.91,13.78,0.68,13.8c-1.04,0.01-1.18-3.6-1.18-3.6s0.07,3.95-1.18,4.16
					c-1.25,0.21-1.45-3.88-1.45-3.88s0.07,3.83-1.11,3.89c-1.06,0.06-1.22-2.77-1.24-3.36c0.01,0.6,0.02,3.49-1.29,3.48
					c-1.46-0.01-2.04-1.97-3.58-7.8c-1.55-5.82-3.52-9.88-7.37-13.51C69.66,33.07,67.2,27.63,69.69,24.61z"/>
			</g>
			<path class="st3" d="M91.85,49.24c0,0-0.57-12.16-9.36-20.04C82.49,29.2,88.46,37.54,91.85,49.24z"/>
			<g>
				<path class="st5" d="M80.5,59.28c0.33-0.45,0.79-0.77,1.27-1l0,0c-1.6,0.81-2.43,3.53-1.25,4.25s1.84-1.52,3.71-1.56
					c1.87-0.03,2.01,2.22,1.94,3.81c-0.07,1.59,1.56,1.56,2.25,0.1c0.69-1.46-0.27-3.5-0.27-3.5s1.05,0.77,1.17,2.6
					c0.12,1.84,1.62,1.94,2.18,0.23c0.56-1.7-0.58-3.25-0.58-3.25c1.43,1.18,1.13,3.51,2.14,3.25c0.9-0.24,1.06-1.88,1.09-2.21
					c-0.02,0.8-0.21,1.57-0.58,2.22c-1.21,2.11-2.29,1.66-2.29,1.66c-2.36,2.18-2.81,0.62-2.81,0.62s-0.9,1.77-2.42,1.18
					c-1.53-0.59-0.1-2.6-0.69-4.12c-0.59-1.52-1.8-2.15-3.64-0.46C79.96,64.76,78.7,61.71,80.5,59.28z"/>
			</g>
			<path class="st6" d="M93.51,63.6c0,0,1.49-2.62-1.11-5.58C92.4,58.02,93.94,60.78,93.51,63.6z"/>
			<path class="st6" d="M90.83,65.08c0,0,1.87-1.91-0.44-4.51C90.39,60.57,91.78,62.82,90.83,65.08z"/>
			<path class="st6" d="M87.53,65.68c0,0,2.34-1.91,0.03-4.51C87.56,61.16,88.84,63.42,87.53,65.68z"/>
		</g>
		<g>
			<path class="st0" d="M29.12,15.61c0,0-1.04-0.05-2.03,0.05c-0.64,0.07,0.38-1.46,2.92-2.38C27.31,0.45,11.98-1.09,9.56,0.53
				C7.42,1.97,6.3,20.94,20.46,22.98C21.65,20.6,24.57,16.87,29.12,15.61z"/>
			<g class="st1">
				<path class="st0" d="M27.09,15.66c-0.64,0.07,0.38-1.46,2.92-2.38C28.79,7.49,25,3.99,20.98,2.06c4.42,2.39,4.79,6.83,2.37,4.93
					c-6.02-4.72-12.34-4.2-12.34-4.2c-0.48,6.38,1.41,9.82,3.77,12.89c2.36,3.08,0.8,3.88-1.73,2.5c-3.34-1.81-4.48-8.32-4.5-8.42
					c0.87,5.69,4.02,12.08,11.9,13.21c1.19-2.38,4.11-6.11,8.66-7.37C29.12,15.61,28.08,15.56,27.09,15.66z"/>
			</g>
			<g>
				<path class="st2" d="M23.21,9.16c-3.26-4.78-9.22-6.03-11.78-5.82c0,0-0.71,11.55,11.2,16.47c0.78-0.88,1.71-1.74,2.8-2.48
					C25.54,15.48,25.33,12.28,23.21,9.16z"/>
			</g>
			<g>
				<path class="st2" d="M25.43,17.33c0.11-1.85-0.1-5.06-2.22-8.17c-0.96-1.4-2.15-2.5-3.42-3.35c-2.86,0.93-3.88,6.85,3.36,13.44
					C23.81,18.57,24.57,17.92,25.43,17.33z"/>
			</g>
			<path class="st3" d="M9.76,0.99c0,0,5.48-2.7,13.02,3.12C22.79,4.1,16.28,0.76,9.76,0.99z"/>
		</g>
		<path class="st7" d="M43.85,5.23c0,0,0.14-3.8,3.12-4.71c0.9-0.28,0.14,1.39,0,3.67c0,0,2.89-3.44,8.48-2.72
			C56.67,1.62,53,4.67,53,4.67c2.56-1.42,7.58-0.85,8.14-0.03c0.38,0.55-3.01,1.21-3.01,1.21s8.86-0.66,15.18,8.52
			c4.48,6.52,6,16.3,5.89,20.37c-0.07,2.5-0.83,1.18-2.22,0c0,0,4.75,4.42,2.22,11.85c-0.65,1.91-0.85-0.85-1.79-2.93
			c0,0,1.43,4.27-0.95,7.78c-0.66,0.97,0.07-2.53-1.28-4.75c0,0,0.99,3.93-2.76,9.23c-3.74,5.3-7.5,6.35-6.76,4.99
			c1.25-2.29,0.99-3.74,0.99-3.74s-1.35,3.55-4.37,5.21c-1.63,0.9-0.97-0.49-0.97-0.49s-1.25,1.79-4.61,2.7
			c-1.14,0.31-0.07-0.97,0.24-2.81c0,0-1.21,3.01-5.32,3.43c-4.11,0.42-7.23-3.64-7.23-3.64s0.88,1.56,2.39,3.22
			c1.51,1.66-5.25,0.57-8.42-3.59c0,0,0.52,1.16,2.22,3.27c1.7,2.11-3.88,0.69-8.04-4.4c0,0,0.69,1.25,2.08,3.15
			c1.38,1.91-4.16,1.7-8.8-6.1c0,0,0.26,1.09,0.76,2.91c0.38,1.39-3.26-1.04-3.67-5.23c0,0-0.09,2.55,0.23,4.83
			c0.31,2.29-7.02-1.2-6.13-15.91c0,0-0.52,0.88-0.94,3.07c-0.42,2.18-2.44-3.79,0-9.15c0,0-0.9,1.46-2.13,1.82
			c-0.88,0.26-0.25-1,0-1.61c0.99-2.44,2.39-16.89,7.17-20.01c0,0-0.82-0.27-2.34,0.62c-1.4,0.83,1.71-7.4,8.94-9.41
			c0,0-1.04-0.05-2.03,0.05c-0.99,0.1,2-3.65,8.58-2.96c0.99,0.1-0.16-0.88-1.4-1.14C31.62,4.79,35,2.77,39.83,4.79
			c0,0-0.62-1.09-1.61-1.77C37.23,2.35,41.32,1.4,43.85,5.23z"/>
		<g class="st8">
			<path class="st7" d="M76.98,34.75c1.39,1.18,2.15,2.5,2.22,0c0.11-4.07-1.41-13.86-5.89-20.37c-6.32-9.19-15.18-8.52-15.18-8.52
				s3.4-0.66,3.01-1.21C60.58,3.83,55.56,3.25,53,4.67c0,0,3.67-3.05,2.45-3.21c-5.59-0.72-8.48,2.72-8.48,2.72
				c0.14-2.29,0.9-3.95,0-3.67C44,1.43,43.85,5.23,43.85,5.23c-2.53-3.83-6.62-2.88-5.63-2.2c0.99,0.68,1.61,1.77,1.61,1.77
				c-4.83-2.03-8.21,0-6.97,0.26c1.25,0.26,2.39,1.25,1.4,1.14c-6.57-0.69-9.56,3.07-8.58,2.96c0.99-0.1,2.03-0.05,2.03-0.05
				c-7.23,2.01-10.34,10.24-8.94,9.41c1.51-0.9,2.34-0.62,2.34-0.62c-4.78,3.12-6.18,17.57-7.17,20.01c-0.25,0.61-0.88,1.87,0,1.61
				c1.23-0.36,2.13-1.82,2.13-1.82c-2.44,5.35-0.42,11.33,0,9.15c0.42-2.18,0.94-3.07,0.94-3.07c-0.88,14.71,6.45,18.19,6.13,15.91
				c-0.31-2.29-0.23-4.83-0.23-4.83c0.42,4.19,4.05,6.62,3.67,5.23c-0.5-1.82-0.76-2.91-0.76-2.91c4.64,7.8,10.19,8,8.8,6.1
				c-1.39-1.91-2.08-3.15-2.08-3.15c4.16,5.09,9.74,6.51,8.04,4.4c-1.7-2.11-2.22-3.27-2.22-3.27c3.17,4.16,9.93,5.25,8.42,3.59
				c-1.51-1.66-2.39-3.22-2.39-3.22s3.12,4.05,7.23,3.64c4.11-0.42,5.32-3.43,5.32-3.43c-0.31,1.84-1.39,3.12-0.24,2.81
				c3.36-0.92,4.61-2.7,4.61-2.7s-0.66,1.39,0.97,0.49c3.01-1.67,4.37-5.21,4.37-5.21s0.26,1.45-0.99,3.74
				c-0.74,1.36,3.01,0.31,6.76-4.99c3.74-5.3,2.76-9.23,2.76-9.23c1.35,2.22,0.62,5.72,1.28,4.75c2.38-3.51,0.95-7.78,0.95-7.78
				c0.94,2.08,1.14,4.83,1.79,2.93C81.72,39.17,76.98,34.75,76.98,34.75z M76.84,40.86c-0.78,0.42-2.07-2.17-2.07-2.17
				c0.98,3.97,0.16,5.73-0.78,5.83c-0.93,0.1-1.19-2.17-1.19-2.17c0.18,10.54-4.27,14.16-5.25,13.95c-0.98-0.21-0.67-3.06-0.67-3.06
				c-1.14,3.96-3.64,6.58-4.44,6.44c-0.79-0.14,0-2.31,0-2.31c-0.9,2.27-2.83,4.3-4.11,4.23c-1.27-0.07-0.28-3.03-0.28-3.03
				s-1.65,4.87-7.56,4.64c-4.42-0.17-7.33-3.47-7.33-3.47s2.11,4.23-0.9,3.35c-3-0.89-5.24-4.18-5.24-4.18
				c1.45,3.24,1.97,4.99-1.1,2.75c-3.07-2.24-4.66-4.47-4.66-4.47c1.18,3.2,1.11,4.78-1.79,2.58c-2.9-2.2-4.12-5-4.12-5
				c0.69,3.34-0.52,2.96-1.59,0.85c-0.69-1.35-1.19-4.12-1.19-4.12c0.35,7.21-2.21,4.61-3.11,0.39c-1.31-6.21-0.64-11.71-0.64-11.71
				c-1.14,2.79-2.25,3.73-1.71,0.32c0.54-3.41,1.37-6.44,1.37-6.44c-3.53,4.63-1.87-5.64,1.45-11.78c3.64-6.73,5.44-6.88,5.44-6.88
				c-3.45,1.01-6.07,0.76-1.82-2.85C27.74,9,34.02,8.16,34.02,8.16c-3.45,0-5.24-0.79-3.77-1.24c3.59-1.09,8.74,0.14,8.74,0.14
				c-2.86-0.9-5.08-2.75-2.59-2.79c2.49-0.03,5.83,1.9,5.83,1.9c-2.29-1.58-3.13-3.35-1.2-2.9c1.93,0.45,3.56,3.37,3.56,3.37
				c-0.41-4.2,2.2-6.03,1.9-4.23c-0.3,1.79,0,3.76,0,3.76c2.35-3.71,7.18-3.9,6.28-2.27c-1.07,1.91-2.68,3.02-2.68,3.02
				c2.31-1.34,7.74-3.51,8.01-2.13c0.28,1.38-2.43,1.95-2.43,1.95c20.72-1.21,22.96,24.13,21.37,24.89
				c-1.47,0.7-3.29-1.86-3.29-1.86C77.88,36.11,77.62,40.44,76.84,40.86z"/>
		</g>
	</g>
	<g>
		<g>
			<g>
				<path class="st9" d="M25.86,31.3c0,0,7.6,1.32,14.26,5.81c-0.64-1.59-1.96-2.85-1.96-2.85s4.33-0.16,5.81-6.18
					c1.69,0.16,3.28-0.05,3.28-0.05s1.53,5.55,7.56,5.87c-0.69,1.11-0.32,2.33-0.32,2.33s2.33-4.54,10.78-5.23
					c-1.32-1.27-2.69-0.9-2.69-0.9s1.48-2.22,1.22-5.02c0.85-0.53,0.74-1.32,0.16-2.27c-0.21,1.37-4.44,3.86-13.69,4.28
					c-9.25,0.42-22.72-0.58-24.47-2.48c0,0,0.21,1.48,1.74,1.9c0.48,2.11,1.32,4.17,1.32,4.17S26.87,30.24,25.86,31.3z"/>
				<path class="st9" d="M31.92,37.91c0,0,10.21,12.87,28.34,7.31c3.12-1.14,3.89-2.13,2.21-2.97c2.29-0.91,4.04,0.99,2.51,2.59
					c-1.52,1.6-3.05,2.29-6.78,5.18c-3.73,2.9-10.44,8.53-19.35,3.89c-8.91-4.65-8.15-14.78-8.15-14.78s0.08,3.2-0.99,3.35
					c-1.07,0.15-2.89-4.04-0.53-6.55c2.36-2.51,5.87,0.61,5.87,1.45C35.04,38.21,31.46,36.99,31.92,37.91z"/>
				<g>
					<path class="st9" d="M49.32,38.9c0,0.85-0.32,1.53-0.71,1.53c-0.39,0-0.71-0.69-0.71-1.53c0-0.85,0.32-1.54,0.71-1.54
						C49,37.36,49.32,38.05,49.32,38.9z"/>
					<path class="st9" d="M46.11,39.24c0.18,0.83,0.02,1.57-0.36,1.65c-0.38,0.08-0.84-0.52-1.02-1.35
						c-0.18-0.83-0.02-1.57,0.37-1.65C45.47,37.8,45.93,38.41,46.11,39.24z"/>
					<path class="st9" d="M51.82,20.2c0,0,3.81-5.99,6.76-3.8c1.2,0.63-1.41-4.51-3.59-3.38C52.8,14.14,49.42,22.52,51.82,20.2z"/>
					<path class="st9" d="M41.11,20.9c0,0-3.95-2.04-7.4-0.92c-2.75,0.85-0.92-1.06,0.56-2.25c1.48-1.2,3.31-0.85,5.07,0.63
						C41.11,19.84,41.67,21.04,41.11,20.9z"/>
					<path class="st10" d="M51.35,19.27c0,0,3.8-5.99,6.76-3.8c1.2,0.63-1.41-4.51-3.59-3.38S48.96,21.6,51.35,19.27z"/>
					<path class="st10" d="M40.64,19.98c0,0-3.94-2.04-7.4-0.92c-2.75,0.84-0.92-1.06,0.56-2.25c1.48-1.2,3.31-0.85,5.07,0.63
						C40.64,18.92,41.21,20.12,40.64,19.98z"/>
					<path class="st10" d="M49.09,38.14c0,0.85-0.32,1.54-0.71,1.54c-0.39,0-0.71-0.69-0.71-1.54c0-0.85,0.32-1.54,0.71-1.54
						C48.77,36.61,49.09,37.29,49.09,38.14z"/>
					<path class="st10" d="M45.88,38.49c0.18,0.83,0.02,1.57-0.37,1.65c-0.38,0.08-0.83-0.52-1.01-1.35
						c-0.18-0.83-0.02-1.57,0.36-1.65C45.25,37.05,45.7,37.66,45.88,38.49z"/>
					<g>
						<defs>
							<path id="SVGID_1_" d="M47.39,27.09c0,0,2.15,6.84,8.61,6.13c7.24-0.79,7.35-6.92,7.08-8.56
								C59.6,25.93,50.88,27.36,47.39,27.09z"/>
						</defs>
						<use xlink:href="#SVGID_1_"  style="overflow:visible;fill:#FFFFFF;"/>
						<clipPath id="SVGID_2_">
							<use xlink:href="#SVGID_1_"  style="overflow:visible;"/>
						</clipPath>
						<g class="st11">
							<path class="st12" d="M58.63,25.94c0.39,1.72-0.68,3.31-2.37,3.55c-1.7,0.24-3.38-0.96-3.77-2.68
								c-0.38-1.72,0.68-3.31,2.38-3.55C56.55,23.02,58.24,24.22,58.63,25.94z"/>
							<path class="st13" d="M58.09,26.06c0.32,1.41-0.56,2.72-1.95,2.92c-1.39,0.2-2.78-0.79-3.1-2.21
								c-0.32-1.41,0.56-2.72,1.95-2.92C56.38,23.65,57.77,24.64,58.09,26.06z"/>
							<path class="st14" d="M57.22,26.18c0.2,0.89-0.35,1.71-1.22,1.83c-0.87,0.12-1.74-0.5-1.94-1.38
								c-0.2-0.89,0.35-1.71,1.22-1.83C56.15,24.68,57.02,25.29,57.22,26.18z"/>
							<path class="st15" d="M55.07,25.3c-0.14,0.41-0.57,0.74-0.96,0.72c-0.39-0.02-0.6-0.36-0.46-0.78
								c0.14-0.41,0.57-0.74,0.96-0.72C55,24.54,55.21,24.88,55.07,25.3z"/>
							<path class="st15" d="M54.03,26.82c0.04,0.18-0.07,0.35-0.26,0.37c-0.18,0.03-0.35-0.1-0.39-0.28
								c-0.04-0.18,0.08-0.35,0.26-0.37C53.82,26.52,53.99,26.64,54.03,26.82z"/>
						</g>
					</g>
					<g>
						<path class="st9" d="M63.08,24.66c-3.49,1.27-12.21,2.69-15.69,2.43c0,0,2.15,6.84,8.61,6.13
							C63.24,32.43,63.35,26.3,63.08,24.66z M55.98,32.65C50.74,33.22,49,27.68,49,27.68c2.83,0.21,9.9-0.94,12.73-1.97
							C61.94,27.04,61.85,32.01,55.98,32.65z"/>
					</g>
					<g>
						<defs>
							<path id="SVGID_3_" d="M28.39,26.02c0,0,9.17,1.36,14.88,1.21c0.44,3.86-3.34,7.27-8.76,6.46
								C29.09,32.87,28.4,28.07,28.39,26.02z"/>
						</defs>
						<use xlink:href="#SVGID_3_"  style="overflow:visible;fill:#FFFFFF;"/>
						<clipPath id="SVGID_4_">
							<use xlink:href="#SVGID_3_"  style="overflow:visible;"/>
						</clipPath>
						<g class="st16">
							<path class="st12" d="M39.46,26.73c0.38,1.72-0.68,3.31-2.38,3.55c-1.7,0.24-3.38-0.96-3.77-2.68
								c-0.38-1.72,0.68-3.31,2.37-3.55C37.38,23.81,39.07,25.01,39.46,26.73z"/>
							<path class="st13" d="M38.92,26.85c0.32,1.41-0.56,2.72-1.95,2.92c-1.4,0.2-2.78-0.79-3.1-2.21
								c-0.32-1.41,0.56-2.72,1.95-2.92C37.21,24.44,38.6,25.43,38.92,26.85z"/>
							<path class="st14" d="M38.05,26.97c0.2,0.89-0.35,1.71-1.22,1.83c-0.87,0.12-1.74-0.5-1.94-1.38
								c-0.2-0.89,0.35-1.71,1.22-1.83C36.98,25.47,37.85,26.08,38.05,26.97z"/>
							<path class="st15" d="M35.9,26.09c-0.14,0.41-0.57,0.74-0.96,0.72c-0.39-0.02-0.6-0.36-0.46-0.78
								c0.14-0.41,0.57-0.74,0.96-0.72C35.83,25.33,36.04,25.67,35.9,26.09z"/>
							<path class="st15" d="M34.86,27.61c0.04,0.18-0.08,0.35-0.26,0.37c-0.18,0.03-0.35-0.1-0.39-0.28
								c-0.04-0.18,0.08-0.35,0.26-0.37C34.65,27.31,34.82,27.43,34.86,27.61z"/>
						</g>
					</g>
					<g>
						<path class="st9" d="M43.28,27.22c-5.72,0.15-14.88-1.21-14.88-1.21c0.01,2.06,0.7,6.85,6.12,7.66
							C39.94,34.49,43.72,31.09,43.28,27.22z M34.72,32.97c-4.29-0.64-4.84-4.43-4.84-6.06c0,0,7.25,1.07,11.77,0.96
							C42,30.91,39.01,33.61,34.72,32.97z"/>
					</g>
					<path class="st10" d="M39.03,35.83c-0.58-0.7-1.55-0.97-2.3-1.46c-1.04-0.69-2.25-1.04-3.39-1.53
						c-2.01-0.87-4.02-1.5-6.16-1.89c-0.08-0.01-0.22,0.18-0.14,0.23c0.73,0.45,1.65,0.61,2.46,0.87c1.15,0.37,2.34,0.84,3.43,1.37
						c1,0.49,2.05,0.84,3.03,1.39c0.88,0.5,2.27,0.83,3.13,1.36C39.31,36.32,39.18,36.01,39.03,35.83z"/>
					<path class="st10" d="M34.26,36.96c-0.9-0.65-1.98-0.84-3.04-1.08c-0.56-0.12-1.09,0.29-1.4,0.7c-0.5,0.67-0.75,1.4-0.89,2.22
						c-0.14,0.78-0.26,2.07,0.28,2.71c0.27,0.31,0.65-0.37,0.64-0.6c-0.02-1.22-0.42-2.29-0.02-3.53c0.52-1.66,3.23-0.51,4.27-0.16
						C34.18,37.27,34.34,37.03,34.26,36.96z"/>
					<path class="st10" d="M63.54,42.6c-0.1-0.01-0.22,0.18-0.15,0.25c0.28,0.31,0.9,1.02,0.47,1.38c-0.48,0.41-1.05,0.71-1.58,1.03
						c-1.23,0.73-2.5,1.08-3.83,1.56c-0.2,0.07-0.64,0.77-0.23,0.7c2.04-0.35,3.76-1.25,5.45-2.42
						C64.79,44.31,65.56,42.83,63.54,42.6z"/>
					<path class="st15" d="M31.35,39.07c0,0,10.85,11.98,29.1,7.54c-3.52,4.37-11.41,10.43-19.66,7.04
						C32.54,50.27,31.63,43.16,31.35,39.07z"/>
					<path class="st9" d="M57.91,49.21c-0.76-0.05-1.5-0.02-2.27,0c-0.42,0.01-1.19-0.16-1.58,0.04c-0.81,0.43-1.73,1.15-2.43,1.92
						c0.1-0.74,0.19-1.7-0.52-1.77c-0.63-0.07-1.29,0.06-1.93,0c-0.84-0.08-1.66-0.15-2.5-0.28c-1.62-0.24-3.17-0.7-4.62-1.48
						c-0.69-0.37-1.75,0.97-2.19,1.32c-0.1,0.08-0.14-0.57-0.22-0.75c-0.24-0.6-0.55-1.16-0.79-1.75c-0.34-0.84-2,0.53-2.39,0.76
						c-0.42,0.25-0.84,0.46-1.23,0.76c-0.2,0.15-0.15-0.79-0.15-0.59c-0.01-0.49-0.09-0.97-0.14-1.45
						c-0.15-1.23-1.15-1.38-2.14-1.81c-0.07-0.03-0.19,0.13-0.12,0.18c0.69,0.57,1.75,0.99,1.8,2c0.03,0.61-0.1,1.82,0.28,2.32
						c0.04,0.05,0.07,0.06,0.13,0.05c0.35-0.08,0.62-0.4,0.93-0.58c0.66-0.4,1.38-0.7,2.03-1.11c0.74-0.47,1.21,2.4,1.45,2.74
						c0.04,0.06,0.09,0.08,0.16,0.06c0.68-0.19,1.56-1.83,2.35-1.37c1.02,0.59,2.21,1.07,3.36,1.33c1.29,0.29,2.6,0.38,3.92,0.52
						c0.23,0.02,1.87-0.21,1.84,0.33c-0.03,0.6-0.07,1.19-0.08,1.79c0,0.37,0.49-0.03,0.56-0.13c0.35-0.52,0.89-0.9,1.35-1.3
						c0.45-0.38,0.88-0.96,1.5-0.81c0.77,0.19,1.68,0.11,2.54,0.01C57.19,49.86,57.56,49.55,57.91,49.21z"/>
					<path class="st10" d="M61.79,21.73c-0.03,0-0.06,0.01-0.1,0.02c0.53,0.08,1.04,0.25,1.45,0.65c0.16,0.16,0.3,0.32,0.36,0.5
						c0.6,0.66-1.51,1.53-1.93,1.69c-1.71,0.63-3.49,1.07-5.28,1.42c-3.68,0.71-7.43,0.66-11.16,0.76
						c-3.81,0.09-7.57-0.16-11.34-0.62c-1.75-0.21-3.52-0.38-5.26-0.69c-0.78-0.14-1.56-0.35-2.24-0.75
						c-1.48-0.87,1.33-2.21,1.95-2.55c0.03-0.01,0.14-0.18,0.06-0.17c-1.02,0.08-2.9,1.01-2.97,2.23c-0.11,1.74,2.64,2,3.88,2.2
						c5.13,0.83,10.32,1.3,15.51,1.19c4.99-0.11,9.88-0.21,14.72-1.53c1.38-0.38,4.07-0.94,4.71-2.47
						C64.73,22.19,62.76,21.84,61.79,21.73z"/>
				</g>
				<path class="st10" d="M63.86,30.6c-1.83-0.03-3.59,0.56-5.2,1.39c-1.34,0.7-2.96,1.66-3.83,2.93c-0.13,0.19,0.02,0.29,0.16,0.11
					c0.92-1.15,2.62-1.99,3.91-2.62c1.51-0.73,3.12-1.1,4.76-1.35C63.8,31.05,64.06,30.61,63.86,30.6z"/>
			</g>
			<path class="st10" d="M53.56,45.76c-1.72-0.1-5.01-0.07-6.74-0.22c-2.02-0.17-4.02-0.83-5.91-1.55
				c-1.67-0.64-3.27-1.49-4.73-2.51c-1.42-0.99-2.43-2.2-3.56-3.48c-0.02-0.03-0.09,0.06-0.07,0.09c0.38,0.59,0.65,1.26,1.12,1.79
				c0.6,0.67,1.25,1.27,1.92,1.86c1.48,1.31,3.47,2.22,5.29,2.95c3.38,1.36,7.24,2.23,10.88,1.57C51.9,46.22,53.8,45.77,53.56,45.76
				z"/>
			<path class="st10" d="M44.48,26.23c-3.16-0.24-6.33-0.3-9.48-0.66c-2.81-0.32-5.65-0.7-8.29-1.77c-0.03-0.01-0.08,0.06-0.05,0.08
				c2.32,1.4,4.95,1.99,7.62,2.31c3.26,0.39,8.34,0.42,11.64,0.19C46.12,26.36,44.76,26.25,44.48,26.23z"/>
			<path class="st10" d="M36.25,15.85c-1.5-0.12-2.76,0.78-3.72,1.83c-0.06,0.07-0.08,0.28,0.05,0.16c1.03-0.93,2.09-1.28,3.44-1.43
				C36.19,16.39,36.5,15.88,36.25,15.85z"/>
			<path class="st10" d="M54.56,11.74c-1,0.5-1.72,1.51-2.38,2.39c-0.79,1.07-0.98,2.38-1.6,3.54c-0.08,0.16,0.07,0.18,0.15,0.06
				c0.56-0.88,0.79-1.81,1.25-2.72c0.54-1.08,1.59-2.13,2.56-2.83C54.67,12.08,54.86,11.6,54.56,11.74z"/>
		</g>
	</g>
</g>
</svg>
