<?xml version="1.0" encoding="utf-8"?>
<!-- Generator: Adobe Illustrator 24.0.1, SVG Export Plug-In . SVG Version: 6.00 Build 0)  -->
<svg version="1.1" id="Layer_1" xmlns="http://www.w3.org/2000/svg" xmlns:xlink="http://www.w3.org/1999/xlink" x="0px" y="0px"
	 viewBox="0 0 94.15 79.69" style="enable-background:new 0 0 94.15 79.69;" xml:space="preserve">
<style type="text/css">
	.st0{fill:#5B9B07;}
	.st1{opacity:0.5;}
	.st2{fill:#EAEA59;}
	.st3{opacity:0.5;fill:#5B9B07;}
	.st4{fill:#99B72A;}
	.st5{fill:#DBD74B;}
	.st6{fill:#FFE0B6;}
	.st7{fill:#92CE0F;}
	.st8{opacity:0.7;}
	.st9{fill:#DCDEDE;}
	.st10{fill:#C75954;}
	.st11{opacity:0.4;}
	.st12{fill:#FFFFFF;}
	.st13{fill:#717166;}
	.st14{fill:#ADADA3;}
	.st15{fill:#48483F;}
	.st16{fill:#ED9C9A;}
	.st17{opacity:0.7;fill:#D9D9D9;}
</style>
<g>
	<g>
		<g>
			<path class="st0" d="M65.83,16.6c0,0,1.04-0.05,2.03,0.05c0.64,0.07-0.38-1.46-2.92-2.38C67.64,1.44,83.45-0.59,85.87,1.03
				c2.15,1.44,3.27,20.42-10.9,22.45C73.78,21.1,70.38,17.86,65.83,16.6z"/>
			<g class="st1">
				<path class="st0" d="M67.86,16.65c0.64,0.07-0.38-1.46-2.92-2.38c1.22-5.8,5.5-9.78,9.52-11.71c-4.42,2.39-4.79,6.83-2.37,4.93
					c6.02-4.72,12.34-4.2,12.34-4.2c0.48,6.38-1.42,9.82-3.77,12.89c-2.36,3.08-0.8,3.88,1.72,2.5c3.34-1.82,4.48-8.32,4.5-8.42
					c-0.87,5.69-4.02,12.08-11.9,13.21c-1.19-2.38-4.59-5.62-9.14-6.88C65.83,16.6,66.87,16.55,67.86,16.65z"/>
			</g>
			<g>
				<path class="st2" d="M72.22,9.67c3.26-4.78,9.22-6.03,11.78-5.82c0,0,0.71,11.55-11.2,16.47c-0.77-0.88-1.71-1.74-2.8-2.48
					C69.89,15.98,70.1,12.78,72.22,9.67z"/>
			</g>
			<g>
				<path class="st2" d="M70.01,17.84c-0.11-1.85,0.1-5.06,2.22-8.17c0.96-1.4,2.15-2.5,3.42-3.35c2.86,0.93,3.88,6.84-3.36,13.44
					C71.62,19.08,70.86,18.42,70.01,17.84z"/>
			</g>
			<path class="st3" d="M85.67,1.49c0,0-5.47-2.7-13.02,3.12C72.65,4.61,79.16,1.27,85.67,1.49z"/>
		</g>
		<g>
			<g>
				<path class="st0" d="M44.68,65.32c0.46,3.52,0.38,6.92-1.26,7.2c-3.35,0.58-4.88-2.7-4.88-2.7c-1.09,3.07-6.03,3.07-4.99,1.95
					c1.04-1.12,1.04-2.26,1.04-2.26c-3.17,3.33-5.63,2.18-4.83,1.51c2.47-2.09,2.41-6.19,2.6-7.96c0.36-2.93,1.32-7.93,6.29-7.9
					C43.58,55.19,44.45,61.5,44.68,65.32z"/>
				<g class="st1">
					<path class="st0" d="M44.68,65.32c-0.23-3.82-1.1-10.12-6.04-10.16c-4.97-0.03-5.93,4.96-6.29,7.9
						c-0.19,1.77-0.13,5.87-2.6,7.96c-0.8,0.68,1.66,1.82,4.83-1.51c0,0,0,1.14-1.04,2.26c-1.04,1.12,3.9,1.12,4.99-1.95
						c0,0,1.53,3.28,4.88,2.7C45.06,72.24,45.14,68.84,44.68,65.32z M41.74,71.49c-2.25-0.44-3.05-4.13-3.05-4.13
						c-0.83,3.62-5.26,4.81-4.4,3.78c1.1-1.32,0.97-3.95,0.97-3.95c-0.62,1.98-3.48,3.85-4.24,3.36c-0.76-0.49,1.74-1.7,1.71-6.1
						c2.12,0.88,3.81,0.87,3.26,0.14c-0.55-0.73-0.94-1.46,0.66-0.21c1.59,1.25,5.13,2.29,4.85,1.59c-0.28-0.69-0.48-1.52,0.49-0.24
						C42.95,67.01,43.99,71.93,41.74,71.49z"/>
				</g>
			</g>
			<g>
				<g>
					<path class="st2" d="M43.59,72.48c-0.05,0.02-0.11,0.03-0.17,0.04c-3.35,0.58-4.88-2.7-4.88-2.7
						c-1.09,3.07-6.03,3.07-4.99,1.95c1.04-1.12,1.04-2.26,1.04-2.26c-2.06,2.16-3.81,2.43-4.58,2.18c-0.37,0.2-0.96,0.39-1.81,0.39
						c-1.8,0-3.36,0.35-3.57,3.36c-0.21,3.01,1.66,3.36,3.53,2.74c0,0,0.35,0.87,2.08,0.9c1.73,0.03,2.18-0.49,2.18-0.49
						s0.24,1.42,5.2,1.04c4.96-0.38,6.58-1.12,6.83-4.33C44.55,73.86,44.11,73,43.59,72.48z"/>
					<path class="st4" d="M38.9,74.6c0,0-0.15-0.06-0.41-0.16c-0.27-0.09-0.65-0.22-1.12-0.33c-0.47-0.11-1.03-0.21-1.65-0.23
						c-0.15-0.01-0.31,0.01-0.47,0.01c-0.16,0.02-0.32,0.03-0.48,0.06c-0.32,0.05-0.66,0.17-0.94,0.35c-0.58,0.37-1,0.91-1.29,1.47
						c-0.29,0.56-0.44,1.14-0.47,1.64c-0.03,0.51,0.09,0.94,0.24,1.2c0.16,0.26,0.31,0.35,0.35,0.32c0.04-0.04-0.05-0.17-0.13-0.42
						c-0.09-0.25-0.15-0.62-0.11-1.08c0.04-0.45,0.18-0.99,0.44-1.5c0.26-0.52,0.63-1.03,1.14-1.37c0.25-0.17,0.53-0.29,0.83-0.35
						c0.15-0.04,0.3-0.05,0.45-0.08c0.15-0.01,0.3-0.03,0.45-0.03c0.59-0.02,1.15,0.05,1.62,0.13c0.47,0.08,0.86,0.18,1.13,0.25
						C38.75,74.55,38.9,74.6,38.9,74.6z"/>
					<path class="st4" d="M33.66,73.36c0,0-0.59-0.16-1.51-0.23c-0.11-0.01-0.23-0.02-0.36-0.02c-0.12,0-0.25,0-0.38,0
						c-0.27-0.01-0.54,0.02-0.83,0.04c-0.15,0.01-0.29,0.04-0.44,0.07c-0.15,0.03-0.3,0.05-0.45,0.09l-0.23,0.08l-0.11,0.04
						l-0.11,0.06l-0.21,0.12c-0.07,0.05-0.13,0.1-0.19,0.15c-0.5,0.41-0.82,0.99-1.02,1.55c-0.19,0.56-0.26,1.12-0.22,1.6
						c0.04,0.48,0.16,0.87,0.33,1.11c0.07,0.12,0.16,0.2,0.22,0.25c0.06,0.05,0.1,0.06,0.12,0.05c0.02-0.02,0.01-0.06-0.01-0.13
						c-0.02-0.07-0.08-0.15-0.12-0.27c-0.1-0.23-0.18-0.58-0.2-1.02c-0.01-0.43,0.05-0.95,0.22-1.47c0.17-0.52,0.45-1.05,0.88-1.43
						c0.05-0.05,0.11-0.1,0.16-0.14l0.18-0.11l0.09-0.06l0.1-0.04l0.19-0.08c0.14-0.04,0.28-0.07,0.42-0.11
						c0.14-0.03,0.28-0.07,0.42-0.09c0.28-0.04,0.55-0.09,0.81-0.09c0.13-0.01,0.26-0.02,0.38-0.02c0.12,0,0.24,0,0.35,0
						C33.06,73.25,33.66,73.36,33.66,73.36z"/>
					<g>
						<path class="st5" d="M43.59,72.48c-0.05,0.02-0.11,0.03-0.17,0.04c-3.35,0.58-4.88-2.7-4.88-2.7
							c-1.09,3.07-6.03,3.07-4.99,1.95c1.04-1.12,1.04-2.26,1.04-2.26c-2.06,2.16-3.81,2.43-4.58,2.18
							c-0.37,0.2-0.96,0.39-1.81,0.39c-1.8,0-3.36,0.35-3.57,3.36c-0.21,3.01,1.66,3.36,3.53,2.74c0,0,0.35,0.87,2.08,0.9
							c1.73,0.03,2.18-0.49,2.18-0.49s0.24,1.42,5.2,1.04c4.96-0.38,6.58-1.12,6.83-4.33C44.55,73.86,44.11,73,43.59,72.48z
							 M35.05,78.93c-3.25-0.33-2.81-1.63-2.7-2.1c0,0-0.43,1.35-2.75,1.14c-2.04-0.18-1.82-1.52-1.74-1.83
							c-0.09,0.29-0.56,1.41-2.12,1.04c-1.32-0.31-1.11-1.99-0.84-2.94c0.96-3.43,5.74-2.04,3.81-0.2c0,0,1.4-1.22,3.56-0.75
							c1.82,0.4,1.81,0.86,1.04,1.66c0,0,1.84-1.82,5.72,0C42.9,76.78,37.89,79.23,35.05,78.93z"/>
					</g>
				</g>
				<path class="st6" d="M24.92,76.23c0,0-0.42-1.63,0.66-3.01C26.52,72,28,72.37,28,72.37S25.11,72.35,24.92,76.23z"/>
				<path class="st6" d="M28.28,77.32c0,0-0.42-1.63,0.66-3.01c0.95-1.22,2.42-0.85,2.42-0.85S28.47,73.44,28.28,77.32z"/>
				<path class="st6" d="M32.82,78.19c0,0-0.42-1.63,0.66-3.01c0.95-1.22,2.43-0.85,2.43-0.85S33.01,74.31,32.82,78.19z"/>
			</g>
		</g>
		<g>
			<g>
				<path class="st0" d="M24.46,24.61c-2.28-2.76-11.95,0.5-17.88,10.48c-5.93,9.98-6.02,22.22-4.33,22.25
					c1.04,0.01,1.18-3.6,1.18-3.6s-0.07,3.95,1.18,4.16c1.25,0.21,1.45-3.88,1.45-3.88s-0.07,3.83,1.11,3.89
					c1.18,0.06,1.25-3.47,1.25-3.47s-0.17,3.59,1.28,3.59c1.46-0.01,2.04-1.97,3.58-7.8c1.55-5.82,3.52-9.88,7.37-13.51
					C24.49,33.07,26.96,27.63,24.46,24.61z"/>
				<path class="st2" d="M2.11,57.31c0.04,0.02,0.09,0.03,0.14,0.03c1.04,0.01,1.18-3.6,1.18-3.6s-0.07,3.95,1.18,4.16
					c1.25,0.21,1.45-3.88,1.45-3.88s-0.07,3.83,1.11,3.89c1.06,0.06,1.22-2.77,1.24-3.36c-0.01,0.6-0.02,3.49,1.29,3.48
					c0.3,0,0.5-0.09,0.65-0.26c0.84,0.08,2.45,0.39,3.3,1.53c1.8,2.43,0.54,5.47-1.21,3.85c-1.84-1.7-3.05-1.06-3.64,0.46
					c-0.59,1.52,0.83,3.53-0.69,4.12c-1.52,0.59-2.42-1.18-2.42-1.18s-0.45,1.56-2.81-0.62c0,0-1.07,0.45-2.29-1.66
					C-0.57,62.22,0.01,59.07,2.11,57.31z"/>
				<g>
					<path class="st4" d="M6.48,60.98c0,0-0.1,0.06-0.25,0.19c-0.15,0.13-0.35,0.34-0.54,0.63c-0.19,0.29-0.38,0.65-0.51,1.07
						C5.06,63.29,5,63.76,4.99,64.22c-0.03,0.93,0.2,1.88,0.6,2.48c0.19,0.3,0.4,0.52,0.57,0.64c0.17,0.12,0.29,0.16,0.32,0.12
						c0.07-0.09-0.28-0.36-0.59-0.94c-0.32-0.56-0.56-1.42-0.59-2.31c-0.01-0.44,0.01-0.89,0.09-1.29c0.09-0.41,0.23-0.77,0.4-1.06
						c0.16-0.29,0.33-0.52,0.47-0.66C6.39,61.05,6.48,60.98,6.48,60.98z"/>
					<path class="st4" d="M3.62,60.57c0,0-0.09,0.06-0.24,0.19c-0.15,0.13-0.35,0.32-0.55,0.59c-0.2,0.26-0.41,0.6-0.57,1
						c-0.15,0.39-0.24,0.85-0.24,1.3c-0.01,0.11,0,0.23,0.01,0.34c0.01,0.11,0.01,0.23,0.03,0.34c0.04,0.22,0.07,0.44,0.16,0.65
						c0.13,0.42,0.37,0.76,0.59,1.02c0.24,0.25,0.45,0.44,0.64,0.53c0.17,0.1,0.28,0.14,0.31,0.09c0.03-0.04-0.03-0.14-0.16-0.28
						c-0.14-0.13-0.31-0.33-0.52-0.56c-0.39-0.48-0.73-1.27-0.74-2.13c-0.03-0.43,0.02-0.85,0.14-1.23c0.11-0.38,0.28-0.72,0.45-1
						c0.17-0.28,0.35-0.49,0.48-0.63C3.53,60.64,3.62,60.57,3.62,60.57z"/>
				</g>
			</g>
			<g class="st1">
				<path class="st0" d="M24.46,24.61c-1.8-2.17-8.18-0.61-13.7,5.03c4.33-4.09,4.53-1.12,2.74,4.65c-1.57,5.06-2.46,7.47-0.95,6.55
					c1.51-0.92-0.65,3.58-1.65,9.98c-0.87,5.54-1.12,6-1.7,5.96c-0.58-0.04-0.54-3.05-0.45-5.06c0,0-0.52,4.33-1.49,4.09
					c-0.97-0.24-0.9-3.43-0.78-4.5c0,0-0.85,4.19-1.68,3.84c-0.83-0.34-1.32-2.27-0.88-4.65c-0.05,0.31-0.61,3.45-1.58,3.02
					c-1.03-0.45-0.75-5.32,0.59-9.99c-2.19,7.34-1.91,13.78-0.68,13.8c1.04,0.01,1.18-3.6,1.18-3.6s-0.07,3.95,1.18,4.16
					c1.25,0.21,1.45-3.88,1.45-3.88s-0.07,3.83,1.11,3.89c1.06,0.06,1.22-2.77,1.24-3.36c-0.01,0.6-0.02,3.49,1.29,3.48
					c1.46-0.01,2.04-1.97,3.58-7.8c1.55-5.82,3.52-9.88,7.37-13.51C24.49,33.07,26.96,27.63,24.46,24.61z"/>
			</g>
			<path class="st3" d="M2.31,49.24c0,0,0.57-12.16,9.36-20.04C11.66,29.2,5.69,37.54,2.31,49.24z"/>
			<g>
				<path class="st5" d="M13.65,59.28c-0.33-0.45-0.79-0.77-1.27-1l0,0c1.6,0.81,2.43,3.53,1.25,4.25
					c-1.18,0.73-1.84-1.52-3.71-1.56c-1.87-0.03-2.01,2.22-1.94,3.81c0.07,1.59-1.56,1.56-2.25,0.1c-0.69-1.46,0.27-3.5,0.27-3.5
					S4.96,62.16,4.84,64c-0.13,1.84-1.62,1.94-2.18,0.23c-0.56-1.7,0.58-3.25,0.58-3.25C1.8,62.16,2.1,64.5,1.09,64.23
					c-0.9-0.24-1.06-1.88-1.09-2.21c0.02,0.8,0.21,1.57,0.58,2.22c1.21,2.11,2.29,1.66,2.29,1.66c2.36,2.18,2.81,0.62,2.81,0.62
					s0.9,1.77,2.42,1.18c1.53-0.59,0.1-2.6,0.69-4.12c0.59-1.52,1.8-2.15,3.64-0.46C14.19,64.76,15.45,61.71,13.65,59.28z"/>
			</g>
			<path class="st6" d="M0.64,63.6c0,0-1.49-2.62,1.11-5.58C1.75,58.02,0.22,60.78,0.64,63.6z"/>
			<path class="st6" d="M3.32,65.08c0,0-1.87-1.91,0.44-4.51C3.76,60.57,2.38,62.82,3.32,65.08z"/>
			<path class="st6" d="M6.62,65.68c0,0-2.34-1.91-0.03-4.51C6.59,61.16,5.32,63.42,6.62,65.68z"/>
		</g>
		<g>
			<g>
				<path class="st0" d="M49.47,65.32c-0.46,3.52-0.38,6.92,1.26,7.2c3.36,0.58,4.89-2.7,4.89-2.7c1.09,3.07,6.03,3.07,4.99,1.95
					c-1.04-1.12-1.04-2.26-1.04-2.26c3.17,3.33,5.63,2.18,4.83,1.51c-2.47-2.09-2.41-6.19-2.6-7.96c-0.36-2.93-1.32-7.93-6.29-7.9
					C50.58,55.19,49.7,61.5,49.47,65.32z"/>
				<g class="st1">
					<path class="st0" d="M50.73,72.52c3.36,0.58,4.89-2.7,4.89-2.7c1.09,3.07,6.03,3.07,4.99,1.95c-1.04-1.12-1.04-2.26-1.04-2.26
						c3.17,3.33,5.63,2.18,4.83,1.51c-2.47-2.09-2.41-6.19-2.6-7.96c-0.36-2.93-1.32-7.93-6.29-7.9c-4.94,0.03-5.81,6.33-6.04,10.16
						C49.02,68.84,49.1,72.24,50.73,72.52z M52.17,65.73c0.97-1.28,0.76-0.45,0.49,0.24c-0.28,0.69,3.26-0.35,4.85-1.59
						c1.59-1.25,1.21-0.52,0.66,0.21c-0.56,0.73,1.14,0.74,3.26-0.14c-0.03,4.4,2.47,5.61,1.71,6.1c-0.76,0.49-3.61-1.39-4.24-3.36
						c0,0-0.13,2.63,0.97,3.95c0.86,1.03-3.57-0.16-4.4-3.78c0,0-0.8,3.69-3.05,4.13C50.16,71.93,51.2,67.01,52.17,65.73z"/>
				</g>
			</g>
			<g>
				<g>
					<path class="st2" d="M50.57,72.48c0.05,0.02,0.11,0.03,0.17,0.04c3.36,0.58,4.89-2.7,4.89-2.7c1.09,3.07,6.03,3.07,4.99,1.95
						c-1.04-1.12-1.04-2.26-1.04-2.26c2.06,2.16,3.82,2.43,4.58,2.18c0.37,0.2,0.96,0.39,1.82,0.39c1.8,0,3.36,0.35,3.57,3.36
						c0.21,3.01-1.66,3.36-3.53,2.74c0,0-0.35,0.87-2.08,0.9c-1.73,0.03-2.18-0.49-2.18-0.49s-0.24,1.42-5.2,1.04
						c-4.96-0.38-6.58-1.12-6.83-4.33C49.6,73.86,50.04,73,50.57,72.48z"/>
					<path class="st4" d="M55.26,74.6c0,0,0.15-0.06,0.41-0.16c0.27-0.09,0.65-0.22,1.12-0.33c0.47-0.11,1.03-0.21,1.65-0.23
						c0.15-0.01,0.31,0.01,0.47,0.01c0.16,0.02,0.32,0.03,0.48,0.06c0.32,0.05,0.66,0.17,0.94,0.35c0.58,0.37,1,0.91,1.29,1.47
						c0.29,0.56,0.44,1.14,0.47,1.64c0.03,0.51-0.08,0.94-0.24,1.2c-0.16,0.26-0.31,0.35-0.35,0.32c-0.04-0.04,0.05-0.17,0.13-0.42
						c0.09-0.25,0.15-0.62,0.11-1.08c-0.04-0.45-0.18-0.99-0.44-1.5c-0.26-0.52-0.64-1.03-1.14-1.37c-0.25-0.17-0.53-0.29-0.83-0.35
						c-0.15-0.04-0.3-0.05-0.45-0.08c-0.15-0.01-0.3-0.03-0.45-0.03c-0.59-0.02-1.15,0.05-1.62,0.13c-0.47,0.08-0.86,0.18-1.13,0.25
						C55.41,74.55,55.26,74.6,55.26,74.6z"/>
					<path class="st4" d="M60.49,73.36c0,0,0.59-0.16,1.51-0.23c0.11-0.01,0.23-0.02,0.36-0.02c0.12,0,0.25,0,0.38,0
						c0.27-0.01,0.54,0.02,0.83,0.04c0.15,0.01,0.29,0.04,0.44,0.07c0.15,0.03,0.3,0.05,0.45,0.09l0.23,0.08l0.11,0.04l0.11,0.06
						l0.21,0.12c0.07,0.05,0.13,0.1,0.19,0.15c0.5,0.41,0.82,0.99,1.02,1.55c0.19,0.56,0.26,1.12,0.22,1.6
						c-0.04,0.48-0.16,0.87-0.34,1.11c-0.07,0.12-0.16,0.2-0.22,0.25c-0.06,0.05-0.1,0.06-0.12,0.05c-0.02-0.02-0.01-0.06,0.01-0.13
						c0.02-0.07,0.08-0.15,0.12-0.27c0.1-0.23,0.18-0.58,0.2-1.02c0.01-0.43-0.05-0.95-0.22-1.47c-0.17-0.52-0.45-1.05-0.88-1.43
						c-0.05-0.05-0.11-0.1-0.16-0.14l-0.18-0.11l-0.09-0.06l-0.1-0.04l-0.19-0.08c-0.14-0.04-0.28-0.07-0.42-0.11
						c-0.14-0.03-0.28-0.07-0.42-0.09c-0.28-0.04-0.55-0.09-0.81-0.09c-0.13-0.01-0.26-0.02-0.38-0.02c-0.12,0-0.24,0-0.35,0
						C61.09,73.25,60.49,73.36,60.49,73.36z"/>
					<g>
						<path class="st5" d="M49.71,75.29c0.24,3.22,1.87,3.95,6.83,4.33c4.96,0.38,5.2-1.04,5.2-1.04s0.45,0.52,2.18,0.49
							c1.73-0.03,2.08-0.9,2.08-0.9c1.87,0.62,3.74,0.28,3.53-2.74c-0.21-3.01-1.77-3.36-3.57-3.36c-0.86,0-1.44-0.19-1.82-0.39
							c-0.76,0.26-2.52-0.02-4.58-2.18c0,0,0,1.14,1.04,2.26c1.04,1.12-3.9,1.12-4.99-1.95c0,0-1.53,3.28-4.89,2.7
							c-0.06-0.01-0.11-0.02-0.17-0.04C50.04,73,49.6,73.86,49.71,75.29z M55.13,74.96c3.87-1.82,5.72,0,5.72,0
							c-0.77-0.8-0.78-1.26,1.04-1.66c2.16-0.47,3.56,0.75,3.56,0.75c-1.93-1.85,2.85-3.23,3.81,0.2c0.27,0.95,0.48,2.63-0.84,2.94
							c-1.55,0.37-2.03-0.76-2.12-1.04c0.08,0.31,0.3,1.65-1.74,1.83c-2.32,0.21-2.75-1.14-2.75-1.14c0.1,0.47,0.54,1.77-2.7,2.1
							C56.26,79.23,51.25,76.78,55.13,74.96z"/>
					</g>
				</g>
				<path class="st6" d="M69.24,76.23c0,0,0.42-1.63-0.66-3.01c-0.95-1.22-2.42-0.85-2.42-0.85S69.05,72.35,69.24,76.23z"/>
				<path class="st6" d="M65.88,77.32c0,0,0.42-1.63-0.66-3.01c-0.94-1.22-2.42-0.85-2.42-0.85S65.69,73.44,65.88,77.32z"/>
				<path class="st6" d="M61.34,78.19c0,0,0.42-1.63-0.66-3.01c-0.95-1.22-2.43-0.85-2.43-0.85S61.15,74.31,61.34,78.19z"/>
			</g>
		</g>
		<g>
			<g>
				<path class="st0" d="M69.69,24.61c2.28-2.76,11.95,0.5,17.88,10.48c5.93,9.98,6.02,22.22,4.33,22.25
					c-1.04,0.01-1.18-3.6-1.18-3.6s0.07,3.95-1.18,4.16c-1.25,0.21-1.45-3.88-1.45-3.88s0.07,3.83-1.11,3.89
					c-1.18,0.06-1.25-3.47-1.25-3.47s0.17,3.59-1.28,3.59c-1.46-0.01-2.04-1.97-3.58-7.8c-1.55-5.82-3.52-9.88-7.37-13.51
					C69.66,33.07,67.2,27.63,69.69,24.61z"/>
				<path class="st2" d="M92.04,57.31c-0.04,0.02-0.09,0.03-0.14,0.03c-1.04,0.01-1.18-3.6-1.18-3.6s0.07,3.95-1.18,4.16
					c-1.25,0.21-1.45-3.88-1.45-3.88s0.07,3.83-1.11,3.89c-1.06,0.06-1.22-2.77-1.24-3.36c0.01,0.6,0.02,3.49-1.29,3.48
					c-0.3,0-0.5-0.09-0.65-0.26c-0.84,0.08-2.46,0.39-3.3,1.53c-1.8,2.43-0.54,5.47,1.21,3.85c1.84-1.7,3.05-1.06,3.64,0.46
					c0.59,1.52-0.83,3.53,0.69,4.12c1.52,0.59,2.42-1.18,2.42-1.18s0.45,1.56,2.81-0.62c0,0,1.07,0.45,2.29-1.66
					C94.73,62.22,94.14,59.07,92.04,57.31z"/>
				<g>
					<path class="st4" d="M87.68,60.98c0,0,0.1,0.06,0.25,0.19c0.15,0.13,0.35,0.34,0.54,0.63c0.19,0.29,0.38,0.65,0.51,1.07
						c0.12,0.42,0.18,0.89,0.19,1.35c0.03,0.93-0.2,1.88-0.6,2.48c-0.19,0.3-0.4,0.52-0.57,0.64c-0.17,0.12-0.29,0.16-0.32,0.12
						c-0.07-0.09,0.28-0.36,0.59-0.94c0.32-0.56,0.56-1.42,0.59-2.31c0.01-0.44-0.01-0.89-0.09-1.29c-0.09-0.41-0.23-0.77-0.4-1.06
						c-0.16-0.29-0.34-0.52-0.47-0.66C87.77,61.05,87.68,60.98,87.68,60.98z"/>
					<path class="st4" d="M90.53,60.57c0,0,0.09,0.06,0.24,0.19c0.14,0.13,0.34,0.32,0.55,0.59c0.2,0.26,0.41,0.6,0.56,1
						c0.16,0.39,0.24,0.85,0.24,1.3c0.01,0.11,0,0.23-0.01,0.34c-0.01,0.11-0.01,0.23-0.03,0.34c-0.04,0.22-0.07,0.44-0.16,0.65
						c-0.13,0.42-0.37,0.76-0.59,1.02c-0.24,0.25-0.45,0.44-0.63,0.53c-0.17,0.1-0.28,0.14-0.31,0.09
						c-0.03-0.04,0.03-0.14,0.16-0.28c0.14-0.13,0.31-0.33,0.52-0.56c0.39-0.48,0.73-1.27,0.74-2.13c0.02-0.43-0.02-0.85-0.14-1.23
						c-0.11-0.38-0.28-0.72-0.45-1c-0.17-0.28-0.35-0.49-0.48-0.63C90.62,60.64,90.53,60.57,90.53,60.57z"/>
				</g>
			</g>
			<g class="st1">
				<path class="st0" d="M69.69,24.61c1.8-2.17,8.18-0.61,13.7,5.03c-4.33-4.09-4.53-1.12-2.74,4.65c1.57,5.06,2.46,7.47,0.95,6.55
					c-1.51-0.92,0.65,3.58,1.64,9.98c0.87,5.54,1.12,6,1.7,5.96c0.58-0.04,0.54-3.05,0.45-5.06c0,0,0.52,4.33,1.49,4.09
					c0.97-0.24,0.89-3.43,0.78-4.5c0,0,0.85,4.19,1.68,3.84c0.83-0.34,1.32-2.27,0.88-4.65c0.05,0.31,0.61,3.45,1.58,3.02
					c1.03-0.45,0.75-5.32-0.59-9.99c2.19,7.34,1.91,13.78,0.68,13.8c-1.04,0.01-1.18-3.6-1.18-3.6s0.07,3.95-1.18,4.16
					c-1.25,0.21-1.45-3.88-1.45-3.88s0.07,3.83-1.11,3.89c-1.06,0.06-1.22-2.77-1.24-3.36c0.01,0.6,0.02,3.49-1.29,3.48
					c-1.46-0.01-2.04-1.97-3.58-7.8c-1.55-5.82-3.52-9.88-7.37-13.51C69.66,33.07,67.2,27.63,69.69,24.61z"/>
			</g>
			<path class="st3" d="M91.85,49.24c0,0-0.57-12.16-9.36-20.04C82.49,29.2,88.46,37.54,91.85,49.24z"/>
			<g>
				<path class="st5" d="M80.5,59.28c0.33-0.45,0.79-0.77,1.27-1l0,0c-1.6,0.81-2.43,3.53-1.25,4.25c1.18,0.73,1.84-1.52,3.71-1.56
					c1.87-0.03,2.01,2.22,1.94,3.81c-0.07,1.59,1.56,1.56,2.25,0.1c0.69-1.46-0.27-3.5-0.27-3.5s1.05,0.77,1.17,2.6
					c0.12,1.84,1.62,1.94,2.18,0.23c0.56-1.7-0.58-3.25-0.58-3.25c1.43,1.18,1.13,3.51,2.14,3.25c0.9-0.24,1.06-1.88,1.09-2.21
					c-0.02,0.8-0.21,1.57-0.58,2.22c-1.21,2.11-2.29,1.66-2.29,1.66c-2.36,2.18-2.81,0.62-2.81,0.62s-0.9,1.77-2.42,1.18
					c-1.53-0.59-0.1-2.6-0.69-4.12c-0.59-1.52-1.8-2.15-3.64-0.46C79.96,64.76,78.7,61.71,80.5,59.28z"/>
			</g>
			<path class="st6" d="M93.51,63.6c0,0,1.49-2.62-1.11-5.58C92.4,58.02,93.94,60.78,93.51,63.6z"/>
			<path class="st6" d="M90.84,65.08c0,0,1.87-1.91-0.44-4.51C90.39,60.57,91.78,62.82,90.84,65.08z"/>
			<path class="st6" d="M87.53,65.68c0,0,2.34-1.91,0.03-4.51C87.56,61.16,88.84,63.42,87.53,65.68z"/>
		</g>
		<g>
			<path class="st0" d="M29.12,15.61c0,0-1.04-0.05-2.03,0.05c-0.64,0.07,0.38-1.46,2.92-2.38C27.31,0.45,11.98-1.09,9.56,0.53
				C7.42,1.97,6.3,20.94,20.46,22.98C21.65,20.6,24.57,16.87,29.12,15.61z"/>
			<g class="st1">
				<path class="st0" d="M27.09,15.66c-0.64,0.07,0.38-1.46,2.92-2.38C28.79,7.49,25,3.99,20.98,2.06c4.42,2.39,4.8,6.83,2.37,4.93
					c-6.02-4.72-12.34-4.2-12.34-4.2c-0.49,6.38,1.41,9.82,3.77,12.89c2.36,3.08,0.8,3.88-1.73,2.5c-3.34-1.81-4.48-8.32-4.5-8.42
					c0.87,5.69,4.02,12.08,11.9,13.21c1.19-2.38,4.11-6.11,8.66-7.37C29.12,15.61,28.08,15.56,27.09,15.66z"/>
			</g>
			<g>
				<path class="st2" d="M23.21,9.16c-3.26-4.78-9.22-6.03-11.78-5.82c0,0-0.71,11.55,11.2,16.47c0.77-0.88,1.71-1.74,2.8-2.48
					C25.54,15.48,25.33,12.28,23.21,9.16z"/>
			</g>
			<g>
				<path class="st2" d="M25.43,17.33c0.11-1.85-0.1-5.06-2.22-8.17c-0.96-1.4-2.15-2.5-3.42-3.35c-2.86,0.93-3.88,6.85,3.36,13.44
					C23.81,18.57,24.57,17.92,25.43,17.33z"/>
			</g>
			<path class="st3" d="M9.76,0.99c0,0,5.47-2.7,13.02,3.12C22.79,4.1,16.28,0.76,9.76,0.99z"/>
		</g>
		<path class="st7" d="M43.85,5.23c0,0,0.14-3.8,3.12-4.71c0.9-0.28,0.14,1.39,0,3.67c0,0,2.89-3.44,8.48-2.72
			C56.67,1.62,53,4.67,53,4.67c2.56-1.42,7.58-0.85,8.14-0.03c0.38,0.55-3.01,1.21-3.01,1.21s8.86-0.66,15.18,8.52
			c4.48,6.52,6,16.3,5.89,20.37c-0.07,2.5-0.83,1.18-2.22,0c0,0,4.75,4.42,2.22,11.85c-0.65,1.91-0.85-0.85-1.79-2.93
			c0,0,1.43,4.27-0.95,7.78c-0.66,0.97,0.07-2.53-1.28-4.75c0,0,0.99,3.93-2.76,9.23c-3.74,5.3-7.5,6.35-6.76,4.99
			c1.25-2.29,0.99-3.74,0.99-3.74s-1.35,3.55-4.37,5.21c-1.63,0.9-0.97-0.49-0.97-0.49s-1.25,1.79-4.61,2.7
			c-1.14,0.31-0.07-0.97,0.24-2.81c0,0-1.21,3.01-5.32,3.43c-4.11,0.42-7.22-3.64-7.22-3.64s0.88,1.56,2.39,3.22
			c1.51,1.66-5.25,0.57-8.42-3.59c0,0,0.52,1.16,2.22,3.27c1.7,2.11-3.88,0.69-8.04-4.4c0,0,0.69,1.25,2.08,3.15
			c1.39,1.91-4.16,1.7-8.8-6.1c0,0,0.26,1.09,0.76,2.91c0.38,1.39-3.26-1.04-3.67-5.23c0,0-0.09,2.55,0.23,4.83
			c0.31,2.29-7.02-1.2-6.13-15.91c0,0-0.52,0.88-0.94,3.07c-0.42,2.18-2.44-3.79,0-9.15c0,0-0.9,1.46-2.13,1.82
			c-0.88,0.26-0.25-1,0-1.61c0.99-2.44,2.39-16.89,7.17-20.01c0,0-0.82-0.27-2.34,0.62c-1.4,0.83,1.71-7.4,8.94-9.41
			c0,0-1.04-0.05-2.03,0.05c-0.99,0.1,2-3.65,8.58-2.96c0.99,0.1-0.16-0.88-1.4-1.14C31.62,4.79,35,2.77,39.83,4.79
			c0,0-0.62-1.09-1.61-1.77C37.23,2.35,41.32,1.4,43.85,5.23z"/>
		<g class="st8">
			<path class="st7" d="M76.98,34.75c1.39,1.18,2.15,2.5,2.22,0c0.11-4.07-1.41-13.86-5.89-20.37c-6.32-9.19-15.18-8.52-15.18-8.52
				s3.4-0.66,3.01-1.21C60.58,3.83,55.56,3.25,53,4.67c0,0,3.67-3.05,2.45-3.21c-5.59-0.72-8.48,2.72-8.48,2.72
				c0.14-2.29,0.9-3.95,0-3.67C44,1.43,43.85,5.23,43.85,5.23c-2.53-3.83-6.62-2.88-5.63-2.2c0.99,0.68,1.61,1.77,1.61,1.77
				c-4.83-2.03-8.21,0-6.97,0.26c1.25,0.26,2.39,1.25,1.4,1.14c-6.57-0.69-9.56,3.07-8.58,2.96c0.99-0.1,2.03-0.05,2.03-0.05
				c-7.23,2.01-10.34,10.24-8.94,9.41c1.51-0.9,2.34-0.62,2.34-0.62c-4.78,3.12-6.18,17.57-7.17,20.01c-0.25,0.61-0.88,1.87,0,1.61
				c1.23-0.36,2.13-1.82,2.13-1.82c-2.44,5.35-0.42,11.33,0,9.15c0.42-2.18,0.94-3.07,0.94-3.07c-0.88,14.71,6.44,18.19,6.13,15.91
				c-0.31-2.29-0.23-4.83-0.23-4.83c0.41,4.19,4.05,6.62,3.67,5.23c-0.5-1.82-0.76-2.91-0.76-2.91c4.64,7.8,10.19,8,8.8,6.1
				c-1.38-1.91-2.08-3.15-2.08-3.15c4.16,5.09,9.74,6.51,8.04,4.4c-1.7-2.11-2.22-3.27-2.22-3.27c3.17,4.16,9.93,5.25,8.42,3.59
				c-1.51-1.66-2.39-3.22-2.39-3.22s3.12,4.05,7.22,3.64c4.11-0.42,5.32-3.43,5.32-3.43c-0.31,1.84-1.39,3.12-0.24,2.81
				c3.36-0.92,4.61-2.7,4.61-2.7s-0.66,1.39,0.97,0.49c3.01-1.67,4.37-5.21,4.37-5.21s0.26,1.45-0.99,3.74
				c-0.74,1.36,3.01,0.31,6.76-4.99c3.74-5.3,2.76-9.23,2.76-9.23c1.35,2.22,0.62,5.72,1.28,4.75c2.38-3.51,0.95-7.78,0.95-7.78
				c0.94,2.08,1.14,4.83,1.79,2.93C81.73,39.17,76.98,34.75,76.98,34.75z M76.84,40.86c-0.78,0.42-2.07-2.17-2.07-2.17
				c0.98,3.97,0.16,5.73-0.78,5.83c-0.93,0.1-1.19-2.17-1.19-2.17c0.18,10.54-4.27,14.16-5.25,13.95c-0.98-0.21-0.67-3.06-0.67-3.06
				c-1.14,3.96-3.64,6.58-4.44,6.44c-0.79-0.14,0-2.31,0-2.31c-0.9,2.27-2.83,4.3-4.11,4.23c-1.28-0.07-0.28-3.03-0.28-3.03
				s-1.65,4.87-7.56,4.64c-4.42-0.17-7.33-3.47-7.33-3.47s2.11,4.23-0.9,3.35c-3-0.89-5.24-4.18-5.24-4.18
				c1.45,3.24,1.97,4.99-1.11,2.75c-3.07-2.24-4.66-4.47-4.66-4.47c1.18,3.2,1.11,4.78-1.79,2.58c-2.9-2.2-4.12-5-4.12-5
				c0.69,3.34-0.52,2.96-1.59,0.85c-0.69-1.35-1.19-4.12-1.19-4.12c0.35,7.21-2.21,4.61-3.11,0.39c-1.31-6.21-0.64-11.71-0.64-11.71
				c-1.14,2.79-2.25,3.73-1.71,0.32c0.54-3.41,1.37-6.44,1.37-6.44c-3.53,4.63-1.87-5.64,1.45-11.78c3.64-6.73,5.44-6.88,5.44-6.88
				c-3.45,1.01-6.07,0.76-1.82-2.85C27.74,9,34.02,8.16,34.02,8.16c-3.45,0-5.24-0.79-3.77-1.24c3.59-1.09,8.74,0.14,8.74,0.14
				c-2.86-0.9-5.08-2.75-2.59-2.79c2.49-0.03,5.83,1.9,5.83,1.9c-2.29-1.58-3.13-3.35-1.2-2.9c1.93,0.45,3.56,3.37,3.56,3.37
				c-0.41-4.2,2.2-6.03,1.9-4.23c-0.3,1.79,0,3.76,0,3.76c2.35-3.71,7.18-3.9,6.27-2.27c-1.07,1.91-2.68,3.02-2.68,3.02
				c2.31-1.34,7.74-3.51,8.01-2.13c0.28,1.38-2.43,1.95-2.43,1.95c20.72-1.21,22.96,24.13,21.37,24.89
				c-1.47,0.7-3.29-1.86-3.29-1.86C77.88,36.11,77.62,40.44,76.84,40.86z"/>
		</g>
	</g>
	<g>
		<g>
			<path class="st9" d="M38.32,37.8c2.63,0.99,9.48,1.64,17.25-3.27c3.16-2,7.12-2.5,7.29,3.93c0.17,6.43-5.32,10.22-5.32,10.22
				s1.44,2.91-0.57,5.09c-2,2.18-6.98-0.26-8.55-1.28c-1.57-1.02-7.76,1.19-13.32-4.31c-3.7-3.66-3.84-9.95-2.07-11.51
				C34.79,35.11,36.88,37.26,38.32,37.8z"/>
		</g>
		<path class="st10" d="M45.05,39.17c9.15-0.91,12.35-6.81,15.57-5.06c2.94,1.6,1.63,15.72-11.86,17.32
			c-15.94,1.9-17.69-12.37-14.9-14.39C36.06,35.47,37.08,39.97,45.05,39.17z"/>
		<path class="st11" d="M35.83,35.33c0,0-0.09-0.06-0.24-0.16c-0.16-0.1-0.38-0.23-0.67-0.36c-0.29-0.13-0.65-0.25-1.06-0.28
			c-0.2-0.01-0.42,0-0.63,0.05c-0.21,0.05-0.42,0.14-0.61,0.25c-0.38,0.24-0.67,0.6-0.86,0.96c-0.2,0.36-0.3,0.73-0.37,1.04
			c-0.13,0.64-0.07,1.07,0.01,1.07c0.09,0,0.13-0.41,0.28-1c0.08-0.29,0.18-0.63,0.35-0.97c0.17-0.33,0.41-0.66,0.73-0.88
			c0.32-0.23,0.71-0.33,1.09-0.33c0.38,0,0.73,0.09,1.03,0.19c0.3,0.1,0.53,0.21,0.69,0.29C35.74,35.28,35.83,35.33,35.83,35.33z"/>
		<path class="st11" d="M58.27,32.85c0,0,0.08-0.04,0.22-0.12c0.07-0.04,0.15-0.09,0.26-0.13c0.1-0.04,0.22-0.09,0.35-0.15
			c0.13-0.04,0.27-0.09,0.42-0.13c0.07-0.02,0.15-0.03,0.23-0.05c0.04-0.01,0.08-0.02,0.12-0.02c0.04,0,0.08-0.01,0.12-0.01
			c0.33-0.04,0.7,0,1.03,0.1c0.33,0.11,0.63,0.29,0.86,0.53c0.06,0.05,0.11,0.12,0.16,0.18c0.03,0.03,0.05,0.06,0.08,0.09
			c0.02,0.03,0.04,0.06,0.06,0.09c0.04,0.06,0.08,0.12,0.12,0.18c0.03,0.06,0.06,0.12,0.09,0.18c0.24,0.47,0.32,0.83,0.41,0.81
			c0.04-0.01,0.05-0.1,0.04-0.27c-0.01-0.04-0.01-0.09-0.02-0.14c-0.01-0.05-0.02-0.1-0.04-0.16c-0.03-0.11-0.06-0.24-0.13-0.37
			c-0.03-0.07-0.06-0.14-0.1-0.21c-0.04-0.07-0.09-0.14-0.13-0.21c-0.02-0.03-0.05-0.07-0.07-0.11c-0.03-0.03-0.06-0.07-0.08-0.1
			c-0.06-0.07-0.11-0.14-0.18-0.2c-0.26-0.26-0.62-0.46-1-0.56c-0.38-0.1-0.77-0.11-1.12-0.04c-0.04,0.01-0.09,0.01-0.13,0.02
			c-0.04,0.01-0.08,0.02-0.12,0.04c-0.08,0.02-0.16,0.05-0.24,0.07c-0.15,0.06-0.29,0.12-0.42,0.17c-0.12,0.07-0.23,0.13-0.33,0.18
			c-0.1,0.05-0.18,0.12-0.24,0.16C58.35,32.8,58.27,32.85,58.27,32.85z"/>
		<path class="st9" d="M42.01,53.26c0,0,0.1,0.09,0.28,0.25c0.09,0.08,0.2,0.16,0.33,0.27c0.14,0.09,0.28,0.21,0.46,0.31
			c0.68,0.44,1.69,0.86,2.75,1.02c1.06,0.18,2.14,0.12,2.93-0.04c0.79-0.15,1.29-0.4,1.26-0.52c-0.03-0.12-0.54-0.01-1.31,0.09
			c-0.77,0.11-1.8,0.19-2.83,0.09c-1.03-0.09-2.04-0.4-2.74-0.77c-0.18-0.08-0.33-0.18-0.48-0.26c-0.14-0.09-0.26-0.16-0.36-0.23
			C42.12,53.34,42.01,53.26,42.01,53.26z"/>
		<path class="st11" d="M41.78,53.11c0,0,0.12,0.09,0.32,0.23c0.1,0.07,0.23,0.15,0.38,0.25c0.15,0.09,0.32,0.19,0.52,0.29
			c0.77,0.41,1.9,0.76,3.07,0.87c1.17,0.12,2.35,0,3.2-0.21c0.86-0.2,1.39-0.47,1.34-0.59c-0.05-0.12-0.59,0.02-1.43,0.16
			c-0.83,0.15-1.96,0.3-3.09,0.25c-1.13-0.03-2.25-0.29-3.04-0.61c-0.2-0.07-0.38-0.16-0.54-0.23c-0.15-0.08-0.29-0.15-0.4-0.21
			C41.9,53.19,41.78,53.11,41.78,53.11z"/>
		<g>
			<path class="st9" d="M37.3,16.9c-0.27-0.23-0.63-0.41-1-0.51c-0.4-0.11-0.84-0.13-1.26-0.07c-0.74,0.1-1.5,0.44-2.04,0.93
				c-0.24,0.21-0.4,0.42-0.49,0.56c-0.05,0.08-0.09,0.14-0.1,0.18l-0.39,0.78l0.55-0.68c0.02-0.03,0.06-0.07,0.12-0.14
				c0.1-0.1,0.28-0.26,0.53-0.4c0.41-0.25,1.12-0.52,1.88-0.54c0.33-0.01,0.67,0.04,0.99,0.13c0.27,0.09,0.52,0.21,0.77,0.37
				c0.12,0.08,0.22,0.16,0.32,0.23c0.21,0.16,0.36,0.27,0.5,0.27c0.05,0,0.09-0.01,0.12-0.04c0.05-0.03,0.09-0.09,0.09-0.17
				C37.88,17.6,37.71,17.25,37.3,16.9z"/>
			<path class="st9" d="M48.39,16c-0.28-0.23-0.64-0.42-1.03-0.52c-0.41-0.11-0.86-0.14-1.29-0.08c-0.76,0.1-1.54,0.45-2.09,0.95
				c-0.25,0.22-0.41,0.43-0.5,0.57c-0.05,0.08-0.09,0.14-0.11,0.18l-0.4,0.8l0.57-0.7c0.03-0.04,0.09-0.1,0.12-0.14
				c0.11-0.11,0.29-0.27,0.54-0.41c0.42-0.26,1.15-0.54,1.93-0.55c0.34-0.01,0.69,0.04,1.01,0.14c0.27,0.09,0.54,0.22,0.79,0.38
				c0.12,0.08,0.23,0.16,0.33,0.24c0.22,0.16,0.37,0.27,0.5,0.27c0.04,0,0.08-0.01,0.12-0.04c0.11-0.08,0.12-0.23,0.02-0.45
				C48.85,16.5,48.7,16.25,48.39,16z"/>
			<path class="st9" d="M60.99,16.34c-0.02-0.04-0.05-0.1-0.1-0.18c-0.08-0.14-0.23-0.35-0.47-0.58c-0.21-0.2-0.97-0.86-2.07-0.93
				c-0.22-0.02-0.44-0.01-0.66,0.03c-0.22,0.04-0.43,0.1-0.62,0.19c-0.35,0.16-0.67,0.4-0.9,0.69c-0.3,0.37-0.45,0.76-0.4,0.98
				c0.02,0.09,0.07,0.13,0.11,0.15c0.03,0.01,0.06,0.02,0.09,0.02c0.15,0,0.29-0.15,0.51-0.38c0.08-0.08,0.16-0.17,0.25-0.26
				c0.22-0.22,0.44-0.38,0.68-0.5c0.14-0.07,0.28-0.13,0.44-0.16c0.15-0.04,0.32-0.07,0.49-0.07c0.72-0.04,1.44,0.25,1.84,0.53
				c0.26,0.17,0.43,0.34,0.51,0.43c0.06,0.07,0.1,0.12,0.12,0.14l0.53,0.68L60.99,16.34z"/>
		</g>
		<g class="st11">
			<path d="M37.3,16.48c-0.27-0.23-0.63-0.41-1-0.51c-0.4-0.11-0.84-0.13-1.26-0.07c-0.74,0.1-1.5,0.45-2.04,0.93
				c-0.24,0.21-0.4,0.42-0.49,0.56c-0.05,0.08-0.09,0.14-0.1,0.18l-0.39,0.78l0.55-0.68c0.02-0.03,0.06-0.07,0.12-0.14
				c0.1-0.1,0.28-0.26,0.53-0.4c0.41-0.25,1.12-0.53,1.88-0.54c0.33-0.01,0.67,0.04,0.99,0.13c0.27,0.09,0.52,0.21,0.77,0.37
				c0.12,0.08,0.22,0.16,0.32,0.23c0.21,0.16,0.36,0.27,0.5,0.27c0.05,0,0.09-0.01,0.12-0.04c0.05-0.03,0.09-0.09,0.09-0.17
				C37.88,17.19,37.71,16.83,37.3,16.48z"/>
			<path d="M48.39,15.58c-0.28-0.23-0.64-0.42-1.03-0.52c-0.41-0.11-0.86-0.14-1.29-0.08c-0.76,0.1-1.54,0.45-2.09,0.95
				c-0.25,0.22-0.41,0.43-0.5,0.57c-0.05,0.08-0.09,0.14-0.11,0.18l-0.4,0.8l0.57-0.7c0.03-0.04,0.09-0.1,0.12-0.14
				c0.11-0.11,0.29-0.27,0.54-0.42c0.42-0.26,1.15-0.54,1.93-0.55c0.34-0.01,0.69,0.04,1.01,0.14c0.27,0.09,0.54,0.22,0.79,0.38
				c0.12,0.08,0.23,0.16,0.33,0.24c0.22,0.16,0.37,0.27,0.5,0.27c0.04,0,0.08-0.01,0.12-0.04c0.11-0.08,0.12-0.23,0.02-0.45
				C48.85,16.09,48.7,15.84,48.39,15.58z"/>
			<path d="M60.99,15.92c-0.02-0.04-0.05-0.1-0.1-0.18c-0.08-0.14-0.23-0.35-0.47-0.58c-0.21-0.2-0.97-0.86-2.07-0.93
				c-0.22-0.02-0.44-0.01-0.66,0.03c-0.22,0.04-0.43,0.1-0.62,0.19c-0.35,0.16-0.67,0.4-0.9,0.69c-0.3,0.37-0.45,0.76-0.4,0.98
				c0.02,0.09,0.07,0.13,0.11,0.15c0.03,0.01,0.06,0.02,0.09,0.02c0.15,0,0.29-0.15,0.51-0.38c0.08-0.08,0.16-0.17,0.25-0.26
				c0.22-0.22,0.44-0.38,0.68-0.5c0.14-0.07,0.28-0.13,0.44-0.16c0.15-0.04,0.32-0.07,0.49-0.07c0.72-0.04,1.44,0.25,1.84,0.53
				c0.26,0.17,0.43,0.34,0.51,0.43c0.06,0.07,0.1,0.12,0.12,0.14l0.53,0.68L60.99,15.92z"/>
		</g>
		<g>
			<path class="st9" d="M28.97,24.77c1.03-10.21,12.11-8.92,11.7,0.51c-0.26,5.99-6.78,8.1-9.32,5.04c0,0,0.57,1.53,3.45,2.11
				C32.77,32.58,28.33,31.07,28.97,24.77z"/>
			<path class="st9" d="M64.84,23.79c-1.66-10.09-12.64-8.12-11.65,1.23c0.63,5.94,7.26,7.64,9.61,4.44c0,0-0.48,1.55-3.32,2.31
				C61.54,31.78,65.87,30.01,64.84,23.79z"/>
			<path class="st9" d="M53.18,24.44c-0.14-3.99-3.07-7.13-6.54-7c-3.47,0.13-6.17,3.47-6.02,7.46c0.11,3.17,1.97,5.79,4.47,6.68
				c-0.93,0.18-1.91,0.49-2.91,1c0,0,4.91-1.29,9.94,0c0,0-1.24-0.73-3.18-1.05C51.5,30.54,53.3,27.71,53.18,24.44z"/>
			<g>
				<path class="st12" d="M47.13,31.11c3.15-0.11,5.61-3.11,5.48-6.69c-0.13-3.58-2.79-6.39-5.95-6.28
					c-3.15,0.11-5.61,3.11-5.48,6.69C41.31,28.42,43.98,31.23,47.13,31.11z"/>
				<g>
					<path class="st9" d="M52.61,24.42c-0.13-3.58-2.79-6.39-5.95-6.28c-3.15,0.11-5.61,3.11-5.48,6.69
						c0.13,3.58,2.79,6.39,5.95,6.28C50.29,31,52.74,28.01,52.61,24.42z M50.58,27.34c-1.82,1.13-5.64,1.13-7.45,0.19
						c-3.05-1.59-1.6-9.14,3.63-9.14C52.16,18.39,53.77,25.37,50.58,27.34z"/>
				</g>
				<g class="st11">
					<path d="M41.91,27.74c1.02,2.08,3,3.46,5.23,3.38c2.24-0.08,4.12-1.61,4.98-3.77c-0.83,0.55-2.35,1.18-5.07,1.28
						C44.37,28.71,42.79,28.22,41.91,27.74z"/>
				</g>
				<g class="st11">
					<path d="M47.04,28.62c-2.67,0.1-4.25-0.4-5.14-0.88c1.02,2.08,3,3.46,5.23,3.38c2.24-0.08,4.12-1.61,4.98-3.77
						C51.29,27.89,49.77,28.52,47.04,28.62z M47.31,30.66c-3.28,0.21-5.1-2.36-3.57-2.06c2.11,0.4,4.39,0.53,6.24-0.22
						C51.97,27.58,50.57,30.46,47.31,30.66z"/>
				</g>
				<g>
					<path class="st13" d="M46.83,26.49c1.11-0.04,1.97-1.04,1.93-2.24c-0.04-1.2-0.98-2.13-2.08-2.09
						c-1.11,0.04-1.97,1.04-1.93,2.24C44.79,25.59,45.73,26.53,46.83,26.49z"/>
					<path class="st14" d="M46.82,26.15c0.94-0.03,1.67-0.88,1.63-1.89c-0.04-1.01-0.83-1.8-1.76-1.77
						c-0.94,0.03-1.67,0.88-1.63,1.89C45.1,25.39,45.89,26.19,46.82,26.15z"/>
					<path class="st15" d="M46.8,25.58c0.59-0.02,1.06-0.6,1.03-1.3c-0.03-0.69-0.53-1.24-1.12-1.22c-0.59,0.02-1.06,0.6-1.03,1.3
						C45.71,25.05,46.21,25.6,46.8,25.58z"/>
					<path class="st12" d="M46.41,23.58c-0.08,0.27-0.31,0.46-0.52,0.43c-0.2-0.03-0.3-0.26-0.22-0.53
						c0.08-0.27,0.31-0.46,0.52-0.43C46.39,23.08,46.49,23.32,46.41,23.58z"/>
					<path class="st12" d="M45.85,24.54c0.01,0.12-0.05,0.23-0.14,0.23c-0.1,0.01-0.18-0.08-0.2-0.2c-0.02-0.12,0.05-0.23,0.14-0.23
						S45.84,24.42,45.85,24.54z"/>
				</g>
			</g>
			<g>
				<path class="st12" d="M33.75,30.96c2.82,0.44,5.58-2.07,6.16-5.6c0.58-3.54-1.24-6.76-4.07-7.2c-2.82-0.44-5.58,2.07-6.15,5.6
					C29.11,27.3,30.93,30.52,33.75,30.96z"/>
				<g>
					<path class="st9" d="M39.91,25.36c0.58-3.54-1.24-6.76-4.07-7.2c-2.82-0.44-5.58,2.07-6.15,5.6c-0.58,3.54,1.24,6.76,4.06,7.2
						C36.57,31.4,39.33,28.89,39.91,25.36z M37.54,27.86c-1.83,0.79-5.23,0.12-6.65-1.12c-2.4-2.09,0.35-9.24,4.98-8.33
						C40.67,19.36,40.75,26.49,37.54,27.86z"/>
				</g>
				<g class="st11">
					<path d="M29.77,26.73c0.5,2.22,1.99,3.92,3.99,4.23c2,0.31,3.97-0.86,5.15-2.83c-0.84,0.39-2.31,0.74-4.75,0.37
						C31.76,28.12,30.46,27.36,29.77,26.73z"/>
				</g>
				<g class="st11">
					<path d="M34.15,28.5c-2.39-0.37-3.69-1.14-4.39-1.76c0.5,2.22,1.99,3.92,3.99,4.23c2,0.31,3.97-0.86,5.15-2.83
						C38.06,28.53,36.59,28.88,34.15,28.5z M34,30.55c-2.95-0.37-4.07-3.2-2.77-2.65c1.8,0.76,3.8,1.29,5.58,0.88
						C38.73,28.34,36.93,30.92,34,30.55z"/>
				</g>
				<g>
					<path class="st13" d="M34.38,26.37c0.99,0.15,1.95-0.68,2.14-1.86c0.19-1.18-0.45-2.26-1.45-2.42
						c-0.99-0.15-1.95,0.68-2.14,1.86C32.74,25.13,33.39,26.22,34.38,26.37z"/>
					<path class="st14" d="M34.43,26.04c0.84,0.13,1.65-0.57,1.81-1.57c0.16-1-0.38-1.91-1.22-2.05C34.19,22.29,33.37,23,33.21,24
						C33.05,24.99,33.59,25.91,34.43,26.04z"/>
					<path class="st15" d="M34.53,25.47c0.53,0.08,1.05-0.41,1.16-1.09c0.11-0.69-0.23-1.31-0.76-1.39
						c-0.53-0.08-1.05,0.41-1.17,1.09C33.66,24.77,34,25.39,34.53,25.47z"/>
					<path class="st12" d="M34.56,23.45c-0.13,0.25-0.37,0.4-0.54,0.34c-0.18-0.06-0.22-0.31-0.09-0.56
						c0.12-0.25,0.37-0.4,0.54-0.34C34.64,22.95,34.69,23.2,34.56,23.45z"/>
					<path class="st12" d="M33.88,24.29c-0.01,0.12-0.09,0.21-0.17,0.2c-0.09-0.01-0.15-0.11-0.14-0.23
						c0.01-0.12,0.09-0.21,0.17-0.2C33.83,24.07,33.89,24.17,33.88,24.29z"/>
				</g>
			</g>
			<g>
				<path class="st12" d="M60.39,30.37c2.77-0.68,4.35-4.06,3.51-7.55c-0.83-3.48-3.76-5.75-6.53-5.07
					c-2.77,0.68-4.35,4.06-3.51,7.55C54.69,28.78,57.61,31.05,60.39,30.37z"/>
				<g>
					<path class="st9" d="M63.9,22.82c-0.83-3.48-3.76-5.75-6.53-5.07c-2.77,0.68-4.35,4.06-3.51,7.55
						c0.83,3.48,3.76,5.75,6.53,5.07C63.16,29.68,64.73,26.3,63.9,22.82z M62.69,26.05c-1.39,1.43-4.78,2.13-6.57,1.54
						c-3.02-1-3.25-8.66,1.38-9.61C62.28,16.99,65.11,23.54,62.69,26.05z"/>
				</g>
				<g class="st11">
					<path d="M55.08,28.01c1.32,1.85,3.35,2.84,5.31,2.36c1.97-0.49,3.33-2.33,3.66-4.6c-0.62,0.69-1.85,1.58-4.24,2.17
						C57.45,28.52,55.96,28.32,55.08,28.01z"/>
				</g>
				<g class="st11">
					<path d="M59.8,27.94c-2.35,0.58-3.85,0.38-4.73,0.07c1.32,1.85,3.35,2.84,5.31,2.36c1.97-0.49,3.33-2.33,3.66-4.6
						C63.42,26.45,62.2,27.35,59.8,27.94z M60.45,29.9c-2.86,0.8-4.99-1.38-3.58-1.37c1.95,0.01,4-0.28,5.49-1.35
						C63.96,26.03,63.3,29.1,60.45,29.9z"/>
				</g>
				<g>
					<path class="st13" d="M59.19,25.89c0.97-0.24,1.54-1.38,1.26-2.54c-0.28-1.16-1.29-1.91-2.27-1.67
						c-0.97,0.24-1.54,1.38-1.26,2.54C57.2,25.38,58.22,26.13,59.19,25.89z"/>
					<path class="st14" d="M59.11,25.56c0.82-0.2,1.3-1.17,1.07-2.15c-0.24-0.98-1.09-1.62-1.92-1.41c-0.82,0.2-1.3,1.17-1.07,2.15
						C57.43,25.14,58.29,25.77,59.11,25.56z"/>
					<path class="st15" d="M58.98,25.01c0.52-0.13,0.82-0.78,0.65-1.46c-0.16-0.68-0.71-1.12-1.24-0.99
						c-0.52,0.13-0.81,0.78-0.65,1.46C57.9,24.69,58.46,25.14,58.98,25.01z"/>
					<path class="st12" d="M58.23,23.12c-0.02,0.27-0.19,0.51-0.37,0.52c-0.19,0.01-0.32-0.2-0.3-0.48
						c0.02-0.27,0.18-0.51,0.37-0.52C58.11,22.63,58.25,22.85,58.23,23.12z"/>
					<path class="st12" d="M57.93,24.17c0.04,0.12,0,0.23-0.08,0.25c-0.08,0.03-0.18-0.05-0.22-0.16c-0.04-0.12,0-0.23,0.08-0.26
						C57.8,23.98,57.89,24.05,57.93,24.17z"/>
				</g>
			</g>
		</g>
		<g>
			<path class="st16" d="M57,48.01c-1.08-2.53-3.79-4.94-7.9-5.24C44.07,42.41,42.3,44,42.3,44c-2.67,0.22-5.4,2.06-6.25,4.03
				c1.96,1.92,4.84,3.33,8.72,3.54c3-0.26,4.19,0.22,6.05,1.35c1.83,1.11,4.67,1.68,5.96,0C57.73,51.68,57.77,49.81,57,48.01z"/>
			<g>
				<path class="st10" d="M41.11,44.19c0,0,0.17-0.05,0.47-0.11c0.3-0.06,0.73-0.14,1.26-0.18c0.52-0.04,1.14-0.07,1.8-0.03
					c0.33,0.02,0.67,0.05,1.01,0.1c0.34,0.05,0.69,0.11,1.03,0.18c0.34,0.08,0.68,0.18,1.01,0.29c0.33,0.11,0.65,0.23,0.95,0.36
					c0.31,0.13,0.59,0.27,0.86,0.41c0.13,0.07,0.26,0.14,0.38,0.22c0.12,0.08,0.24,0.15,0.35,0.22c0.22,0.14,0.42,0.28,0.59,0.41
					c0.17,0.13,0.32,0.24,0.43,0.34c0.23,0.2,0.36,0.32,0.36,0.32s-0.14-0.11-0.38-0.29c-0.12-0.09-0.28-0.19-0.45-0.32
					c-0.18-0.12-0.38-0.24-0.6-0.38c-0.11-0.06-0.23-0.13-0.35-0.2c-0.12-0.07-0.25-0.13-0.39-0.2c-0.27-0.13-0.55-0.26-0.86-0.39
					c-0.3-0.13-0.62-0.24-0.94-0.34c-0.33-0.1-0.66-0.19-1-0.27c-0.34-0.08-0.68-0.14-1.02-0.19c-0.34-0.05-0.67-0.08-1-0.11
					c-0.32-0.02-0.64-0.04-0.94-0.04c-0.3-0.01-0.58,0-0.84,0.01c-0.52,0.03-0.95,0.07-1.26,0.11
					C41.28,44.15,41.11,44.19,41.11,44.19z"/>
			</g>
			<g class="st1">
				<path class="st16" d="M57.01,48.03c-1.09-2.53-3.79-4.94-7.9-5.24c-5.03-0.36-6.79,1.23-6.79,1.23
					c-2.67,0.22-5.4,2.06-6.25,4.03c1.96,1.92,4.84,3.33,8.72,3.54c3-0.26,4.19,0.22,6.04,1.35c1.83,1.11,4.68,1.68,5.96,0
					C57.74,51.7,57.78,49.83,57.01,48.03z M50.63,50.9c-4.03-1.68-6.37-3.07-9.09-4.16c-2.36-0.95-1.47-2.81,2.94-2.57
					c4.41,0.24,7.65,2.91,7.65,2.91c-0.65-0.82-2.09-1.94-4.06-2.73c-1.97-0.79-2.35-1.85,1.25-1.43c4.47,0.53,7.53,3.74,7.84,6.81
					C57.54,53.5,53.68,52.18,50.63,50.9z"/>
			</g>
			<g class="st1">
				<path class="st16" d="M49.85,52.03c-2.56-1.29-2.23-0.53-7.06-2.68c-4.82-2.15-4.48-3.87-3.32-4.55
					c-1.57,0.76-2.88,1.97-3.42,3.23c1.96,1.92,4.84,3.33,8.72,3.54c3-0.26,4.19,0.22,6.05,1.35c1.79,1.09,4.56,1.65,5.88,0.09
					C55.07,54.31,52.41,53.32,49.85,52.03z"/>
			</g>
		</g>
		<g>
			<path class="st12" d="M54.36,38.51c0.68,0.42,3.26-0.34,3.38-1.41c0.09-0.78-0.29-1.79-0.7-2.58c-1.03,0.54-2.21,1.3-3.64,2.06
				C53.58,37.25,53.92,38.24,54.36,38.51z"/>
			<path class="st12" d="M49.46,40.54c0.58,0.24,2.56-0.5,2.65-1.08c0.06-0.38-0.22-1.39-0.42-2.04c-0.94,0.41-1.97,0.8-3.11,1.11
				C48.75,39.27,49.08,40.38,49.46,40.54z"/>
			<path class="st12" d="M58.86,36.55c0.37,0.18,1.41-0.11,1.83-0.93c0.25-0.49,0.18-1.04,0.08-1.41c-0.05-0.04-0.1-0.07-0.15-0.1
				c-0.92-0.5-1.84-0.37-2.89,0.08C57.89,34.95,58.26,36.27,58.86,36.55z"/>
			<path class="st12" d="M44.79,41.03c0.62,0.41,2.73,0.26,3.35-0.21c0.36-0.27,0.3-1.37,0.19-2.23c-1,0.26-2.09,0.46-3.28,0.58
				c-0.27,0.03-0.54,0.05-0.8,0.06C44.29,39.89,44.42,40.77,44.79,41.03z"/>
			<path class="st12" d="M37.95,39.92c0.27,0.4,1.65,0.72,1.94,0.59c0.24-0.11,0.39-0.93,0.48-1.53c-0.94-0.2-1.71-0.49-2.35-0.8
				C37.93,38.85,37.85,39.77,37.95,39.92z"/>
			<path class="st12" d="M36.91,45.48c-0.21-0.4-1.56-0.9-2.03-0.78c-0.28,0.07-0.48,0.6-0.59,1.02c0.58,1,1.35,1.96,2.32,2.81
				C36.85,47.38,37.07,45.8,36.91,45.48z"/>
			<path class="st12" d="M59.23,43.7c-0.47-0.12-1.82,0.38-2.03,0.78c-0.16,0.32,0.07,1.95,0.32,3.1c0.93-0.87,1.7-1.84,2.31-2.84
				C59.72,44.32,59.51,43.77,59.23,43.7z"/>
			<path class="st12" d="M34.31,39.57c0.5,0.49,2.11,0.57,2.84,0.16c0.26-0.15,0.37-1.04,0.43-1.77c-1.5-0.78-2.33-1.54-3.3-1.15
				C34.19,37.65,34.05,39.32,34.31,39.57z"/>
		</g>
		<g>
			<path class="st17" d="M56.04,36.09c0.74,0.02,1.29,0.36,1.7,0.86c0.03-0.75-0.32-1.69-0.71-2.43c-1.03,0.54-2.21,1.3-3.64,2.06
				c0.04,0.15,0.09,0.32,0.15,0.5C54.19,36.44,55.16,36.07,56.04,36.09z"/>
			<path class="st17" d="M50.37,38.53c0.71-0.08,1.29,0.18,1.73,0.62c-0.05-0.47-0.26-1.21-0.42-1.73c-0.94,0.41-1.97,0.8-3.11,1.11
				c0.07,0.3,0.17,0.66,0.29,1C49.19,39,49.71,38.6,50.37,38.53z"/>
			<path class="st17" d="M59.35,34.74c0.64-0.01,1.12,0.25,1.43,0.67c0.14-0.43,0.08-0.88-0.01-1.2c-0.05-0.04-0.1-0.07-0.15-0.1
				c-0.92-0.5-1.84-0.37-2.89,0.08c0.07,0.3,0.17,0.7,0.3,1.08C58.41,34.95,58.89,34.74,59.35,34.74z"/>
			<path class="st17" d="M46.69,39.57c0.68,0.17,1.24,0.52,1.62,0.99c0.16-0.45,0.11-1.28,0.02-1.97c-1,0.26-2.09,0.46-3.28,0.58
				c-0.27,0.03-0.54,0.05-0.8,0.06c0.02,0.3,0.05,0.64,0.12,0.95C44.94,39.61,45.79,39.34,46.69,39.57z"/>
			<path class="st17" d="M38.01,38.18c-0.02,0.16-0.04,0.35-0.06,0.53c0.9,0.16,1.52,0.83,1.6,1.82c0.15,0.01,0.27,0.01,0.33-0.02
				c0.24-0.11,0.39-0.93,0.48-1.53C39.43,38.78,38.66,38.49,38.01,38.18z"/>
			<path class="st17" d="M36.3,46.92c-0.63-0.14-1.17-0.52-1.47-1.1c-0.15-0.3-0.21-0.61-0.19-0.92c-0.15,0.21-0.27,0.54-0.35,0.83
				c0.58,1,1.35,1.96,2.32,2.81c0.11-0.5,0.21-1.08,0.28-1.6C36.69,46.96,36.5,46.96,36.3,46.92z"/>
			<path class="st17" d="M59.32,43.74c0.07,0.37,0.06,0.75-0.05,1.11c-0.26,0.84-0.96,1.61-1.89,1.7c-0.02,0-0.04,0-0.06,0
				c0.06,0.35,0.12,0.7,0.19,1.02c0.93-0.87,1.7-1.84,2.31-2.84C59.73,44.37,59.56,43.89,59.32,43.74z"/>
			<path class="st17" d="M34.28,36.82c-0.02,0.18-0.04,0.39-0.06,0.63c0.76-0.29,1.61,0.04,2.09,0.75c0.31,0.45,0.54,1.11,0.45,1.69
				c0.15-0.04,0.28-0.09,0.39-0.15c0.26-0.15,0.37-1.04,0.43-1.77C36.07,37.19,35.24,36.43,34.28,36.82z"/>
		</g>
		<path class="st9" d="M31.68,37.62c0.26-2.1,1.08-3.6,4.16-2.28C35.83,35.33,32.7,34.01,31.68,37.62z"/>
		<path class="st9" d="M62.55,35.18c-0.25-2.1-1.08-3.6-4.16-2.29C58.39,32.89,61.52,31.57,62.55,35.18z"/>
		<path class="st11" d="M41.92,52.94c0,0,3,2.18,8.12,0.9C50.03,53.84,45.49,54.52,41.92,52.94z"/>
	</g>
</g>
</svg>
