<?xml version="1.0" encoding="utf-8"?>
<!-- Generator: Adobe Illustrator 24.0.1, SVG Export Plug-In . SVG Version: 6.00 Build 0)  -->
<svg version="1.1" id="Layer_1" xmlns="http://www.w3.org/2000/svg" xmlns:xlink="http://www.w3.org/1999/xlink" x="0px" y="0px"
	 viewBox="0 0 287.74 282" style="enable-background:new 0 0 287.74 282;" xml:space="preserve">
<style type="text/css">
	.st0{fill:#FF758A;}
	.st1{fill:#231F20;}
	.st2{fill:#FF8EA0;}
	.st3{fill:#FFADBA;}
	.st4{opacity:0.3;}
	.st5{fill:#E71D24;}
	.st6{fill:#C4191F;}
	.st7{fill:#FFFFFF;}
	.st8{fill:#DEDEDE;}
</style>
<g>
	<path class="st0" d="M225.78,162.54c2.82,2.91,6.22,5.01,10.19,4.9c3.89-0.11,7.45-2.44,9.9-5.46c2.45-3.02,3.95-6.69,5.32-10.33
		c-3.6-3.19-6.59-7.06-8.77-11.34c-1.58-3.1-2.03-8.01,1.3-9.02c1.18-0.36,2.45-0.02,3.63,0.37c3.14,1.03,6.16,2.39,9.02,4.05
		c-0.34-5.53,0.06-11.1,1.19-16.52c0.29-1.41,0.8-3.02,2.14-3.55c2.03-0.8,3.9,1.46,4.77,3.46c2.22,5.13,3.19,10.79,2.8,16.36
		c4.33-1.1,8.67-2.2,13.01-3.3c1.63-0.41,3.39-0.82,4.94-0.2c3.63,1.45,3.05,7.21,0.08,9.75c-2.97,2.54-7.1,3.08-10.73,4.55
		c3.2-1.3,12.31,7.07,12.24,10.37c-0.15,7.71-13.35,0.32-16.81-1.52c-4.83,6.9-8.29,14.26-14.86,19.89
		c-6.36,5.45-14.95,8.85-23.17,7.26c-2.64-0.51-5.15-1.47-7.55-2.69"/>
	<path class="st0" d="M61.96,162.54c-2.82,2.91-6.22,5.01-10.19,4.9c-3.89-0.11-7.45-2.44-9.9-5.46c-2.45-3.02-3.95-6.69-5.32-10.33
		c3.6-3.19,6.59-7.06,8.77-11.34c1.58-3.1,2.03-8.01-1.3-9.02c-1.18-0.36-2.45-0.02-3.63,0.37c-3.14,1.03-6.16,2.39-9.02,4.05
		c0.34-5.53-0.06-11.1-1.19-16.52c-0.29-1.41-0.8-3.02-2.14-3.55c-2.03-0.8-3.9,1.46-4.77,3.46c-2.22,5.13-3.19,10.79-2.8,16.36
		c-4.33-1.1-8.67-2.2-13.01-3.3c-1.63-0.41-3.39-0.82-4.94-0.2c-3.63,1.45-3.05,7.21-0.08,9.75c2.97,2.54,7.1,3.08,10.73,4.55
		c-3.2-1.3-12.31,7.07-12.24,10.37c0.15,7.71,13.35,0.32,16.81-1.52c4.83,6.9,8.29,14.26,14.86,19.89
		c6.36,5.45,14.95,8.85,23.17,7.26c2.64-0.51,5.15-1.47,7.55-2.69"/>
	<g>
		<g>
			<polyline class="st0" points="111.61,280.02 127.96,244.14 109.09,237.08 102.61,273.23 			"/>
			<path class="st1" d="M102.61,273.23c-4.51-1.52-11.63-2.15-16.61-0.51c-1.7,0.56-1.57,3.02,0.16,3.48l21.27,5.68
				c1.66,0.44,3.4-0.33,4.18-1.85"/>
			<polyline class="st0" points="176.13,280.02 159.78,243.09 178.65,236.03 185.13,273.23 			"/>
			<path class="st1" d="M185.13,273.23c4.51-1.52,11.63-2.15,16.61-0.51c1.7,0.56,1.57,3.02-0.16,3.48l-21.27,5.68
				c-1.66,0.44-3.4-0.33-4.18-1.85"/>
		</g>
		<g>
			<g>
				<path class="st2" d="M258.21,113.22c-4.87,3.09-13.06-13.9-30-4.91c-7.16,3.8-13.27,9.18-18.96,14.95
					c-5.69,5.77-11.69,11.64-19.28,14.48c-4.56,1.7-9.82,2.18-14.2,0.07c-4.39-2.11-7.47-7.27-6.14-11.95
					c1.22-4.31,5.62-7.02,10-7.96c4.38-0.94,8.93-0.53,13.39-0.89c11.34-0.91,21.42-7.64,28.69-16.39
					c13.76-16.58-3.63-25.81,5.72-32.54C237.42,60.88,272.44,104.18,258.21,113.22z"/>
				<path class="st3" d="M253.83,95.73c0.92,1.36,1.83,2.81,2.1,4.43c0.28,1.62-0.22,3.48-1.6,4.38c-1.22,0.79-2.85,0.67-4.16,0.04
					c-1.31-0.62-2.36-1.68-3.35-2.73c-6.23-6.58-11.63-13.95-16.01-21.88c-0.61-1.11-1.23-2.31-1.15-3.58
					c0.08-1.27,1.14-2.21,2.4-2.42C237.68,73.03,248.37,87.66,253.83,95.73z"/>
			</g>
			<g>
				<path class="st2" d="M34.18,112.47c4.74,3.3,13.63-13.34,30.18-3.65c6.99,4.09,12.88,9.73,18.31,15.74
					c5.44,6.01,11.19,12.12,18.65,15.27c4.48,1.89,9.72,2.59,14.19,0.67c4.47-1.92,7.77-6.95,6.64-11.68
					c-1.04-4.36-5.32-7.25-9.66-8.37c-4.34-1.12-8.9-0.91-13.34-1.45c-11.29-1.39-21.08-8.53-27.97-17.58
					c-13.05-17.15,4.71-25.63-4.35-32.75C57.15,61.05,20.34,102.85,34.18,112.47z"/>
				<path class="st3" d="M38.84,95.42c-1.02,1.38-2.02,2.84-2.38,4.51c-0.36,1.68,0.08,3.63,1.47,4.62
					c1.23,0.87,2.93,0.82,4.32,0.23c1.39-0.59,2.52-1.64,3.6-2.69c6.77-6.56,12.69-13.99,17.59-22.04c0.69-1.13,1.38-2.35,1.35-3.67
					c-0.02-1.32-1.09-2.35-2.38-2.62C56.62,72.53,44.87,87.27,38.84,95.42z"/>
			</g>
		</g>
		<path class="st2" d="M233.99,160.35c0-48.93-29.96-87.1-88.6-85.39c-58.64-1.72-88.6,36.45-88.6,85.39s6.24,88.6,88.6,88.6
			S233.99,209.28,233.99,160.35z"/>
		<g class="st4">
			<path class="st5" d="M224.32,172.31c-5.34,0.74-10.1,4.73-11.77,9.86c-0.1-4.27-4.28-7.88-8.52-8.42
				c-4.24-0.54-8.55,1.74-11.03,5.22c-2.47,3.48-3.24,7.98-2.73,12.22c0.52,4.24,2.23,8.26,4.35,11.96
				c4.89,8.57,11.99,15.51,20.51,20.48c3.54-2.61,6.9-5.46,10.06-8.52c5.76-11.63,7.76-25.61,8.45-40.88
				C230.85,172.6,227.53,171.86,224.32,172.31z"/>
			<path class="st5" d="M195.1,216.85c-2.41-0.19-5.07,1.12-5.75,3.44c-0.68,2.32,1.53,5.17,3.86,4.56
				c-3.39,0.75-6.11,4.07-5.89,7.53c0.22,3.46,3.64,6.48,7.08,5.99c2.2-0.31,4.02-1.82,5.57-3.41c2.98-3.05,5.44-6.62,7.21-10.49
				c-2.07-1.26-3.77-3.02-5.64-4.55C199.68,218.39,197.51,217.04,195.1,216.85z"/>
			<path class="st5" d="M190.81,210.83c0.33-2.29-1.79-4.53-4.11-4.59c-2.32-0.06-4.45,1.78-5.04,4.02c0.55-1.67-1.3-3.48-3.04-3.2
				c-1.74,0.28-2.93,2.14-2.84,3.9c0.09,1.76,1.22,3.33,2.63,4.39c1.41,1.05,3.09,1.67,4.75,2.27c1.29-1.2,2.96-1.88,4.46-2.8
				C189.13,213.91,190.56,212.57,190.81,210.83z"/>
			<path class="st5" d="M77.12,225.99c8.52-4.97,15.62-11.92,20.51-20.48c2.12-3.71,3.83-7.73,4.35-11.97
				c0.52-4.24-0.25-8.74-2.73-12.22c-2.47-3.48-6.79-5.76-11.03-5.22c-4.24,0.54-8.42,4.15-8.52,8.42
				c-1.67-5.13-6.43-9.11-11.77-9.86c-3.78-0.53-7.72,0.59-10.77,2.88c0.79,14.61,3.04,27.94,8.96,39.02
				C69.55,219.96,73.23,223.12,77.12,225.99z"/>
			<path class="st5" d="M99.04,227.2c2.34,0.62,4.55-2.24,3.87-4.56c-0.68-2.32-3.34-3.63-5.75-3.44c-2.41,0.19-4.58,1.54-6.44,3.07
				c-1.87,1.53-3.57,3.3-5.64,4.55c1.77,3.88,4.23,7.45,7.21,10.49c1.55,1.58,3.38,3.09,5.57,3.4c3.44,0.49,6.85-2.53,7.08-5.99
				C105.16,231.27,102.43,227.96,99.04,227.2z"/>
			<path class="st5" d="M113.63,209.41c-1.74-0.28-3.58,1.52-3.04,3.2c-0.59-2.24-2.72-4.08-5.04-4.02
				c-2.32,0.06-4.44,2.3-4.11,4.59c0.25,1.74,1.68,3.07,3.18,4c1.5,0.92,3.17,1.6,4.46,2.8c1.66-0.6,3.34-1.22,4.75-2.27
				c1.41-1.05,2.54-2.63,2.63-4.39C116.56,211.56,115.37,209.7,113.63,209.41z"/>
		</g>
		<g>
			<g>
				<g>
					<path class="st6" d="M192.29,95.71l-0.65-2.18c5.08-1.53,7.88-7.13,7.65-11.91c-2.41,0.4-5.88,0-8.27-1.05
						c-1.73-0.76-2.85-1.79-3.32-3.06c-0.59-1.6-0.27-3.23,0.88-4.47c1.44-1.55,3.96-2.26,5.98-1.68c3.38,0.97,5.58,4.1,6.49,7.18
						c2.65-1.49,4.45-4,4.8-6.78c0.19-1.51-0.24-3.42-1.07-5.24c-2.64,1.37-5.55,1.96-7.87,1.7c-3.57-0.4-5.61-2.7-5.32-6.01
						c0.15-1.68,1.01-2.91,2.48-3.56c2.65-1.17,6.7-0.06,8.45,1.26c1.1,0.83,2.17,2.03,3.09,3.42c2.04-1.54,3.64-3.71,4.01-6.43
						c0.32-2.39-0.55-4.75-1.96-6.65c-0.89,2.42-2.97,4.57-7.98,4.57h-0.01c-2.58,0-4.63-1.34-5.47-3.6
						c-0.78-2.08-0.3-4.35,1.19-5.65c2.62-2.28,6.11-2.52,9.57-0.66c0.38,0.2,0.75,0.43,1.12,0.69c0-0.02,0-0.05,0-0.07
						c0.01-0.36,0.03-0.71,0.05-1.03c0.04-0.63,0.18-1.52,0.33-2.56c0.48-3.15,1.37-9.02-0.4-10.56c-0.18-0.16-0.75-0.65-2.4-0.16
						l-0.64-2.18c1.89-0.56,3.42-0.35,4.53,0.63c2.71,2.36,1.81,8.29,1.15,12.61c-0.15,0.98-0.28,1.83-0.31,2.36
						c-0.02,0.3-0.03,0.63-0.04,0.97c-0.02,0.55-0.04,1.18-0.11,1.85c2.4,2.52,4.11,6.09,3.61,9.74c-0.47,3.5-2.53,6.24-5.13,8.12
						c1.05,2.18,1.64,4.58,1.37,6.72c-0.47,3.73-2.97,7.04-6.6,8.82C202.18,87.41,198.18,93.94,192.29,95.71z M193.07,73.44
						c-1.03,0-2.15,0.44-2.82,1.15c-0.57,0.62-0.71,1.34-0.42,2.13c0.25,0.66,0.97,1.27,2.1,1.77c2.12,0.93,5.17,1.19,7,0.88
						c-0.68-2.45-2.41-5.08-4.99-5.82C193.66,73.48,193.37,73.44,193.07,73.44z M196.69,60.44c-0.63,0-1.22,0.09-1.69,0.3
						c-0.7,0.31-1.06,0.85-1.13,1.69c-0.23,2.6,1.67,3.36,3.3,3.54c1.9,0.21,4.32-0.29,6.52-1.43c-0.73-1.12-1.6-2.1-2.54-2.81
						C200.27,61.07,198.34,60.44,196.69,60.44z M200.39,45.96c-1.13,0-2.35,0.34-3.5,1.34c-0.76,0.66-0.99,1.98-0.56,3.14
						c0.24,0.64,1.04,2.12,3.34,2.12h0c4.48,0,5.77-1.89,6.19-4.24c-0.63-0.55-1.3-1.02-1.98-1.39
						C203.06,46.48,201.79,45.96,200.39,45.96z"/>
				</g>
				<g>
					<path class="st5" d="M229.92,1.6c4.72,2.93,6.37,9.35,5.09,14.76c-1.28,5.41-4.93,9.95-8.88,13.86
						c-5.89,5.82-12.7,10.71-20.1,14.42c-2.1-6.41-7.82-10.8-12.85-15.3c-5.03-4.5-9.95-10.32-9.52-17.05
						c0.41-6.4,6.35-11.86,12.76-12.03c6.41-0.17,12.51,4.73,14.02,10.96c1.23-3.99,3.84-7.65,7.51-9.65
						C221.62-0.45,226.37-0.61,229.92,1.6z"/>
				</g>
				<path class="st6" d="M194.91,93.34c0.29,1.08-1.66,2.54-4.35,3.24c-2.69,0.71-5.1,0.4-5.38-0.68c-0.29-1.08,1.66-2.54,4.35-3.24
					C192.22,91.95,194.63,92.26,194.91,93.34z"/>
			</g>
			<g>
				<g>
					<path class="st6" d="M95.45,95.71l0.66-2.18c-5.08-1.53-7.88-7.13-7.65-11.91c2.41,0.4,5.88,0,8.27-1.05
						c1.73-0.76,2.85-1.79,3.32-3.06c0.59-1.6,0.27-3.23-0.88-4.47c-1.44-1.55-3.96-2.26-5.98-1.68c-3.38,0.97-5.58,4.1-6.49,7.18
						c-2.65-1.49-4.45-4-4.8-6.78c-0.19-1.51,0.24-3.42,1.07-5.24c2.64,1.37,5.55,1.96,7.88,1.7c3.57-0.4,5.61-2.7,5.32-6.01
						c-0.15-1.68-1.01-2.91-2.48-3.56c-2.65-1.17-6.7-0.06-8.45,1.26c-1.1,0.83-2.17,2.03-3.09,3.42c-2.04-1.54-3.64-3.71-4.01-6.43
						c-0.32-2.39,0.55-4.75,1.96-6.65c0.89,2.42,2.97,4.57,7.98,4.57h0.01c2.58,0,4.63-1.34,5.47-3.6c0.78-2.08,0.3-4.35-1.19-5.65
						c-2.62-2.28-6.11-2.52-9.57-0.66c-0.38,0.2-0.75,0.43-1.12,0.69c0-0.02,0-0.05,0-0.07c-0.01-0.36-0.03-0.71-0.05-1.03
						c-0.04-0.63-0.18-1.52-0.33-2.56c-0.48-3.15-1.37-9.02,0.4-10.56c0.18-0.16,0.75-0.65,2.4-0.16l0.64-2.18
						c-1.89-0.56-3.42-0.35-4.53,0.63c-2.71,2.36-1.81,8.29-1.15,12.61c0.15,0.98,0.28,1.83,0.31,2.36c0.02,0.3,0.03,0.63,0.04,0.97
						c0.02,0.55,0.04,1.18,0.11,1.85c-2.4,2.52-4.11,6.09-3.61,9.74c0.47,3.5,2.53,6.24,5.13,8.12c-1.05,2.18-1.64,4.58-1.37,6.72
						c0.47,3.73,2.97,7.04,6.6,8.82C85.56,87.41,89.56,93.94,95.45,95.71z M94.67,73.44c1.03,0,2.15,0.44,2.82,1.15
						c0.57,0.62,0.71,1.34,0.42,2.13c-0.24,0.66-0.97,1.27-2.1,1.77c-2.12,0.93-5.17,1.19-7,0.88c0.68-2.45,2.41-5.08,4.99-5.82
						C94.08,73.48,94.37,73.44,94.67,73.44z M91.05,60.44c0.63,0,1.22,0.09,1.69,0.3c0.7,0.31,1.06,0.85,1.13,1.69
						c0.23,2.6-1.67,3.36-3.3,3.54c-1.9,0.21-4.32-0.29-6.52-1.43c0.73-1.12,1.6-2.1,2.54-2.81C87.47,61.07,89.4,60.44,91.05,60.44z
						 M87.35,45.96c1.13,0,2.35,0.34,3.5,1.34c0.76,0.66,0.99,1.98,0.56,3.14c-0.24,0.64-1.04,2.12-3.34,2.12h0
						c-4.48,0-5.77-1.89-6.19-4.24c0.63-0.55,1.3-1.02,1.98-1.39C84.68,46.48,85.95,45.96,87.35,45.96z"/>
				</g>
				<g>
					<path class="st5" d="M57.82,1.6c-4.72,2.93-6.37,9.35-5.09,14.76c1.28,5.41,4.93,9.95,8.88,13.86
						c5.89,5.82,12.7,10.71,20.1,14.42c2.1-6.41,7.82-10.8,12.85-15.3c5.03-4.5,9.95-10.32,9.52-17.05
						c-0.41-6.4-6.35-11.86-12.76-12.03c-6.41-0.17-12.51,4.73-14.02,10.96c-1.23-3.99-3.84-7.65-7.51-9.65
						C66.12-0.45,61.37-0.61,57.82,1.6z"/>
				</g>
				<path class="st6" d="M92.83,93.34c-0.29,1.08,1.66,2.54,4.35,3.24c2.69,0.71,5.1,0.4,5.38-0.68c0.29-1.08-1.66-2.54-4.35-3.24
					C95.53,91.95,93.12,92.26,92.83,93.34z"/>
			</g>
		</g>
		<path class="st1" d="M135.3,90.63c-1.95,5.8-13.54,4.02-16.87,0c-2.88-3.48-3.32-20.3,0-22.65
			C124.01,85.09,137.88,82.95,135.3,90.63z"/>
		<path class="st1" d="M155.47,89.93c1.95,5.8,13.54,4.02,16.87,0c2.88-3.48,3.32-20.3,0-22.65
			C166.76,84.39,152.89,82.25,155.47,89.93z"/>
		<g>
			<g>
				<path class="st1" d="M197.05,180.66c2.07-4.2,3.21-8.72,3.21-13.44c0-1.27-0.09-2.53-0.25-3.77c-0.74,5.7-3.12,11.38-6.8,16.62
					c-3.79,5.4-8.96,10.32-15.14,14.3l3.29,3.01C188.39,192.89,193.85,187.15,197.05,180.66z"/>
				<path class="st1" d="M119.03,203.48c7.49,2.64,15.92,4.13,24.84,4.13c9.54,0,18.53-1.71,26.4-4.7l-0.42-4.08
					c-7.74,3.47-16.52,5.52-25.86,5.52c-8.59,0-16.73-1.75-24.03-4.72l-0.11,3.92C119.6,203.55,119.32,203.53,119.03,203.48z"/>
				<path class="st1" d="M87.48,167.22c0,4.63,1.1,9.07,3.1,13.2c3.41,7.06,9.49,13.24,17.36,17.91c-0.31-0.19-0.5-0.31-0.5-0.31
					l3.34-3.05c-6.92-4.26-12.67-9.68-16.71-15.65c-3.41-5.03-5.63-10.44-6.34-15.87C87.57,164.69,87.48,165.95,87.48,167.22z"/>
			</g>
			<g>
				<path class="st7" d="M180.57,197.38l-3.29-3.01l-9.59-8.77l1.37,13.22l0.42,4.08l0,0.01
					C171.89,202.92,180.58,197.39,180.57,197.38L180.57,197.38z"/>
				<path class="st7" d="M106.66,198.02c0,0,0.18,0.12,0.5,0.31c1.73,1.07,7.64,4.59,11.09,5.14c0.3,0.05,0.57,0.07,0.83,0.07
					l0.11-3.92l0.37-13.39l-9.55,8.73L106.66,198.02z"/>
			</g>
		</g>
	</g>
	<g>
		<g>
			
				<ellipse transform="matrix(0.0423 -0.9991 0.9991 0.0423 -40.7705 251.6935)" class="st0" cx="110.9" cy="147.11" rx="26.51" ry="26.51"/>
			<ellipse class="st7" cx="110.9" cy="139.96" rx="21.59" ry="18.93"/>
			<path class="st8" d="M132.7,142.82c0,12.01-9.77,21.79-21.8,21.79c-12.02,0-21.79-9.79-21.79-21.79c0-0.97,0.06-1.93,0.2-2.87
				c1.4,10.66,10.55,18.93,21.59,18.93c11.05,0,20.19-8.27,21.59-18.93C132.64,140.89,132.7,141.85,132.7,142.82z"/>
			<path class="st1" d="M123.45,136.15c-0.88-0.88-2.03-1.32-3.18-1.32c-1.15,0-2.31,0.44-3.18,1.32c-0.88,0.88-1.32,2.03-1.32,3.18
				c0,1.15,0.44,2.3,1.32,3.18c0.88,0.88,2.03,1.32,3.18,1.32c1.15,0,2.3-0.44,3.18-1.32c0.88-0.88,1.32-2.03,1.32-3.18
				C124.77,138.18,124.33,137.03,123.45,136.15z"/>
		</g>
		<g>
			
				<ellipse transform="matrix(0.9985 -0.0553 0.0553 0.9985 -7.8566 10.3041)" class="st0" cx="182.26" cy="147.11" rx="26.51" ry="26.51"/>
			<ellipse class="st7" cx="182.26" cy="139.96" rx="21.59" ry="18.93"/>
			<path class="st8" d="M160.46,142.82c0,12.01,9.77,21.79,21.8,21.79c12.02,0,21.79-9.79,21.79-21.79c0-0.97-0.06-1.93-0.2-2.87
				c-1.4,10.66-10.55,18.93-21.59,18.93c-11.05,0-20.19-8.27-21.59-18.93C160.52,140.89,160.46,141.85,160.46,142.82z"/>
			<path class="st1" d="M169.71,136.15c0.88-0.88,2.03-1.32,3.18-1.32c1.15,0,2.31,0.44,3.18,1.32c0.88,0.88,1.32,2.03,1.32,3.18
				c0,1.15-0.44,2.3-1.32,3.18c-0.88,0.88-2.03,1.32-3.18,1.32c-1.15,0-2.3-0.44-3.18-1.32c-0.88-0.88-1.32-2.03-1.32-3.18
				C168.39,138.18,168.83,137.03,169.71,136.15z"/>
		</g>
	</g>
</g>
</svg>
