<?xml version="1.0" encoding="utf-8"?>
<!-- Generator: Adobe Illustrator 24.0.1, SVG Export Plug-In . SVG Version: 6.00 Build 0)  -->
<svg version="1.1" id="Layer_1" xmlns="http://www.w3.org/2000/svg" xmlns:xlink="http://www.w3.org/1999/xlink" x="0px" y="0px"
	 viewBox="0 0 125.27 143.14" style="enable-background:new 0 0 125.27 143.14;" xml:space="preserve">
<style type="text/css">
	.st0{fill:#FDB845;}
	.st1{fill:#0092AC;}
	.st2{opacity:0.5;fill:#0092AC;}
	.st3{fill:#007287;}
	.st4{fill:none;}
	.st5{fill:#F79142;}
	.st6{fill:#75D0F2;}
	.st7{fill:#FFFFFF;}
	.st8{fill:#D5D7D8;}
	.st9{fill:#F4783F;}
	.st10{fill:#703410;}
	.st11{fill:#9559A4;}
	.st12{opacity:0.5;fill:#9559A4;}
	.st13{fill:#47214F;}
</style>
<g>
	<g>
		<g>
			<path class="st0" d="M100.4,92.45c0,0,3.83,0.49,4.2,2.37c0.36,1.88-3.04,4.62-3.04,4.62L100.4,92.45z"/>
			<path class="st0" d="M102.48,94.94c0.21-0.8,0.98-0.95,1.73-0.9c-1.07-1.25-3.81-1.6-3.81-1.6l1.16,6.99c0,0,0.69-0.56,1.42-1.34
				C102.47,97.12,102.21,95.97,102.48,94.94z"/>
			<path class="st0" d="M102.59,102.87c0,0,4.44-0.19,4.95,1.33c0.51,1.52-3.55,5.65-3.55,5.65L102.59,102.87z"/>
			<path class="st0" d="M105.41,106.69c-0.2-0.66-0.51-1.38-0.32-2.07c0.21-0.74,1.19-0.96,2.08-0.92c-1.2-0.97-4.58-0.83-4.58-0.83
				l1.4,6.98c0,0,0.92-0.94,1.83-2.08C105.65,107.43,105.52,107.06,105.41,106.69z"/>
			<path class="st0" d="M105.45,113.82c0,0,4.67-1.24,5.43,0.19c0.76,1.43-3.24,5.62-3.24,5.62L105.45,113.82z"/>
			<path class="st0" d="M108.49,115.15c0.09-1.12,0.94-1.44,1.85-1.6c-1.46-0.64-4.89,0.27-4.89,0.27l2.19,5.81
				c0,0,0.8-0.84,1.62-1.89C108.77,116.93,108.42,116.06,108.49,115.15z"/>
			<path class="st0" d="M110.11,123.91c0,0,4-1.14,5.24-0.57c1.24,0.57-2.09,6.28-2.09,6.28L110.11,123.91z"/>
			<path class="st0" d="M113.62,124.77c0.01-0.88,0.74-1.3,1.52-1.5c-1.43-0.38-5.02,0.65-5.02,0.65l3.14,5.71
				c0,0,0.63-1.08,1.24-2.35C113.94,126.56,113.6,125.68,113.62,124.77z"/>
			<path class="st0" d="M116.3,133.34c0,0,3.74-1.62,4.76-0.9c1.03,0.72-0.55,4.55-0.51,4.65
				C120.59,137.2,116.3,133.34,116.3,133.34z"/>
			<path class="st0" d="M119.42,133.42c0.12-0.5,0.54-0.88,1.03-1.15c-1.44-0.09-4.15,1.07-4.15,1.07s4.29,3.86,4.25,3.76
				c-0.01-0.04,0.2-0.61,0.42-1.34C120.1,135.34,119.19,134.35,119.42,133.42z"/>
			<path class="st0" d="M122.16,138.39c0,0,1.23-1.37,2.22-1.06c0.99,0.31,0.21,3.7,0.21,3.7L122.16,138.39z"/>
			<path class="st0" d="M123.91,138.49c-0.07-0.48,0.14-0.87,0.45-1.16c-0.99-0.28-2.2,1.07-2.2,1.07l2.43,2.63
				c0,0,0.12-0.51,0.2-1.15C124.35,139.53,123.99,139.09,123.91,138.49z"/>
		</g>
		<path class="st1" d="M100.28,80.06c0,0,0.32,37.64,20.12,55.92c7.24,6.28,6.85,8.95-4.19,5.9c-11.04-3.05-29.32-17.14-31.99-42.27
			C81.18,72.38,99.2,66.03,100.28,80.06z"/>
		<path class="st2" d="M115.1,138.37c-3.72-2-7.27-4.57-10-7.83c-3.31-3.95-6.61-8.67-7.1-13.96c-0.5-5.45,2.95-9.97,5.05-14.79
			c-2.69-11.98-2.78-21.73-2.78-21.73c-1.08-14.03-19.1-7.68-16.06,19.55c2.67,25.13,20.95,39.23,31.99,42.27
			c6.18,1.71,9.02,1.62,9.06,0.11C121.68,141.39,118.16,140.02,115.1,138.37z"/>
		<path class="st2" d="M93.51,115.73c1.64-6.36,5.05-12.1,8.82-17.46c-1.98-10.32-2.04-18.22-2.04-18.22
			c-1.08-14.03-19.1-7.68-16.06,19.55c1.01,9.52,4.26,17.45,8.51,23.8C92.58,120.84,92.86,118.24,93.51,115.73z"/>
		<path class="st1" d="M103.46,106.77c0,0,4.9,21.61,19.11,31.8C111.5,135.55,102.45,113.18,103.46,106.77z"/>
	</g>
	<g>
		<g>
			<path class="st1" d="M54.06,114.99c-0.03-2.81-1.24-7.13-1.45-8.12c-0.73-3.38-1.67-6.74-2.56-10.08
				c-0.79-2.95-1.74-5.96-3.61-8.42c-2.11-2.77-5.49-4.06-8.87-2.92c-7.69,2.59-8.12,13.67-8.35,20.3
				c-0.06,1.72-0.01,3.47,0.42,5.14c0.21,0.82,1.77,4.81,2.88,2.84c-0.14,2.49-0.38,5.23,0.85,7.36c0.29,0.5,0.87,0.53,1.26,0.12
				c0.05-0.06,0.1-0.12,0.14-0.19c-1.26,1.94,0.13,4.96,0.91,6.83c0.6,1.46,0.44,1.79-1.08,2.22c-1.52,0.43-2.83,1.03-4.16,1.89
				c-1.88,1.21-3.77,2.54-4.91,4.51c-0.71,1.24-1.38,3.23-0.99,4.66c0.74,2.73,4.43,1.77,6.4,1.6c3.28-0.27,7.2-0.5,10.47-0.7
				c2.43-0.15,4.94-0.6,7.36-1.08c4.19-0.83,3.41-2.12,3.49-4.19c1.38,0.41,0.8-2.28,0.79-3.13c-0.04-4.18,0.7-6.75-0.91-10.7
				c0.75,0.49,1.23,0.53,1.46-0.59c0.37-1.76-0.71-4.21-1.26-5.84C54.26,118.64,54.08,116.41,54.06,114.99z"/>
		</g>
		<g>
			<path class="st1" d="M54.06,114.99c-0.03-2.81-1.24-7.13-1.45-8.12c-0.73-3.38-1.67-6.74-2.56-10.08
				c-0.79-2.95-1.74-5.96-3.61-8.42c-2.11-2.77-5.49-4.06-8.87-2.92c-7.48,2.52-8.09,13.07-8.33,19.74c2.7,1.22,8.26,3.51,15.2,5.14
				c4.15,1.1,6.72,6.35,1.95,3.67c3.67,5.74,2.93,9.16-0.12,5.38c0,0,4,9.83,3.05,12.1c-0.61,1.47-2.93-2.57-2.93-2.57
				s2.95,8.27-2.08,10.14c-5.25,1.96-8.43,2.08-8.92-0.24c-0.49-2.32,1.1-3.91,2.81-4.28c0,0-6.48,0.73-7.21,4.64
				c-0.49,2.57-2.81,2.44-3.18-0.49c-0.37-2.93,3.68-4.26,3.68-4.26s-5.02,0.84-5.51,4.01c-0.23,1.5-0.9,2.17-1.55,2.08
				c0.02,0.21,0.05,0.42,0.1,0.62c0.74,2.73,4.43,1.77,6.4,1.6c3.28-0.27,7.2-0.5,10.47-0.7c2.43-0.15,4.94-0.6,7.36-1.08
				c4.19-0.83,3.41-2.12,3.49-4.19c1.38,0.41,0.8-2.28,0.79-3.13c-0.04-4.18,0.7-6.75-0.91-10.7c0.75,0.49,1.23,0.53,1.46-0.59
				c0.37-1.76-0.71-4.21-1.26-5.84C54.26,118.64,54.08,116.41,54.06,114.99z"/>
		</g>
		<g>
			<path class="st3" d="M40.24,134.28c-1.93-0.34-4.56,0.39-5.74,2.06c-1.1,1.55-2.24,4.52-0.7,6.15c0.21,0.22,0.55-0.44,0.5-0.62
				c-0.25-0.81-0.51-1.37-0.49-2.26c0.05-1.6,0.76-3.08,2.13-3.95c1.24-0.79,2.79-0.91,4.2-1.12
				C40.21,134.53,40.37,134.3,40.24,134.28z"/>
			<path class="st3" d="M31.58,134.14c-2.1,0.36-3.6,1.66-4.29,3.67c-0.47,1.37-0.7,4.24,0.56,5.29c0.22,0.18,0.53-0.39,0.46-0.57
				c-0.38-0.95-0.74-1.61-0.74-2.63c0-0.72,0.07-1.52,0.26-2.22c0.47-1.76,2.05-2.69,3.65-3.25
				C31.57,134.39,31.75,134.11,31.58,134.14z"/>
		</g>
		<path class="st3" d="M39.6,114.44c-1.04,0.12-2.04,0.1-3.06-0.15c-1.13-0.28-2.49-1.28-3.11-2.19c-0.15-0.23-0.08,0.21,0.03,0.41
			c0.6,1.11,1.38,2.13,2.55,2.67c1.06,0.49,2.23,0.34,3.32,0.07C39.6,115.18,40.06,114.38,39.6,114.44z"/>
		<path class="st1" d="M37.46,113.68c-0.62-0.19-1.2-0.45-1.79-0.73c-0.42-0.2-0.97-0.56-1.13-1c-0.05-0.13-0.28,0.14-0.26,0.24
			c0.13,0.51,0.54,0.77,0.89,1.13c0.47,0.49,1.39,0.8,2.06,0.83C37.39,114.15,37.68,113.74,37.46,113.68z"/>
		<path class="st1" d="M38.65,129.77c-1.55-2.69-2.58-7.93-2.22-11.04c0.05-0.46-0.4-0.29-0.59-0.08c-0.42,0.45-1.15,1.17-1.28,0.13
			c-0.11-0.89-0.02-1.83,0.01-2.72c0.01-0.27-0.29,0.04-0.31,0.17c-0.21,1.17-0.89,3.01-0.16,4.11c0.29,0.44,0.89,0.05,1.38-0.39
			c-0.12,1.51,0.07,2.85,0.47,4.4c0.4,1.58,0.79,3.41,1.92,4.63C38.17,129.3,38.85,130.1,38.65,129.77z"/>
	</g>
	<g>
		<g>
			<path class="st1" d="M68.03,116.5c-0.55,1.63-1.63,4.08-1.26,5.84c0.23,1.12,0.71,1.08,1.46,0.59c-1.6,3.95-0.86,6.52-0.91,10.7
				c-0.01,0.85-0.59,3.54,0.79,3.13c0.08,2.07-0.7,3.36,3.49,4.19c2.42,0.48,4.93,0.93,7.36,1.08c3.27,0.2,7.2,0.42,10.47,0.7
				c1.97,0.16,5.66,1.13,6.4-1.6c0.39-1.43-0.28-3.42-0.99-4.66c-1.14-1.98-3.03-3.3-4.91-4.51c-1.33-0.86-2.64-1.45-4.16-1.89
				c-1.53-0.44-1.69-0.76-1.08-2.22c0.77-1.87,2.17-4.89,0.91-6.83c0.04,0.07,0.09,0.13,0.14,0.19c0.39,0.42,0.96,0.39,1.26-0.12
				c1.23-2.13,0.99-4.87,0.85-7.36c1.11,1.97,2.67-2.02,2.88-2.84c0.43-1.67,0.48-3.42,0.42-5.14c-0.23-6.63-0.66-17.71-8.35-20.3
				c-3.37-1.13-6.75,0.15-8.87,2.92c-1.87,2.46-2.83,5.47-3.61,8.42c-0.89,3.34-1.84,6.7-2.56,10.08c-0.21,0.99-1.43,5.31-1.45,8.12
				C66.3,116.41,66.12,118.64,68.03,116.5z"/>
		</g>
		<g>
			<path class="st1" d="M66.32,114.99c0.03-2.81,1.24-7.13,1.45-8.12c0.73-3.38,1.67-6.74,2.56-10.08c0.79-2.95,1.74-5.96,3.61-8.42
				c2.11-2.77,5.49-4.06,8.87-2.92c7.48,2.52,8.09,13.07,8.33,19.74c-2.7,1.22-8.26,3.51-15.2,5.14c-4.15,1.1-6.72,6.35-1.96,3.67
				c-3.67,5.74-2.93,9.16,0.12,5.38c0,0-4,9.83-3.06,12.1c0.61,1.47,2.93-2.57,2.93-2.57s-2.95,8.27,2.08,10.14
				c5.25,1.96,8.43,2.08,8.92-0.24c0.49-2.32-1.1-3.91-2.81-4.28c0,0,6.48,0.73,7.21,4.64c0.49,2.57,2.81,2.44,3.18-0.49
				c0.37-2.93-3.68-4.26-3.68-4.26s5.02,0.84,5.51,4.01c0.23,1.5,0.9,2.17,1.55,2.08c-0.02,0.21-0.05,0.42-0.1,0.62
				c-0.74,2.73-4.43,1.77-6.4,1.6c-3.28-0.27-7.2-0.5-10.47-0.7c-2.43-0.15-4.94-0.6-7.36-1.08c-4.19-0.83-3.41-2.12-3.49-4.19
				c-1.38,0.41-0.8-2.28-0.79-3.13c0.04-4.18-0.7-6.75,0.91-10.7c-0.75,0.49-1.23,0.53-1.46-0.59c-0.37-1.76,0.71-4.21,1.26-5.84
				C66.12,118.64,66.3,116.41,66.32,114.99z"/>
		</g>
		<g>
			<path class="st3" d="M80.13,134.28c1.93-0.34,4.56,0.39,5.74,2.06c1.1,1.55,2.24,4.52,0.7,6.15c-0.21,0.22-0.55-0.44-0.5-0.62
				c0.25-0.81,0.51-1.37,0.49-2.26c-0.05-1.6-0.76-3.08-2.13-3.95c-1.24-0.79-2.79-0.91-4.2-1.12
				C80.17,134.53,80.01,134.3,80.13,134.28z"/>
			<path class="st3" d="M88.8,134.14c2.1,0.36,3.6,1.66,4.29,3.67c0.47,1.37,0.7,4.24-0.56,5.29c-0.22,0.18-0.54-0.39-0.46-0.57
				c0.37-0.95,0.73-1.61,0.73-2.63c0-0.72-0.07-1.52-0.26-2.22c-0.46-1.76-2.05-2.69-3.65-3.25
				C88.81,134.39,88.63,134.11,88.8,134.14z"/>
		</g>
		<path class="st3" d="M80.78,114.44c1.04,0.12,2.03,0.1,3.06-0.15c1.13-0.28,2.49-1.28,3.11-2.19c0.15-0.23,0.08,0.21-0.03,0.41
			c-0.6,1.11-1.38,2.13-2.55,2.67c-1.06,0.49-2.23,0.34-3.32,0.07C80.78,115.18,80.32,114.38,80.78,114.44z"/>
		<path class="st1" d="M82.92,113.68c0.62-0.19,1.21-0.45,1.79-0.73c0.42-0.2,0.97-0.56,1.13-1c0.05-0.13,0.28,0.14,0.26,0.24
			c-0.13,0.51-0.54,0.77-0.89,1.13c-0.47,0.49-1.39,0.8-2.06,0.83C82.99,114.15,82.7,113.74,82.92,113.68z"/>
		<path class="st1" d="M81.73,129.77c1.55-2.69,2.58-7.93,2.22-11.04c-0.05-0.46,0.4-0.29,0.59-0.08c0.42,0.45,1.15,1.17,1.28,0.13
			c0.11-0.89,0.02-1.83-0.01-2.72c-0.01-0.27,0.29,0.04,0.31,0.17c0.22,1.17,0.89,3.01,0.16,4.11c-0.29,0.44-0.89,0.05-1.38-0.39
			c0.12,1.51-0.07,2.85-0.47,4.4c-0.4,1.58-0.79,3.41-1.92,4.63C82.21,129.3,81.53,130.1,81.73,129.77z"/>
	</g>
	<g>
		<g>
			<path class="st0" d="M1.87,81.23c0,0-2-1.52-1.86-2.55c0.14-1.03,2.48-0.76,2.48-0.76L1.87,81.23z"/>
			<path class="st0" d="M2.69,76.4c0,0-2.96-2-2.55-3.58c0.41-1.58,3.58-1.31,3.58-1.31L2.69,76.4z"/>
			<path class="st0" d="M0.72,72.05c0.75,0.32,1.24,0.91,1.29,1.92c0.03,0.59-0.06,1.17-0.18,1.76c0.48,0.41,0.87,0.67,0.87,0.67
				l1.03-4.89C3.73,71.51,1.75,71.34,0.72,72.05z"/>
			<path class="st0" d="M4.69,68.48c0,0-3.17-2.07-3.03-3.93c0.14-1.86,4.2-1.17,4.2-1.17L4.69,68.48z"/>
			<path class="st0" d="M2.32,63.61c0.71,0.16,1.22,0.65,1.17,1.69c-0.03,0.66-0.17,1.29-0.35,1.92c0.77,0.74,1.55,1.25,1.55,1.25
				l1.17-5.1C5.86,63.38,3.51,62.98,2.32,63.61z"/>
			<path class="st0" d="M7.03,60.56c0,0-2.34-5.65-1.03-7.51c1.31-1.86,4.13,1.03,4.13,1.03S6.9,60.49,7.03,60.56z"/>
			<path class="st0" d="M10.13,54.08c0,0-1.77-1.81-3.15-1.64c1.03,1.32,0.16,3.71-0.78,5.71c0.39,1.35,0.83,2.41,0.83,2.41
				C6.9,60.49,10.13,54.08,10.13,54.08z"/>
			<path class="st0" d="M10.48,53.94c0,0-2.57-5.5-0.84-7.77c1.72-2.27,5.32,1.23,5.32,1.23L10.48,53.94z"/>
			<path class="st0" d="M10.68,45.46c1.99,1.42,0.35,4.21-1.07,6.13c0.4,1.34,0.88,2.35,0.88,2.35l4.48-6.54
				C14.96,47.4,12.5,45.01,10.68,45.46z"/>
			<path class="st0" d="M14.96,48.36c0,0-1.65-6.34-0.55-7.37c1.1-1.03,4.62,2.62,4.62,2.62L14.96,48.36z"/>
			<path class="st0" d="M15.33,40.87c0.66,1.39,0.15,3.11-1.04,4.3c0.28,1.67,0.67,3.19,0.67,3.19l4.06-4.75
				C19.02,43.61,16.79,41.29,15.33,40.87z"/>
		</g>
		<path class="st1" d="M25.25,41.18c0,0-14.08-1.02-21.55,27.49c-3.73,15.44-2.91,26.63-2.01,26.9c0.9,0.27,1.35-2.97,1.35-2.97
			s-0.54,4.78,0.54,4.95c1.08,0.18,1.53-4.14,1.53-4.14s0.27,4.87,1.35,5.04c1.08,0.18,1.44-5.13,1.44-5.13s1.26,5.5,2.7,5.41
			c1.44-0.09-0.09-1.53,0.36-5.23c0,0,0.63,3.24,1.8,3.15c1.17-0.09,0.72-5.5,0.99-8.74c0.27-3.24,1.99-12.53,5.8-24.72
			C23.38,51.02,32.5,41.24,25.25,41.18z"/>
		<g>
			<path class="st4" d="M1.44,81.33c0.38-3.32,0.98-7.1,1.92-11.21C2.34,73.73,1.75,77.69,1.44,81.33z"/>
			<path class="st1" d="M25.25,41.18c0,0-2.96-0.21-6.89,2.31c0.19,0.28,0.3,0.93-0.28,1.85c-7.46,11.96-7.22,21.07-6.32,33.26
				c1.4,8.51,1.45,15.14,0.68,15.91c-0.77,0.77-1.33-2.32-1.54-5.33c-1.12,1.82-1.19,5.61-0.7,7.23c0.49,1.61-1.82,0.84-1.89-4.77
				c0,0-1.12,1.82-1.4,4.28c-0.28,2.46-2.11-0.56-1.26-5.75c-1.54,2.53-1.47,6.03-2.1,5.96c-0.63-0.07-0.42-3.79,0.28-6.53
				c-1.4,1.75-1.47,4.28-2.1,4.21c-0.41-0.05-0.83-5.69-0.26-12.49C0.48,89.88,1.07,95.39,1.7,95.58c0.9,0.27,1.35-2.97,1.35-2.97
				s-0.54,4.78,0.54,4.95c1.08,0.18,1.53-4.14,1.53-4.14s0.27,4.87,1.35,5.04c1.08,0.18,1.44-5.13,1.44-5.13s1.26,5.5,2.7,5.41
				c1.44-0.09-0.09-1.53,0.36-5.23c0,0,0.63,3.24,1.8,3.15c1.17-0.09,0.72-5.5,0.99-8.74c0.27-3.24,1.99-12.53,5.8-24.72
				C23.38,51.02,32.5,41.24,25.25,41.18z"/>
			<path class="st5" d="M3.44,69.79c-0.02,0.11-0.05,0.22-0.08,0.32c0.03-0.1,0.06-0.21,0.09-0.31C3.45,69.8,3.44,69.79,3.44,69.79z
				"/>
		</g>
		<path class="st1" d="M14.49,48.03c0,0-11.23,13.9-11.42,40.37C0.21,71.65,7.64,54.89,14.49,48.03z"/>
	</g>
	<g>
		<g>
			<path class="st0" d="M118.5,81.36c0,0,2-1.52,1.86-2.55c-0.14-1.03-2.48-0.76-2.48-0.76L118.5,81.36z"/>
			<path class="st0" d="M117.67,76.54c0,0,2.96-2,2.55-3.58c-0.41-1.58-3.58-1.31-3.58-1.31L117.67,76.54z"/>
			<path class="st0" d="M119.64,72.19c-0.75,0.32-1.24,0.91-1.29,1.92c-0.03,0.59,0.06,1.17,0.18,1.76
				c-0.48,0.41-0.87,0.67-0.87,0.67l-1.03-4.89C116.64,71.65,118.61,71.48,119.64,72.19z"/>
			<path class="st0" d="M115.67,68.62c0,0,3.17-2.07,3.03-3.93c-0.14-1.86-4.2-1.17-4.2-1.17L115.67,68.62z"/>
			<path class="st0" d="M118.04,63.75c-0.71,0.16-1.22,0.65-1.17,1.69c0.03,0.66,0.17,1.29,0.35,1.92
				c-0.77,0.74-1.55,1.25-1.55,1.25l-1.17-5.1C114.5,63.52,116.86,63.12,118.04,63.75z"/>
			<path class="st0" d="M113.33,60.7c0,0,2.34-5.65,1.03-7.51c-1.31-1.86-4.13,1.03-4.13,1.03S113.47,60.63,113.33,60.7z"/>
			<path class="st0" d="M110.23,54.22c0,0,1.76-1.81,3.15-1.65c-1.02,1.32-0.16,3.71,0.78,5.71c-0.39,1.35-0.83,2.41-0.83,2.41
				C113.47,60.63,110.23,54.22,110.23,54.22z"/>
			<path class="st0" d="M109.88,54.08c0,0,2.56-5.5,0.84-7.77c-1.72-2.27-5.32,1.23-5.32,1.23L109.88,54.08z"/>
			<path class="st0" d="M109.69,45.6c-1.99,1.42-0.35,4.21,1.07,6.13c-0.4,1.34-0.88,2.35-0.88,2.35l-4.48-6.55
				C105.41,47.54,107.86,45.15,109.69,45.6z"/>
			<path class="st0" d="M105.41,48.5c0,0,1.65-6.34,0.55-7.37c-1.1-1.03-4.62,2.62-4.62,2.62L105.41,48.5z"/>
			<path class="st0" d="M105.04,41.01c-0.66,1.39-0.15,3.11,1.04,4.3c-0.28,1.67-0.67,3.19-0.67,3.19l-4.07-4.75
				C101.34,43.75,103.57,41.43,105.04,41.01z"/>
		</g>
		<path class="st1" d="M95.11,41.32c0,0,14.08-1.02,21.55,27.49c3.73,15.44,2.91,26.63,2.01,26.9c-0.9,0.27-1.35-2.97-1.35-2.97
			s0.54,4.78-0.54,4.96c-1.08,0.18-1.53-4.14-1.53-4.14s-0.27,4.86-1.35,5.05c-1.08,0.18-1.44-5.14-1.44-5.14s-1.26,5.5-2.7,5.41
			c-1.44-0.09,0.09-1.53-0.36-5.23c0,0-0.63,3.24-1.8,3.15c-1.17-0.09-0.72-5.5-0.99-8.74c-0.27-3.24-2-12.53-5.8-24.72
			C96.98,51.15,87.86,41.38,95.11,41.32z"/>
		<g>
			<path class="st4" d="M118.92,81.47c-0.38-3.32-0.98-7.1-1.92-11.22C118.03,73.87,118.62,77.83,118.92,81.47z"/>
			<path class="st1" d="M95.11,41.32c0,0,2.96-0.21,6.89,2.31c-0.19,0.28-0.3,0.93,0.28,1.85c7.46,11.96,7.22,21.07,6.32,33.26
				c-1.4,8.5-1.45,15.14-0.68,15.91c0.77,0.77,1.33-2.31,1.54-5.33c1.12,1.82,1.19,5.61,0.7,7.23c-0.49,1.61,1.82,0.84,1.9-4.77
				c0,0,1.12,1.82,1.4,4.28c0.28,2.46,2.11-0.56,1.26-5.75c1.54,2.53,1.47,6.03,2.1,5.96c0.63-0.07,0.42-3.79-0.28-6.53
				c1.4,1.75,1.47,4.28,2.11,4.21c0.41-0.05,0.83-5.69,0.26-12.48c0.97,8.55,0.38,14.06-0.25,14.25c-0.9,0.27-1.35-2.97-1.35-2.97
				s0.54,4.78-0.54,4.96c-1.08,0.18-1.53-4.14-1.53-4.14s-0.27,4.86-1.35,5.05c-1.08,0.18-1.44-5.14-1.44-5.14s-1.26,5.5-2.7,5.41
				c-1.44-0.09,0.09-1.53-0.36-5.23c0,0-0.63,3.24-1.8,3.15c-1.17-0.09-0.72-5.5-0.99-8.74c-0.27-3.24-2-12.53-5.8-24.72
				C96.98,51.15,87.86,41.38,95.11,41.32z"/>
			<path class="st5" d="M116.92,69.93c0.02,0.11,0.05,0.22,0.08,0.32c-0.03-0.1-0.06-0.21-0.09-0.31
				C116.92,69.94,116.92,69.93,116.92,69.93z"/>
		</g>
		<path class="st1" d="M105.87,48.17c0,0,11.23,13.9,11.43,40.37C120.15,71.78,112.73,55.03,105.87,48.17z"/>
	</g>
	<g>
		<path class="st1" d="M43.41,13.14c-0.06-0.09-0.13-0.17-0.2-0.26c0.04-0.09,0.07-0.17,0.08-0.26c0.06-0.31-0.15-0.26-0.36-0.09
			c-4.71-5.82-15.01-9-21.17-3.94c-0.18,0.09-0.35,0.2-0.5,0.36c-0.03,0.03-0.12,0.23,0,0.19c0.82-0.3,1.68-0.26,2.54-0.23
			c-0.03,0.03-0.06,0.05-0.09,0.08c-0.44,0.44-0.95,1.03-1.1,1.64c-0.01,0.05-0.02,0.09-0.02,0.13c0,0-0.01,0-0.01,0.01
			c-0.08,0.09-0.12,0.35,0.06,0.21c0.3-0.23,0.7-0.26,1.1-0.28c-3.54,4.93-1.41,13.4,3.56,16.45c0,0.01,0,0.02,0,0.04
			c-0.02,0.2,0.19,0.07,0.25-0.01c0.15-0.08,0.29-0.27,0.32-0.44c1.16-1.47,3.07-2.73,4.49-3.82c1.61-1.24,3.16-2.6,4.72-3.92
			c1.42-1.2,2.94-2.73,4.22-4.07c0.38-0.4,1.05-0.87,1.52-1.4c0.06,0.05,0.13,0.1,0.19,0.16C43.17,13.8,43.53,13.3,43.41,13.14z"/>
		<path class="st1" d="M43.41,13.14c-0.06-0.09-0.13-0.17-0.2-0.26c0.04-0.09,0.07-0.17,0.08-0.26c0.06-0.31-0.15-0.26-0.36-0.09
			c-1.91-2.35-4.72-4.27-7.81-5.39c0.4,0.43,0.81,1.01,0.5,1.57c-0.28,0.5-1.06,0.49-1.54,0.47c-2.39-0.1-5.42-1.48-7.63-0.14
			c-1.86,1.13-2.08,3.46-1.67,5.42c0.04,0.18,0.63-0.48,0.69-0.54c0.2-0.2,0.42-0.41,0.66-0.56c0.42-0.27,0.81-0.44,1.31-0.52
			c0.08-0.01,0.04,0.14,0.03,0.17c-0.43,1.14-1.03,2.28-1.25,3.49c-0.14,0.77-0.21,1.57,0.11,2.31c0.15,0.35,0.36,0.72,0.42,1.1
			c0.19,1.14-0.63,1.91-1.69,2.17c-0.71,0.17-1.34,0.18-1.91,0.07c0.92,2.09,2.34,3.9,4.14,5.01c0,0.01,0,0.02,0,0.04
			c-0.02,0.2,0.19,0.07,0.25-0.01c0.15-0.08,0.29-0.27,0.32-0.44c1.16-1.47,3.07-2.73,4.49-3.82c1.61-1.24,3.16-2.6,4.72-3.92
			c1.42-1.2,2.94-2.73,4.22-4.07c0.38-0.4,1.05-0.87,1.52-1.4c0.06,0.05,0.13,0.1,0.19,0.16C43.17,13.8,43.53,13.3,43.41,13.14z"/>
		<path class="st0" d="M38.72,17.42c-0.73-1.67-2.17-3.1-3.34-4.43c-0.18-0.2-0.36-0.39-0.55-0.58c-0.12-0.15-0.37-0.43-0.47-0.54
			c-1.43-1.65-4.3-2.66-6.45-1.92c-1.28,0.44-1.98,1.72-2.02,3.01c-0.01,0.18,0.21-0.02,0.22-0.12c0.21-1.93,1.76-2.61,3.44-2.64
			c-0.19,0.18-0.34,0.44-0.5,0.75c-0.57,1.15-0.95,2.4-1.08,3.68c-0.04,0.38-0.06,0.76-0.05,1.14c0,0.51,0.04,1.03,0.1,1.53
			c0.34,2.89,1.51,6.02,3.83,7.87c-0.07,0.13-0.12,0.38,0.07,0.26c0.46-0.27,0.75-0.71,1.14-1.07c0.89-0.83,1.76-1.67,2.61-2.54
			c0.87-0.89,1.65-1.89,2.49-2.82c0.11-0.13,0.23-0.26,0.35-0.4c0.05,0.08,0.1,0.16,0.16,0.25c0.13,0.2,0.44-0.23,0.41-0.38
			c-0.04-0.17-0.09-0.33-0.14-0.49c0.07-0.14,0.13-0.28,0.17-0.43C39.21,17.13,38.94,17.22,38.72,17.42z"/>
		<path class="st0" d="M31.15,15.19c0.57,2.11,1.82,3.99,3.24,5.63c0.35,0.41,0.72,0.81,1.09,1.2c0.06-0.06,0.13-0.13,0.19-0.19
			c0.87-0.89,1.65-1.89,2.49-2.82c0.11-0.13,0.23-0.26,0.35-0.4c0.05,0.08,0.1,0.16,0.16,0.25c0.13,0.2,0.44-0.23,0.41-0.38
			c-0.04-0.17-0.09-0.33-0.14-0.49c0.07-0.14,0.13-0.28,0.17-0.43c0.11-0.42-0.17-0.33-0.38-0.13c-0.73-1.67-2.17-3.1-3.34-4.43
			c-0.18-0.2-0.36-0.39-0.55-0.58c-0.12-0.15-0.37-0.43-0.47-0.54c-0.63-0.74-1.56-1.34-2.57-1.72
			C30.94,11.67,30.67,13.4,31.15,15.19z"/>
	</g>
	<g>
		<path class="st1" d="M74.72,15.81c0.06-0.07,0.11-0.13,0.17-0.2c0.59,0.46,1.39,0.82,1.86,1.16c1.6,1.14,3.49,2.43,5.21,3.39
			c1.89,1.05,3.76,2.16,5.69,3.13c1.7,0.85,3.94,1.78,5.44,3.08c0.07,0.17,0.26,0.35,0.43,0.4c0.08,0.08,0.33,0.17,0.26-0.03
			c0-0.01-0.01-0.02-0.01-0.04c4.56-4.17,5.08-13.42,0.4-17.84c0.42-0.07,0.84-0.12,1.2,0.07c0.21,0.11,0.12-0.16,0.02-0.23
			c0,0-0.01,0-0.01-0.01c-0.01-0.04-0.02-0.08-0.04-0.13c-0.28-0.61-0.93-1.11-1.47-1.48C93.82,7.05,93.79,7.03,93.75,7
			c0.88-0.21,1.77-0.41,2.69-0.27c0.13,0.02-0.01-0.18-0.04-0.2C96.2,6.41,96,6.32,95.8,6.26c-7.43-4.02-17.51,1.35-21.25,8.35
			c-0.25-0.13-0.48-0.14-0.35,0.17c0.04,0.09,0.09,0.17,0.14,0.25c-0.05,0.1-0.11,0.21-0.16,0.31
			C74.09,15.55,74.56,15.99,74.72,15.81z"/>
		<path class="st1" d="M74.18,15.35c0.05-0.11,0.1-0.21,0.16-0.31c-0.05-0.08-0.1-0.17-0.14-0.25c-0.13-0.31,0.1-0.3,0.35-0.17
			c1.51-2.83,4.06-5.4,7.05-7.18c-0.33,0.53-0.65,1.21-0.21,1.74c0.39,0.47,1.2,0.3,1.7,0.18c2.47-0.59,5.34-2.62,7.92-1.68
			c2.17,0.8,2.85,3.18,2.82,5.3c0,0.19-0.76-0.38-0.83-0.43c-0.25-0.17-0.52-0.34-0.8-0.45c-0.49-0.2-0.94-0.3-1.47-0.27
			c-0.09,0-0.01,0.15,0,0.18c0.68,1.1,1.53,2.17,2,3.38c0.3,0.78,0.53,1.6,0.35,2.43c-0.08,0.39-0.23,0.82-0.22,1.23
			c0.03,1.22,1.04,1.86,2.19,1.92c0.77,0.04,1.43-0.08,2-0.31c-0.54,2.36-1.66,4.53-3.3,6.04c0,0.01,0.01,0.02,0.01,0.04
			c0.06,0.2-0.18,0.11-0.26,0.03c-0.17-0.05-0.36-0.23-0.43-0.4c-1.5-1.3-3.74-2.22-5.44-3.08c-1.93-0.97-3.81-2.08-5.69-3.13
			c-1.72-0.96-3.61-2.25-5.21-3.39c-0.48-0.34-1.27-0.69-1.86-1.16c-0.06,0.07-0.11,0.13-0.17,0.2
			C74.56,15.99,74.09,15.55,74.18,15.35z"/>
		<path class="st0" d="M79.92,18.87c0.43-1.88,1.64-3.67,2.58-5.28c0.14-0.24,0.3-0.48,0.46-0.71c0.1-0.18,0.3-0.52,0.38-0.66
			c1.15-2.01,3.94-3.63,6.33-3.29c1.43,0.2,2.4,1.4,2.71,2.72c0.04,0.19-0.22,0.02-0.25-0.08c-0.61-1.96-2.36-2.36-4.11-2.06
			c0.24,0.15,0.44,0.39,0.67,0.68c0.83,1.08,1.47,2.31,1.86,3.62c0.12,0.38,0.21,0.78,0.28,1.17c0.1,0.53,0.16,1.08,0.2,1.62
			c0.23,3.08-0.36,6.56-2.41,8.96c0.09,0.12,0.2,0.37-0.02,0.29c-0.53-0.19-0.93-0.58-1.41-0.89c-1.09-0.69-2.17-1.38-3.23-2.12
			c-1.09-0.75-2.09-1.64-3.15-2.43c-0.15-0.11-0.3-0.22-0.44-0.35c-0.04,0.1-0.08,0.19-0.11,0.29c-0.09,0.24-0.51-0.15-0.5-0.31
			c0.01-0.18,0.02-0.36,0.05-0.54c-0.1-0.13-0.19-0.27-0.26-0.41C79.35,18.67,79.65,18.71,79.92,18.87z"/>
		<path class="st0" d="M87.35,15.04c-0.17,2.31-1.1,4.52-2.24,6.51c-0.29,0.5-0.58,0.98-0.89,1.46c-0.08-0.05-0.16-0.11-0.24-0.16
			c-1.09-0.75-2.09-1.64-3.15-2.43c-0.15-0.11-0.3-0.22-0.44-0.35c-0.04,0.1-0.08,0.19-0.11,0.29c-0.09,0.24-0.51-0.15-0.5-0.31
			c0.01-0.18,0.02-0.36,0.05-0.54c-0.1-0.13-0.19-0.27-0.26-0.41c-0.2-0.42,0.11-0.38,0.37-0.22c0.43-1.88,1.64-3.67,2.58-5.28
			c0.14-0.24,0.3-0.48,0.46-0.71c0.1-0.18,0.3-0.52,0.38-0.66c0.51-0.89,1.35-1.71,2.33-2.31C86.86,11.32,87.5,13.07,87.35,15.04z"
			/>
	</g>
	<path class="st6" d="M104.11,59.92c-1.25-5.3-2.51-10.59-4.35-15.73c-0.9-2.51-1.93-4.99-3.11-7.38c-0.54-1.09-1.26-1.97-2.04-2.82
		c0.81,0.3,1.59,0.77,2.3,1.17c0.29,0.16,0.6-0.43,0.53-0.66c-0.61-2.01-1.76-4.23-3.07-5.86c-0.45-0.56-0.98-0.99-1.54-1.37
		c0.5,0.2,0.97,0.43,1.47,0.63c0.21,0.08,0.54-0.33,0.42-0.52c-0.12-0.18-0.28-0.33-0.46-0.45c-0.5-0.99-1.51-1.93-2.27-2.71
		c-0.58-0.59-1.17-1.05-1.79-1.46c0.87-0.35,1.58-0.93,1.73-1.88c0.11-0.72-1.47-0.71-1.81-0.72c-1.91-0.04-3.36-1.38-4.66-2.63
		c-2.67-2.55-4.8-5.29-7.95-7.34c-1.69-1.1-3.18-2.02-5.03-2.85c-0.71-0.32-3.17-1.15-3.88-1.44c0.68,0.09,3.48,0.02,3.8-0.63
		c0.42-0.87-0.82-1.26-1.42-1.43c-1.01-0.28-2.08-0.32-3.13-0.23c-1.18,0.1-2.46,0.43-3.48,1.1c0.25-1.06,0.71-2.12,0.72-3.21
		c0-0.17-0.2-0.19-0.31-0.12C63.86,1.93,63,2.8,62.36,3.66c-0.23,0.36-0.52,0.66-0.89,0.89c-0.23-0.68-0.41-1.37-0.53-2.08
		c-0.13-0.78-0.19-1.51-0.17-2.3c0-0.12-0.12-0.19-0.22-0.16c-1.55,0.45-2.36,2.62-2.85,4.31C57,3.04,56.15,1.84,55.06,0.88
		c-0.15-0.13-0.44,0.06-0.52,0.17C54.43,1.21,54.4,1.41,54.4,1.6c-0.01,0.6,0.18,1.22,0.22,1.82c-0.01-0.1-1.18-0.32-1.31-0.35
		c-0.45-0.09-0.92-0.14-1.38-0.15c-0.9-0.01-1.83,0.15-2.65,0.5c-0.49,0.21-0.94,0.51-1.38,0.8c-0.16,0.11-1.2,0.53-1.09,0.78
		c0.06,0.15,0.45,0.07,0.58,0.07c0.39,0.03,0.77,0.07,1.16,0.13c0.48,0.08,0.9,0.27,1.33,0.46c-1.33,0.5-2.64,1.19-3.83,1.82
		c-1.84,0.97-3.78,2.11-5.3,3.53c-1.72,1.6-3.17,3.46-4.79,5.15c-1.91,2-5.24,4.6-8.15,3.83c-0.09-0.02-0.25,0.21-0.16,0.26
		c0.01,0,0.02,0.01,0.02,0.01c0.2,0.81,0.47,1.43,1.33,1.74c0.35,0.13,0.73,0.24,1.12,0.31c-2.19,1.05-4.1,2.48-5.27,4.76
		c-0.05,0.06-0.09,0.12-0.14,0.19c-0.05,0.08-0.06,0.16-0.03,0.2c0,0.09,0.12,0.08,0.19-0.03c0.02-0.02,0.04-0.05,0.05-0.07
		c0.5-0.41,1.25-0.49,1.85-0.67c0.17-0.05,0.34-0.1,0.51-0.16c-2.27,2.31-4.03,5.16-5.24,8.07c-0.05,0.07-0.1,0.16-0.1,0.22
		c0,0,0,0.01-0.01,0.01c-0.06,0.15,0.09,0.12,0.16,0.05c0.45,0,0.85-0.41,1.25-0.6c0.6-0.29,1.24-0.48,1.87-0.7
		c-0.72,1.17-1.42,2.35-2.05,3.61c-1.33,2.69-2.59,5.45-4,8.1c-2.54,4.75-2.76,10.82-3.72,16.02c-1.07,5.85-1.49,11.69-1.27,17.63
		c0.2,5.55,1.2,11.07,4.15,15.85c0.34,0.54,0.98-0.61,0.98-0.91c0-0.1-0.01-0.2-0.01-0.3c0.49,1.9,1.18,3.71,2.78,5.18
		c0.32,0.3,0.77-0.59,0.76-0.81c-0.04-0.67-0.12-1.33-0.18-2c0.78,2.25,2.05,3.84,3.66,5.68c2.11,2.42,5.26,3.32,8.38,3.86
		c0.08,0.01-2.84-2.29-2.76-2.36c0.14-0.11,1.94,0.92,2.16,1.02c0.8,0.38,1.6,0.75,2.4,1.12c2.96,1.38,5.93,2.67,9.13,3.38
		c6.43,1.43,13.38,1.55,19.95,1.37c1.92-0.05,3.83-0.21,5.73-0.51c3.61-0.59,7.29-1.58,10.41-3.48c1.86-1.13,3.62-2.41,5.38-3.69
		c-0.59,0.43-1.34,1.07-1.64,1.75c-0.53,1.21,1.02,1.24,1.86,1c2.03-0.56,3.65-1.58,5.18-3.01c2.03-1.9,3.59-3.37,4.58-5.76
		c-0.01,0.59-0.03,1.18,0,1.8c0.02,0.39,0.5,0.11,0.62-0.04c1.77-2.17,1.94-5.27,2.46-7.79c0,0,0,0.01,0.01,0.01
		c0.42,0.83,0.59,1.83,0.93,2.7c0.01,0.03,0.01,0.05,0.03,0.06c0.46,1.16,0.81-0.19,0.93-0.73c0.88-4.16,2.43-7.63,3.11-11.83
		c0.68-4.21,0.52-9.06,0.15-13.3C105.1,64.78,104.68,62.32,104.11,59.92z"/>
	<path class="st6" d="M58.44,25.28c0,0-0.79,2.77,1.45,3.5c-0.54,2.64-0.87,10.27,5.1,11.86c-0.78,0.18-1.55-0.13-1.55-0.13
		s7.68,4.16,12.82-3.46c-1.24,1.02-2.35,1.59-2.35,1.59s3.89-5.36-1.25-13.31c1.28-1.09,1.81-2.38,1.81-2.38s-4.86,3.81-10.43,4.95
		C61.13,28.51,59.07,28.76,58.44,25.28z"/>
	<path class="st6" d="M39.52,24.61c0,0,0.95,1.95,2.33,2.81c-1.38,2.62-2.48,7-1.48,8.95c-1.38-0.9-1.57-1.57-1.57-1.57
		s0.34,4.62,5.91,6.19c2.16,0.67,4.56,0.68,7.8-1.54c-1.19,0.48-3.15,0.96-3.15,0.96s5.19-1.67,4.14-11.33
		c0.81-0.71,0.57-2.43,0.57-2.43s-0.86,2.71-4.24,2.48C46.85,28.66,41.47,26.09,39.52,24.61z"/>
	<path class="st7" d="M43.33,26.85c0,0-4.57,8.28-0.9,11.76c3.67,3.47,12,2.38,10.41-9.87C52.83,28.74,48.63,29.98,43.33,26.85z"/>
	<g>
		<path class="st8" d="M52.83,28.74c0,0-4.2,1.24-9.51-1.89c0,0-0.95,1.72-1.63,3.92c0.5-0.64,1.24-1.6,2.07-2.2
			c2.44,1.17,5.02,1.98,8.07,1.37c0.68,1.21,0.91,2.22,1.12,3.3C53.08,31.95,53.05,30.46,52.83,28.74z"/>
	</g>
	<path class="st7" d="M60.66,28.15c0,0-2.39,13.08,7.52,12.51c6.05-0.57,8.46-7.47,3.13-15.73C71.3,24.93,65.14,28.68,60.66,28.15z"
		/>
	<g>
		<path class="st8" d="M60.66,28.15c0,0-0.97,5.33,0.91,9.04c-0.64-2.28-1.19-5.72,0.61-7.79c0,0,4.31-0.11,8.35-2.41
			c1.51,0.72,2.51,1.69,3.13,2.9c-0.48-1.56-1.25-3.23-2.36-4.95C71.3,24.93,65.14,28.68,60.66,28.15z"/>
	</g>
	<g>
		<path class="st9" d="M50.42,33.52c0.07,1.6-0.98,2.93-2.35,2.95c-1.37,0.03-2.54-1.25-2.62-2.86c-0.07-1.6,0.98-2.93,2.35-2.95
			C49.18,30.64,50.35,31.91,50.42,33.52z"/>
		<path class="st0" d="M49.99,33.56c0.06,1.32-0.8,2.41-1.93,2.43c-1.13,0.02-2.09-1.03-2.15-2.35c-0.06-1.32,0.8-2.41,1.93-2.43
			C48.96,31.19,49.92,32.24,49.99,33.56z"/>
		<path class="st10" d="M49.28,33.58c0.04,0.83-0.5,1.51-1.21,1.52c-0.71,0.01-1.31-0.65-1.35-1.47c-0.04-0.83,0.5-1.51,1.21-1.52
			C48.64,32.09,49.24,32.75,49.28,33.58z"/>
		<path class="st7" d="M47.7,32.53c-0.16,0.36-0.55,0.6-0.85,0.55c-0.31-0.06-0.43-0.4-0.26-0.76c0.16-0.36,0.55-0.6,0.85-0.55
			C47.75,31.83,47.87,32.17,47.7,32.53z"/>
		<path class="st7" d="M46.68,33.8c0.01,0.17-0.11,0.31-0.25,0.31c-0.15,0-0.27-0.13-0.27-0.3c-0.01-0.17,0.11-0.31,0.25-0.31
			C46.55,33.5,46.67,33.63,46.68,33.8z"/>
	</g>
	<g>
		<path class="st9" d="M69.08,32.42c0.07,1.6-0.98,2.93-2.35,2.95c-1.37,0.03-2.54-1.25-2.62-2.86c-0.07-1.6,0.98-2.93,2.35-2.95
			C67.83,29.54,69,30.82,69.08,32.42z"/>
		<path class="st0" d="M68.64,32.46c0.06,1.32-0.8,2.41-1.93,2.43c-1.13,0.02-2.09-1.03-2.15-2.35c-0.06-1.32,0.8-2.41,1.93-2.43
			C67.61,30.09,68.58,31.14,68.64,32.46z"/>
		<path class="st10" d="M67.93,32.48c0.04,0.83-0.5,1.51-1.21,1.52c-0.71,0.01-1.31-0.65-1.35-1.47c-0.04-0.83,0.5-1.51,1.21-1.52
			C67.29,30.99,67.89,31.65,67.93,32.48z"/>
		<path class="st7" d="M66.36,31.44c-0.16,0.36-0.54,0.6-0.85,0.55c-0.31-0.06-0.42-0.4-0.26-0.76c0.16-0.36,0.55-0.6,0.85-0.55
			C66.4,30.74,66.52,31.08,66.36,31.44z"/>
		<path class="st7" d="M65.33,32.71c0.01,0.17-0.11,0.31-0.25,0.31c-0.14,0-0.27-0.13-0.27-0.3c0-0.17,0.11-0.31,0.25-0.31
			C65.21,32.4,65.33,32.54,65.33,32.71z"/>
	</g>
	<g>
		<path class="st3" d="M75.17,21.84c-3.17,1.87-6.81,4.31-10.44,5.17c-1.75,0.42-4.18,1.47-5.5-0.17c-0.94-1.18-0.75-3.65-0.73-5.03
			c0-0.12-0.19,0.06-0.19,0.13c-0.29,3.18-0.4,7.22,3.81,6.61c6.22-0.9,9.03-2.79,13.03-6.11C75.33,22.28,75.55,21.61,75.17,21.84z"
			/>
		<path class="st3" d="M54.18,25.33c-0.07-0.3-0.17,0.13-0.17,0.29c-0.24,6.93-12.83,0.02-15.4-2.03c-0.04-0.03-0.13,0.09-0.1,0.13
			c2.46,3.06,6.44,4.52,10.18,5.49C51.39,29.91,54.94,28.76,54.18,25.33z"/>
		<path class="st3" d="M55.08,24.13c-0.03-0.09-0.21,0.1-0.19,0.17c0.26,1.14,0.27,2.71-0.09,3.84c-0.11,0.36,0.3,0.1,0.36-0.09
			C55.59,26.89,55.44,25.28,55.08,24.13z"/>
		<path class="st3" d="M57.02,25.02c-0.04-0.17-0.27,0.09-0.25,0.2c0.05,0.3,0.13,0.6,0.15,0.9c0.03,0.41-0.05,0.83-0.02,1.24
			c0.01,0.24,0.37-0.11,0.38-0.25C57.31,26.38,57.21,25.72,57.02,25.02z"/>
	</g>
	<g>
		<path class="st6" d="M68,24.8c-2.03,0.63-4.55,1.87-6.73,1.83c-2.48-0.04-2.13-3.03-2.25-4.69c-0.01-0.16-0.24,0.09-0.24,0.19
			c-0.02,1.91-0.62,4.28,1.52,5.26c1.97,0.91,5.29-0.81,6.94-1.8C67.37,25.51,68.38,24.68,68,24.8z"/>
		<path class="st6" d="M53.79,24.31c-0.05-0.18-0.29,0.1-0.27,0.22c0.16,1.02,0.04,2.13-0.79,2.86c-0.76,0.67-3.08,0.74-4.01,0.72
			c-0.24-0.01,0.44,0.3,0.76,0.37c1.36,0.31,2.54,0.23,3.56-0.79C53.92,26.81,54.09,25.47,53.79,24.31z"/>
	</g>
	<g>
		<path class="st6" d="M105.32,67.24c-0.22-2.46-0.63-4.92-1.2-7.32c-1.25-5.3-2.51-10.59-4.35-15.73c-0.9-2.51-1.93-4.99-3.11-7.38
			c-0.54-1.09-1.26-1.97-2.04-2.82c0.81,0.3,1.59,0.77,2.3,1.17c0.29,0.16,0.6-0.43,0.53-0.66c-0.61-2.01-1.76-4.23-3.07-5.86
			c-0.45-0.56-0.98-0.99-1.54-1.37c0.5,0.2,0.97,0.43,1.47,0.63c0.21,0.08,0.54-0.33,0.42-0.52c-0.12-0.18-0.28-0.33-0.46-0.45
			c-0.5-0.99-1.51-1.93-2.27-2.71c-0.58-0.59-1.17-1.05-1.79-1.46c0.87-0.35,1.58-0.93,1.73-1.88c0.11-0.72-1.47-0.71-1.81-0.72
			c-1.91-0.04-3.36-1.38-4.66-2.63c-2.67-2.55-4.8-5.29-7.95-7.34c-1.69-1.1-3.18-2.02-5.03-2.85c-0.71-0.32-3.17-1.15-3.88-1.44
			c0.68,0.09,3.48,0.02,3.8-0.63c0.42-0.87-0.82-1.26-1.42-1.43c-1.01-0.28-2.08-0.32-3.13-0.23c-1.18,0.1-2.46,0.43-3.48,1.1
			c0.25-1.06,0.71-2.12,0.72-3.21c0-0.17-0.2-0.19-0.31-0.12C63.86,1.93,63,2.8,62.36,3.66c-0.23,0.36-0.52,0.66-0.89,0.89
			c-0.23-0.68-0.41-1.37-0.53-2.08c-0.13-0.78-0.19-1.51-0.17-2.3c0-0.12-0.12-0.19-0.22-0.16c-1.55,0.45-2.36,2.62-2.85,4.31
			C57,3.04,56.15,1.84,55.06,0.88c-0.15-0.13-0.44,0.06-0.52,0.17C54.43,1.21,54.4,1.41,54.4,1.6c-0.01,0.6,0.18,1.22,0.22,1.82
			c-0.01-0.1-1.18-0.32-1.31-0.35c-0.45-0.09-0.92-0.14-1.38-0.15c-0.9-0.01-1.83,0.15-2.65,0.5c-0.49,0.21-0.94,0.51-1.38,0.8
			c-0.16,0.11-1.2,0.53-1.09,0.78c0.06,0.15,0.45,0.07,0.58,0.07c0.39,0.03,0.77,0.07,1.16,0.13c0.48,0.08,0.9,0.27,1.33,0.46
			c-1.33,0.5-2.64,1.19-3.83,1.82c-1.84,0.97-3.78,2.11-5.3,3.53c-1.72,1.6-3.17,3.46-4.79,5.15c-0.47,0.49-1.03,1.02-1.64,1.53
			c0.44-0.21,0.86-0.44,1.25-0.71C43.37,9.57,50.89,7.1,54.64,7.1c-0.75-0.96-5.25-2.66-2.86-2.8c2.59-0.2,5.05,2.73,5.05,2.73
			s-1.3-3.96-1.02-4.09c0.27-0.14,1.09,1.91,2.39,3.21c0.2-2.59,1.84-5.73,1.84-3.68c0,2.05,0.68,4.37,0.68,4.37s1.77-3.14,2.46-3
			c0.68,0.14,0.27,1.09-0.55,2.73c2.25-2.46,7.16-2.66,7.5-1.91c0.34,0.75-3.62,0.68-5.12,1.98c9.14,0.55,18.25,12.32,22.79,14.59
			c-1.07,1.34-4.94-1.74-4.94-1.74c3.07,3.47,7.48,4.94,7.48,6.14c0,1.2-3.74,0.53-3.74,0.53s7.34,4.94,6.54,5.88
			c-0.8,0.93-6.67-1.84-6.67-1.84c11.42,10.41,16.25,35.04,9.65,30.97c8.89,16,4.82,27.17,1.78,18.79
			c0.76,7.11-1.52,13.71-3.05,7.62c-1.27,10.92-7.87,12.95-5.84,4.06c-16.76,26.4-57.44,7.81-60.87,1.33c0.19,2.1,2.48,8,0.57,6.66
			c-4.19-2.67-5.36-10.2-5.36-10.2s0,6.73-1.64,4.27c-1.81-2.63-2.3-11-2.3-11s-0.33,7.22-1.48,5.75
			c-2.45-3.24-3.41-9.42-3.77-14.48c-0.04,1.66-0.04,3.32,0.02,5c0.2,5.55,1.2,11.07,4.15,15.85c0.34,0.54,0.98-0.61,0.98-0.91
			c0-0.1-0.01-0.2-0.01-0.3c0.49,1.9,1.18,3.71,2.78,5.18c0.32,0.3,0.77-0.59,0.76-0.81c-0.04-0.67-0.12-1.33-0.18-2
			c0.78,2.25,2.05,3.84,3.66,5.68c2.11,2.42,5.26,3.32,8.38,3.86c0.08,0.01-2.84-2.29-2.76-2.36c0.14-0.11,1.94,0.92,2.16,1.02
			c0.8,0.38,1.6,0.75,2.4,1.12c2.96,1.38,5.93,2.67,9.13,3.38c6.43,1.43,13.38,1.55,19.95,1.37c1.92-0.05,3.83-0.21,5.73-0.51
			c3.61-0.59,7.29-1.58,10.41-3.48c1.86-1.13,3.62-2.41,5.38-3.69c-0.59,0.43-1.34,1.07-1.64,1.75c-0.53,1.21,1.02,1.24,1.86,1
			c2.03-0.56,3.65-1.58,5.18-3.01c2.03-1.9,3.59-3.37,4.58-5.76c-0.01,0.59-0.03,1.18,0,1.8c0.02,0.39,0.5,0.11,0.62-0.04
			c1.77-2.17,1.94-5.27,2.46-7.79c0,0,0,0.01,0.01,0.01c0.42,0.83,0.59,1.83,0.93,2.7c0.01,0.03,0.01,0.05,0.03,0.06
			c0.46,1.16,0.81-0.19,0.93-0.73c0.88-4.16,2.43-7.63,3.11-11.83C105.85,76.33,105.69,71.48,105.32,67.24z"/>
	</g>
	<path class="st6" d="M76.54,55.17c-2.23-2.51-5.59-3.54-8.75-4.51c-9.09-2.79-23.47-0.33-28.73,8.47c0.62-1.04,2.31-2.43,3.27-3.16
		c1.35-1.02,3.03-1.64,4.55-2.36c3.3-1.57,6.97-2.36,10.6-2.62c3.24-0.23,6.49,0.16,9.6,1.08c1.74,0.51,3.38,1.28,5.05,1.97
		c1.32,0.55,2.45,1.48,3.77,2.05C76.28,56.26,76.82,55.48,76.54,55.17z"/>
	<path class="st6" d="M37.28,74.48c0,0,3.79,9.06,12.63,7c5.71-1.33,13.9-1.33,19.99-0.95c6.09,0.38,10.6-6.04,10.22-9.85
		C79.74,66.87,37.28,74.48,37.28,74.48z"/>
	<g>
		<path class="st11" d="M45.64,67.07c0,0,17.73-2.92,28.67-3.3c5.15-0.13,6.36,2.29,6.29,5.08c-0.06,2.8-3.18,5.98-12.14,5.53
			c-8.96-0.45-14.62,0.13-21.68,1.21c-7.06,1.08-9.92-0.25-10.55-2.92C35.59,70,38.84,68.47,45.64,67.07z"/>
		<path class="st12" d="M39.75,72.57c0,0,1.73,0.35,3.25,0.28c1.38,2.28,2.56,2.01,4.22,1.38c1.66-0.62,1.38-1.31,1.31-2.35
			c-0.07-1.04,6.16-2.01,12.59-2.21c6.43-0.21,6.92-0.21,7.26,0.69c0.35,0.9,1.18,2.21,3.18,1.73c2.01-0.48,2.28-1.11,2.35-2.01
			c0.07-0.9,1.73-0.42,2.35-0.55C76,68.83,76,68.83,76,68.83S56.84,66.48,39.75,72.57z"/>
		<g>
			<path class="st7" d="M68.64,68.56c0,0-0.1,2.89,2.06,2.92c2.16,0.03,2.57-1.11,2.38-2.76C70.73,68.53,68.64,68.56,68.64,68.56z"
				/>
			<path class="st8" d="M70.64,69.55c0.51,0.05,0.98,0.06,1.42,0.33c0.32,0.19,0.48,0.59,0.56,1.02c0.48-0.49,0.56-1.26,0.45-2.18
				c-2.35-0.19-4.44-0.16-4.44-0.16s-0.01,0.32,0.06,0.75C69.34,69.39,69.99,69.49,70.64,69.55z"/>
			<path class="st7" d="M43.44,71.71c0,0,0.51,2.35,1.97,2.28c1.46-0.06,2.79-0.51,2.6-1.65c-0.19-1.14-0.38-1.84-0.38-1.84
				L43.44,71.71z"/>
			<path class="st8" d="M47.33,72.54c0.21,0.17,0.35,0.41,0.45,0.68c0.2-0.23,0.29-0.52,0.23-0.88c-0.19-1.14-0.38-1.84-0.38-1.84
				l-4.19,1.21c0,0,0.08,0.36,0.26,0.8C44.91,72.25,46.38,71.75,47.33,72.54z"/>
		</g>
		<path class="st13" d="M76.71,69.68c-0.22-0.93-0.83-2.13-0.46-3.1c0.11-0.3-0.22-0.2-0.33-0.04c-0.35,0.54-0.43,1.23-0.35,1.91
			c-5.95-0.7-12.04-0.26-18,0.04c-6.03,0.3-12.43,2.01-18.13,3.94c-0.09,0.03-0.26,0.31-0.09,0.29c6.23-0.97,12.16-3.2,18.52-3.5
			c5.92-0.28,11.98-0.68,17.87,0.1c0.1,0.34,0.22,0.66,0.35,0.94C76.24,70.57,76.77,69.9,76.71,69.68z"/>
	</g>
	<path class="st6" d="M71.67,63.12c-5-0.19-11.39,0.01-16.33,0.72c-2.6,0.37-5.23,0.67-7.81,1.18c-1.49,0.3-2.96,0.72-4.41,1.21
		c-1.18,0.4-2.25,1.1-3.46,1.4c-0.08,0.02-0.26,0.31-0.12,0.31c0.76-0.03,1.39-0.26,2.11-0.54c1.28-0.5,2.75-0.7,4.1-0.98
		c2.56-0.53,5.2-0.76,7.8-1.09c5.42-0.7,10.84-1.27,16.29-1.79C70.2,63.49,72.16,63.14,71.67,63.12z"/>
	<path class="st6" d="M30.16,29.48c0,0-15.23,21.83-11.93,50.52C13.15,65.02,16.96,43.95,30.16,29.48z"/>
	<g>
		<path class="st6" d="M55.26,5.54c-0.73-0.7-1.63-0.94-2.61-1.05c-0.1-0.01-0.31,0.27-0.19,0.32c0.85,0.35,1.63,0.84,2.44,1.25
			C55.1,6.15,55.42,5.69,55.26,5.54z"/>
		<path class="st6" d="M55.58,2.7c-0.14-0.05-0.32,0.27-0.23,0.38c0.17,0.19,0.21,0.38,0.39,0.56C56,3.89,56.2,4.21,56.42,4.49
			c0.4,0.5,0.56,1.15,0.97,1.64c0.14,0.17,0.36-0.2,0.35-0.33C57.68,4.55,56.81,3.13,55.58,2.7z"/>
		<path class="st6" d="M59.92,1.73c-0.04-0.21-0.3,0.11-0.31,0.21c-0.05,0.53,0.01,1.01,0.04,1.54c0.03,0.62-0.03,1.26,0.09,1.87
			c0.06,0.31,0.43-0.16,0.45-0.3C60.36,3.91,60.13,2.84,59.92,1.73z"/>
	</g>
	<path class="st6" d="M56.76,48.47c-5.14,0.11-10.82,2.32-14.37,6.1c-0.06,0.07-0.06,0.23,0.06,0.14c4.32-3.25,8.75-4.75,14.04-5.62
		C56.71,49.05,57.13,48.46,56.76,48.47z"/>
	<g>
		<g>
			<path class="st1" d="M60.67,49.58c-1.27-1.17-2.82-2.24-4.61-1.48c-1.66,0.7-3.32,1.76-4.59,3.03c-0.83,0.84-1.64,2.14-1.37,3.37
				c0.36,1.65,2.33,1.68,3.68,1.75c1.11,0.05,2.29-0.18,3.39-0.3c1.03-0.11,2.05-0.08,3.07-0.27c1.29-0.25,3.24-0.45,3.57-1.66
				C64.17,52.68,61.54,50.38,60.67,49.58z"/>
			<path class="st1" d="M60.67,49.58c-0.04-0.03-0.08-0.07-0.12-0.1c0.36,0.48,0.65,0.98,0.84,1.52c0.64,1.8-0.37,3.22-2.1,3.8
				c-2.71,0.91-5.53,1.13-8.3,0.38c-0.24-0.07-0.48-0.12-0.72-0.18c0.62,1.16,2.3,1.2,3.5,1.25c1.11,0.05,2.29-0.18,3.39-0.3
				c1.03-0.11,2.05-0.08,3.07-0.27c1.29-0.25,3.24-0.45,3.57-1.66C64.17,52.68,61.54,50.38,60.67,49.58z"/>
			<path class="st1" d="M56.07,52.58c0,0.69-0.36,1.26-0.81,1.26c-0.44,0-0.81-0.56-0.81-1.26c0-0.69,0.36-1.26,0.81-1.26
				C55.71,51.33,56.07,51.89,56.07,52.58z"/>
			<path class="st1" d="M59.81,52.2c0,0.69-0.36,1.26-0.81,1.26c-0.44,0-0.81-0.56-0.81-1.26c0-0.69,0.36-1.26,0.81-1.26
				C59.45,50.94,59.81,51.5,59.81,52.2z"/>
		</g>
		<path class="st1" d="M57.12,48.75c0.12,0.33-0.42,0.83-1.2,1.12c-0.78,0.29-1.51,0.25-1.64-0.08c-0.12-0.33,0.42-0.83,1.2-1.11
			C56.27,48.38,57,48.42,57.12,48.75z"/>
	</g>
</g>
</svg>
