<?xml version="1.0" encoding="utf-8"?>
<!-- Generator: Adobe Illustrator 24.0.1, SVG Export Plug-In . SVG Version: 6.00 Build 0)  -->
<svg version="1.1" id="Layer_1" xmlns="http://www.w3.org/2000/svg" xmlns:xlink="http://www.w3.org/1999/xlink" x="0px" y="0px"
	 viewBox="0 0 141.62 130.5" style="enable-background:new 0 0 141.62 130.5;" xml:space="preserve">
<style type="text/css">
	.st0{fill:#EA909A;}
	.st1{fill:#FDB845;}
	.st2{fill:#FEE48E;}
	.st3{fill:#F9B9B7;}
	.st4{fill:#A94362;}
	.st5{fill:#FFFFFF;}
	.st6{fill:#D5D7D8;}
	.st7{fill:#F47D3F;}
	.st8{fill:#7A3B12;}
	.st9{fill:#BA4343;}
</style>
<g>
	<g>
		<g>
			<path class="st0" d="M33.45,98.56c0,0,0.1,15.84,3.99,27.17c1.36,3.57,12.17,3.25,17.41,2.52c5.25-0.73,4.2-3.88,4.09-8.5
				c-0.1-4.62,0.32-15.95,0.32-15.95L33.45,98.56z"/>
			<path class="st0" d="M47.69,111.32c-2.27,1.16-4.39,1.76-6.84,0.82c-1.9-0.73-3.16-2.37-4.09-4.1c-0.05-0.1-0.2,0.12-0.18,0.19
				c0.79,2.64,2.18,4.43,4.81,5.44c2.02,0.77,4.67-0.1,6.27-1.36C47.93,112.1,48.38,110.97,47.69,111.32z"/>
			<g>
				<path class="st1" d="M49.57,128.75c0.28-0.33,0.49-0.73,0.6-1.19c0.35-1.47,0.02-3.51-1.5-4.21c-2.71-1.24-4.32,1.39-4.46,3.88
					c-0.09,1.5,0.51,2.71,2.13,2.8C47.53,130.08,48.81,129.65,49.57,128.75z"/>
				<path class="st2" d="M48.33,126.86c0.17-0.2,0.3-0.45,0.37-0.73c0.22-0.9,0.01-2.15-0.92-2.58c-1.66-0.76-2.64,0.85-2.73,2.37
					c-0.05,0.92,0.31,1.66,1.3,1.71C47.08,127.68,47.86,127.41,48.33,126.86z"/>
				<path class="st1" d="M38.2,129.34c0,0,0.07-4.83,1.9-5.64c1.83-0.8,4.68,0.66,4.54,2.56c-0.15,1.9-0.37,3.51-2.93,4.03
					C39.15,130.81,38.27,130.3,38.2,129.34z"/>
				<path class="st2" d="M39.13,127.16c0,0,0.04-2.71,1.07-3.16c1.03-0.45,2.63,0.37,2.55,1.44c-0.08,1.07-0.21,1.97-1.64,2.26
					C39.66,127.99,39.17,127.7,39.13,127.16z"/>
				<path class="st1" d="M33.15,128.69c0,0,0.29-4.68,2.63-4.68c2.34,0,2.78,1.98,2.56,3.81c-0.22,1.83-0.59,2.42-2.64,2.63
					C33.66,130.66,33.15,130.08,33.15,128.69z"/>
				<path class="st2" d="M33.82,127.38c0,0,0.18-2.85,1.6-2.85c1.43,0,1.69,1.2,1.56,2.32c-0.13,1.11-0.36,1.47-1.6,1.61
					C34.14,128.58,33.82,128.22,33.82,127.38z"/>
			</g>
			<g>
				<path class="st0" d="M58.94,119.75c-0.1-4.62,0.32-15.95,0.32-15.95l-25.81-5.24c0,0,0.01,1.35,0.12,3.53
					c2.19,1.25,6.9,3.53,14.57,5.16c9.03,2.29,10.45,7.5,10.4,19.09C59.42,124.84,59.01,122.57,58.94,119.75z"/>
			</g>
		</g>
		<g>
			<path class="st0" d="M108.36,98.56c0,0-0.11,15.84-3.99,27.17c-1.36,3.57-12.17,3.25-17.41,2.52c-5.25-0.73-4.2-3.88-4.09-8.5
				c0.1-4.62-0.31-15.95-0.31-15.95L108.36,98.56z"/>
			<path class="st0" d="M94.12,111.32c2.27,1.16,4.39,1.76,6.84,0.82c1.9-0.73,3.16-2.37,4.09-4.1c0.05-0.1,0.2,0.12,0.18,0.19
				c-0.79,2.64-2.18,4.43-4.81,5.44c-2.02,0.77-4.67-0.1-6.27-1.36C93.88,112.1,93.43,110.97,94.12,111.32z"/>
			<g>
				<path class="st1" d="M92.24,128.75c-0.28-0.33-0.49-0.73-0.6-1.19c-0.35-1.47-0.02-3.51,1.5-4.21c2.71-1.24,4.32,1.39,4.46,3.88
					c0.09,1.5-0.51,2.71-2.13,2.8C94.28,130.08,93,129.65,92.24,128.75z"/>
				<path class="st2" d="M93.48,126.86c-0.17-0.2-0.3-0.45-0.37-0.73c-0.22-0.9-0.01-2.15,0.92-2.58c1.66-0.76,2.64,0.85,2.73,2.37
					c0.05,0.92-0.31,1.66-1.3,1.71C94.73,127.68,93.95,127.41,93.48,126.86z"/>
				<path class="st1" d="M103.61,129.34c0,0-0.07-4.83-1.9-5.64c-1.83-0.8-4.68,0.66-4.54,2.56c0.15,1.9,0.37,3.51,2.93,4.03
					C102.66,130.81,103.54,130.3,103.61,129.34z"/>
				<path class="st2" d="M102.68,127.16c0,0-0.04-2.71-1.07-3.16c-1.03-0.45-2.63,0.37-2.55,1.44c0.08,1.07,0.21,1.97,1.64,2.26
					C102.15,127.99,102.64,127.7,102.68,127.16z"/>
				<path class="st1" d="M108.66,128.69c0,0-0.29-4.68-2.63-4.68c-2.34,0-2.78,1.98-2.56,3.81c0.22,1.83,0.59,2.42,2.64,2.63
					C108.15,130.66,108.66,130.08,108.66,128.69z"/>
				<path class="st2" d="M107.99,127.38c0,0-0.18-2.85-1.61-2.85c-1.43,0-1.69,1.2-1.56,2.32c0.13,1.11,0.36,1.47,1.61,1.61
					C107.68,128.58,107.99,128.22,107.99,127.38z"/>
			</g>
			<g>
				<path class="st0" d="M82.87,119.75c0.1-4.62-0.31-15.95-0.31-15.95l25.81-5.24c0,0-0.01,1.35-0.12,3.53
					c-2.18,1.25-6.9,3.53-14.57,5.16c-9.03,2.29-10.45,7.5-10.4,19.09C82.39,124.84,82.8,122.57,82.87,119.75z"/>
			</g>
		</g>
		<g>
			<path class="st0" d="M27.54,40.3c0,0-6.59-4.19-6.77-13.9c0.18-6.15,3.03-9.45,6.06-9.71c-2.58-0.8-1.96-2.05,2.23-1.87
				c0,0-2.41-0.89-2.41-1.6c0-0.71,14.79-3.56,18,10.61C39.3,26.13,29.05,35.31,27.54,40.3z"/>
			<path class="st0" d="M35.77,13.31c0.94,0.74,1.59,1.74,1.62,3.11c0,0.06-0.12,0.34-0.22,0.27c-1.58-1.21-3.72-0.54-5.32,0.3
				c-1.8,0.95-3.45,2.22-4.67,3.87c-0.88,1.19-1.62,2.52-1.91,3.99c-0.3,1.56-0.1,2.92,0.4,4.42c0.44,1.33,1.02,2.79,0.42,4.16
				c-0.5,1.16-1.65,1.73-2.91,2.02c1.94,3.34,4.34,4.86,4.34,4.86c1.51-4.99,11.76-14.17,17.11-16.49
				C43.22,17.49,39.48,14.56,35.77,13.31z"/>
			<path class="st1" d="M30.75,37.1c-0.11,0.12-2.12-3.41-2.2-3.58c-0.96-1.99-1.72-4.06-1.63-6.3c0.17-4.1,2.05-8.93,6.75-9.33
				c4.56-0.4,7.39,5.23,8.05,9.06C34.94,32.64,30.75,37.09,30.75,37.1z"/>
			<path class="st1" d="M37.66,19.23c-1.72,0.84-3.21,2.11-3.88,3.98c-0.78,2.17-0.5,4.59,0.26,6.73c0.33,0.93,0.74,1.85,1.21,2.73
				c1.73-1.62,3.91-3.59,6.46-5.73C41.27,24.39,39.88,21.06,37.66,19.23z"/>
		</g>
		<g>
			<path class="st1" d="M46.88,23.39c0,0-4.81-22.19-21.11-20.85c-10.87,2.28-10.57,8.9-8.16,9.57c2.28,0.4,1.48,4.83-2.42,2.42
				c-3.89-2.42-2.28-13.69,11.28-14.5c13.56-0.81,22.15,13.56,22.69,22.02L46.88,23.39z"/>
			<path class="st1" d="M18.78,2.75C16.54,4.19,14.73,6.53,14,9.11c-0.56,1.98-0.27,4.81,2.08,5.37c0.45,0.11,1.27-1.06,0.81-1.34
				c-4.1-2.47-0.82-7.78,1.88-10.08C18.85,3,18.98,2.61,18.78,2.75z"/>
		</g>
		<g>
			<path class="st0" d="M114.27,40.49c0,0,6.59-4.19,6.77-13.9c-0.18-6.15-3.03-9.45-6.06-9.71c2.58-0.8,1.96-2.05-2.23-1.87
				c0,0,2.41-0.89,2.41-1.6s-14.79-3.56-18,10.61C102.51,26.32,112.76,35.5,114.27,40.49z"/>
			<path class="st0" d="M106.04,13.5c-0.94,0.74-1.59,1.74-1.62,3.11c0,0.06,0.12,0.34,0.22,0.27c1.58-1.21,3.72-0.54,5.32,0.3
				c1.8,0.95,3.45,2.22,4.67,3.87c0.88,1.19,1.62,2.52,1.91,3.99c0.3,1.56,0.1,2.92-0.4,4.42c-0.44,1.33-1.02,2.79-0.42,4.16
				c0.51,1.16,1.65,1.73,2.91,2.02c-1.94,3.34-4.34,4.86-4.34,4.86C112.76,35.5,102.51,26.32,97.16,24
				C98.59,17.67,102.34,14.74,106.04,13.5z"/>
			<path class="st1" d="M111.06,37.28c0.11,0.12,2.12-3.41,2.2-3.58c0.96-1.99,1.72-4.06,1.63-6.3c-0.17-4.1-2.05-8.93-6.75-9.33
				c-4.56-0.4-7.39,5.22-8.05,9.05C106.87,32.82,111.06,37.27,111.06,37.28z"/>
			<path class="st1" d="M104.16,19.41c1.72,0.84,3.21,2.11,3.88,3.98c0.78,2.17,0.5,4.59-0.26,6.73c-0.33,0.93-0.74,1.85-1.21,2.73
				c-1.73-1.62-3.91-3.59-6.46-5.74C100.54,24.58,101.93,21.24,104.16,19.41z"/>
		</g>
		<g>
			<path class="st1" d="M94.94,23.57c0,0,4.81-22.19,21.11-20.85c10.87,2.28,10.57,8.9,8.16,9.57c-2.28,0.4-1.48,4.83,2.42,2.42
				c3.89-2.42,2.28-13.69-11.28-14.5c-13.56-0.8-22.15,13.56-22.69,22.02L94.94,23.57z"/>
			<path class="st1" d="M123.04,2.93c2.24,1.45,4.04,3.79,4.77,6.37c0.56,1.98,0.27,4.81-2.08,5.37c-0.45,0.11-1.27-1.06-0.81-1.34
				c4.1-2.47,0.82-7.78-1.88-10.08C122.96,3.18,122.83,2.79,123.04,2.93z"/>
		</g>
		<g>
			<g>
				<path class="st1" d="M3.14,86.82c0,0-2.63,0.37-3.07,3.66c-0.44,3.29,1.39,6.73,2.34,3.66C3.36,91.06,4.6,86.82,3.14,86.82z"/>
				<path class="st2" d="M2.09,88.17c0,0-1.6,0.22-1.87,2.22c-0.27,2,0.85,4.09,1.42,2.22C2.22,90.75,2.98,88.17,2.09,88.17z"/>
				<path class="st1" d="M4.6,88.06c0,0-1.76,3.07-1.17,7.17c0.59,4.1,2.42,0.66,3-1.46C7.02,91.65,7.09,85.43,4.6,88.06z"/>
				<path class="st2" d="M4.14,90.86c-0.2,0.32-0.35,0.73-0.4,0.97c-0.19,0.87-0.55,3.39,0.38,4c0.76,0.5,1.16-1.42,1.25-1.88
					c0.16-0.87,0.21-2.31-0.2-3.11C4.81,90.15,4.43,90.41,4.14,90.86z"/>
				<path class="st1" d="M7.31,89.82c0,0-0.59,5.05,0.66,7.39c1.24,2.34,2.42,0.22,2.93-2.85C11.41,91.28,8.7,86.67,7.31,89.82z"/>
				<path class="st2" d="M7.6,92.08c0,0-0.35,2.99,0.39,4.38c0.74,1.39,1.43,0.13,1.73-1.69C10.02,92.95,8.42,90.22,7.6,92.08z"/>
				<path class="st1" d="M11.12,90.26c0,0-0.37,3.66,0.88,6.44c1.24,2.78,2.93,2.63,2.93-0.81C14.93,90.11,11.85,87.4,11.12,90.26z"
					/>
				<path class="st2" d="M11.61,92.79c0,0-0.13,2.06,0.63,3.59c0.75,1.53,1.69,1.42,1.62-0.51C13.73,92.62,11.96,91.17,11.61,92.79z
					"/>
				<path class="st1" d="M14.34,90.4c0,0,3,4.98,4.39,4.98c1.39,0-0.37-4.68-2.56-6.81C15.29,87.77,13.39,88.5,14.34,90.4z"/>
				<path class="st2" d="M16.3,91.41c0,0,1.36,2.63,2.06,2.68c0.71,0.05-0.03-2.39-1.07-3.55C16.87,90.11,15.88,90.41,16.3,91.41z"
					/>
			</g>
			<path class="st0" d="M30.63,38.7c0,0-12.72,3.15-22.18,20.07C-1,75.69-1.4,89.28,7.66,90.88c6.87,1,8.06,0.89,9.25-3.1
				c1.19-3.99,7.65-15.89,12.5-21.1C42.91,52.17,49.38,33.75,30.63,38.7z"/>
			<g>
				<path class="st0" d="M30.63,38.7c0,0-3.63,0.9-8.46,4.32c-2.24,4.23-5.43,12.33-4.67,23.38C18.85,78.3,15.4,90.4,9.44,89.64
					c-2.9-0.38-5.49-1.8-7.37-3.16c1.03,2.38,2.88,3.93,5.59,4.41c6.87,1,8.06,0.89,9.25-3.1c1.19-3.99,7.65-15.89,12.5-21.1
					C42.91,52.17,49.38,33.75,30.63,38.7z"/>
			</g>
			<path class="st0" d="M17.48,49.17c0,0-13.33,14.54-13.88,36.49C0.88,78.58,3.69,61.69,17.48,49.17z"/>
		</g>
		<g>
			<g>
				<path class="st1" d="M138.48,86.82c0,0,2.64,0.37,3.07,3.66c0.44,3.29-1.39,6.73-2.34,3.66
					C138.26,91.06,137.02,86.82,138.48,86.82z"/>
				<path class="st2" d="M139.53,88.17c0,0,1.6,0.22,1.87,2.22c0.27,2-0.85,4.09-1.42,2.22C139.4,90.75,138.65,88.17,139.53,88.17z"
					/>
				<path class="st1" d="M137.02,88.06c0,0,1.76,3.07,1.17,7.17c-0.58,4.1-2.42,0.66-3-1.46C134.6,91.65,134.53,85.43,137.02,88.06z
					"/>
				<path class="st2" d="M137.48,90.86c0.2,0.32,0.35,0.73,0.4,0.97c0.19,0.87,0.55,3.39-0.38,4c-0.76,0.5-1.16-1.42-1.25-1.88
					c-0.16-0.87-0.21-2.31,0.2-3.11C136.81,90.15,137.2,90.41,137.48,90.86z"/>
				<path class="st1" d="M134.31,89.82c0,0,0.59,5.05-0.66,7.39c-1.24,2.34-2.42,0.22-2.93-2.85
					C130.21,91.28,132.92,86.67,134.31,89.82z"/>
				<path class="st2" d="M134.03,92.08c0,0,0.35,2.99-0.39,4.38c-0.74,1.39-1.43,0.13-1.73-1.69
					C131.6,92.95,133.2,90.22,134.03,92.08z"/>
				<path class="st1" d="M130.5,90.26c0,0,0.37,3.66-0.88,6.44c-1.24,2.78-2.93,2.63-2.93-0.81C126.7,90.11,129.77,87.4,130.5,90.26
					z"/>
				<path class="st2" d="M130.02,92.79c0,0,0.13,2.06-0.63,3.59c-0.75,1.53-1.69,1.42-1.62-0.51
					C127.89,92.62,129.67,91.17,130.02,92.79z"/>
				<path class="st1" d="M127.28,90.4c0,0-3,4.98-4.39,4.98c-1.39,0,0.37-4.68,2.56-6.81C126.33,87.77,128.24,88.5,127.28,90.4z"/>
				<path class="st2" d="M125.32,91.41c0,0-1.36,2.63-2.06,2.68c-0.71,0.05,0.03-2.39,1.07-3.55
					C124.75,90.11,125.74,90.41,125.32,91.41z"/>
			</g>
			<path class="st0" d="M110.99,38.7c0,0,12.72,3.15,22.18,20.07c9.46,16.92,9.86,30.51,0.8,32.11c-6.87,1-8.06,0.89-9.25-3.1
				c-1.19-3.99-7.65-15.89-12.5-21.1C98.72,52.17,92.24,33.75,110.99,38.7z"/>
			<g>
				<path class="st0" d="M110.99,38.7c0,0,3.63,0.9,8.46,4.32c2.24,4.23,5.43,12.33,4.67,23.38c-1.34,11.91,2.11,24.01,8.07,23.24
					c2.9-0.38,5.49-1.8,7.37-3.16c-1.03,2.38-2.88,3.93-5.58,4.41c-6.87,1-8.06,0.89-9.25-3.1c-1.19-3.99-7.65-15.89-12.5-21.1
					C98.72,52.17,92.24,33.75,110.99,38.7z"/>
			</g>
			<path class="st0" d="M124.08,49.17c0,0,13.33,14.54,13.88,36.49C140.68,78.58,137.87,61.69,124.08,49.17z"/>
		</g>
		<path class="st3" d="M71.03,107.15c4-0.02,8.47-0.05,12.14-1.7c2.61,1.42,6.56,0.54,9.35-0.91c-0.22,0.28-0.33,0.55-0.15,0.77
			c1.18,1.4,4.38,0.18,5.76-0.18c4.48-1.18,9.37-3.01,12.6-6.52c-0.3,1.8-0.19,3.62,1.61,2.71c1.17-0.59,2.04-2.31,2.59-3.42
			c0.35-0.69,0.61-1.53,0.76-2.37c0.31,0.85,0.79,1.63,1.38,2.44c0.34,0.47,1.43,1.77,2.12,1.18c0.53-0.45,0.57-1.16,0.4-1.95
			c0.6,0.73,1.26,1.15,1.85,0.68c0.43-0.34,0.53-0.99,0.38-1.49c-0.47-1.57-0.73-3.17-1.15-4.73c0.22-0.84,0.13-1.71,0.15-2.61
			c0.05-1.77,0.09-3.53,0.26-5.3c0.31-3.23,1.16-6.41,1.74-9.6c0.52-2.9,0.18-5.7,0-8.62c-0.17-2.86-0.44-6-1.21-8.81
			c-0.05-1.19-0.21-2.37-0.58-3.48c-0.94-2.82-1.42-5.69-2.58-8.44c-2.21-5.26-5.29-8.91-9.17-13.08
			c-4.48-4.81-10.06-7.64-13.52-9.46c-3.69-1.94-7.82-4.03-12.04-4.43c1.36-1.02,3.91-2.92,1.7-4c-1.22-0.6-3.1,0-4.29,0.31
			c-1.26,0.33-2.39,0.85-3.38,1.64c0.42-1.32,1.01-3.74-0.07-3.87c-1.28-0.15-2.42,1.76-3.12,3.15c-0.1-1.29-0.37-3.55-1.28-2.76
			c-0.51,0.44-0.84,1.06-1.08,1.73c-0.03-0.77-0.06-1.55-0.11-2.32c-0.07-1-1.55-0.44-1.99-0.26c-1.65,0.64-2.69,2.26-3.32,3.87
			c-0.83-1.27-2.06-3.74-2.83-3.19c-0.71,0.51-0.08,2.58,0.29,3.61c-0.67-0.42-2.7-1.39-3.52-1.61c-1.11-0.3-2.64-0.57-3.72-0.02
			c-1.65,0.83-0.1,2.06,1.09,3.03c-2.88,1.16-6.11,2.05-8.92,3.39c-3.96,1.89-7.93,3.69-11.46,6.33
			c-6.34,4.74-10.66,11.48-14.3,18.53c-6.41,12.41-3.61,26.94-2.52,40.21c0.33,3.99,0.42,8.04-0.34,12
			c-0.03,0.16,0.06,0.32,0.24,0.28c0.78-0.17,1.1-0.72,1.34-1.34c-0.08,1.39-0.14,3.09,1.11,3.22c0.86,0.09,1.38-0.72,1.7-1.37
			c0.49-0.99,0.9-1.77,1.24-2.62c0.37,2.25,1.36,5.42,3.24,5.85c1.62,0.37,1.64-1.77,1.6-3.14c0.99,1.25,2.44,2.2,3.8,2.91
			c2.94,1.53,5.91,2.66,9.07,3.65c4.51,1.41,7.48,1.66,3.9-1.51c4.93,2.82,12.28,3.88,7.95,1.16
			C63.05,106.98,71.03,107.15,71.03,107.15z"/>
		<g>
			<path class="st3" d="M121.09,83.74c0.31-3.23,1.16-6.41,1.74-9.6c0.52-2.9,0.18-5.7,0-8.62c-0.17-2.86-0.44-6-1.21-8.81
				c-0.05-1.19-0.21-2.37-0.58-3.48c-0.94-2.82-1.42-5.69-2.58-8.44c-2.21-5.26-5.29-8.91-9.17-13.08
				c-4.48-4.81-10.06-7.64-13.52-9.46c-3.69-1.94-7.82-4.03-12.04-4.43c1.36-1.02,3.91-2.92,1.7-4c-1.22-0.6-3.1,0-4.29,0.31
				c-1.26,0.33-2.39,0.85-3.38,1.64c0.42-1.32,1.01-3.74-0.07-3.87c-1.28-0.15-2.42,1.76-3.12,3.15c-0.1-1.29-0.37-3.55-1.28-2.76
				c-0.51,0.44-0.84,1.06-1.08,1.73c-0.03-0.77-0.06-1.55-0.11-2.32c-0.07-1-1.55-0.44-1.99-0.26c-1.65,0.64-2.69,2.26-3.32,3.87
				c-0.83-1.27-2.06-3.74-2.83-3.19c-0.71,0.51-0.08,2.58,0.29,3.61c-0.67-0.42-2.7-1.39-3.52-1.61c-1.11-0.3-2.64-0.57-3.72-0.02
				c-1.65,0.83-0.1,2.06,1.09,3.03c-2.88,1.16-6.11,2.05-8.92,3.39c-3.96,1.89-7.93,3.69-11.46,6.33c-0.94,0.7-1.83,1.45-2.68,2.23
				c0.27-0.18,0.55-0.38,0.83-0.58c15.3-11.08,30.61-9.06,30.61-9.06s-1.61-2.82-0.81-3.83c0.81-1.01,4.08,4.82,4.08,4.82
				s-0.99-5.71,0.25-6.21c1.24-0.5,2.23,5.34,2.23,5.34s-0.5-3.72,0.12-4.22c0.62-0.5,1.99,3.85,1.99,3.85s0.99-5.09,2.11-4.59
				c1.12,0.5-0.87,4.72-0.87,4.72s6.21-4.47,6.95-2.73c0.75,1.74-5.73,6.14-5.73,6.14c46.45,1.07,47.05,63.85,30.52,44.17
				c11.02,22.31,5.19,29.13,4.12,29.4c-1.07,0.27-1.34-5.64-1.34-5.64c-2.95,8.32-11.54,11.01-13.42,11.01
				c-1.88,0-0.54-4.03-0.54-4.03c-2.68,4.3-8.05,7.25-10.2,6.18c-2.15-1.07,1.56-4.07,1.56-4.07c-14.36,9.73-37.22-1.24-37.22-1.24
				s5.71,4.17,2.47,4.17c-3.24,0-9.69-5.1-9.69-5.1s4.74,6,0,4.1c-6.63-3.16-11.05-14.21-11.05-14.21
				c-1.58,5.05-3.47,5.05-4.74-4.42c-0.32,6-3.16,9.79-3.16,5.68c0-4.1-0.95-13.26-0.95-13.26c-1.59,1.91-2.68,0.54-3.43-2.11
				c0.34,4.12,0.82,8.22,1.15,12.21c0.33,3.99,0.42,8.04-0.34,12c-0.03,0.16,0.06,0.32,0.24,0.28c0.78-0.17,1.1-0.72,1.34-1.34
				c-0.08,1.39-0.14,3.09,1.11,3.22c0.86,0.09,1.38-0.72,1.7-1.37c0.49-0.99,0.9-1.77,1.24-2.62c0.37,2.25,1.36,5.42,3.24,5.85
				c1.62,0.37,1.64-1.77,1.6-3.14c0.99,1.25,2.44,2.2,3.8,2.91c2.94,1.53,5.91,2.66,9.07,3.65c4.51,1.41,7.48,1.66,3.9-1.51
				c4.93,2.82,12.28,3.88,7.95,1.16c7.3,2.32,15.28,2.49,15.28,2.49c4-0.02,8.47-0.05,12.14-1.7c2.61,1.42,6.56,0.54,9.35-0.91
				c-0.22,0.28-0.33,0.55-0.15,0.77c1.18,1.4,4.38,0.18,5.76-0.18c4.48-1.18,9.37-3.01,12.6-6.52c-0.3,1.8-0.19,3.62,1.61,2.71
				c1.17-0.59,2.04-2.31,2.59-3.42c0.35-0.69,0.61-1.53,0.76-2.37c0.31,0.85,0.79,1.63,1.38,2.44c0.34,0.47,1.43,1.77,2.12,1.18
				c0.53-0.45,0.57-1.16,0.4-1.95c0.6,0.73,1.26,1.15,1.85,0.68c0.43-0.34,0.53-0.99,0.38-1.49c-0.47-1.57-0.73-3.17-1.15-4.73
				c0.22-0.84,0.13-1.71,0.15-2.61C120.87,87.27,120.92,85.51,121.09,83.74z"/>
		</g>
		<path class="st3" d="M55.6,63.13c0,0-7.65,2.69-10.61-3.49c3.36,3.09,13.16,5.64,16.11-4.3c2.95-9.93,1.55-17.84-5.3-19.31
			c-7.03-1.52-14.3,8.71-14.44,18.51C41.24,64.34,48.89,69.44,55.6,63.13z"/>
		<path class="st3" d="M81.65,62.32c0,0,4.7,4.03,9.13,0.94c4.43-3.09,3.49-7.38,3.49-7.38s-1.21,11.41-14.63,5.1
			c-8.32-4.56-8.73-20.94-2.15-25.24c6.58-4.3,15.38,3.3,18.12,13.42C99.1,62.05,91.72,71.59,81.65,62.32z"/>
		<g>
			<path class="st4" d="M65.62,65.43c0,0.48-0.23,0.87-0.51,0.87c-0.28,0-0.51-0.39-0.51-0.87s0.23-0.87,0.51-0.87
				C65.39,64.55,65.62,64.95,65.62,65.43z"/>
			<path class="st4" d="M68.99,65.23c0,0.48-0.23,0.87-0.51,0.87c-0.28,0-0.51-0.39-0.51-0.87c0-0.48,0.23-0.87,0.51-0.87
				C68.76,64.36,68.99,64.75,68.99,65.23z"/>
			<path class="st4" d="M72.09,63.82c-0.92-2.15-3.88-2.73-5.92-2.55c-1.87,0.16-4.27,1.15-4.92,3.11
				c-0.83,2.51,2.32,3.71,4.25,3.73c0.17,0,0.41-0.42,0.22-0.44c-1.27-0.1-2.24-0.55-3.2-1.32c-2.91-2.34,2.07-4.11,3.8-4.14
				c1.27-0.02,2.49,0.3,3.57,0.95c0.6,0.36,1.01,0.96,1.39,1.54c0.67,1.02-0.94,1.63-1.51,1.99c-0.27,0.18-0.78,1.22-0.13,0.93
				C71.21,66.92,72.88,65.67,72.09,63.82z"/>
		</g>
		<g>
			<path class="st5" d="M61.25,50.64c0,0,1.77-12.07-6.07-13.55c-7.84-1.49-15.63,16.69-10.61,21.22
				C49.59,62.84,59.41,63.9,61.25,50.64z"/>
			<g>
				<path class="st6" d="M55.18,37.09c-2.95-0.56-5.9,1.67-8.16,4.91c1.41-0.86,3.6-1.08,6.25,0.48c4.57,2.68,8.4,6.05,6.68,13.15
					c0.58-1.37,1.04-3.02,1.31-4.99C61.25,50.64,63.02,38.58,55.18,37.09z"/>
			</g>
			<g>
				<path class="st7" d="M55.9,50.05c-0.5,2.05-1.99,3.4-3.35,3c-1.35-0.4-2.05-2.39-1.55-4.45c0.5-2.05,1.99-3.4,3.35-3
					C55.7,46,56.39,47.99,55.9,50.05z"/>
				<path class="st1" d="M55.45,49.96c-0.41,1.69-1.64,2.79-2.75,2.47c-1.11-0.33-1.68-1.97-1.28-3.66
					c0.41-1.69,1.64-2.79,2.75-2.47C55.29,46.63,55.86,48.27,55.45,49.96z"/>
				<path class="st8" d="M54.76,49.76c-0.25,1.06-1.03,1.75-1.72,1.55c-0.7-0.21-1.06-1.23-0.8-2.29c0.25-1.06,1.03-1.75,1.72-1.54
					C54.66,47.67,55.01,48.7,54.76,49.76z"/>
				<path class="st5" d="M53.58,47.94c-0.29,0.4-0.75,0.59-1.03,0.42c-0.28-0.17-0.27-0.64,0.01-1.04c0.29-0.4,0.75-0.59,1.03-0.42
					C53.88,47.07,53.87,47.53,53.58,47.94z"/>
				<path class="st5" d="M52.13,49.22c-0.05,0.22-0.21,0.36-0.36,0.31c-0.14-0.04-0.21-0.25-0.16-0.47
					c0.05-0.22,0.22-0.36,0.36-0.31C52.11,48.8,52.18,49.01,52.13,49.22z"/>
			</g>
			<path class="st4" d="M61.42,48.08c0.04-3.63-0.71-9.94-6.24-10.99c-2.18-0.41-4.35,0.69-6.25,2.6
				C53.83,41.17,57.99,44.3,61.42,48.08z"/>
		</g>
		<g>
			<path class="st3" d="M51.4,32.78l-1.91,1.91c0,0,7.45-1.01,11.88,3.32C60.16,34.79,54.52,32.38,51.4,32.78z"/>
			<path class="st3" d="M70.02,33.49c0,0,0.97,3.87,2.36,3.63c1.39-0.24,3.27-2.66,6.12-4.24c2.84-1.57,5.39-2.12,7.57,0.36
				c-0.97-3.15-1.63-4-4.84-4.42c-3.21-0.42-7.57,4.84-7.57,4.84S71.42,35,70.02,33.49z"/>
			<path class="st4" d="M49.97,33.9c0,0,7.53-0.38,11.09,3.35c-2.2-5.42-6.38-8.93-7.91-7.51C51.63,31.14,49.97,33.9,49.97,33.9z"/>
			<path class="st3" d="M61.12,33.74c-0.04-0.05-0.14,0.07-0.11,0.12c0.85,1.36,1.22,2.77,1.5,4.34c0.03,0.19,0.27-0.11,0.27-0.22
				C62.78,36.46,62.07,34.89,61.12,33.74z"/>
			<path class="st3" d="M67.36,33.12c-0.06-0.07-0.22,0.15-0.18,0.22c0.39,0.59,0.59,1.23,0.7,1.92c0.05,0.35,0.07,0.7,0.1,1.05
				c0.03,0.41-0.09,0.47,0.1,0.77c0.13,0.21,0.39-0.19,0.43-0.28C68.97,35.64,68.18,33.96,67.36,33.12z"/>
			<path class="st4" d="M60.89,33.12c-0.04-0.05-0.14,0.07-0.11,0.12c0.85,1.36,1.23,2.77,1.5,4.34c0.03,0.19,0.27-0.11,0.27-0.22
				C62.56,35.84,61.84,34.27,60.89,33.12z"/>
			<path class="st4" d="M67.13,32.5c-0.06-0.07-0.22,0.15-0.18,0.22c0.39,0.59,0.59,1.23,0.7,1.92c0.05,0.35,0.07,0.7,0.1,1.05
				c0.03,0.41-0.09,0.47,0.1,0.77c0.13,0.21,0.39-0.19,0.43-0.28C68.74,35.02,67.95,33.34,67.13,32.5z"/>
			<path class="st4" d="M68.86,31.2c0,0,2.32,3.05,3.39,1.81c1.07-1.24,6.55-7.4,8.36-7.23c1.81,0.17,4.41,3.11,5.25,6.67
				c-1.81-1.98-4.63-2.43-8.87,0.45c-4.24,2.88-5.2,4.75-6.55,1.81C69.48,32.61,68.86,31.2,68.86,31.2z"/>
		</g>
		<path class="st0" d="M45.92,75.41c0,0,8.43,8.19,22.68,7.6c14.25-0.59,18.88-6.65,21.61-10.57c1.31-1.9,9.38,3.68,9.74,11.16
			c0.24,4.75-1.1,8.16-7.01,6.29c-6.77-2.14-14.84-1.31-24.1-1.07c-9.26,0.24-17.1,0.95-20.78,3.21c-3.68,2.26-4.51,5.34-7.24-1.19
			C38.08,84.31,41.4,71.37,45.92,75.41z"/>
		<g>
			<path class="st5" d="M92.35,45.45c2.73,6.75,1.25,13.72-3.32,15.57c-4.57,1.85-10.68-0.68-13.42-7.42
				c-2.74-6.75-1.06-15.17,3.51-17.02C83.69,34.73,89.61,38.7,92.35,45.45z"/>
			<path class="st6" d="M77.3,48.37c1.18-2.36,3.3-4.43,5.55-5.79c1.86-1.12,3.24-1.62,6.05-2.65c-2.93-3.18-6.67-4.62-9.78-3.36
				c-4.57,1.85-6.25,10.27-3.51,17.02c0.24,0.6,0.51,1.17,0.81,1.7C76.08,52.91,76.23,50.52,77.3,48.37z"/>
			<g>
				<path class="st7" d="M85.65,49.2c0.54,2.04-0.14,3.94-1.52,4.23c-1.38,0.29-2.94-1.13-3.48-3.18c-0.54-2.04,0.14-3.94,1.52-4.23
					C83.56,45.73,85.11,47.15,85.65,49.2z"/>
				<path class="st1" d="M85.22,49.34c0.44,1.68-0.12,3.24-1.25,3.48c-1.13,0.24-2.42-0.93-2.86-2.61
					c-0.44-1.68,0.12-3.24,1.25-3.48C83.49,46.48,84.78,47.65,85.22,49.34z"/>
				<path class="st8" d="M84.51,49.49c0.28,1.05-0.07,2.03-0.79,2.18c-0.71,0.15-1.51-0.58-1.79-1.64
					c-0.28-1.05,0.07-2.03,0.78-2.18C83.43,47.7,84.23,48.43,84.51,49.49z"/>
				<path class="st5" d="M82.61,48.44c-0.06,0.49-0.38,0.88-0.71,0.86c-0.33-0.02-0.54-0.43-0.48-0.92
					c0.06-0.49,0.38-0.88,0.71-0.86C82.46,47.54,82.67,47.95,82.61,48.44z"/>
				<path class="st5" d="M81.94,50.26c0.05,0.22-0.02,0.42-0.17,0.44c-0.15,0.03-0.31-0.12-0.36-0.34
					c-0.05-0.22,0.02-0.42,0.17-0.44C81.72,49.9,81.89,50.05,81.94,50.26z"/>
			</g>
			<path class="st4" d="M84.05,40.94c1.39-0.65,2.82-1.17,4.27-1.6c-2.84-2.76-6.29-3.94-9.2-2.76C75.61,38,73.81,43.3,74.4,48.75
				C76.67,45.29,80.45,42.62,84.05,40.94z"/>
		</g>
		<path class="st4" d="M55.28,37.69c-0.06-0.02-0.18,0.16-0.11,0.19c1.37,0.7,2.49,1.59,3.34,2.9c0.94,1.45,1.65,3.64,2.36,5.16
			c0.14,0.31-0.03-0.88-0.04-1.06C60.52,41.53,58.58,38.62,55.28,37.69z"/>
		<path class="st4" d="M80.06,36.82c0.06-0.02,0.19,0.14,0.13,0.18c-1.31,0.81-2.36,1.79-3.1,3.15c-0.83,1.52-1.36,3.76-1.95,5.33
			c-0.12,0.32-0.04-0.88-0.04-1.06C75.14,41.06,76.84,38.01,80.06,36.82z"/>
		<path class="st3" d="M41.91,26.75c0,0-20.14,12.89-18.79,42.96C17.21,54.4,27.14,34,41.91,26.75z"/>
		<g>
			<path class="st3" d="M66.27,15.98c-0.02-0.01-0.05,0.04-0.04,0.05c1.3,1.18,2.24,2.49,2.7,4.2c0.06,0.22,0.35-0.12,0.33-0.26
				C69.01,18.29,67.56,16.92,66.27,15.98z"/>
			<path class="st3" d="M70.73,15.26c-0.01-0.02-0.05,0.03-0.04,0.04c0.51,1.27,0.78,2.61,0.99,3.96c0.02,0.17,0.25-0.1,0.24-0.19
				C71.87,17.67,71.42,16.45,70.73,15.26z"/>
			<path class="st3" d="M72.72,15.9c-0.03-0.05-0.12,0.06-0.09,0.1c0.61,1.13,0.96,2.15,1.04,3.43c0.01,0.2,0.3-0.12,0.3-0.24
				C73.99,17.87,73.48,16.95,72.72,15.9z"/>
		</g>
		<path class="st3" d="M71.37,66.2c-1.76,0.66-2.92,1.73-4.95,1.5c-1.8-0.2-3.36-0.82-4.55-2.19c-0.16-0.18-0.48,0.3-0.51,0.41
			c-0.67,2.61,2.67,3.55,4.65,3.81c2.08,0.28,4.84-1.04,5.64-3C71.72,66.54,71.7,66.08,71.37,66.2z"/>
		<path class="st3" d="M66.65,62.97c0.08,0.36-0.55,0.81-1.42,1c-0.86,0.19-1.62,0.05-1.7-0.32c-0.08-0.36,0.55-0.81,1.41-1
			C65.81,62.47,66.57,62.61,66.65,62.97z"/>
		<path class="st9" d="M45.92,74.16c0,0,8.43,8.19,22.68,7.6c14.25-0.59,18.88-6.65,21.61-10.57c1.31-1.9,9.38,3.68,9.74,11.16
			c0.24,4.75-1.1,8.16-7.01,6.29c-6.77-2.14-14.84-1.31-24.1-1.07c-9.26,0.24-17.1,0.95-20.78,3.21c-3.68,2.26-4.51,5.34-7.24-1.19
			C38.08,83.06,41.4,70.12,45.92,74.16z"/>
		<path class="st9" d="M96.13,87.95c-4.2-3.11-8.94-4.87-14.18-5.05c-3.1-0.11-6.23,0.13-9.32,0.34c-3.13,0.21-6.32,0.48-9.37,1.24
			c-6.71,1.67-14.18,4.25-19.46,9.04c1.09-0.02,2.25-1.5,4.26-2.73c3.68-2.26,11.52-2.97,20.78-3.21c9.26-0.24,17.33-1.07,24.1,1.07
			c1.93,0.61,3.38,0.65,4.44,0.27C96.96,88.59,96.55,88.26,96.13,87.95z"/>
		<g>
			<path class="st5" d="M58.3,80.68c0,0,0.45,6.13,1.89,10.73c1.26,3.79,4.33,3.99,6.13,3.61c1.71-0.36,2.71-0.9,2.62-3.43
				c-0.09-2.53-0.8-9.82-0.8-9.82S64.79,82.13,58.3,80.68z"/>
			<path class="st6" d="M64.42,83.57c1.74,1,2.93,2.58,3.56,4.48c0.52,1.59,0.74,3.22,0.88,4.87c0.07-0.37,0.1-0.8,0.08-1.33
				c-0.09-2.53-0.8-9.82-0.8-9.82s-3.35,0.35-9.84-1.09c0,0,0,0.05,0.01,0.14C60.23,81.98,62.45,82.44,64.42,83.57z"/>
			<path class="st5" d="M68.26,81.78c0,0,0.74,7.91,1.14,10.88c0.4,2.97,5.34,2.52,6.44-0.4s1.31-11.66,1.31-11.66
				S72.67,81.72,68.26,81.78z"/>
			<path class="st6" d="M69.91,87.93c0.07-1.63,0.41-3.51,1.73-4.61c1.48-1.23,3.75-1.1,5.48-1.84c0.02-0.55,0.03-0.88,0.03-0.88
				s-4.48,1.13-8.89,1.19c0,0,0.74,7.91,1.14,10.88c0.11,0.82,0.57,1.38,1.2,1.7C70.21,92.24,69.82,90.08,69.91,87.93z"/>
			<path class="st5" d="M50.74,77.62c0,0-0.3,3.6,0.35,5.02c0.66,1.42,3.85,2.48,4.92,0.91c1.06-1.57,1.67-3.04,1.67-3.04
				S53.68,79.1,50.74,77.62z"/>
			<path class="st6" d="M50.74,77.62c0,0-0.01,0.11-0.02,0.29c1.41,0.99,3.29,1.65,4.04,3.22c0.51,1.08,0.5,2.08,0.28,3.09
				c0.39-0.11,0.74-0.33,0.97-0.67c1.06-1.57,1.67-3.04,1.67-3.04S53.68,79.1,50.74,77.62z"/>
			<path class="st5" d="M50.28,89.69c0,0,0.3-4.51,2.18-4.76c1.88-0.25,3.7,3.55,3.7,3.55S52.11,88.98,50.28,89.69z"/>
			<path class="st6" d="M53.61,85.22c0.2,0.58,0.31,1.18,0.09,1.76c-0.23,0.62-0.64,1.16-1.24,1.46c-0.67,0.34-1.38,0.49-2.11,0.57
				c-0.05,0.4-0.07,0.67-0.07,0.67c1.82-0.71,5.88-1.22,5.88-1.22S55.02,86.09,53.61,85.22z"/>
			<path class="st5" d="M48.46,90.45c0,0-1.88-3.45-3.6-2.74c-1.72,0.71-1.52,5.73-1.52,5.73s0.61,0.41,2.23-0.91
				C47.19,91.21,48.46,90.45,48.46,90.45z"/>
			<path class="st6" d="M45.7,87.66c0.76,1.27,1.11,2.65,0.16,4c-0.59,0.84-1.55,1.34-2.53,1.74c0,0.02,0,0.03,0,0.03
				s0.61,0.41,2.23-0.91c1.62-1.32,2.89-2.08,2.89-2.08S47.14,88.03,45.7,87.66z"/>
			<path class="st5" d="M49.89,77.13c0,0-2.8,3.06-3.53,6.76c-0.65,3.1-2.28,0.05-2.78-2.59c-0.7-3.67,1.26-7.85,1.26-7.85
				S48.7,76.59,49.89,77.13z"/>
			<path class="st6" d="M44.83,73.45c0,0-0.06,0.14-0.16,0.38c1.15,1.27,2.74,2.01,2.33,4.12c-0.47,2.38-1.31,4.7-1.12,7.12
				c0.19-0.18,0.35-0.55,0.48-1.17c0.73-3.7,3.53-6.76,3.53-6.76C48.7,76.59,44.83,73.45,44.83,73.45z"/>
			<path class="st5" d="M87.03,75.23c0,0,2.47,2.52,3.14,5.14c0.67,2.62,1.7,1.65,2.57-1.23c0.87-2.88,0.26-7.72,0.26-7.72
				s-2.24-1.18-2.79-0.23C89.65,72.14,87.64,74.71,87.03,75.23z"/>
			<path class="st6" d="M92.99,71.42c0,0-2.24-1.18-2.79-0.23c-0.55,0.95-2.56,3.52-3.18,4.04c0,0,0.22,0.22,0.54,0.6
				c0.62-0.77,1.09-1.71,1.73-2.44c0.39-0.44,0.93-0.99,1.59-0.77c1.16,0.39,1.01,2.42,0.97,3.36c-0.1,1.98-0.47,3.95-0.94,5.87
				c0.57,0.32,1.23-0.76,1.82-2.7C93.61,76.26,92.99,71.42,92.99,71.42z"/>
			<path class="st5" d="M78.3,80.22c0,0,0.77,4.26,4.52,3.26c3.74-1,4.32-2.9,2.36-6.68C85.17,76.8,83.43,78.44,78.3,80.22z"/>
			<path class="st6" d="M81.67,79.37c0.75-0.26,1.85-0.59,2.58-0.06c0.89,0.65,1.08,1.81,1.21,2.89c1.21-1.14,1.05-2.84-0.29-5.4
				c0,0-1.74,1.65-6.87,3.42c0,0,0.02,0.11,0.07,0.29C79.49,80.2,80.56,79.74,81.67,79.37z"/>
			<path class="st5" d="M80.75,87.15c0,0,0.48-2.33,2.34-2.49c1.86-0.16,3.52,2.77,3.52,2.77L80.75,87.15z"/>
			<path class="st6" d="M84.55,85.11c0.03,0.6-0.09,1.16-0.66,1.41c-0.73,0.31-1.61,0.33-2.39,0.39c-0.23,0.02-0.47,0.03-0.7,0.05
				c-0.03,0.12-0.05,0.19-0.05,0.19l5.86,0.28C86.61,87.43,85.74,85.9,84.55,85.11z"/>
			<path class="st5" d="M90.09,87.94c0,0,0.79-3.28,2.22-3.28c1.42,0,3.17,3.32,3.44,4.47c0,0-1.16-0.01-2.82-0.48
				C91.28,88.18,90.09,87.94,90.09,87.94z"/>
			<path class="st6" d="M93.94,85.76c0.09,0.79-0.14,1.51-1.04,1.84c-0.85,0.32-1.79,0.27-2.73,0.06c-0.05,0.17-0.08,0.28-0.08,0.28
				s1.19,0.24,2.84,0.7c1.66,0.47,2.82,0.48,2.82,0.48C95.58,88.41,94.83,86.83,93.94,85.76z"/>
		</g>
		<path class="st3" d="M45.25,72.43c0,0,17.88,14.55,40.16,2.27C78.59,81.67,58.13,85.62,45.25,72.43z"/>
	</g>
	<path class="st0" d="M44.17,111.11c-1.04-0.43-2.2-0.44-3.21-0.99c-0.95-0.52-1.53-1.31-2.32-2.02c-0.11-0.1-0.31,0.22-0.26,0.32
		c0.25,0.5,0.39,1.04,0.64,1.54c0.23,0.47,0.78,0.92,1.16,1.27c0.8,0.72,3.05,0.5,4.06,0.37C44.48,111.57,44.54,111.26,44.17,111.11
		z"/>
	<path class="st0" d="M97.71,111.11c1.04-0.43,2.2-0.44,3.21-0.99c0.95-0.52,1.53-1.31,2.32-2.02c0.11-0.1,0.31,0.22,0.26,0.32
		c-0.25,0.5-0.39,1.04-0.64,1.54c-0.24,0.47-0.78,0.92-1.16,1.27c-0.8,0.72-3.05,0.5-4.06,0.37
		C97.4,111.57,97.34,111.26,97.71,111.11z"/>
	<path class="st0" d="M36.85,118.01c-0.43-1.86-0.87-3.71-1.35-5.56c-0.04-0.17-0.26,0.09-0.25,0.2c0.52,3.54,0.82,7.49,2.61,10.66
		c0.15,0.26,0.56-0.3,0.52-0.48C38.02,121.18,37.23,119.67,36.85,118.01z"/>
	<path class="st0" d="M104.58,118.01c0.43-1.86,0.87-3.71,1.35-5.56c0.04-0.17,0.26,0.09,0.25,0.2c-0.52,3.54-0.82,7.49-2.61,10.66
		c-0.15,0.26-0.56-0.3-0.52-0.48C103.41,121.18,104.19,119.67,104.58,118.01z"/>
</g>
</svg>
