<?xml version="1.0" encoding="utf-8"?>
<!-- Generator: Adobe Illustrator 24.0.1, SVG Export Plug-In . SVG Version: 6.00 Build 0)  -->
<svg version="1.1" id="Layer_1" xmlns="http://www.w3.org/2000/svg" xmlns:xlink="http://www.w3.org/1999/xlink" x="0px" y="0px"
	 viewBox="0 0 127.16 133.87" style="enable-background:new 0 0 127.16 133.87;" xml:space="preserve">
<style type="text/css">
	.st0{fill:#51B748;}
	.st1{fill:#BCD531;}
	.st2{fill:#FFFFFF;}
	.st3{fill:#D5D7D8;}
	.st4{fill:#703000;}
	.st5{fill:#8D4423;}
	.st6{fill:#380D00;}
	.st7{fill:#EA6E6E;}
	.st8{fill:#2F7F30;}
</style>
<g>
	<g>
		<path class="st0" d="M38.19,100.56c0,0,2.95,4.18,4.52,8.57c1.58,4.39,0.55,5.83-2.06,6.37c-2.6,0.55-8.91,1.64-11.17,1.92
			c-1.92,0.34-2.81-1.03-4.45-0.89c-1.65,0.14-2.6,4.87,0.55,6.78c2.06,0.75,3.5-0.27,3.91-1.99c0.41-1.1,8.09-3.77,8.84-3.01
			c0.75,0.75-4.66,4.73-6.51,6.03c-1.64,1.03-3.84,0.48-3.84,2.95s2.6,3.7,4.39,3.22c1.78-0.48,1.44-1.37,2.26-3.36
			c0.82-1.99,6.78-7.81,8.36-7.74c1.58,0.07-0.34,6.17-1.71,8.5c-1.37,2.33-3.63,2.74-2.81,4.8c0.82,2.06,6.65,1.51,6.3-2.54
			c-0.34-4.04,1.3-9.94,3.77-11.51c2.47-1.58,6.03,1.3,6.44,2.6c0.41,1.3,3.31,1.97,3.84-0.75c0.38-1.95-1.03-2.36-2.38-2.12
			c-1.35,0.23-2.17-1.99-7.51-2.7c-2.29-0.23-2.05-2.64-2-5.75c0.06-3.11,1.35-14.59-4.55-15.64
			C36.47,93.24,36.38,97.98,38.19,100.56z"/>
		<g>
			<path class="st0" d="M56.44,118.38c-1.35,0.23-2.17-1.99-7.51-2.7c-2.29-0.23-2.05-2.64-2-5.75c0.06-3.11,1.35-14.59-4.55-15.64
				c-5.9-1.05-6,3.69-4.19,6.27c0,0,2.89,4.1,4.47,8.43c0.19-0.41,0.59-0.66,1.33-0.56c2.48,0.34,0.68,4.88,2.14,6.68
				c1.45,1.8,4.44,0.58,7.79,2.78c1.64,1.07,1.9,1.26,2.85,1.03c0.75-0.19,1.12,0.19,1.31,0.89c0.19,0.7-1.17,2.81-2.76,0.61
				c-1.59-2.2-4.63-3.27-6.87-3.23c-2.24,0.05-3.93,4.4-4.77,7.86c-0.84,3.46-0.13,8.05-2.95,7.67c-1.73-0.23-1.96-1.68-0.56-2.52
				c1.4-0.84,3.25-5.67,3.82-8.77c0.57-3.09,0.05-4.76-3.05-2.81c-3.09,1.95-8.05,5.9-8.38,7.95c-0.33,2.05-2.52,3.52-3.57,2.29
				c-1.05-1.24-0.86-2.81,1.05-3.19c1.9-0.38,6.47-4.43,8.09-6.14c1.62-1.71,1.48-2.95-3.19-1.86c-4.67,1.1-6,1.29-6.38,2.57
				c-0.38,1.29-3.81,2.43-4.38,0.33c-0.57-2.09,0.14-4.33,2.05-3.38c1.9,0.95,3.76,0.48,7.57-0.38c0.19-0.04,0.37-0.09,0.54-0.14
				c-1.97,0.34-3.84,0.63-4.87,0.76c-1.92,0.34-2.81-1.03-4.45-0.89c-1.65,0.14-2.6,4.87,0.55,6.78c2.06,0.75,3.5-0.27,3.91-1.99
				c0.41-1.1,8.09-3.77,8.84-3.01c0.75,0.75-4.66,4.73-6.51,6.03c-1.64,1.03-3.84,0.48-3.84,2.95s2.6,3.7,4.39,3.22
				c1.78-0.48,1.44-1.37,2.26-3.36c0.82-1.99,6.78-7.81,8.36-7.74c1.58,0.07-0.34,6.17-1.71,8.5c-1.37,2.33-3.63,2.74-2.81,4.8
				c0.82,2.06,6.65,1.51,6.3-2.54c-0.34-4.04,1.3-9.94,3.77-11.51c2.47-1.58,6.03,1.3,6.44,2.6c0.41,1.3,3.31,1.97,3.84-0.75
				C59.19,118.55,57.79,118.14,56.44,118.38z"/>
		</g>
	</g>
	<g>
		<path class="st0" d="M88.79,100.56c0,0-2.95,4.18-4.52,8.57c-1.58,4.39-0.55,5.83,2.06,6.37c2.6,0.55,8.91,1.64,11.17,1.92
			c1.92,0.34,2.81-1.03,4.45-0.89c1.64,0.14,2.6,4.87-0.55,6.78c-2.06,0.75-3.5-0.27-3.91-1.99c-0.41-1.1-8.09-3.77-8.84-3.01
			c-0.75,0.75,4.66,4.73,6.51,6.03c1.64,1.03,3.84,0.48,3.84,2.95s-2.6,3.7-4.39,3.22c-1.78-0.48-1.44-1.37-2.26-3.36
			c-0.82-1.99-6.78-7.81-8.36-7.74c-1.58,0.07,0.34,6.17,1.71,8.5c1.37,2.33,3.63,2.74,2.81,4.8c-0.82,2.06-6.65,1.51-6.31-2.54
			c0.34-4.04-1.3-9.94-3.77-11.51c-2.47-1.58-6.03,1.3-6.44,2.6c-0.41,1.3-3.31,1.97-3.84-0.75c-0.38-1.95,1.03-2.36,2.38-2.12
			c1.35,0.23,2.17-1.99,7.51-2.7c2.29-0.23,2.05-2.64,1.99-5.75c-0.06-3.11-1.35-14.59,4.55-15.64
			C90.5,93.24,90.6,97.98,88.79,100.56z"/>
		<g>
			<path class="st0" d="M70.54,118.38c1.35,0.23,2.17-1.99,7.51-2.7c2.29-0.23,2.05-2.64,1.99-5.75
				c-0.06-3.11-1.35-14.59,4.55-15.64c5.9-1.05,6,3.69,4.19,6.27c0,0-2.89,4.1-4.47,8.43c-0.19-0.41-0.59-0.66-1.33-0.56
				c-2.48,0.34-0.68,4.88-2.14,6.68c-1.45,1.8-4.44,0.58-7.79,2.78c-1.64,1.07-1.91,1.26-2.85,1.03c-0.75-0.19-1.12,0.19-1.31,0.89
				c-0.19,0.7,1.17,2.81,2.76,0.61c1.59-2.2,4.63-3.27,6.87-3.23c2.24,0.05,3.93,4.4,4.77,7.86c0.84,3.46,0.13,8.05,2.95,7.67
				c1.73-0.23,1.96-1.68,0.56-2.52c-1.4-0.84-3.25-5.67-3.82-8.77c-0.57-3.09-0.05-4.76,3.05-2.81c3.09,1.95,8.04,5.9,8.38,7.95
				c0.33,2.05,2.52,3.52,3.57,2.29c1.05-1.24,0.86-2.81-1.05-3.19c-1.9-0.38-6.47-4.43-8.09-6.14c-1.62-1.71-1.48-2.95,3.19-1.86
				c4.66,1.1,6,1.29,6.38,2.57c0.38,1.29,3.81,2.43,4.38,0.33c0.57-2.09-0.14-4.33-2.05-3.38c-1.9,0.95-3.76,0.48-7.57-0.38
				c-0.19-0.04-0.37-0.09-0.54-0.14c1.97,0.34,3.84,0.63,4.87,0.76c1.92,0.34,2.81-1.03,4.45-0.89c1.64,0.14,2.6,4.87-0.55,6.78
				c-2.06,0.75-3.5-0.27-3.91-1.99c-0.41-1.1-8.09-3.77-8.84-3.01c-0.75,0.75,4.66,4.73,6.51,6.03c1.64,1.03,3.84,0.48,3.84,2.95
				s-2.6,3.7-4.39,3.22c-1.78-0.48-1.44-1.37-2.26-3.36c-0.82-1.99-6.78-7.81-8.36-7.74c-1.58,0.07,0.34,6.17,1.71,8.5
				c1.37,2.33,3.63,2.74,2.81,4.8c-0.82,2.06-6.65,1.51-6.31-2.54c0.34-4.04-1.3-9.94-3.77-11.51c-2.47-1.58-6.03,1.3-6.44,2.6
				c-0.41,1.3-3.31,1.97-3.84-0.75C67.78,118.55,69.19,118.14,70.54,118.38z"/>
		</g>
	</g>
	<g>
		<path class="st0" d="M18.17,72.17c-2.2,1.52-4.34,3.16-6.05,5.23c-1.59,1.93-2.39,4.09-3.3,6.38C6.86,88.72,6.27,93.74,5.95,99
			c-0.25,4.06-0.16,8.2,0.36,12.24c0.38,2.93,1.63,3.19,4.93,1.87c3.29-1.32,6.12-1.25,6.06,1.25c-0.07,2.5-6.58,0.86-6.65,2.77
			c-0.07,1.91,6.58,1.71,4.94,5.6c-1.32,1.91-3.75-0.33-5-1.51c-1.25-1.18-1.99-1.31-1.58,1.58c0.33,2.31-0.46,3.42-1.91,2.9
			c-1.45-0.53-0.72-5.2-1.91-5.2c-1.19,0-1.04,5.52-3.69,5.27c-2.11-0.2-2.04-2.57,0.53-5.33s1.93-3.8,0.66-7.51
			c-0.56-1.64-0.78-3.63-1.01-5.22c-0.51-3.43-0.7-6.9-0.56-10.36c0.17-4.24,0.8-8.46,1.56-12.63c0.81-4.45,1.79-8.98,3.88-13.04
			c1.44-2.8,3.48-5.18,5.66-7.42c1.94-1.99,4.18-4.08,6.78-5.18c2.11-0.88,4.84-1.06,6.76,0.36c2.15,1.59,1.59,4.1,0.36,6.1
			c-1.69,2.74-4.52,4.34-7.11,6.09C18.72,71.8,18.44,71.99,18.17,72.17z"/>
		<path class="st0" d="M7.79,71.31c0,0-8.06,17.26-4.82,39.16C-0.18,101.14,1.37,82.42,7.79,71.31z"/>
		<g>
			<path class="st0" d="M25.74,59.44c-1.92-1.42-4.65-1.25-6.76-0.36c-2.6,1.09-4.83,3.18-6.78,5.18c-1.76,1.81-3.42,3.71-4.76,5.85
				c0.79-0.61,1.55-0.94,2.1-0.64c1.85,1.01-3.25,9.69-5.25,21.58c-2.56,15.24,1.55,22.89-0.14,23.34c-0.86,0.23-1.73-2.49-2.4-6.09
				c0.21,1.47,0.43,3.18,0.93,4.62c1.27,3.71,1.91,4.74-0.66,7.51s-2.63,5.14-0.53,5.33c2.64,0.25,2.5-5.27,3.69-5.27
				c1.19,0,0.46,4.68,1.91,5.2c1.45,0.53,2.24-0.59,1.91-2.9c-0.41-2.89,0.33-2.77,1.58-1.58c1.25,1.19,3.69,3.42,5,1.51
				c1.65-3.89-5.01-3.69-4.94-5.6c0.07-1.91,6.58-0.26,6.65-2.77c0.07-2.5-2.77-2.57-6.06-1.25c-3.29,1.32-4.54,1.05-4.93-1.87
				c-0.53-4.04-0.61-8.18-0.36-12.24c0.32-5.27,0.91-10.28,2.87-15.21c0.91-2.29,1.71-4.45,3.3-6.38c1.71-2.08,3.85-3.72,6.05-5.23
				c0.27-0.19,0.54-0.37,0.81-0.55c2.59-1.75,5.42-3.35,7.11-6.09C27.33,63.54,27.89,61.03,25.74,59.44z"/>
		</g>
		<path class="st0" d="M2.65,123.55c-0.42,0.98-1.21,1.59-1.76,1.36c-0.55-0.24-0.67-1.23-0.25-2.21c0.42-0.98,1.21-1.59,1.76-1.36
			C2.96,121.57,3.07,122.56,2.65,123.55z"/>
		<path class="st0" d="M8.45,123.06c0.09,1.07-0.32,1.97-0.91,2.03c-0.6,0.05-1.16-0.77-1.26-1.83c-0.09-1.07,0.31-1.97,0.92-2.03
			C7.79,121.17,8.35,121.99,8.45,123.06z"/>
		<path class="st0" d="M13.33,120.09c0.9,0.58,1.37,1.46,1.04,1.96c-0.33,0.51-1.32,0.45-2.22-0.13c-0.9-0.58-1.37-1.46-1.04-1.96
			C11.43,119.46,12.42,119.51,13.33,120.09z"/>
		<path class="st0" d="M14.49,112.51c1.07,0,1.94,0.49,1.93,1.1c0,0.6-0.87,1.09-1.94,1.09c-1.07,0-1.94-0.49-1.93-1.1
			C12.55,112.99,13.42,112.51,14.49,112.51z"/>
	</g>
	<g>
		<path class="st0" d="M108.98,72.17c2.2,1.52,4.34,3.16,6.05,5.23c1.59,1.93,2.39,4.09,3.3,6.38c1.96,4.93,2.55,9.94,2.87,15.21
			c0.25,4.06,0.17,8.2-0.36,12.24c-0.38,2.93-1.63,3.19-4.93,1.87c-3.29-1.32-6.12-1.25-6.06,1.25c0.07,2.5,6.58,0.86,6.65,2.77
			c0.07,1.91-6.58,1.71-4.94,5.6c1.32,1.91,3.75-0.33,5-1.51c1.25-1.18,1.99-1.31,1.58,1.58c-0.33,2.31,0.46,3.42,1.91,2.9
			c1.45-0.53,0.72-5.2,1.91-5.2c1.19,0,1.05,5.52,3.69,5.27c2.11-0.2,2.04-2.57-0.53-5.33c-2.57-2.77-1.93-3.8-0.66-7.51
			c0.56-1.64,0.78-3.63,1.01-5.22c0.51-3.43,0.7-6.9,0.56-10.36c-0.17-4.24-0.8-8.46-1.56-12.63c-0.81-4.45-1.79-8.98-3.88-13.04
			c-1.44-2.8-3.48-5.18-5.66-7.42c-1.94-1.99-4.18-4.08-6.78-5.18c-2.11-0.88-4.84-1.06-6.76,0.36c-2.15,1.59-1.59,4.1-0.36,6.1
			c1.69,2.74,4.52,4.34,7.11,6.09C108.44,71.8,108.71,71.99,108.98,72.17z"/>
		<path class="st0" d="M119.37,71.31c0,0,8.06,17.26,4.82,39.16C127.34,101.14,125.78,82.42,119.37,71.31z"/>
		<g>
			<path class="st0" d="M101.42,59.44c1.92-1.42,4.65-1.25,6.76-0.36c2.6,1.09,4.83,3.18,6.78,5.18c1.76,1.81,3.42,3.71,4.76,5.85
				c-0.79-0.61-1.55-0.94-2.1-0.64c-1.85,1.01,3.25,9.69,5.25,21.58c2.56,15.24-1.55,22.89,0.14,23.34c0.86,0.23,1.73-2.49,2.4-6.09
				c-0.21,1.47-0.43,3.18-0.93,4.62c-1.27,3.71-1.91,4.74,0.66,7.51c2.57,2.77,2.63,5.14,0.53,5.33c-2.64,0.25-2.5-5.27-3.69-5.27
				c-1.18,0-0.46,4.68-1.91,5.2c-1.45,0.53-2.24-0.59-1.91-2.9c0.41-2.89-0.33-2.77-1.58-1.58c-1.25,1.19-3.69,3.42-5,1.51
				c-1.65-3.89,5-3.69,4.94-5.6c-0.07-1.91-6.58-0.26-6.65-2.77c-0.07-2.5,2.77-2.57,6.06-1.25c3.29,1.32,4.54,1.05,4.93-1.87
				c0.53-4.04,0.61-8.18,0.36-12.24c-0.32-5.27-0.91-10.28-2.87-15.21c-0.91-2.29-1.71-4.45-3.3-6.38
				c-1.71-2.08-3.85-3.72-6.05-5.23c-0.27-0.19-0.54-0.37-0.81-0.55c-2.6-1.75-5.42-3.35-7.11-6.09
				C99.82,63.54,99.27,61.03,101.42,59.44z"/>
		</g>
		<path class="st0" d="M124.5,123.55c0.42,0.98,1.21,1.59,1.76,1.36c0.55-0.24,0.67-1.23,0.25-2.21c-0.42-0.98-1.21-1.59-1.76-1.36
			C124.2,121.57,124.09,122.56,124.5,123.55z"/>
		<path class="st0" d="M118.71,123.06c-0.09,1.07,0.31,1.97,0.92,2.03c0.6,0.05,1.16-0.77,1.26-1.83c0.1-1.07-0.31-1.97-0.92-2.03
			C119.37,121.17,118.8,121.99,118.71,123.06z"/>
		<path class="st0" d="M113.83,120.09c-0.9,0.58-1.37,1.46-1.04,1.96c0.33,0.51,1.32,0.45,2.22-0.13c0.9-0.58,1.37-1.46,1.04-1.96
			C115.73,119.46,114.73,119.51,113.83,120.09z"/>
		<path class="st0" d="M112.67,112.51c-1.07,0-1.94,0.49-1.94,1.1c0,0.6,0.87,1.09,1.94,1.09c1.07,0,1.94-0.49,1.93-1.1
			C114.6,112.99,113.74,112.51,112.67,112.51z"/>
	</g>
	<path class="st0" d="M45.57,13.45c0,0-1.36-11.74,0.97-13.29c2.33-1.55,6.89,9.41,6.89,9.41L45.57,13.45z"/>
	<path class="st0" d="M47.02,0c1.03,2.27,2.2,4.7,0.91,7.04c-0.66,1.2-1.59,2.16-2.64,3.02c0.12,1.94,0.28,3.38,0.28,3.38l7.86-3.88
		C53.43,9.56,49.44-0.04,47.02,0z"/>
	<path class="st0" d="M94,10.24c0,0,7.28-6.5,10.09-5.82c2.81,0.68-3.59,13.49-3.59,13.49L94,10.24z"/>
	<path class="st0" d="M104.32,4.51c-0.62,1.08-1.29,2.12-2.06,3.09c-0.97,1.23-2,2.47-3.55,2.93c-1.39,0.41-2.64-0.18-3.73-1.14
		C94.37,9.91,94,10.24,94,10.24l6.5,7.67C100.5,17.91,106.53,5.86,104.32,4.51z"/>
	<path class="st1" d="M15.5,54.49c0,0,14.37-51.28,58.36-51.49c21.88,1.07,30.68,12.01,37.55,39.91
		c6.87,27.89,6.22,57.71-18.02,63.51c-24.24,5.79-71.65,2.87-78.95-16.09C7.93,73.45,15.5,54.49,15.5,54.49z"/>
	<path class="st1" d="M65.68,41.13c0,0-1.89-8.31,5.74-11.2c6.57-2.49,12.66,2.6,12.53,8.84c-0.02,1.24-0.49,3.18-1.44,4.07
		c1.12-0.84,1.76-2.17,2.21-3.46c0.2-0.58,0.75-1.83,0.6-2.46c0,0,2.7,11.55-10.17,12.1c2.56-1.04,3.77-2.48,3.77-2.48
		S69.07,51.3,65.68,41.13z"/>
	<path class="st1" d="M42.23,38.25c0,0-0.35-5.78,5.35-8.32c5.7-2.54,11.57,1.14,12.62,6.48c1.05,5.34-2.89,10.25-8.06,10.6
		c1.84,0.79,4.82-0.61,4.82-0.61s-2.8,6.48-12.27,2.1c-5.52-2.72-6.4-10.6-2.98-14.11C41.62,36.58,42.23,38.25,42.23,38.25z"/>
	<path class="st1" d="M39.05,90.03c0,0-2.76,5.3,4.56,7.66c7.33,2.37,49.03,6.09,52.07-2.14c3.04-8.23,2.59-22.65,0.79-26.82
		C94.67,64.56,39.05,90.03,39.05,90.03z"/>
	<path class="st2" d="M82.77,38.37c0,4.49-3.64,8.14-8.14,8.14c-4.49,0-8.14-3.64-8.14-8.14c0-4.49,3.64-8.14,8.14-8.14
		C79.13,30.23,82.77,33.87,82.77,38.37z"/>
	<g>
		<path class="st3" d="M74.64,30.23c-4.49,0-8.14,3.64-8.14,8.14c0,4.49,3.64,8.14,8.14,8.14c4.49,0,8.14-3.64,8.14-8.14
			C82.77,33.87,79.13,30.23,74.64,30.23z M74.26,44.77c-3.86,0-6.99-3.13-6.99-6.99c0-3.86,3.13-6.99,6.99-6.99
			c3.86,0,6.99,3.13,6.99,6.99C81.25,41.64,78.12,44.77,74.26,44.77z"/>
	</g>
	<path class="st2" d="M59.42,38.37c0,4.49-3.64,8.14-8.14,8.14c-4.49,0-8.14-3.64-8.14-8.14c0-4.49,3.64-8.14,8.14-8.14
		C55.77,30.23,59.42,33.87,59.42,38.37z"/>
	<g>
		<path class="st4" d="M78.36,37.31c0.26,2.06-1.07,4.01-2.98,4.34c-1.91,0.34-3.68-1.07-3.94-3.13c-0.26-2.06,1.07-4,2.98-4.34
			C76.33,33.85,78.09,35.25,78.36,37.31z"/>
		<path class="st5" d="M77.75,37.46c0.22,1.69-0.88,3.29-2.45,3.57c-1.57,0.28-3.02-0.88-3.24-2.57c-0.22-1.7,0.88-3.29,2.45-3.57
			C76.08,34.61,77.53,35.76,77.75,37.46z"/>
		<path class="st6" d="M76.77,37.64c0.14,1.06-0.55,2.07-1.54,2.24c-0.98,0.17-1.89-0.55-2.03-1.61c-0.14-1.06,0.55-2.06,1.54-2.24
			C75.72,35.85,76.63,36.57,76.77,37.64z"/>
		<path class="st2" d="M74.46,36.63c-0.19,0.5-0.7,0.9-1.14,0.9c-0.44-0.01-0.63-0.42-0.44-0.92c0.19-0.5,0.7-0.9,1.14-0.9
			C74.46,35.72,74.66,36.13,74.46,36.63z"/>
		<path class="st2" d="M73.16,38.5c0.02,0.22-0.12,0.42-0.32,0.46c-0.2,0.04-0.39-0.11-0.41-0.33c-0.02-0.22,0.12-0.42,0.32-0.46
			C72.95,38.13,73.14,38.28,73.16,38.5z"/>
	</g>
	<g>
		<path class="st4" d="M54.75,37.12c0.26,2.06-1.07,4.01-2.98,4.34c-1.91,0.33-3.68-1.07-3.94-3.13c-0.26-2.06,1.07-4,2.98-4.34
			C52.72,33.66,54.48,35.06,54.75,37.12z"/>
		<path class="st5" d="M54.14,37.27c0.22,1.69-0.88,3.29-2.45,3.57c-1.57,0.28-3.02-0.88-3.24-2.57c-0.22-1.69,0.88-3.29,2.45-3.57
			C52.47,34.42,53.92,35.57,54.14,37.27z"/>
		<path class="st6" d="M53.16,37.45c0.14,1.06-0.55,2.06-1.54,2.24c-0.98,0.17-1.89-0.55-2.03-1.61c-0.14-1.06,0.55-2.06,1.54-2.24
			C52.11,35.66,53.02,36.38,53.16,37.45z"/>
		<path class="st2" d="M50.85,36.44c-0.19,0.5-0.7,0.9-1.14,0.9c-0.44-0.01-0.63-0.42-0.44-0.92c0.19-0.5,0.7-0.9,1.14-0.9
			C50.85,35.53,51.04,35.94,50.85,36.44z"/>
		<path class="st2" d="M49.55,38.31c0.02,0.22-0.12,0.42-0.32,0.46c-0.2,0.04-0.39-0.11-0.41-0.33c-0.02-0.22,0.12-0.42,0.32-0.46
			C49.34,37.94,49.52,38.09,49.55,38.31z"/>
	</g>
	<path class="st7" d="M39.05,90.03c0,0,12.16-24.83,38.5-31.35c6.4-2.01,18.43-1.5,19.69,14.8c0.12,13.17-3.51,21.44-3.51,21.44
		s-10.66,4.89-36.62,2.01C41.31,95.05,36.67,94.79,39.05,90.03z"/>
	<path class="st7" d="M86.52,87.4c-8.57-2.93-17.79-3.62-26.72-2.17c-7.3,1.18-14.66,3.82-20.71,8.21
		c1.75,1.69,7.32,2.22,18.03,3.49c25.96,2.88,36.62-2.01,36.62-2.01s0.58-1.32,1.26-3.73C92.3,89.69,89.47,88.41,86.52,87.4z"/>
	<g>
		<path class="st8" d="M52.68,47.99c-3.18-0.03-5.82-0.3-8.43-2.48c-2.56-2.14-3.22-5.94-2.68-9.05c0.03-0.17-0.18,0.02-0.21,0.08
			c-1.05,2.51-0.8,6.75,1.07,8.9c2.6,2.99,5.86,3.94,9.76,3.09C52.47,48.47,53.16,48,52.68,47.99z"/>
		<path class="st8" d="M85.18,39.38c-0.61,4.26-4.08,6.26-7.29,8.43c-0.11,0.08-0.69,0.47-0.32,0.46c1.9-0.04,4.32-1.97,5.51-3.31
			c1.29-1.45,2.2-3.77,2.31-5.69C85.4,39.09,85.19,39.29,85.18,39.38z"/>
		<path class="st1" d="M51.45,25.55c-1.78-0.16-3.26,0.73-4.49,1.94c-0.06,0.06-0.08,0.24,0.04,0.15c1.48-1.09,3.28-1.69,5.02-0.81
			c0.61,0.31,1.14,0.64,1.69,1.05c0.36,0.27,0.48,0.65,0.92,0.79c0.38,0.11,0.8-0.64,0.76-0.94C55.2,26.27,52.62,25.66,51.45,25.55z
			"/>
		<path class="st1" d="M79.29,25.51c-0.69-1.65-3.64-2.75-5.37-2.38c-2,0.43-3.64,2.13-4.73,3.78c-0.09,0.14-0.02,0.31,0.13,0.15
			c1.2-1.37,2.6-3.19,4.65-2.79c1.68,0.33,2.75,1.94,4.21,2.6C78.79,27.15,79.51,26.02,79.29,25.51z"/>
		<path class="st8" d="M51.68,24.98c-1.78-0.16-3.26,0.73-4.49,1.94c-0.06,0.06-0.08,0.24,0.04,0.15c1.48-1.09,3.28-1.69,5.02-0.81
			c0.61,0.31,1.14,0.64,1.69,1.05c0.36,0.27,0.48,0.65,0.92,0.79c0.38,0.11,0.8-0.64,0.76-0.94C55.43,25.7,52.85,25.08,51.68,24.98z
			"/>
		<path class="st8" d="M79.52,24.94c-0.69-1.65-3.64-2.75-5.37-2.37c-2,0.43-3.64,2.13-4.73,3.78c-0.09,0.14-0.02,0.31,0.13,0.15
			c1.2-1.37,2.6-3.19,4.65-2.79c1.68,0.32,2.75,1.94,4.21,2.6C79.01,26.57,79.74,25.44,79.52,24.94z"/>
		<path class="st1" d="M89.9,54.04c-2.44-0.64-6.29,0.3-8.28,1.78c-0.1,0.08-0.25,0.5-0.01,0.36c1.95-1.07,5.6-1.75,7.73-1.04
			c1.11,0.37,2.03,0.79,2.93,1.55c1.04,0.87,1.54,2.02,2.36,3.06c0.3,0.39,0.78-0.45,0.77-0.71C95.29,56.31,92.2,54.64,89.9,54.04z"
			/>
		<path class="st8" d="M89.98,53.42c-2.44-0.64-6.29,0.3-8.28,1.78c-0.1,0.08-0.25,0.5-0.01,0.36c1.95-1.08,5.6-1.75,7.73-1.04
			c1.11,0.37,2.03,0.79,2.93,1.55c1.04,0.87,1.54,2.02,2.36,3.06c0.3,0.39,0.78-0.45,0.77-0.72C95.37,55.68,92.27,54.02,89.98,53.42
			z"/>
		<path class="st1" d="M39.26,97.05c-0.9-0.36-1.74-0.95-2.41-1.64c-1.15-1.17-1.14-2.7-0.54-4.13c0.16-0.38-0.19-0.35-0.35-0.09
			c-0.81,1.33-1.2,2.7-0.63,4.21c0.48,1.27,1.95,2.84,3.37,2.86C39.07,98.27,39.7,97.23,39.26,97.05z"/>
		<path class="st8" d="M38.92,96.46c-0.86-0.46-1.62-1.14-2.22-1.89c-1.02-1.29-0.85-2.8-0.09-4.16c0.2-0.36-0.15-0.37-0.34-0.12
			c-0.95,1.24-1.48,2.56-1.08,4.12c0.34,1.32,1.63,3.03,3.05,3.21C38.6,97.65,39.34,96.69,38.92,96.46z"/>
	</g>
	<g>
		<path class="st2" d="M72.54,98.15c0.03-0.09,0.06-0.2,0.09-0.32c-0.04,0-0.09,0-0.14,0C72.51,97.94,72.53,98.05,72.54,98.15z"/>
		<path class="st2" d="M60.95,71.64c0.96-0.22,1.34-4.44,1.47-6.59c-1.51,0.92-2.94,1.9-4.3,2.9
			C58.76,69.37,60.02,71.85,60.95,71.64z"/>
		<path class="st3" d="M58.13,67.95c0.08,0.17,0.16,0.35,0.25,0.55c0.91-0.88,2.5-2.26,2.95-1.01c0.25,0.68,0.01,1.54-0.08,2.23
			c-0.08,0.64-0.18,1.27-0.29,1.91c0.95-0.26,1.32-4.45,1.45-6.58C60.91,65.97,59.48,66.95,58.13,67.95z"/>
		<path class="st2" d="M83.8,83.42c-1.92,7.39,10.15-3.33,10.43-19.87c-3.19-4.81-8.29-5.97-12.62-5.64
			C82.57,61.23,85.23,71.92,83.8,83.42z"/>
		<path class="st3" d="M81.62,57.91c0.05,0.18,0.11,0.38,0.17,0.59c0.23-0.04,0.47-0.08,0.7-0.1c3.67-0.34,7.52,1.47,8.4,5.31
			c0.42,1.84,0.26,3.85,0.09,5.71c-0.17,1.88-0.46,3.75-0.94,5.58c-0.89,3.41-2.34,6.8-4.74,9.42c-0.43,0.46-0.88,0.89-1.34,1.29
			c1.83,1.13,10.05-8.54,10.28-22.16C91.04,58.73,85.95,57.58,81.62,57.91z"/>
		<path class="st2" d="M44.42,89.68c-1.05,0.08-1.55,3.56-1.74,5.25c1.42,0.33,3.23,0.61,5.46,0.91
			C47.33,93.84,45.48,89.6,44.42,89.68z"/>
		<path class="st3" d="M45.74,90.89c0.14,0.33,0.23,0.67,0.23,1.02c0.01,0.62-0.14,1.48-0.72,1.86c-0.71,0.46-1.63,0.38-2.45,0.26
			c-0.04,0.33-0.08,0.64-0.11,0.9c1.42,0.33,3.23,0.61,5.46,0.91C47.61,94.54,46.64,92.28,45.74,90.89z"/>
		<path class="st2" d="M52.28,88.38c-0.49-6.56,1.64-14.35,2.81-18.04c-3.52,2.96-6.44,6.06-8.78,8.91
			C47.22,87.89,52.81,94.47,52.28,88.38z"/>
		<path class="st3" d="M49.23,76.82c0.44-0.44,1.16-1.22,1.87-1.15c0.68,0.07,0.77,0.78,0.82,1.35c0.16,2.21-0.33,4.45-0.49,6.65
			c-0.17,2.35-0.18,4.75,0.47,6.96c0.33-0.26,0.49-0.97,0.38-2.25c-0.49-6.56,1.64-14.35,2.81-18.04c-3.52,2.96-6.44,6.06-8.78,8.91
			c0.04,0.42,0.1,0.83,0.17,1.24C47.32,79.21,48.15,77.91,49.23,76.82z"/>
		<path class="st2" d="M68.04,67.49c0.85-0.07,2.09-4.38,2.67-6.6c-2.23,0.89-4.33,1.9-6.31,3.01
			C65.27,65.1,67.17,67.56,68.04,67.49z"/>
		<path class="st3" d="M64.39,63.9c0.13,0.18,0.28,0.38,0.45,0.6c0.92-0.67,1.94-1.64,3.05-1.66c0.78-0.02,1.28,0.43,1.28,1.22
			c0,1.23-0.53,2.31-1.04,3.4c0.84-0.38,2.01-4.43,2.57-6.57C68.48,61.77,66.38,62.79,64.39,63.9z"/>
		<path class="st2" d="M77.79,64.11c1.44-0.33,2.39-3.9,2.84-6.1c-1.11,0.15-2.16,0.38-3.09,0.67c-1.19,0.29-2.35,0.63-3.48,0.99
			C74.79,61.42,76.29,64.45,77.79,64.11z"/>
		<path class="st3" d="M78.98,61.49c0.02,0.6-0.05,1.21-0.19,1.82c0.89-1.25,1.51-3.66,1.84-5.31c-1.11,0.15-2.16,0.38-3.09,0.67
			c-1.19,0.29-2.35,0.63-3.48,0.99c0.08,0.2,0.18,0.43,0.29,0.66C76.24,59.54,78.89,58.69,78.98,61.49z"/>
		<path class="st2" d="M69.89,91.26c-1.15,0.23-1.55,4.41-1.68,6.5c1.5,0.05,2.93,0.08,4.29,0.08C72.12,95.1,71.1,91.01,69.89,91.26
			z"/>
		<path class="st3" d="M70.43,91.43c0.59,1.46,1.11,3.06,0.2,4.27c-0.58,0.78-1.45,0.93-2.33,0.81c-0.04,0.45-0.07,0.88-0.09,1.24
			c1.5,0.05,2.93,0.08,4.29,0.08C72.17,95.52,71.4,92.24,70.43,91.43z"/>
		<path class="st2" d="M91.96,91.41c-0.79,0.19-1.25,3.05-1.44,4.54c2.18-0.56,3.2-1.03,3.2-1.03s0.09-0.2,0.24-0.58
			C93.4,92.93,92.59,91.26,91.96,91.41z"/>
		<path class="st3" d="M92.4,91.56c0.38,1.54-0.03,3.06-1.75,3.45c-0.05,0.34-0.1,0.66-0.13,0.94c2.18-0.56,3.2-1.03,3.2-1.03
			s0.09-0.2,0.24-0.58C93.52,93.24,92.94,92,92.4,91.56z"/>
		<path class="st2" d="M49.56,90.86c-1,0.25-0.74,3.61-0.57,5.09c1.41,0.18,2.98,0.37,4.7,0.57C52.82,94.81,50.59,90.6,49.56,90.86z
			"/>
		<path class="st3" d="M50.36,91.24c0.74,1.51,1.36,3.34-0.04,3.93c-0.43,0.18-0.9,0.22-1.39,0.17c0.02,0.22,0.04,0.43,0.06,0.6
			c1.41,0.18,2.98,0.37,4.7,0.57C53.01,95.17,51.48,92.29,50.36,91.24z"/>
		<path class="st2" d="M87.3,91c-1.24,0.15-2.68,4.2-3.31,6.16c2.46-0.32,4.42-0.7,5.92-1.06C89.55,94.5,88.58,90.84,87.3,91z"/>
		<path class="st3" d="M87.51,91.01c0.31,1.5,0.5,3.08-0.66,4.21c-0.65,0.63-1.57,0.86-2.49,0.82c-0.14,0.41-0.27,0.8-0.38,1.12
			c2.46-0.32,4.42-0.7,5.92-1.06C89.57,94.59,88.69,91.25,87.51,91.01z"/>
		<path class="st2" d="M76.39,78.51c-0.08,6.42-2.89,16.37-3.76,19.33c3.27,0,6.12-0.15,8.58-0.37
			C81.9,80.54,76.39,74.61,76.39,78.51z"/>
		<path class="st3" d="M77.46,77.6c0.92,2,1.48,4.16,1.82,6.33c0.22,1.38,0.36,2.77,0.44,4.17c0.07,1.34,0.19,2.69-0.03,4.02
			c-0.15,0.93-0.4,2.11-1.12,2.79c-0.63,0.59-1.4,0.83-2.24,1c-1.11,0.22-2.19,0.32-3.22,0.24c-0.19,0.69-0.36,1.26-0.49,1.69
			c3.27,0,6.12-0.15,8.58-0.37C81.7,85.36,79.03,78.88,77.46,77.6z"/>
		<path class="st2" d="M55.33,79.43c-2.78,6.72-0.23,14.63,0.83,17.38c0.32,0.04,0.63,0.07,0.95,0.11c2.22,0.25,4.32,0.43,6.31,0.58
			c-2.99-4.93-5.59-15.99-5.8-18.25C57.45,77.45,56.66,76.58,55.33,79.43z"/>
		<path class="st3" d="M57.62,79.25c-0.1-1.08-0.43-1.82-0.95-1.64c-0.24,1.01-0.17,2.14-0.12,3.11c0.07,1.27,0.16,2.52,0.44,3.76
			c0.37,1.66,0.86,3.31,1.52,4.88c0.52,1.22,1.12,2.41,1.54,3.67c0.45,1.32,0.61,2.91-1.17,2.94c-1.13,0.02-2.2-0.31-3.26-0.66
			c0.19,0.59,0.38,1.1,0.53,1.5c0.32,0.04,0.63,0.07,0.95,0.11c2.22,0.25,4.32,0.43,6.31,0.58C60.43,92.57,57.83,81.51,57.62,79.25z
			"/>
		<path class="st2" d="M64.41,90.74c-1.24,0.75-0.94,4.71-0.69,6.78c1.37,0.09,2.68,0.16,3.95,0.21
			C67.2,95.6,65.79,89.91,64.41,90.74z"/>
		<path class="st3" d="M64.62,90.67c0.68,1.66,1.72,3.43,0.75,5.06c-0.39,0.66-1.03,0.97-1.73,1.05c0.03,0.27,0.05,0.52,0.08,0.74
			c1.37,0.09,2.68,0.16,3.95,0.21C67.22,95.71,65.93,90.47,64.62,90.67z"/>
	</g>
	<g>
		<path class="st3" d="M51.27,30.22c-4.49,0-8.14,3.64-8.14,8.14c0,4.49,3.64,8.14,8.14,8.14c4.49,0,8.14-3.64,8.14-8.14
			C59.41,33.87,55.77,30.22,51.27,30.22z M50.9,44.76c-3.86,0-6.99-3.13-6.99-6.99c0-3.86,3.13-6.99,6.99-6.99
			c3.86,0,6.99,3.13,6.99,6.99C57.88,41.63,54.75,44.76,50.9,44.76z"/>
	</g>
	<g>
		<path class="st1" d="M111.4,42.91C104.54,15.02,95.74,4.07,73.85,3C51.05,3.11,36.2,16.96,27.19,30.26
			c3.39-4.29,20.28-24.69,44.89-23.99c25.44,0.73,37.52,37.96,35.09,66.05c-2.16,25.01-15.32,37.47-57.6,32.52
			c-16.5-1.83-32.34-6.45-37.62-25.59c0.31,3.64,1.05,7.4,2.46,11.06c7.3,18.96,54.71,21.88,78.95,16.09
			C117.62,100.62,118.27,70.8,111.4,42.91z"/>
	</g>
	<path class="st1" d="M77.92,56.41c-3.78,0.6-7.56,2.52-10.98,4.18c-3.74,1.81-7.29,3.93-10.62,6.43c-3.22,2.41-6.34,5.16-9.17,8.03
		c-2.84,2.88-4.92,6.09-7.02,9.51c-0.16,0.26-0.04,0.58,0.23,0.27c2.36-2.75,4.21-5.8,6.79-8.39c2.72-2.73,5.74-5.24,8.79-7.58
		c3.16-2.43,6.56-4.45,10.12-6.23c3.74-1.86,9.83-4.79,13.66-6.42C80.13,56.04,78.78,56.27,77.92,56.41z"/>
	<path class="st1" d="M31.02,28.15c0,0-21.33,30.21-14.22,56.87C8.42,67.76,17.31,43.64,31.02,28.15z"/>
</g>
</svg>
