<?xml version="1.0" encoding="utf-8"?>
<!-- Generator: Adobe Illustrator 24.0.1, SVG Export Plug-In . SVG Version: 6.00 Build 0)  -->
<svg version="1.1" id="Layer_1" xmlns="http://www.w3.org/2000/svg" xmlns:xlink="http://www.w3.org/1999/xlink" x="0px" y="0px"
	 viewBox="0 0 138.49 132.77" style="enable-background:new 0 0 138.49 132.77;" xml:space="preserve">
<style type="text/css">
	.st0{fill:#BCD531;}
	.st1{fill:#784B9D;}
	.st2{opacity:0.5;}
	.st3{fill:#FEE48E;}
	.st4{fill:#9368BC;}
	.st5{opacity:0.5;fill:#9368BC;}
	.st6{fill:#FFFFFF;}
	.st7{fill:#D5D7D8;}
	.st8{fill:#45225C;}
	.st9{opacity:0.5;fill:#784B9D;}
	.st10{fill:#EA6E6E;}
	.st11{fill:#FFC847;}
</style>
<g>
	<g>
		<g>
			<path class="st0" d="M75.53,117.44c0,0,2.57,7.62-0.38,9.71c-2.95,2.1-4.86,2.29-4.09,3.52c0.76,1.24,3.62,0.76,5.43-0.86
				c-0.86,3.24,2.09,2.95,6.38,0.38c0.19,3.05,2.48,2.48,4.76-0.67c3.33,4.48,5.24,2.76,4.67-0.67c3.14,3.62,8.66,2.38,4.57-0.95
				c-4.09-3.33-2.67-5.43-2.86-8.85L75.53,117.44z"/>
		</g>
		<g>
			<path class="st0" d="M90.43,126.43c0,0,1.39,4.37,0.07,4.37c-1.32,0-3.05-3.88-3.05-3.88s-2.22,4.3-3.05,4.23
				c-0.83-0.07-0.9-1.94-0.55-4.23c-3.19,4.09-7.84,4.44-6.1,1.46c1.73-2.98,0.35-7.77,3.05-7.21c5.64,0.71,10.77,0.57,13.16,0.44
				c0.04-0.78,0.11-1.61,0.06-2.54l-18.47-1.62c0,0,2.57,7.62-0.38,9.71c-2.95,2.1-4.86,2.29-4.09,3.52
				c0.76,1.24,3.62,0.76,5.43-0.86c-0.86,3.24,2.09,2.95,6.38,0.38c0.19,3.05,2.48,2.48,4.76-0.67c3.33,4.48,5.24,2.76,4.67-0.67
				c2.39,2.75,6.15,2.69,6.02,1.04C94.92,131.47,90.43,126.43,90.43,126.43z"/>
		</g>
	</g>
	<path class="st0" d="M39.21,122.43c0,0,0.7,2.82-2.18,5c-2.89,2.18-5.07,3.24-3.94,4.37c1.13,1.13,4.93,0,6.69-2.25
		c-0.63,3.38,0.92,5.21,5.71-0.21c0.7,3.38,3.87,4.58,4.37,0.28c2.96,3.73,7.82,3.8,6.13-0.07c3.73,2.61,6.06,1.13,2.82-0.92
		c-3.24-2.04-4.16-3.45-3.94-7.96L39.21,122.43z"/>
	<g>
		<path class="st0" d="M58.79,128.63c-3.24-2.04-4.16-3.45-3.94-7.96l-15.64,1.76c0,0,0.18,0.75-0.03,1.78
			c2.21,0.01,6.4-0.09,10.64-0.93c3.08-0.81,2.43,3.16,4.54,5.43c2.11,2.27-2.35,4.05-4.78-1.13c0,0-0.32,3.89-1.94,3.73
			c-1.62-0.16-2.35-3.56-2.35-3.56s-2.92,4.29-4.54,3.64c-1.62-0.65,0.24-3.81,0.24-3.81s-5.02,4.29-7.53,3.56
			c-0.24-0.07-0.44-0.16-0.61-0.27c-0.13,0.32-0.08,0.62,0.23,0.93c1.13,1.13,4.93,0,6.69-2.25c-0.63,3.38,0.92,5.21,5.71-0.21
			c0.7,3.38,3.87,4.58,4.37,0.28c2.96,3.73,7.82,3.8,6.13-0.07C59.71,132.16,62.03,130.68,58.79,128.63z"/>
	</g>
	<path class="st1" d="M101.62,83.8c10.54-1.02,10.41,6.73,17.9,11.42c10.03,5.46,18.15-0.13,18.91-6.73c0.76-6.6-6.98-8-6.22-3.68
		c2.92-0.89,4.44,3.81-0.51,5.08c-4.95,1.27-8.51-3.68-11.93-15.49c-2.09-8.89-8.37-22.09-20.84-19.45
		C86.46,57.6,82.65,84.51,101.62,83.8z"/>
	<g class="st2">
		<path class="st1" d="M133.78,82.36c0.86,0.31,1.67,0.89,2.23,1.56c1.41,1.71,1.91,5.24-2.42,7.76c-4.33,2.52-13.29,2.02-17.7-6.27
			c-4.41-8.29-11.65-7.06-9.71-16.24c1.03-4.86,0.92-9.97,0.59-13.7c-2.28-0.88-4.89-1.15-7.84-0.52
			c-12.47,2.64-16.28,29.56,2.69,28.84c10.54-1.02,10.41,6.73,17.9,11.42c10.03,5.46,18.15-0.13,18.91-6.73
			C138.93,84.18,135.8,82.09,133.78,82.36z"/>
	</g>
	<g>
		<g>
			<path class="st0" d="M134.18,94.05c-0.8-1.07-3.35-1.27-3.56,1.95c-0.67-1.21-2.42-1.41-3.69,0.6c-0.6-2.89-4.36-3.96-5.84-1.48
				c-0.07-2.28-1.01-2.95-2.82-1.48c0.2-2.68-0.6-3.49-2.62-2.42c0.8-4.76-2.55-3.29-2.55-3.29s1.34-2.28-0.4-3.56
				c-1.75-1.27-3.36,0.07-3.36,0.07s0.07-2.89-2.28-3.15c-1.49-0.17-2.77,1.31-3.5,2.41c8.59,0.09,8.95,7.13,15.94,11.51
				c8,4.36,14.79,1.68,17.59-2.94C135.98,91.23,134,91.88,134.18,94.05z"/>
		</g>
		<path class="st3" d="M107.08,83.32c-0.51-0.35-0.74-0.9-0.52-1.23c0.22-0.33,0.82-0.31,1.33,0.04c0.51,0.35,0.74,0.9,0.52,1.23
			C108.19,83.68,107.59,83.67,107.08,83.32z"/>
		<path class="st3" d="M111.55,85.76c-0.42-0.46-0.52-1.05-0.22-1.31c0.3-0.27,0.87-0.11,1.29,0.34c0.42,0.46,0.51,1.05,0.22,1.31
			C112.55,86.38,111.97,86.22,111.55,85.76z"/>
		<path class="st3" d="M124.34,95.71c-0.5-0.37-0.71-0.93-0.47-1.25c0.24-0.32,0.83-0.28,1.33,0.09c0.5,0.37,0.71,0.93,0.47,1.25
			C125.44,96.12,124.84,96.08,124.34,95.71z"/>
		<path class="st3" d="M129.31,96.18c-0.37,0.01-0.67-0.18-0.68-0.42c0-0.24,0.29-0.44,0.66-0.44c0.37-0.01,0.67,0.18,0.68,0.42
			C129.98,95.98,129.68,96.17,129.31,96.18z"/>
		<path class="st3" d="M135.7,92.92c-0.36,0.09-0.7-0.03-0.75-0.26c-0.06-0.23,0.19-0.49,0.55-0.58c0.36-0.09,0.7,0.03,0.75,0.26
			C136.31,92.57,136.06,92.83,135.7,92.92z"/>
		<path class="st3" d="M132.7,94.67c-0.47,0.01-0.86-0.23-0.87-0.53c-0.01-0.31,0.37-0.56,0.85-0.57c0.47-0.01,0.86,0.23,0.87,0.53
			C133.56,94.41,133.18,94.66,132.7,94.67z"/>
		<path class="st3" d="M114.19,89.06c-0.15-0.46-0.03-0.92,0.26-1.01c0.3-0.1,0.66,0.2,0.81,0.66c0.15,0.46,0.03,0.92-0.26,1.01
			C114.71,89.82,114.34,89.52,114.19,89.06z"/>
		<path class="st3" d="M116.94,91.86c-0.12-0.37-0.03-0.72,0.21-0.8c0.23-0.08,0.52,0.16,0.64,0.52c0.12,0.37,0.03,0.72-0.21,0.8
			C117.35,92.46,117.06,92.22,116.94,91.86z"/>
		<path class="st3" d="M119.78,93.92c-0.12-0.37-0.03-0.72,0.21-0.8c0.24-0.08,0.52,0.16,0.64,0.52c0.12,0.36,0.03,0.73-0.21,0.8
			C120.18,94.52,119.9,94.28,119.78,93.92z"/>
	</g>
	<path class="st1" d="M23.94,55.43c0,0-2.07,13.97-8.26,18.71c-6.2,4.74-19.8,15.19-14.46,31.59c1.09,3.28,2.55,3.28,2.92,0
		c0.36-3.28,4.5-7.65,11.18-10.33c0,0,9.66-2.83,11.67-10.21C31.83,67.35,27.67,40.28,23.94,55.43z"/>
	<g class="st2">
		<path class="st1" d="M23.94,55.43c0,0-0.79,5.34-2.85,10.53c-0.07,2.5,0.01,5.33,0.39,8.33c1.24,9.88,0.53,12.71-6.35,15
			C8.24,91.59,4,94.77,2.24,100.06c-0.52,1.55-1.31,1.9-2.02,1.36c0.19,1.39,0.52,2.83,1,4.32c1.09,3.28,2.55,3.28,2.92,0
			c0.36-3.28,4.5-7.65,11.18-10.33c0,0,9.66-2.83,11.67-10.21C31.83,67.35,27.67,40.28,23.94,55.43z"/>
	</g>
	<path class="st0" d="M55.57,13.11c0,0-1.11-9.86-9.81-10.94c-5.52-0.95-7.87,2.16-7.68,4.13c0.19,1.97-3.49,1.65-1.78-1.97
		c1.71-3.62,7.74-5.01,12.38-3.36c4.63,1.65,6.73,6.41,7.55,11.36L55.57,13.11z"/>
	<path class="st4" d="M26.22,94.21c0,0-10.37-40.63,5.9-63.79c9.9-14.09,23.8-22.85,41.51-19.23c17.71,3.62,31.54,11.93,31.04,49.76
		c-1.78,20.56-1.52,33,1.78,40.87c3.3,7.87,5.78,16.21-8.43,18.26c-14.21,2.05-17.29-3.96-40.74,0.73
		c-23.45,4.69-36.2,2.78-31.66-8.94C28.25,102.94,27.11,99.25,26.22,94.21z"/>
	<path class="st5" d="M43.2,48.95c0,0-1.19,10.29,8.25,11.22c-4.95-1.52-10.1-7.92-6.6-18.21c3.5-10.29,14.72-16.96,19.8-2.24
		c1.65-3.76,6.51-8.29,12.6-3.17c7.07,5.93,6.28,26.91-7.62,19.96c1.9,2.95,8.66,3.24,12.28-1.43c-3.52,6.47-14.66,8.66-17.23-3.9
		c-1.71,5.43-7.24,10.66-13.9,10.57C44.12,61.65,41.23,56.53,43.2,48.95z"/>
	<path class="st6" d="M63.94,48.15c-1.66,7.32-7.16,12.31-12.28,11.15c-5.13-1.16-7.94-8.03-6.29-15.35
		c1.66-7.32,7.16-12.31,12.28-11.15C62.79,33.96,65.6,40.83,63.94,48.15z"/>
	<g>
		<path class="st7" d="M57.66,32.8c-5.13-1.16-10.63,3.83-12.28,11.15c-1.66,7.32,1.16,14.19,6.29,15.35
			c5.13,1.16,10.63-3.83,12.28-11.15C65.6,40.83,62.79,33.96,57.66,32.8z M61.56,51.77c-1.66,4.89-7.7,3.91-11.71,0.85
			c-4.02-3.06-4.02-6.37-3.23-8.99c0,0,2.53-7.6,8.12-4.89C60.32,41.45,63.22,46.88,61.56,51.77z"/>
	</g>
	<path class="st6" d="M79.9,44.85c0.98,5.73-1.49,10.94-5.51,11.62c-4.02,0.69-8.07-3.41-9.05-9.14
		c-0.98-5.73,1.49-10.94,5.51-11.62C74.87,35.02,78.92,39.12,79.9,44.85z"/>
	<g>
		<path class="st7" d="M79.9,44.85c-0.98-5.73-5.03-9.83-9.05-9.14c-4.02,0.68-6.49,5.89-5.51,11.62c0.98,5.73,5.03,9.83,9.05,9.14
			C78.41,55.79,80.87,50.58,79.9,44.85z M70.68,52.6c-3.47-0.19-5.05-3.71-3.81-6.62c0,0,1.76-4.28,7.71-5.52
			c3.18-0.63,4.52,2.29,4.62,6C79.29,50.22,74.15,52.79,70.68,52.6z"/>
	</g>
	<g>
		<path class="st1" d="M56.44,46.34c0.17,1.7-0.69,3.31-1.93,3.59c-1.24,0.28-2.38-0.88-2.55-2.58c-0.17-1.7,0.69-3.31,1.93-3.59
			C55.12,43.48,56.26,44.64,56.44,46.34z"/>
		<path class="st4" d="M56.04,46.47c0.14,1.4-0.57,2.72-1.58,2.95c-1.02,0.23-1.95-0.72-2.1-2.13c-0.14-1.4,0.57-2.72,1.59-2.95
			C54.96,44.11,55.9,45.07,56.04,46.47z"/>
		<path class="st8" d="M55.41,46.61c0.09,0.88-0.36,1.71-0.99,1.85c-0.64,0.14-1.23-0.45-1.31-1.33c-0.09-0.88,0.36-1.71,0.99-1.85
			C54.73,45.14,55.32,45.74,55.41,46.61z"/>
		<path class="st6" d="M53.92,45.78c-0.12,0.42-0.45,0.75-0.74,0.74c-0.28-0.01-0.41-0.35-0.28-0.76c0.12-0.42,0.45-0.75,0.74-0.74
			C53.91,45.03,54.04,45.37,53.92,45.78z"/>
		<path class="st6" d="M53.08,47.33c0.02,0.18-0.08,0.35-0.21,0.38c-0.13,0.03-0.25-0.09-0.27-0.27c-0.02-0.18,0.08-0.35,0.21-0.38
			C52.94,47.02,53.06,47.15,53.08,47.33z"/>
	</g>
	<g>
		<path class="st1" d="M73.75,45.87c0.45,1.65-0.14,3.38-1.32,3.85c-1.17,0.47-2.49-0.48-2.93-2.14c-0.44-1.65,0.15-3.38,1.32-3.85
			C71.99,43.26,73.3,44.22,73.75,45.87z"/>
		<path class="st4" d="M73.38,46.06c0.37,1.36-0.12,2.78-1.08,3.17c-0.97,0.39-2.05-0.4-2.41-1.76c-0.37-1.36,0.12-2.78,1.08-3.17
			C71.94,43.91,73.02,44.7,73.38,46.06z"/>
		<path class="st8" d="M72.78,46.31c0.23,0.85-0.07,1.74-0.68,1.99c-0.6,0.24-1.28-0.25-1.51-1.1c-0.23-0.85,0.08-1.74,0.68-1.99
			C71.87,44.96,72.55,45.45,72.78,46.31z"/>
		<path class="st6" d="M71.17,45.73c-0.06,0.43-0.33,0.81-0.6,0.85c-0.28,0.04-0.46-0.28-0.4-0.71c0.05-0.43,0.33-0.81,0.6-0.85
			C71.05,44.98,71.23,45.3,71.17,45.73z"/>
		<path class="st6" d="M70.59,47.39c0.05,0.18-0.02,0.36-0.14,0.41c-0.13,0.05-0.26-0.05-0.31-0.23c-0.05-0.18,0.02-0.36,0.14-0.41
			C70.41,47.11,70.55,47.21,70.59,47.39z"/>
	</g>
	<path class="st0" d="M52.9,37.36c2.93,0.74,5.3,2.51,7.35,4.69c1.39,1.47,2.67,3.05,3.97,4.61c0.98-6.74-1.78-12.78-6.56-13.86
		c-3.37-0.76-6.9,1.13-9.39,4.59C49.74,36.94,51.36,36.97,52.9,37.36z"/>
	<path class="st0" d="M52.18,55.1c-2.39-1.06-4.48-2.71-6.11-4.75c-0.39-0.49-0.8-1.03-1.15-1.61c0.19,5.32,2.77,9.65,6.75,10.55
		c2.85,0.64,5.8-0.61,8.16-3.1C57.23,56.44,54.64,56.2,52.18,55.1z"/>
	<path class="st0" d="M75.43,52.26c-1.85,0.86-5.05,1.97-7.37,1.31c1.74,2.14,4.04,3.3,6.33,2.91c3.2-0.55,5.41-3.96,5.69-8.22
		C78.8,49.93,77.3,51.39,75.43,52.26z"/>
	<path class="st0" d="M72.69,40.39c1.71-0.52,3.47-0.72,5.24-0.72c-1.79-2.79-4.45-4.41-7.09-3.96c-3.94,0.67-6.39,5.69-5.56,11.29
		C66.9,43.96,69.26,41.42,72.69,40.39z"/>
	<path class="st9" d="M66.61,35.02c0,0,5.49-5.75,11.31-3.75C75.98,24.92,69.29,22.58,66.61,35.02z"/>
	<path class="st9" d="M49.96,31.48c0,0,7.43-2.48,11.17,2.34C60.13,25.46,52.23,23.18,49.96,31.48z"/>
	<path class="st8" d="M66.54,34.13c0,0,5.49-5.75,11.31-3.75C75.91,24.03,69.22,21.69,66.54,34.13z"/>
	<path class="st8" d="M49.88,30.59c0,0,7.43-2.48,11.17,2.34C60.05,24.57,52.16,22.29,49.88,30.59z"/>
	<g class="st2">
		<path class="st5" d="M63.97,63.45c0,0.79-0.34,1.43-0.76,1.43c-0.42,0-0.76-0.64-0.76-1.43c0-0.79,0.34-1.43,0.76-1.43
			C63.62,62.03,63.97,62.67,63.97,63.45z"/>
		<path class="st5" d="M66.96,63.13c0.09,0.78-0.17,1.46-0.59,1.51c-0.42,0.05-0.83-0.55-0.92-1.33c-0.09-0.78,0.17-1.46,0.59-1.51
			C66.45,61.75,66.87,62.34,66.96,63.13z"/>
	</g>
	<path class="st5" d="M51.44,80.26c0,0,10.03,10.03,26-0.1c4.91-3.07,7.37-3.58,8.91,3.48c1.54,7.06-4.3,21.7-22.32,22.01
		c-18.02,0.31-23.14-13-22.01-21.6C42.22,79.44,45.6,75.45,51.44,80.26z"/>
	<path class="st10" d="M51.44,77.75c0,0,10.03,10.03,26-0.1c4.91-3.07,7.37-3.58,8.91,3.48c1.54,7.06-4.3,21.7-22.32,22.01
		c-18.02,0.31-23.14-13-22.01-21.6C42.22,76.93,45.6,72.94,51.44,77.75z"/>
	<path class="st10" d="M70.26,89.56c-5.24-0.8-10.73-0.37-15.64,1.74c-3.01,1.29-5.51,3.28-7.83,5.5c3.48,3.79,9.01,6.49,17.24,6.35
		c9.56-0.16,15.7-4.36,19.11-9.33C79.05,91.79,74.76,90.25,70.26,89.56z"/>
	<g>
		<path class="st6" d="M46.4,84.18c1.01,5.27,3.81,8.06,3.87,4.44c0.27-4.6,2.44-7.6,3.74-8.99c-1.68-0.98-2.57-1.88-2.57-1.88
			c-1.28-1.06-2.45-1.69-3.48-1.98C46.98,77.65,45.76,80.84,46.4,84.18z"/>
		<path class="st7" d="M51.44,77.75c-1.28-1.06-2.45-1.69-3.48-1.98c-0.06,0.11-0.12,0.23-0.18,0.36c1.13,0.37,2.37,0.78,2.97,1.81
			c0.79,1.36,0.62,2.94,0.16,4.38c-0.35,1.09-0.71,2.15-0.96,3.26c-0.24,1.1-0.26,2.13-0.3,3.24c-0.02,0.53-0.12,0.99-0.35,1.37
			c0.55,0.23,0.95-0.23,0.97-1.58c0.27-4.6,2.44-7.6,3.74-8.99C52.33,78.64,51.44,77.75,51.44,77.75z"/>
		<path class="st6" d="M42.87,90.05c0.47,1.44,1.13,2.86,1.98,4.21C45.3,89.94,43.87,89.72,42.87,90.05z"/>
		<path class="st7" d="M43.37,91.37c0.41,0.99,0.89,1.95,1.48,2.89c0.16-1.52,0.08-2.53-0.13-3.19
			C44.3,91.55,43.79,91.84,43.37,91.37z"/>
		<path class="st6" d="M54.87,82.87c0.79,0.51,1.87-0.89,2.42-1.73c-1.15-0.4-2.14-0.87-2.97-1.33
			C54.19,80.65,54.05,82.34,54.87,82.87z"/>
		<path class="st7" d="M54.32,79.8c-0.01,0.07-0.02,0.15-0.03,0.23c0.9,0.45,2.14,0.76,1.82,2.02c-0.06,0.25-0.16,0.49-0.29,0.72
			c0.56-0.36,1.12-1.11,1.46-1.64C56.13,80.74,55.14,80.27,54.32,79.8z"/>
		<path class="st6" d="M73.53,82.31c0.89-0.22,0.94-1.62,0.63-2.81c-0.77,0.38-1.52,0.71-2.25,1C72.15,81.22,72.7,82.51,73.53,82.31
			z"/>
		<path class="st7" d="M73.95,80.7c0.15,0.25,0.23,0.53,0.28,0.83c0.16-0.56,0.11-1.33-0.07-2.04c-0.77,0.38-1.52,0.71-2.25,1
			c0.04,0.13,0.09,0.27,0.15,0.41C72.65,80.46,73.52,79.98,73.95,80.7z"/>
		<path class="st6" d="M60.52,84.34c0.71,0.06,1.1-1.24,1.3-2.23c-1.05-0.09-2.04-0.27-2.94-0.49
			C59.14,82.58,59.71,84.27,60.52,84.34z"/>
		<path class="st7" d="M61.18,82.98c0.09,0.28,0.1,0.56,0.08,0.84c0.27-0.46,0.45-1.14,0.56-1.72c-1.05-0.09-2.04-0.27-2.94-0.49
			c0.02,0.07,0.04,0.15,0.06,0.23C59.69,82.24,60.88,82.05,61.18,82.98z"/>
		<path class="st6" d="M81.63,84.11c0.89-2.9,0.42-6.14-0.18-8.46c-1.12,0.3-2.44,1.01-4.01,1.99c-0.96,0.61-1.89,1.14-2.81,1.61
			c0.84,1.36,2.61,4.64,2.76,8.19C77.58,92.11,80.01,89.35,81.63,84.11z"/>
		<path class="st7" d="M81.45,75.65c-1.12,0.3-2.44,1.01-4.01,1.99c-0.96,0.61-1.89,1.14-2.81,1.61c0.11,0.18,0.25,0.41,0.39,0.66
			c1.01-0.85,2.26-1.58,3.52-1.77c1.86-0.28,2.94,1.03,3.02,2.83c0.13,3.2-1,6.5-3.17,8.84c0.9-0.12,2.23-2.43,3.25-5.71
			C82.52,81.22,82.05,77.98,81.45,75.65z"/>
		<path class="st6" d="M47.5,92.4c-0.96-0.19-1.74,1.47-2.16,2.59c0.94,1.34,2.09,2.59,3.48,3.69C48.76,96.53,48.53,92.6,47.5,92.4z
			"/>
		<path class="st7" d="M47.5,92.4c-0.17-0.03-0.34-0.01-0.49,0.06c0.53,0.65,0.73,1.35,0.78,2.33c0.02,0.46,0.06,1.37-0.57,1.49
			c-0.67,0.13-1.29-0.75-1.63-1.2c-0.06-0.08-0.12-0.16-0.18-0.25c-0.02,0.05-0.04,0.1-0.06,0.16c0.94,1.34,2.09,2.59,3.48,3.69
			C48.76,96.53,48.53,92.6,47.5,92.4z"/>
		<path class="st6" d="M68.16,84.64c1-0.17,1.54-2.23,1.76-3.45c-1.52,0.46-2.96,0.74-4.31,0.88C66.07,83.02,67.1,84.81,68.16,84.64
			z"/>
		<path class="st7" d="M65.61,82.07c0.03,0.06,0.07,0.13,0.1,0.2c0.38-0.18,0.84-0.22,1.24-0.21c0.49,0.01,1.19,0.02,1.54,0.43
			c0.47,0.55,0.26,1.34-0.03,2.03c0.81-0.49,1.25-2.24,1.46-3.33C68.4,81.65,66.96,81.93,65.61,82.07z"/>
		<path class="st6" d="M80.29,92.06c-0.94,0.22-0.61,3.75-0.41,5.42c1.14-1.01,2.12-2.11,2.96-3.26
			C82.15,93.21,81.07,91.89,80.29,92.06z"/>
		<path class="st6" d="M81.1,93.83c-0.15-0.66-0.45-1.25-0.9-1.72c-0.62,0.33-0.6,2.3-0.46,3.94C80.52,95.52,81.32,94.82,81.1,93.83
			z"/>
		<path class="st7" d="M80.65,92.08c0.56,0.72,0.86,1.63,0.6,2.53c-0.21,0.74-0.85,1.26-1.49,1.7c0.04,0.44,0.09,0.84,0.13,1.17
			c1.14-1.01,2.12-2.11,2.96-3.26C82.25,93.36,81.38,92.27,80.65,92.08z"/>
		<path class="st6" d="M52.3,93.21c-1.5,2.49-1.65,5.31-1.6,6.79c1.63,0.98,3.51,1.78,5.67,2.33c-1.2-2.26-1.51-5.18-1.59-7.21
			C54.68,92.83,54.35,90.11,52.3,93.21z"/>
		<path class="st7" d="M54.78,95.11c-0.06-1.34-0.19-2.82-0.71-3.2c-0.13,1.54-0.07,3.08,0.01,4.63c0.05,0.91,0.36,2.3-0.15,3.14
			c-0.48,0.78-1.5,0.63-2.25,0.32c-0.33-0.13-0.66-0.27-0.98-0.41c0,0.14,0,0.28,0.01,0.41c1.63,0.98,3.51,1.78,5.67,2.33
			C55.17,100.06,54.86,97.14,54.78,95.11z"/>
		<path class="st6" d="M73.34,90.49c0.31,2.91-0.04,8.81-0.18,11.01c2-0.75,3.75-1.71,5.27-2.83C77.6,91.43,73.03,88.36,73.34,90.49
			z"/>
		<path class="st7" d="M73.46,89.92c1.52,1.79,2.98,3.74,3.11,6.05c0.13,2.31-1.41,3.69-3.34,4.47c-0.02,0.41-0.05,0.77-0.07,1.06
			c2-0.75,3.75-1.71,5.27-2.83C77.72,92.39,74.18,89.25,73.46,89.92z"/>
		<path class="st6" d="M83.25,88.73c-0.56,0.21-0.02,2.98,0.31,4.44c0.66-1.03,1.2-2.09,1.64-3.15
			C84.5,89.32,83.66,88.58,83.25,88.73z"/>
		<path class="st6" d="M84.15,90.01c-0.12-0.58-0.42-0.96-0.82-1.29c-0.03,0-0.06,0-0.09,0.01c-0.49,0.18-0.14,2.3,0.18,3.81
			C83.99,91.86,84.32,90.84,84.15,90.01z"/>
		<path class="st7" d="M84.04,89.01c0.32,0.47,0.46,1.03,0.32,1.75c-0.14,0.73-0.41,1.46-0.89,2.02c0.03,0.14,0.06,0.27,0.09,0.4
			c0.66-1.03,1.2-2.09,1.64-3.15C84.82,89.65,84.41,89.26,84.04,89.01z"/>
		<path class="st6" d="M58.92,99.21c-1.4,0.03-1.62,2.19-1.63,3.32c1.49,0.32,3.1,0.52,4.84,0.59
			C61.69,101.98,60.44,99.17,58.92,99.21z"/>
		<path class="st7" d="M59.68,99.42c0.42,0.74,0.84,1.5,0.14,2.26c-0.4,0.44-1.09,0.44-1.64,0.4c-0.29-0.02-0.58-0.06-0.87-0.09
			c-0.01,0.2-0.02,0.39-0.02,0.55c1.49,0.32,3.1,0.52,4.84,0.59C61.76,102.17,60.84,100.09,59.68,99.42z"/>
		<path class="st6" d="M63.73,98.97c-0.93,0-0.97,2.8-0.94,4.17c0.41,0.01,0.82,0.01,1.24,0.01c0.96-0.02,1.88-0.08,2.77-0.18
			C66.1,101.59,64.64,98.97,63.73,98.97z"/>
		<path class="st7" d="M64.1,99.09c0.67,0.9,1.19,2.08,0.53,2.96c-0.44,0.59-1.14,0.73-1.85,0.73c0,0.12,0,0.24,0.01,0.35
			c0.41,0.01,0.82,0.01,1.24,0.01c0.96-0.02,1.88-0.08,2.77-0.18C66.19,101.77,65,99.62,64.1,99.09z"/>
		<path class="st6" d="M69.16,98.06c-1.06,0.22-1.42,3.36-1.53,4.8c1.36-0.18,2.63-0.45,3.83-0.8
			C71.05,100.6,70.17,97.85,69.16,98.06z"/>
		<path class="st7" d="M69.52,98.11c0.34,1.08,0.56,2.21-0.28,3.12c-0.4,0.43-0.95,0.72-1.54,0.93c-0.03,0.26-0.05,0.5-0.06,0.71
			c1.36-0.18,2.63-0.45,3.83-0.8C71.1,100.78,70.38,98.5,69.52,98.11z"/>
	</g>
	<path class="st0" d="M58.08,33.72c-0.11-0.06-0.29,0.2-0.19,0.28c1.41,1.26,2.67,2.82,3.52,4.51c0.92,1.83,1.44,4.64,1.85,6.56
		c0.13,0.58,0.08-1.16,0.1-1.44C63.73,39.48,61.66,35.74,58.08,33.72z"/>
	<path class="st0" d="M69.67,36.69c-2.8,1.49-3.62,5.13-3.76,8.12c-0.03,0.65,0.21,0,0.29-0.29c0.8-2.7,1.18-5.5,3.46-7.47
		C69.75,36.98,69.93,36.56,69.67,36.69z"/>
	<path class="st11" d="M46.57,0.71c-3.78-1.1-9.46,0.75-10.17,5.13c-0.03,0.16,0.18-0.01,0.2-0.08c0.61-2.09,2.66-3.41,4.63-4.06
		c1.57-0.52,3.38-0.04,5-0.18C46.48,1.5,46.93,0.82,46.57,0.71z"/>
	<g>
		<g>
			<path class="st0" d="M20.54,92.13c-0.71-1.42-3.21-1.69-3.27,1.53c-1.04-1.31-3.76-1.96-4.25,1.85
				c-1.31-1.74-4.25-0.76-3.71,2.07c-2.34-1.47-5.45,0.54-3.92,3.7c-2.4-0.6-3.38,1.31-1.85,3.32c-1.7,0.13-2.01,1.18-1.87,2.24
				c1.01,2.1,2.15,1.73,2.47-1.12c0.36-3.28,4.5-7.65,11.18-10.33c3.58-1.43,6.21-2.69,7.98-4.41
				C22.4,89.19,20.99,89.99,20.54,92.13z"/>
		</g>
		<path class="st3" d="M3.34,106.38c0,0.62-0.32,1.12-0.72,1.12c-0.4,0-0.72-0.5-0.72-1.12c0-0.62,0.32-1.12,0.72-1.12
			C3.02,105.26,3.34,105.76,3.34,106.38z"/>
		<path class="st3" d="M4.58,102.84c-0.18,0.59-0.63,0.98-1.01,0.87c-0.38-0.11-0.55-0.68-0.37-1.28c0.18-0.59,0.63-0.98,1.01-0.87
			C4.59,101.68,4.75,102.25,4.58,102.84z"/>
		<path class="st3" d="M6.86,99.2c-0.18,0.59-0.63,0.98-1.01,0.87c-0.38-0.11-0.55-0.68-0.37-1.28c0.18-0.59,0.63-0.98,1.01-0.87
			C6.87,98.03,7.04,98.6,6.86,99.2z"/>
		<path class="st3" d="M10.99,96.3c-0.31,0.36-0.74,0.49-0.97,0.29c-0.23-0.2-0.17-0.65,0.14-1.01c0.31-0.36,0.74-0.49,0.97-0.29
			C11.36,95.49,11.3,95.94,10.99,96.3z"/>
		<path class="st3" d="M14.82,94.15c-0.31,0.36-0.74,0.49-0.97,0.29c-0.23-0.2-0.17-0.65,0.14-1.01c0.31-0.36,0.74-0.49,0.97-0.29
			C15.19,93.34,15.13,93.79,14.82,94.15z"/>
		<path class="st3" d="M18.86,92.69c-0.31,0.36-0.74,0.49-0.97,0.29c-0.23-0.2-0.17-0.65,0.14-1.01c0.31-0.36,0.74-0.49,0.97-0.29
			C19.23,91.89,19.17,92.34,18.86,92.69z"/>
		<path class="st3" d="M22.07,91.11c-0.23,0.27-0.56,0.37-0.73,0.22c-0.17-0.15-0.13-0.49,0.1-0.76c0.23-0.27,0.56-0.37,0.73-0.22
			C22.35,90.51,22.3,90.85,22.07,91.11z"/>
	</g>
	<path class="st0" d="M57.89,56.69c-1.94,1.51-5.15,1.7-7.42,1.06c-0.05-0.02-0.15,0.13-0.1,0.16c2.14,1.06,5.89,1.03,7.63-0.84
		C58.15,56.91,58.21,56.44,57.89,56.69z"/>
	<path class="st0" d="M75.55,55.22c-1.97,0.2-4.24,0.35-5.81-1.13c-0.07-0.07-0.19,0.14-0.17,0.21c0.88,2.04,4.05,2.35,5.84,1.49
		C75.55,55.71,75.88,55.19,75.55,55.22z"/>
	<g class="st2">
		<path class="st4" d="M106.44,101.82c-3.3-7.87-3.55-20.31-1.78-40.87c0.51-37.83-13.33-46.14-31.04-49.76
			c-11.18-2.28-20.84,0.37-28.94,6.18c5.71-2.47,14.51-4.79,25.7-3.13c8.89,2.03,6.09,8.63,10.16,8.63c4.06,0,5.33-3.81,10.92,3.3
			c5.59,7.11,11.68,23.48,5.59,45.95c-6.09,22.47-1.9,21.71,0.76,29.7c2.67,8-2.64,14.58-16.69,12.31
			c-14.05-2.27-23.8-2.04-33.77,2.27c-9.97,4.31-20.4,2.27-16.77-6.35c3.63-8.61-0.23-19.26-4.99-30.82
			c-1.05-2.56-1.91-5.73-2.57-9.25c0.46,13.54,3.19,24.22,3.19,24.22c0.89,5.04,2.04,8.73-0.6,17.67
			c-4.54,11.72,8.21,13.63,31.66,8.94c23.45-4.69,26.53,1.32,40.74-0.73C112.23,118.03,109.74,109.69,106.44,101.82z"/>
	</g>
	<g>
		<path class="st0" d="M63.79,10.36c0,0-0.13-7.68,7.05-8.57c7.17-0.89,12.19,7.3,9.39,16.88c-1.52,3.3,2.22,2.54,3.11-2.35
			c0.89-4.89-1.9-15.61-11.93-16.31c-5.39-0.32-9.65,4.51-9.2,10.54L63.79,10.36z"/>
		<path class="st11" d="M80.6,5.85c-0.09-0.16-0.34,0.19-0.3,0.32c0.77,2.12,1.42,4.25,1.71,6.5c0.19,1.45,0.21,3-0.13,4.42
			c-0.21,0.88-0.64,1.65-0.8,2.54c-0.12,0.65,0.65,0.02,0.77-0.19C84.22,15.24,82.92,9.77,80.6,5.85z"/>
	</g>
	<path class="st1" d="M79.68,74.83c-5.2,2.08-10.53,5.26-16.31,5c-2.53-0.11-5.45-0.71-7.8-1.64c-2.26-0.89-3.93-2.5-5.95-3.79
		c-0.09-0.06-0.25,0.17-0.17,0.24c1.82,1.63,3.23,3.38,5.49,4.45c2.36,1.11,5.28,1.6,7.86,1.85c2.94,0.28,5.71-0.64,8.44-1.61
		c2.87-1.02,5.63-2.22,8.31-3.67C79.84,75.51,80.26,74.6,79.68,74.83z"/>
	<path class="st1" d="M46.23,18.8c0,0-24.12,18.79-18.79,55.09C20.08,53.08,28.71,29.97,46.23,18.8z"/>
	<path class="st1" d="M14.17,77.07c-1.47,1.22-3.16,2.11-4.55,3.45c-1.51,1.44-3.07,2.94-4.35,4.6C3.06,88,1.03,91.91,1.46,95.66
		c0.08,0.65,0.92-0.34,0.96-0.63c0.54-3.92,1.56-7.15,4.12-10.26c1.05-1.28,2.21-2.51,3.35-3.72c1.32-1.4,2.98-2.42,4.33-3.79
		C14.3,77.19,14.33,76.94,14.17,77.07z"/>
	<path class="st1" d="M129.98,90.84c-5.88-0.64-8.49-9.5-9.97-14.32c-0.87-2.83-1.26-4.32-2.42-7.04c-0.94-2.19-2.51-4.57-4.39-6.08
		c-0.04-0.04-0.12,0.1-0.08,0.14c2.08,2.15,3.41,5.26,4.53,7.98c1.19,2.89,1.33,4.57,2.36,7.52c0.88,2.51,1.83,5.15,3.21,7.45
		c1.52,2.54,4.03,4.87,6.41,4.55C129.98,91,130.5,90.9,129.98,90.84z"/>
</g>
</svg>
