<?xml version="1.0" encoding="utf-8"?>
<!-- Generator: Adobe Illustrator 24.0.1, SVG Export Plug-In . SVG Version: 6.00 Build 0)  -->
<svg version="1.1" id="Layer_1" xmlns="http://www.w3.org/2000/svg" xmlns:xlink="http://www.w3.org/1999/xlink" x="0px" y="0px"
	 viewBox="0 0 411.53 412.34" style="enable-background:new 0 0 411.53 412.34;" xml:space="preserve">
<style type="text/css">
	.st0{fill:#BE1E2D;}
	.st1{fill:#EB789F;}
	.st2{fill:#FFFFFF;}
	.st3{fill:#FFB3D0;}
</style>
<path class="st0" d="M71.42,173.79c-9.59-15.78-30.5-7.04-41.46,2.02c-11.16,9.24-17.8,23.28-22.66,36.63
	c-4.79,13.16-7.14,27.48-7.29,41.46c-0.08,7.19,0.64,14.31,1.69,21.41c0.87,5.85,2.07,11.63,5.04,16.4
	c-2.78,5.62-2.48,14.18-1.99,19.33c0.6,6.31,2.99,16.04,10.98,15.82c3.4-0.1,5.13-3.52,3.7-6.44c-1-2.04-2.76-3.48-3.57-5.63
	c-1.1-2.89-1.24-6.3-1.36-9.35c-0.07-1.95,0.18-4.08,0.41-6.23c0.15,0.06,0.3,0.13,0.45,0.19c0.2,2.16,0.58,4.19,0.96,5.81
	c1.6,6.8,5.62,15.57,12.3,18.61c3.7,1.68,7.54-1.77,5.6-5.6c-2.75-5.44-7.07-9.5-9.15-15.42c-0.38-1.08-0.69-2.15-0.98-3.23
	c1.26-0.36,2.48-0.87,3.58-1.54c2.72,5.47,6.65,12.48,12.41,15.07c4.47,2.02,8.83-3.02,5.34-6.92c-3.2-3.57-9.67-8.96-12.66-14.62
	c1.33-3.34,1.89-6.39,1.44-10.21c-0.04-0.34-0.09-0.68-0.14-1.02c2.51,2.12,4.66,5,5.96,7.09c2.61,4.21,2.93,9.52,5.63,13.49
	c2.16,3.16,7.31,2.91,8.4-1.1c1.95-7.23-3.89-15.92-8.61-20.99c-3.19-3.42-8.1-7.65-13.04-8.34c0-0.02-0.01-0.04-0.01-0.07
	c-0.17-0.94-0.33-1.88-0.46-2.83c0.02,0-0.21-2.19-0.24-2.46c-0.26-2.88-0.41-5.76-0.45-8.64c-0.16-11.66,0.93-19.46,4.45-30.85
	c0.77-2.48,1.63-4.93,2.56-7.35c0.23-0.6,1.58-3.65,2.62-5.7c1.27-2.5,2.64-4.95,4.17-7.3c0.13-0.2,1.34-1.98,1.3-2
	c0.58-0.75,1.21-1.48,1.83-2.19c3.83-4.38,5.41-5.24,10.78-8.31c4.97-2.84,8.99-5.47,12.48-10.11
	C73.23,180.27,72.9,176.23,71.42,173.79z"/>
<path class="st0" d="M319.73,181.8c6.4-17.32,28.6-12.73,41.08-5.92c12.72,6.94,21.92,19.46,29.23,31.64
	c7.21,12,12.25,25.61,15.06,39.31c1.45,7.04,2.1,14.17,2.42,21.34c0.26,5.91,0.18,11.81-1.82,17.06c3.8,4.98,5.14,13.45,5.64,18.6
	c0.62,6.31,0.12,16.32-7.76,17.62c-3.35,0.55-5.71-2.48-4.86-5.62c0.6-2.19,2.04-3.94,2.43-6.2c0.53-3.05,0.02-6.42-0.45-9.44
	c-0.3-1.93-0.95-3.97-1.59-6.03c-0.14,0.09-0.27,0.19-0.41,0.27c0.21,2.16,0.23,4.23,0.17,5.88c-0.27,6.98-2.55,16.35-8.53,20.61
	c-3.31,2.36-7.74-0.3-6.57-4.43c1.67-5.87,5.12-10.68,6.04-16.88c0.17-1.13,0.27-2.24,0.35-3.36c-1.31-0.11-2.6-0.39-3.8-0.83
	c-1.63,5.89-4.15,13.51-9.31,17.16c-4.01,2.83-9.24-1.28-6.56-5.78c2.46-4.11,7.79-10.64,9.64-16.76c-1.94-3.03-3.08-5.91-3.36-9.75
	c-0.02-0.34-0.04-0.68-0.06-1.03c-2.06,2.56-3.62,5.8-4.5,8.1c-1.76,4.63-1.06,9.9-2.96,14.31c-1.51,3.51-6.62,4.25-8.45,0.52
	c-3.29-6.72,0.78-16.37,4.45-22.25c2.48-3.97,6.49-9.05,11.21-10.67c0-0.02,0-0.04,0-0.07c-0.02-0.95-0.04-1.91-0.08-2.86
	c-0.02,0-0.21-2.19-0.23-2.46c-0.29-2.87-0.69-5.73-1.2-8.57c-2.06-11.48-4.62-18.93-10.25-29.44c-1.23-2.29-2.54-4.53-3.92-6.73
	c-0.34-0.54-2.25-3.28-3.66-5.1c-1.72-2.22-3.53-4.35-5.48-6.37c-0.17-0.17-1.69-1.69-1.66-1.72c-0.71-0.62-1.47-1.22-2.21-1.8
	c-4.6-3.57-6.31-4.11-12.17-6.1c-5.42-1.84-9.87-3.66-14.18-7.55C319.19,188.51,318.74,184.49,319.73,181.8z"/>
<g>
	<g>
		<path class="st0" d="M269.67,362.25c0.97,12.57,1.93,25.14,2.9,37.71c0.14,1.82,0.33,3.77,1.49,5.18c1.31,1.59,3.5,2.08,5.53,2.45
			c28.99,5.28,58.77,6.17,88.03,2.64c1.85-7.2-4.78-14.02-11.79-16.48c-7.01-2.46-14.74-2.29-21.71-4.87
			c-6.97-2.58-13.39-9.7-11.18-16.79c4.12-13.19,3.28-24.08,5.95-37.64L269.67,362.25z"/>
		<path class="st0" d="M89.91,372.08c2.21,7.09-4.21,14.22-11.18,16.79c-6.97,2.58-14.7,2.41-21.71,4.87
			c-7.01,2.46-13.64,9.28-11.79,16.48c29.25,3.54,59.04,2.64,88.03-2.64c2.03-0.37,4.22-0.86,5.53-2.45
			c1.16-1.41,1.35-3.36,1.49-5.18c0.97-12.57,1.93-25.14,2.9-37.71L89.91,372.08z"/>
		<path class="st1" d="M53.2,113.4c4.19-0.93,8.37-1.87,12.56-2.8c-10.93,24.1-18.4,49.77-22.11,75.97
			c2.93-1.72,5.85-3.43,8.78-5.15c-1.87,31.94-3.75,63.88-5.62,95.83c2.78-2.01,5.55-4.02,8.33-6.03c2.01,19.67,4.02,39.33,6.03,59
			c3.71-4.04,9.09,3.06,9.91,8.48c2.02,13.34,4.05,26.68,6.07,40.03c7.98,1.93,16.81-0.02,23.24-5.13c3.27,3.5,6.53,7,9.8,10.5
			c1.68-3.01,3.36-6.01,5.04-9.02c2.48,5.35,12.5,3.04,12.37-2.86c5.35,6.45,15.86,7.8,22.67,2.89
			c7.67-21.1,17.86-44.74,39.17-51.81c6.55-2.17,13.59-2.49,20.46-1.9c25.9,2.22,53.15,24.42,47.43,49.77
			c2.68-2.61,5.37-5.22,8.05-7.83c1.45,3.41,2.89,6.83,4.34,10.24c2.82-2.24,5.65-4.49,8.47-6.73c2.35,1.84,4.71,3.68,7.06,5.52
			c2.11-4.02,5.53-7.33,9.62-9.29c-0.08,7.23,10.44,8.35,17.45,6.58c7.01-1.77,17.2-2.04,18.52,5.07
			c7.93-13.94,11.69-30.21,10.69-46.21c2.71,5.43,5.42,10.85,8.13,16.28c10.86-34.56,9.15-72.92-4.72-106.38
			c4.11,5.4,8.23,10.81,12.34,16.21c-3.39-4.46-0.93-25.95-1.8-32.37c-1.46-10.74-3.83-21.29-6.87-31.69
			c-4.64-15.89-6.82-34.28-17.66-47.38c8.4,5.25,16.26,11.36,23.42,18.19c-8.18-25.66-22.05-73.24-45.75-88.24
			c7.64,3.22,15.7,5.43,23.91,6.57c-4.51-5.11-64.27-76.36-76.32-58.74c2.25-3.3,4.51-6.59,6.76-9.89
			c-15.8-4.98-33.89-2.07-47.33,7.62C212.89,11.6,208.45,5.14,202.8,0c1.52,6.32,0.5,13.22-2.79,18.83
			C187.3,9.45,171.38,4.48,155.57,4.97c5.81,4.28,11.63,8.56,17.44,12.84c-21.12-3.25-43.22,0.23-62.31,9.83
			c7.83,4.08,15.66,8.16,23.49,12.24c-19.7-5.89-42.08-1.93-58.57,10.36c5.87-3.67,19,6.99,25.15,6.6
			c-11.62,4.66-20.24,11.86-27.99,21.39C69.16,82.71,56.39,112.69,53.2,113.4z"/>
		<g>
			<path class="st2" d="M302.72,104.69c18.1,16.64,8.54,46.55-11.65,57.01c-23.25,12.04-51.07-14.24-46.87-38.01
				c3.17-17.97,18.6-30.31,36.94-28.1C290.57,96.73,297.68,100.06,302.72,104.69z"/>
			<path d="M271.74,147.34c-17.64,5.06-30.99-14.78-19.55-29.21c10.18-12.83,32.53-6.6,32.25,10.5
				C284.3,137.22,280.54,144.81,271.74,147.34z"/>
			<path class="st2" d="M261,135.7c-3.91,4.65-12.24,1.43-11.69-4.8c0.43-4.99,5.44-8.72,9.55-5.68
				C262.27,127.75,264.04,132.08,261,135.7z"/>
		</g>
		<g>
			<path class="st2" d="M157.79,104.69c18.1,16.64,8.54,46.55-11.65,57.01c-23.25,12.04-51.07-14.24-46.87-38.01
				c3.17-17.97,18.6-30.31,36.94-28.1C145.64,96.73,152.75,100.06,157.79,104.69z"/>
			<path d="M126.81,147.34c-17.64,5.06-30.99-14.78-19.55-29.21c10.18-12.83,32.53-6.6,32.25,10.5
				C139.37,137.22,135.61,144.81,126.81,147.34z"/>
			<path class="st2" d="M116.07,135.7c-3.91,4.65-12.23,1.43-11.69-4.8c0.43-4.99,5.44-8.72,9.55-5.68
				C117.35,127.75,119.11,132.08,116.07,135.7z"/>
		</g>
		<path class="st0" d="M266.13,265.64c-0.66,0.39-1.3,0.74-1.91,1.04c-8.67,4.27-17.8,7.55-27.17,9.85
			c-14.3,3.5-29.18,4.72-43.89,3.65c-9.9-0.71-19.72-2.47-29.23-5.25c-8.15-2.39-16.08-5.53-23.64-9.43
			c-11.54-5.96-22.59-13.96-28.76-25.39c-12.93-23.94-1.48-35.01,16.04-39.49c7.08-1.82,15.16-2.55,23.02-2.63
			c2.93-0.03,5.9-0.11,8.88-0.25c28.98-1.28,60.25-6.97,90.18-8.31c10.13-0.46,20.11-0.42,29.79,0.46c0.65,0.06,1.3,0.12,1.95,0.19
			c5.19,0.54,10.63,1.6,14.58,5.01C317.68,213.8,283.9,255.17,266.13,265.64z"/>
		<path class="st2" d="M159.47,197.74c-2.98,0.14-5.95,0.22-8.88,0.25c-7.86,0.08-15.94,0.81-23.02,2.63
			c1.39,4.07,3.33,8,5.04,11.86c2.99,6.73,6.2,13.35,9.23,20.06c2.9,6.42,11.59,3.54,13.59-1.78
			C159.39,220.23,160.46,208.88,159.47,197.74z M142.89,205.42c0.27-0.06,0.54-0.13,0.81-0.2c0.02,0.6,0.04,1.2,0.05,1.8
			C143.46,206.5,143.17,205.96,142.89,205.42z"/>
		<path class="st2" d="M249.65,189.43c1.06,3.54,3.14,7.17,4.2,9.75c2.76,6.69,6.72,13.29,8.68,20.25c1.83,6.51,12.68,7.33,14.02,0
			c1.79-9.82,2.77-19.63,2.89-29.54C269.76,189.01,259.78,188.97,249.65,189.43z M261.92,190.72c0.49-0.06,0.98-0.14,1.46-0.21
			c0.02,0.88,0.03,1.77,0.05,2.66C262.93,192.35,262.43,191.54,261.92,190.72z"/>
		<path class="st2" d="M193.16,280.18c-9.9-0.71-19.72-2.47-29.23-5.25c0.24-1.9,0.61-3.8,1.13-5.7c1.7-6.26,5.28-11.91,6.96-18.08
			c1.6-5.9,11.17-8.02,13.97-1.82C190.43,259.17,192.96,269.44,193.16,280.18z"/>
		<path class="st2" d="M248.43,242.27c-4.05-4.1-13.3-2.8-14.19,3.75c-1.28,9.32-0.83,20.9,2.81,30.51
			c9.37-2.3,18.5-5.58,27.17-9.85c0.61-0.3,1.25-0.65,1.91-1.04C261.36,257.08,255.3,249.24,248.43,242.27z M247.88,270.39
			c-0.01-0.56,0-1.11,0.01-1.67c0.28,0.44,0.56,0.9,0.84,1.35C248.44,270.16,248.16,270.27,247.88,270.39z"/>
	</g>
	<path class="st3" d="M91.38,308.3c-0.06-4.18,1.87-8.83,0.61-12.81c-0.45-1.43-2.21-2.35-3.58-1.46
		c-7.91,5.15-6.53,25.09,0.56,30.36c1.93,1.43,4-0.59,4.23-2.43C93.78,317.48,91.44,312.87,91.38,308.3z"/>
	<path class="st3" d="M102.49,340.5c-0.57-3.62-0.7-7.61-2.3-10.93c-0.99-2.06-4.66-1.65-5.05,0.66c-0.63,3.64,0.32,7.51,0.77,11.16
		c0.41,3.32,0.36,6.8,2.7,9.37c1.01,1.11,3.15,0.88,3.83-0.49C103.98,347.13,103.01,343.83,102.49,340.5z"/>
	<path class="st3" d="M131.52,309.37c-0.15-4.42,0.19-9.36-1.15-13.6c-0.76-2.4-4.12-2.41-4.88,0c-1.34,4.24-1,9.17-1.15,13.6
		c-0.15,4.3-0.17,8.27,1.61,12.24c0.68,1.5,3.29,1.5,3.97,0C131.69,317.64,131.66,313.67,131.52,309.37z"/>
	<path class="st3" d="M127.77,352.89c-0.42-2.59-0.91-5.17-1.36-7.76c-0.6-3.39-6.46-2.65-6.08,0.82c0.29,2.61,0.56,5.22,0.87,7.83
		c0.29,2.41,0.49,4.86,2.73,6.21c0.88,0.53,2.19,0.39,2.9-0.37C128.62,357.66,128.17,355.33,127.77,352.89z"/>
	<path class="st3" d="M281.06,307.24c-0.68-2.14-1.34-4.19-2.33-6.21c-1.23-2.52-5.89-1.42-5.5,1.49c0.3,2.24,0.83,4.3,1.45,6.48
		c0.62,2.17,1.02,4.35,2.56,6.06c1.38,1.53,4.61,0.9,4.94-1.3C282.53,311.4,281.77,309.48,281.06,307.24z"/>
	<path class="st3" d="M287.4,345.75c-0.9-2.98-1.4-5.68-1.52-8.79c-0.16-3.82-5.6-4.68-6.72-0.91c-1.23,4.14-0.69,8.77,1.2,12.67
		C282.26,352.67,288.65,349.89,287.4,345.75z"/>
	<path class="st3" d="M315.29,300.66c-0.89-2.7-1.97-5.34-2.96-7.99c-1.03-2.77-5.72-2.65-5.52,0.75c0.17,2.94,0.25,5.92,0.58,8.85
		c0.34,3,0.58,5.93,3.39,7.6c1.67,0.99,3.57,0.27,4.62-1.21C317.1,306.22,316.15,303.26,315.29,300.66z"/>
	<path class="st3" d="M314.12,342.53c-0.81-3.43-1.32-6.53-1.04-10.07c0.31-4.02-6.36-4.97-7.09-0.96
		c-0.81,4.42-2.29,17.01,4.48,17.55C314.25,349.35,314.78,345.31,314.12,342.53z"/>
	<path class="st3" d="M339.53,287.34c-2.02-1.59-5.4,0.4-3.83,2.95c2.49,4.03,1.63,8.47,0.52,12.81c-0.82,3.2,3.33,5.9,5.72,3.33
		C347.21,300.75,345.34,291.92,339.53,287.34z"/>
	<path class="st3" d="M194.15,38.55c-5.21-2.48-13.74-4.44-18.95-0.97c-3.18,2.12-2.36,8.25,2.13,7.86
		c2.44-0.21,4.58-1.34,7.04-1.49c2.44-0.15,4.74,0.3,7.04,1.1C195.18,46.38,197.81,40.29,194.15,38.55z"/>
	<path class="st3" d="M192.65,55.23c-2.8,3.62-6.06,7.14-8.15,11.21c-1.92,3.74,2.91,7.97,6.04,4.66c3.18-3.36,5.44-7.5,7.93-11.38
		C200.69,56.25,195.25,51.87,192.65,55.23z"/>
	<path class="st3" d="M226.24,32.4c-5.2-2.14-11.66,3.22-13.69,7.65c-1.58,3.44,3.29,6.47,5.18,3.03c0.84-1.52,1.97-2.72,3.53-3.5
		c1.59-0.8,3.34-0.68,4.98-1.3C229.19,37.17,229.04,33.56,226.24,32.4z"/>
	<path class="st3" d="M225.37,63.93c-1.65-1.39-3.38-2.65-5.12-3.92c-1.9-1.39-3.44-3.08-5.95-2.26c-0.58,0.19-1.25,0.68-1.34,1.34
		c-0.18,1.32-0.25,2.35,0.7,3.42c0.67,0.77,1.49,1.45,2.22,2.16c1.48,1.44,2.94,2.9,4.53,4.24c1.45,1.22,3.55,1.42,4.97,0
		C226.63,67.64,226.83,65.16,225.37,63.93z"/>
	<path class="st3" d="M273.47,56.18c-2.94-5.85-10.46-8.5-16.56-9.23c-4.01-0.48-4.96,6.39-0.96,7.09c2.45,0.43,4.71,1.16,6.84,2.46
		c2.11,1.29,3.84,3.08,5.87,4.49C271.77,63.14,274.92,59.06,273.47,56.18z"/>
	<path class="st3" d="M158.48,55.82c-2.88-2.34-6.49-1.5-9.94-0.83c-3.68,0.71-7.52,1.92-10.52,4.21c-1.54,1.18-2.38,2.89-1.57,4.8
		c0.67,1.6,2.75,2.94,4.53,2.23c3.03-1.21,5.9-2.76,9.06-3.65c2.92-0.82,6.15-0.5,8.44-2.64C159.54,58.94,159.67,56.79,158.48,55.82
		z"/>
	<path class="st3" d="M181.68,99.73c-4.08,5.1-8.22,12.22-6.87,18.98c0.58,2.92,4.58,2.41,5.42,0c0.92-2.63,1.02-5.43,1.73-8.12
		c0.75-2.85,1.94-5.45,3.47-7.96C186.81,100.37,183.41,97.57,181.68,99.73z"/>
	<path class="st3" d="M218.2,102.96c0-2.29-3.56-2.3-3.56,0c0,4.51-0.8,8.98-0.66,13.5c0.1,3.14,4.78,3.14,4.88,0
		C219,111.94,218.2,107.47,218.2,102.96z"/>
	<path class="st3" d="M196.85,153.14c-0.47-3.42-6.46-2.65-6.08,0.82c0.54,4.86,0.1,9.5-1.39,14.16c-1.29,4.02,5.13,5.8,6.33,1.74
		C197.33,164.35,197.62,158.83,196.85,153.14z"/>
	<path class="st3" d="M228.23,161.46c-0.07-3.62-5.55-3.62-5.63,0c-0.08,4-0.16,8-0.23,12c-0.08,3.92,6.17,3.93,6.09,0
		C228.39,169.46,228.31,165.46,228.23,161.46z"/>
	<path class="st3" d="M250.91,86.24c-0.9-2.09-2.37-3.96-3.63-5.85c-0.36-0.54-0.92-1.02-1.57-1.18c-1.24-0.82-3.07-0.1-2.89,1.58
		c-0.19,0.48-0.25,1.01-0.09,1.52c0.77,2.43,1.4,4.94,2.59,7.2c0.81,1.54,2.96,2.01,4.43,1.16
		C251.41,89.69,251.61,87.85,250.91,86.24z"/>
	<path class="st3" d="M90.22,83.6c-5.64,3.79-11.24,9.27-11.81,16.39c-0.22,2.72,3.51,4.02,5.28,2.19
		c3.97-4.08,6.41-9.45,10.34-13.65C96.37,86.03,93.3,81.53,90.22,83.6z"/>
	<path class="st3" d="M73.25,155.68c-2.32,4.31-5.37,11.12-2.71,15.84c0.77,1.36,2.88,1.38,3.64,0c1.1-2,1.11-4.05,1.44-6.25
		c0.36-2.41,1.08-4.77,2.08-6.99C79.05,155.33,74.86,152.71,73.25,155.68z"/>
	<path class="st3" d="M100.56,166.53c-1.8,6.32-3.95,12.32-3.86,18.94c0.04,2.67,3.82,3.87,5.15,1.4
		c3.16-5.82,4.05-12.05,5.39-18.49C108.15,164.03,101.79,162.2,100.56,166.53z"/>
	<path class="st3" d="M68.98,219.95c-0.77,9.96-1.97,20-2.05,29.99c-0.02,3.01,4.29,2.88,4.59,0c1.03-9.92,0.96-20.02,1.3-29.99
		C72.91,217.46,69.17,217.51,68.98,219.95z"/>
	<path class="st3" d="M97.74,248.45c-0.13-3.62-5.49-3.62-5.63,0c-0.22,6-0.62,11.99-0.42,18c0.14,4.16,6.33,4.17,6.47,0
		C98.36,260.45,97.96,254.46,97.74,248.45z"/>
	<path class="st3" d="M162.15,303.24c-0.27-1.85-0.45-3.82-0.19-5.68c0.3-2.18-0.53-4.38-2.85-5.02c-2.05-0.56-4.53,0.69-5.02,2.85
		c-0.65,2.86-1,5.86-0.53,8.77c0.51,3.11,1.53,5.18,4.1,7.05c1.55,1.12,4.2,0,4.54-1.85C162.63,307.13,162.47,305.46,162.15,303.24z
		"/>
	<path class="st3" d="M293.68,273.21c-0.2-1.47-0.12-3.2,0.14-4.65c0.2-1.15,0.11-2.6-0.9-3.41c-0.64-0.51-1.07-0.86-1.9-0.96
		c-0.19-0.02-0.38-0.04-0.57-0.07c-1.1-0.13-2.56,0.74-3.02,1.73c-2.1,4.51-2.66,12.44,2.52,15.24c2.16,1.17,4.6-0.31,4.73-2.71
		C294.76,276.53,293.93,275,293.68,273.21z"/>
	<path class="st3" d="M331.93,256.89c-0.66-2.46-1.12-6.44-3.7-7.57c-1.07-0.47-2.24-0.47-3.12,0.4c-2.2,2.17-1.15,5.88-0.83,8.66
		c0.38,3.31,0.66,6.66,4.09,8c1.03,0.4,2.26-0.1,3.01-0.8C333.82,263.35,332.69,259.7,331.93,256.89z"/>
	<path class="st3" d="M321.72,213.61c-0.18-2.88-0.36-5.77-0.54-8.65c-0.22-3.56-5.31-3.56-5.53,0c-0.18,2.88-0.36,5.77-0.54,8.65
		c-0.17,2.72-0.59,5.35,0.84,7.79c1.09,1.85,3.85,1.85,4.94,0C322.32,218.96,321.89,216.33,321.72,213.61z"/>
	<path class="st3" d="M316.01,172.94c-1.66-2.69-2.94-5.57-4.6-8.26c-1.82-2.95-6.19-1-5.48,2.31c0.72,3.38,2.31,6.51,3.98,9.51
		c1.68,3.02,3.17,5.54,6.46,6.87c1.5,0.61,3.48-0.95,3.32-2.53C319.37,177.62,317.65,175.62,316.01,172.94z"/>
	<path class="st3" d="M278.91,174.27c-0.57-2.46-4.4-2.46-4.97,0c-0.35,1.49-0.5,2.85-0.38,4.38c0.05,0.69,0.05,1.45,0.23,2.11
		c0.25,0.89,0.92,1.41,1.64,1.9c0.54,0.37,1.44,0.37,1.99,0c1.58-1.07,1.74-2.22,1.87-4.01
		C279.4,177.13,279.25,175.76,278.91,174.27z"/>
	<path class="st3" d="M150.45,172.63c-0.74,2.4-1.96,5.2-1.71,7.76c0.14,1.49,0.94,2.81,2.46,3.23c1.39,0.38,3.08-0.24,3.78-1.54
		c1.38-2.56,1.36-5.77,1.64-8.61C156.98,169.83,151.45,169.38,150.45,172.63z"/>
</g>
</svg>
