<?xml version="1.0" encoding="utf-8"?>
<!-- Generator: Adobe Illustrator 24.0.1, SVG Export Plug-In . SVG Version: 6.00 Build 0)  -->
<svg version="1.1" id="Layer_1" xmlns="http://www.w3.org/2000/svg" xmlns:xlink="http://www.w3.org/1999/xlink" x="0px" y="0px"
	 viewBox="0 0 385.38 386.48" style="enable-background:new 0 0 385.38 386.48;" xml:space="preserve">
<style type="text/css">
	.st0{fill:#662D91;}
	.st1{fill:#00A79D;}
	.st2{fill:#FFFFFF;}
	.st3{fill:#BE1E2D;}
	.st4{fill:#EB789F;}
</style>
<g>
	<path class="st0" d="M374.65,41.95c-0.03-0.11-0.06-0.22-0.09-0.33c9.18-6.55,13.08-20.93,9.5-31.46
		c-2.34-6.86-14.14-6.31-13.44,1.82c0.4,4.67,1.16,9.12,0.58,13.83c-0.22,1.84-0.63,3.68-1.11,5.51c-0.69-1.13-1.43-2.26-2.24-3.44
		c-0.71-1.04-1.57-1.88-2.51-2.54c0-6.88-3.6-14.75-7.1-19.02c-4.27-5.22-12.63,1.5-9.23,7.12c2.03,3.35,4.13,6.52,5.21,10.34
		c0.13,0.47,0.25,0.96,0.36,1.44c-0.7,0.49-1.34,1.08-1.88,1.8c-0.72-1.03-1.51-2.01-2.33-2.94c-3.17-3.57-8.06-8.24-12.84-9.24
		c-5.58-1.16-9.98,5.45-5.7,9.79c2.96,3.01,7.17,4.74,10.35,7.64c1.52,1.38,3.01,2.78,4.47,4.22c0.73,0.71,1.55,1.34,2.38,1.95
		c-0.25,1.62-0.38,3.31-0.33,5.16c0.08,2.72,0.22,5.44,0.4,8.15c-0.57-0.43-1.12-0.87-1.64-1.34c-2.97-2.71-3.9-6.38-8.02-7.78
		c-2.11-0.72-4.56,0.49-5.66,2.3c-3.47,5.71,2,12.23,6.72,15.23c2.86,1.82,6.23,2.88,9.48,2.64c0.45,5.4,0.86,10.81,1.04,16.23
		c0.48,14.51-0.7,28.68-6.06,42.29c-0.04,0.1-0.07,0.18-0.1,0.26c-0.26,0.58-0.52,1.16-0.8,1.74c-0.73,1.53-1.51,3.04-2.33,4.53
		c-1.4,2.55-2.86,5.07-4.47,7.49c-2.11,3.18-2.23,3.3-4.51,5.86c-2.06,2.31-4.29,4.46-6.52,6.6c-4.15,3.97-7.69,7.06-13.01,9.92
		c-5.11,2.74-10.79,3.76-16.03,6.1c-4.47,2-4.46,9.78,0,11.78c12.94,5.8,30.7,0.89,42.26-6.1c12.79-7.73,23.35-20.62,29.54-34.12
		c7.57-16.51,10.5-34.52,10.48-52.62c-0.01-9.41-0.91-18.67-2.26-27.98C376.56,50.45,375.73,46.19,374.65,41.95z"/>
	<path class="st0" d="M64.89,140.19c-4.4,0.39-6.83-1.09-10.38-3.7c-1.3-0.96-1.9-1.51-3.35-2.86c-1.17-1.08-2.34-2.14-3.43-3.31
		c-0.21-0.22-2.09-2.43-2-2.27c-5.57-7.21-10.12-16.06-12.43-22.86c-1.64-4.82-2.73-9.71-3.72-14.69c-0.03-0.17-0.18-1.11-0.24-1.42
		c-0.12-1-0.22-2.01-0.3-3.02c-0.23-2.77-0.4-5.55-0.44-8.33c-0.03-2.15,0.02-4.3,0.13-6.44c2.01,0.36,4.12,0.35,6.13-0.02
		c6.35-1.16,11.71-5.36,13.83-11.49c0.76-2.2-0.45-5.66-2.7-6.64c-5.49-2.39-8.63,5.14-13.29,6.69c-0.87,0.29-1.74,0.44-2.6,0.5
		c0.65-3.18,1.41-6.34,2.12-9.51c0.6-2.7,1.36-5.66,1.65-8.61c1.13-1.08,2.3-2.1,3.62-2.92c3.41-2.14,7.53-3.1,10.76-5.5
		c3.02-2.25,3.17-7.59-1.13-8.62c-6-1.44-11.82,1.77-15.87,6.06c-0.65-0.82-1.38-1.48-2.15-2.02c0.56-1,1.16-1.96,1.81-2.89
		c2.63-3.72,6.58-6.35,7.54-11.04c0.4-1.97-0.55-4.07-2.62-4.61c-6.9-1.82-12.21,4.12-15.1,9.71c-1.36,2.63-2.25,5.37-2.62,8.16
		c-1.48,0.64-2.89,1.54-4.17,2.66c-0.18,0.15-0.34,0.33-0.51,0.48c0.11-1.57,0.3-3.12,0.59-4.62c0.95-4.97,4.11-9.38,4-14.51
		c-0.06-2.79-2.52-4.37-5.1-3.89C5.18,10.1,2.46,19.34,1.72,26.12c-0.67,6.11,1.06,11.7,4.41,16.54C3.57,48.62,2.15,55.3,1.28,61.1
		c-3.37,22.39-0.06,44.53,9.79,64.96c10.04,20.81,36.18,48.85,59.98,29.02C76.68,150.38,72.23,139.53,64.89,140.19z"/>
	<path class="st0" d="M246.26,327.33c-0.85-8.5-1.64-17-2.2-25.53c-0.56-8.53-1.22-17.03-1.85-25.56
		c-0.69-9.38-1.19-19.41-6.27-27.57c-2.4-3.85-9.17-5.81-12.42-1.6c-6.25,8.09-7.84,17.21-8.99,27.2
		c-1.06,9.17-1.73,18.3-1.91,27.52c-0.18,9.15-0.3,18.35,0.06,27.49c0.41,10.23-0.05,22.54,5.15,31.55
		c7.12,12.33,24.93,8.91,29.12-3.81C249.94,347.97,247.19,336.67,246.26,327.33z"/>
	<path class="st0" d="M179.74,336.29c-0.31-2.26-0.36-2.6-0.14-1c-0.17-1.3-0.33-2.6-0.49-3.91c-0.24-1.95-0.47-3.91-0.69-5.87
		c-0.6-5.15-1.25-9.62-1.64-12.73c-1.18-9.32-2.21-18.61-3.67-27.89c-1.4-8.92-2.77-18.68-9.1-25.6c-3.58-3.91-11.09-4.1-14.63,0
		c-6.81,7.88-7.65,18.96-8.25,28.95c-0.51,8.55-0.31,16.97,0.12,25.52c0.43,8.52,1.32,16.96,2.4,25.42
		c1.44,11.31,3.56,22.45,12.13,30.73c5.8,5.6,16.76,5.07,20.71-2.67C181.58,357.27,181.23,347.11,179.74,336.29z"/>
	<path class="st1" d="M37.84,121.89c5.65,0.23,11.3,0.45,16.95,0.68c-10.82,19.74-18.85,41-23.8,62.96
		c6.07,2.29,12.81,2.78,19.16,1.41c-0.88,14.9-0.52,29.88,1.08,44.72c7.02-1.83,14.05-3.66,21.07-5.49c0.16,7,0.4,14.32,3.84,20.41
		s11.2,10.36,17.59,7.5c2.57-1.15,5.05-3.37,7.79-2.7c2.78,0.68,3.94,3.88,4.96,6.55c2.94,7.66,8.84,14.72,16.81,16.66
		c7.97,1.94,17.65-2.98,18.84-11.1c5.84,10.13,15.87,21.88,26.76,17.6c3.35-1.32,5.94-4,8.98-5.92
		c11.25-7.09,28.48-0.62,32.28,12.12c8.47-8.09,16.94-16.18,25.4-24.27c3.74,3.85,7.49,7.7,11.23,11.55
		c24.63-4.01,45.81-24.2,51-48.61c3.61,4.98,7.21,9.96,10.82,14.94c11.25-25.31,12.49-54.92,3.4-81.09
		c4.47,4.21,10.36,6.89,16.47,7.5c3.28-21.57-2.41-44.37-15.43-61.87c6.8,0.93,13.61,1.86,20.41,2.79
		c-7.32-41.91-45.91-76.21-88.39-78.57c5.06-4.96,10.12-9.91,15.18-14.87c-19.26-6.07-40.89-4.22-58.84,5.03
		C192.6,11.69,182.52,4.97,171.64,0c2.14,6.41,3.24,13.17,3.26,19.92C157.55,8.38,135.44,4.24,115.08,8.71
		c11.05,5.76,21.06,13.53,29.37,22.8c-19.56-7.35-44.62-6.84-62.48,4.47c10.32,0.05,18.69,4.53,28.04,8.81
		C82.56,32.25,42.5,104.88,37.84,121.89z"/>
	<g>
		<path class="st2" d="M218.49,123.44c-21.79,17.59-53.89,1.79-62.28-22.73c-9.65-28.23,24.64-55.15,50.72-46.42
			c19.71,6.6,31.02,26.06,25.44,46.35C229.51,111.09,224.56,118.54,218.49,123.44z"/>
		<path d="M175.65,81.35c-2.73-20.72,21.87-32.43,36.21-17.11c12.75,13.63,1.96,37.77-17.27,34.57
			C184.94,97.2,177.01,91.7,175.65,81.35z"/>
		<path class="st2" d="M190.58,71.21c-4.59-5.19,0.45-14.03,7.38-12.37c5.55,1.33,8.91,7.59,4.79,11.71
			C199.32,73.98,194.14,75.24,190.58,71.21z"/>
	</g>
	<g>
		<path class="st2" d="M136.4,154.45c-15.37,12.41-38.02,1.26-43.94-16.04c-6.81-19.91,17.38-38.91,35.78-32.75
			c13.9,4.65,21.88,18.39,17.95,32.7C144.17,145.73,140.68,150.99,136.4,154.45z"/>
		<path d="M106.17,124.75c-1.93-14.62,15.43-22.88,25.54-12.07c8.99,9.62,1.38,26.64-12.18,24.39
			C112.73,135.94,107.14,132.05,106.17,124.75z"/>
		<path class="st2" d="M116.71,117.6c-3.24-3.66,0.32-9.9,5.21-8.73c3.92,0.94,6.28,5.36,3.38,8.26
			C122.87,119.56,119.22,120.44,116.71,117.6z"/>
	</g>
	<g>
		<path class="st2" d="M293.8,167.87c-15.37,12.41-38.02,1.26-43.94-16.03c-6.81-19.91,17.38-38.91,35.78-32.75
			c13.9,4.65,21.88,18.39,17.95,32.7C301.57,159.16,298.08,164.41,293.8,167.87z"/>
		<path d="M263.58,138.17c-1.93-14.62,15.43-22.88,25.54-12.07c8.99,9.62,1.38,26.64-12.18,24.39
			C270.13,149.36,264.54,145.48,263.58,138.17z"/>
		<path class="st2" d="M274.11,131.02c-3.24-3.66,0.32-9.9,5.21-8.72c3.92,0.94,6.28,5.36,3.38,8.26
			C280.27,132.98,276.62,133.87,274.11,131.02z"/>
	</g>
	<path class="st3" d="M130.33,213.06c0.69,2.8,2.14,5.29,4.06,7.36c0.78,1.61,2.11,2.61,3.66,3.07c2.01,1.31,4.25,2.28,6.56,2.82
		c8.09,1.89,15.74-2.06,22.3-6.36c6.06-3.97,12.44-7.86,19.18-10.75c0.85-0.09,1.7-0.17,2.55-0.23c16.08-1.16,30.01,3.22,44.93,8.57
		c2.75,0.99,5.84,0,7.97-1.92c1.37,0.09,2.78,0.01,4.23-0.28c7.26-1.48,12.7-7.71,12.66-15.22c-0.03-7.17-4.79-13.54-10.3-17.67
		c-11.59-8.7-28.79-10.8-42.86-10.67c-0.72,0.01-1.45,0.02-2.2,0.04c-17.1-2.21-35.1,1.61-49.91,10.37
		C143.29,188.02,127.05,199.75,130.33,213.06z"/>
	<path class="st1" d="M253.09,330.86c-2.35,8.07-4.04,16.34-5.06,24.68c-0.45,3.65-0.64,7.75,1.72,10.57
		c3.76,4.5,12.72,4.22,13.68,10c-3.67,7.44-13.08,9.82-21.36,10.25c-8.39,0.43-16.83-0.3-25.02-2.15c-2.03-0.46-4.11-1.02-5.72-2.35
		c-2.58-2.14-3.33-5.75-3.69-9.08c-1.48-13.78-1.44-28.52,0.73-42.22c0.26-1.62,0.62-3.37,1.85-4.46c1.02-0.9,2.43-1.17,3.78-1.4
		C217.88,324.03,255.46,322.68,253.09,330.86z"/>
	<path class="st1" d="M138.94,333.25c2.25,7.73,3.87,15.63,4.85,23.62c0.43,3.49,0.61,7.42-1.65,10.12
		c-3.6,4.3-12.18,4.03-13.09,9.57c3.52,7.12,12.52,9.4,20.44,9.81c8.03,0.41,16.11-0.28,23.94-2.06c1.94-0.44,3.94-0.98,5.47-2.25
		c2.47-2.05,3.19-5.5,3.53-8.69c1.42-13.19,1.38-27.3-0.7-40.4c-0.25-1.55-0.59-3.22-1.77-4.26c-0.98-0.86-2.33-1.12-3.61-1.34
		C172.63,326.71,136.67,325.43,138.94,333.25z"/>
	<path class="st4" d="M228.72,241.99c-1.26-12.93-3.16-26.12-15.87-32.71c-11.31-5.86-23.78-3.97-35.53-0.73
		c-1.09,0.2-2.18,0.5-3.24,0.92c-3.1,1.25-4.73,3.77-5.12,6.4c-3.98,1.03-2.94,7.18,1.12,7.23c0.58,0.01,1.11,0.1,1.63,0.23
		c0.71,0.54,1.54,0.94,2.49,1.15c3.73,2.66,5.51,8.64,6.46,12.71c2.17,9.24,3.22,18.89,3.95,28.33c1.49,19.24,0.83,38.66-2.13,57.73
		c-0.77,4.99,4.42,8.37,8.45,4.92l7.05-6.04c0.65-0.55,3.31-3.1,4.61-4.3c1.02,1.24,2.42,2.12,3.93,2.56
		c0.91,1.25,1.73,2.52,2.18,3.04c2.35,2.75,4.7,5.49,7.05,8.24c2.4,2.8,7.83,1.4,8.52-2.25
		C229.69,300.54,231.57,271.28,228.72,241.99z M215.23,315.46c0.78-2.96,1.46-5.94,2.05-8.94c-0.32,3.33-0.71,6.65-1.18,9.96
		C215.81,316.13,215.52,315.79,215.23,315.46z M193.98,312.26c0.09-0.89,0.17-1.79,0.26-2.68c0.8,0.24,1.65,0.35,2.51,0.34
		c-0.57,0.46-1.13,0.95-1.7,1.43C194.69,311.64,194.34,311.95,193.98,312.26z"/>
</g>
</svg>
